<svg width="14" height="14" viewBox="0 0 14 14" fill="none" xmlns="http://www.w3.org/2000/svg">
<path d="M13.1581 4.37016C13.4369 2.95666 12.4598 1.62758 11.0968 1.47722C10.3845 -0.249046 8.08515 -0.538857 7.00046 1.01528C5.91621 -0.538263 3.61679 -0.249867 2.9041 1.47722C1.54028 1.62769 0.564186 2.95763 0.842813 4.37016C-0.173085 5.24404 -0.278098 6.80146 0.576019 7.81134C-0.83905 9.76753 0.505928 12.6187 2.94713 12.6187C3.72666 14.2881 5.95223 14.486 7.00043 12.9842C8.04949 14.4873 10.275 14.2864 11.0537 12.6187C13.4888 12.6243 14.8403 9.76807 13.4248 7.81134C14.2801 6.80018 14.1727 5.24296 13.1581 4.37016ZM5.02333 13.08C3.79002 13.08 3.07837 11.5925 3.88201 10.5942C4.03731 10.4013 4.01086 10.1158 3.82295 9.95634C3.63505 9.79698 3.35689 9.82413 3.20162 10.017C2.83056 10.4779 2.63305 11.0748 2.66425 11.6862C0.990775 11.5036 0.245395 9.44969 1.35166 8.18347C1.36377 8.19751 1.77869 7.58864 2.66398 7.49185C2.64941 7.78532 2.68676 8.08201 2.77837 8.36967C2.83922 8.56074 3.01203 8.68205 3.19779 8.68205C3.49683 8.68205 3.71082 8.38153 3.61737 8.0881C3.36387 7.292 3.78853 6.43259 4.56406 6.17237C4.79574 6.09461 4.92216 5.83881 4.84641 5.60096C4.77066 5.3631 4.52155 5.23325 4.28976 5.31112C4.18875 5.34501 4.09124 5.3859 3.99704 5.43234C3.82119 4.97011 3.9425 4.4241 4.33459 4.0906C4.52227 3.93092 4.54834 3.64533 4.39282 3.45267C4.2373 3.26001 3.95905 3.23328 3.77137 3.3929C3.00699 4.04311 2.83012 5.1361 3.2745 5.9858C2.97681 6.3234 2.90768 6.57369 2.8828 6.57369C2.23501 6.57369 1.63561 6.79016 1.14941 7.1562C0.607769 6.46008 0.762047 5.41101 1.52646 4.92166C1.70256 4.80894 1.77836 4.5855 1.70854 4.38485C1.38432 3.45284 1.99586 2.35662 3.16651 2.35662C3.36602 2.35662 3.54162 2.21876 3.59301 2.01958C3.7645 1.3549 4.35265 0.890691 5.02331 0.890691C5.83922 0.890691 6.50303 1.57208 6.50303 2.40966V11.561C6.50303 12.3986 5.83925 13.08 5.02333 13.08ZM12.7393 7.15623C12.2129 6.75995 11.5746 6.5631 10.9974 6.57414C10.8974 6.35894 10.7739 6.16688 10.6142 5.9858C11.0583 5.13678 10.8824 4.04368 10.1174 3.3929C9.9296 3.23325 9.65141 3.26001 9.49592 3.45267C9.3404 3.64536 9.36649 3.93095 9.55415 4.0906C9.94623 4.42407 10.0676 4.97011 9.8917 5.43234C9.79747 5.3859 9.69998 5.34501 9.59897 5.31112C9.36726 5.2333 9.11807 5.36313 9.04232 5.60096C8.96658 5.83878 9.09299 6.09461 9.32467 6.17237C10.1002 6.43259 10.5249 7.292 10.2714 8.0881C10.1956 8.32592 10.322 8.58175 10.5537 8.65951C10.7841 8.73684 11.0342 8.60871 11.1104 8.36967C11.202 8.08198 11.2393 7.78529 11.2248 7.49183C12.2618 7.60523 13.0606 8.51046 13.0606 9.58897C13.0606 10.6762 12.2551 11.5738 11.2245 11.6862C11.2556 11.0771 11.0596 10.4796 10.6871 10.0169C10.5319 9.82402 10.2537 9.79692 10.0658 9.95628C9.8779 10.1157 9.85145 10.4013 10.0067 10.5941C10.8089 11.5906 10.0993 13.0799 8.86543 13.0799C8.04951 13.0799 7.3857 12.3985 7.3857 11.5609V2.40966C7.3857 1.57211 8.04949 0.890691 8.86543 0.890691C9.53608 0.890691 10.1242 1.35493 10.2957 2.01958C10.3484 2.22363 10.5306 2.36379 10.7368 2.3564C11.7706 2.31738 12.5326 3.37191 12.1802 4.38488C12.1104 4.58553 12.1862 4.80897 12.3623 4.92169C13.1275 5.41152 13.2803 6.46093 12.7393 7.15623Z" fill="#F4364C"/>
</svg>
