<svg width="16" height="16" viewBox="0 0 16 16" fill="none" xmlns="http://www.w3.org/2000/svg">
<path d="M3.76465 2.25C3.76465 1.69771 4.21236 1.25 4.76465 1.25H11.147C11.6993 1.25 12.147 1.69772 12.147 2.25V7.54118C12.147 9.8559 10.2705 11.7324 7.95582 11.7324V11.7324C5.6411 11.7324 3.76465 9.8559 3.76465 7.54118V2.25Z" stroke="#F4364C"/>
<path d="M12.1475 3.43372H13.1622C13.9906 3.43372 14.6622 4.10529 14.6622 4.93372V6.556C14.6622 7.13085 14.3336 7.65515 13.8163 7.90584L12.1475 8.7146" stroke="#F4364C"/>
<path d="M3.76465 3.43372H2.74994C1.92151 3.43372 1.24994 4.10529 1.24994 4.93372V6.556C1.24994 7.13085 1.57848 7.65515 2.09579 7.90584L3.76465 8.7146" stroke="#F4364C"/>
<path d="M7.95605 11.7324V14.7501" stroke="#F4364C"/>
<path d="M11.3096 14.75H4.60369" stroke="#F4364C" stroke-linecap="round"/>
</svg>
