<svg width="17" height="16" viewBox="0 0 17 16" fill="none" xmlns="http://www.w3.org/2000/svg">
<path d="M2.5 8C2.5 8.78793 2.65519 9.56815 2.95672 10.2961C3.25825 11.0241 3.70021 11.6855 4.25736 12.2426C4.81451 12.7998 5.47595 13.2417 6.2039 13.5433C6.93185 13.8448 7.71207 14 8.5 14C9.28793 14 10.0681 13.8448 10.7961 13.5433C11.5241 13.2417 12.1855 12.7998 12.7426 12.2426C13.2998 11.6855 13.7417 11.0241 14.0433 10.2961C14.3448 9.56815 14.5 8.78793 14.5 8C14.5 7.21207 14.3448 6.43185 14.0433 5.7039C13.7417 4.97595 13.2998 4.31451 12.7426 3.75736C12.1855 3.20021 11.5241 2.75825 10.7961 2.45672C10.0681 2.15519 9.28793 2 8.5 2C7.71207 2 6.93185 2.15519 6.2039 2.45672C5.47595 2.75825 4.81451 3.20021 4.25736 3.75736C3.70021 4.31451 3.25825 4.97595 2.95672 5.7039C2.65519 6.43185 2.5 7.21207 2.5 8Z" stroke="#90A0AA" stroke-linecap="round" stroke-linejoin="round"/>
<path d="M8.5 5.33301H8.5075" stroke="#90A0AA" stroke-linecap="round" stroke-linejoin="round"/>
<path d="M7.83301 8H8.49967V10.6667H9.16634" stroke="#90A0AA" stroke-linecap="round" stroke-linejoin="round"/>
</svg>
