<svg width="195" height="195" viewBox="0 0 195 195" fill="none" xmlns="http://www.w3.org/2000/svg">
<path d="M157.394 9.77167C157.394 12.3254 155.814 14.8968 152.585 16.8166C148.96 18.7731 144.941 19.8151 140.854 19.858C136.767 19.9008 132.729 18.9432 129.066 17.0631C125.786 15.161 124.138 12.6248 124.121 10.0182L124.699 68.1386C124.699 70.6924 126.398 73.2285 129.644 75.1835C133.309 77.0637 137.351 78.0214 141.44 77.9785C145.53 77.9357 149.552 76.8936 153.18 74.9369C156.409 72.9467 158.006 70.3929 157.972 67.892L157.394 9.77167Z" fill="url(#paint0_linear_2732_59201)"/>
<path opacity="0.62" d="M152.449 2.79642C148.784 0.916151 144.742 -0.0414665 140.653 0.00137679C136.563 0.0442201 132.541 1.08631 128.913 3.04299C122.456 7.00574 122.524 13.3109 129.066 17.1328C132.728 19.0129 136.767 19.9704 140.854 19.9276C144.941 19.8847 148.96 18.8427 152.585 16.8862C159.059 12.9058 158.991 6.60066 152.449 2.79642Z" fill="url(#paint1_linear_2732_59201)"/>
<path d="M194.746 59.5078L174.626 71.8364L174.881 96.6872L195.001 84.3587L194.746 59.5078Z" fill="#99C1FD"/>
<path d="M174.625 71.8375L154.267 59.9492L154.505 84.8001L174.88 96.6883L174.625 71.8375Z" fill="#81B2FC"/>
<path d="M194.745 59.5074L174.387 47.6016L154.267 59.9477L174.625 71.836L194.745 59.5074Z" fill="#C9DEFE"/>
<path d="M20.9191 145.455V158.647L16.4668 155.987V142.796L20.9191 145.455Z" fill="#FF8980"/>
<path d="M20.9185 139.906L9.88977 146.511L5.4375 143.851L16.4662 137.264L20.9185 139.906Z" fill="#FC9F9C"/>
<path d="M36.5699 130.555L25.5411 137.142L21.0889 134.482L32.1346 127.895L36.5699 130.555Z" fill="#FC9F9C"/>
<path d="M25.5413 123.95L20.9191 126.716L16.4668 124.056L21.089 121.291L25.5413 123.95Z" fill="#FC9F9C"/>
<path d="M20.9191 126.716V139.908L16.4668 137.266V124.057L20.9191 126.716Z" fill="#FF8980"/>
<path d="M9.88977 146.513V152.043L5.4375 149.384V143.854L9.88977 146.513Z" fill="#FF8980"/>
<path d="M36.5694 130.556V136.086L25.5406 142.691V155.882L20.9184 158.647V145.456L9.88965 152.043V146.512L20.9184 139.908V126.716L25.5406 123.951V137.143L36.5694 130.556Z" fill="#FF6666"/>
<path d="M79.3259 54.3473L85.4605 43.3221L91.1534 46.7389L95.3337 39.2184L89.6409 35.8193L95.7756 24.794L91.5951 22.2931L85.4605 33.3184L79.7677 29.9016L75.5874 37.4044L81.2802 40.8212L75.1455 51.8464L79.3259 54.3473Z" fill="#FF6666"/>
<path d="M88.399 20.3796L82.2559 31.4072L85.4494 33.3182L91.5925 22.2905L88.399 20.3796Z" fill="#FF8980"/>
<path d="M78.0943 38.901L71.9512 49.9287L75.1447 51.8396L81.2878 40.812L78.0943 38.901Z" fill="#FF8980"/>
<path d="M76.5798 27.9957L72.3994 35.5L75.5929 37.4109L79.7733 29.9066L76.5798 27.9957Z" fill="#FF8980"/>
<path d="M129.32 58.7692C128.589 59.1919 128.079 60.4247 128.079 62.7672C128.079 66.5186 129.337 68.7377 130.968 69.7064C131.234 69.9219 131.552 70.0586 131.887 70.102C132.222 70.1454 132.562 70.0939 132.871 69.953L135.199 68.5616C134.891 68.6937 134.555 68.7405 134.225 68.6972C133.894 68.654 133.58 68.5223 133.313 68.315C131.614 67.3288 130.424 65.1096 130.424 61.3582C130.424 59.0334 130.934 57.8358 131.665 57.3602L129.32 58.7692Z" fill="#E84343"/>
<path d="M135.048 73.7913C138.599 71.6778 137.988 59.5782 131.071 55.4393C130.484 54.9828 129.787 54.7005 129.057 54.623C128.326 54.5454 127.589 54.6754 126.925 54.999L129.253 53.5901C129.92 53.2757 130.655 53.1508 131.384 53.2282C132.112 53.3056 132.808 53.5824 133.399 54.0304C135.333 55.3909 136.906 57.2325 137.975 59.3863C139.043 61.5402 139.574 63.9376 139.517 66.3589C139.517 69.4763 138.735 71.5017 137.393 72.3119L135.048 73.7913Z" fill="#FF8980"/>
<path d="M128.013 62.7656C128.013 66.517 129.271 68.7362 130.902 69.7048C132.534 70.6735 133.961 69.969 133.961 65.9358C133.961 62.2197 132.534 59.8244 131.021 58.8909C129.509 57.9575 128.013 58.7676 128.013 62.7656ZM124.751 60.8107C124.751 48.7639 137.173 55.9497 137.173 67.8556C137.173 73.4562 134.641 75.5521 130.868 73.2801C128.907 71.915 127.315 70.0526 126.245 67.8701C125.174 65.6875 124.659 63.2573 124.751 60.8107Z" fill="#FF6666"/>
<path d="M148.389 86.9645C147.658 87.4048 147.148 88.6377 147.148 90.9801C147.148 94.7139 148.406 96.9331 150.037 97.9193C150.305 98.1314 150.622 98.266 150.957 98.3093C151.291 98.3526 151.631 98.3031 151.941 98.1659L154.269 96.7569C153.963 96.8982 153.625 96.95 153.292 96.9065C152.96 96.8631 152.645 96.726 152.382 96.5104C150.683 95.5417 149.494 93.3225 149.494 89.5711C149.494 87.2287 150.003 86.0487 150.734 85.5732L148.389 86.9645Z" fill="#E84343"/>
<path d="M154.182 102.005C157.733 99.8919 157.122 87.7747 150.188 83.6358C149.597 83.1879 148.901 82.9111 148.173 82.8337C147.444 82.7563 146.709 82.8812 146.042 83.1955L148.387 81.8042C149.052 81.4805 149.789 81.3505 150.519 81.4281C151.25 81.5057 151.946 81.7879 152.534 82.2445C154.479 83.6131 156.06 85.4687 157.129 87.6393C158.199 89.8098 158.722 92.225 158.651 94.6611C158.651 97.7784 157.869 99.8038 156.527 100.614L154.182 102.005Z" fill="#FF8980"/>
<path d="M147.147 90.9812C147.147 94.715 148.404 96.9341 150.036 97.9204C151.667 98.9067 153.094 98.1846 153.094 94.1338C153.094 90.4352 151.667 88.0224 150.155 87.0889C148.642 86.1555 147.147 86.9832 147.147 90.9812ZM143.884 89.0263C143.884 76.9619 156.306 84.1477 156.306 96.0711C156.306 101.672 153.774 103.768 150.002 101.496C148.042 100.129 146.451 98.2667 145.38 96.0845C144.309 93.9022 143.795 91.4727 143.884 89.0263Z" fill="#FF6666"/>
<path d="M133.585 91.8273L150.765 67.4167L153.11 66.0254L135.93 90.4183L133.585 91.8273Z" fill="#E84343"/>
<path d="M150.767 67.4158L146.535 64.8797L148.88 63.4883L153.112 66.0244L150.767 67.4158Z" fill="#FF8980"/>
<path d="M133.586 91.8256L129.354 89.2894L146.535 64.8789L150.766 67.415L133.586 91.8256Z" fill="#FF6666"/>
<path d="M63.6062 53.2926L62.0089 53.1341L58.4912 51.0383L60.0716 51.1792L63.6062 53.2926Z" fill="#E1EDFF"/>
<path d="M62.0089 53.1341V63.5782L58.4912 61.4647V51.0383L62.0089 53.1341Z" fill="#88BEFF"/>
<path d="M62.0089 63.5775L69.8089 123.353L66.2912 121.24L58.4912 61.464L62.0089 63.5775Z" fill="#1C6DF6"/>
<path d="M63.6071 53.2915L70.9653 114.881L69.8098 123.353L62.0098 63.577V53.133L63.6071 53.2915Z" fill="#81B2FC"/>
<path d="M62.3645 50.101L58.2861 52.5315L54.4795 50.2419L58.541 47.8114L62.3645 50.101Z" fill="#B1D0FE"/>
<path d="M58.2862 52.5325V64.861C58.2608 65.1214 58.3024 65.3841 58.4069 65.6223C58.5114 65.8606 58.6749 66.0658 58.881 66.2172L55.0744 63.9452C54.8671 63.7911 54.7027 63.5827 54.5983 63.3414C54.4938 63.1001 54.4529 62.8344 54.4797 62.5714V50.2429L58.2862 52.5325Z" fill="#81B2FC"/>
<path d="M60.1569 39.834C60.1569 50.9473 60.2419 50.1547 59.953 50.4013C59.5151 50.7599 58.9732 50.9549 58.4151 50.9549C57.857 50.9549 57.3152 50.7599 56.8772 50.4013C56.6053 50.0667 56.6903 50.7888 56.6903 39.834C56.6903 40.4328 57.438 40.7674 57.9988 40.8555C58.8824 40.9964 60.1569 40.6794 60.1569 39.834Z" fill="#81B2FC"/>
<path d="M57.0129 50.6127L56.877 50.4718V40.3096C57.0809 40.5738 57.0129 39.3233 57.0129 50.6127Z" fill="#81B2FC"/>
<path d="M57.506 40.6796V50.8242C57.4612 50.8337 57.415 50.8337 57.3701 50.8242V40.6796H57.506Z" fill="#81B2FC"/>
<path d="M57.9488 40.8563V51.001H57.7959V40.8563H57.9488Z" fill="#81B2FC"/>
<path d="M58.4918 40.872V51.0343H58.3389V40.8896L58.4918 40.872Z" fill="#81B2FC"/>
<path d="M58.984 40.8213V50.9659H58.8311V40.8565L58.984 40.8213Z" fill="#81B2FC"/>
<path d="M59.4781 40.6796V50.8418H59.3252V40.6796H59.4781Z" fill="#81B2FC"/>
<path d="M59.9534 40.3279V50.4726C59.9172 50.5281 59.8711 50.5759 59.8175 50.6135C59.8175 39.3417 59.7495 40.5745 59.9534 40.3279Z" fill="#81B2FC"/>
<path d="M56.6914 39.835C56.6914 39.2714 57.4561 38.7959 58.3908 38.7959C59.3254 38.7959 60.0901 39.2714 60.0901 39.835C60.0901 40.3986 59.3084 40.8742 58.3908 40.8742C57.4731 40.8742 56.6914 40.4162 56.6914 39.835Z" fill="#E1EDFF"/>
<path d="M58.186 55.2113L56.5206 57.36L52.833 55.1585L54.4984 53.0098L58.186 55.2113Z" fill="#E1EDFF"/>
<path d="M56.5208 57.3588L48.8057 131.136L45.1182 128.917L52.8332 55.1573L56.5208 57.3588Z" fill="#88BEFF"/>
<path d="M58.1861 55.2117V66.1489L50.0122 138.553L48.8057 131.138L56.5207 57.3604L58.1861 55.2117Z" fill="#81B2FC"/>
<path d="M58.408 64.758C56.3008 65.1279 55.978 62.2219 57.3885 59.7033C57.6713 59.1921 58.0137 58.7189 58.408 58.2943V57.9949C55.6721 60.6896 55.6211 65.4449 58.408 65.0398V64.758Z" fill="#1C6DF6"/>
<path d="M62.3665 50.1016V62.4301C62.3263 63.161 62.1207 63.8718 61.7665 64.5051C61.4122 65.1384 60.9192 65.6765 60.3273 66.0758C59.2227 66.7451 58.2881 66.2167 58.2881 64.8606V52.532L62.3665 50.1016Z" fill="#69A4FC"/>
<path d="M60.2079 55.0337C59.97 54.8928 60.2079 54.3469 60.4458 54.1707C60.6838 53.9946 60.8027 54.1707 60.8027 54.3821C60.8027 54.5934 60.4288 55.157 60.2079 55.0337Z" fill="#1C6DF6"/>
<path d="M60.3604 62.4148C60.2754 62.4148 60.3604 62.1506 60.4453 62.0801C60.5303 62.0097 60.5813 62.0801 60.5813 62.0801C60.5813 62.0801 60.4454 62.4676 60.3604 62.4148Z" fill="#1C6DF6"/>
<path d="M50.0122 138.551L47.1234 136.843L45.1182 128.917L48.8057 131.136L50.0122 138.551Z" fill="#81B2FC"/>
<path d="M48.4318 136.069C48.4318 136.069 47.7691 135.769 47.5652 136.368C47.3612 136.967 47.786 146.213 47.786 146.213L48.8056 137.83C48.8056 137.83 49.2645 136.562 48.4318 136.069Z" fill="#1C6DF6"/>
<path d="M68.4503 120.974C68.4503 120.974 67.7876 120.692 67.5837 121.291C67.3798 121.889 67.8046 131.136 67.8046 131.136L68.8242 122.752C68.8242 122.752 69.283 121.484 68.4503 120.974Z" fill="#1C6DF6"/>
<path d="M16.5015 88.8499L29.9263 114.493L23.027 110.372L9.61914 84.7286L16.5015 88.8499Z" fill="#FCD561"/>
<path d="M47.6489 39.4298L34.3261 47.4082L27.4268 43.2869L40.7496 35.3086L47.6489 39.4298Z" fill="#FCEAB2"/>
<path d="M34.327 47.4083L27.4277 91.0866L20.5283 86.9653L27.4277 43.287L34.327 47.4083Z" fill="#FCD561"/>
<path d="M20.732 78.3174L6.89933 86.5952L0 82.4563L13.8327 74.1786L20.732 78.3174Z" fill="#FCEAB2"/>
<path d="M6.89934 86.5958V94.6093L0 90.4881V82.4569L6.89934 86.5958Z" fill="#FCD96E"/>
<path d="M47.6487 39.4316V47.4452L39.7638 52.1653L29.9246 114.495L16.4997 88.8515L6.89844 94.6107V86.5972L20.7311 78.3194L27.4266 91.0883L34.3259 47.41L47.6487 39.4316Z" fill="#FEB30F"/>
<path d="M117.885 78.0179L116.628 78.7576L112.991 76.5913L114.249 75.834L117.885 78.0179Z" fill="#EAAC88"/>
<path d="M116.627 78.7563C116.525 79.3552 116.44 79.9011 116.321 80.5176C115.922 82.4048 114.923 84.0983 113.483 85.3257C112.022 86.5234 110.645 86.858 109.711 86.2944L106.074 84.1281C107.009 84.6917 108.385 84.3394 109.847 83.1418C111.286 81.9144 112.286 80.2209 112.685 78.3337C112.821 77.7701 112.889 77.2241 112.991 76.5724L116.627 78.7563Z" fill="#FEB30F"/>
<path d="M105.53 63.0822C105.53 67.3443 101.842 91.7372 106.754 94.6609L103.117 92.4946C102.542 92.1246 102.086 91.5849 101.808 90.9447C98.9366 84.7276 101.893 63.6986 101.893 61.0039L105.53 63.0822Z" fill="#FCD96E"/>
<path d="M93.1573 70.4806C93.1573 71.6959 92.3586 82.9677 91.9507 87.5293C91.5757 91.5077 90.4864 95.3784 88.7389 98.942C87.7533 101.02 85.8671 105.635 87.8043 106.797L84.1677 104.613C82.6893 103.733 83.505 100.932 84.0657 99.3295C84.8984 96.7581 87.6684 92.6368 88.3141 85.3982C88.722 80.8542 89.4527 69.5472 89.5206 68.3672L93.1573 70.4806Z" fill="#FCD96E"/>
<path d="M117.85 49.4865C88.2987 67.0987 96.7784 62.0792 92.683 64.6506C87.2791 68.0498 84.713 75.7287 83.4385 82.2629L79.8359 80.1494C81.0765 73.5624 83.6424 65.8659 89.0464 62.5372C93.1418 59.9658 84.679 65.0557 114.214 47.373L117.85 49.4865Z" fill="#FCEAB2"/>
<path d="M117.851 49.4865V55.7564L109.558 60.7231C109.371 62.3786 108.419 76.0105 108.215 81.1709C108.163 82.4405 108.324 83.7098 108.691 84.9222C109.422 87.2647 111.597 86.9124 113.483 85.3625C114.923 84.1351 115.922 82.4417 116.321 80.5544C116.44 79.9908 116.525 79.4448 116.627 78.7932L117.885 78.0535C117.652 81.5751 116.824 85.0268 115.437 88.2509C114.534 90.3582 113.173 92.2207 111.461 93.6931C109.66 95.1197 107.977 95.4544 106.754 94.697C101.843 91.7734 105.53 66.9226 105.53 63.1183L97.1695 68.1202C96.4048 79.8147 96.048 89.8361 93.9748 99.4699C93.346 102.341 91.5617 106.902 88.7238 107.043C87.2793 107.043 86.8205 105.757 87.0244 104.243C87.3169 102.399 87.8905 100.616 88.7238 98.9592C90.4733 95.3902 91.5627 91.5133 91.9356 87.5289C92.3434 82.9673 93.0741 71.6778 93.1421 70.4802C89.5735 72.488 87.6023 74.1436 85.2062 80.2726C84.7474 81.4174 84.2715 82.0339 83.5068 82.2452C84.7644 75.6758 87.3303 67.9617 92.7343 64.633C96.7787 61.9911 88.299 67.0987 117.851 49.4865Z" fill="#FEB30F"/>
<path d="M180.52 123.935C180.52 120.412 178.328 117.048 173.961 114.442C165.277 109.246 151.207 109.158 142.455 114.318V116.221C151.207 111.113 165.277 111.166 173.961 116.344C178.328 118.968 180.52 122.402 180.52 125.837V123.935Z" fill="#FEB30F"/>
<path d="M181.301 137.549C187.503 133.762 190.613 128.848 190.613 123.917V125.837C190.613 130.75 187.503 135.682 181.301 139.469V137.549Z" fill="#FEB30F"/>
<path d="M121.365 110.25L180.961 145.897V147.817L121.365 112.152V110.25Z" fill="#FEB30F"/>
<path d="M180.962 145.897L188.099 141.617V143.537L180.962 147.817V145.897Z" fill="#EAAC88"/>
<path d="M181.302 137.548C193.775 129.939 193.707 117.681 181.098 110.143C168.489 102.605 148.012 102.552 135.216 110.02L128.419 105.951L121.281 110.231L180.877 145.878L188.015 141.616L181.302 137.548ZM142.455 114.299C151.207 109.192 165.277 109.227 173.961 114.423C182.645 119.618 182.696 128.037 174.165 133.268L142.455 114.299Z" fill="#FCD561"/>
<path opacity="0.89" d="M142.215 158.314L94.0391 129.324L107.787 114.16L155.98 143.15L142.215 158.314Z" fill="url(#paint2_linear_2732_59201)"/>
<path d="M99.9721 125.979L106.565 118.705C107.027 118.197 107.64 117.864 108.306 117.762C108.972 117.66 109.652 117.793 110.236 118.141L149.321 141.707C149.708 141.941 150.04 142.263 150.291 142.648C150.542 143.034 150.707 143.472 150.772 143.933C150.837 144.393 150.802 144.862 150.668 145.306C150.535 145.75 150.307 146.157 150.001 146.497L143.407 153.771C142.944 154.277 142.33 154.606 141.664 154.705C140.997 154.804 140.319 154.667 139.737 154.317L100.652 130.769C100.264 130.535 99.9327 130.213 99.6816 129.828C99.4304 129.443 99.266 129.004 99.2008 128.544C99.1355 128.083 99.1709 127.614 99.3044 127.17C99.438 126.726 99.6661 126.319 99.9721 125.979Z" fill="#202A5F"/>
<path d="M141.214 154.739C140.313 154.739 143.287 156.359 100.939 130.857C100.641 130.679 100.385 130.434 100.191 130.14C99.9975 129.846 99.8705 129.51 99.8198 129.157C99.7691 128.805 99.7961 128.445 99.8988 128.105C100.001 127.765 100.177 127.453 100.412 127.193L107.006 119.937C107.223 119.696 107.486 119.503 107.779 119.373C108.071 119.243 108.387 119.177 108.705 119.18C109.606 119.18 106.632 117.559 148.98 143.062C149.278 143.239 149.534 143.484 149.728 143.779C149.922 144.073 150.049 144.409 150.099 144.761C150.15 145.114 150.123 145.474 150.02 145.814C149.918 146.154 149.742 146.466 149.507 146.725L142.913 153.999C142.692 154.233 142.427 154.419 142.135 154.546C141.844 154.673 141.53 154.739 141.214 154.739Z" fill="#8EC1FD"/>
<path opacity="0.77" d="M92.8336 187.867L44.6572 158.878L94.0402 129.324L142.217 158.314L92.8336 187.867Z" fill="url(#paint3_linear_2732_59201)"/>
<path opacity="0.92" d="M92.8337 195.001L44.6572 165.993V158.878L92.8337 187.868V195.001Z" fill="url(#paint4_linear_2732_59201)"/>
<path d="M155.981 143.15V157.205L92.833 195.001V187.868L142.216 158.315L155.981 143.15Z" fill="url(#paint5_linear_2732_59201)"/>
<path d="M100.298 136.28V138.64C100.277 138.918 100.184 139.184 100.028 139.41C99.8722 139.637 99.66 139.815 99.414 139.926L95.6245 142.233C94.9544 142.581 94.2155 142.761 93.4663 142.761C92.7171 142.761 91.9783 142.581 91.3082 142.233L87.4846 139.926C87.2363 139.811 87.0219 139.63 86.8636 139.401C86.7053 139.172 86.6088 138.903 86.584 138.623V136.245C86.6088 136.526 86.7053 136.794 86.8636 137.023C87.0219 137.253 87.2363 137.434 87.4846 137.548L91.3082 139.838C91.9759 140.193 92.7157 140.379 93.4663 140.379C94.2169 140.379 94.9568 140.193 95.6245 139.838L99.414 137.548C99.6576 137.439 99.8682 137.263 100.024 137.04C100.179 136.817 100.274 136.554 100.298 136.28Z" fill="url(#paint6_linear_2732_59201)"/>
<path d="M89.6083 142.672V145.032C89.5874 145.309 89.4941 145.575 89.3384 145.802C89.1828 146.028 88.9706 146.207 88.7246 146.318L84.9351 148.625C84.265 148.972 83.526 149.153 82.7769 149.153C82.0277 149.153 81.2888 148.972 80.6187 148.625L76.8122 146.353C76.5596 146.242 76.3408 146.063 76.1791 145.833C76.0175 145.603 75.9191 145.333 75.8945 145.05V142.672C75.9191 142.955 76.0175 143.226 76.1791 143.455C76.3408 143.685 76.5596 143.865 76.8122 143.975L80.6357 146.265C81.3004 146.62 82.0375 146.805 82.7854 146.805C83.5333 146.805 84.2703 146.62 84.9351 146.265L88.7416 143.975C88.9857 143.859 89.195 143.676 89.3476 143.447C89.5001 143.217 89.5901 142.95 89.6083 142.672Z" fill="url(#paint7_linear_2732_59201)"/>
<path d="M79.0057 149.013V151.39C78.9797 151.668 78.8825 151.934 78.7242 152.16C78.5658 152.386 78.3521 152.564 78.105 152.676L74.3155 154.965C73.6478 155.321 72.9079 155.506 72.1573 155.506C71.4067 155.506 70.6669 155.321 69.9992 154.965L66.1926 152.676C65.9422 152.564 65.7259 152.384 65.5671 152.154C65.4084 151.925 65.3132 151.654 65.292 151.373V148.995C65.3168 149.276 65.4133 149.544 65.5716 149.773C65.7299 150.002 65.9443 150.184 66.1926 150.298L70.0162 152.588C70.6809 152.943 71.4179 153.128 72.1658 153.128C72.9137 153.128 73.6508 152.943 74.3155 152.588L78.122 150.298C78.3659 150.184 78.5762 150.005 78.7314 149.779C78.8867 149.553 78.9813 149.289 79.0057 149.013Z" fill="url(#paint8_linear_2732_59201)"/>
<path d="M68.4862 155.301V157.678C68.4618 157.955 68.3671 158.219 68.2119 158.445C68.0567 158.671 67.8464 158.85 67.6025 158.964L63.796 161.254C63.1313 161.609 62.3942 161.794 61.6463 161.794C60.8984 161.794 60.1614 161.609 59.4966 161.254L55.6731 158.964C55.4248 158.849 55.2104 158.668 55.0521 158.439C54.8938 158.21 54.7973 157.941 54.7725 157.661V155.283C54.7973 155.564 54.8938 155.832 55.0521 156.062C55.2104 156.291 55.4248 156.472 55.6731 156.586L59.4966 158.876C60.1644 159.231 60.9042 159.417 61.6548 159.417C62.4054 159.417 63.1453 159.231 63.813 158.876L67.6025 156.586C67.8485 156.475 68.0607 156.297 68.2164 156.071C68.372 155.844 68.4653 155.578 68.4862 155.301Z" fill="url(#paint9_linear_2732_59201)"/>
<path d="M99.4134 137.547L95.6239 139.837C94.9562 140.192 94.2163 140.378 93.4657 140.378C92.7151 140.378 91.9753 140.192 91.3076 139.837L87.484 137.547C87.2241 137.457 86.9981 137.284 86.838 137.054C86.6779 136.823 86.5918 136.546 86.5918 136.262C86.5918 135.978 86.6779 135.701 86.838 135.47C86.9981 135.239 87.2241 135.066 87.484 134.976L91.2736 132.686C91.9395 132.335 92.6761 132.152 93.4232 132.152C94.1704 132.152 94.907 132.335 95.5729 132.686L99.3965 134.976C100.569 135.663 100.637 136.825 99.4134 137.547Z" fill="#8EC1FD"/>
<path d="M88.7427 143.941L84.9361 146.23C84.2714 146.586 83.5344 146.771 82.7865 146.771C82.0386 146.771 81.3015 146.586 80.6368 146.23L76.8133 143.941C75.6407 143.254 75.5728 142.18 76.8133 141.37L80.6028 139.08C81.2717 138.729 82.0111 138.546 82.761 138.546C83.5109 138.546 84.2502 138.729 84.9191 139.08L88.7427 141.37C89.0026 141.46 89.2286 141.633 89.3887 141.863C89.5488 142.094 89.6349 142.371 89.6349 142.655C89.6349 142.939 89.5488 143.216 89.3887 143.447C89.2286 143.678 89.0026 143.851 88.7427 143.941Z" fill="#8EC1FD"/>
<path d="M78.1217 150.3L74.3152 152.589C73.6505 152.945 72.9134 153.13 72.1655 153.13C71.4176 153.13 70.6806 152.945 70.0158 152.589L66.1923 150.3C65.9344 150.205 65.7111 150.029 65.5532 149.798C65.3953 149.566 65.3105 149.289 65.3105 149.005C65.3105 148.722 65.3953 148.445 65.5532 148.213C65.7111 147.981 65.9344 147.806 66.1923 147.711L69.9818 145.421C70.6508 145.07 71.3901 144.887 72.14 144.887C72.8899 144.887 73.6292 145.07 74.2982 145.421L78.1217 147.711C78.3879 147.797 78.6206 147.969 78.7859 148.202C78.9511 148.435 79.0402 148.716 79.0402 149.005C79.0402 149.294 78.9511 149.576 78.7859 149.809C78.6206 150.042 78.3879 150.214 78.1217 150.3Z" fill="#8EC1FD"/>
<path d="M67.6022 156.585L63.8127 158.875C63.1449 159.23 62.4051 159.416 61.6545 159.416C60.9038 159.416 60.164 159.23 59.4963 158.875L55.6728 156.585C55.4148 156.49 55.1916 156.315 55.0337 156.083C54.8758 155.851 54.791 155.574 54.791 155.291C54.791 155.007 54.8758 154.73 55.0337 154.498C55.1916 154.267 55.4148 154.091 55.6728 153.996L59.4793 151.724C60.144 151.369 60.8811 151.184 61.629 151.184C62.3769 151.184 63.1139 151.369 63.7786 151.724L67.6022 154.014C67.8621 154.104 68.0881 154.277 68.2482 154.508C68.4083 154.738 68.4944 155.015 68.4944 155.3C68.4944 155.584 68.4083 155.861 68.2482 156.091C68.0881 156.322 67.8621 156.495 67.6022 156.585Z" fill="#8EC1FD"/>
<path d="M111.612 143.042V145.42C111.584 145.697 111.486 145.962 111.328 146.188C111.17 146.414 110.957 146.592 110.711 146.705L106.922 148.995C106.254 149.342 105.518 149.523 104.772 149.523C104.025 149.523 103.289 149.342 102.622 148.995L98.7307 146.705C98.4824 146.591 98.268 146.41 98.1097 146.181C97.9514 145.951 97.8549 145.683 97.8301 145.402V143.025C97.8566 143.305 97.9538 143.572 98.1119 143.801C98.27 144.03 98.4834 144.212 98.7307 144.328L102.554 146.617C103.222 146.973 103.962 147.158 104.712 147.158C105.463 147.158 106.203 146.973 106.871 146.617L110.66 144.328C110.916 144.222 111.139 144.047 111.306 143.821C111.474 143.594 111.579 143.325 111.612 143.042Z" fill="url(#paint10_linear_2732_59201)"/>
<path d="M100.924 149.435V151.812C100.896 152.087 100.8 152.35 100.645 152.576C100.49 152.801 100.282 152.981 100.04 153.098L96.2335 155.388C95.5664 155.735 94.8303 155.915 94.0838 155.915C93.3374 155.915 92.6013 155.735 91.9341 155.388L88.1106 153.098C87.8653 152.979 87.6536 152.797 87.4959 152.568C87.3382 152.34 87.2397 152.074 87.21 151.795V149.417C87.2365 149.697 87.3337 149.965 87.4918 150.194C87.6499 150.423 87.8633 150.604 88.1106 150.72L91.9341 153.01C92.6019 153.365 93.3417 153.551 94.0923 153.551C94.8429 153.551 95.5828 153.365 96.2505 153.01L100.04 150.72C100.283 150.605 100.492 150.425 100.647 150.2C100.802 149.974 100.898 149.71 100.924 149.435Z" fill="url(#paint11_linear_2732_59201)"/>
<path d="M90.2342 155.792V158.152C90.2134 158.429 90.1201 158.695 89.9645 158.922C89.8088 159.148 89.5966 159.327 89.3506 159.438L85.561 161.745C84.8909 162.092 84.1521 162.273 83.4029 162.273C82.6537 162.273 81.9148 162.092 81.2447 161.745L77.4212 159.438C77.1728 159.323 76.9584 159.142 76.8001 158.913C76.6418 158.684 76.5453 158.415 76.5205 158.134V155.757C76.5453 156.037 76.6418 156.306 76.8001 156.535C76.9584 156.764 77.1728 156.945 77.4212 157.06L81.2447 159.35C81.9124 159.705 82.6523 159.89 83.4029 159.89C84.1535 159.89 84.8933 159.705 85.561 159.35L89.3506 157.06C89.5942 156.95 89.8048 156.775 89.9603 156.552C90.1158 156.329 90.2104 156.066 90.2342 155.792Z" fill="url(#paint12_linear_2732_59201)"/>
<path d="M79.8016 162.081V164.459C79.7762 164.735 79.679 164.999 79.5204 165.222C79.3618 165.445 79.1477 165.62 78.9009 165.727L75.1114 168.034C74.4413 168.381 73.7024 168.562 72.9532 168.562C72.204 168.562 71.4652 168.381 70.7951 168.034L66.9885 165.727C66.7381 165.615 66.5217 165.435 66.363 165.205C66.2043 164.976 66.1091 164.705 66.0879 164.424V162.064C66.1177 162.343 66.2161 162.609 66.3738 162.837C66.5316 163.066 66.7432 163.248 66.9885 163.367L70.8121 165.639C71.4768 165.994 72.2138 166.18 72.9617 166.18C73.7096 166.18 74.4467 165.994 75.1114 165.639L78.9179 163.367C79.1588 163.249 79.3664 163.068 79.5211 162.843C79.6757 162.618 79.7722 162.356 79.8016 162.081Z" fill="#FCDD7C"/>
<path d="M110.728 144.327L106.938 146.616C106.271 146.972 105.531 147.157 104.78 147.157C104.03 147.157 103.29 146.972 102.622 146.616L98.7986 144.327C97.6261 143.622 97.5581 142.566 98.7986 141.738L102.605 139.448C103.271 139.097 104.008 138.914 104.755 138.914C105.502 138.914 106.239 139.097 106.904 139.448L110.728 141.738C111.867 142.442 111.935 143.587 110.728 144.327Z" fill="#8EC1FD"/>
<path d="M100.04 150.72L96.2502 153.01C95.5824 153.365 94.8426 153.551 94.092 153.551C93.3413 153.551 92.6015 153.365 91.9338 153.01L88.1103 150.72C87.8523 150.625 87.6291 150.45 87.4712 150.218C87.3133 149.986 87.2285 149.709 87.2285 149.426C87.2285 149.142 87.3133 148.865 87.4712 148.633C87.6291 148.402 87.8523 148.226 88.1103 148.131L91.9168 145.842C92.5827 145.491 93.3193 145.307 94.0665 145.307C94.8137 145.307 95.5502 145.491 96.2161 145.842L100.04 148.131C100.298 148.226 100.521 148.402 100.679 148.633C100.837 148.865 100.921 149.142 100.921 149.426C100.921 149.709 100.837 149.986 100.679 150.218C100.521 150.45 100.298 150.625 100.04 150.72Z" fill="#8EC1FD"/>
<path d="M89.4193 157.06L85.6298 159.35C84.9621 159.705 84.2222 159.891 83.4716 159.891C82.721 159.891 81.9812 159.705 81.3134 159.35L77.4899 157.06C77.23 156.97 77.004 156.797 76.8439 156.567C76.6838 156.336 76.5977 156.059 76.5977 155.775C76.5977 155.491 76.6838 155.214 76.8439 154.983C77.004 154.752 77.23 154.579 77.4899 154.489L81.2795 152.199C81.9484 151.848 82.6877 151.665 83.4376 151.665C84.1875 151.665 84.9268 151.848 85.5958 152.199L89.4193 154.489C89.6792 154.579 89.9052 154.752 90.0653 154.983C90.2254 155.214 90.3115 155.491 90.3115 155.775C90.3115 156.059 90.2254 156.336 90.0653 156.567C89.9052 156.797 89.6792 156.97 89.4193 157.06Z" fill="#8EC1FD"/>
<path d="M78.9165 163.366L75.11 165.726C74.4453 166.081 73.7082 166.267 72.9603 166.267C72.2124 166.267 71.4754 166.081 70.8106 165.726L66.9871 163.454C65.8146 162.749 65.7466 161.605 66.9871 160.865L70.7766 158.575C71.4455 158.224 72.1849 158.041 72.9348 158.041C73.6847 158.041 74.424 158.224 75.093 158.575L78.9165 160.865C80.0381 161.481 80.123 162.626 78.9165 163.366Z" fill="#FCECB8"/>
<path d="M123.101 149.875V152.235C123.081 152.512 122.987 152.778 122.832 153.005C122.676 153.231 122.464 153.41 122.218 153.521L118.428 155.81C117.761 156.166 117.021 156.351 116.27 156.351C115.519 156.351 114.78 156.166 114.112 155.81L110.305 153.521C110.053 153.41 109.834 153.23 109.672 153.001C109.511 152.771 109.412 152.5 109.388 152.217V149.875C109.412 150.158 109.511 150.429 109.672 150.658C109.834 150.888 110.053 151.068 110.305 151.178L114.129 153.468C114.794 153.823 115.531 154.009 116.279 154.009C117.026 154.009 117.764 153.823 118.428 153.468L122.218 151.178C122.466 151.066 122.68 150.885 122.836 150.655C122.992 150.425 123.084 150.155 123.101 149.875Z" fill="url(#paint13_linear_2732_59201)"/>
<path d="M112.43 156.322V158.682C112.404 158.96 112.307 159.226 112.149 159.452C111.99 159.678 111.777 159.856 111.529 159.968L107.74 162.205C107.072 162.56 106.332 162.746 105.582 162.746C104.831 162.746 104.091 162.56 103.424 162.205L99.617 159.915C99.3791 159.807 99.1725 159.636 99.0175 159.42C98.8626 159.204 98.7646 158.95 98.7334 158.682V156.305C98.7582 156.585 98.8547 156.854 99.013 157.083C99.1713 157.312 99.3857 157.493 99.634 157.608L103.458 159.898C104.122 160.253 104.859 160.438 105.607 160.438C106.355 160.438 107.092 160.253 107.757 159.898L111.563 157.608C111.804 157.491 112.011 157.311 112.163 157.086C112.315 156.86 112.407 156.597 112.43 156.322Z" fill="url(#paint14_linear_2732_59201)"/>
<path d="M101.809 162.662V165.04C101.783 165.318 101.686 165.584 101.528 165.81C101.37 166.036 101.156 166.214 100.909 166.325L97.1192 168.615C96.4545 168.97 95.7175 169.156 94.9696 169.156C94.2217 169.156 93.4846 168.97 92.8199 168.615L88.9964 166.325C88.7459 166.214 88.5296 166.034 88.3708 165.804C88.2121 165.574 88.1169 165.304 88.0957 165.022V162.645C88.1205 162.925 88.217 163.194 88.3753 163.423C88.5336 163.652 88.748 163.833 88.9964 163.948L92.8199 166.237C93.4876 166.593 94.2275 166.778 94.9781 166.778C95.7287 166.778 96.4685 166.593 97.1362 166.237L100.926 163.948C101.172 163.837 101.384 163.658 101.54 163.432C101.695 163.206 101.789 162.939 101.809 162.662Z" fill="url(#paint15_linear_2732_59201)"/>
<path d="M91.2899 168.95V171.328C91.269 171.605 91.1758 171.871 91.0201 172.098C90.8645 172.324 90.6522 172.502 90.4063 172.613L86.6167 174.903C85.949 175.258 85.2092 175.444 84.4585 175.444C83.7079 175.444 82.9681 175.258 82.3003 174.903L78.4768 172.613C78.2285 172.499 78.0142 172.318 77.8559 172.088C77.6975 171.859 77.601 171.591 77.5762 171.31V168.932C77.601 169.213 77.6975 169.482 77.8559 169.711C78.0142 169.94 78.2285 170.121 78.4768 170.236L82.3003 172.525C82.9681 172.881 83.7079 173.066 84.4585 173.066C85.2092 173.066 85.949 172.881 86.6167 172.525L90.4063 170.236C90.6522 170.125 90.8645 169.946 91.0201 169.72C91.1758 169.493 91.269 169.227 91.2899 168.95Z" fill="#FC5552"/>
<path d="M122.218 151.197L118.428 153.487C117.764 153.842 117.027 154.027 116.279 154.027C115.531 154.027 114.794 153.842 114.129 153.487L110.306 151.197C110.048 151.102 109.824 150.927 109.666 150.695C109.509 150.463 109.424 150.186 109.424 149.903C109.424 149.619 109.509 149.342 109.666 149.11C109.824 148.878 110.048 148.703 110.306 148.608L114.027 146.354C114.696 146.002 115.435 145.819 116.185 145.819C116.935 145.819 117.675 146.002 118.344 146.354L122.167 148.643C122.423 148.732 122.646 148.9 122.806 149.126C122.966 149.351 123.055 149.622 123.061 149.902C123.066 150.181 122.988 150.456 122.837 150.688C122.687 150.92 122.47 151.098 122.218 151.197Z" fill="#8EC1FD"/>
<path d="M111.546 157.591L107.74 159.88C107.075 160.235 106.338 160.421 105.59 160.421C104.842 160.421 104.105 160.235 103.441 159.88L99.617 157.591C98.4444 156.904 98.3765 155.829 99.617 155.019L103.407 152.73C104.075 152.378 104.815 152.195 105.565 152.195C106.315 152.195 107.054 152.378 107.723 152.73L111.546 155.019C111.806 155.11 112.032 155.282 112.192 155.513C112.353 155.744 112.439 156.021 112.439 156.305C112.439 156.589 112.353 156.866 112.192 157.097C112.032 157.327 111.806 157.5 111.546 157.591Z" fill="#8EC1FD"/>
<path d="M100.924 163.967L97.1348 166.256C96.4671 166.612 95.7273 166.797 94.9767 166.797C94.226 166.797 93.4862 166.612 92.8184 166.256L88.9949 163.967C87.8224 163.262 87.7544 162.117 88.9949 161.378L92.8015 159.088C93.4674 158.737 94.204 158.554 94.9511 158.554C95.6983 158.554 96.4349 158.737 97.1008 159.088L100.924 161.378C101.191 161.464 101.423 161.636 101.588 161.869C101.754 162.102 101.843 162.383 101.843 162.672C101.843 162.961 101.754 163.243 101.588 163.475C101.423 163.708 101.191 163.88 100.924 163.967Z" fill="#8EC1FD"/>
<path d="M90.4067 170.236L86.6172 172.526C85.9495 172.881 85.2097 173.066 84.459 173.066C83.7084 173.066 82.9685 172.881 82.3008 172.526L78.4773 170.236C77.3217 169.531 77.2538 168.387 78.4773 167.647L82.2669 165.357C82.9328 165.006 83.6694 164.823 84.4166 164.823C85.1637 164.823 85.9003 165.006 86.5662 165.357L90.3897 167.647C90.6565 167.731 90.8904 167.902 91.0572 168.133C91.2239 168.365 91.3149 168.646 91.3168 168.935C91.3187 169.224 91.2314 169.506 91.0677 169.74C90.904 169.974 90.6724 170.148 90.4067 170.236Z" fill="#FC7464"/>
<path d="M134.419 156.692V159.07C134.393 159.344 134.298 159.605 134.143 159.828C133.987 160.051 133.778 160.227 133.535 160.338L129.729 162.645C129.061 162.992 128.325 163.173 127.579 163.173C126.833 163.173 126.096 162.992 125.429 162.645L121.606 160.338C121.357 160.224 121.143 160.042 120.985 159.813C120.826 159.584 120.73 159.315 120.705 159.035V156.675C120.735 156.954 120.833 157.22 120.991 157.449C121.149 157.677 121.36 157.859 121.606 157.978L125.429 160.25C126.097 160.606 126.837 160.791 127.587 160.791C128.338 160.791 129.078 160.606 129.746 160.25L133.535 157.978C133.778 157.863 133.987 157.683 134.142 157.457C134.297 157.232 134.393 156.968 134.419 156.692Z" fill="#0B45B2"/>
<path d="M123.73 163.084V165.462C123.708 165.736 123.614 166 123.458 166.223C123.302 166.447 123.091 166.622 122.846 166.73L119.125 169.037C118.454 169.384 117.716 169.565 116.966 169.565C116.217 169.565 115.478 169.384 114.808 169.037L110.985 166.73C110.736 166.615 110.522 166.434 110.364 166.205C110.205 165.976 110.109 165.707 110.084 165.426V163.066C110.114 163.345 110.212 163.612 110.37 163.84C110.528 164.068 110.739 164.251 110.985 164.37L114.808 166.642C115.476 166.997 116.216 167.183 116.966 167.183C117.717 167.183 118.457 166.997 119.125 166.642L122.914 164.37C123.144 164.245 123.34 164.061 123.483 163.836C123.625 163.611 123.71 163.353 123.73 163.084Z" fill="#0B45B2"/>
<path d="M113.108 169.442V171.802C113.087 172.08 112.994 172.346 112.838 172.572C112.683 172.799 112.471 172.977 112.225 173.088L108.435 175.378C107.767 175.733 107.027 175.918 106.277 175.918C105.526 175.918 104.786 175.733 104.119 175.378L100.312 173.088C100.06 172.977 99.8408 172.798 99.6791 172.568C99.5175 172.339 99.4191 172.068 99.3945 171.785V169.407C99.4191 169.69 99.5175 169.961 99.6791 170.191C99.8408 170.42 100.06 170.6 100.312 170.71L104.136 173C104.8 173.355 105.537 173.541 106.285 173.541C107.033 173.541 107.77 173.355 108.435 173L112.242 170.71C112.481 170.597 112.687 170.42 112.839 170.197C112.991 169.974 113.084 169.714 113.108 169.442Z" fill="#0B45B2"/>
<path d="M102.607 175.731V178.056C102.58 178.329 102.484 178.589 102.329 178.812C102.174 179.034 101.965 179.211 101.724 179.324L97.9171 181.631C97.25 181.978 96.5139 182.159 95.7674 182.159C95.021 182.159 94.2849 181.978 93.6177 181.631L89.7942 179.324C89.5437 179.212 89.3274 179.032 89.1687 178.802C89.0099 178.572 88.9148 178.302 88.8936 178.02V175.643C88.9184 175.923 89.0149 176.192 89.1732 176.421C89.3315 176.65 89.5459 176.831 89.7942 176.946L93.6177 179.236C94.2855 179.591 95.0253 179.776 95.7759 179.776C96.5266 179.776 97.2664 179.591 97.9341 179.236L101.724 176.946C101.96 176.841 102.166 176.673 102.321 176.46C102.476 176.247 102.575 175.995 102.607 175.731Z" fill="#0B45B2"/>
<path d="M133.536 157.977L129.746 160.249C129.079 160.605 128.339 160.79 127.588 160.79C126.837 160.79 126.098 160.605 125.43 160.249L121.606 157.977C121.348 157.882 121.125 157.707 120.967 157.475C120.809 157.243 120.725 156.966 120.725 156.683C120.725 156.399 120.809 156.122 120.967 155.89C121.125 155.659 121.348 155.483 121.606 155.388L125.413 153.099C126.079 152.748 126.815 152.565 127.563 152.565C128.31 152.565 129.046 152.748 129.712 153.099L133.536 155.388C133.794 155.483 134.017 155.659 134.175 155.89C134.333 156.122 134.418 156.399 134.418 156.683C134.418 156.966 134.333 157.243 134.175 157.475C134.017 157.707 133.794 157.882 133.536 157.977Z" fill="#8EC1FD"/>
<path d="M122.847 164.371L119.125 166.643C118.457 166.998 117.718 167.183 116.967 167.183C116.216 167.183 115.477 166.998 114.809 166.643L110.985 164.371C110.727 164.276 110.504 164.1 110.346 163.868C110.188 163.637 110.104 163.36 110.104 163.076C110.104 162.792 110.188 162.516 110.346 162.284C110.504 162.052 110.727 161.877 110.985 161.782L114.775 159.492C115.441 159.141 116.177 158.958 116.924 158.958C117.672 158.958 118.408 159.141 119.074 159.492L122.898 161.782C124.002 162.486 124.07 163.631 122.847 164.371Z" fill="#8EC1FD"/>
<path d="M112.328 170.71L108.521 172.999C107.856 173.355 107.119 173.54 106.371 173.54C105.624 173.54 104.886 173.355 104.222 172.999L100.398 170.71C99.2257 170.023 99.1577 168.86 100.398 168.138L104.188 165.849C104.857 165.498 105.596 165.315 106.346 165.315C107.096 165.315 107.835 165.498 108.504 165.849L112.328 168.138C112.588 168.229 112.814 168.402 112.974 168.632C113.134 168.863 113.22 169.14 113.22 169.424C113.22 169.708 113.134 169.985 112.974 170.216C112.814 170.447 112.588 170.619 112.328 170.71Z" fill="#8EC1FD"/>
<path d="M101.724 176.999L97.9345 179.288C97.2667 179.644 96.5269 179.829 95.7763 179.829C95.0257 179.829 94.2858 179.644 93.6181 179.288L89.7946 176.999C89.5347 176.908 89.3087 176.736 89.1486 176.505C88.9885 176.274 88.9023 175.997 88.9023 175.713C88.9023 175.429 88.9885 175.152 89.1486 174.921C89.3087 174.69 89.5347 174.518 89.7946 174.427L93.6012 172.138C94.2671 171.787 95.0037 171.604 95.7508 171.604C96.498 171.604 97.2346 171.787 97.9005 172.138L101.724 174.427C101.984 174.518 102.21 174.69 102.37 174.921C102.53 175.152 102.616 175.429 102.616 175.713C102.616 175.997 102.53 176.274 102.37 176.505C102.21 176.736 101.984 176.908 101.724 176.999Z" fill="#8EC1FD"/>
<path d="M44.6592 158.875C98.3585 190.753 93.1415 187.565 92.6657 187.565L142.134 158.135L155.983 143.147L142.389 158.47L92.8356 188.27L44.6592 158.875Z" fill="url(#paint16_linear_2732_59201)"/>
<defs>
<linearGradient id="paint0_linear_2732_59201" x1="123.786" y1="9.77135" x2="158.031" y2="9.80057" gradientUnits="userSpaceOnUse">
<stop stop-color="#043785"/>
<stop offset="1" stop-color="#1F55A6"/>
</linearGradient>
<linearGradient id="paint1_linear_2732_59201" x1="123.785" y1="-9.31102e-05" x2="157.456" y2="0.0965805" gradientUnits="userSpaceOnUse">
<stop stop-color="#043785"/>
<stop offset="1" stop-color="#1F55A6"/>
</linearGradient>
<linearGradient id="paint2_linear_2732_59201" x1="93.4261" y1="114.16" x2="156.086" y2="114.311" gradientUnits="userSpaceOnUse">
<stop stop-color="#043785"/>
<stop offset="1" stop-color="#1F55A6"/>
</linearGradient>
<linearGradient id="paint3_linear_2732_59201" x1="43.6918" y1="129.324" x2="142.383" y2="129.607" gradientUnits="userSpaceOnUse">
<stop stop-color="#043785"/>
<stop offset="1" stop-color="#1F55A6"/>
</linearGradient>
<linearGradient id="paint4_linear_2732_59201" x1="44.1805" y1="158.878" x2="92.9162" y2="158.99" gradientUnits="userSpaceOnUse">
<stop stop-color="#043785"/>
<stop offset="1" stop-color="#1F55A6"/>
</linearGradient>
<linearGradient id="paint5_linear_2732_59201" x1="92.2081" y1="143.15" x2="156.089" y2="143.284" gradientUnits="userSpaceOnUse">
<stop stop-color="#043785"/>
<stop offset="1" stop-color="#1F55A6"/>
</linearGradient>
<linearGradient id="paint6_linear_2732_59201" x1="86.4483" y1="136.245" x2="100.321" y2="136.295" gradientUnits="userSpaceOnUse">
<stop stop-color="#043785"/>
<stop offset="1" stop-color="#1F55A6"/>
</linearGradient>
<linearGradient id="paint7_linear_2732_59201" x1="75.7588" y1="142.672" x2="89.6316" y2="142.722" gradientUnits="userSpaceOnUse">
<stop stop-color="#043785"/>
<stop offset="1" stop-color="#1F55A6"/>
</linearGradient>
<linearGradient id="paint8_linear_2732_59201" x1="65.1563" y1="148.995" x2="79.0291" y2="149.045" gradientUnits="userSpaceOnUse">
<stop stop-color="#043785"/>
<stop offset="1" stop-color="#1F55A6"/>
</linearGradient>
<linearGradient id="paint9_linear_2732_59201" x1="54.6368" y1="155.283" x2="68.5096" y2="155.333" gradientUnits="userSpaceOnUse">
<stop stop-color="#043785"/>
<stop offset="1" stop-color="#1F55A6"/>
</linearGradient>
<linearGradient id="paint10_linear_2732_59201" x1="97.6937" y1="143.025" x2="111.635" y2="143.075" gradientUnits="userSpaceOnUse">
<stop stop-color="#043785"/>
<stop offset="1" stop-color="#1F55A6"/>
</linearGradient>
<linearGradient id="paint11_linear_2732_59201" x1="87.0743" y1="149.417" x2="100.947" y2="149.467" gradientUnits="userSpaceOnUse">
<stop stop-color="#043785"/>
<stop offset="1" stop-color="#1F55A6"/>
</linearGradient>
<linearGradient id="paint12_linear_2732_59201" x1="76.3848" y1="155.757" x2="90.2576" y2="155.807" gradientUnits="userSpaceOnUse">
<stop stop-color="#043785"/>
<stop offset="1" stop-color="#1F55A6"/>
</linearGradient>
<linearGradient id="paint13_linear_2732_59201" x1="109.252" y1="149.875" x2="123.125" y2="149.925" gradientUnits="userSpaceOnUse">
<stop stop-color="#043785"/>
<stop offset="1" stop-color="#1F55A6"/>
</linearGradient>
<linearGradient id="paint14_linear_2732_59201" x1="98.5979" y1="156.305" x2="112.453" y2="156.355" gradientUnits="userSpaceOnUse">
<stop stop-color="#043785"/>
<stop offset="1" stop-color="#1F55A6"/>
</linearGradient>
<linearGradient id="paint15_linear_2732_59201" x1="87.96" y1="162.645" x2="101.833" y2="162.695" gradientUnits="userSpaceOnUse">
<stop stop-color="#043785"/>
<stop offset="1" stop-color="#1F55A6"/>
</linearGradient>
<linearGradient id="paint16_linear_2732_59201" x1="43.5575" y1="143.147" x2="156.173" y2="143.625" gradientUnits="userSpaceOnUse">
<stop stop-color="#043785"/>
<stop offset="1" stop-color="#1F55A6"/>
</linearGradient>
</defs>
</svg>
