<svg width="40" height="40" viewBox="0 0 40 40" fill="none" xmlns="http://www.w3.org/2000/svg">
<circle cx="20" cy="20" r="20" fill="white" fill-opacity="0.2"/>
<g clip-path="url(#clip0_2732_56712)">
<path d="M23.6248 20.8011C23.0201 21.3363 21.19 22.8007 20.8939 23.0442C21.2703 23.3939 21.616 23.7496 21.9226 24.1236H18.0771C18.8707 23.1554 19.9271 22.3102 21.0985 21.3731C22.3956 20.3354 23.8658 19.1592 24.9812 17.6566C26.2786 15.9088 26.9094 13.9794 26.9094 11.7584C26.9094 10.7888 26.1206 10 25.151 10C24.1814 10 23.3926 10.7888 23.3926 11.7584C23.3926 11.962 23.3849 12.1589 23.37 12.3499H16.6305C16.6151 12.1531 16.6074 11.9558 16.6075 11.7584C16.6074 10.7888 15.8186 10 14.849 10C13.8794 10 13.0906 10.7888 13.0906 11.7584C13.0906 13.9794 13.7213 15.9088 15.0188 17.6566C15.4312 18.2123 15.8924 18.7231 16.3752 19.199C16.9798 18.6637 18.81 17.1993 19.1061 16.9559C18.7296 16.6062 18.384 16.2505 18.0774 15.8765H21.9228C21.1293 16.8446 20.0729 17.6898 18.9015 18.627C17.6044 19.6646 16.1342 20.8408 15.0188 22.3434C13.7214 24.0913 13.0906 26.0206 13.0906 28.2416C13.0906 29.2112 13.8794 30 14.8491 30C15.8187 30 16.6075 29.2112 16.6075 28.2416C16.6075 28.0381 16.6152 27.8411 16.6301 27.6502H23.3695C23.3844 27.8412 23.3926 28.0379 23.3926 28.2416C23.3926 29.2112 24.1814 30 25.151 30C26.1206 30 26.9094 29.2112 26.9094 28.2416C26.9094 26.0206 26.2787 24.0913 24.9812 22.3434C24.5687 21.7877 24.1076 21.2769 23.6248 20.8011ZM17.293 14.7046C17.0958 14.3284 16.9404 13.9318 16.8296 13.5218H23.1704C23.0596 13.9318 22.9042 14.3284 22.7069 14.7046H17.293ZM16.8296 26.4783C16.9404 26.0683 17.0958 25.6716 17.293 25.2954H22.707C22.9042 25.6716 23.0596 26.0683 23.1704 26.4783H16.8296Z" fill="white"/>
</g>
<defs>
<clipPath id="clip0_2732_56712">
<rect width="20" height="20" fill="white" transform="translate(10 10)"/>
</clipPath>
</defs>
</svg>
