<svg width="16" height="18" viewBox="0 0 16 18" fill="none" xmlns="http://www.w3.org/2000/svg">
<path d="M3.83536 11.2761C4.63148 12.0553 5.13083 12.994 5.30345 13.8984C5.33959 14.0879 5.04894 14.3848 4.85878 14.3527C3.95084 14.1996 3.00167 13.7205 2.20554 12.9413C1.40941 12.1621 0.910073 11.2235 0.737449 10.319C0.701308 10.1296 0.991955 9.83262 1.18212 9.8647C2.09006 10.0178 3.03923 10.4969 3.83536 11.2761Z" fill="url(#paint0_linear_2732_70598)"/>
<path d="M3.83536 11.2761C4.63148 12.0553 5.13083 12.994 5.30345 13.8984C5.33959 14.0879 5.04894 14.3848 4.85878 14.3527C3.95084 14.1996 3.00167 13.7205 2.20554 12.9413C1.40941 12.1621 0.910073 11.2235 0.737449 10.319C0.701308 10.1296 0.991955 9.83262 1.18212 9.8647C2.09006 10.0178 3.03923 10.4969 3.83536 11.2761Z" fill="url(#paint1_linear_2732_70598)"/>
<path d="M4.91452 9.43139C5.55289 10.679 5.77348 11.9982 5.61804 13.146C5.5855 13.3864 5.12011 13.6245 4.90609 13.5103C3.88422 12.9649 2.94338 12.0142 2.30505 10.7666C1.66672 9.51902 1.4461 8.19983 1.60153 7.05196C1.63407 6.81157 2.09946 6.57344 2.31349 6.68769C3.33532 7.23313 4.27616 8.18381 4.91452 9.43139Z" fill="url(#paint2_linear_2732_70598)"/>
<path d="M1.58984 8.41914C1.6742 9.19049 1.90933 9.9923 2.3055 10.7666C2.94387 12.0142 3.88467 12.9648 4.90654 13.5103C5.12053 13.6245 5.58591 13.3864 5.61849 13.146C5.77393 11.9982 5.55334 10.6789 4.91497 9.43137C4.53909 8.69672 4.05824 8.06521 3.51779 7.55859L1.58984 8.41914Z" fill="url(#paint3_linear_2732_70598)"/>
<path d="M12.1655 11.2761C11.3694 12.0553 10.87 12.994 10.6974 13.8984C10.6613 14.0879 10.9519 14.3848 11.1421 14.3527C12.05 14.1996 12.9992 13.7205 13.7953 12.9413C14.5914 12.1621 15.0908 11.2235 15.2634 10.319C15.2996 10.1296 15.0089 9.83262 14.8187 9.8647C13.9108 10.0178 12.9616 10.4969 12.1655 11.2761Z" fill="url(#paint4_linear_2732_70598)"/>
<path d="M12.1655 11.2761C11.3694 12.0553 10.87 12.994 10.6974 13.8984C10.6613 14.0879 10.9519 14.3848 11.1421 14.3527C12.05 14.1996 12.9992 13.7205 13.7953 12.9413C14.5914 12.1621 15.0908 11.2235 15.2634 10.319C15.2996 10.1296 15.0089 9.83262 14.8187 9.8647C13.9108 10.0178 12.9616 10.4969 12.1655 11.2761Z" fill="url(#paint5_linear_2732_70598)"/>
<path d="M11.0853 9.43139C10.447 10.679 10.2264 11.9982 10.3818 13.146C10.4144 13.3864 10.8797 13.6245 11.0938 13.5103C12.1156 12.9649 13.0565 12.0142 13.6948 10.7666C14.3331 9.51902 14.5538 8.19983 14.3983 7.05196C14.3658 6.81157 13.9004 6.57344 13.6864 6.68769C12.6645 7.23313 11.7237 8.18381 11.0853 9.43139Z" fill="url(#paint6_linear_2732_70598)"/>
<path d="M14.4105 8.41914C14.3261 9.19049 14.091 9.9923 13.6948 10.7666C13.0564 12.0142 12.1156 12.9648 11.0938 13.5103C10.8798 13.6245 10.4144 13.3864 10.3818 13.146C10.2264 11.9982 10.447 10.6789 11.0853 9.43137C11.4612 8.69672 11.9421 8.06521 12.4825 7.55859L14.4105 8.41914Z" fill="url(#paint7_linear_2732_70598)"/>
<path d="M7.9994 18C11.0992 18 13.6121 15.4871 13.6121 12.3873C13.6121 9.28754 11.0992 6.77466 7.9994 6.77466C4.8996 6.77466 2.38672 9.28754 2.38672 12.3873C2.38672 15.4871 4.8996 18 7.9994 18Z" fill="url(#paint8_linear_2732_70598)"/>
<path d="M7.9991 16.8607C10.4699 16.8607 12.4728 14.8578 12.4728 12.387C12.4728 9.91628 10.4699 7.91333 7.9991 7.91333C5.52834 7.91333 3.52539 9.91628 3.52539 12.387C3.52539 14.8578 5.52834 16.8607 7.9991 16.8607Z" fill="url(#paint9_linear_2732_70598)"/>
<path d="M7.99891 16.2276C10.1201 16.2276 11.8396 14.508 11.8396 12.3868C11.8396 10.2657 10.1201 8.54614 7.99891 8.54614C5.87775 8.54614 4.1582 10.2657 4.1582 12.3868C4.1582 14.508 5.87775 16.2276 7.99891 16.2276Z" fill="url(#paint10_linear_2732_70598)"/>
<path d="M2.38672 12.3877C2.38672 15.4875 4.89959 18.0003 7.9994 18.0003C11.0992 18.0003 13.6121 15.4875 13.6121 12.3877C13.6121 12.3659 13.6115 12.3443 13.6113 12.3225H2.38753C2.38728 12.3443 2.38672 12.3659 2.38672 12.3877Z" fill="url(#paint11_linear_2732_70598)"/>
<path d="M9.57464 17.7754C11.3432 17.2597 12.7505 15.8971 13.3284 14.156L10.5947 11.4223L9.97848 11.4526L8.3152 9.78931L6.28809 14.4889L9.57464 17.7754Z" fill="url(#paint12_linear_2732_70598)"/>
<path d="M10.3017 11.1678L9.20102 10.9019C9.09863 10.8771 9.00916 10.815 8.95011 10.7278L8.31559 9.78984C8.23883 9.67641 8.12126 9.61552 8.00028 9.60571C7.87929 9.61552 7.76169 9.67641 7.68496 9.78984L7.05044 10.7278C6.99143 10.815 6.90196 10.8771 6.79954 10.9019L5.69882 11.1678C5.40023 11.2399 5.27582 11.5963 5.46457 11.8386L6.16054 12.7319C6.22526 12.815 6.25668 12.9193 6.24856 13.0243L6.16135 14.1534C6.1377 14.4596 6.43816 14.6881 6.72697 14.5834L7.79162 14.1976C7.85889 14.1732 7.93064 14.1669 8.00028 14.1777C8.06995 14.167 8.14166 14.1732 8.20894 14.1976L9.27358 14.5834C9.56236 14.6881 9.86285 14.4596 9.83921 14.1534L9.75199 13.0243C9.74388 12.9193 9.77529 12.815 9.84002 12.7319L10.536 11.8386C10.7247 11.5963 10.6003 11.2399 10.3017 11.1678Z" fill="url(#paint13_linear_2732_70598)"/>
<path d="M8.20866 14.1976L9.27331 14.5834C9.56208 14.6881 9.86258 14.4596 9.83893 14.1534L9.75172 13.0243C9.7436 12.9193 9.77501 12.815 9.83974 12.7319L10.5357 11.8386C10.7245 11.5963 10.6 11.2399 10.3015 11.1678L9.20074 10.9019C9.09835 10.8771 9.00888 10.815 8.94983 10.7278L8.31532 9.78984C8.23855 9.67641 8.12099 9.61552 8 9.60571V14.1777C8.06967 14.1669 8.14142 14.1732 8.20866 14.1976Z" fill="url(#paint14_linear_2732_70598)"/>
<path d="M10.3023 11.1674L9.20161 10.9014C9.16402 10.8924 9.12823 10.8781 9.09502 10.8596L6.28906 14.489C6.39914 14.5954 6.5652 14.6419 6.72756 14.583L7.7922 14.1972C7.85948 14.1728 7.93123 14.1665 8.00086 14.1773C8.07053 14.1666 8.14225 14.1729 8.20952 14.1972L9.27417 14.583C9.56295 14.6877 9.86344 14.4592 9.83979 14.153L9.75258 13.024C9.74446 12.9189 9.77588 12.8147 9.84061 12.7315L10.5366 11.8383C10.7253 11.5959 10.6009 11.2395 10.3023 11.1674Z" fill="url(#paint15_linear_2732_70598)"/>
<path d="M5.69882 11.1674L6.79954 10.9014C6.83712 10.8924 6.87291 10.8781 6.90612 10.8596L9.71208 14.489C9.602 14.5954 9.43594 14.6419 9.27358 14.583L8.20894 14.1972C8.14167 14.1728 8.06991 14.1665 8.00028 14.1773C7.93061 14.1666 7.85889 14.1729 7.79162 14.1972L6.72697 14.583C6.4382 14.6877 6.1377 14.4592 6.16135 14.153L6.24856 13.024C6.25668 12.9189 6.22527 12.8147 6.16054 12.7315L5.46457 11.8383C5.27582 11.5959 5.40023 11.2395 5.69882 11.1674Z" fill="url(#paint16_linear_2732_70598)"/>
<path d="M5.4054 11.4233C5.35306 11.5553 5.36562 11.7126 5.46413 11.8391L6.16009 12.7324C6.22482 12.8155 6.25623 12.9198 6.24812 13.0248L6.1609 14.1538C6.13726 14.4601 6.43772 14.6886 6.72653 14.5839L7.79117 14.1981C7.85845 14.1737 7.9302 14.1674 7.99983 14.1782C8.0695 14.1674 8.14122 14.1737 8.20849 14.1981L9.27314 14.5839C9.56192 14.6885 9.86241 14.4601 9.83876 14.1538L9.75155 13.0248C9.74703 12.9665 9.75512 12.9086 9.77389 12.8543L5.4054 11.4233Z" fill="url(#paint17_linear_2732_70598)"/>
<path d="M10.5958 11.4221C10.6481 11.5541 10.6356 11.7114 10.5371 11.8379L9.84111 12.7312C9.77638 12.8143 9.74497 12.9186 9.75309 13.0236L9.8403 14.1526C9.86395 14.4589 9.56345 14.6874 9.27468 14.5827L8.21003 14.1968C8.14276 14.1724 8.07101 14.1662 8.00137 14.177C7.9317 14.1662 7.85998 14.1725 7.79271 14.1968L6.72807 14.5827C6.43929 14.6873 6.1388 14.4589 6.16244 14.1526L6.24966 13.0236C6.25417 12.9653 6.24609 12.9074 6.22731 12.8531L10.5958 11.4221Z" fill="url(#paint18_linear_2732_70598)"/>
<path d="M8.00028 6.77466C7.97698 6.77466 7.95386 6.77526 7.93064 6.77554L7.06445 7.64173L13.3878 13.9651C13.5341 13.4645 13.613 12.9351 13.613 12.3873C13.613 9.28753 11.1001 6.77466 8.00028 6.77466Z" fill="url(#paint19_linear_2732_70598)"/>
<path d="M4.6123 0.117188V3.08189L8.00054 6.47013L11.3888 3.08189V0.117188H4.6123Z" fill="url(#paint20_linear_2732_70598)"/>
<path d="M4.6123 0.117188V1.03985L7.98921 4.41675C7.99546 4.423 8.00562 4.423 8.01187 4.41675L11.3888 1.03985V0.117188H4.6123Z" fill="url(#paint21_linear_2732_70598)"/>
<path d="M8.00054 4.95089C7.86085 4.95089 7.72119 4.89774 7.61488 4.7914L4.6123 1.78882V3.08221L8.00054 6.47044L11.3888 3.08221V1.78882L8.3862 4.7914C8.2799 4.8977 8.14024 4.95089 8.00054 4.95089Z" fill="url(#paint22_linear_2732_70598)"/>
<path d="M4.6123 0.117188V1.03985L7.98921 4.41675C7.99546 4.423 8.00562 4.423 8.01187 4.41675L11.3888 1.03985V0.117188H4.6123Z" fill="url(#paint23_linear_2732_70598)"/>
<path d="M8.00054 4.95089C7.86085 4.95089 7.72119 4.89774 7.61488 4.7914L4.6123 1.78882V3.08221L8.00054 6.47044L11.3888 3.08221V1.78882L8.3862 4.7914C8.2799 4.8977 8.14024 4.95089 8.00054 4.95089Z" fill="url(#paint24_linear_2732_70598)"/>
<path d="M8.00054 4.95089C8.14024 4.95089 8.2799 4.89774 8.3862 4.7914L11.3888 1.78882V3.08221L8.00054 6.47044L4.6123 3.08221V1.78882L7.61488 4.7914C7.72119 4.8977 7.86088 4.95089 8.00054 4.95089Z" fill="url(#paint25_linear_2732_70598)"/>
<path d="M7.62828 5.70148L4.74496 2.81816C4.52875 2.60195 4.17818 2.60195 3.96196 2.81816C3.74575 3.03438 3.74575 3.38495 3.96196 3.60116L7.99982 7.63909L12.0377 3.6012C12.2539 3.38499 12.2539 3.03441 12.0377 2.8182C11.8215 2.60199 11.4709 2.60199 11.2547 2.8182L8.3714 5.70152C8.16616 5.90672 7.83348 5.90672 7.62828 5.70148Z" fill="url(#paint26_linear_2732_70598)"/>
<path d="M3.96191 2.82473L7.57466 6.43747C7.80947 6.67228 8.19019 6.67228 8.425 6.43747L12.0377 2.82473C12.0388 2.82367 12.0396 2.82251 12.0407 2.82145C12.0396 2.82039 12.0388 2.81922 12.0377 2.81816C11.8215 2.60195 11.4709 2.60195 11.2547 2.81816L8.37139 5.70148C8.16619 5.90668 7.83347 5.90668 7.62827 5.70148L4.74495 2.81816C4.52874 2.60195 4.17816 2.60195 3.96195 2.81816C3.96089 2.81922 3.96004 2.82039 3.95898 2.82145C3.96001 2.82251 3.96086 2.82367 3.96191 2.82473Z" fill="url(#paint27_linear_2732_70598)"/>
<path d="M7.99977 7.63914L10.8501 4.78882H9.28405L8.37131 5.70156C8.16611 5.90676 7.83339 5.90676 7.62819 5.70156L6.71545 4.78882H5.14941L7.99977 7.63914Z" fill="url(#paint28_linear_2732_70598)"/>
<path d="M7.64551 7.28529L7.99845 7.63823L11.6135 4.02319H10.0474L8.37003 5.70062C8.17079 5.89985 7.85177 5.90504 7.64551 5.71745V7.28529Z" fill="url(#paint29_linear_2732_70598)"/>
<path d="M8.00022 8.02973C8.73114 8.02973 9.32368 7.4372 9.32368 6.70627C9.32368 5.97535 8.73114 5.38281 8.00022 5.38281C7.26929 5.38281 6.67676 5.97535 6.67676 6.70627C6.67676 7.4372 7.26929 8.02973 8.00022 8.02973Z" fill="url(#paint30_linear_2732_70598)"/>
<path d="M8.00094 7.46477C8.41999 7.46477 8.75969 7.12507 8.75969 6.70602C8.75969 6.28697 8.41999 5.94727 8.00094 5.94727C7.58189 5.94727 7.24219 6.28697 7.24219 6.70602C7.24219 7.12507 7.58189 7.46477 8.00094 7.46477Z" fill="url(#paint31_linear_2732_70598)"/>
<path d="M11.9003 1.31764H4.10015C3.87603 1.31764 3.69434 1.13594 3.69434 0.911823V0.405812C3.69434 0.181694 3.87603 0 4.10015 0H11.9003C12.1244 0 12.3061 0.181694 12.3061 0.405812V0.911859C12.3061 1.13598 12.1244 1.31764 11.9003 1.31764Z" fill="url(#paint32_linear_2732_70598)"/>
<defs>
<linearGradient id="paint0_linear_2732_70598" x1="1.73809" y1="10.1134" x2="2.89193" y2="11.9307" gradientUnits="userSpaceOnUse">
<stop stop-color="#FBC56D"/>
<stop offset="1" stop-color="#C5715A"/>
</linearGradient>
<linearGradient id="paint1_linear_2732_70598" x1="1.90042" y1="11.7137" x2="3.13161" y2="12.163" gradientUnits="userSpaceOnUse">
<stop stop-color="#8C3D27" stop-opacity="0"/>
<stop offset="1" stop-color="#8C3D27"/>
</linearGradient>
<linearGradient id="paint2_linear_2732_70598" x1="3.71136" y1="8.17632" x2="3.54961" y2="11.0343" gradientUnits="userSpaceOnUse">
<stop stop-color="#FBC56D"/>
<stop offset="1" stop-color="#C5715A"/>
</linearGradient>
<linearGradient id="paint3_linear_2732_70598" x1="3.34447" y1="9.6255" x2="4.0425" y2="10.9343" gradientUnits="userSpaceOnUse">
<stop stop-color="#8C3D27" stop-opacity="0"/>
<stop offset="1" stop-color="#8C3D27"/>
</linearGradient>
<linearGradient id="paint4_linear_2732_70598" x1="14.2599" y1="10.1183" x2="13.1061" y2="11.9357" gradientUnits="userSpaceOnUse">
<stop stop-color="#FBC56D"/>
<stop offset="1" stop-color="#C5715A"/>
</linearGradient>
<linearGradient id="paint5_linear_2732_70598" x1="14.0976" y1="11.7187" x2="12.8664" y2="12.1679" gradientUnits="userSpaceOnUse">
<stop stop-color="#8C3D27" stop-opacity="0"/>
<stop offset="1" stop-color="#8C3D27"/>
</linearGradient>
<linearGradient id="paint6_linear_2732_70598" x1="12.2857" y1="8.1813" x2="12.4474" y2="11.0392" gradientUnits="userSpaceOnUse">
<stop stop-color="#FBC56D"/>
<stop offset="1" stop-color="#C5715A"/>
</linearGradient>
<linearGradient id="paint7_linear_2732_70598" x1="12.653" y1="9.63045" x2="11.955" y2="10.9392" gradientUnits="userSpaceOnUse">
<stop stop-color="#8C3D27" stop-opacity="0"/>
<stop offset="1" stop-color="#8C3D27"/>
</linearGradient>
<linearGradient id="paint8_linear_2732_70598" x1="4.53895" y1="8.92689" x2="10.4583" y2="14.8463" gradientUnits="userSpaceOnUse">
<stop stop-color="#FBC56D"/>
<stop offset="1" stop-color="#C5715A"/>
</linearGradient>
<linearGradient id="paint9_linear_2732_70598" x1="10.9047" y1="15.2927" x2="5.0087" y2="9.39664" gradientUnits="userSpaceOnUse">
<stop stop-color="#FBC56D"/>
<stop offset="1" stop-color="#C5715A"/>
</linearGradient>
<linearGradient id="paint10_linear_2732_70598" x1="5.20683" y1="9.59477" x2="9.80272" y2="14.1907" gradientUnits="userSpaceOnUse">
<stop stop-color="#FBC56D"/>
<stop offset="1" stop-color="#C5715A"/>
</linearGradient>
<linearGradient id="paint11_linear_2732_70598" x1="7.9994" y1="14.0298" x2="7.9994" y2="17.7138" gradientUnits="userSpaceOnUse">
<stop stop-color="#8C3D27" stop-opacity="0"/>
<stop offset="1" stop-color="#8C3D27"/>
</linearGradient>
<linearGradient id="paint12_linear_2732_70598" x1="11.362" y1="15.3038" x2="6.72669" y2="12.3861" gradientUnits="userSpaceOnUse">
<stop stop-color="#8C3D27" stop-opacity="0"/>
<stop offset="1" stop-color="#8C3D27"/>
</linearGradient>
<linearGradient id="paint13_linear_2732_70598" x1="6.83112" y1="11.3205" x2="8.93945" y2="13.4288" gradientUnits="userSpaceOnUse">
<stop stop-color="#FBC56D"/>
<stop offset="1" stop-color="#C5715A"/>
</linearGradient>
<linearGradient id="paint14_linear_2732_70598" x1="9.26328" y1="11.8954" x2="6.34929" y2="13.1" gradientUnits="userSpaceOnUse">
<stop stop-color="#8C3D27" stop-opacity="0"/>
<stop offset="1" stop-color="#8C3D27"/>
</linearGradient>
<linearGradient id="paint15_linear_2732_70598" x1="8.50331" y1="12.9291" x2="6.90795" y2="12.2453" gradientUnits="userSpaceOnUse">
<stop stop-color="#8C3D27" stop-opacity="0"/>
<stop offset="1" stop-color="#8C3D27"/>
</linearGradient>
<linearGradient id="paint16_linear_2732_70598" x1="7.49783" y1="12.9291" x2="9.0932" y2="12.2453" gradientUnits="userSpaceOnUse">
<stop stop-color="#8C3D27" stop-opacity="0"/>
<stop offset="1" stop-color="#8C3D27"/>
</linearGradient>
<linearGradient id="paint17_linear_2732_70598" x1="7.53286" y1="13.01" x2="8.55843" y2="11.3617" gradientUnits="userSpaceOnUse">
<stop stop-color="#8C3D27" stop-opacity="0"/>
<stop offset="1" stop-color="#8C3D27"/>
</linearGradient>
<linearGradient id="paint18_linear_2732_70598" x1="8.38929" y1="12.8006" x2="8.30384" y2="11.189" gradientUnits="userSpaceOnUse">
<stop stop-color="#8C3D27" stop-opacity="0"/>
<stop offset="1" stop-color="#8C3D27"/>
</linearGradient>
<linearGradient id="paint19_linear_2732_70598" x1="10.7661" y1="10.0162" x2="8.60137" y2="6.22799" gradientUnits="userSpaceOnUse">
<stop stop-color="#8C3D27" stop-opacity="0"/>
<stop offset="1" stop-color="#8C3D27"/>
</linearGradient>
<linearGradient id="paint20_linear_2732_70598" x1="8.25155" y1="1.99988" x2="9.64567" y2="4.22341" gradientUnits="userSpaceOnUse">
<stop stop-color="#F9F5F3"/>
<stop offset="1" stop-color="#D8E8F0"/>
</linearGradient>
<linearGradient id="paint21_linear_2732_70598" x1="6.861" y1="-0.728212" x2="11.1904" y2="4.23647" gradientUnits="userSpaceOnUse">
<stop stop-color="#BBEC6C"/>
<stop offset="1" stop-color="#81B823"/>
</linearGradient>
<linearGradient id="paint22_linear_2732_70598" x1="5.94131" y1="0.0740882" x2="10.2707" y2="5.03877" gradientUnits="userSpaceOnUse">
<stop stop-color="#BBEC6C"/>
<stop offset="1" stop-color="#81B823"/>
</linearGradient>
<linearGradient id="paint23_linear_2732_70598" x1="8.00054" y1="2.34661" x2="8.00054" y2="1.18071" gradientUnits="userSpaceOnUse">
<stop stop-color="#78A91F" stop-opacity="0"/>
<stop offset="1" stop-color="#78A91F"/>
</linearGradient>
<linearGradient id="paint24_linear_2732_70598" x1="9.34154" y1="3.77648" x2="9.94401" y2="4.37895" gradientUnits="userSpaceOnUse">
<stop stop-color="#78A91F" stop-opacity="0"/>
<stop offset="1" stop-color="#78A91F"/>
</linearGradient>
<linearGradient id="paint25_linear_2732_70598" x1="6.65954" y1="3.77648" x2="6.05707" y2="4.37895" gradientUnits="userSpaceOnUse">
<stop stop-color="#78A91F" stop-opacity="0"/>
<stop offset="1" stop-color="#78A91F"/>
</linearGradient>
<linearGradient id="paint26_linear_2732_70598" x1="11.0593" y1="6.26919" x2="3.82191" y2="-0.968221" gradientUnits="userSpaceOnUse">
<stop stop-color="#FBC56D"/>
<stop offset="1" stop-color="#C5715A"/>
</linearGradient>
<linearGradient id="paint27_linear_2732_70598" x1="7.99981" y1="2.88289" x2="7.99981" y2="7.82545" gradientUnits="userSpaceOnUse">
<stop stop-color="#FBC56D"/>
<stop offset="1" stop-color="#C5715A"/>
</linearGradient>
<linearGradient id="paint28_linear_2732_70598" x1="7.99977" y1="5.75351" x2="7.99977" y2="7.3786" gradientUnits="userSpaceOnUse">
<stop stop-color="#8C3D27" stop-opacity="0"/>
<stop offset="1" stop-color="#8C3D27"/>
</linearGradient>
<linearGradient id="paint29_linear_2732_70598" x1="9.6667" y1="4.83245" x2="8.67846" y2="5.83833" gradientUnits="userSpaceOnUse">
<stop stop-color="#8C3D27" stop-opacity="0"/>
<stop offset="1" stop-color="#8C3D27"/>
</linearGradient>
<linearGradient id="paint30_linear_2732_70598" x1="7.24139" y1="5.94745" x2="9.11304" y2="7.8191" gradientUnits="userSpaceOnUse">
<stop stop-color="#FBC56D"/>
<stop offset="1" stop-color="#C5715A"/>
</linearGradient>
<linearGradient id="paint31_linear_2732_70598" x1="8.53918" y1="7.24425" x2="7.61267" y2="6.31775" gradientUnits="userSpaceOnUse">
<stop stop-color="#FBC56D"/>
<stop offset="1" stop-color="#C5715A"/>
</linearGradient>
<linearGradient id="paint32_linear_2732_70598" x1="8.00022" y1="0.399988" x2="8.00022" y2="1.13545" gradientUnits="userSpaceOnUse">
<stop stop-color="#FBC56D"/>
<stop offset="1" stop-color="#C5715A"/>
</linearGradient>
</defs>
</svg>
