<svg width="20" height="20" viewBox="0 0 20 20" fill="none" xmlns="http://www.w3.org/2000/svg">
<g clip-path="url(#clip0_2075_49590)">
<path fill-rule="evenodd" clip-rule="evenodd" d="M10.5337 2.44443C10.3736 2.34422 10.1887 2.29109 10 2.29109C9.81128 2.29109 9.62636 2.34422 9.46632 2.44443L3.42465 6.22751C3.27983 6.3182 3.16041 6.44429 3.07762 6.59395C2.99483 6.7436 2.95139 6.91189 2.95139 7.08299V12.917C2.95139 13.0881 2.99483 13.2564 3.07762 13.4061C3.16041 13.5557 3.27983 13.6818 3.42465 13.7725L9.46632 17.5556C9.62636 17.6558 9.81128 17.7089 10 17.7089C10.1887 17.7089 10.3736 17.6558 10.5337 17.5556L16.5753 13.7725C16.7202 13.6818 16.8396 13.5557 16.9224 13.4061C17.0052 13.2564 17.0486 13.0881 17.0486 12.917V7.08299C17.0486 6.91189 17.0052 6.7436 16.9224 6.59395C16.8396 6.44429 16.7202 6.3182 16.5753 6.22751L10.5337 2.44443ZM8.39896 0.733467C8.87906 0.43284 9.43384 0.273437 10 0.273438C10.5662 0.273437 11.1209 0.43284 11.601 0.733467L17.6427 4.51655C18.0772 4.7886 18.4354 5.16689 18.6838 5.61585C18.9322 6.06481 19.0625 6.56969 19.0625 7.08299V12.917C19.0625 13.4303 18.9322 13.9352 18.6838 14.3841C18.4354 14.8331 18.0772 15.2114 17.6427 15.4835L11.601 19.2665C11.1209 19.5672 10.5662 19.7266 10 19.7266C9.43384 19.7266 8.87906 19.5672 8.39896 19.2665L2.35729 15.4835C1.92282 15.2114 1.56455 14.8331 1.31618 14.3841C1.06781 13.9352 0.937499 13.4303 0.9375 12.917V7.08299C0.937499 6.56969 1.06781 6.06481 1.31618 5.61585C1.56455 5.16689 1.92282 4.7886 2.35729 4.51655L8.39896 0.733467Z" fill="url(#paint0_linear_2075_49590)"/>
<path d="M4.64037 11.7187V8.22443H6.03946C6.29653 8.22443 6.51094 8.26253 6.6827 8.33874C6.85446 8.41495 6.98356 8.52074 7.07001 8.6561C7.15646 8.79032 7.19968 8.94502 7.19968 9.12019C7.19968 9.25668 7.17238 9.37669 7.11778 9.4802C7.06319 9.58257 6.98811 9.66674 6.89257 9.73272C6.79815 9.79755 6.69009 9.84362 6.56839 9.87092V9.90504C6.70147 9.91073 6.82602 9.94827 6.94205 10.0177C7.05921 10.087 7.15418 10.1843 7.22698 10.3094C7.29978 10.4334 7.33618 10.5813 7.33618 10.753C7.33618 10.9384 7.29011 11.1039 7.19798 11.2495C7.10698 11.394 6.97219 11.5083 6.7936 11.5925C6.61502 11.6767 6.39492 11.7187 6.1333 11.7187H4.64037ZM5.37916 11.1147H5.98145C6.18733 11.1147 6.33748 11.0755 6.43189 10.997C6.5263 10.9174 6.5735 10.8116 6.5735 10.6797C6.5735 10.583 6.55019 10.4977 6.50355 10.4237C6.45691 10.3498 6.39037 10.2918 6.30392 10.2497C6.21861 10.2076 6.11681 10.1866 5.99851 10.1866H5.37916V11.1147ZM5.37916 9.68665H5.92685C6.02809 9.68665 6.11795 9.66902 6.19643 9.63376C6.27605 9.59736 6.33862 9.54617 6.38411 9.4802C6.43075 9.41422 6.45407 9.33517 6.45407 9.24303C6.45407 9.11677 6.40914 9.01497 6.31928 8.93762C6.23056 8.86027 6.1043 8.8216 5.9405 8.8216H5.37916V9.68665Z" fill="#F37328"/>
<path d="M7.61216 8.22443H8.43967L9.23647 9.7293H9.2706L10.0674 8.22443H10.8949L9.62037 10.4834V11.7187H8.8867V10.4834L7.61216 8.22443Z" fill="#F37328"/>
<path d="M12.1532 8.22443L12.0867 10.6711H11.4622L11.394 8.22443H12.1532ZM11.7745 11.7631C11.6618 11.7631 11.5652 11.7233 11.4844 11.6437C11.4036 11.5629 11.3638 11.4662 11.365 11.3536C11.3638 11.2421 11.4036 11.1466 11.4844 11.067C11.5652 10.9873 11.6618 10.9475 11.7745 10.9475C11.8825 10.9475 11.9775 10.9873 12.0594 11.067C12.1413 11.1466 12.1828 11.2421 12.1839 11.3536C12.1828 11.4287 12.1629 11.4975 12.1242 11.5601C12.0867 11.6215 12.0372 11.671 11.9758 11.7085C11.9144 11.7449 11.8473 11.7631 11.7745 11.7631Z" fill="#F37328"/>
<path d="M12.8562 11.7187V8.22443H14.2348C14.4998 8.22443 14.7256 8.27504 14.9122 8.37628C15.0987 8.47638 15.2409 8.61572 15.3387 8.7943C15.4377 8.97175 15.4872 9.17649 15.4872 9.40854C15.4872 9.64058 15.4371 9.84533 15.337 10.0228C15.2369 10.2002 15.0919 10.3384 14.9019 10.4374C14.7131 10.5363 14.4845 10.5858 14.216 10.5858H13.3373V9.99377H14.0966C14.2388 9.99377 14.356 9.96931 14.4481 9.9204C14.5414 9.87035 14.6107 9.80153 14.6562 9.71395C14.7029 9.62522 14.7262 9.52342 14.7262 9.40854C14.7262 9.29251 14.7029 9.19128 14.6562 9.10483C14.6107 9.01725 14.5414 8.94957 14.4481 8.90179C14.3548 8.85288 14.2365 8.82842 14.0932 8.82842H13.595V11.7187H12.8562Z" fill="#F37328"/>
</g>
<defs>
<linearGradient id="paint0_linear_2075_49590" x1="10" y1="0.273445" x2="10" y2="19.7266" gradientUnits="userSpaceOnUse">
<stop stop-color="#F12711"/>
<stop offset="1" stop-color="#F5BA3D"/>
</linearGradient>
<clipPath id="clip0_2075_49590">
<rect width="20" height="20" fill="white"/>
</clipPath>
</defs>
</svg>
