<svg width="44" height="38" viewBox="0 0 44 38" fill="none" xmlns="http://www.w3.org/2000/svg">
<path d="M17.2478 37.925C26.2468 37.925 33.5419 30.6298 33.5419 21.6308C33.5419 12.6318 26.2468 5.33667 17.2478 5.33667C8.24875 5.33667 0.953613 12.6318 0.953613 21.6308C0.953613 30.6298 8.24875 37.925 17.2478 37.925Z" fill="white" fill-opacity="0.4"/>
<path d="M17.4321 34.225L17.2254 33.8728C14.0685 28.4941 5.67939 17.0795 5.59465 16.9648L5.47363 16.8004L8.33176 13.9758L17.379 20.2933C23.0754 12.9014 28.3898 7.82424 31.8563 4.85941C35.6484 1.61618 38.1168 0.123103 38.1417 0.108796L38.1978 0.0751953H43.046L42.5829 0.487626C30.6725 11.0962 17.7629 33.6436 17.6343 33.8702L17.4321 34.225Z" fill="white"/>
</svg>
