<svg width="16" height="16" viewBox="0 0 16 16" fill="none" xmlns="http://www.w3.org/2000/svg">
<path fill-rule="evenodd" clip-rule="evenodd" d="M0.833496 4.66671C0.833496 2.54962 2.54974 0.833374 4.66683 0.833374H11.3335C13.4506 0.833374 15.1668 2.54962 15.1668 4.66671V11.3334C15.1668 13.4505 13.4506 15.1667 11.3335 15.1667H4.66683C2.54974 15.1667 0.833496 13.4505 0.833496 11.3334V4.66671ZM7.1365 9.53037C7.42939 9.82326 7.90426 9.82326 8.19716 9.53037L10.8638 6.8637C11.1567 6.57081 11.1567 6.09594 10.8638 5.80304C10.5709 5.51015 10.0961 5.51015 9.80317 5.80304L7.66683 7.93938L6.86383 7.13638C6.57093 6.84348 6.09606 6.84348 5.80317 7.13638C5.51027 7.42927 5.51027 7.90414 5.80317 8.19704L7.1365 9.53037Z" fill="#4D956A"/>
</svg>
