<svg width="40" height="40" viewBox="0 0 40 40" fill="none" xmlns="http://www.w3.org/2000/svg">
<circle cx="20" cy="20" r="20" fill="white" fill-opacity="0.2"/>
<path d="M27.7479 25.5631L22.9221 17.4547V13.4077C23.6027 13.165 24.1018 12.5207 24.1018 11.7578C24.1018 10.7885 23.3133 10 22.344 10H17.6565C16.6872 10 15.8987 10.7885 15.8987 11.7578C15.8987 12.5207 16.39 13.165 17.0706 13.4077V17.4547L12.2526 25.5631C11.0808 27.5157 12.4845 30 14.7646 30H25.2359C27.5141 30 28.9207 27.5174 27.7479 25.5631ZM16.4846 25.3125C16.161 25.3125 15.8987 25.0502 15.8987 24.7266C15.8987 24.4029 16.161 24.1406 16.4846 24.1406C16.8082 24.1406 17.0706 24.4029 17.0706 24.7266C17.0706 25.0502 16.8082 25.3125 16.4846 25.3125ZM20.0003 27.6562C19.6767 27.6562 19.4143 27.3939 19.4143 27.0703C19.4143 26.7466 19.6767 26.4844 20.0003 26.4844C20.3238 26.4844 20.5862 26.7466 20.5862 27.0703C20.5862 27.3939 20.3238 27.6562 20.0003 27.6562ZM23.5159 26.4844C23.1923 26.4844 22.9299 26.222 22.9299 25.8984C22.9299 25.5748 23.1923 25.3125 23.5159 25.3125C23.8395 25.3125 24.1018 25.5748 24.1018 25.8984C24.1018 26.222 23.8395 26.4844 23.5159 26.4844ZM22.9299 22.8906C21.8432 22.8906 20.4607 22.0776 20.3908 21.8678C20.3304 21.8138 18.8913 20.5469 17.0706 20.5469C16.897 20.5469 16.719 20.5893 16.543 20.612L18.1511 17.9187C18.2059 17.8277 18.2348 17.7234 18.2346 17.6171V13.5156H21.7581V14.6875H21.1721C20.8483 14.6875 20.5862 14.9496 20.5862 15.2734C20.5862 15.5973 20.8483 15.8594 21.1721 15.8594H21.7581V17.0312H21.1721C20.8483 17.0312 20.5862 17.2933 20.5862 17.6172C20.5862 17.9411 20.8483 18.2031 21.1721 18.2031H22.0123L24.5624 22.4535C24.1281 22.6742 23.5544 22.8906 22.9299 22.8906Z" fill="white"/>
</svg>
