<svg width="16" height="16" viewBox="0 0 16 16" fill="none" xmlns="http://www.w3.org/2000/svg">
<path fill-rule="evenodd" clip-rule="evenodd" d="M4.66683 0.833374C2.54974 0.833374 0.833496 2.54962 0.833496 4.66671V11.3334C0.833496 13.4505 2.54974 15.1667 4.66683 15.1667H11.3335C13.4506 15.1667 15.1668 13.4505 15.1668 11.3334V4.66671C15.1668 2.54962 13.4506 0.833374 11.3335 0.833374H4.66683ZM9.94486 6.05565C10.2378 6.34854 10.2378 6.82341 9.94486 7.11631L9.06096 8.0002L9.94486 8.8841C10.2378 9.17699 10.2378 9.65187 9.94486 9.94476C9.65196 10.2377 9.17709 10.2377 8.8842 9.94476L8.0003 9.06086L7.11643 9.94474C6.82354 10.2376 6.34866 10.2376 6.05577 9.94474C5.76288 9.65184 5.76288 9.17697 6.05577 8.88408L6.93964 8.0002L6.05577 7.11633C5.76288 6.82344 5.76288 6.34856 6.05577 6.05567C6.34866 5.76278 6.82354 5.76278 7.11643 6.05567L8.0003 6.93954L8.8842 6.05565C9.17709 5.76275 9.65196 5.76275 9.94486 6.05565Z" fill="#F4364C"/>
</svg>
