<svg width="18" height="18" viewBox="0 0 18 18" fill="none" xmlns="http://www.w3.org/2000/svg">
<path d="M11.25 14.25H3.75C3.35218 14.25 2.97064 14.092 2.68934 13.8107C2.40804 13.5294 2.25 13.1478 2.25 12.75V4.5C2.25 4.10218 2.40804 3.72064 2.68934 3.43934C2.97064 3.15804 3.35218 3 3.75 3H6.75L9 5.25H14.25C14.6478 5.25 15.0294 5.40804 15.3107 5.68934C15.592 5.97064 15.75 6.35218 15.75 6.75V9.375" stroke="#36454F" stroke-linecap="round" stroke-linejoin="round"/>
<path d="M14.25 16.5V16.5071" stroke="#36454F" stroke-linecap="round" stroke-linejoin="round"/>
<path d="M14.25 14.2498C14.5862 14.2487 14.9124 14.1349 15.1762 13.9265C15.4401 13.7182 15.6264 13.4273 15.7054 13.1005C15.7844 12.7737 15.7515 12.4298 15.6119 12.1239C15.4723 11.818 15.2341 11.5678 14.9355 11.4133C14.6371 11.2605 14.2958 11.2131 13.9671 11.2789C13.6384 11.3446 13.3416 11.5197 13.125 11.7756" stroke="#36454F" stroke-linecap="round" stroke-linejoin="round"/>
</svg>
