<svg width="18" height="18" viewBox="0 0 18 18" fill="none" xmlns="http://www.w3.org/2000/svg">
<g clip-path="url(#clip0_2732_70491)">
<path d="M3.88696 13.3366C4.95119 13.474 5.87963 13.9062 6.53702 14.5016C6.6747 14.6263 6.62342 15.0233 6.4586 15.1089C5.67154 15.5178 4.66375 15.6999 3.59953 15.5625C2.5353 15.4251 1.60686 14.9929 0.94947 14.3975C0.811787 14.2728 0.86307 13.8758 1.02789 13.7902C1.81495 13.3813 2.82274 13.1991 3.88696 13.3366Z" fill="url(#paint0_linear_2732_70491)"/>
<path d="M3.88696 13.3366C4.95119 13.474 5.87963 13.9062 6.53702 14.5016C6.6747 14.6263 6.62342 15.0233 6.4586 15.1089C5.67154 15.5178 4.66375 15.6999 3.59953 15.5625C2.5353 15.4251 1.60686 14.9929 0.94947 14.3975C0.811787 14.2728 0.86307 13.8758 1.02789 13.7902C1.81495 13.3813 2.82274 13.1991 3.88696 13.3366Z" fill="url(#paint1_linear_2732_70491)"/>
<path d="M4.01008 11.8452C5.14821 12.3387 6.04111 13.1161 6.58069 13.9879C6.69366 14.1705 6.50961 14.595 6.29911 14.6374C5.29394 14.8396 4.11614 14.7192 2.97804 14.2258C1.83991 13.7323 0.947007 12.955 0.40743 12.0831C0.294454 11.9005 0.478513 11.476 0.689007 11.4336C1.69418 11.2315 2.87195 11.3518 4.01008 11.8452Z" fill="url(#paint2_linear_2732_70491)"/>
<path d="M4.01008 11.8452C5.14821 12.3387 6.04111 13.1161 6.58069 13.9879C6.69366 14.1705 6.50961 14.595 6.29911 14.6374C5.29394 14.8396 4.11614 14.7192 2.97804 14.2258C1.83991 13.7323 0.947007 12.955 0.40743 12.0831C0.294454 11.9005 0.478513 11.476 0.689007 11.4336C1.69418 11.2315 2.87195 11.3518 4.01008 11.8452Z" fill="url(#paint3_linear_2732_70491)"/>
<path d="M6.06041 9.45333C6.51627 10.607 6.59797 11.7881 6.36299 12.7861C6.31379 12.9951 5.88341 13.1652 5.70464 13.0463C4.85091 12.4784 4.10321 11.5605 3.64735 10.4068C3.19149 9.25317 3.10978 8.07206 3.34477 7.07404C3.39397 6.86503 3.82435 6.69498 4.00311 6.81389C4.85684 7.3817 5.60455 8.29963 6.06041 9.45333Z" fill="url(#paint4_linear_2732_70491)"/>
<path d="M6.06041 9.45333C6.51627 10.607 6.59797 11.7881 6.36299 12.7861C6.31379 12.9951 5.88341 13.1652 5.70464 13.0463C4.85091 12.4784 4.10321 11.5605 3.64735 10.4068C3.19149 9.25317 3.10978 8.07206 3.34477 7.07404C3.39397 6.86503 3.82435 6.69498 4.00311 6.81389C4.85684 7.3817 5.60455 8.29963 6.06041 9.45333Z" fill="url(#paint5_linear_2732_70491)"/>
<path d="M4.39909 9.49678C5.55956 10.5401 6.31411 11.8242 6.60938 13.0798C6.67122 13.3427 6.28203 13.7756 6.01401 13.742C4.73417 13.5815 3.37732 12.9674 2.21685 11.9241C1.05638 10.8808 0.301826 9.5967 0.00655572 8.34111C-0.0552796 8.07817 0.333909 7.64525 0.601932 7.67885C1.88173 7.83933 3.23862 8.45348 4.39909 9.49678Z" fill="url(#paint6_linear_2732_70491)"/>
<path d="M0.539062 9.7681C0.933827 10.5367 1.49755 11.277 2.21776 11.9245C3.37823 12.9678 4.73508 13.5819 6.01491 13.7424C6.28293 13.776 6.67212 13.3431 6.61029 13.0801C6.31502 11.8245 5.56046 10.5404 4.39999 9.49715C3.71666 8.88278 2.96518 8.41743 2.20149 8.10571L0.539062 9.7681Z" fill="url(#paint7_linear_2732_70491)"/>
<path d="M14.1132 13.3366C13.049 13.474 12.1205 13.9062 11.4631 14.5016C11.3255 14.6263 11.3767 15.0233 11.5416 15.1089C12.3286 15.5178 13.3364 15.6999 14.4006 15.5625C15.4649 15.4251 16.3933 14.9929 17.0507 14.3975C17.1884 14.2728 17.1371 13.8758 16.9723 13.7902C16.1852 13.3813 15.1774 13.1991 14.1132 13.3366Z" fill="url(#paint8_linear_2732_70491)"/>
<path d="M14.1132 13.3366C13.049 13.474 12.1205 13.9062 11.4631 14.5016C11.3255 14.6263 11.3767 15.0233 11.5416 15.1089C12.3286 15.5178 13.3364 15.6999 14.4006 15.5625C15.4649 15.4251 16.3933 14.9929 17.0507 14.3975C17.1884 14.2728 17.1371 13.8758 16.9723 13.7902C16.1852 13.3813 15.1774 13.1991 14.1132 13.3366Z" fill="url(#paint9_linear_2732_70491)"/>
<path d="M13.9888 11.8452C12.8507 12.3387 11.9577 13.1161 11.4182 13.9879C11.3052 14.1705 11.4893 14.595 11.6997 14.6374C12.7049 14.8396 13.8827 14.7192 15.0208 14.2258C16.1589 13.7323 17.0519 12.955 17.5914 12.0831C17.7044 11.9005 17.5203 11.476 17.3099 11.4336C16.3047 11.2315 15.1269 11.3518 13.9888 11.8452Z" fill="url(#paint10_linear_2732_70491)"/>
<path d="M13.9888 11.8452C12.8507 12.3387 11.9577 13.1161 11.4182 13.9879C11.3052 14.1705 11.4893 14.595 11.6997 14.6374C12.7049 14.8396 13.8827 14.7192 15.0208 14.2258C16.1589 13.7323 17.0519 12.955 17.5914 12.0831C17.7044 11.9005 17.5203 11.476 17.3099 11.4336C16.3047 11.2315 15.1269 11.3518 13.9888 11.8452Z" fill="url(#paint11_linear_2732_70491)"/>
<path d="M11.9403 9.45333C11.4845 10.607 11.4028 11.7881 11.6377 12.7861C11.6869 12.9951 12.1173 13.1652 12.2961 13.0463C13.1498 12.4784 13.8975 11.5605 14.3534 10.4068C14.8092 9.25317 14.8909 8.07206 14.656 7.07404C14.6068 6.86503 14.1764 6.69498 13.9976 6.81389C13.1439 7.3817 12.3962 8.29963 11.9403 9.45333Z" fill="url(#paint12_linear_2732_70491)"/>
<path d="M11.9403 9.45333C11.4845 10.607 11.4028 11.7881 11.6377 12.7861C11.6869 12.9951 12.1173 13.1652 12.2961 13.0463C13.1498 12.4784 13.8975 11.5605 14.3534 10.4068C14.8092 9.25317 14.8909 8.07206 14.656 7.07404C14.6068 6.86503 14.1764 6.69498 13.9976 6.81389C13.1439 7.3817 12.3962 8.29963 11.9403 9.45333Z" fill="url(#paint13_linear_2732_70491)"/>
<path d="M13.6006 9.49678C12.4402 10.5401 11.6856 11.8242 11.3903 13.0798C11.3285 13.3427 11.7177 13.7756 11.9857 13.742C13.2656 13.5815 14.6224 12.9674 15.7829 11.9241C16.9433 10.8808 17.6979 9.5967 17.9932 8.34111C18.055 8.07817 17.6658 7.64525 17.3978 7.67885C16.118 7.83933 14.7611 8.45348 13.6006 9.49678Z" fill="url(#paint14_linear_2732_70491)"/>
<path d="M17.4616 9.7681C17.0668 10.5367 16.5031 11.277 15.7829 11.9245C14.6224 12.9678 13.2656 13.5819 11.9857 13.7424C11.7177 13.776 11.3285 13.3431 11.3903 13.0801C11.6856 11.8245 12.4402 10.5404 13.6006 9.49715C14.284 8.88278 15.0355 8.41743 15.7991 8.10571L17.4616 9.7681Z" fill="url(#paint15_linear_2732_70491)"/>
<path d="M9.00038 17.9998C12.1002 17.9998 14.6131 15.4869 14.6131 12.3871C14.6131 9.2873 12.1002 6.77441 9.00038 6.77441C5.90058 6.77441 3.3877 9.2873 3.3877 12.3871C3.3877 15.4869 5.90058 17.9998 9.00038 17.9998Z" fill="url(#paint16_linear_2732_70491)"/>
<path d="M9.00007 16.8605C11.4708 16.8605 13.4738 14.8576 13.4738 12.3868C13.4738 9.91603 11.4708 7.91309 9.00007 7.91309C6.52931 7.91309 4.52637 9.91603 4.52637 12.3868C4.52637 14.8576 6.52931 16.8605 9.00007 16.8605Z" fill="url(#paint17_linear_2732_70491)"/>
<path d="M8.99891 16.2273C11.1201 16.2273 12.8396 14.5078 12.8396 12.3866C12.8396 10.2654 11.1201 8.5459 8.99891 8.5459C6.87775 8.5459 5.1582 10.2654 5.1582 12.3866C5.1582 14.5078 6.87775 16.2273 8.99891 16.2273Z" fill="url(#paint18_linear_2732_70491)"/>
<path d="M3.3877 12.3874C3.3877 15.4872 5.90057 18.0001 9.00038 18.0001C12.1002 18.0001 14.6131 15.4872 14.6131 12.3874C14.6131 12.3656 14.6125 12.344 14.6122 12.3223H3.38851C3.38826 12.344 3.3877 12.3656 3.3877 12.3874Z" fill="url(#paint19_linear_2732_70491)"/>
<path d="M10.5746 17.7754C12.3432 17.2597 13.7505 15.8971 14.3284 14.156L11.5947 11.4223L10.9785 11.4526L9.3152 9.78931L7.28809 14.4889L10.5746 17.7754Z" fill="url(#paint20_linear_2732_70491)"/>
<path d="M11.3017 11.1676L10.201 10.9016C10.0986 10.8769 10.0092 10.8148 9.95011 10.7275L9.31559 9.7896C9.23883 9.67616 9.12126 9.61528 9.00028 9.60547C8.87929 9.61528 8.76169 9.67616 8.68496 9.7896L8.05044 10.7275C7.99143 10.8148 7.90196 10.8769 7.79954 10.9016L6.69882 11.1676C6.40023 11.2397 6.27582 11.5961 6.46457 11.8384L7.16054 12.7317C7.22526 12.8148 7.25668 12.9191 7.24856 13.0241L7.16135 14.1531C7.1377 14.4594 7.43816 14.6879 7.72697 14.5832L8.79162 14.1973C8.85889 14.173 8.93064 14.1667 9.00028 14.1775C9.06995 14.1667 9.14166 14.173 9.20894 14.1973L10.2736 14.5832C10.5624 14.6878 10.8629 14.4594 10.8392 14.1531L10.752 13.0241C10.7439 12.9191 10.7753 12.8148 10.84 12.7317L11.536 11.8384C11.7247 11.5961 11.6003 11.2397 11.3017 11.1676Z" fill="url(#paint21_linear_2732_70491)"/>
<path d="M9.20866 14.1973L10.2733 14.5832C10.5621 14.6878 10.8626 14.4594 10.8389 14.1531L10.7517 13.0241C10.7436 12.9191 10.775 12.8148 10.8397 12.7317L11.5357 11.8384C11.7245 11.5961 11.6 11.2397 11.3015 11.1676L10.2007 10.9016C10.0984 10.8769 10.0089 10.8148 9.94983 10.7275L9.31532 9.7896C9.23855 9.67616 9.12099 9.61528 9 9.60547V14.1775C9.06967 14.1667 9.14142 14.173 9.20866 14.1973Z" fill="url(#paint22_linear_2732_70491)"/>
<path d="M11.3023 11.1671L10.2016 10.9012C10.164 10.8921 10.1282 10.8779 10.095 10.8594L7.28906 14.4888C7.39914 14.5952 7.5652 14.6416 7.72756 14.5828L8.7922 14.197C8.85948 14.1726 8.93123 14.1663 9.00086 14.1771C9.07053 14.1663 9.14225 14.1726 9.20952 14.197L10.2742 14.5828C10.5629 14.6874 10.8634 14.459 10.8398 14.1527L10.7526 13.0237C10.7445 12.9187 10.7759 12.8144 10.8406 12.7313L11.5366 11.838C11.7253 11.5956 11.6009 11.2393 11.3023 11.1671Z" fill="url(#paint23_linear_2732_70491)"/>
<path d="M6.69882 11.1671L7.79954 10.9012C7.83712 10.8921 7.87291 10.8779 7.90612 10.8594L10.7121 14.4888C10.602 14.5952 10.4359 14.6416 10.2736 14.5828L9.20894 14.197C9.14167 14.1726 9.06991 14.1663 9.00028 14.1771C8.93061 14.1663 8.85889 14.1726 8.79162 14.197L7.72697 14.5828C7.4382 14.6874 7.1377 14.459 7.16135 14.1527L7.24856 13.0237C7.25668 12.9187 7.22527 12.8144 7.16054 12.7313L6.46457 11.838C6.27582 11.5956 6.40023 11.2393 6.69882 11.1671Z" fill="url(#paint24_linear_2732_70491)"/>
<path d="M6.4054 11.4231C6.35306 11.5551 6.36562 11.7124 6.46413 11.8389L7.16009 12.7322C7.22482 12.8153 7.25623 12.9195 7.24812 13.0246L7.1609 14.1536C7.13726 14.4598 7.43772 14.6883 7.72653 14.5836L8.79117 14.1978C8.85844 14.1734 8.9302 14.1671 8.99983 14.1779C9.0695 14.1672 9.14122 14.1735 9.20849 14.1978L10.2731 14.5836C10.5619 14.6883 10.8624 14.4598 10.8388 14.1536L10.7516 13.0246C10.747 12.9663 10.7551 12.9084 10.7739 12.8541L6.4054 11.4231Z" fill="url(#paint25_linear_2732_70491)"/>
<path d="M11.5958 11.4219C11.6481 11.5539 11.6356 11.7112 11.5371 11.8376L10.8411 12.7309C10.7764 12.8141 10.745 12.9183 10.7531 13.0233L10.8403 14.1524C10.8639 14.4586 10.5635 14.6871 10.2747 14.5824L9.21003 14.1966C9.14276 14.1722 9.07101 14.1659 9.00137 14.1767C8.9317 14.166 8.85999 14.1722 8.79271 14.1966L7.72807 14.5824C7.43929 14.6871 7.1388 14.4586 7.16244 14.1524L7.24966 13.0233C7.25417 12.9651 7.24609 12.9072 7.22731 12.8528L11.5958 11.4219Z" fill="url(#paint26_linear_2732_70491)"/>
<path d="M9.00028 6.77466C8.97698 6.77466 8.95386 6.77526 8.93064 6.77554L8.06445 7.64173L14.3878 13.9651C14.5341 13.4645 14.613 12.9351 14.613 12.3873C14.613 9.28753 12.1001 6.77466 9.00028 6.77466Z" fill="url(#paint27_linear_2732_70491)"/>
<path d="M5.61133 0.117188V3.08189L8.99957 6.47013L12.3878 3.08189V0.117188H5.61133Z" fill="url(#paint28_linear_2732_70491)"/>
<path d="M5.61133 0.117188V1.03985L8.98824 4.41675C8.99448 4.423 9.00465 4.423 9.01089 4.41675L12.3878 1.03985V0.117188H5.61133Z" fill="url(#paint29_linear_2732_70491)"/>
<path d="M5.61133 0.117188V1.03985L8.98824 4.41675C8.99448 4.423 9.00465 4.423 9.01089 4.41675L12.3878 1.03985V0.117188H5.61133Z" fill="url(#paint30_linear_2732_70491)"/>
<path d="M8.99957 4.95089C8.85987 4.95089 8.72021 4.89774 8.61391 4.79139L5.61133 1.78882V3.08221L8.99957 6.47044L12.3878 3.08221V1.78882L9.38522 4.79139C9.27892 4.8977 9.13926 4.95089 8.99957 4.95089Z" fill="url(#paint31_linear_2732_70491)"/>
<path d="M8.99957 4.95089C8.85987 4.95089 8.72021 4.89774 8.61391 4.79139L5.61133 1.78882V3.08221L8.99957 6.47044L12.3878 3.08221V1.78882L9.38522 4.79139C9.27892 4.8977 9.13926 4.95089 8.99957 4.95089Z" fill="url(#paint32_linear_2732_70491)"/>
<path d="M8.99957 4.95089C9.13926 4.95089 9.27892 4.89774 9.38522 4.79139L12.3878 1.78882V3.08221L8.99957 6.47044L5.61133 3.08221V1.78882L8.61391 4.79139C8.72021 4.8977 8.85991 4.95089 8.99957 4.95089Z" fill="url(#paint33_linear_2732_70491)"/>
<path d="M8.62731 5.70148L5.74399 2.81816C5.52778 2.60195 5.1772 2.60195 4.96099 2.81816C4.74478 3.03438 4.74478 3.38495 4.96099 3.60116L8.99885 7.6391L13.0367 3.6012C13.253 3.38499 13.253 3.03441 13.0367 2.8182C12.8205 2.60199 12.47 2.60199 12.2537 2.8182L9.37042 5.70152C9.16519 5.90672 8.83251 5.90672 8.62731 5.70148Z" fill="url(#paint34_linear_2732_70491)"/>
<path d="M4.96094 2.82473L8.57368 6.43747C8.80849 6.67228 9.18921 6.67228 9.42402 6.43747L13.0367 2.82473C13.0378 2.82367 13.0386 2.82251 13.0397 2.82145C13.0387 2.82039 13.0378 2.81922 13.0367 2.81816C12.8205 2.60195 12.4699 2.60195 12.2537 2.81816L9.37041 5.70148C9.16521 5.90668 8.83249 5.90668 8.62729 5.70148L5.74397 2.81816C5.52776 2.60195 5.17718 2.60195 4.96097 2.81816C4.95991 2.81922 4.95907 2.82039 4.95801 2.82145C4.95903 2.82251 4.95988 2.82367 4.96094 2.82473Z" fill="url(#paint35_linear_2732_70491)"/>
<path d="M8.99879 7.63914L11.8491 4.78882H10.2831L9.37033 5.70156C9.16513 5.90676 8.83241 5.90676 8.62721 5.70156L7.71447 4.78882H6.14844L8.99879 7.63914Z" fill="url(#paint36_linear_2732_70491)"/>
<path d="M8.64453 7.28529L8.99747 7.63823L12.6125 4.02319H11.0465L9.36905 5.70062C9.16981 5.89985 8.85079 5.90504 8.64453 5.71745V7.28529Z" fill="url(#paint37_linear_2732_70491)"/>
<path d="M8.99924 8.02973C9.73017 8.02973 10.3227 7.4372 10.3227 6.70627C10.3227 5.97535 9.73017 5.38281 8.99924 5.38281C8.26831 5.38281 7.67578 5.97535 7.67578 6.70627C7.67578 7.4372 8.26831 8.02973 8.99924 8.02973Z" fill="url(#paint38_linear_2732_70491)"/>
<path d="M8.99996 7.46477C9.41901 7.46477 9.75872 7.12507 9.75872 6.70602C9.75872 6.28697 9.41901 5.94727 8.99996 5.94727C8.58092 5.94727 8.24121 6.28697 8.24121 6.70602C8.24121 7.12507 8.58092 7.46477 8.99996 7.46477Z" fill="url(#paint39_linear_2732_70491)"/>
<path d="M12.8993 1.31764H5.09917C4.87505 1.31764 4.69336 1.13594 4.69336 0.911824V0.405812C4.69336 0.181694 4.87505 0 5.09917 0H12.8993C13.1234 0 13.3051 0.181694 13.3051 0.405812V0.911859C13.3051 1.13598 13.1234 1.31764 12.8993 1.31764Z" fill="url(#paint40_linear_2732_70491)"/>
</g>
<defs>
<linearGradient id="paint0_linear_2732_70491" x1="2.56703" y1="12.8278" x2="3.73174" y2="14.4337" gradientUnits="userSpaceOnUse">
<stop stop-color="#FEF0AE"/>
<stop offset="1" stop-color="#FBC56D"/>
</linearGradient>
<linearGradient id="paint1_linear_2732_70491" x1="2.46098" y1="13.8577" x2="4.29627" y2="14.7048" gradientUnits="userSpaceOnUse">
<stop stop-color="#DC8758" stop-opacity="0"/>
<stop offset="0.9957" stop-color="#DC8758" stop-opacity="0.996"/>
<stop offset="1" stop-color="#DC8758"/>
</linearGradient>
<linearGradient id="paint2_linear_2732_70491" x1="1.37107" y1="11.4579" x2="3.2946" y2="12.8873" gradientUnits="userSpaceOnUse">
<stop stop-color="#FEF0AE"/>
<stop offset="1" stop-color="#FBC56D"/>
</linearGradient>
<linearGradient id="paint3_linear_2732_70491" x1="2.17747" y1="13.0567" x2="3.63628" y2="13.0332" gradientUnits="userSpaceOnUse">
<stop stop-color="#DC8758" stop-opacity="0"/>
<stop offset="0.9957" stop-color="#DC8758" stop-opacity="0.996"/>
<stop offset="1" stop-color="#DC8758"/>
</linearGradient>
<linearGradient id="paint4_linear_2732_70491" x1="5.23647" y1="8.17014" x2="4.79529" y2="10.1996" gradientUnits="userSpaceOnUse">
<stop stop-color="#FEF0AE"/>
<stop offset="1" stop-color="#FBC56D"/>
</linearGradient>
<linearGradient id="paint5_linear_2732_70491" x1="3.33009" y1="8.37453" x2="4.4595" y2="9.52744" gradientUnits="userSpaceOnUse">
<stop stop-color="#DC8758" stop-opacity="0"/>
<stop offset="0.9957" stop-color="#DC8758" stop-opacity="0.996"/>
<stop offset="1" stop-color="#DC8758"/>
</linearGradient>
<linearGradient id="paint6_linear_2732_70491" x1="2.65157" y1="8.65766" x2="3.62216" y2="11.693" gradientUnits="userSpaceOnUse">
<stop stop-color="#FEF0AE"/>
<stop offset="1" stop-color="#FBC56D"/>
</linearGradient>
<linearGradient id="paint7_linear_2732_70491" x1="2.848" y1="10.3108" x2="4.09505" y2="11.3932" gradientUnits="userSpaceOnUse">
<stop stop-color="#DC8758" stop-opacity="0"/>
<stop offset="0.9957" stop-color="#DC8758" stop-opacity="0.996"/>
<stop offset="1" stop-color="#DC8758"/>
</linearGradient>
<linearGradient id="paint8_linear_2732_70491" x1="15.4331" y1="12.8278" x2="14.2684" y2="14.4337" gradientUnits="userSpaceOnUse">
<stop stop-color="#FEF0AE"/>
<stop offset="1" stop-color="#FBC56D"/>
</linearGradient>
<linearGradient id="paint9_linear_2732_70491" x1="15.5392" y1="13.8577" x2="13.7039" y2="14.7048" gradientUnits="userSpaceOnUse">
<stop stop-color="#DC8758" stop-opacity="0"/>
<stop offset="0.9957" stop-color="#DC8758" stop-opacity="0.996"/>
<stop offset="1" stop-color="#DC8758"/>
</linearGradient>
<linearGradient id="paint10_linear_2732_70491" x1="16.6278" y1="11.4579" x2="14.7043" y2="12.8873" gradientUnits="userSpaceOnUse">
<stop stop-color="#FEF0AE"/>
<stop offset="1" stop-color="#FBC56D"/>
</linearGradient>
<linearGradient id="paint11_linear_2732_70491" x1="15.8214" y1="13.0567" x2="14.3626" y2="13.0332" gradientUnits="userSpaceOnUse">
<stop stop-color="#DC8758" stop-opacity="0"/>
<stop offset="0.9957" stop-color="#DC8758" stop-opacity="0.996"/>
<stop offset="1" stop-color="#DC8758"/>
</linearGradient>
<linearGradient id="paint12_linear_2732_70491" x1="12.7643" y1="8.17014" x2="13.2054" y2="10.1996" gradientUnits="userSpaceOnUse">
<stop stop-color="#FEF0AE"/>
<stop offset="1" stop-color="#FBC56D"/>
</linearGradient>
<linearGradient id="paint13_linear_2732_70491" x1="14.6706" y1="8.37453" x2="13.5412" y2="9.52744" gradientUnits="userSpaceOnUse">
<stop stop-color="#DC8758" stop-opacity="0"/>
<stop offset="0.9957" stop-color="#DC8758" stop-opacity="0.996"/>
<stop offset="1" stop-color="#DC8758"/>
</linearGradient>
<linearGradient id="paint14_linear_2732_70491" x1="15.3482" y1="8.65766" x2="14.3776" y2="11.693" gradientUnits="userSpaceOnUse">
<stop stop-color="#FEF0AE"/>
<stop offset="1" stop-color="#FBC56D"/>
</linearGradient>
<linearGradient id="paint15_linear_2732_70491" x1="15.1526" y1="10.3108" x2="13.9056" y2="11.3932" gradientUnits="userSpaceOnUse">
<stop stop-color="#DC8758" stop-opacity="0"/>
<stop offset="0.9957" stop-color="#DC8758" stop-opacity="0.996"/>
<stop offset="1" stop-color="#DC8758"/>
</linearGradient>
<linearGradient id="paint16_linear_2732_70491" x1="5.53993" y1="8.92665" x2="11.4593" y2="14.846" gradientUnits="userSpaceOnUse">
<stop stop-color="#FEF0AE"/>
<stop offset="1" stop-color="#FBC56D"/>
</linearGradient>
<linearGradient id="paint17_linear_2732_70491" x1="11.9057" y1="15.2924" x2="6.00967" y2="9.39639" gradientUnits="userSpaceOnUse">
<stop stop-color="#FEF0AE"/>
<stop offset="1" stop-color="#FBC56D"/>
</linearGradient>
<linearGradient id="paint18_linear_2732_70491" x1="6.20683" y1="9.59452" x2="10.8027" y2="14.1904" gradientUnits="userSpaceOnUse">
<stop stop-color="#FEF0AE"/>
<stop offset="1" stop-color="#FBC56D"/>
</linearGradient>
<linearGradient id="paint19_linear_2732_70491" x1="9.00038" y1="14.0296" x2="9.00038" y2="17.7136" gradientUnits="userSpaceOnUse">
<stop stop-color="#DC8758" stop-opacity="0"/>
<stop offset="0.9957" stop-color="#DC8758" stop-opacity="0.996"/>
<stop offset="1" stop-color="#DC8758"/>
</linearGradient>
<linearGradient id="paint20_linear_2732_70491" x1="12.362" y1="15.3038" x2="7.72669" y2="12.3861" gradientUnits="userSpaceOnUse">
<stop stop-color="#DC8758" stop-opacity="0"/>
<stop offset="0.9957" stop-color="#DC8758" stop-opacity="0.996"/>
<stop offset="1" stop-color="#DC8758"/>
</linearGradient>
<linearGradient id="paint21_linear_2732_70491" x1="7.83112" y1="11.3203" x2="9.93945" y2="13.4286" gradientUnits="userSpaceOnUse">
<stop stop-color="#FBC56D"/>
<stop offset="1" stop-color="#C5715A"/>
</linearGradient>
<linearGradient id="paint22_linear_2732_70491" x1="10.2633" y1="11.8951" x2="7.34929" y2="13.0998" gradientUnits="userSpaceOnUse">
<stop stop-color="#8C3D27" stop-opacity="0"/>
<stop offset="1" stop-color="#8C3D27"/>
</linearGradient>
<linearGradient id="paint23_linear_2732_70491" x1="9.50331" y1="12.9288" x2="7.90795" y2="12.2451" gradientUnits="userSpaceOnUse">
<stop stop-color="#8C3D27" stop-opacity="0"/>
<stop offset="1" stop-color="#8C3D27"/>
</linearGradient>
<linearGradient id="paint24_linear_2732_70491" x1="8.49783" y1="12.9288" x2="10.0932" y2="12.2451" gradientUnits="userSpaceOnUse">
<stop stop-color="#8C3D27" stop-opacity="0"/>
<stop offset="1" stop-color="#8C3D27"/>
</linearGradient>
<linearGradient id="paint25_linear_2732_70491" x1="8.53286" y1="13.0097" x2="9.55843" y2="11.3615" gradientUnits="userSpaceOnUse">
<stop stop-color="#8C3D27" stop-opacity="0"/>
<stop offset="1" stop-color="#8C3D27"/>
</linearGradient>
<linearGradient id="paint26_linear_2732_70491" x1="9.38929" y1="12.8004" x2="9.30384" y2="11.1887" gradientUnits="userSpaceOnUse">
<stop stop-color="#8C3D27" stop-opacity="0"/>
<stop offset="1" stop-color="#8C3D27"/>
</linearGradient>
<linearGradient id="paint27_linear_2732_70491" x1="11.7661" y1="10.0162" x2="9.60137" y2="6.22799" gradientUnits="userSpaceOnUse">
<stop stop-color="#DC8758" stop-opacity="0"/>
<stop offset="0.9957" stop-color="#DC8758" stop-opacity="0.996"/>
<stop offset="1" stop-color="#DC8758"/>
</linearGradient>
<linearGradient id="paint28_linear_2732_70491" x1="9.25058" y1="1.99988" x2="10.6447" y2="4.22341" gradientUnits="userSpaceOnUse">
<stop stop-color="#F9F5F3"/>
<stop offset="1" stop-color="#D8E8F0"/>
</linearGradient>
<linearGradient id="paint29_linear_2732_70491" x1="7.86002" y1="-0.728212" x2="12.1894" y2="4.23647" gradientUnits="userSpaceOnUse">
<stop stop-color="#FD4755"/>
<stop offset="1" stop-color="#A72B2B"/>
</linearGradient>
<linearGradient id="paint30_linear_2732_70491" x1="8.99957" y1="2.34661" x2="8.99957" y2="1.18071" gradientUnits="userSpaceOnUse">
<stop stop-color="#A72B2B" stop-opacity="0"/>
<stop offset="1" stop-color="#42210B"/>
</linearGradient>
<linearGradient id="paint31_linear_2732_70491" x1="6.94033" y1="0.0740891" x2="11.2697" y2="5.03877" gradientUnits="userSpaceOnUse">
<stop stop-color="#FD4755"/>
<stop offset="1" stop-color="#A72B2B"/>
</linearGradient>
<linearGradient id="paint32_linear_2732_70491" x1="10.3406" y1="3.77648" x2="10.943" y2="4.37895" gradientUnits="userSpaceOnUse">
<stop stop-color="#A72B2B" stop-opacity="0"/>
<stop offset="1" stop-color="#42210B"/>
</linearGradient>
<linearGradient id="paint33_linear_2732_70491" x1="7.65856" y1="3.77648" x2="7.05609" y2="4.37895" gradientUnits="userSpaceOnUse">
<stop stop-color="#A72B2B" stop-opacity="0"/>
<stop offset="1" stop-color="#42210B"/>
</linearGradient>
<linearGradient id="paint34_linear_2732_70491" x1="12.0584" y1="6.26919" x2="4.82094" y2="-0.968224" gradientUnits="userSpaceOnUse">
<stop stop-color="#FEF0AE"/>
<stop offset="1" stop-color="#FBC56D"/>
</linearGradient>
<linearGradient id="paint35_linear_2732_70491" x1="8.99883" y1="2.88289" x2="8.99883" y2="7.82545" gradientUnits="userSpaceOnUse">
<stop stop-color="#FEF0AE"/>
<stop offset="1" stop-color="#FBC56D"/>
</linearGradient>
<linearGradient id="paint36_linear_2732_70491" x1="8.99879" y1="5.75351" x2="8.99879" y2="7.3786" gradientUnits="userSpaceOnUse">
<stop stop-color="#DC8758" stop-opacity="0"/>
<stop offset="0.9957" stop-color="#DC8758" stop-opacity="0.996"/>
<stop offset="1" stop-color="#DC8758"/>
</linearGradient>
<linearGradient id="paint37_linear_2732_70491" x1="10.6657" y1="4.83245" x2="9.67748" y2="5.83833" gradientUnits="userSpaceOnUse">
<stop stop-color="#DC8758" stop-opacity="0"/>
<stop offset="0.9957" stop-color="#DC8758" stop-opacity="0.996"/>
<stop offset="1" stop-color="#DC8758"/>
</linearGradient>
<linearGradient id="paint38_linear_2732_70491" x1="8.24042" y1="5.94745" x2="10.1121" y2="7.81909" gradientUnits="userSpaceOnUse">
<stop stop-color="#FBC56D"/>
<stop offset="1" stop-color="#C5715A"/>
</linearGradient>
<linearGradient id="paint39_linear_2732_70491" x1="9.74114" y1="7.4472" x2="7.98783" y2="5.69389" gradientUnits="userSpaceOnUse">
<stop stop-color="#FBC56D"/>
<stop offset="1" stop-color="#C5715A"/>
</linearGradient>
<linearGradient id="paint40_linear_2732_70491" x1="8.99924" y1="0.399988" x2="8.99924" y2="1.13545" gradientUnits="userSpaceOnUse">
<stop stop-color="#FEF0AE"/>
<stop offset="1" stop-color="#FBC56D"/>
</linearGradient>
<clipPath id="clip0_2732_70491">
<rect width="18" height="18" fill="white"/>
</clipPath>
</defs>
</svg>
