<svg width="28" height="28" viewBox="0 0 28 28" fill="none" xmlns="http://www.w3.org/2000/svg">
<g clip-path="url(#clip0_2732_71180)">
<path d="M6.04639 20.7458C7.70185 20.9595 9.1461 21.6318 10.1687 22.558C10.3829 22.752 10.3031 23.3695 10.0467 23.5027C8.8224 24.1387 7.25472 24.4221 5.59927 24.2083C3.94381 23.9945 2.49956 23.3222 1.47695 22.3961C1.26278 22.2021 1.34255 21.5845 1.59894 21.4514C2.82326 20.8153 4.39093 20.532 6.04639 20.7458Z" fill="url(#paint0_linear_2732_71180)"/>
<path d="M6.04639 20.7458C7.70185 20.9595 9.1461 21.6318 10.1687 22.558C10.3829 22.752 10.3031 23.3695 10.0467 23.5027C8.8224 24.1387 7.25472 24.4221 5.59927 24.2083C3.94381 23.9945 2.49956 23.3222 1.47695 22.3961C1.26278 22.2021 1.34255 21.5845 1.59894 21.4514C2.82326 20.8153 4.39093 20.532 6.04639 20.7458Z" fill="url(#paint1_linear_2732_71180)"/>
<path d="M6.23768 18.4259C8.0081 19.1935 9.39707 20.4028 10.2364 21.759C10.4121 22.043 10.1258 22.7034 9.7984 22.7693C8.23479 23.0838 6.40266 22.8965 4.63229 22.129C2.86187 21.3614 1.4729 20.1522 0.633564 18.7959C0.457822 18.5119 0.744136 17.8515 1.07157 17.7856C2.63518 17.4712 4.46726 17.6584 6.23768 18.4259Z" fill="url(#paint2_linear_2732_71180)"/>
<path d="M6.23768 18.4259C8.0081 19.1935 9.39707 20.4028 10.2364 21.759C10.4121 22.043 10.1258 22.7034 9.7984 22.7693C8.23479 23.0838 6.40266 22.8965 4.63229 22.129C2.86187 21.3614 1.4729 20.1522 0.633564 18.7959C0.457822 18.5119 0.744136 17.8515 1.07157 17.7856C2.63518 17.4712 4.46726 17.6584 6.23768 18.4259Z" fill="url(#paint3_linear_2732_71180)"/>
<path d="M9.4273 14.7051C10.1364 16.4997 10.2635 18.337 9.89798 19.8895C9.82144 20.2146 9.15197 20.4791 8.87389 20.2942C7.54587 19.4109 6.38277 17.983 5.67365 16.1884C4.96454 14.3938 4.83744 12.5565 5.20298 11.004C5.27951 10.6789 5.94899 10.4144 6.22707 10.5994C7.55509 11.4826 8.71819 12.9105 9.4273 14.7051Z" fill="url(#paint4_linear_2732_71180)"/>
<path d="M9.4273 14.7051C10.1364 16.4997 10.2635 18.337 9.89798 19.8895C9.82144 20.2146 9.15197 20.4791 8.87389 20.2942C7.54587 19.4109 6.38277 17.983 5.67365 16.1884C4.96454 14.3938 4.83744 12.5565 5.20298 11.004C5.27951 10.6789 5.94899 10.4144 6.22707 10.5994C7.55509 11.4826 8.71819 12.9105 9.4273 14.7051Z" fill="url(#paint5_linear_2732_71180)"/>
<path d="M6.84302 14.7727C8.6482 16.3956 9.82195 18.3931 10.2813 20.3462C10.3774 20.7552 9.77205 21.4286 9.35512 21.3764C7.36426 21.1267 5.25361 20.1714 3.44843 18.5485C1.64326 16.9256 0.469508 14.9281 0.0101978 12.9749C-0.0859905 12.5659 0.519414 11.8925 0.936339 11.9448C2.92714 12.1944 5.03785 13.1498 6.84302 14.7727Z" fill="url(#paint6_linear_2732_71180)"/>
<path d="M0.838379 15.1948C1.45246 16.3904 2.32935 17.5419 3.44968 18.5492C5.25486 20.1721 7.36551 21.1274 9.35637 21.3771C9.77329 21.4293 10.3787 20.756 10.2825 20.3469C9.8232 18.3937 8.64945 16.3962 6.84427 14.7733C5.78131 13.8177 4.61234 13.0938 3.42437 12.6089L0.838379 15.1948Z" fill="url(#paint7_linear_2732_71180)"/>
<path d="M21.9538 20.7458C20.2983 20.9595 18.854 21.6318 17.8314 22.558C17.6173 22.752 17.697 23.3695 17.9534 23.5027C19.1778 24.1387 20.7454 24.4221 22.4009 24.2083C24.0563 23.9945 25.5006 23.3222 26.5232 22.3961C26.7374 22.2021 26.6576 21.5845 26.4012 21.4514C25.1769 20.8153 23.6092 20.532 21.9538 20.7458Z" fill="url(#paint8_linear_2732_71180)"/>
<path d="M21.9538 20.7458C20.2983 20.9595 18.854 21.6318 17.8314 22.558C17.6173 22.752 17.697 23.3695 17.9534 23.5027C19.1778 24.1387 20.7454 24.4221 22.4009 24.2083C24.0563 23.9945 25.5006 23.3222 26.5232 22.3961C26.7374 22.2021 26.6576 21.5845 26.4012 21.4514C25.1769 20.8153 23.6092 20.532 21.9538 20.7458Z" fill="url(#paint9_linear_2732_71180)"/>
<path d="M21.7602 18.4259C19.9898 19.1935 18.6008 20.4028 17.7615 21.759C17.5858 22.043 17.8721 22.7034 18.1995 22.7693C19.7631 23.0838 21.5952 22.8965 23.3656 22.129C25.136 21.3614 26.525 20.1522 27.3643 18.7959C27.5401 18.5119 27.2538 17.8515 26.9263 17.7856C25.3627 17.4712 23.5306 17.6584 21.7602 18.4259Z" fill="url(#paint10_linear_2732_71180)"/>
<path d="M21.7602 18.4259C19.9898 19.1935 18.6008 20.4028 17.7615 21.759C17.5858 22.043 17.8721 22.7034 18.1995 22.7693C19.7631 23.0838 21.5952 22.8965 23.3656 22.129C25.136 21.3614 26.525 20.1522 27.3643 18.7959C27.5401 18.5119 27.2538 17.8515 26.9263 17.7856C25.3627 17.4712 23.5306 17.6584 21.7602 18.4259Z" fill="url(#paint11_linear_2732_71180)"/>
<path d="M18.5736 14.7051C17.8644 16.4997 17.7373 18.337 18.1029 19.8895C18.1794 20.2146 18.8489 20.4791 19.127 20.2942C20.455 19.4109 21.6181 17.983 22.3272 16.1884C23.0363 14.3938 23.1634 12.5565 22.7979 11.004C22.7213 10.6789 22.0519 10.4144 21.7738 10.5994C20.4458 11.4826 19.2827 12.9105 18.5736 14.7051Z" fill="url(#paint12_linear_2732_71180)"/>
<path d="M18.5736 14.7051C17.8644 16.4997 17.7373 18.337 18.1029 19.8895C18.1794 20.2146 18.8489 20.4791 19.127 20.2942C20.455 19.4109 21.6181 17.983 22.3272 16.1884C23.0363 14.3938 23.1634 12.5565 22.7979 11.004C22.7213 10.6789 22.0519 10.4144 21.7738 10.5994C20.4458 11.4826 19.2827 12.9105 18.5736 14.7051Z" fill="url(#paint13_linear_2732_71180)"/>
<path d="M21.1564 14.7727C19.3513 16.3956 18.1775 18.3931 17.7182 20.3462C17.622 20.7552 18.2274 21.4286 18.6443 21.3764C20.6352 21.1267 22.7459 20.1714 24.551 18.5485C26.3562 16.9256 27.53 14.9281 27.9893 12.9749C28.0855 12.5659 27.48 11.8925 27.0631 11.9448C25.0723 12.1944 22.9616 13.1498 21.1564 14.7727Z" fill="url(#paint14_linear_2732_71180)"/>
<path d="M27.1623 15.1948C26.5483 16.3904 25.6714 17.5419 24.551 18.5492C22.7459 20.1721 20.6352 21.1274 18.6443 21.3771C18.2274 21.4293 17.622 20.756 17.7182 20.3469C18.1775 18.3937 19.3513 16.3962 21.1564 14.7733C22.2194 13.8177 23.3884 13.0938 24.5763 12.6089L27.1623 15.1948Z" fill="url(#paint15_linear_2732_71180)"/>
<path d="M14.0004 27.9998C18.8223 27.9998 22.7312 24.0908 22.7312 19.2689C22.7312 14.447 18.8223 10.5381 14.0004 10.5381C9.17846 10.5381 5.26953 14.447 5.26953 19.2689C5.26953 24.0908 9.17846 27.9998 14.0004 27.9998Z" fill="url(#paint16_linear_2732_71180)"/>
<path d="M14.0001 26.2275C17.8435 26.2275 20.9592 23.1118 20.9592 19.2684C20.9592 15.425 17.8435 12.3093 14.0001 12.3093C10.1567 12.3093 7.04102 15.425 7.04102 19.2684C7.04102 23.1118 10.1567 26.2275 14.0001 26.2275Z" fill="url(#paint17_linear_2732_71180)"/>
<path d="M13.9979 25.2426C17.2975 25.2426 19.9723 22.5677 19.9723 19.2681C19.9723 15.9685 17.2975 13.2937 13.9979 13.2937C10.6983 13.2937 8.02344 15.9685 8.02344 19.2681C8.02344 22.5677 10.6983 25.2426 13.9979 25.2426Z" fill="url(#paint18_linear_2732_71180)"/>
<path d="M5.26953 19.2693C5.26953 24.0912 9.17844 28.0002 14.0004 28.0002C18.8223 28.0002 22.7312 24.0912 22.7312 19.2693C22.7312 19.2354 22.7303 19.2018 22.7299 19.168H5.27079C5.27041 19.2018 5.26953 19.2354 5.26953 19.2693Z" fill="url(#paint19_linear_2732_71180)"/>
<path d="M16.4493 27.6507C19.2004 26.8483 21.3896 24.7288 22.2885 22.0204L18.0362 17.768L17.0775 17.8151L14.4902 15.2278L11.3369 22.5383L16.4493 27.6507Z" fill="url(#paint20_linear_2732_71180)"/>
<path d="M17.5803 17.3718L15.8681 16.9581C15.7088 16.9196 15.5696 16.8231 15.4778 16.6873L14.4908 15.2283C14.3713 15.0519 14.1885 14.9572 14.0003 14.9419C13.8121 14.9572 13.6291 15.0519 13.5098 15.2283L12.5227 16.6873C12.431 16.8231 12.2918 16.9196 12.1324 16.9581L10.4202 17.3718C9.95575 17.484 9.76222 18.0384 10.0558 18.4153L11.1384 19.8049C11.2391 19.9342 11.288 20.0964 11.2754 20.2598L11.1397 22.016C11.1029 22.4924 11.5703 22.8478 12.0196 22.685L13.6757 22.0848C13.7803 22.0469 13.8919 22.0371 14.0003 22.0539C14.1086 22.0372 14.2202 22.0469 14.3248 22.0848L15.981 22.685C16.4302 22.8478 16.8976 22.4924 16.8608 22.016L16.7252 20.2598C16.7125 20.0964 16.7614 19.9342 16.8621 19.8049L17.9447 18.4153C18.2383 18.0384 18.0448 17.484 17.5803 17.3718Z" fill="url(#paint21_linear_2732_71180)"/>
<path d="M14.3246 22.0848L15.9807 22.685C16.4299 22.8478 16.8973 22.4924 16.8606 22.016L16.7249 20.2598C16.7123 20.0964 16.7611 19.9342 16.8618 19.8049L17.9444 18.4153C18.2381 18.0384 18.0445 17.484 17.58 17.3718L15.8678 16.9581C15.7085 16.9196 15.5694 16.8231 15.4775 16.6873L14.4905 15.2283C14.3711 15.0519 14.1882 14.9572 14 14.9419V22.0539C14.1084 22.0371 14.22 22.0469 14.3246 22.0848Z" fill="url(#paint22_linear_2732_71180)"/>
<path d="M17.5812 17.3711L15.869 16.9574C15.8105 16.9433 15.7549 16.9212 15.7032 16.8923L11.3384 22.5381C11.5096 22.7035 11.7679 22.7758 12.0205 22.6843L13.6766 22.0841C13.7812 22.0462 13.8929 22.0364 14.0012 22.0532C14.1096 22.0365 14.2211 22.0463 14.3258 22.0841L15.9819 22.6843C16.4311 22.8471 16.8985 22.4917 16.8617 22.0153L16.7261 20.2591C16.7134 20.0957 16.7623 19.9335 16.863 19.8042L17.9456 18.4147C18.2392 18.0376 18.0457 17.4833 17.5812 17.3711Z" fill="url(#paint23_linear_2732_71180)"/>
<path d="M10.4202 17.3711L12.1324 16.9574C12.1909 16.9433 12.2466 16.9212 12.2983 16.8923L16.6631 22.5381C16.4918 22.7035 16.2335 22.7758 15.981 22.6843L14.3248 22.0841C14.2202 22.0462 14.1086 22.0364 14.0003 22.0532C13.8919 22.0365 13.7803 22.0463 13.6757 22.0841L12.0196 22.6843C11.5704 22.8471 11.1029 22.4917 11.1397 22.0153L11.2754 20.2591C11.288 20.0957 11.2391 19.9335 11.1384 19.8042L10.0558 18.4147C9.76222 18.0376 9.95575 17.4833 10.4202 17.3711Z" fill="url(#paint24_linear_2732_71180)"/>
<path d="M9.96379 17.7693C9.88237 17.9746 9.90191 18.2193 10.0551 18.416L11.1378 19.8056C11.2384 19.9349 11.2873 20.0971 11.2747 20.2605L11.139 22.0167C11.1022 22.4931 11.5696 22.8485 12.0189 22.6857L13.675 22.0855C13.7796 22.0476 13.8913 22.0378 13.9996 22.0546C14.108 22.0379 14.2195 22.0476 14.3242 22.0855L15.9803 22.6857C16.4295 22.8485 16.8969 22.4931 16.8601 22.0167L16.7245 20.2605C16.7174 20.1698 16.73 20.0797 16.7592 19.9952L9.96379 17.7693Z" fill="url(#paint25_linear_2732_71180)"/>
<path d="M18.0375 17.7673C18.119 17.9727 18.0995 18.2174 17.9462 18.4141L16.8636 19.8036C16.7629 19.9329 16.714 20.0951 16.7267 20.2585L16.8623 22.0148C16.8991 22.4912 16.4317 22.8466 15.9825 22.6837L14.3263 22.0836C14.2217 22.0456 14.1101 22.0359 14.0018 22.0527C13.8934 22.0359 13.7818 22.0457 13.6772 22.0836L12.0211 22.6837C11.5718 22.8465 11.1044 22.4912 11.1412 22.0148L11.2769 20.2585C11.2839 20.1679 11.2713 20.0778 11.2421 19.9933L18.0375 17.7673Z" fill="url(#paint26_linear_2732_71180)"/>
<path d="M14.0006 10.5383C13.9644 10.5383 13.9285 10.5393 13.8923 10.5397L12.5449 11.8871L22.3812 21.7234C22.6088 20.9448 22.7315 20.1213 22.7315 19.2691C22.7315 14.4472 18.8226 10.5383 14.0006 10.5383Z" fill="url(#paint27_linear_2732_71180)"/>
<path d="M8.729 0.182373V4.79414L13.9996 10.0647L19.2702 4.79414V0.182373H8.729Z" fill="url(#paint28_linear_2732_71180)"/>
<path d="M8.729 0.182373V1.61762L13.982 6.87059C13.9917 6.8803 14.0075 6.8803 14.0172 6.87059L19.2702 1.61762V0.182373H8.729Z" fill="url(#paint29_linear_2732_71180)"/>
<path d="M8.729 0.182373V1.61762L13.982 6.87059C13.9917 6.8803 14.0075 6.8803 14.0172 6.87059L19.2702 1.61762V0.182373H8.729Z" fill="url(#paint30_linear_2732_71180)"/>
<path d="M13.9996 7.70149C13.7823 7.70149 13.565 7.61881 13.3997 7.45339L8.729 2.78271V4.79465L13.9996 10.0652L19.2702 4.79465V2.78271L14.5995 7.45339C14.4341 7.61875 14.2169 7.70149 13.9996 7.70149Z" fill="url(#paint31_linear_2732_71180)"/>
<path d="M13.9996 7.70149C13.7823 7.70149 13.565 7.61881 13.3997 7.45339L8.729 2.78271V4.79465L13.9996 10.0652L19.2702 4.79465V2.78271L14.5995 7.45339C14.4341 7.61875 14.2169 7.70149 13.9996 7.70149Z" fill="url(#paint32_linear_2732_71180)"/>
<path d="M13.9996 7.70149C14.2169 7.70149 14.4341 7.61881 14.5995 7.45339L19.2702 2.78271V4.79465L13.9996 10.0652L8.729 4.79465V2.78271L13.3997 7.45339C13.565 7.61875 13.7823 7.70149 13.9996 7.70149Z" fill="url(#paint33_linear_2732_71180)"/>
<path d="M13.4207 8.869L8.93558 4.38384C8.59925 4.04751 8.05391 4.04751 7.71758 4.38384C7.38125 4.72017 7.38125 5.26551 7.71758 5.60184L13.9987 11.8831L20.2799 5.60189C20.6162 5.26556 20.6162 4.72022 20.2799 4.38389C19.9435 4.04756 19.3982 4.04756 19.0619 4.38389L14.5767 8.86906C14.2574 9.18826 13.7399 9.18826 13.4207 8.869Z" fill="url(#paint34_linear_2732_71180)"/>
<path d="M7.71745 4.39405L13.3373 10.0139C13.7025 10.3791 14.2948 10.3791 14.66 10.0139L20.2798 4.39405C20.2814 4.3924 20.2828 4.39059 20.2844 4.38894C20.2828 4.3873 20.2814 4.38549 20.2798 4.38384C19.9435 4.04751 19.3981 4.04751 19.0618 4.38384L14.5766 8.869C14.2574 9.1882 13.7399 9.1882 13.4207 8.869L8.9355 4.38384C8.59917 4.04751 8.05383 4.04751 7.7175 4.38384C7.71586 4.38549 7.71454 4.3873 7.71289 4.38894C7.71448 4.39059 7.7158 4.3924 7.71745 4.39405Z" fill="url(#paint35_linear_2732_71180)"/>
<path d="M13.9988 11.883L18.4327 7.44922H15.9966L14.5768 8.86904C14.2576 9.18824 13.74 9.18824 13.4208 8.86904L12.001 7.44922H9.56494L13.9988 11.883Z" fill="url(#paint36_linear_2732_71180)"/>
<path d="M13.4478 11.3327L13.9968 11.8817L19.6202 6.2583H17.1841L14.5748 8.86763C14.2649 9.17755 13.7686 9.18562 13.4478 8.89382V11.3327Z" fill="url(#paint37_linear_2732_71180)"/>
<path d="M13.9991 12.4907C15.1361 12.4907 16.0579 11.569 16.0579 10.432C16.0579 9.29501 15.1361 8.37329 13.9991 8.37329C12.8621 8.37329 11.9404 9.29501 11.9404 10.432C11.9404 11.569 12.8621 12.4907 13.9991 12.4907Z" fill="url(#paint38_linear_2732_71180)"/>
<path d="M14.0001 11.6118C14.652 11.6118 15.1804 11.0834 15.1804 10.4315C15.1804 9.77965 14.652 9.25122 14.0001 9.25122C13.3483 9.25122 12.8198 9.77965 12.8198 10.4315C12.8198 11.0834 13.3483 11.6118 14.0001 11.6118Z" fill="url(#paint39_linear_2732_71180)"/>
<path d="M20.0661 2.04966H7.93253C7.5839 2.04966 7.30127 1.76702 7.30127 1.41839V0.631263C7.30127 0.282635 7.5839 0 7.93253 0H20.0661C20.4147 0 20.6973 0.282635 20.6973 0.631263V1.41845C20.6973 1.76708 20.4147 2.04966 20.0661 2.04966Z" fill="url(#paint40_linear_2732_71180)"/>
</g>
<defs>
<linearGradient id="paint0_linear_2732_71180" x1="3.99316" y1="19.9543" x2="5.80493" y2="22.4524" gradientUnits="userSpaceOnUse">
<stop stop-color="#FEF0AE"/>
<stop offset="1" stop-color="#FBC56D"/>
</linearGradient>
<linearGradient id="paint1_linear_2732_71180" x1="3.82818" y1="21.5564" x2="6.68309" y2="22.8741" gradientUnits="userSpaceOnUse">
<stop stop-color="#DC8758" stop-opacity="0"/>
<stop offset="0.9957" stop-color="#DC8758" stop-opacity="0.996"/>
<stop offset="1" stop-color="#DC8758"/>
</linearGradient>
<linearGradient id="paint2_linear_2732_71180" x1="2.13255" y1="17.8234" x2="5.12471" y2="20.0469" gradientUnits="userSpaceOnUse">
<stop stop-color="#FEF0AE"/>
<stop offset="1" stop-color="#FBC56D"/>
</linearGradient>
<linearGradient id="paint3_linear_2732_71180" x1="3.38695" y1="20.3105" x2="5.65621" y2="20.2739" gradientUnits="userSpaceOnUse">
<stop stop-color="#DC8758" stop-opacity="0"/>
<stop offset="0.9957" stop-color="#DC8758" stop-opacity="0.996"/>
<stop offset="1" stop-color="#DC8758"/>
</linearGradient>
<linearGradient id="paint4_linear_2732_71180" x1="8.14562" y1="12.7091" x2="7.45934" y2="15.8659" gradientUnits="userSpaceOnUse">
<stop stop-color="#FEF0AE"/>
<stop offset="1" stop-color="#FBC56D"/>
</linearGradient>
<linearGradient id="paint5_linear_2732_71180" x1="5.18014" y1="13.027" x2="6.937" y2="14.8204" gradientUnits="userSpaceOnUse">
<stop stop-color="#DC8758" stop-opacity="0"/>
<stop offset="0.9957" stop-color="#DC8758" stop-opacity="0.996"/>
<stop offset="1" stop-color="#DC8758"/>
</linearGradient>
<linearGradient id="paint6_linear_2732_71180" x1="4.12466" y1="13.4674" x2="5.63447" y2="18.1889" gradientUnits="userSpaceOnUse">
<stop stop-color="#FEF0AE"/>
<stop offset="1" stop-color="#FBC56D"/>
</linearGradient>
<linearGradient id="paint7_linear_2732_71180" x1="4.43007" y1="16.0391" x2="6.36992" y2="17.7227" gradientUnits="userSpaceOnUse">
<stop stop-color="#DC8758" stop-opacity="0"/>
<stop offset="0.9957" stop-color="#DC8758" stop-opacity="0.996"/>
<stop offset="1" stop-color="#DC8758"/>
</linearGradient>
<linearGradient id="paint8_linear_2732_71180" x1="24.0069" y1="19.9543" x2="22.1952" y2="22.4524" gradientUnits="userSpaceOnUse">
<stop stop-color="#FEF0AE"/>
<stop offset="1" stop-color="#FBC56D"/>
</linearGradient>
<linearGradient id="paint9_linear_2732_71180" x1="24.172" y1="21.5564" x2="21.3171" y2="22.8741" gradientUnits="userSpaceOnUse">
<stop stop-color="#DC8758" stop-opacity="0"/>
<stop offset="0.9957" stop-color="#DC8758" stop-opacity="0.996"/>
<stop offset="1" stop-color="#DC8758"/>
</linearGradient>
<linearGradient id="paint10_linear_2732_71180" x1="25.8654" y1="17.8234" x2="22.8732" y2="20.0469" gradientUnits="userSpaceOnUse">
<stop stop-color="#FEF0AE"/>
<stop offset="1" stop-color="#FBC56D"/>
</linearGradient>
<linearGradient id="paint11_linear_2732_71180" x1="24.611" y1="20.3105" x2="22.3417" y2="20.2739" gradientUnits="userSpaceOnUse">
<stop stop-color="#DC8758" stop-opacity="0"/>
<stop offset="0.9957" stop-color="#DC8758" stop-opacity="0.996"/>
<stop offset="1" stop-color="#DC8758"/>
</linearGradient>
<linearGradient id="paint12_linear_2732_71180" x1="19.8552" y1="12.7091" x2="20.5415" y2="15.8659" gradientUnits="userSpaceOnUse">
<stop stop-color="#FEF0AE"/>
<stop offset="1" stop-color="#FBC56D"/>
</linearGradient>
<linearGradient id="paint13_linear_2732_71180" x1="22.8207" y1="13.027" x2="21.0639" y2="14.8204" gradientUnits="userSpaceOnUse">
<stop stop-color="#DC8758" stop-opacity="0"/>
<stop offset="0.9957" stop-color="#DC8758" stop-opacity="0.996"/>
<stop offset="1" stop-color="#DC8758"/>
</linearGradient>
<linearGradient id="paint14_linear_2732_71180" x1="23.8748" y1="13.4674" x2="22.365" y2="18.1889" gradientUnits="userSpaceOnUse">
<stop stop-color="#FEF0AE"/>
<stop offset="1" stop-color="#FBC56D"/>
</linearGradient>
<linearGradient id="paint15_linear_2732_71180" x1="23.5706" y1="16.0391" x2="21.6308" y2="17.7227" gradientUnits="userSpaceOnUse">
<stop stop-color="#DC8758" stop-opacity="0"/>
<stop offset="0.9957" stop-color="#DC8758" stop-opacity="0.996"/>
<stop offset="1" stop-color="#DC8758"/>
</linearGradient>
<linearGradient id="paint16_linear_2732_71180" x1="8.61745" y1="13.886" x2="17.8254" y2="23.0939" gradientUnits="userSpaceOnUse">
<stop stop-color="#FEF0AE"/>
<stop offset="1" stop-color="#FBC56D"/>
</linearGradient>
<linearGradient id="paint17_linear_2732_71180" x1="18.52" y1="23.7883" x2="9.34838" y2="14.6167" gradientUnits="userSpaceOnUse">
<stop stop-color="#FEF0AE"/>
<stop offset="1" stop-color="#FBC56D"/>
</linearGradient>
<linearGradient id="paint18_linear_2732_71180" x1="9.65463" y1="14.9249" x2="16.8038" y2="22.0741" gradientUnits="userSpaceOnUse">
<stop stop-color="#FEF0AE"/>
<stop offset="1" stop-color="#FBC56D"/>
</linearGradient>
<linearGradient id="paint19_linear_2732_71180" x1="14.0004" y1="21.8238" x2="14.0004" y2="27.5545" gradientUnits="userSpaceOnUse">
<stop stop-color="#DC8758" stop-opacity="0"/>
<stop offset="0.9957" stop-color="#DC8758" stop-opacity="0.996"/>
<stop offset="1" stop-color="#DC8758"/>
</linearGradient>
<linearGradient id="paint20_linear_2732_71180" x1="19.2297" y1="23.8059" x2="12.0192" y2="19.2673" gradientUnits="userSpaceOnUse">
<stop stop-color="#DC8758" stop-opacity="0"/>
<stop offset="0.9957" stop-color="#DC8758" stop-opacity="0.996"/>
<stop offset="1" stop-color="#DC8758"/>
</linearGradient>
<linearGradient id="paint21_linear_2732_71180" x1="12.1816" y1="17.6094" x2="15.4612" y2="20.889" gradientUnits="userSpaceOnUse">
<stop stop-color="#FBC56D"/>
<stop offset="1" stop-color="#C5715A"/>
</linearGradient>
<linearGradient id="paint22_linear_2732_71180" x1="15.9651" y1="18.5036" x2="11.4322" y2="20.3775" gradientUnits="userSpaceOnUse">
<stop stop-color="#8C3D27" stop-opacity="0"/>
<stop offset="1" stop-color="#8C3D27"/>
</linearGradient>
<linearGradient id="paint23_linear_2732_71180" x1="14.7828" y1="20.1115" x2="12.3011" y2="19.0479" gradientUnits="userSpaceOnUse">
<stop stop-color="#8C3D27" stop-opacity="0"/>
<stop offset="1" stop-color="#8C3D27"/>
</linearGradient>
<linearGradient id="paint24_linear_2732_71180" x1="13.2187" y1="20.1115" x2="15.7004" y2="19.0479" gradientUnits="userSpaceOnUse">
<stop stop-color="#8C3D27" stop-opacity="0"/>
<stop offset="1" stop-color="#8C3D27"/>
</linearGradient>
<linearGradient id="paint25_linear_2732_71180" x1="13.2732" y1="20.2374" x2="14.8685" y2="17.6734" gradientUnits="userSpaceOnUse">
<stop stop-color="#8C3D27" stop-opacity="0"/>
<stop offset="1" stop-color="#8C3D27"/>
</linearGradient>
<linearGradient id="paint26_linear_2732_71180" x1="14.6052" y1="19.9116" x2="14.4723" y2="17.4047" gradientUnits="userSpaceOnUse">
<stop stop-color="#8C3D27" stop-opacity="0"/>
<stop offset="1" stop-color="#8C3D27"/>
</linearGradient>
<linearGradient id="paint27_linear_2732_71180" x1="18.303" y1="15.5807" x2="14.9357" y2="9.68795" gradientUnits="userSpaceOnUse">
<stop stop-color="#DC8758" stop-opacity="0"/>
<stop offset="0.9957" stop-color="#DC8758" stop-opacity="0.996"/>
<stop offset="1" stop-color="#DC8758"/>
</linearGradient>
<linearGradient id="paint28_linear_2732_71180" x1="14.3901" y1="3.11101" x2="16.5587" y2="6.56983" gradientUnits="userSpaceOnUse">
<stop stop-color="#F9F5F3"/>
<stop offset="1" stop-color="#D8E8F0"/>
</linearGradient>
<linearGradient id="paint29_linear_2732_71180" x1="12.227" y1="-1.13269" x2="18.9616" y2="6.59015" gradientUnits="userSpaceOnUse">
<stop stop-color="#FD4755"/>
<stop offset="1" stop-color="#A72B2B"/>
</linearGradient>
<linearGradient id="paint30_linear_2732_71180" x1="13.9996" y1="3.65037" x2="13.9996" y2="1.83673" gradientUnits="userSpaceOnUse">
<stop stop-color="#A72B2B" stop-opacity="0"/>
<stop offset="1" stop-color="#42210B"/>
</linearGradient>
<linearGradient id="paint31_linear_2732_71180" x1="10.7963" y1="0.115358" x2="17.5309" y2="7.8382" gradientUnits="userSpaceOnUse">
<stop stop-color="#FD4755"/>
<stop offset="1" stop-color="#A72B2B"/>
</linearGradient>
<linearGradient id="paint32_linear_2732_71180" x1="16.0856" y1="5.87463" x2="17.0228" y2="6.8118" gradientUnits="userSpaceOnUse">
<stop stop-color="#A72B2B" stop-opacity="0"/>
<stop offset="1" stop-color="#42210B"/>
</linearGradient>
<linearGradient id="paint33_linear_2732_71180" x1="11.9136" y1="5.87463" x2="10.9764" y2="6.8118" gradientUnits="userSpaceOnUse">
<stop stop-color="#A72B2B" stop-opacity="0"/>
<stop offset="1" stop-color="#42210B"/>
</linearGradient>
<linearGradient id="paint34_linear_2732_71180" x1="18.7579" y1="9.7521" x2="7.49973" y2="-1.5061" gradientUnits="userSpaceOnUse">
<stop stop-color="#FEF0AE"/>
<stop offset="1" stop-color="#FBC56D"/>
</linearGradient>
<linearGradient id="paint35_linear_2732_71180" x1="13.9986" y1="4.48453" x2="13.9986" y2="12.1729" gradientUnits="userSpaceOnUse">
<stop stop-color="#FEF0AE"/>
<stop offset="1" stop-color="#FBC56D"/>
</linearGradient>
<linearGradient id="paint36_linear_2732_71180" x1="13.9988" y1="8.94985" x2="13.9988" y2="11.4778" gradientUnits="userSpaceOnUse">
<stop stop-color="#DC8758" stop-opacity="0"/>
<stop offset="0.9957" stop-color="#DC8758" stop-opacity="0.996"/>
<stop offset="1" stop-color="#DC8758"/>
</linearGradient>
<linearGradient id="paint37_linear_2732_71180" x1="16.5918" y1="7.51715" x2="15.0546" y2="9.08185" gradientUnits="userSpaceOnUse">
<stop stop-color="#DC8758" stop-opacity="0"/>
<stop offset="0.9957" stop-color="#DC8758" stop-opacity="0.996"/>
<stop offset="1" stop-color="#DC8758"/>
</linearGradient>
<linearGradient id="paint38_linear_2732_71180" x1="12.8188" y1="9.25161" x2="15.7302" y2="12.1631" gradientUnits="userSpaceOnUse">
<stop stop-color="#FBC56D"/>
<stop offset="1" stop-color="#C5715A"/>
</linearGradient>
<linearGradient id="paint39_linear_2732_71180" x1="15.153" y1="11.5844" x2="12.4257" y2="8.85708" gradientUnits="userSpaceOnUse">
<stop stop-color="#FBC56D"/>
<stop offset="1" stop-color="#C5715A"/>
</linearGradient>
<linearGradient id="paint40_linear_2732_71180" x1="13.9993" y1="0.622204" x2="13.9993" y2="1.76625" gradientUnits="userSpaceOnUse">
<stop stop-color="#FEF0AE"/>
<stop offset="1" stop-color="#FBC56D"/>
</linearGradient>
<clipPath id="clip0_2732_71180">
<rect width="28" height="28" fill="white"/>
</clipPath>
</defs>
</svg>
