<svg width="14" height="14" viewBox="0 0 14 14" fill="none" xmlns="http://www.w3.org/2000/svg">
<path d="M7.00668 0.340666C7.5252 0.340697 8.02596 0.52958 8.41534 0.871999L8.51801 0.968666L8.98334 1.434C9.11105 1.56087 9.27782 1.64097 9.45668 1.66133L9.54668 1.66667H10.2133C10.7582 1.66664 11.2823 1.87505 11.6784 2.24916C12.0744 2.62327 12.3124 3.13474 12.3433 3.67867L12.3467 3.8V4.46667C12.3467 4.64667 12.408 4.822 12.5187 4.962L12.5787 5.02867L13.0433 5.494C13.4285 5.87696 13.6531 6.39241 13.6713 6.93524C13.6895 7.47808 13.5 8.00742 13.1413 8.41533L13.0447 8.518L12.5793 8.98333C12.4525 9.11104 12.3724 9.2778 12.352 9.45667L12.3467 9.54667V10.2133C12.3467 10.7581 12.1383 11.2823 11.7642 11.6784C11.3901 12.0744 10.8786 12.3123 10.3347 12.3433L10.2133 12.3467H9.54668C9.36693 12.3467 9.19244 12.4073 9.05134 12.5187L8.98468 12.5787L8.51934 13.0433C8.13638 13.4285 7.62093 13.6531 7.0781 13.6713C6.53526 13.6895 6.00593 13.4999 5.59801 13.1413L5.49534 13.0447L5.03001 12.5793C4.9023 12.4525 4.73554 12.3724 4.55668 12.352L4.46668 12.3467H3.80001C3.2552 12.3467 2.73102 12.1383 2.33496 11.7642C1.93891 11.3901 1.701 10.8786 1.67001 10.3347L1.66668 10.2133V9.54667C1.66662 9.36692 1.60603 9.19243 1.49468 9.05133L1.43468 8.98467L0.97001 8.51933C0.584864 8.13637 0.360292 7.62092 0.342082 7.07809C0.323872 6.53525 0.513396 6.00591 0.87201 5.598L0.968677 5.49533L1.43401 5.03C1.56088 4.90229 1.64098 4.73553 1.66134 4.55667L1.66668 4.46667V3.8L1.67001 3.67867C1.69978 3.15563 1.92096 2.66183 2.2914 2.29139C2.66184 1.92095 3.15564 1.69977 3.67868 1.67L3.80001 1.66667H4.46668C4.64642 1.66661 4.82091 1.60602 4.96201 1.49467L5.02868 1.43467L5.49401 0.969999C5.69223 0.770592 5.92792 0.612336 6.18752 0.504332C6.44712 0.396328 6.72551 0.340707 7.00668 0.340666ZM9.47134 5.19533C9.34632 5.07035 9.17679 5.00014 9.00001 5.00014C8.82323 5.00014 8.6537 5.07035 8.52868 5.19533L6.33334 7.39L5.47134 6.52867L5.40868 6.47333C5.27468 6.36972 5.10627 6.321 4.93766 6.33707C4.76904 6.35313 4.61286 6.43277 4.50084 6.55981C4.38882 6.68686 4.32935 6.85178 4.33452 7.02108C4.33969 7.19038 4.40911 7.35136 4.52868 7.47133L5.86201 8.80467L5.92468 8.86C6.05295 8.9595 6.21311 9.00878 6.37513 8.99859C6.53715 8.9884 6.68988 8.91945 6.80468 8.80467L9.47134 6.138L9.52668 6.07533C9.62618 5.94706 9.67546 5.7869 9.66527 5.62488C9.65508 5.46286 9.58613 5.31013 9.47134 5.19533Z" fill="#4D956A"/>
</svg>
