<svg width="28" height="28" viewBox="0 0 28 28" fill="none" xmlns="http://www.w3.org/2000/svg">
<path d="M19.5096 4.43299L19.52 4.43914L19.5305 4.44504L25.1173 7.58144L25.0401 13.988L25.0399 14L25.0401 14.012L25.1173 20.4186L19.5305 23.555L19.52 23.5609L19.5096 23.567L14 26.8371L8.4904 23.567L8.48004 23.5609L8.46953 23.555L2.88272 20.4186L2.95993 14.012L2.96007 14L2.95993 13.988L2.88272 7.58144L8.46953 4.44504L8.48004 4.43914L8.4904 4.43299L14 1.16287L19.5096 4.43299Z" stroke="#E2E7EB" stroke-width="2"/>
<path d="M11.667 13.4167V11.0833C11.667 10.4645 11.9128 9.871 12.3504 9.43342C12.788 8.99583 13.3815 8.75 14.0003 8.75C14.6192 8.75 15.2127 8.99583 15.6502 9.43342C16.0878 9.871 16.3337 10.4645 16.3337 11.0833V13.4167M9.91699 14.5833C9.91699 14.2739 10.0399 13.9772 10.2587 13.7584C10.4775 13.5396 10.7742 13.4167 11.0837 13.4167H16.917C17.2264 13.4167 17.5232 13.5396 17.742 13.7584C17.9607 13.9772 18.0837 14.2739 18.0837 14.5833V18.0833C18.0837 18.3928 17.9607 18.6895 17.742 18.9083C17.5232 19.1271 17.2264 19.25 16.917 19.25H11.0837C10.7742 19.25 10.4775 19.1271 10.2587 18.9083C10.0399 18.6895 9.91699 18.3928 9.91699 18.0833V14.5833ZM13.417 16.3333C13.417 16.488 13.4785 16.6364 13.5878 16.7458C13.6972 16.8552 13.8456 16.9167 14.0003 16.9167C14.155 16.9167 14.3034 16.8552 14.4128 16.7458C14.5222 16.6364 14.5837 16.488 14.5837 16.3333C14.5837 16.1786 14.5222 16.0303 14.4128 15.9209C14.3034 15.8115 14.155 15.75 14.0003 15.75C13.8456 15.75 13.6972 15.8115 13.5878 15.9209C13.4785 16.0303 13.417 16.1786 13.417 16.3333Z" stroke="#90A0AA" stroke-linecap="round" stroke-linejoin="round"/>
</svg>
