<svg width="104" height="90" viewBox="0 0 104 90" fill="none" xmlns="http://www.w3.org/2000/svg">
<path d="M85.7156 56.2828C86.5481 56.4214 87.3909 56.4912 88.2351 56.4915C91.3421 56.4915 94.3663 55.5382 96.9466 53.7141C100.222 51.3992 102.392 47.9585 103.056 44.0258L104 38.4408L98.3651 37.5054C94.7248 36.9014 91.1677 37.6545 88.2164 39.3876C88.2156 39.0013 88.214 38.6159 88.2109 38.2311C95.6773 37.2757 101.023 30.5241 100.154 23.0899L99.5277 17.7392L94.1297 18.3595C90.8868 18.7323 88.0365 20.1992 85.9054 22.342C85.8235 22.1321 85.7389 21.9233 85.6513 21.7156C91.2967 17.8613 92.9411 10.2226 89.2746 4.40272L86.5009 0L82.0599 2.74946C79.1344 4.56007 77.0956 7.39132 76.3189 10.7218C75.5421 14.0523 76.1201 17.4836 77.9468 20.3829L79.3354 22.5874C81.6737 26.9957 82.1194 32.0671 82.1194 39.8574C82.1194 48.6701 79.8204 55.5041 75.0911 60.7502C70.875 65.4271 65.3322 68.3214 59.972 71.1207C57.235 72.5499 54.4669 73.9958 51.9998 75.6785C49.5327 73.996 46.7645 72.5501 44.0275 71.1207C38.6673 68.3214 33.1248 65.4271 28.9084 60.7502C24.1791 55.5041 21.8801 48.6701 21.8801 39.8574C21.8801 32.0682 22.3257 26.9968 24.6631 22.5892L26.0527 20.3831C27.8794 17.4833 28.4576 14.0523 27.6806 10.7218C26.9038 7.39132 24.8649 4.56007 21.9399 2.74966L17.4984 0.000201359L14.725 4.40292C11.0595 10.2216 12.7018 17.8579 18.3433 21.7132C18.2569 21.9167 18.1724 22.1216 18.0911 22.3285C15.8929 20.118 13.0249 18.7226 9.86982 18.3599L4.4718 17.7396L3.84598 23.0903C2.97646 30.5249 8.32265 37.2768 15.7898 38.2317C15.7866 38.6175 15.7847 39.0032 15.7839 39.389C12.8325 37.6553 9.2747 36.902 5.63421 37.5058L0 38.441L0.943506 44.026C1.60794 47.9587 3.77748 51.3994 7.05272 53.7143C9.63364 55.5388 12.6571 56.4917 15.7644 56.4917C16.6002 56.4917 17.4429 56.4226 18.2837 56.283L18.835 56.1915C18.9237 56.3973 19.0146 56.6022 19.1077 56.806C15.8532 56.6801 12.6595 57.5944 9.93466 59.4652L5.22546 62.6984L8.48729 67.3663C10.7885 70.6595 14.2459 72.8672 18.2222 73.5828C19.1246 73.7456 20.0399 73.8277 20.9571 73.8282C24.0062 73.8282 26.9806 72.9129 29.5404 71.1553L30.7123 70.3506C30.9061 70.4882 31.1009 70.6244 31.2967 70.7592C27.6962 72.1518 24.7844 74.7812 23.0448 78.2327L20.4407 83.399L25.6527 85.9803C27.8808 87.0839 30.2507 87.6063 32.5871 87.6063C38.2169 87.6063 43.647 84.5696 46.4129 79.3163C46.6914 79.4798 46.9629 79.6428 47.2278 79.8054C44.934 82.457 43.4712 85.7157 43.4712 90H49.5688C49.5688 87.363 50.4083 85.3388 52.0002 83.5519C53.5919 85.3388 54.4315 87.363 54.4315 90H60.5291C60.5291 85.7155 59.0663 82.457 56.7726 79.8054C57.0426 79.6399 57.3143 79.4769 57.5874 79.3165C60.3535 84.5704 65.7828 87.6065 71.4132 87.6065C73.7488 87.6065 76.1197 87.0837 78.3474 85.9805L83.5592 83.3992L80.9552 78.2329C79.1635 74.678 76.1647 72.1083 72.6953 70.7649C72.8938 70.6282 73.0913 70.4902 73.2878 70.3508L74.4598 71.1555C77.0198 72.9131 79.9936 73.8284 83.043 73.8284C83.9509 73.8284 84.8658 73.7472 85.778 73.583C89.7542 72.8672 93.2116 70.6595 95.513 67.3663L98.7745 62.6986L94.0657 59.4654C91.3408 57.5948 88.1473 56.6801 84.8926 56.806C84.9857 56.6027 85.0759 56.3977 85.1652 56.1917L85.7156 56.2828Z" fill="#F4364C" fill-opacity="0.1"/>
<mask id="mask0_2312_41062" style="mask-type:alpha" maskUnits="userSpaceOnUse" x="0" y="0" width="104" height="90">
<path d="M85.7156 56.2828C86.5481 56.4214 87.3909 56.4912 88.2351 56.4915C91.3421 56.4915 94.3663 55.5382 96.9466 53.7141C100.222 51.3992 102.392 47.9585 103.056 44.0258L104 38.4408L98.3651 37.5054C94.7248 36.9014 91.1677 37.6545 88.2164 39.3876C88.2156 39.0013 88.214 38.6159 88.2109 38.2311C95.6773 37.2757 101.023 30.5241 100.154 23.0899L99.5277 17.7392L94.1297 18.3595C90.8868 18.7323 88.0365 20.1992 85.9054 22.342C85.8235 22.1321 85.7389 21.9233 85.6513 21.7156C91.2967 17.8613 92.9411 10.2226 89.2746 4.40272L86.5009 0L82.0599 2.74946C79.1344 4.56007 77.0956 7.39132 76.3189 10.7218C75.5421 14.0523 76.1201 17.4836 77.9468 20.3829L79.3354 22.5874C81.6737 26.9957 82.1194 32.0671 82.1194 39.8574C82.1194 48.6701 79.8204 55.5041 75.0911 60.7502C70.875 65.4271 65.3322 68.3214 59.972 71.1207C57.235 72.5499 54.4669 73.9958 51.9998 75.6785C49.5327 73.996 46.7645 72.5501 44.0275 71.1207C38.6673 68.3214 33.1248 65.4271 28.9084 60.7502C24.1791 55.5041 21.8801 48.6701 21.8801 39.8574C21.8801 32.0682 22.3257 26.9968 24.6631 22.5892L26.0527 20.3831C27.8794 17.4833 28.4576 14.0523 27.6806 10.7218C26.9038 7.39132 24.8649 4.56007 21.9399 2.74966L17.4984 0.000201359L14.725 4.40292C11.0595 10.2216 12.7018 17.8579 18.3433 21.7132C18.2569 21.9167 18.1724 22.1216 18.0911 22.3285C15.8929 20.118 13.0249 18.7226 9.86982 18.3599L4.4718 17.7396L3.84598 23.0903C2.97646 30.5249 8.32265 37.2768 15.7898 38.2317C15.7866 38.6175 15.7847 39.0032 15.7839 39.389C12.8325 37.6553 9.2747 36.902 5.63421 37.5058L0 38.441L0.943506 44.026C1.60794 47.9587 3.77748 51.3994 7.05272 53.7143C9.63364 55.5388 12.6571 56.4917 15.7644 56.4917C16.6002 56.4917 17.4429 56.4226 18.2837 56.283L18.835 56.1915C18.9237 56.3973 19.0146 56.6022 19.1077 56.806C15.8532 56.6801 12.6595 57.5944 9.93466 59.4652L5.22546 62.6984L8.48729 67.3663C10.7885 70.6595 14.2459 72.8672 18.2222 73.5828C19.1246 73.7456 20.0399 73.8277 20.9571 73.8282C24.0062 73.8282 26.9806 72.9129 29.5404 71.1553L30.7123 70.3506C30.9061 70.4882 31.1009 70.6244 31.2967 70.7592C27.6962 72.1518 24.7844 74.7812 23.0448 78.2327L20.4407 83.399L25.6527 85.9803C27.8808 87.0839 30.2507 87.6063 32.5871 87.6063C38.2169 87.6063 43.647 84.5696 46.4129 79.3163C46.6914 79.4798 46.9629 79.6428 47.2278 79.8054C44.934 82.457 43.4712 85.7157 43.4712 90H49.5688C49.5688 87.363 50.4083 85.3388 52.0002 83.5519C53.5919 85.3388 54.4315 87.363 54.4315 90H60.5291C60.5291 85.7155 59.0663 82.457 56.7726 79.8054C57.0426 79.6399 57.3143 79.4769 57.5874 79.3165C60.3535 84.5704 65.7828 87.6065 71.4132 87.6065C73.7488 87.6065 76.1197 87.0837 78.3474 85.9805L83.5592 83.3992L80.9552 78.2329C79.1635 74.678 76.1647 72.1083 72.6953 70.7649C72.8938 70.6282 73.0913 70.4902 73.2878 70.3508L74.4598 71.1555C77.0198 72.9131 79.9936 73.8284 83.043 73.8284C83.9509 73.8284 84.8658 73.7472 85.778 73.583C89.7542 72.8672 93.2116 70.6595 95.513 67.3663L98.7745 62.6986L94.0657 59.4654C91.3408 57.5948 88.1473 56.6801 84.8926 56.806C84.9857 56.6027 85.0759 56.3977 85.1652 56.1917L85.7156 56.2828Z" fill="#4D956A"/>
</mask>
<g mask="url(#mask0_2312_41062)">
<rect x="-4.21582" y="15.9849" width="112.432" height="75.4119" fill="#F4364C"/>
</g>
</svg>
