<svg width="16" height="16" viewBox="0 0 16 16" fill="none" xmlns="http://www.w3.org/2000/svg">
<path d="M8 5.75H8.0075M7.25 8H8V11H8.75M13.9062 3.70219C14.4312 4.00069 14.7537 4.55944 14.75 5.16319V10.6262C14.75 11.2329 14.4177 11.7924 13.8815 12.0872L8.819 15.2897C8.56802 15.4275 8.28632 15.4997 8 15.4997C7.71368 15.4997 7.43198 15.4275 7.181 15.2897L2.1185 12.0872C1.85612 11.9438 1.63709 11.7326 1.48431 11.4755C1.33152 11.2185 1.2506 10.9252 1.25 10.6262V5.16244C1.25 4.55569 1.58225 3.99694 2.1185 3.70219L7.181 0.717192C7.4394 0.57472 7.72967 0.5 8.02475 0.5C8.31983 0.5 8.6101 0.57472 8.8685 0.717192L13.931 3.70219H13.9062Z" stroke="#4B6A7E" stroke-linecap="round" stroke-linejoin="round"/>
</svg>
