<svg width="32" height="28" viewBox="0 0 32 28" fill="none" xmlns="http://www.w3.org/2000/svg">
<path d="M16.0003 21C13.3482 21 10.8046 19.9464 8.92926 18.0711C7.05389 16.1957 6.00033 13.6522 6.00033 11C6.00033 8.34783 7.05389 5.8043 8.92926 3.92893C10.8046 2.05357 13.3482 1 16.0003 1C18.6525 1 21.196 2.05357 23.0714 3.92893C24.9468 5.8043 26.0003 8.34783 26.0003 11C26.0003 13.6522 24.9468 16.1957 23.0714 18.0711C21.196 19.9464 18.6525 21 16.0003 21ZM16.0003 21L21.667 30.8167L24.3303 25.4283L30.327 25.815L24.6603 16M7.33757 16L1.6709 25.8167L7.66757 25.4283L10.3309 30.815L15.9976 21" stroke="url(#paint0_linear_2732_70646)" stroke-width="2" stroke-linecap="round" stroke-linejoin="round"/>
<defs>
<linearGradient id="paint0_linear_2732_70646" x1="1.38732" y1="0.999861" x2="30.3762" y2="1.04776" gradientUnits="userSpaceOnUse">
<stop stop-color="#043785"/>
<stop offset="1" stop-color="#1F55A6"/>
</linearGradient>
</defs>
</svg>
