<svg width="23" height="22" viewBox="0 0 23 22" fill="none" xmlns="http://www.w3.org/2000/svg">
<path opacity="0.4" d="M15.4785 1.83325H7.531C4.4235 1.83325 2.3335 4.01492 2.3335 7.25992V14.7491C2.3335 17.9849 4.4235 20.1666 7.531 20.1666H15.4785C18.586 20.1666 20.6668 17.9849 20.6668 14.7491V7.25992C20.6668 4.01492 18.586 1.83325 15.4785 1.83325Z" fill="#36454F"/>
<path fill-rule="evenodd" clip-rule="evenodd" d="M10.6975 7.50692C10.6975 7.94875 11.0559 8.309 11.495 8.309C11.9469 8.309 12.3062 7.94875 12.3062 7.50692C12.3062 7.06508 11.9469 6.70483 11.5041 6.70483C11.0595 6.70483 10.6975 7.06508 10.6975 7.50692ZM12.297 10.4153C12.297 9.97348 11.9368 9.61323 11.495 9.61323C11.0531 9.61323 10.6929 9.97348 10.6929 10.4153V14.467C10.6929 14.9088 11.0531 15.2691 11.495 15.2691C11.9368 15.2691 12.297 14.9088 12.297 14.467V10.4153Z" fill="#36454F"/>
</svg>
