<svg width="30" height="22" viewBox="0 0 30 22" fill="none" xmlns="http://www.w3.org/2000/svg">
<g clip-path="url(#clip0_2075_50274)">
<path d="M0 0H30V22H0V0Z" fill="#012169"/>
<path d="M3.51562 0L14.9531 8.29583L26.3438 0H30V2.84167L18.75 11.0458L30 19.2042V22H26.25L15 13.7958L3.79688 22H0V19.25L11.2031 11.0917L0 2.93333V0H3.51562Z" fill="white"/>
<path d="M19.875 12.8792L30 20.1667V22L17.2969 12.8792H19.875ZM11.25 13.7958L11.5312 15.4L2.53125 22H0L11.25 13.7958ZM30 0V0.1375L18.3281 8.75417L18.4219 6.7375L27.6562 0H30ZM0 0L11.2031 8.06667H8.39062L0 1.925V0Z" fill="#C8102E"/>
<path d="M11.2969 0V22H18.7969V0H11.2969ZM0 7.33333V14.6667H30V7.33333H0Z" fill="white"/>
<path d="M0 8.84583V13.2458H30V8.84583H0ZM12.7969 0V22H17.2969V0H12.7969Z" fill="#C8102E"/>
</g>
<defs>
<clipPath id="clip0_2075_50274">
<rect width="30" height="22" fill="white"/>
</clipPath>
</defs>
</svg>
