<svg width="17" height="16" viewBox="0 0 17 16" fill="none" xmlns="http://www.w3.org/2000/svg">
<mask id="mask0_2104_5767" style="mask-type:luminance" maskUnits="userSpaceOnUse" x="0" y="0" width="17" height="16">
<path d="M0.5 -6.10352e-05H16.5001V16H0.5V-6.10352e-05Z" fill="white"/>
</mask>
<g mask="url(#mask0_2104_5767)">
<path d="M10.375 8.96872C10.375 8.41644 9.92732 7.96872 9.37504 7.96872H7.62502C7.07274 7.96872 6.62502 8.41644 6.62502 8.96872V14.5313C6.62502 15.0835 7.07274 15.5312 7.62502 15.5312H9.37504C9.92732 15.5312 10.375 15.0835 10.375 14.5313V8.96872ZM16.0001 12.7187C16.0001 12.1665 15.5523 11.7187 15.0001 11.7187H13.25C12.6978 11.7187 12.25 12.1665 12.25 12.7187V14.5312C12.25 15.0835 12.6978 15.5312 13.25 15.5312H15.0001C15.5523 15.5312 16.0001 15.0835 16.0001 14.5312V12.7187ZM1 10.8437C1 10.2914 1.44772 9.84373 2 9.84373H3.75001C4.3023 9.84373 4.75001 10.2914 4.75001 10.8437V14.5312C4.75001 15.0835 4.3023 15.5312 3.75001 15.5312H2C1.44772 15.5312 1 15.0835 1 14.5313V10.8437Z" stroke="#36454F" stroke-miterlimit="10" stroke-linecap="round" stroke-linejoin="round"/>
<path d="M8.50001 2.96874C7.46447 2.96874 6.625 3.80821 6.625 4.84375V5.78125H10.375V4.84375C10.375 3.80821 9.53554 2.96874 8.50001 2.96874Z" stroke="#36454F" stroke-miterlimit="10" stroke-linecap="round" stroke-linejoin="round"/>
<path d="M9.75001 1.71875C9.75001 1.02837 9.19038 0.46874 8.5 0.46874C7.80963 0.46874 7.25 1.02837 7.25 1.71875C7.25 2.40912 7.80963 2.96875 8.5 2.96875C9.19038 2.96875 9.75001 2.40912 9.75001 1.71875Z" stroke="#36454F" stroke-miterlimit="10" stroke-linecap="round" stroke-linejoin="round"/>
<path d="M2.87501 4.84374C1.83947 4.84374 1 5.68321 1 6.71875V7.65625H4.75001V6.71875C4.75001 5.68321 3.91054 4.84374 2.87501 4.84374Z" stroke="#36454F" stroke-miterlimit="10" stroke-linecap="round" stroke-linejoin="round"/>
<path d="M4.12501 3.59375C4.12501 2.90337 3.56538 2.34374 2.875 2.34374C2.18463 2.34374 1.625 2.90337 1.625 3.59375C1.625 4.28412 2.18463 4.84375 2.875 4.84375C3.56538 4.84375 4.12501 4.28412 4.12501 3.59375Z" stroke="#36454F" stroke-miterlimit="10" stroke-linecap="round" stroke-linejoin="round"/>
<path d="M14.125 6.71874C13.0895 6.71874 12.25 7.55821 12.25 8.59375V9.53125H16V8.59375C16 7.55821 15.1605 6.71874 14.125 6.71874Z" stroke="#36454F" stroke-miterlimit="10" stroke-linecap="round" stroke-linejoin="round"/>
<path d="M15.375 5.46875C15.375 4.77837 14.8154 4.21874 14.125 4.21874C13.4346 4.21874 12.875 4.77837 12.875 5.46875C12.875 6.15912 13.4346 6.71875 14.125 6.71875C14.8154 6.71875 15.375 6.15912 15.375 5.46875Z" stroke="#36454F" stroke-miterlimit="10" stroke-linecap="round" stroke-linejoin="round"/>
</g>
</svg>
