<svg width="14" height="12" viewBox="0 0 14 12" fill="none" xmlns="http://www.w3.org/2000/svg">
<path d="M8.12227 4.40337L8.3966 3.71764L9.16794 1.78964L9.16817 1.78906C9.24197 1.60525 9.26018 1.40382 9.22053 1.20975C9.18089 1.01578 9.0852 0.837717 8.94532 0.697627C8.87902 0.631434 8.79911 0.580454 8.71114 0.548222C8.62311 0.515968 8.52911 0.503261 8.43568 0.510985C8.34224 0.518709 8.25161 0.546677 8.17007 0.592949C8.08853 0.639221 8.01804 0.702687 7.96349 0.778938L8.12227 4.40337ZM8.12227 4.40337H8.86083M8.12227 4.40337H8.86083M8.86083 4.40337L12.3841 4.40336L8.86083 4.40337ZM4.90718 11.0473L4.9073 11.0474C5.04901 11.1898 5.21757 11.3028 5.40322 11.3797C5.58886 11.4566 5.78791 11.4959 5.98885 11.4954L5.99016 11.4954L10.0071 11.4954C10.2277 11.4952 10.4435 11.4311 10.6285 11.3109C10.8134 11.1908 10.9595 11.0197 11.0493 10.8183C11.0493 10.8183 11.0493 10.8183 11.0493 10.8183C11.0493 10.8182 11.0494 10.8181 11.0494 10.818L13.0199 6.3843L13.0202 6.38374C13.1175 6.16547 13.1675 5.92905 13.1668 5.69006L13.1668 5.6887L13.1668 5.18655C13.1666 4.97897 13.0841 4.77995 12.9373 4.63314C12.7907 4.48638 12.5918 4.40376 12.3843 4.40337L4.90718 11.0473ZM4.90718 11.0473L4.21883 10.3558V5.54047L4.90718 11.0473ZM4.16686 5.59245L4.16705 5.59225M4.16686 5.59245L4.1668 5.5925L4.16705 5.59225M4.16686 5.59245C4.16692 5.59238 4.16699 5.59232 4.16705 5.59225M4.16686 5.59245L4.16705 5.59225M4.21883 10.4283V10.428V10.4283ZM1.02817 5.49937C1.15282 5.37473 1.32188 5.3047 1.49816 5.3047C1.67444 5.3047 1.8435 5.37473 1.96815 5.49937C2.0928 5.62402 2.16283 5.79309 2.16283 5.96937V10.3487C2.16283 10.525 2.0928 10.694 1.96815 10.8187C1.8435 10.9433 1.67444 11.0134 1.49816 11.0134C1.32188 11.0134 1.15282 10.9433 1.02817 10.8187C0.903523 10.694 0.833496 10.525 0.833496 10.3487V5.96937C0.833496 5.79309 0.903523 5.62402 1.02817 5.49937Z" stroke="#36454F"/>
</svg>
