<svg width="102" height="19" viewBox="0 0 102 19" fill="none" xmlns="http://www.w3.org/2000/svg">
<path fill-rule="evenodd" clip-rule="evenodd" d="M97.0126 9.83176C97.0126 8.66105 96.7442 7.68584 96.2068 6.90613C95.593 5.99533 94.7363 5.54087 93.6365 5.54087C92.5115 5.54087 91.6417 5.98274 91.028 6.8665C90.4651 7.64753 90.1837 8.63533 90.1837 9.83176C90.1837 10.9758 90.4522 11.951 90.9896 12.7574C91.578 13.6682 92.4092 14.136 93.4834 14.1617C93.8666 14.1617 94.5195 13.9538 95.4399 13.5377C96.4883 12.7839 97.0126 11.5482 97.0126 9.83176ZM102 9.83176C102 12.381 101.232 14.5262 99.6981 16.2685C98.1123 18.089 96.0921 19 93.6365 19C91.0788 19 89.0326 18.1281 87.4983 16.3857C85.964 14.6434 85.1965 12.4586 85.1965 9.83176C85.1965 7.23082 85.964 5.04585 87.4983 3.27778C89.0326 1.50952 91.0788 0.625 93.6365 0.625C96.0921 0.625 98.0994 1.52867 99.6597 3.33674C101.22 5.14387 102 7.30894 102 9.83176ZM84.622 15.5662C84.622 16.7369 83.8551 17.6471 82.3202 18.2976C81.1442 18.7654 79.8777 19 78.522 19C76.1949 19 74.2385 18.089 72.6527 16.2685C71.0671 14.4479 70.2741 12.3286 70.2741 9.90986C70.2741 8.76583 70.4787 7.56865 70.8877 6.32058C71.5016 4.52584 72.5251 3.12791 73.957 2.12698C75.3896 1.12529 77.0646 0.625 78.9826 0.625C80.313 0.625 81.5019 0.872144 82.5501 1.36566C83.9313 2.01637 84.622 2.9266 84.622 4.09712C84.622 5.50162 83.9958 6.2556 82.7365 6.35964C82.6336 6.38537 82.5442 6.41128 82.4674 6.43776C82.1032 6.38537 81.5403 6.22312 80.7736 5.95025C79.9996 5.6772 79.3983 5.54087 78.9573 5.54087C77.7813 5.54087 76.8535 5.98274 76.1883 6.8665C75.5682 7.64753 75.2612 8.66104 75.2612 9.90986C75.2612 11.8862 75.9519 13.1998 77.3395 13.8503C77.806 14.0578 78.2797 14.1617 78.7656 14.1617C79.4112 14.1617 80.2042 14.006 81.1566 13.6941C81.8986 13.4336 82.3398 13.3039 82.4674 13.3039C83.0558 13.3039 83.5607 13.5311 83.9893 13.9869C84.4115 14.4421 84.622 14.9686 84.622 15.5662ZM68.8135 16.0738C68.8135 16.8284 68.5836 17.4516 68.123 17.9467C67.663 18.4402 67.0617 18.6873 66.3196 18.6873C65.6037 18.6873 65.0088 18.4402 64.5359 17.9467C64.0627 17.4516 63.8264 16.8284 63.8264 16.0738V8.03701C63.8264 7.17917 63.6212 6.47683 63.2127 5.93036C62.7521 5.2804 62.1253 4.95513 61.3325 4.95513C60.5395 4.95513 59.9258 5.26124 59.4907 5.87195C59.0562 6.48359 58.8385 7.2049 58.8385 8.03701V16.0738C58.8385 16.8284 58.6086 17.4516 58.148 17.9467C57.688 18.4402 57.0874 18.6873 56.3452 18.6873C55.6286 18.6873 55.0345 18.4402 54.5614 17.9467C54.0885 17.4516 53.8513 16.8284 53.8513 16.0738V8.03701C53.8513 7.2049 53.6343 6.48359 53.1993 5.87195C52.7647 5.26124 52.151 4.95513 51.3575 4.95513C50.5645 4.95513 49.9451 5.26124 49.4974 5.87195C49.0498 6.48359 48.8258 7.2049 48.8258 8.03701V16.0738C48.8258 16.8284 48.5959 17.4516 48.1351 17.9467C47.6745 18.4402 47.074 18.6873 46.3325 18.6873C45.6158 18.6873 45.0211 18.4402 44.548 17.9467C44.0745 17.4516 43.8386 16.8284 43.8386 16.0738V3.62875C43.8386 2.90068 44.0817 2.27665 44.5676 1.75665C45.0529 1.2359 45.642 0.976177 46.3325 0.976177C47.6108 0.976177 48.442 1.5221 48.8258 2.61449C49.6954 1.28829 51.1405 0.625 53.1608 0.625C55.207 0.625 56.742 1.33994 57.7642 2.77017C58.8645 1.99045 59.6444 1.48303 60.105 1.24923C60.9487 0.833079 61.8568 0.625 62.8289 0.625C64.6446 0.625 66.0962 1.1651 67.1828 2.2436C68.2702 3.32341 68.8135 4.78613 68.8135 6.63251V16.0738ZM37.325 8.03701C37.325 7.23082 36.9797 6.51588 36.2892 5.89184C35.5985 5.26724 34.8564 4.95513 34.0636 4.95513C33.2708 4.95513 32.5417 5.27382 31.8765 5.91119C31.2121 6.54837 30.8798 7.2573 30.8798 8.03701H37.325ZM42.3121 9.28584C42.3121 10.1439 42.1199 10.7288 41.7369 11.0415C41.3531 11.3534 40.7389 11.5091 39.8951 11.5091H30.8798C30.8798 12.4717 31.3397 13.1998 32.2603 13.6941C32.977 14.1101 33.859 14.3181 34.908 14.3181C35.5732 14.3181 36.1484 14.2274 36.6345 14.0453C36.6853 14.0193 37.2611 13.7591 38.3608 13.2648C39.1791 12.9005 39.7289 12.7181 40.0103 12.7181C40.5987 12.7181 41.084 12.9328 41.4678 13.3621C41.8516 13.7914 42.0438 14.3181 42.0438 14.9422C42.0438 16.2943 41.0333 17.3609 39.0124 18.1414C37.4526 18.7138 35.867 19 34.2559 19C31.6466 19 29.5371 18.1414 27.926 16.4248C26.3141 14.7083 25.509 12.5108 25.509 9.83176C25.509 7.30894 26.3461 5.14387 28.0211 3.33674C29.6966 1.52867 31.775 0.625 34.2559 0.625C36.5575 0.625 38.4755 1.47646 40.0103 3.18031C41.5446 4.88359 42.3121 6.9187 42.3121 9.28584ZM13.2635 13.3429C13.2635 15.0853 12.6113 16.4898 11.3064 17.5564C10.079 18.5183 8.59553 19 6.85663 19C5.39863 19 4.04293 18.7654 2.79009 18.2976C1.07594 17.673 0.219238 16.7369 0.219238 15.4888C0.219238 14.8389 0.398361 14.2665 0.756815 13.7717C1.11453 13.2779 1.60041 13.031 2.21408 13.031C2.80246 13.031 3.60192 13.2839 4.61228 13.7914C5.62208 14.2982 6.39605 14.5527 6.9329 14.5527C7.95637 14.5527 8.46792 14.2141 8.46792 13.5377C8.46792 13.1998 8.35895 12.9395 8.1414 12.7574C7.92385 12.5758 7.35506 12.3022 6.43446 11.9384C4.64422 11.2098 3.54449 10.7288 3.13544 10.4948C1.85657 9.76677 1.07593 8.90818 0.794489 7.91983C0.692918 7.47795 0.641393 6.98368 0.641393 6.43776C0.641393 4.72133 1.30605 3.30349 2.63626 2.18519C3.88983 1.14519 5.3857 0.625 7.12441 0.625C8.40402 0.625 9.60606 0.910641 10.7311 1.48303C12.1383 2.15947 12.8414 3.08285 12.8414 4.25355C12.8414 4.87702 12.6491 5.39702 12.2661 5.81298C11.8824 6.2297 11.3832 6.43776 10.7695 6.43776C10.4881 6.43776 9.88086 6.22312 8.94733 5.79382C8.0138 5.36528 7.29116 5.15063 6.77925 5.15063C5.91017 5.15063 5.47545 5.51419 5.47545 6.24302C5.47545 6.71081 6.15301 7.20489 7.50889 7.72508C9.37595 8.45316 10.6288 9.03814 11.268 9.48058C12.5984 10.4691 13.2635 11.7563 13.2635 13.3429ZM22.4247 15.9564C22.4247 17.7776 21.5296 18.6873 19.7393 18.6873C19.0994 18.6873 18.5561 18.421 18.1087 17.8877C17.661 17.3549 17.4376 16.7495 17.4376 16.0738V5.53672H15.7105C14.444 5.53672 13.4087 4.48471 13.4087 3.19683V3.19626C13.4087 1.90838 14.444 0.855615 15.7105 0.855615H24.1518C25.4183 0.855615 26.4536 1.90838 26.4536 3.19626V3.19683C26.4536 4.48471 25.4183 5.53672 24.1518 5.53672H22.4247V15.9564Z" fill="#36454F"/>
</svg>
