<svg width="29" height="28" viewBox="0 0 29 28" fill="none" xmlns="http://www.w3.org/2000/svg">
<path fill-rule="evenodd" clip-rule="evenodd" d="M3.75384 27.9996C4.54374 27.9996 5.18471 27.352 5.18471 26.5531V21.2482C5.18471 20.4493 4.54374 19.8018 3.75384 19.8018H1.43105C0.640965 19.8018 0 20.4493 0 21.2482V26.5531C0 27.352 0.640965 27.9996 1.43105 27.9996H3.75384Z" fill="#F4364C"/>
<path fill-rule="evenodd" clip-rule="evenodd" d="M12.8783 28.0003C13.6288 28.0003 14.2773 27.4752 14.4207 26.7302C14.8295 24.6119 15.5968 20.126 15.7964 15.4412C15.8426 14.3509 14.7977 13.581 13.7292 13.7375C12.4872 13.9196 11.4228 13.8737 10.228 13.7852C9.12387 13.7033 8.28322 14.7516 8.51287 15.8465C9.21212 19.1878 9.64807 23.3567 9.82642 26.4316C9.87699 27.3063 10.5873 28.0003 11.4538 28.0003H12.8783Z" fill="#F4364C"/>
<path fill-rule="evenodd" clip-rule="evenodd" d="M26.5476 7.7662C27.4306 7.00076 28.8168 7.72556 28.6649 9.00234C27.8035 16.2632 26.0242 22.0632 23.5807 27.2889C23.0256 28.4768 21.5058 27.9509 21.4442 26.5975C21.2158 21.5917 20.3072 16.7215 18.3164 12.1793C17.7845 10.9655 18.9592 9.23099 20.104 9.46207C22.7739 10.0009 24.7639 9.31284 26.5476 7.7662Z" fill="#F4364C"/>
<path fill-rule="evenodd" clip-rule="evenodd" d="M21.87 7.45315C23.9059 7.45315 25.5561 5.78494 25.5561 3.72695C25.5561 1.66822 23.9059 0 21.87 0C19.8338 0 18.1836 1.66822 18.1836 3.72695C18.1836 5.78494 19.8338 7.45315 21.87 7.45315Z" fill="#F4364C"/>
</svg>
