<svg width="40" height="40" viewBox="0 0 40 40" fill="none" xmlns="http://www.w3.org/2000/svg">
<circle cx="20" cy="20" r="20" fill="white" fill-opacity="0.2"/>
<g clip-path="url(#clip0_2732_56299)">
<path d="M28.6328 10H21.9922C21.2383 10 20.625 10.6133 20.625 11.3672V18.0078C20.625 18.7617 21.2383 19.375 21.9922 19.375H28.6328C29.3867 19.375 30 18.7617 30 18.0078V11.3672C30 10.6133 29.3867 10 28.6328 10ZM27.2656 15.2734H23.3594C23.0358 15.2734 22.7734 15.0111 22.7734 14.6875C22.7734 14.3639 23.0358 14.1016 23.3594 14.1016H27.2656C27.5892 14.1016 27.8516 14.3639 27.8516 14.6875C27.8516 15.0111 27.5892 15.2734 27.2656 15.2734Z" fill="white"/>
<path d="M28.6328 20.625H21.9922C21.2383 20.625 20.625 21.2383 20.625 21.9922V28.6328C20.625 29.3867 21.2383 30 21.9922 30H28.6328C29.3867 30 30 29.3867 30 28.6328V21.9922C30 21.2383 29.3867 20.625 28.6328 20.625ZM27.2656 26.875H23.3594C23.0358 26.875 22.7734 26.6127 22.7734 26.2891C22.7734 25.9655 23.0358 25.7031 23.3594 25.7031H27.2656C27.5892 25.7031 27.8516 25.9655 27.8516 26.2891C27.8516 26.6127 27.5892 26.875 27.2656 26.875ZM27.2656 24.5312H23.3594C23.0358 24.5312 22.7734 24.2689 22.7734 23.9453C22.7734 23.6217 23.0358 23.3594 23.3594 23.3594H27.2656C27.5892 23.3594 27.8516 23.6217 27.8516 23.9453C27.8516 24.2689 27.5892 24.5312 27.2656 24.5312Z" fill="white"/>
<path d="M18.0078 10H11.3672C10.6133 10 10 10.6133 10 11.3672V18.0078C10 18.7617 10.6133 19.375 11.3672 19.375H18.0078C18.7617 19.375 19.375 18.7617 19.375 18.0078V11.3672C19.375 10.6133 18.7617 10 18.0078 10ZM16.6406 15.2502H15.2966V16.6406C15.2966 16.9642 15.0343 17.2266 14.7107 17.2266C14.3871 17.2266 14.1248 16.9642 14.1248 16.6406V15.2502H12.7344C12.4108 15.2502 12.1484 14.9879 12.1484 14.6643C12.1484 14.3407 12.4108 14.0783 12.7344 14.0783H14.1248V12.7344C14.1248 12.4108 14.3871 12.1484 14.7107 12.1484C15.0343 12.1484 15.2966 12.4108 15.2966 12.7344V14.0783H16.6406C16.9642 14.0783 17.2266 14.3407 17.2266 14.6643C17.2266 14.9879 16.9642 15.2502 16.6406 15.2502Z" fill="white"/>
<path d="M18.0078 20.625H11.3672C10.6133 20.625 10 21.2383 10 21.9922V28.6328C10 29.3867 10.6133 30 11.3672 30H18.0078C18.7617 30 19.375 29.3867 19.375 28.6328V21.9922C19.375 21.2383 18.7617 20.625 18.0078 20.625ZM17.0549 26.8281C17.2837 27.0569 17.2837 27.4279 17.0549 27.6567C16.9405 27.7711 16.7905 27.8284 16.6406 27.8284C16.4907 27.8284 16.3407 27.7711 16.2263 27.6567L14.7107 26.1411L13.1487 27.7032C13.0343 27.8176 12.8843 27.8748 12.7344 27.8748C12.5845 27.8748 12.4345 27.8176 12.3201 27.7032C12.0913 27.4744 12.0913 27.1034 12.3201 26.8745L13.8821 25.3125L12.3201 23.7505C12.0912 23.5217 12.0912 23.1507 12.3201 22.9218C12.5489 22.693 12.9199 22.693 13.1487 22.9218L14.7107 24.4839L16.2263 22.9683C16.4551 22.7395 16.8261 22.7395 17.055 22.9683C17.2838 23.1971 17.2838 23.5681 17.055 23.7969L15.5394 25.3125L17.0549 26.8281Z" fill="white"/>
</g>
<defs>
<clipPath id="clip0_2732_56299">
<rect width="20" height="20" fill="white" transform="translate(10 10)"/>
</clipPath>
</defs>
</svg>
