<svg width="32" height="32" viewBox="0 0 32 32" fill="none" xmlns="http://www.w3.org/2000/svg">
<path d="M1 1H19.4219C20.0805 1 20.6969 1.32423 21.07 1.86694L30.0075 14.8669C30.4767 15.5494 30.4767 16.4506 30.0075 17.1331L21.07 30.1331C20.6969 30.6758 20.0805 31 19.4219 31H1V1Z" fill="#4D956A" stroke="white" stroke-width="2"/>
<g clip-path="url(#clip0_2732_71175)">
<path d="M19.8538 13.1462L14.8539 8.14625C14.6589 7.95125 14.3419 7.95125 14.1469 8.14625L9.147 13.1462C9.003 13.2902 8.96 13.5042 9.038 13.6912C9.115 13.8782 9.298 14.0002 9.5 14.0002H12V17.7301C12 18.8861 11.65 20.0011 10.989 20.955C10.329 21.907 9.408 22.625 8.32401 23.032C8.21446 23.0732 8.12283 23.1515 8.06508 23.2532C8.00733 23.355 7.98714 23.4739 8.00802 23.589C8.02883 23.7043 8.0895 23.8087 8.17943 23.8838C8.26936 23.9589 8.38283 24 8.50001 24H11.34C14.7779 24 16.9999 21.386 16.9999 17.3401V14.0002H19.4998C19.7018 14.0002 19.8848 13.8782 19.9618 13.6912C20.0388 13.5042 19.9958 13.2902 19.8538 13.1462Z" fill="white" fill-opacity="0.8"/>
</g>
<defs>
<clipPath id="clip0_2732_71175">
<rect width="16" height="16" fill="white" transform="translate(6 8)"/>
</clipPath>
</defs>
</svg>
