<svg width="18" height="20" viewBox="0 0 18 20" fill="none" xmlns="http://www.w3.org/2000/svg">
<path d="M3.75825 14.7694C4.74876 15.176 5.53248 15.8318 6.0128 16.5751C6.11338 16.7307 5.9617 17.1002 5.78076 17.1403C4.91672 17.3317 3.89829 17.2478 2.90778 16.8411C1.91727 16.4345 1.13354 15.7787 0.653227 15.0354C0.552639 14.8798 0.704325 14.5103 0.885266 14.4702C1.74927 14.2788 2.76774 14.3628 3.75825 14.7694Z" fill="url(#paint0_linear_2732_70763)"/>
<path d="M3.75825 14.7694C4.74876 15.176 5.53248 15.8318 6.0128 16.5751C6.11338 16.7307 5.9617 17.1002 5.78076 17.1403C4.91672 17.3317 3.89829 17.2478 2.90778 16.8411C1.91727 16.4345 1.13354 15.7787 0.653227 15.0354C0.552639 14.8798 0.704325 14.5103 0.885266 14.4702C1.74927 14.2788 2.76774 14.3628 3.75825 14.7694Z" fill="url(#paint1_linear_2732_70763)"/>
<path d="M4.26154 13.3649C5.23158 14.1338 5.89213 15.1132 6.1877 16.0926C6.24958 16.2978 5.9628 16.6596 5.74896 16.6462C4.7279 16.5822 3.6235 16.1627 2.65347 15.3939C1.68343 14.6251 1.02288 13.6457 0.727309 12.6662C0.665426 12.4611 0.952211 12.0993 1.16605 12.1127C2.18711 12.1767 3.2915 12.5961 4.26154 13.3649Z" fill="url(#paint2_linear_2732_70763)"/>
<path d="M4.26154 13.3649C5.23158 14.1338 5.89213 15.1132 6.1877 16.0926C6.24958 16.2978 5.9628 16.6596 5.74896 16.6462C4.7279 16.5822 3.6235 16.1627 2.65347 15.3939C1.68343 14.6251 1.02288 13.6457 0.727309 12.6662C0.665426 12.4611 0.952211 12.0993 1.16605 12.1127C2.18711 12.1767 3.2915 12.5961 4.26154 13.3649Z" fill="url(#paint3_linear_2732_70763)"/>
<path d="M5.24203 11.2001C6.09199 12.5048 6.48861 13.937 6.44987 15.2234C6.44175 15.4928 5.95504 15.8099 5.70536 15.7085C4.51297 15.2241 3.36312 14.2826 2.51316 12.9779C1.6632 11.6733 1.26657 10.241 1.30532 8.95461C1.31344 8.6852 1.80014 8.36814 2.04983 8.46955C3.24222 8.95391 4.39206 9.89544 5.24203 11.2001Z" fill="url(#paint4_linear_2732_70763)"/>
<path d="M1.44922 10.4673C1.63181 11.3099 1.98451 12.1687 2.51204 12.9785C3.362 14.2831 4.51181 15.2247 5.70424 15.709C5.95396 15.8105 6.44063 15.4934 6.44875 15.2239C6.48753 13.9375 6.09091 12.5053 5.24091 11.2006C4.7404 10.4324 4.13589 9.79018 3.47996 9.29297L1.44922 10.4673Z" fill="url(#paint5_linear_2732_70763)"/>
<path d="M14.2427 14.7691C13.2522 15.1757 12.4685 15.8315 11.9882 16.5748C11.8876 16.7305 12.0393 17.0999 12.2202 17.1401C13.0843 17.3315 14.1027 17.2475 15.0932 16.8409C16.0837 16.4343 16.8674 15.7785 17.3478 15.0352C17.4483 14.8796 17.2967 14.51 17.1157 14.4699C16.2517 14.2785 15.2332 14.3625 14.2427 14.7691Z" fill="url(#paint6_linear_2732_70763)"/>
<path d="M14.2427 14.7691C13.2522 15.1757 12.4685 15.8315 11.9882 16.5748C11.8876 16.7305 12.0393 17.0999 12.2202 17.1401C13.0843 17.3315 14.1027 17.2475 15.0932 16.8409C16.0837 16.4343 16.8674 15.7785 17.3478 15.0352C17.4483 14.8796 17.2967 14.51 17.1157 14.4699C16.2517 14.2785 15.2332 14.3625 14.2427 14.7691Z" fill="url(#paint7_linear_2732_70763)"/>
<path d="M13.7384 13.3649C12.7684 14.1338 12.1078 15.1132 11.8123 16.0926C11.7504 16.2978 12.0372 16.6596 12.251 16.6462C13.2721 16.5822 14.3765 16.1627 15.3465 15.3939C16.3165 14.6251 16.9771 13.6457 17.2727 12.6662C17.3345 12.4611 17.0478 12.0993 16.8339 12.1127C15.8129 12.1767 14.7085 12.5961 13.7384 13.3649Z" fill="url(#paint8_linear_2732_70763)"/>
<path d="M13.7384 13.3649C12.7684 14.1338 12.1078 15.1132 11.8123 16.0926C11.7504 16.2978 12.0372 16.6596 12.251 16.6462C13.2721 16.5822 14.3765 16.1627 15.3465 15.3939C16.3165 14.6251 16.9771 13.6457 17.2727 12.6662C17.3345 12.4611 17.0478 12.0993 16.8339 12.1127C15.8129 12.1767 14.7085 12.5961 13.7384 13.3649Z" fill="url(#paint9_linear_2732_70763)"/>
<path d="M12.7593 11.2001C11.9093 12.5048 11.5127 13.937 11.5514 15.2234C11.5595 15.4928 12.0462 15.8099 12.2959 15.7085C13.4883 15.2241 14.6382 14.2826 15.4881 12.9779C16.3381 11.6733 16.7347 10.241 16.696 8.95461C16.6878 8.6852 16.2011 8.36814 15.9515 8.46955C14.7591 8.95391 13.6092 9.89544 12.7593 11.2001Z" fill="url(#paint10_linear_2732_70763)"/>
<path d="M16.5509 10.4663C16.3684 11.309 16.0157 12.1678 15.4881 12.9775C14.6382 14.2821 13.4884 15.2237 12.2959 15.708C12.0462 15.8095 11.5595 15.4924 11.5514 15.223C11.5126 13.9365 11.9093 12.5043 12.7593 11.1996C13.2598 10.4314 13.8643 9.78921 14.5202 9.29199L16.5509 10.4663Z" fill="url(#paint11_linear_2732_70763)"/>
<path d="M8.99999 20C12.4442 20 15.2363 17.2079 15.2363 13.7637C15.2363 10.3194 12.4442 7.52734 8.99999 7.52734C5.55576 7.52734 2.76367 10.3194 2.76367 13.7637C2.76367 17.2079 5.55576 20 8.99999 20Z" fill="url(#paint12_linear_2732_70763)"/>
<path d="M9.00008 18.7343C11.7454 18.7343 13.9709 16.5088 13.9709 13.7635C13.9709 11.0182 11.7454 8.79272 9.00008 8.79272C6.25479 8.79272 4.0293 11.0182 4.0293 13.7635C4.0293 16.5088 6.25479 18.7343 9.00008 18.7343Z" fill="url(#paint13_linear_2732_70763)"/>
<path d="M8.99987 18.032C11.3567 18.032 13.2673 16.1214 13.2673 13.7645C13.2673 11.4077 11.3567 9.49707 8.99987 9.49707C6.64303 9.49707 4.73242 11.4077 4.73242 13.7645C4.73242 16.1214 6.64303 18.032 8.99987 18.032Z" fill="url(#paint14_linear_2732_70763)"/>
<path d="M2.76367 13.7638C2.76367 17.208 5.55575 20.0001 8.99999 20.0001C12.4442 20.0001 15.2363 17.208 15.2363 13.7638C15.2363 13.7396 15.2357 13.7156 15.2354 13.6914H2.76457C2.7643 13.7156 2.76367 13.7396 2.76367 13.7638Z" fill="url(#paint15_linear_2732_70763)"/>
<path d="M10.7494 19.7514C12.7144 19.1783 14.2781 17.6644 14.9202 15.7298L11.8828 12.6924L11.1981 12.726L9.35001 10.8779L7.09766 16.0997L10.7494 19.7514Z" fill="url(#paint16_linear_2732_70763)"/>
<path d="M11.5581 12.4085L10.3351 12.113C10.2214 12.0855 10.1219 12.0165 10.0563 11.9196L9.35131 10.8774C9.26602 10.7514 9.13539 10.6838 9.00096 10.6729C8.86653 10.6838 8.73586 10.7514 8.65061 10.8774L7.94559 11.9196C7.88002 12.0165 7.78061 12.0855 7.6668 12.113L6.44378 12.4085C6.11202 12.4887 5.97378 12.8846 6.18351 13.1539L6.9568 14.1464C7.02872 14.2388 7.06363 14.3546 7.05461 14.4713L6.9577 15.7258C6.93143 16.0661 7.26527 16.32 7.58617 16.2036L8.76912 15.7749C8.84386 15.7478 8.92359 15.7409 9.00096 15.7529C9.07837 15.7409 9.15806 15.7479 9.2328 15.7749L10.4157 16.2036C10.7366 16.3199 11.0705 16.0661 11.0442 15.7258L10.9473 14.4713C10.9383 14.3546 10.9732 14.2388 11.0451 14.1464L11.8184 13.1539C12.0281 12.8846 11.8899 12.4887 11.5581 12.4085Z" fill="url(#paint17_linear_2732_70763)"/>
<path d="M9.23282 15.7749L10.4158 16.2036C10.7366 16.3199 11.0705 16.0661 11.0442 15.7258L10.9473 14.4713C10.9383 14.3546 10.9732 14.2388 11.0451 14.1464L11.8184 13.1539C12.0282 12.8847 11.8899 12.4887 11.5582 12.4085L10.3351 12.113C10.2214 12.0855 10.122 12.0165 10.0563 11.9196L9.35133 10.8774C9.26603 10.7514 9.13541 10.6838 9.00098 10.6729V15.7529C9.07839 15.7409 9.15811 15.7478 9.23282 15.7749Z" fill="url(#paint18_linear_2732_70763)"/>
<path d="M11.5578 12.4084L10.3348 12.1129C10.293 12.1028 10.2533 12.087 10.2164 12.0664L7.09863 16.0991C7.22095 16.2173 7.40546 16.2689 7.58585 16.2035L8.76879 15.7748C8.84354 15.7477 8.92326 15.7408 9.00063 15.7528C9.07804 15.7408 9.15773 15.7478 9.23248 15.7748L10.4154 16.2035C10.7363 16.3198 11.0702 16.066 11.0439 15.7257L10.947 14.4712C10.938 14.3545 10.9729 14.2387 11.0448 14.1463L11.8181 13.1538C12.0278 12.8845 11.8896 12.4885 11.5578 12.4084Z" fill="url(#paint19_linear_2732_70763)"/>
<path d="M6.44378 12.4084L7.6668 12.1129C7.70857 12.1028 7.74833 12.087 7.78523 12.0664L10.903 16.0991C10.7806 16.2173 10.5961 16.2689 10.4157 16.2035L9.2328 15.7748C9.15806 15.7477 9.07833 15.7408 9.00096 15.7528C8.92355 15.7408 8.84386 15.7478 8.76912 15.7748L7.58617 16.2035C7.26531 16.3198 6.93143 16.066 6.9577 15.7257L7.05461 14.4712C7.06363 14.3545 7.02872 14.2387 6.9568 14.1463L6.18351 13.1538C5.97378 12.8845 6.11202 12.4885 6.44378 12.4084Z" fill="url(#paint20_linear_2732_70763)"/>
<path d="M6.11776 12.6914C6.0596 12.8381 6.07356 13.0129 6.18301 13.1534L6.95631 14.1459C7.02823 14.2383 7.06313 14.3541 7.05411 14.4708L6.95721 15.7253C6.93094 16.0656 7.26478 16.3194 7.58568 16.2031L8.76862 15.7744C8.84337 15.7473 8.92309 15.7403 9.00047 15.7523C9.07788 15.7404 9.15756 15.7474 9.23231 15.7744L10.4152 16.2031C10.7361 16.3194 11.07 16.0656 11.0437 15.7253L10.9468 14.4708C10.9418 14.4061 10.9508 14.3417 10.9716 14.2814L6.11776 12.6914Z" fill="url(#paint21_linear_2732_70763)"/>
<path d="M11.8835 12.6914C11.9416 12.8381 11.9277 13.0129 11.8182 13.1534L11.0449 14.1459C10.973 14.2383 10.9381 14.3541 10.9471 14.4708L11.044 15.7253C11.0703 16.0656 10.7364 16.3194 10.4155 16.2031L9.23261 15.7744C9.15786 15.7473 9.07814 15.7403 9.00077 15.7523C8.92335 15.7404 8.84367 15.7474 8.76892 15.7744L7.58598 16.2031C7.26512 16.3194 6.93124 16.0656 6.95751 15.7253L7.05441 14.4708C7.05943 14.4061 7.05045 14.3417 7.02959 14.2814L11.8835 12.6914Z" fill="url(#paint22_linear_2732_70763)"/>
<path d="M9.00074 7.52734C8.97486 7.52734 8.94917 7.52801 8.92337 7.52832L7.96094 8.49076L14.9869 15.5167C15.1494 14.9605 15.2371 14.3723 15.2371 13.7636C15.2371 10.3194 12.445 7.52734 9.00074 7.52734Z" fill="url(#paint23_linear_2732_70763)"/>
<path d="M5.23633 0.129883V3.424L9.00103 7.18871L12.7657 3.424V0.129883H5.23633Z" fill="url(#paint24_linear_2732_70763)"/>
<path d="M5.23633 0.129883V1.15506L8.98845 4.90718C8.99539 4.91412 9.00668 4.91412 9.01362 4.90718L12.7657 1.15506V0.129883H5.23633Z" fill="url(#paint25_linear_2732_70763)"/>
<path d="M5.23633 0.129883V1.15506L8.98845 4.90718C8.99539 4.91412 9.00668 4.91412 9.01362 4.90718L12.7657 1.15506V0.129883H5.23633Z" fill="url(#paint26_linear_2732_70763)"/>
<path d="M9.00103 5.4995C8.84582 5.4995 8.69064 5.44044 8.57252 5.32228L5.23633 1.98608V3.42318L9.00103 7.18789L12.7657 3.42318V1.98608L9.42954 5.32228C9.31143 5.4404 9.15625 5.4995 9.00103 5.4995Z" fill="url(#paint27_linear_2732_70763)"/>
<path d="M9.00103 5.4995C8.84582 5.4995 8.69064 5.44044 8.57252 5.32228L5.23633 1.98608V3.42318L9.00103 7.18789L12.7657 3.42318V1.98608L9.42954 5.32228C9.31143 5.4404 9.15625 5.4995 9.00103 5.4995Z" fill="url(#paint28_linear_2732_70763)"/>
<path d="M9.00103 5.4995C9.15625 5.4995 9.31143 5.44044 9.42954 5.32228L12.7657 1.98608V3.42318L9.00103 7.18789L5.23633 3.42318V1.98608L8.57252 5.32228C8.69064 5.4404 8.84586 5.4995 9.00103 5.4995Z" fill="url(#paint29_linear_2732_70763)"/>
<path d="M8.58785 6.33381L5.38416 3.13013C5.14393 2.88989 4.7544 2.88989 4.51416 3.13013C4.27393 3.37036 4.27393 3.75989 4.51416 4.00013L9.00067 8.48672L13.4872 4.00017C13.7275 3.75993 13.7275 3.3704 13.4872 3.13017C13.247 2.88993 12.8575 2.88993 12.6172 3.13017L9.41353 6.33385C9.18549 6.56185 8.81585 6.56185 8.58785 6.33381Z" fill="url(#paint30_linear_2732_70763)"/>
<path d="M4.51497 3.13742L8.52913 7.15158C8.79003 7.41248 9.21305 7.41248 9.47395 7.15158L13.4881 3.13742C13.4892 3.13625 13.4902 3.13495 13.4914 3.13377C13.4902 3.1326 13.4892 3.1313 13.4881 3.13013C13.2478 2.88989 12.8583 2.88989 12.6181 3.13013L9.41439 6.33381C9.18639 6.56181 8.8167 6.56181 8.5887 6.33381L5.38501 3.13013C5.14478 2.88989 4.75525 2.88989 4.51501 3.13013C4.51384 3.1313 4.5129 3.1326 4.51172 3.13377C4.51286 3.13495 4.5138 3.13625 4.51497 3.13742Z" fill="url(#paint31_linear_2732_70763)"/>
<path d="M9.00104 8.48709L12.1681 5.32007H10.428L9.41387 6.33422C9.18587 6.56222 8.81618 6.56222 8.58818 6.33422L7.57402 5.32007H5.83398L9.00104 8.48709Z" fill="url(#paint32_linear_2732_70763)"/>
<path d="M8.6084 8.09501L9.00056 8.48716L13.0173 4.47046H11.2772L9.41342 6.33426C9.19205 6.55564 8.83757 6.5614 8.6084 6.35297V8.09501Z" fill="url(#paint33_linear_2732_70763)"/>
<path d="M9.00078 8.92149C9.81292 8.92149 10.4713 8.26312 10.4713 7.45098C10.4713 6.63884 9.81292 5.98047 9.00078 5.98047C8.18864 5.98047 7.53027 6.63884 7.53027 7.45098C7.53027 8.26312 8.18864 8.92149 9.00078 8.92149Z" fill="url(#paint34_linear_2732_70763)"/>
<path d="M9.00126 8.29452C9.46687 8.29452 9.84432 7.91707 9.84432 7.45146C9.84432 6.98585 9.46687 6.6084 9.00126 6.6084C8.53565 6.6084 8.1582 6.98585 8.1582 7.45146C8.1582 7.91707 8.53565 8.29452 9.00126 8.29452Z" fill="url(#paint35_linear_2732_70763)"/>
<path d="M13.3345 1.46404H4.6677C4.41868 1.46404 4.2168 1.26216 4.2168 1.01314V0.450902C4.2168 0.201882 4.41868 0 4.6677 0H13.3346C13.5835 0 13.7854 0.201882 13.7854 0.450902V1.01318C13.7854 1.2622 13.5835 1.46404 13.3345 1.46404Z" fill="url(#paint36_linear_2732_70763)"/>
<defs>
<linearGradient id="paint0_linear_2732_70763" x1="2.61849" y1="13.9369" x2="3.32772" y2="15.7846" gradientUnits="userSpaceOnUse">
<stop stop-color="#E6E6E6"/>
<stop offset="1" stop-color="#999999"/>
</linearGradient>
<linearGradient id="paint1_linear_2732_70763" x1="2.25111" y1="14.9023" x2="3.80207" y2="16.1912" gradientUnits="userSpaceOnUse">
<stop stop-color="#766E6E" stop-opacity="0"/>
<stop offset="0.2806" stop-color="#716B6B" stop-opacity="0.281"/>
<stop offset="0.5705" stop-color="#656060" stop-opacity="0.571"/>
<stop offset="0.8636" stop-color="#514F4F" stop-opacity="0.864"/>
<stop offset="1" stop-color="#444444"/>
</linearGradient>
<linearGradient id="paint2_linear_2732_70763" x1="1.81887" y1="12.31" x2="3.30497" y2="14.183" gradientUnits="userSpaceOnUse">
<stop stop-color="#E6E6E6"/>
<stop offset="1" stop-color="#999999"/>
</linearGradient>
<linearGradient id="paint3_linear_2732_70763" x1="2.18453" y1="14.0587" x2="3.59675" y2="14.4116" gradientUnits="userSpaceOnUse">
<stop stop-color="#766E6E" stop-opacity="0"/>
<stop offset="0.2806" stop-color="#716B6B" stop-opacity="0.281"/>
<stop offset="0.5705" stop-color="#656060" stop-opacity="0.571"/>
<stop offset="0.8636" stop-color="#514F4F" stop-opacity="0.864"/>
<stop offset="1" stop-color="#444444"/>
</linearGradient>
<linearGradient id="paint4_linear_2732_70763" x1="3.77455" y1="9.93942" x2="3.9287" y2="13.115" gradientUnits="userSpaceOnUse">
<stop stop-color="#E6E6E6"/>
<stop offset="1" stop-color="#999999"/>
</linearGradient>
<linearGradient id="paint5_linear_2732_70763" x1="3.53649" y1="11.5834" x2="4.45989" y2="12.9477" gradientUnits="userSpaceOnUse">
<stop stop-color="#766E6E" stop-opacity="0"/>
<stop offset="0.2806" stop-color="#716B6B" stop-opacity="0.281"/>
<stop offset="0.5705" stop-color="#656060" stop-opacity="0.571"/>
<stop offset="0.8636" stop-color="#514F4F" stop-opacity="0.864"/>
<stop offset="1" stop-color="#444444"/>
</linearGradient>
<linearGradient id="paint6_linear_2732_70763" x1="15.3842" y1="13.9352" x2="14.675" y2="15.783" gradientUnits="userSpaceOnUse">
<stop stop-color="#E6E6E6"/>
<stop offset="1" stop-color="#999999"/>
</linearGradient>
<linearGradient id="paint7_linear_2732_70763" x1="15.7517" y1="14.9006" x2="14.2007" y2="16.1896" gradientUnits="userSpaceOnUse">
<stop stop-color="#766E6E" stop-opacity="0"/>
<stop offset="0.2806" stop-color="#716B6B" stop-opacity="0.281"/>
<stop offset="0.5705" stop-color="#656060" stop-opacity="0.571"/>
<stop offset="0.8636" stop-color="#514F4F" stop-opacity="0.864"/>
<stop offset="1" stop-color="#444444"/>
</linearGradient>
<linearGradient id="paint8_linear_2732_70763" x1="16.1829" y1="12.3086" x2="14.6968" y2="14.1816" gradientUnits="userSpaceOnUse">
<stop stop-color="#E6E6E6"/>
<stop offset="1" stop-color="#999999"/>
</linearGradient>
<linearGradient id="paint9_linear_2732_70763" x1="15.8172" y1="14.0573" x2="14.405" y2="14.4102" gradientUnits="userSpaceOnUse">
<stop stop-color="#766E6E" stop-opacity="0"/>
<stop offset="0.2806" stop-color="#716B6B" stop-opacity="0.281"/>
<stop offset="0.5705" stop-color="#656060" stop-opacity="0.571"/>
<stop offset="0.8636" stop-color="#514F4F" stop-opacity="0.864"/>
<stop offset="1" stop-color="#444444"/>
</linearGradient>
<linearGradient id="paint10_linear_2732_70763" x1="14.2285" y1="9.93799" x2="14.0743" y2="13.1136" gradientUnits="userSpaceOnUse">
<stop stop-color="#E6E6E6"/>
<stop offset="1" stop-color="#999999"/>
</linearGradient>
<linearGradient id="paint11_linear_2732_70763" x1="14.4654" y1="11.581" x2="13.5421" y2="12.9453" gradientUnits="userSpaceOnUse">
<stop stop-color="#766E6E" stop-opacity="0"/>
<stop offset="0.2806" stop-color="#716B6B" stop-opacity="0.281"/>
<stop offset="0.5705" stop-color="#656060" stop-opacity="0.571"/>
<stop offset="0.8636" stop-color="#514F4F" stop-opacity="0.864"/>
<stop offset="1" stop-color="#444444"/>
</linearGradient>
<linearGradient id="paint12_linear_2732_70763" x1="5.15504" y1="9.91872" x2="11.7321" y2="16.4958" gradientUnits="userSpaceOnUse">
<stop stop-color="#E6E6E6"/>
<stop offset="1" stop-color="#999999"/>
</linearGradient>
<linearGradient id="paint13_linear_2732_70763" x1="12.2286" y1="16.992" x2="5.67741" y2="10.4408" gradientUnits="userSpaceOnUse">
<stop stop-color="#E6E6E6"/>
<stop offset="1" stop-color="#999999"/>
</linearGradient>
<linearGradient id="paint14_linear_2732_70763" x1="5.89756" y1="10.6622" x2="11.0041" y2="15.7688" gradientUnits="userSpaceOnUse">
<stop stop-color="#E6E6E6"/>
<stop offset="1" stop-color="#999999"/>
</linearGradient>
<linearGradient id="paint15_linear_2732_70763" x1="8.99999" y1="15.5884" x2="8.99999" y2="19.6818" gradientUnits="userSpaceOnUse">
<stop stop-color="#766E6E" stop-opacity="0"/>
<stop offset="0.2806" stop-color="#716B6B" stop-opacity="0.281"/>
<stop offset="0.5705" stop-color="#656060" stop-opacity="0.571"/>
<stop offset="0.8636" stop-color="#514F4F" stop-opacity="0.864"/>
<stop offset="1" stop-color="#444444"/>
</linearGradient>
<linearGradient id="paint16_linear_2732_70763" x1="12.7353" y1="17.0051" x2="7.58499" y2="13.7633" gradientUnits="userSpaceOnUse">
<stop stop-color="#766E6E" stop-opacity="0"/>
<stop offset="0.2806" stop-color="#716B6B" stop-opacity="0.281"/>
<stop offset="0.5705" stop-color="#656060" stop-opacity="0.571"/>
<stop offset="0.8636" stop-color="#514F4F" stop-opacity="0.864"/>
<stop offset="1" stop-color="#444444"/>
</linearGradient>
<linearGradient id="paint17_linear_2732_70763" x1="7.7019" y1="12.5782" x2="10.0445" y2="14.9208" gradientUnits="userSpaceOnUse">
<stop stop-color="#F9F5F3"/>
<stop offset="1" stop-color="#D8E8F0"/>
</linearGradient>
<linearGradient id="paint18_linear_2732_70763" x1="10.4046" y1="13.2169" x2="7.16686" y2="14.5554" gradientUnits="userSpaceOnUse">
<stop stop-color="#678D98" stop-opacity="0"/>
<stop offset="0.9957" stop-color="#678D98" stop-opacity="0.996"/>
<stop offset="1" stop-color="#678D98"/>
</linearGradient>
<linearGradient id="paint19_linear_2732_70763" x1="9.55891" y1="14.3658" x2="7.78628" y2="13.6061" gradientUnits="userSpaceOnUse">
<stop stop-color="#678D98" stop-opacity="0"/>
<stop offset="0.9957" stop-color="#678D98" stop-opacity="0.996"/>
<stop offset="1" stop-color="#678D98"/>
</linearGradient>
<linearGradient id="paint20_linear_2732_70763" x1="8.44268" y1="14.3658" x2="10.2153" y2="13.6061" gradientUnits="userSpaceOnUse">
<stop stop-color="#678D98" stop-opacity="0"/>
<stop offset="0.9957" stop-color="#678D98" stop-opacity="0.996"/>
<stop offset="1" stop-color="#678D98"/>
</linearGradient>
<linearGradient id="paint21_linear_2732_70763" x1="8.4816" y1="14.4543" x2="9.62113" y2="12.6229" gradientUnits="userSpaceOnUse">
<stop stop-color="#678D98" stop-opacity="0"/>
<stop offset="0.9957" stop-color="#678D98" stop-opacity="0.996"/>
<stop offset="1" stop-color="#678D98"/>
</linearGradient>
<linearGradient id="paint22_linear_2732_70763" x1="9.43179" y1="14.2231" x2="9.33684" y2="12.4323" gradientUnits="userSpaceOnUse">
<stop stop-color="#678D98" stop-opacity="0"/>
<stop offset="0.9957" stop-color="#678D98" stop-opacity="0.996"/>
<stop offset="1" stop-color="#678D98"/>
</linearGradient>
<linearGradient id="paint23_linear_2732_70763" x1="12.0738" y1="11.1291" x2="9.66862" y2="6.91993" gradientUnits="userSpaceOnUse">
<stop stop-color="#766E6E" stop-opacity="0"/>
<stop offset="0.2806" stop-color="#716B6B" stop-opacity="0.281"/>
<stop offset="0.5705" stop-color="#656060" stop-opacity="0.571"/>
<stop offset="0.8636" stop-color="#514F4F" stop-opacity="0.864"/>
<stop offset="1" stop-color="#444444"/>
</linearGradient>
<linearGradient id="paint24_linear_2732_70763" x1="9.27994" y1="2.22177" x2="10.829" y2="4.69235" gradientUnits="userSpaceOnUse">
<stop stop-color="#F9F5F3"/>
<stop offset="1" stop-color="#D8E8F0"/>
</linearGradient>
<linearGradient id="paint25_linear_2732_70763" x1="7.73488" y1="-0.809451" x2="12.5453" y2="4.70686" gradientUnits="userSpaceOnUse">
<stop stop-color="#B3DAFE"/>
<stop offset="1" stop-color="#0182FC"/>
</linearGradient>
<linearGradient id="paint26_linear_2732_70763" x1="9.00103" y1="2.60702" x2="9.00103" y2="1.31157" gradientUnits="userSpaceOnUse">
<stop stop-color="#0182FC" stop-opacity="0"/>
<stop offset="0.1261" stop-color="#017FF3" stop-opacity="0.126"/>
<stop offset="0.3306" stop-color="#0176DB" stop-opacity="0.331"/>
<stop offset="0.5881" stop-color="#0268B4" stop-opacity="0.588"/>
<stop offset="0.8857" stop-color="#02547E" stop-opacity="0.886"/>
<stop offset="1" stop-color="#024C67"/>
</linearGradient>
<linearGradient id="paint27_linear_2732_70763" x1="6.713" y1="0.0808289" x2="11.5234" y2="5.59714" gradientUnits="userSpaceOnUse">
<stop stop-color="#B3DAFE"/>
<stop offset="1" stop-color="#0182FC"/>
</linearGradient>
<linearGradient id="paint28_linear_2732_70763" x1="10.491" y1="4.19459" x2="11.1604" y2="4.86401" gradientUnits="userSpaceOnUse">
<stop stop-color="#0182FC" stop-opacity="0"/>
<stop offset="0.1261" stop-color="#017FF3" stop-opacity="0.126"/>
<stop offset="0.3306" stop-color="#0176DB" stop-opacity="0.331"/>
<stop offset="0.5881" stop-color="#0268B4" stop-opacity="0.588"/>
<stop offset="0.8857" stop-color="#02547E" stop-opacity="0.886"/>
<stop offset="1" stop-color="#024C67"/>
</linearGradient>
<linearGradient id="paint29_linear_2732_70763" x1="7.51103" y1="4.19459" x2="6.84162" y2="4.86401" gradientUnits="userSpaceOnUse">
<stop stop-color="#0182FC" stop-opacity="0"/>
<stop offset="0.1261" stop-color="#017FF3" stop-opacity="0.126"/>
<stop offset="0.3306" stop-color="#0176DB" stop-opacity="0.331"/>
<stop offset="0.5881" stop-color="#0268B4" stop-opacity="0.588"/>
<stop offset="0.8857" stop-color="#02547E" stop-opacity="0.886"/>
<stop offset="1" stop-color="#024C67"/>
</linearGradient>
<linearGradient id="paint30_linear_2732_70763" x1="12.4001" y1="6.9646" x2="4.35855" y2="-1.07697" gradientUnits="userSpaceOnUse">
<stop stop-color="#E6E6E6"/>
<stop offset="1" stop-color="#999999"/>
</linearGradient>
<linearGradient id="paint31_linear_2732_70763" x1="9.00152" y1="3.20205" x2="9.00152" y2="8.69378" gradientUnits="userSpaceOnUse">
<stop stop-color="#E6E6E6"/>
<stop offset="1" stop-color="#999999"/>
</linearGradient>
<linearGradient id="paint32_linear_2732_70763" x1="9.00104" y1="6.39195" x2="9.00104" y2="8.1976" gradientUnits="userSpaceOnUse">
<stop stop-color="#766E6E" stop-opacity="0"/>
<stop offset="0.2806" stop-color="#716B6B" stop-opacity="0.281"/>
<stop offset="0.5705" stop-color="#656060" stop-opacity="0.571"/>
<stop offset="0.8636" stop-color="#514F4F" stop-opacity="0.864"/>
<stop offset="1" stop-color="#444444"/>
</linearGradient>
<linearGradient id="paint33_linear_2732_70763" x1="10.8542" y1="5.36964" x2="9.75612" y2="6.48728" gradientUnits="userSpaceOnUse">
<stop stop-color="#766E6E" stop-opacity="0"/>
<stop offset="0.2806" stop-color="#716B6B" stop-opacity="0.281"/>
<stop offset="0.5705" stop-color="#656060" stop-opacity="0.571"/>
<stop offset="0.8636" stop-color="#514F4F" stop-opacity="0.864"/>
<stop offset="1" stop-color="#444444"/>
</linearGradient>
<linearGradient id="paint34_linear_2732_70763" x1="8.15765" y1="6.60784" x2="10.2373" y2="8.68745" gradientUnits="userSpaceOnUse">
<stop stop-color="#F9F5F3"/>
<stop offset="1" stop-color="#D8E8F0"/>
</linearGradient>
<linearGradient id="paint35_linear_2732_70763" x1="9.5993" y1="8.0495" x2="8.56985" y2="7.02005" gradientUnits="userSpaceOnUse">
<stop stop-color="#F9F5F3"/>
<stop offset="1" stop-color="#D8E8F0"/>
</linearGradient>
<linearGradient id="paint36_linear_2732_70763" x1="9.00111" y1="0.444431" x2="9.00111" y2="1.26161" gradientUnits="userSpaceOnUse">
<stop stop-color="#E6E6E6"/>
<stop offset="1" stop-color="#999999"/>
</linearGradient>
</defs>
</svg>
