<svg width="16" height="18" viewBox="0 0 16 18" fill="none" xmlns="http://www.w3.org/2000/svg">
<path d="M3.28199 13.2928C4.17345 13.6587 4.87881 14.249 5.31109 14.9179C5.40162 15.058 5.2651 15.3906 5.10225 15.4267C4.32462 15.5989 3.40803 15.5234 2.51657 15.1574C1.62511 14.7914 0.919759 14.2013 0.487477 13.5323C0.396948 13.3922 0.533465 13.0596 0.696312 13.0236C1.47391 12.8513 2.39054 12.9269 3.28199 13.2928Z" fill="url(#paint0_linear_1804_29542)"/>
<path d="M3.28199 13.2928C4.17345 13.6587 4.87881 14.249 5.31109 14.9179C5.40162 15.058 5.2651 15.3906 5.10225 15.4267C4.32462 15.5989 3.40803 15.5234 2.51657 15.1574C1.62511 14.7914 0.919759 14.2013 0.487477 13.5323C0.396948 13.3922 0.533465 13.0596 0.696312 13.0236C1.47391 12.8513 2.39054 12.9269 3.28199 13.2928Z" fill="url(#paint1_linear_1804_29542)"/>
<path d="M3.73539 12.0287C4.60843 12.7207 5.20292 13.6021 5.46893 14.4836C5.52462 14.6683 5.26652 14.9939 5.07406 14.9819C4.15511 14.9242 3.16115 14.5467 2.28812 13.8548C1.41508 13.1629 0.820589 12.2814 0.554578 11.3999C0.498884 11.2153 0.756989 10.8896 0.949448 10.9017C1.8684 10.9593 2.86235 11.3368 3.73539 12.0287Z" fill="url(#paint2_linear_1804_29542)"/>
<path d="M3.73539 12.0287C4.60843 12.7207 5.20292 13.6021 5.46893 14.4836C5.52462 14.6683 5.26652 14.9939 5.07406 14.9819C4.15511 14.9242 3.16115 14.5467 2.28812 13.8548C1.41508 13.1629 0.820589 12.2814 0.554578 11.3999C0.498884 11.2153 0.756989 10.8896 0.949448 10.9017C1.8684 10.9593 2.86235 11.3368 3.73539 12.0287Z" fill="url(#paint3_linear_1804_29542)"/>
<path d="M4.61671 10.0808C5.38168 11.255 5.73864 12.544 5.70377 13.7018C5.69646 13.9442 5.25843 14.2296 5.03371 14.1383C3.96056 13.7024 2.9257 12.855 2.16073 11.6808C1.39577 10.5066 1.03881 9.21762 1.07368 8.05983C1.08098 7.81736 1.51902 7.53201 1.74373 7.62328C2.81689 8.0592 3.85175 8.90658 4.61671 10.0808Z" fill="url(#paint4_linear_1804_29542)"/>
<path d="M1.2041 9.42081C1.36843 10.1792 1.68587 10.9521 2.16064 11.6808C2.92561 12.855 3.96043 13.7024 5.03362 14.1383C5.25837 14.2296 5.69637 13.9442 5.70368 13.7018C5.73858 12.544 5.38162 11.255 4.61662 10.0808C4.16616 9.38936 3.6221 8.81139 3.03177 8.36389L1.2041 9.42081Z" fill="url(#paint5_linear_1804_29542)"/>
<path d="M12.7178 13.2928C11.8263 13.6587 11.121 14.249 10.6887 14.9179C10.5982 15.058 10.7347 15.3906 10.8975 15.4267C11.6752 15.5989 12.5918 15.5234 13.4832 15.1574C14.3747 14.7914 15.08 14.2013 15.5123 13.5323C15.6029 13.3922 15.4663 13.0596 15.3035 13.0236C14.5259 12.8513 13.6093 12.9269 12.7178 13.2928Z" fill="url(#paint6_linear_1804_29542)"/>
<path d="M12.7178 13.2928C11.8263 13.6587 11.121 14.249 10.6887 14.9179C10.5982 15.058 10.7347 15.3906 10.8975 15.4267C11.6752 15.5989 12.5918 15.5234 13.4832 15.1574C14.3747 14.7914 15.08 14.2013 15.5123 13.5323C15.6029 13.3922 15.4663 13.0596 15.3035 13.0236C14.5259 12.8513 13.6093 12.9269 12.7178 13.2928Z" fill="url(#paint7_linear_1804_29542)"/>
<path d="M12.2644 12.0287C11.3914 12.7207 10.7969 13.6021 10.5309 14.4836C10.4752 14.6683 10.7333 14.9939 10.9258 14.9819C11.8447 14.9242 12.8387 14.5467 13.7117 13.8548C14.5847 13.1629 15.1792 12.2814 15.4452 11.3999C15.5009 11.2153 15.2428 10.8896 15.0504 10.9017C14.1314 10.9593 13.1375 11.3368 12.2644 12.0287Z" fill="url(#paint8_linear_1804_29542)"/>
<path d="M12.2644 12.0287C11.3914 12.7207 10.7969 13.6021 10.5309 14.4836C10.4752 14.6683 10.7333 14.9939 10.9258 14.9819C11.8447 14.9242 12.8387 14.5467 13.7117 13.8548C14.5847 13.1629 15.1792 12.2814 15.4452 11.3999C15.5009 11.2153 15.2428 10.8896 15.0504 10.9017C14.1314 10.9593 13.1375 11.3368 12.2644 12.0287Z" fill="url(#paint9_linear_1804_29542)"/>
<path d="M11.3831 10.0808C10.6182 11.255 10.2612 12.544 10.2961 13.7018C10.3034 13.9442 10.7414 14.2296 10.9661 14.1383C12.0393 13.7024 13.0742 12.855 13.8391 11.6808C14.6041 10.5066 14.9611 9.21762 14.9262 8.05983C14.9189 7.81736 14.4808 7.53201 14.2561 7.62328C13.183 8.0592 12.1481 8.90658 11.3831 10.0808Z" fill="url(#paint10_linear_1804_29542)"/>
<path d="M14.7957 9.42081C14.6314 10.1792 14.314 10.9521 13.8392 11.6808C13.0742 12.855 12.0394 13.7024 10.9662 14.1383C10.7415 14.2296 10.3035 13.9442 10.2962 13.7018C10.2612 12.544 10.6182 11.255 11.3832 10.0808C11.8337 9.38936 12.3777 8.81139 12.9681 8.36389L14.7957 9.42081Z" fill="url(#paint11_linear_1804_29542)"/>
<path d="M8.00001 18C11.0998 18 13.6127 15.4871 13.6127 12.3873C13.6127 9.28752 11.0998 6.77464 8.00001 6.77464C4.90021 6.77464 2.38733 9.28752 2.38733 12.3873C2.38733 15.4871 4.90021 18 8.00001 18Z" fill="url(#paint12_linear_1804_29542)"/>
<path d="M8.00007 16.861C10.4708 16.861 12.4738 14.8581 12.4738 12.3873C12.4738 9.91656 10.4708 7.91361 8.00007 7.91361C5.52931 7.91361 3.52637 9.91656 3.52637 12.3873C3.52637 14.8581 5.52931 16.861 8.00007 16.861Z" fill="url(#paint13_linear_1804_29542)"/>
<path d="M7.99989 16.228C10.121 16.228 11.8406 14.5085 11.8406 12.3873C11.8406 10.2662 10.121 8.54662 7.99989 8.54662C5.87872 8.54662 4.15918 10.2662 4.15918 12.3873C4.15918 14.5085 5.87872 16.228 7.99989 16.228Z" fill="url(#paint14_linear_1804_29542)"/>
<path d="M2.38733 12.3873C2.38733 15.4871 4.9002 18 8.00001 18C11.0998 18 13.6127 15.4871 13.6127 12.3873C13.6127 12.3655 13.6121 12.3439 13.6119 12.3222H2.38814C2.38789 12.3439 2.38733 12.3655 2.38733 12.3873Z" fill="url(#paint15_linear_1804_29542)"/>
<path d="M9.57403 17.7759C11.3426 17.2601 12.7499 15.8976 13.3278 14.1564L10.5941 11.4228L9.97786 11.453L8.31459 9.78975L6.28748 14.4893L9.57403 17.7759Z" fill="url(#paint16_linear_1804_29542)"/>
<path d="M10.3014 11.1677L9.20071 10.9018C9.09832 10.8771 9.00885 10.815 8.94981 10.7277L8.31529 9.78978C8.23852 9.67635 8.12096 9.61546 7.99997 9.60565C7.87898 9.61546 7.76138 9.67635 7.68465 9.78978L7.05014 10.7277C6.99112 10.815 6.90165 10.8771 6.79923 10.9018L5.69851 11.1677C5.39993 11.2399 5.27551 11.5962 5.46427 11.8386L6.16023 12.7319C6.22496 12.815 6.25637 12.9192 6.24825 13.0243L6.16104 14.1533C6.1374 14.4595 6.43785 14.688 6.72667 14.5834L7.79131 14.1975C7.85858 14.1731 7.93034 14.1669 7.99997 14.1777C8.06964 14.1669 8.14136 14.1732 8.20863 14.1975L9.27328 14.5834C9.56205 14.688 9.86255 14.4595 9.8389 14.1533L9.75169 13.0243C9.74357 12.9192 9.77498 12.815 9.83971 12.7319L10.5357 11.8386C10.7244 11.5962 10.6 11.2399 10.3014 11.1677Z" fill="url(#paint17_linear_1804_29542)"/>
<path d="M8.20866 14.1975L9.27331 14.5834C9.56208 14.688 9.86258 14.4595 9.83893 14.1533L9.75172 13.0243C9.7436 12.9192 9.77501 12.815 9.83974 12.7319L10.5357 11.8386C10.7245 11.5963 10.6 11.2399 10.3015 11.1677L9.20074 10.9018C9.09835 10.8771 9.00888 10.815 8.94983 10.7277L8.31532 9.78978C8.23855 9.67635 8.12099 9.61546 8 9.60565V14.1777C8.06967 14.1669 8.14142 14.1731 8.20866 14.1975Z" fill="url(#paint18_linear_1804_29542)"/>
<path d="M10.3013 11.1677L9.20063 10.9018C9.16304 10.8927 9.12725 10.8785 9.09404 10.86L6.28809 14.4894C6.39817 14.5957 6.56423 14.6422 6.72658 14.5834L7.79123 14.1976C7.8585 14.1732 7.93025 14.1669 7.99989 14.1777C8.06956 14.1669 8.14127 14.1732 8.20854 14.1976L9.27319 14.5834C9.56197 14.688 9.86246 14.4596 9.83882 14.1533L9.7516 13.0243C9.74349 12.9193 9.7749 12.815 9.83963 12.7319L10.5356 11.8386C10.7243 11.5962 10.5999 11.2399 10.3013 11.1677Z" fill="url(#paint19_linear_1804_29542)"/>
<path d="M5.69851 11.1677L6.79923 10.9018C6.83682 10.8927 6.87261 10.8785 6.90582 10.86L9.71177 14.4894C9.60169 14.5957 9.43563 14.6422 9.27328 14.5834L8.20863 14.1976C8.14136 14.1732 8.06961 14.1669 7.99997 14.1777C7.9303 14.1669 7.85858 14.1732 7.79131 14.1976L6.72667 14.5834C6.43789 14.688 6.1374 14.4596 6.16104 14.1533L6.24825 13.0243C6.25637 12.9193 6.22496 12.815 6.16023 12.7319L5.46427 11.8386C5.27551 11.5962 5.39993 11.2399 5.69851 11.1677Z" fill="url(#paint20_linear_1804_29542)"/>
<path d="M5.40552 11.4228C5.35318 11.5548 5.36574 11.7121 5.46425 11.8386L6.16021 12.7319C6.22494 12.815 6.25635 12.9192 6.24824 13.0243L6.16103 14.1533C6.13738 14.4595 6.43784 14.688 6.72665 14.5834L7.7913 14.1975C7.85857 14.1731 7.93032 14.1669 7.99996 14.1777C8.06963 14.1669 8.14134 14.1732 8.20861 14.1975L9.27326 14.5834C9.56204 14.688 9.86253 14.4595 9.83888 14.1533L9.75167 13.0243C9.74716 12.966 9.75524 12.9081 9.77401 12.8538L5.40552 11.4228Z" fill="url(#paint21_linear_1804_29542)"/>
<path d="M10.5949 11.4228C10.6472 11.5548 10.6347 11.7121 10.5362 11.8386L9.8402 12.7319C9.77547 12.815 9.74406 12.9193 9.75218 13.0243L9.83939 14.1533C9.86303 14.4596 9.56254 14.6881 9.27376 14.5834L8.20912 14.1975C8.14185 14.1732 8.07009 14.1669 8.00046 14.1777C7.93079 14.1669 7.85907 14.1732 7.7918 14.1975L6.72715 14.5834C6.43837 14.688 6.13788 14.4596 6.16153 14.1533L6.24874 13.0243C6.25326 12.966 6.24517 12.9081 6.2264 12.8538L10.5949 11.4228Z" fill="url(#paint22_linear_1804_29542)"/>
<path d="M8.00003 6.77464C7.97674 6.77464 7.95362 6.77524 7.9304 6.77552L7.06421 7.64171L13.3875 13.965C13.5339 13.4645 13.6127 12.9351 13.6127 12.3873C13.6127 9.28751 11.0998 6.77464 8.00003 6.77464Z" fill="url(#paint23_linear_1804_29542)"/>
<path d="M4.61163 0.117638V3.08234L7.99987 6.47058L11.3881 3.08234V0.117638H4.61163Z" fill="url(#paint24_linear_1804_29542)"/>
<path d="M4.61163 0.117638V1.0403L7.98854 4.4172C7.99479 4.42345 8.00495 4.42345 8.0112 4.4172L11.3881 1.0403V0.117638H4.61163Z" fill="url(#paint25_linear_1804_29542)"/>
<path d="M4.61163 0.117638V1.0403L7.98854 4.4172C7.99479 4.42345 8.00495 4.42345 8.0112 4.4172L11.3881 1.0403V0.117638H4.61163Z" fill="url(#paint26_linear_1804_29542)"/>
<path d="M7.99987 4.95106C7.86017 4.95106 7.72052 4.89791 7.61421 4.79157L4.61163 1.78899V3.08238L7.99987 6.47062L11.3881 3.08238V1.78899L8.38553 4.79157C8.27922 4.89788 8.13956 4.95106 7.99987 4.95106Z" fill="url(#paint27_linear_1804_29542)"/>
<path d="M7.99987 4.95106C7.86017 4.95106 7.72052 4.89791 7.61421 4.79157L4.61163 1.78899V3.08238L7.99987 6.47062L11.3881 3.08238V1.78899L8.38553 4.79157C8.27922 4.89788 8.13956 4.95106 7.99987 4.95106Z" fill="url(#paint28_linear_1804_29542)"/>
<path d="M7.99987 4.95106C8.13956 4.95106 8.27922 4.89791 8.38553 4.79157L11.3881 1.78899V3.08238L7.99987 6.47062L4.61163 3.08238V1.78899L7.61421 4.79157C7.72052 4.89788 7.86021 4.95106 7.99987 4.95106Z" fill="url(#paint29_linear_1804_29542)"/>
<path d="M7.62834 5.70096L4.74502 2.81764C4.52881 2.60143 4.17824 2.60143 3.96202 2.81764C3.74581 3.03385 3.74581 3.38443 3.96202 3.60064L7.99988 7.63857L12.0378 3.60067C12.254 3.38446 12.254 3.03389 12.0378 2.81767C11.8216 2.60146 11.471 2.60146 11.2548 2.81767L8.37146 5.70099C8.16622 5.90619 7.83354 5.90619 7.62834 5.70096Z" fill="url(#paint30_linear_1804_29542)"/>
<path d="M3.9621 2.8242L7.57484 6.43694C7.80965 6.67176 8.19037 6.67176 8.42518 6.43694L12.0379 2.8242C12.0389 2.82314 12.0398 2.82198 12.0409 2.82092C12.0398 2.81986 12.0389 2.8187 12.0379 2.81764C11.8217 2.60143 11.4711 2.60143 11.2549 2.81764L8.37157 5.70096C8.16637 5.90616 7.83365 5.90616 7.62845 5.70096L4.74513 2.81764C4.52892 2.60143 4.17834 2.60143 3.96213 2.81764C3.96107 2.8187 3.96023 2.81986 3.95917 2.82092C3.96019 2.82198 3.96104 2.82314 3.9621 2.8242Z" fill="url(#paint31_linear_1804_29542)"/>
<path d="M7.99977 7.63857L10.8501 4.78825H9.28405L8.37131 5.70099C8.16611 5.90619 7.83339 5.90619 7.62819 5.70099L6.71545 4.78825H5.14941L7.99977 7.63857Z" fill="url(#paint32_linear_1804_29542)"/>
<path d="M7.64685 7.28562L7.99979 7.63856L11.6148 4.02352H10.0488L8.37137 5.70094C8.17213 5.90018 7.85311 5.90537 7.64685 5.71778V7.28562Z" fill="url(#paint33_linear_1804_29542)"/>
<path d="M7.99985 8.02934C8.73078 8.02934 9.32331 7.43681 9.32331 6.70588C9.32331 5.97496 8.73078 5.38242 7.99985 5.38242C7.26892 5.38242 6.67639 5.97496 6.67639 6.70588C6.67639 7.43681 7.26892 8.02934 7.99985 8.02934Z" fill="url(#paint34_linear_1804_29542)"/>
<path d="M7.99984 7.46463C8.41889 7.46463 8.75859 7.12493 8.75859 6.70588C8.75859 6.28683 8.41889 5.94713 7.99984 5.94713C7.58079 5.94713 7.24109 6.28683 7.24109 6.70588C7.24109 7.12493 7.58079 7.46463 7.99984 7.46463Z" fill="url(#paint35_linear_1804_29542)"/>
<path d="M11.9 1.31764H4.09984C3.87572 1.31764 3.69403 1.13594 3.69403 0.911824V0.405812C3.69403 0.181694 3.87572 0 4.09984 0H11.9C12.1241 0 12.3058 0.181694 12.3058 0.405812V0.911859C12.3058 1.13598 12.1241 1.31764 11.9 1.31764Z" fill="url(#paint36_linear_1804_29542)"/>
<defs>
<linearGradient id="paint0_linear_1804_29542" x1="2.25621" y1="12.5436" x2="2.89452" y2="14.2065" gradientUnits="userSpaceOnUse">
<stop stop-color="#E6E6E6"/>
<stop offset="1" stop-color="#999999"/>
</linearGradient>
<linearGradient id="paint1_linear_1804_29542" x1="1.92557" y1="13.4125" x2="3.32144" y2="14.5725" gradientUnits="userSpaceOnUse">
<stop stop-color="#766E6E" stop-opacity="0"/>
<stop offset="0.2806" stop-color="#716B6B" stop-opacity="0.281"/>
<stop offset="0.5705" stop-color="#656060" stop-opacity="0.571"/>
<stop offset="0.8636" stop-color="#514F4F" stop-opacity="0.864"/>
<stop offset="1" stop-color="#444444"/>
</linearGradient>
<linearGradient id="paint2_linear_1804_29542" x1="1.53698" y1="11.0793" x2="2.87447" y2="12.765" gradientUnits="userSpaceOnUse">
<stop stop-color="#E6E6E6"/>
<stop offset="1" stop-color="#999999"/>
</linearGradient>
<linearGradient id="paint3_linear_1804_29542" x1="1.86608" y1="12.6531" x2="3.13708" y2="12.9707" gradientUnits="userSpaceOnUse">
<stop stop-color="#766E6E" stop-opacity="0"/>
<stop offset="0.2806" stop-color="#716B6B" stop-opacity="0.281"/>
<stop offset="0.5705" stop-color="#656060" stop-opacity="0.571"/>
<stop offset="0.8636" stop-color="#514F4F" stop-opacity="0.864"/>
<stop offset="1" stop-color="#444444"/>
</linearGradient>
<linearGradient id="paint4_linear_1804_29542" x1="3.29598" y1="8.94616" x2="3.43472" y2="11.8042" gradientUnits="userSpaceOnUse">
<stop stop-color="#E6E6E6"/>
<stop offset="1" stop-color="#999999"/>
</linearGradient>
<linearGradient id="paint5_linear_1804_29542" x1="3.08264" y1="10.4253" x2="3.91371" y2="11.6532" gradientUnits="userSpaceOnUse">
<stop stop-color="#766E6E" stop-opacity="0"/>
<stop offset="0.2806" stop-color="#716B6B" stop-opacity="0.281"/>
<stop offset="0.5705" stop-color="#656060" stop-opacity="0.571"/>
<stop offset="0.8636" stop-color="#514F4F" stop-opacity="0.864"/>
<stop offset="1" stop-color="#444444"/>
</linearGradient>
<linearGradient id="paint6_linear_1804_29542" x1="13.7452" y1="12.5423" x2="13.1069" y2="14.2053" gradientUnits="userSpaceOnUse">
<stop stop-color="#E6E6E6"/>
<stop offset="1" stop-color="#999999"/>
</linearGradient>
<linearGradient id="paint7_linear_1804_29542" x1="14.0758" y1="13.4112" x2="12.68" y2="14.5712" gradientUnits="userSpaceOnUse">
<stop stop-color="#766E6E" stop-opacity="0"/>
<stop offset="0.2806" stop-color="#716B6B" stop-opacity="0.281"/>
<stop offset="0.5705" stop-color="#656060" stop-opacity="0.571"/>
<stop offset="0.8636" stop-color="#514F4F" stop-opacity="0.864"/>
<stop offset="1" stop-color="#444444"/>
</linearGradient>
<linearGradient id="paint8_linear_1804_29542" x1="14.4645" y1="11.078" x2="13.1269" y2="12.7637" gradientUnits="userSpaceOnUse">
<stop stop-color="#E6E6E6"/>
<stop offset="1" stop-color="#999999"/>
</linearGradient>
<linearGradient id="paint9_linear_1804_29542" x1="14.1353" y1="12.6519" x2="12.8643" y2="12.9695" gradientUnits="userSpaceOnUse">
<stop stop-color="#766E6E" stop-opacity="0"/>
<stop offset="0.2806" stop-color="#716B6B" stop-opacity="0.281"/>
<stop offset="0.5705" stop-color="#656060" stop-opacity="0.571"/>
<stop offset="0.8636" stop-color="#514F4F" stop-opacity="0.864"/>
<stop offset="1" stop-color="#444444"/>
</linearGradient>
<linearGradient id="paint10_linear_1804_29542" x1="12.7054" y1="8.94487" x2="12.5667" y2="11.8029" gradientUnits="userSpaceOnUse">
<stop stop-color="#E6E6E6"/>
<stop offset="1" stop-color="#999999"/>
</linearGradient>
<linearGradient id="paint11_linear_1804_29542" x1="12.9188" y1="10.424" x2="12.0877" y2="11.6519" gradientUnits="userSpaceOnUse">
<stop stop-color="#766E6E" stop-opacity="0"/>
<stop offset="0.2806" stop-color="#716B6B" stop-opacity="0.281"/>
<stop offset="0.5705" stop-color="#656060" stop-opacity="0.571"/>
<stop offset="0.8636" stop-color="#514F4F" stop-opacity="0.864"/>
<stop offset="1" stop-color="#444444"/>
</linearGradient>
<linearGradient id="paint12_linear_1804_29542" x1="4.53956" y1="8.92687" x2="10.459" y2="14.8463" gradientUnits="userSpaceOnUse">
<stop stop-color="#E6E6E6"/>
<stop offset="1" stop-color="#999999"/>
</linearGradient>
<linearGradient id="paint13_linear_1804_29542" x1="10.9057" y1="15.2929" x2="5.00967" y2="9.39692" gradientUnits="userSpaceOnUse">
<stop stop-color="#E6E6E6"/>
<stop offset="1" stop-color="#999999"/>
</linearGradient>
<linearGradient id="paint14_linear_1804_29542" x1="5.2078" y1="9.59525" x2="9.8037" y2="14.1911" gradientUnits="userSpaceOnUse">
<stop stop-color="#E6E6E6"/>
<stop offset="1" stop-color="#999999"/>
</linearGradient>
<linearGradient id="paint15_linear_1804_29542" x1="8.00001" y1="14.0295" x2="8.00001" y2="17.7135" gradientUnits="userSpaceOnUse">
<stop stop-color="#766E6E" stop-opacity="0"/>
<stop offset="0.2806" stop-color="#716B6B" stop-opacity="0.281"/>
<stop offset="0.5705" stop-color="#656060" stop-opacity="0.571"/>
<stop offset="0.8636" stop-color="#514F4F" stop-opacity="0.864"/>
<stop offset="1" stop-color="#444444"/>
</linearGradient>
<linearGradient id="paint16_linear_1804_29542" x1="11.3614" y1="15.3042" x2="6.72608" y2="12.3866" gradientUnits="userSpaceOnUse">
<stop stop-color="#766E6E" stop-opacity="0"/>
<stop offset="0.2806" stop-color="#716B6B" stop-opacity="0.281"/>
<stop offset="0.5705" stop-color="#656060" stop-opacity="0.571"/>
<stop offset="0.8636" stop-color="#514F4F" stop-opacity="0.864"/>
<stop offset="1" stop-color="#444444"/>
</linearGradient>
<linearGradient id="paint17_linear_1804_29542" x1="6.83082" y1="11.3205" x2="8.93915" y2="13.4288" gradientUnits="userSpaceOnUse">
<stop stop-color="#F9F5F3"/>
<stop offset="1" stop-color="#D8E8F0"/>
</linearGradient>
<linearGradient id="paint18_linear_1804_29542" x1="9.26328" y1="11.8953" x2="6.34929" y2="13.1" gradientUnits="userSpaceOnUse">
<stop stop-color="#678D98" stop-opacity="0"/>
<stop offset="0.9957" stop-color="#678D98" stop-opacity="0.996"/>
<stop offset="1" stop-color="#678D98"/>
</linearGradient>
<linearGradient id="paint19_linear_1804_29542" x1="8.50233" y1="12.9294" x2="6.90697" y2="12.2457" gradientUnits="userSpaceOnUse">
<stop stop-color="#678D98" stop-opacity="0"/>
<stop offset="0.9957" stop-color="#678D98" stop-opacity="0.996"/>
<stop offset="1" stop-color="#678D98"/>
</linearGradient>
<linearGradient id="paint20_linear_1804_29542" x1="7.49753" y1="12.9294" x2="9.09289" y2="12.2457" gradientUnits="userSpaceOnUse">
<stop stop-color="#678D98" stop-opacity="0"/>
<stop offset="0.9957" stop-color="#678D98" stop-opacity="0.996"/>
<stop offset="1" stop-color="#678D98"/>
</linearGradient>
<linearGradient id="paint21_linear_1804_29542" x1="7.53298" y1="13.0095" x2="8.55856" y2="11.3612" gradientUnits="userSpaceOnUse">
<stop stop-color="#678D98" stop-opacity="0"/>
<stop offset="0.9957" stop-color="#678D98" stop-opacity="0.996"/>
<stop offset="1" stop-color="#678D98"/>
</linearGradient>
<linearGradient id="paint22_linear_1804_29542" x1="8.38837" y1="12.8013" x2="8.30293" y2="11.1897" gradientUnits="userSpaceOnUse">
<stop stop-color="#678D98" stop-opacity="0"/>
<stop offset="0.9957" stop-color="#678D98" stop-opacity="0.996"/>
<stop offset="1" stop-color="#678D98"/>
</linearGradient>
<linearGradient id="paint23_linear_1804_29542" x1="10.7658" y1="10.0162" x2="8.60113" y2="6.22796" gradientUnits="userSpaceOnUse">
<stop stop-color="#766E6E" stop-opacity="0"/>
<stop offset="0.2806" stop-color="#716B6B" stop-opacity="0.281"/>
<stop offset="0.5705" stop-color="#656060" stop-opacity="0.571"/>
<stop offset="0.8636" stop-color="#514F4F" stop-opacity="0.864"/>
<stop offset="1" stop-color="#444444"/>
</linearGradient>
<linearGradient id="paint24_linear_1804_29542" x1="8.25088" y1="2.00033" x2="9.645" y2="4.22386" gradientUnits="userSpaceOnUse">
<stop stop-color="#F9F5F3"/>
<stop offset="1" stop-color="#D8E8F0"/>
</linearGradient>
<linearGradient id="paint25_linear_1804_29542" x1="6.86033" y1="-0.727762" x2="11.1898" y2="4.23692" gradientUnits="userSpaceOnUse">
<stop stop-color="#B3DAFE"/>
<stop offset="1" stop-color="#0182FC"/>
</linearGradient>
<linearGradient id="paint26_linear_1804_29542" x1="7.99987" y1="2.34706" x2="7.99987" y2="1.18116" gradientUnits="userSpaceOnUse">
<stop stop-color="#0182FC" stop-opacity="0"/>
<stop offset="0.1261" stop-color="#017FF3" stop-opacity="0.126"/>
<stop offset="0.3306" stop-color="#0176DB" stop-opacity="0.331"/>
<stop offset="0.5881" stop-color="#0268B4" stop-opacity="0.588"/>
<stop offset="0.8857" stop-color="#02547E" stop-opacity="0.886"/>
<stop offset="1" stop-color="#024C67"/>
</linearGradient>
<linearGradient id="paint27_linear_1804_29542" x1="5.94063" y1="0.0742642" x2="10.27" y2="5.03895" gradientUnits="userSpaceOnUse">
<stop stop-color="#B3DAFE"/>
<stop offset="1" stop-color="#0182FC"/>
</linearGradient>
<linearGradient id="paint28_linear_1804_29542" x1="9.34087" y1="3.77665" x2="9.94334" y2="4.37912" gradientUnits="userSpaceOnUse">
<stop stop-color="#0182FC" stop-opacity="0"/>
<stop offset="0.1261" stop-color="#017FF3" stop-opacity="0.126"/>
<stop offset="0.3306" stop-color="#0176DB" stop-opacity="0.331"/>
<stop offset="0.5881" stop-color="#0268B4" stop-opacity="0.588"/>
<stop offset="0.8857" stop-color="#02547E" stop-opacity="0.886"/>
<stop offset="1" stop-color="#024C67"/>
</linearGradient>
<linearGradient id="paint29_linear_1804_29542" x1="6.65887" y1="3.77665" x2="6.0564" y2="4.37912" gradientUnits="userSpaceOnUse">
<stop stop-color="#0182FC" stop-opacity="0"/>
<stop offset="0.1261" stop-color="#017FF3" stop-opacity="0.126"/>
<stop offset="0.3306" stop-color="#0176DB" stop-opacity="0.331"/>
<stop offset="0.5881" stop-color="#0268B4" stop-opacity="0.588"/>
<stop offset="0.8857" stop-color="#02547E" stop-opacity="0.886"/>
<stop offset="1" stop-color="#024C67"/>
</linearGradient>
<linearGradient id="paint30_linear_1804_29542" x1="11.0594" y1="6.26866" x2="3.82198" y2="-0.968749" gradientUnits="userSpaceOnUse">
<stop stop-color="#E6E6E6"/>
<stop offset="1" stop-color="#999999"/>
</linearGradient>
<linearGradient id="paint31_linear_1804_29542" x1="7.99999" y1="2.88237" x2="7.99999" y2="7.82492" gradientUnits="userSpaceOnUse">
<stop stop-color="#E6E6E6"/>
<stop offset="1" stop-color="#999999"/>
</linearGradient>
<linearGradient id="paint32_linear_1804_29542" x1="7.99977" y1="5.75295" x2="7.99977" y2="7.37803" gradientUnits="userSpaceOnUse">
<stop stop-color="#766E6E" stop-opacity="0"/>
<stop offset="0.2806" stop-color="#716B6B" stop-opacity="0.281"/>
<stop offset="0.5705" stop-color="#656060" stop-opacity="0.571"/>
<stop offset="0.8636" stop-color="#514F4F" stop-opacity="0.864"/>
<stop offset="1" stop-color="#444444"/>
</linearGradient>
<linearGradient id="paint33_linear_1804_29542" x1="9.66804" y1="4.83278" x2="8.6798" y2="5.83866" gradientUnits="userSpaceOnUse">
<stop stop-color="#766E6E" stop-opacity="0"/>
<stop offset="0.2806" stop-color="#716B6B" stop-opacity="0.281"/>
<stop offset="0.5705" stop-color="#656060" stop-opacity="0.571"/>
<stop offset="0.8636" stop-color="#514F4F" stop-opacity="0.864"/>
<stop offset="1" stop-color="#444444"/>
</linearGradient>
<linearGradient id="paint34_linear_1804_29542" x1="7.24103" y1="5.94706" x2="9.11267" y2="7.81871" gradientUnits="userSpaceOnUse">
<stop stop-color="#F9F5F3"/>
<stop offset="1" stop-color="#D8E8F0"/>
</linearGradient>
<linearGradient id="paint35_linear_1804_29542" x1="8.53808" y1="7.24412" x2="7.61157" y2="6.31761" gradientUnits="userSpaceOnUse">
<stop stop-color="#F9F5F3"/>
<stop offset="1" stop-color="#D8E8F0"/>
</linearGradient>
<linearGradient id="paint36_linear_1804_29542" x1="7.99991" y1="0.399988" x2="7.99991" y2="1.13545" gradientUnits="userSpaceOnUse">
<stop stop-color="#E6E6E6"/>
<stop offset="1" stop-color="#999999"/>
</linearGradient>
</defs>
</svg>
