<svg width="95" height="28" viewBox="0 0 95 28" fill="none" xmlns="http://www.w3.org/2000/svg">
<path fill-rule="evenodd" clip-rule="evenodd" d="M2.62217 19.7484C3.17393 19.7484 3.62167 19.2917 3.62167 18.7283V14.9866C3.62167 14.4232 3.17393 13.9664 2.62217 13.9664H0.999626C0.447733 13.9664 0 14.4232 0 14.9866V18.7283C0 19.2917 0.447733 19.7484 0.999626 19.7484H2.62217Z" fill="#1F55A6"/>
<path fill-rule="evenodd" clip-rule="evenodd" d="M8.99584 19.7488C9.52012 19.7488 9.97311 19.3785 10.0733 18.853C10.3588 17.3589 10.8948 14.195 11.0343 10.8907C11.0665 10.1217 10.3366 9.5787 9.59024 9.68905C8.72265 9.81748 7.97913 9.78514 7.14454 9.7227C6.37328 9.66497 5.78606 10.4043 5.94648 11.1766C6.43493 13.5332 6.73945 16.4736 6.86403 18.6424C6.89935 19.2593 7.39551 19.7488 8.00083 19.7488H8.99584Z" fill="#1F55A6"/>
<path fill-rule="evenodd" clip-rule="evenodd" d="M18.5445 5.47765C19.1612 4.93778 20.1295 5.44899 20.0234 6.34951C19.4217 11.4707 18.1788 15.5615 16.472 19.2472C16.0843 20.085 15.0226 19.7142 14.9796 18.7596C14.8201 15.229 14.1853 11.7939 12.7947 8.59029C12.4232 7.73414 13.2438 6.51079 14.0434 6.67377C15.9084 7.0538 17.2985 6.56852 18.5445 5.47765Z" fill="#1F55A6"/>
<path fill-rule="evenodd" clip-rule="evenodd" d="M15.2767 5.25679C16.6989 5.25679 17.8516 4.08018 17.8516 2.62866C17.8516 1.17661 16.6989 0 15.2767 0C13.8544 0 12.7017 1.17661 12.7017 2.62866C12.7017 4.08018 13.8544 5.25679 15.2767 5.25679Z" fill="#1F55A6"/>
<path fill-rule="evenodd" clip-rule="evenodd" d="M91.5314 13.2734C91.5314 12.4574 91.3448 11.7775 90.9711 11.234C90.5442 10.5991 89.9483 10.2823 89.1835 10.2823C88.401 10.2823 87.7961 10.5903 87.3693 11.2064C86.9778 11.7508 86.7821 12.4394 86.7821 13.2734C86.7821 14.0709 86.9688 14.7507 87.3426 15.3129C87.7518 15.9478 88.3299 16.2739 89.077 16.2918C89.3435 16.2918 89.7975 16.1469 90.4377 15.8568C91.1668 15.3313 91.5314 14.47 91.5314 13.2734ZM95 13.2734C95 15.0505 94.4662 16.5459 93.3992 17.7605C92.2963 19.0295 90.8913 19.6646 89.1835 19.6646C87.4046 19.6646 85.9816 19.0568 84.9145 17.8422C83.8474 16.6276 83.3137 15.1046 83.3137 13.2734C83.3137 11.4603 83.8474 9.93722 84.9145 8.70471C85.9816 7.47206 87.4046 6.85547 89.1835 6.85547C90.8913 6.85547 92.2873 7.48541 93.3725 8.74581C94.4576 10.0055 95 11.5148 95 13.2734ZM82.9141 17.2709C82.9141 18.087 82.3807 18.7215 81.3133 19.175C80.4954 19.5011 79.6145 19.6646 78.6717 19.6646C77.0533 19.6646 75.6926 19.0295 74.5897 17.7605C73.4869 16.4913 72.9354 15.014 72.9354 13.3279C72.9354 12.5304 73.0777 11.6958 73.3622 10.8258C73.7891 9.57472 74.5009 8.60024 75.4968 7.90249C76.4931 7.20422 77.6581 6.85547 78.992 6.85547C79.9173 6.85547 80.7442 7.02775 81.4732 7.37178C82.4337 7.82538 82.9141 8.4599 82.9141 9.27586C82.9141 10.2549 82.4786 10.7805 81.6028 10.8531C81.5312 10.871 81.469 10.8891 81.4156 10.9075C81.1623 10.871 80.7709 10.7579 80.2376 10.5677C79.6993 10.3773 79.2811 10.2823 78.9744 10.2823C78.1565 10.2823 77.5113 10.5903 77.0486 11.2064C76.6173 11.7508 76.4039 12.4573 76.4039 13.3279C76.4039 14.7056 76.8842 15.6213 77.8493 16.0748C78.1737 16.2194 78.5032 16.2918 78.8411 16.2918C79.2901 16.2918 79.8416 16.1833 80.504 15.9659C81.02 15.7843 81.3269 15.6938 81.4156 15.6938C81.8248 15.6938 82.176 15.8522 82.4741 16.1699C82.7677 16.4873 82.9141 16.8543 82.9141 17.2709ZM71.9196 17.6247C71.9196 18.1507 71.7597 18.5852 71.4394 18.9303C71.1195 19.2743 70.7013 19.4466 70.1852 19.4466C69.6873 19.4466 69.2736 19.2743 68.9446 18.9303C68.6156 18.5852 68.4512 18.1507 68.4512 17.6247V12.0223C68.4512 11.4243 68.3085 10.9347 68.0244 10.5538C67.7041 10.1007 67.2682 9.87398 66.7168 9.87398C66.1653 9.87398 65.7385 10.0874 65.4359 10.5131C65.1337 10.9395 64.9822 11.4423 64.9822 12.0223V17.6247C64.9822 18.1507 64.8223 18.5852 64.502 18.9303C64.1821 19.2743 63.7644 19.4466 63.2482 19.4466C62.7499 19.4466 62.3367 19.2743 62.0076 18.9303C61.6787 18.5852 61.5138 18.1507 61.5138 17.6247V12.0223C61.5138 11.4423 61.3629 10.9395 61.0603 10.5131C60.7581 10.0874 60.3313 9.87398 59.7794 9.87398C59.2279 9.87398 58.7971 10.0874 58.4858 10.5131C58.1744 10.9395 58.0186 11.4423 58.0186 12.0223V17.6247C58.0186 18.1507 57.8587 18.5852 57.5383 18.9303C57.2179 19.2743 56.8003 19.4466 56.2846 19.4466C55.7861 19.4466 55.3726 19.2743 55.0435 18.9303C54.7142 18.5852 54.5502 18.1507 54.5502 17.6247V8.94937C54.5502 8.44183 54.7192 8.00683 55.0571 7.64434C55.3947 7.28133 55.8044 7.10027 56.2846 7.10027C57.1736 7.10027 57.7517 7.48083 58.0186 8.24233C58.6234 7.31785 59.6285 6.85547 61.0336 6.85547C62.4566 6.85547 63.5242 7.35385 64.2351 8.35085C65.0003 7.80732 65.5427 7.4536 65.863 7.29061C66.4499 7.00052 67.0814 6.85547 67.7575 6.85547C69.0203 6.85547 70.0298 7.23197 70.7855 7.98378C71.5418 8.73651 71.9196 9.75617 71.9196 11.0433V17.6247ZM50.0201 12.0223C50.0201 11.4603 49.7799 10.962 49.2997 10.527C48.8193 10.0916 48.3033 9.87398 47.7519 9.87398C47.2005 9.87398 46.6934 10.0961 46.2308 10.5404C45.7687 10.9846 45.5376 11.4788 45.5376 12.0223H50.0201ZM53.4885 12.8929C53.4885 13.491 53.3548 13.8988 53.0884 14.1168C52.8215 14.3342 52.3944 14.4427 51.8075 14.4427H45.5376C45.5376 15.1138 45.8574 15.6213 46.4977 15.9659C46.9962 16.2558 47.6096 16.4009 48.3391 16.4009C48.8017 16.4009 49.2018 16.3376 49.5398 16.2106C49.5752 16.1926 49.9756 16.0111 50.7405 15.6666C51.3096 15.4126 51.6919 15.2855 51.8877 15.2855C52.2969 15.2855 52.6344 15.4351 52.9013 15.7344C53.1682 16.0337 53.3019 16.4009 53.3019 16.8359C53.3019 17.7784 52.5991 18.522 51.1936 19.066C50.1088 19.4651 49.0061 19.6646 47.8856 19.6646C46.0709 19.6646 44.6038 19.066 43.4833 17.8694C42.3623 16.6729 41.8023 15.141 41.8023 13.2734C41.8023 11.5148 42.3845 10.0055 43.5494 8.74581C44.7147 7.48541 46.1602 6.85547 47.8856 6.85547C49.4863 6.85547 50.8202 7.44902 51.8877 8.63676C52.9547 9.82411 53.4885 11.2428 53.4885 12.8929ZM33.2859 15.7211C33.2859 16.9356 32.8322 17.9147 31.9247 18.6583C31.0711 19.3288 30.0394 19.6646 28.83 19.6646C27.816 19.6646 26.8732 19.5011 26.0018 19.175C24.8097 18.7396 24.2139 18.087 24.2139 17.217C24.2139 16.7639 24.3384 16.3649 24.5877 16.0199C24.8365 15.6758 25.1744 15.5036 25.6012 15.5036C26.0104 15.5036 26.5664 15.6799 27.2691 16.0337C27.9714 16.387 28.5097 16.5644 28.8831 16.5644C29.5949 16.5644 29.9506 16.3283 29.9506 15.8568C29.9506 15.6213 29.8749 15.4399 29.7236 15.3129C29.5723 15.1863 29.1767 14.9956 28.5364 14.742C27.2913 14.2341 26.5265 13.8988 26.242 13.7357C25.3526 13.2281 24.8097 12.6296 24.6139 11.9406C24.5433 11.6326 24.5075 11.2881 24.5075 10.9075C24.5075 9.711 24.9697 8.72263 25.8948 7.94307C26.7667 7.21809 27.807 6.85547 29.0163 6.85547C29.9062 6.85547 30.7422 7.05459 31.5246 7.4536C32.5033 7.92514 32.9923 8.56882 32.9923 9.38491C32.9923 9.81953 32.8586 10.182 32.5922 10.472C32.3253 10.7625 31.9781 10.9075 31.5513 10.9075C31.3556 10.9075 30.9333 10.7579 30.2841 10.4586C29.6348 10.1599 29.1322 10.0103 28.7762 10.0103C28.1718 10.0103 27.8694 10.2637 27.8694 10.7718C27.8694 11.0979 28.3407 11.4423 29.2837 11.8049C30.5822 12.3124 31.4535 12.7202 31.898 13.0286C32.8233 13.7177 33.2859 14.615 33.2859 15.7211ZM39.6573 17.5429C39.6573 18.8125 39.0347 19.4466 37.7897 19.4466C37.3446 19.4466 36.9668 19.261 36.6556 18.8892C36.3442 18.5178 36.1888 18.0958 36.1888 17.6247V10.2794H34.9877C34.1069 10.2794 33.3868 9.54605 33.3868 8.64828V8.64788C33.3868 7.7501 34.1069 7.01623 34.9877 7.01623H40.8584C41.7392 7.01623 42.4593 7.7501 42.4593 8.64788V8.64828C42.4593 9.54605 41.7392 10.2794 40.8584 10.2794H39.6573V17.5429Z" fill="#36454F"/>
<path d="M46.8196 27.9441L46.8116 24.2395L44.9738 27.3053H44.5103L42.6725 24.2874V27.9441H41.6816V22.3552H42.5366L44.758 26.0598L46.9395 22.3552H47.7945L47.8025 27.9441H46.8196Z" fill="#1F55A6"/>
<path d="M50.8475 23.6327C51.4761 23.6327 51.9556 23.7844 52.2859 24.0878C52.6215 24.3859 52.7893 24.8383 52.7893 25.4451V27.9441H51.8464V27.4251C51.7238 27.6114 51.5481 27.7551 51.319 27.8562C51.0952 27.9521 50.8236 28 50.5039 28C50.1843 28 49.9046 27.9467 49.6649 27.8403C49.4252 27.7285 49.2388 27.5768 49.1056 27.3852C48.9777 27.1882 48.9138 26.9674 48.9138 26.7225C48.9138 26.3393 49.055 26.0332 49.3373 25.8043C49.625 25.5701 50.0751 25.453 50.6877 25.453H51.7904V25.3892C51.7904 25.0911 51.6999 24.8622 51.5188 24.7026C51.343 24.5429 51.0793 24.463 50.7277 24.463C50.488 24.463 50.2509 24.5003 50.0165 24.5748C49.7874 24.6493 49.593 24.7531 49.4332 24.8862L49.0417 24.1596C49.2654 23.9893 49.5344 23.8589 49.8487 23.7684C50.163 23.6779 50.496 23.6327 50.8475 23.6327ZM50.7117 27.2734C50.9621 27.2734 51.1831 27.2175 51.3749 27.1057C51.572 26.9886 51.7105 26.8236 51.7904 26.6107V26.1157H50.7596C50.1843 26.1157 49.8967 26.3047 49.8967 26.6826C49.8967 26.8636 49.9686 27.0073 50.1124 27.1137C50.2562 27.2202 50.456 27.2734 50.7117 27.2734Z" fill="#1F55A6"/>
<path d="M56.6361 27.7125C56.5189 27.8083 56.3751 27.8802 56.2046 27.9281C56.0395 27.976 55.8637 28 55.6773 28C55.2085 28 54.8462 27.8775 54.5905 27.6327C54.3348 27.3878 54.207 27.0312 54.207 26.5628V24.5109H53.5038V23.7125H54.207V22.7385H55.2058V23.7125H56.3485V24.5109H55.2058V26.5389C55.2058 26.7465 55.2564 26.9061 55.3576 27.0179C55.4589 27.1244 55.6053 27.1776 55.7971 27.1776C56.0209 27.1776 56.2073 27.1191 56.3565 27.002L56.6361 27.7125Z" fill="#1F55A6"/>
<path d="M59.879 23.6327C60.417 23.6327 60.8485 23.7897 61.1735 24.1037C61.4984 24.4178 61.6609 24.8835 61.6609 25.501V27.9441H60.6621V25.6287C60.6621 25.2561 60.5742 24.9767 60.3984 24.7904C60.2226 24.5988 59.9722 24.503 59.6472 24.503C59.2797 24.503 58.9893 24.6147 58.7763 24.8383C58.5632 25.0565 58.4566 25.3732 58.4566 25.7884V27.9441H57.4578V22.0199H58.4566V24.1756C58.6218 24 58.8242 23.8669 59.0639 23.7764C59.309 23.6806 59.5807 23.6327 59.879 23.6327Z" fill="#1F55A6"/>
<path d="M66.9783 25.8363C66.9783 25.9055 66.973 26.0039 66.9623 26.1317H63.6142C63.6728 26.4457 63.8246 26.6959 64.0697 26.8822C64.3201 27.0632 64.629 27.1536 64.9966 27.1536C65.4654 27.1536 65.8516 26.9993 66.1553 26.6906L66.6906 27.3053C66.4988 27.5342 66.2565 27.7072 65.9635 27.8243C65.6705 27.9414 65.3402 28 64.9726 28C64.5038 28 64.091 27.9068 63.7341 27.7205C63.3772 27.5342 63.1002 27.2761 62.9031 26.9461C62.7113 26.6107 62.6154 26.2328 62.6154 25.8123C62.6154 25.3972 62.7086 25.0246 62.8951 24.6946C63.0868 24.3592 63.3505 24.0984 63.6861 23.9121C64.0217 23.7258 64.4 23.6327 64.8208 23.6327C65.2363 23.6327 65.6066 23.7258 65.9315 23.9121C66.2618 24.0931 66.5175 24.3513 66.6986 24.6866C66.8851 25.0166 66.9783 25.3998 66.9783 25.8363ZM64.8208 24.4311C64.5012 24.4311 64.2295 24.5269 64.0058 24.7185C63.7874 24.9048 63.6542 25.155 63.6062 25.469H66.0274C65.9848 25.1603 65.8543 24.9101 65.6359 24.7185C65.4174 24.5269 65.1458 24.4311 64.8208 24.4311Z" fill="#1F55A6"/>
<path d="M73.3234 23.6327C73.8615 23.6327 74.2876 23.7897 74.6019 24.1037C74.9162 24.4125 75.0734 24.8782 75.0734 25.501V27.9441H74.0745V25.6287C74.0745 25.2561 73.992 24.9767 73.8268 24.7904C73.6617 24.5988 73.4246 24.503 73.1157 24.503C72.7801 24.503 72.511 24.6147 72.3086 24.8383C72.1062 25.0565 72.005 25.3705 72.005 25.7804V27.9441H71.0061V25.6287C71.0061 25.2561 70.9236 24.9767 70.7584 24.7904C70.5933 24.5988 70.3562 24.503 70.0473 24.503C69.7063 24.503 69.4346 24.6121 69.2322 24.8303C69.0351 25.0485 68.9366 25.3652 68.9366 25.7804V27.9441H67.9377V23.6806H68.8886V24.2235C69.0484 24.0319 69.2482 23.8855 69.4879 23.7844C69.7276 23.6833 69.994 23.6327 70.287 23.6327C70.6066 23.6327 70.8889 23.6939 71.134 23.8163C71.3844 23.9334 71.5815 24.1091 71.7253 24.3433C71.9011 24.1197 72.1275 23.9467 72.4045 23.8243C72.6815 23.6966 72.9878 23.6327 73.3234 23.6327Z" fill="#1F55A6"/>
<path d="M77.9799 23.6327C78.6084 23.6327 79.0879 23.7844 79.4182 24.0878C79.7538 24.3859 79.9216 24.8383 79.9216 25.4451V27.9441H78.9787V27.4251C78.8562 27.6114 78.6804 27.7551 78.4513 27.8562C78.2276 27.9521 77.9559 28 77.6362 28C77.3166 28 77.037 27.9467 76.7972 27.8403C76.5575 27.7285 76.3711 27.5768 76.2379 27.3852C76.11 27.1882 76.0461 26.9674 76.0461 26.7225C76.0461 26.3393 76.1873 26.0332 76.4696 25.8043C76.7573 25.5701 77.2074 25.453 77.82 25.453H78.9227V25.3892C78.9227 25.0911 78.8322 24.8622 78.6511 24.7026C78.4753 24.5429 78.2116 24.463 77.86 24.463C77.6203 24.463 77.3832 24.5003 77.1488 24.5748C76.9198 24.6493 76.7253 24.7531 76.5655 24.8862L76.174 24.1596C76.3977 23.9893 76.6667 23.8589 76.981 23.7684C77.2953 23.6779 77.6283 23.6327 77.9799 23.6327ZM77.844 27.2734C78.0944 27.2734 78.3155 27.2175 78.5072 27.1057C78.7043 26.9886 78.8428 26.8236 78.9227 26.6107V26.1157H77.892C77.3166 26.1157 77.029 26.3047 77.029 26.6826C77.029 26.8636 77.1009 27.0073 77.2447 27.1137C77.3885 27.2202 77.5883 27.2734 77.844 27.2734Z" fill="#1F55A6"/>
<path d="M83.7685 27.7125C83.6513 27.8083 83.5074 27.8802 83.337 27.9281C83.1718 27.976 82.996 28 82.8096 28C82.3408 28 81.9785 27.8775 81.7228 27.6327C81.4671 27.3878 81.3393 27.0312 81.3393 26.5628V24.5109H80.6361V23.7125H81.3393V22.7385H82.3381V23.7125H83.4808V24.5109H82.3381V26.5389C82.3381 26.7465 82.3887 26.9061 82.4899 27.0179C82.5912 27.1244 82.7377 27.1776 82.9294 27.1776C83.1532 27.1776 83.3396 27.1191 83.4888 27.002L83.7685 27.7125Z" fill="#1F55A6"/>
<path d="M84.5901 23.6806H85.5889V27.9441H84.5901V23.6806ZM85.0935 22.978C84.9124 22.978 84.7606 22.9221 84.6381 22.8103C84.5155 22.6932 84.4543 22.5495 84.4543 22.3792C84.4543 22.2089 84.5155 22.0678 84.6381 21.956C84.7606 21.8389 84.9124 21.7804 85.0935 21.7804C85.2746 21.7804 85.4265 21.8363 85.549 21.9481C85.6715 22.0545 85.7328 22.1902 85.7328 22.3552C85.7328 22.5309 85.6715 22.6799 85.549 22.8024C85.4318 22.9195 85.28 22.978 85.0935 22.978Z" fill="#1F55A6"/>
<path d="M88.8576 28C88.4155 28 88.0186 27.9068 87.667 27.7205C87.3154 27.5342 87.0411 27.2761 86.844 26.9461C86.6469 26.6107 86.5483 26.2328 86.5483 25.8123C86.5483 25.3918 86.6469 25.0166 86.844 24.6866C87.0411 24.3566 87.3128 24.0984 87.659 23.9121C88.0106 23.7258 88.4101 23.6327 88.8576 23.6327C89.2785 23.6327 89.646 23.7179 89.9603 23.8882C90.28 24.0585 90.5197 24.3033 90.6795 24.6227L89.9124 25.0698C89.7899 24.8729 89.6354 24.7265 89.4489 24.6307C89.2678 24.5296 89.068 24.479 88.8496 24.479C88.4767 24.479 88.1678 24.6014 87.9227 24.8463C87.6777 25.0858 87.5551 25.4078 87.5551 25.8123C87.5551 26.2169 87.675 26.5415 87.9147 26.7864C88.1598 27.0259 88.4714 27.1457 88.8496 27.1457C89.068 27.1457 89.2678 27.0978 89.4489 27.002C89.6354 26.9008 89.7899 26.7518 89.9124 26.5548L90.6795 27.002C90.5143 27.3213 90.272 27.5688 89.9523 27.7445C89.638 27.9148 89.2731 28 88.8576 28Z" fill="#1F55A6"/>
<path d="M92.8614 28C92.5151 28 92.1768 27.9547 91.8466 27.8642C91.5163 27.7737 91.2526 27.6593 91.0555 27.5209L91.439 26.7624C91.6308 26.8902 91.8599 26.994 92.1262 27.0738C92.3979 27.1483 92.6643 27.1856 92.9253 27.1856C93.5219 27.1856 93.8203 27.0286 93.8203 26.7145C93.8203 26.5655 93.743 26.4617 93.5885 26.4031C93.4394 26.3446 93.197 26.2887 92.8614 26.2355C92.5098 26.1823 92.2221 26.121 91.9984 26.0519C91.78 25.9827 91.5882 25.8629 91.4231 25.6926C91.2632 25.5169 91.1833 25.2747 91.1833 24.966C91.1833 24.5615 91.3511 24.2395 91.6867 24C92.0277 23.7551 92.4858 23.6327 93.0611 23.6327C93.3541 23.6327 93.6471 23.6673 93.9401 23.7365C94.2331 23.8004 94.4728 23.8882 94.6593 24L94.2757 24.7584C93.9135 24.5455 93.506 24.4391 93.0531 24.4391C92.7602 24.4391 92.5364 24.4843 92.3819 24.5748C92.2328 24.66 92.1582 24.7744 92.1582 24.9181C92.1582 25.0778 92.2381 25.1922 92.3979 25.2614C92.5631 25.3253 92.8161 25.3865 93.157 25.4451C93.498 25.4983 93.7776 25.5595 93.996 25.6287C94.2145 25.6979 94.4009 25.815 94.5554 25.98C94.7152 26.145 94.7951 26.3792 94.7951 26.6826C94.7951 27.0818 94.622 27.4012 94.2757 27.6407C93.9295 27.8802 93.458 28 92.8614 28Z" fill="#1F55A6"/>
</svg>
