<svg width="98" height="20" viewBox="0 0 98 20" fill="none" xmlns="http://www.w3.org/2000/svg">
<path fill-rule="evenodd" clip-rule="evenodd" d="M2.70497 19.9997C3.27416 19.9997 3.73604 19.5372 3.73604 18.9666V15.1773C3.73604 14.6067 3.27416 14.1442 2.70497 14.1442H1.03119C0.461872 14.1442 0 14.6067 0 15.1773V18.9666C0 19.5372 0.461872 19.9997 1.03119 19.9997H2.70497Z" fill="#F4364C"/>
<path fill-rule="evenodd" clip-rule="evenodd" d="M9.27998 20.0003C9.82082 20.0003 10.2881 19.6252 10.3915 19.0931C10.686 17.58 11.2389 14.3758 11.3828 11.0294C11.416 10.2507 10.6631 9.70076 9.89316 9.81253C8.99817 9.94258 8.23117 9.90984 7.37023 9.8466C6.57461 9.78814 5.96885 10.5369 6.13433 11.319C6.6382 13.7056 6.95234 16.6834 7.08086 18.8797C7.11729 19.5046 7.62912 20.0003 8.25356 20.0003H9.27998Z" fill="#F4364C"/>
<path fill-rule="evenodd" clip-rule="evenodd" d="M19.1298 5.54723C19.7661 5.00049 20.7649 5.5182 20.6555 6.43019C20.0348 11.6165 18.7526 15.7594 16.9919 19.492C16.5919 20.3405 15.4967 19.9649 15.4524 18.9982C15.2878 15.4226 14.633 11.9439 13.1985 8.69948C12.8152 7.83244 13.6617 6.59352 14.4866 6.75857C16.4106 7.14344 17.8445 6.65198 19.1298 5.54723Z" fill="#F4364C"/>
<path fill-rule="evenodd" clip-rule="evenodd" d="M15.7594 5.32368C17.2265 5.32368 18.4156 4.1321 18.4156 2.66211C18.4156 1.19158 17.2265 0 15.7594 0C14.2922 0 13.103 1.19158 13.103 2.66211C13.103 4.1321 14.2922 5.32368 15.7594 5.32368Z" fill="#F4364C"/>
<path fill-rule="evenodd" clip-rule="evenodd" d="M94.4063 13.4513C94.4063 12.615 94.213 11.9185 93.8257 11.3615C93.3834 10.711 92.7661 10.3863 91.9736 10.3863C91.1629 10.3863 90.5361 10.702 90.0939 11.3332C89.6883 11.8911 89.4855 12.5967 89.4855 13.4513C89.4855 14.2684 89.679 14.965 90.0662 15.541C90.4902 16.1915 91.0892 16.5257 91.8633 16.5441C92.1394 16.5441 92.6098 16.3956 93.2731 16.0983C94.0285 15.5599 94.4063 14.6773 94.4063 13.4513ZM98.0001 13.4513C98.0001 15.2722 97.4471 16.8044 96.3415 18.049C95.1988 19.3493 93.7431 20 91.9736 20C90.1305 20 88.6561 19.3772 87.5505 18.1327C86.4449 16.8881 85.8918 15.3276 85.8918 13.4513C85.8918 11.5934 86.4449 10.0328 87.5505 8.76984C88.6561 7.5068 90.1305 6.875 91.9736 6.875C93.7431 6.875 95.1895 7.52048 96.3138 8.81196C97.4382 10.1028 98.0001 11.6492 98.0001 13.4513ZM85.4778 17.5473C85.4778 18.3835 84.9252 19.0337 83.8192 19.4983C82.9718 19.8325 82.0592 20 81.0823 20C79.4054 20 77.9956 19.3493 76.8529 18.049C75.7103 16.7485 75.1389 15.2347 75.1389 13.507C75.1389 12.6899 75.2863 11.8347 75.5811 10.9433C76.0234 9.66131 76.7609 8.6628 77.7928 7.94784C78.8251 7.23235 80.032 6.875 81.4141 6.875C82.3728 6.875 83.2296 7.05153 83.9849 7.40405C84.9801 7.86883 85.4778 8.519 85.4778 9.35508C85.4778 10.3583 85.0266 10.8969 84.1192 10.9712C84.045 10.9895 83.9806 11.0081 83.9253 11.027C83.6628 10.9895 83.2572 10.8737 82.7047 10.6788C82.147 10.4837 81.7137 10.3863 81.3959 10.3863C80.5485 10.3863 79.8799 10.702 79.4006 11.3332C78.9537 11.8911 78.7326 12.615 78.7326 13.507C78.7326 14.9187 79.2303 15.857 80.2302 16.3217C80.5663 16.4699 80.9077 16.5441 81.2578 16.5441C81.723 16.5441 82.2944 16.4329 82.9807 16.2101C83.5154 16.024 83.8333 15.9313 83.9253 15.9313C84.3492 15.9313 84.7131 16.0936 85.0219 16.4192C85.3261 16.7443 85.4778 17.1205 85.4778 17.5473ZM74.0864 17.9099C74.0864 18.4488 73.9207 18.894 73.5888 19.2476C73.2574 19.6001 72.8241 19.7767 72.2894 19.7767C71.7734 19.7767 71.3448 19.6001 71.004 19.2476C70.6631 18.894 70.4927 18.4488 70.4927 17.9099V12.1693C70.4927 11.5566 70.3449 11.0549 70.0505 10.6645C69.7186 10.2003 69.267 9.96795 68.6957 9.96795C68.1243 9.96795 67.6821 10.1866 67.3685 10.6228C67.0554 11.0597 66.8985 11.5749 66.8985 12.1693V17.9099C66.8985 18.4488 66.7329 18.894 66.401 19.2476C66.0695 19.6001 65.6367 19.7767 65.1019 19.7767C64.5856 19.7767 64.1575 19.6001 63.8165 19.2476C63.4757 18.894 63.3049 18.4488 63.3049 17.9099V12.1693C63.3049 11.5749 63.1485 11.0597 62.835 10.6228C62.5219 10.1866 62.0796 9.96795 61.5078 9.96795C60.9364 9.96795 60.4901 10.1866 60.1675 10.6228C59.8449 11.0597 59.6835 11.5749 59.6835 12.1693V17.9099C59.6835 18.4488 59.5178 18.894 59.1858 19.2476C58.8539 19.6001 58.4212 19.7767 57.8869 19.7767C57.3704 19.7767 56.9419 19.6001 56.601 19.2476C56.2598 18.894 56.0898 18.4488 56.0898 17.9099V9.02054C56.0898 8.50049 56.265 8.05475 56.6151 7.68332C56.9648 7.31136 57.3893 7.12584 57.8869 7.12584C58.808 7.12584 59.407 7.51578 59.6835 8.29606C60.3102 7.34878 61.3515 6.875 62.8073 6.875C64.2818 6.875 65.3879 7.38567 66.1244 8.40726C66.9173 7.85032 67.4793 7.48788 67.8112 7.32088C68.4192 7.02363 69.0735 6.875 69.774 6.875C71.0824 6.875 72.1284 7.26079 72.9114 8.03114C73.6949 8.80243 74.0864 9.84723 74.0864 11.1661V17.9099ZM51.3962 12.1693C51.3962 11.5934 51.1473 11.0828 50.6498 10.637C50.1521 10.1909 49.6174 9.96795 49.0461 9.96795C48.4748 9.96795 47.9494 10.1956 47.4701 10.6509C46.9913 11.106 46.7519 11.6124 46.7519 12.1693H51.3962ZM54.9898 13.0613C54.9898 13.6742 54.8513 14.092 54.5753 14.3154C54.2988 14.5382 53.8562 14.6494 53.2482 14.6494H46.7519C46.7519 15.337 47.0832 15.857 47.7466 16.2101C48.2631 16.5072 48.8986 16.6558 49.6545 16.6558C50.1338 16.6558 50.5483 16.591 50.8986 16.4609C50.9352 16.4424 51.3501 16.2565 52.1426 15.9034C52.7322 15.6432 53.1284 15.5129 53.3312 15.5129C53.7552 15.5129 54.1049 15.6663 54.3814 15.9729C54.658 16.2795 54.7965 16.6558 54.7965 17.1015C54.7965 18.0673 54.0683 18.8292 52.6121 19.3867C51.4881 19.7956 50.3455 20 49.1846 20C47.3044 20 45.7843 19.3867 44.6233 18.1606C43.4619 16.9345 42.8817 15.3649 42.8817 13.4513C42.8817 11.6492 43.4849 10.1028 44.6919 8.81196C45.8993 7.52048 47.3969 6.875 49.1846 6.875C50.8431 6.875 52.2252 7.48319 53.3312 8.70022C54.4368 9.91685 54.9898 11.3705 54.9898 13.0613ZM34.0578 15.9592C34.0578 17.2038 33.5878 18.207 32.6474 18.9689C31.763 19.6559 30.6941 20 29.441 20C28.3904 20 27.4135 19.8325 26.5107 19.4983C25.2755 19.0522 24.6582 18.3835 24.6582 17.492C24.6582 17.0278 24.7873 16.6189 25.0456 16.2655C25.3033 15.9128 25.6535 15.7364 26.0957 15.7364C26.5196 15.7364 27.0957 15.9171 27.8238 16.2795C28.5514 16.6416 29.1091 16.8233 29.496 16.8233C30.2335 16.8233 30.6021 16.5815 30.6021 16.0983C30.6021 15.857 30.5236 15.6711 30.3668 15.541C30.2101 15.4113 29.8002 15.2158 29.1368 14.956C27.8468 14.4356 27.0543 14.092 26.7596 13.9249C25.838 13.4048 25.2755 12.7916 25.0727 12.0856C24.9995 11.77 24.9624 11.4169 24.9624 11.027C24.9624 9.80095 25.4413 8.78821 26.3999 7.98942C27.3032 7.24656 28.3811 6.875 29.634 6.875C30.5561 6.875 31.4222 7.07903 32.2329 7.48788C33.247 7.97105 33.7536 8.63061 33.7536 9.46682C33.7536 9.91216 33.615 10.2836 33.339 10.5807C33.0625 10.8784 32.7028 11.027 32.2606 11.027C32.0578 11.027 31.6203 10.8737 30.9476 10.567C30.2749 10.2609 29.7541 10.1076 29.3853 10.1076C28.759 10.1076 28.4458 10.3673 28.4458 10.8879C28.4458 11.222 28.934 11.5749 29.911 11.9465C31.2564 12.4665 32.1592 12.8844 32.6198 13.2004C33.5784 13.9065 34.0578 14.8259 34.0578 15.9592ZM40.6592 17.826C40.6592 19.1269 40.0142 19.7767 38.7242 19.7767C38.2631 19.7767 37.8716 19.5864 37.5491 19.2055C37.2265 18.8249 37.0655 18.3925 37.0655 17.9099V10.3834H35.821C34.9084 10.3834 34.1624 9.63194 34.1624 8.71202V8.71162C34.1624 7.7917 34.9084 7.03973 35.821 7.03973H41.9037C42.8163 7.03973 43.5624 7.7917 43.5624 8.71162V8.71202C43.5624 9.63194 42.8163 10.3834 41.9037 10.3834H40.6592V17.826Z" fill="#36454F"/>
</svg>
