<svg width="136" height="28" viewBox="0 0 136 28" fill="none" xmlns="http://www.w3.org/2000/svg">
<path fill-rule="evenodd" clip-rule="evenodd" d="M3.75384 27.9994C4.54374 27.9994 5.18471 27.3519 5.18471 26.553V21.2481C5.18471 20.4492 4.54374 19.8016 3.75384 19.8016H1.43105C0.640965 19.8016 0 20.4492 0 21.2481V26.553C0 27.3519 0.640965 27.9994 1.43105 27.9994H3.75384Z" fill="#F4364C"/>
<path fill-rule="evenodd" clip-rule="evenodd" d="M12.878 28.0002C13.6286 28.0002 14.2771 27.4751 14.4205 26.7301C14.8292 24.6118 15.5965 20.1259 15.7962 15.441C15.8423 14.3508 14.7974 13.5809 13.729 13.7374C12.4869 13.9194 11.4225 13.8736 10.2278 13.7851C9.12363 13.7032 8.28298 14.7515 8.51263 15.8464C9.21188 19.1877 9.64783 23.3566 9.82618 26.4315C9.87674 27.3062 10.587 28.0002 11.4536 28.0002H12.878Z" fill="#F4364C"/>
<path fill-rule="evenodd" clip-rule="evenodd" d="M26.5486 7.76607C27.4315 7.00064 28.8177 7.72544 28.6659 9.00222C27.8044 16.2631 26.0251 22.0631 23.5817 27.2888C23.0266 28.4766 21.5068 27.9508 21.4452 26.5974C21.2168 21.5916 20.3081 16.7213 18.3174 12.1792C17.7855 10.9654 18.9602 9.23087 20.105 9.46195C22.7749 10.0008 24.7649 9.31272 26.5486 7.76607Z" fill="#F4364C"/>
<path fill-rule="evenodd" clip-rule="evenodd" d="M21.87 7.45303C23.9059 7.45303 25.5561 5.78482 25.5561 3.72683C25.5561 1.66809 23.9059 -0.00012207 21.87 -0.00012207C19.8338 -0.00012207 18.1836 1.66809 18.1836 3.72683C18.1836 5.78482 19.8338 7.45303 21.87 7.45303Z" fill="#F4364C"/>
<path fill-rule="evenodd" clip-rule="evenodd" d="M131.012 18.8316C131.012 17.6609 130.744 16.6857 130.206 15.906C129.592 14.9952 128.736 14.5407 127.636 14.5407C126.511 14.5407 125.641 14.9826 125.028 15.8664C124.465 16.6474 124.183 17.6352 124.183 18.8316C124.183 19.9757 124.452 20.9509 124.989 21.7572C125.577 22.668 126.409 23.1358 127.483 23.1616C127.866 23.1616 128.519 22.9537 129.439 22.5375C130.488 21.7837 131.012 20.5481 131.012 18.8316ZM135.999 18.8316C135.999 21.3809 135.232 23.5261 133.698 25.2684C132.112 27.0889 130.092 27.9999 127.636 27.9999C125.078 27.9999 123.032 27.128 121.498 25.3856C119.964 23.6433 119.196 21.4585 119.196 18.8316C119.196 16.2307 119.964 14.0457 121.498 12.2777C123.032 10.5094 125.078 9.62488 127.636 9.62488C130.092 9.62488 132.099 10.5285 133.659 12.3366C135.22 14.1437 135.999 16.3088 135.999 18.8316ZM118.622 24.5661C118.622 25.7368 117.855 26.647 116.32 27.2975C115.144 27.7653 113.877 27.9999 112.522 27.9999C110.194 27.9999 108.238 27.0889 106.652 25.2684C105.067 23.4478 104.274 21.3285 104.274 18.9097C104.274 17.7657 104.478 16.5685 104.887 15.3205C105.501 13.5257 106.525 12.1278 107.957 11.1269C109.389 10.1252 111.064 9.62488 112.982 9.62488C114.312 9.62488 115.501 9.87202 116.55 10.3655C117.931 11.0162 118.622 11.9265 118.622 13.097C118.622 14.5015 117.995 15.2555 116.736 15.3595C116.633 15.3852 116.544 15.4112 116.467 15.4376C116.103 15.3852 115.54 15.223 114.773 14.9501C113.999 14.6771 113.398 14.5407 112.957 14.5407C111.781 14.5407 110.853 14.9826 110.188 15.8664C109.568 16.6474 109.261 17.6609 109.261 18.9097C109.261 20.8861 109.951 22.1997 111.339 22.8502C111.806 23.0577 112.279 23.1616 112.765 23.1616C113.411 23.1616 114.204 23.0059 115.156 22.694C115.898 22.4335 116.339 22.3037 116.467 22.3037C117.055 22.3037 117.56 22.531 117.989 22.9867C118.411 23.4419 118.622 23.9685 118.622 24.5661ZM102.813 25.0737C102.813 25.8282 102.583 26.4515 102.122 26.9465C101.662 27.4401 101.061 27.6872 100.319 27.6872C99.6032 27.6872 99.0083 27.4401 98.5354 26.9465C98.0623 26.4515 97.8259 25.8282 97.8259 25.0737V17.0369C97.8259 16.1791 97.6207 15.4767 97.2122 14.9302C96.7516 14.2803 96.1248 13.955 95.332 13.955C94.539 13.955 93.9253 14.2611 93.4903 14.8718C93.0557 15.4835 92.838 16.2048 92.838 17.0369V25.0737C92.838 25.8282 92.6081 26.4515 92.1475 26.9465C91.6875 27.4401 91.0869 27.6872 90.3447 27.6872C89.6282 27.6872 89.0341 27.4401 88.5609 26.9465C88.088 26.4515 87.8508 25.8282 87.8508 25.0737V17.0369C87.8508 16.2048 87.6339 15.4835 87.1988 14.8718C86.7642 14.2611 86.1505 13.955 85.357 13.955C84.564 13.955 83.9446 14.2611 83.497 14.8718C83.0493 15.4835 82.8253 16.2048 82.8253 17.0369V25.0737C82.8253 25.8282 82.5954 26.4515 82.1346 26.9465C81.674 27.4401 81.0735 27.6872 80.332 27.6872C79.6153 27.6872 79.0206 27.4401 78.5475 26.9465C78.074 26.4515 77.8382 25.8282 77.8382 25.0737V12.6286C77.8382 11.9006 78.0812 11.2765 78.5671 10.7565C79.0524 10.2358 79.6415 9.97605 80.332 9.97605C81.6103 9.97605 82.4415 10.522 82.8253 11.6144C83.6949 10.2882 85.14 9.62488 87.1604 9.62488C89.2065 9.62488 90.7416 10.3398 91.7637 11.77C92.864 10.9903 93.6439 10.4829 94.1045 10.2491C94.9483 9.83296 95.8563 9.62488 96.8284 9.62488C98.6442 9.62488 100.096 10.165 101.182 11.2435C102.27 12.3233 102.813 13.786 102.813 15.6324V25.0737ZM71.3245 17.0369C71.3245 16.2307 70.9792 15.5158 70.2887 14.8917C69.598 14.2671 68.8559 13.955 68.0631 13.955C67.2703 13.955 66.5412 14.2737 65.876 14.9111C65.2116 15.5483 64.8794 16.2572 64.8794 17.0369H71.3245ZM76.3116 18.2857C76.3116 19.1437 76.1194 19.7287 75.7364 20.0414C75.3526 20.3533 74.7384 20.509 73.8946 20.509H64.8794C64.8794 21.4716 65.3392 22.1997 66.2598 22.694C66.9765 23.1099 67.8585 23.318 68.9075 23.318C69.5727 23.318 70.1479 23.2273 70.634 23.0451C70.6848 23.0192 71.2606 22.7589 72.3603 22.2647C73.1786 21.9004 73.7284 21.718 74.0099 21.718C74.5982 21.718 75.0836 21.9326 75.4673 22.3619C75.8511 22.7912 76.0433 23.318 76.0433 23.942C76.0433 25.2942 75.0328 26.3608 73.0119 27.1413C71.4521 27.7137 69.8665 27.9999 68.2554 27.9999C65.6461 27.9999 63.5366 27.1413 61.9255 25.4247C60.3136 23.7082 59.5085 21.5107 59.5085 18.8316C59.5085 16.3088 60.3456 14.1437 62.0206 12.3366C63.6961 10.5285 65.7745 9.62488 68.2554 9.62488C70.557 9.62488 72.475 10.4763 74.0099 12.1802C75.5441 13.8835 76.3116 15.9186 76.3116 18.2857ZM47.2631 22.3428C47.2631 24.0851 46.6108 25.4896 45.3059 26.5563C44.0785 27.5182 42.595 27.9999 40.8561 27.9999C39.3981 27.9999 38.0424 27.7653 36.7896 27.2975C35.0755 26.6729 34.2188 25.7368 34.2188 24.4887C34.2188 23.8387 34.3979 23.2664 34.7563 22.7715C35.114 22.2778 35.5999 22.0309 36.2136 22.0309C36.802 22.0309 37.6014 22.2838 38.6118 22.7912C39.6216 23.2981 40.3956 23.5526 40.9324 23.5526C41.9559 23.5526 42.4674 23.214 42.4674 22.5375C42.4674 22.1997 42.3585 21.9394 42.1409 21.7572C41.9234 21.5756 41.3546 21.302 40.434 20.9383C38.6437 20.2097 37.544 19.7287 37.135 19.4947C35.8561 18.7666 35.0754 17.9081 34.794 16.9197C34.6924 16.4778 34.6409 15.9836 34.6409 15.4376C34.6409 13.7212 35.3056 12.3034 36.6358 11.1851C37.8893 10.1451 39.3852 9.62488 41.1239 9.62488C42.4035 9.62488 43.6056 9.91052 44.7306 10.4829C46.1378 11.1593 46.8409 12.0827 46.8409 13.2534C46.8409 13.8769 46.6486 14.3969 46.2656 14.8129C45.8819 15.2296 45.3827 15.4376 44.769 15.4376C44.4876 15.4376 43.8804 15.223 42.9468 14.7937C42.0133 14.3652 41.2907 14.1505 40.7788 14.1505C39.9097 14.1505 39.475 14.5141 39.475 15.2429C39.475 15.7107 40.1525 16.2048 41.5084 16.725C43.3755 17.453 44.6283 18.038 45.2675 18.4805C46.5979 19.469 47.2631 20.7561 47.2631 22.3428ZM56.4242 24.9563C56.4242 26.7775 55.5291 27.6872 53.7389 27.6872C53.099 27.6872 52.5557 27.4209 52.1082 26.8876C51.6605 26.3548 51.4371 25.7494 51.4371 25.0737V14.5366H49.71C48.4435 14.5366 47.4082 13.4846 47.4082 12.1967V12.1961C47.4082 10.9083 48.4435 9.85549 49.71 9.85549H58.1513C59.4178 9.85549 60.4531 10.9083 60.4531 12.1961V12.1967C60.4531 13.4846 59.4178 14.5366 58.1513 14.5366H56.4242V24.9563Z" fill="#36454F"/>
</svg>
