<svg width="164" height="48" viewBox="0 0 164 48" fill="none" xmlns="http://www.w3.org/2000/svg">
<path fill-rule="evenodd" clip-rule="evenodd" d="M4.52669 33.8544C5.47921 33.8544 6.25214 33.0714 6.25214 32.1055V25.6913C6.25214 24.7254 5.47921 23.9424 4.52669 23.9424H1.72567C0.772928 23.9424 0 24.7254 0 25.6913V32.1055C0 33.0714 0.772928 33.8544 1.72567 33.8544H4.52669Z" fill="white"/>
<path fill-rule="evenodd" clip-rule="evenodd" d="M15.5292 33.855C16.4343 33.855 17.2163 33.2202 17.3893 32.3193C17.8822 29.7581 18.8074 24.3342 19.0482 18.6697C19.1039 17.3514 17.8438 16.4206 16.5554 16.6098C15.0576 16.8299 13.7741 16.7745 12.3333 16.6674C11.0019 16.5685 9.98815 17.836 10.2651 19.1598C11.1083 23.1997 11.634 28.2404 11.8491 31.9583C11.91 33.0159 12.7666 33.855 13.8115 33.855H15.5292Z" fill="white"/>
<path fill-rule="evenodd" clip-rule="evenodd" d="M32.0136 9.39013C33.0783 8.46464 34.7499 9.341 34.5667 10.8848C33.528 19.6639 31.3823 26.6767 28.4359 32.9951C27.7665 34.4314 25.9337 33.7956 25.8594 32.1592C25.5841 26.1067 24.4883 20.218 22.0877 14.7261C21.4463 13.2584 22.8629 11.1612 24.2433 11.4406C27.4629 12.0921 29.8626 11.2602 32.0136 9.39013Z" fill="white"/>
<path fill-rule="evenodd" clip-rule="evenodd" d="M26.3726 9.01165C28.8277 9.01165 30.8177 6.9946 30.8177 4.50627C30.8177 2.01705 28.8277 0 26.3726 0C23.9172 0 21.9272 2.01705 21.9272 4.50627C21.9272 6.9946 23.9172 9.01165 26.3726 9.01165Z" fill="white"/>
<path fill-rule="evenodd" clip-rule="evenodd" d="M158.012 22.7546C158.012 21.3556 157.69 20.1902 157.045 19.2584C156.308 18.17 155.279 17.6269 153.959 17.6269C152.608 17.6269 151.564 18.1549 150.827 19.211C150.151 20.1444 149.813 21.3248 149.813 22.7546C149.813 24.1217 150.136 25.2871 150.781 26.2507C151.487 27.3391 152.485 27.8982 153.775 27.9289C154.235 27.9289 155.019 27.6805 156.124 27.1832C157.383 26.2824 158.012 24.8057 158.012 22.7546ZM164 22.7546C164 25.801 163.079 28.3645 161.236 30.4466C159.333 32.6221 156.907 33.7108 153.959 33.7108C150.888 33.7108 148.431 32.6688 146.589 30.5867C144.747 28.5046 143.826 25.8937 143.826 22.7546C143.826 19.6464 144.747 17.0353 146.589 14.9224C148.431 12.8093 150.888 11.7523 153.959 11.7523C156.907 11.7523 159.317 12.8322 161.19 14.9929C163.064 17.1525 164 19.7398 164 22.7546ZM143.136 29.6073C143.136 31.0063 142.215 32.0941 140.372 32.8715C138.96 33.4305 137.44 33.7108 135.812 33.7108C133.018 33.7108 130.669 32.6221 128.765 30.4466C126.862 28.2709 125.91 25.7384 125.91 22.8479C125.91 21.4808 126.155 20.0501 126.646 18.5586C127.383 16.4139 128.612 14.7433 130.331 13.5472C132.051 12.3502 134.062 11.7523 136.365 11.7523C137.962 11.7523 139.39 12.0477 140.648 12.6374C142.307 13.415 143.136 14.5028 143.136 15.9016C143.136 17.58 142.384 18.481 140.872 18.6053C140.749 18.6361 140.641 18.667 140.549 18.6987C140.112 18.6361 139.436 18.4422 138.515 18.1161C137.586 17.7898 136.864 17.6269 136.335 17.6269C134.923 17.6269 133.809 18.1549 133.01 19.211C132.266 20.1444 131.897 21.3555 131.897 22.8479C131.897 25.2097 132.726 26.7795 134.392 27.5568C134.953 27.8048 135.521 27.9289 136.105 27.9289C136.88 27.9289 137.832 27.7429 138.975 27.3701C139.866 27.0589 140.396 26.9038 140.549 26.9038C141.255 26.9038 141.862 27.1753 142.376 27.72C142.883 28.264 143.136 28.8932 143.136 29.6073ZM124.156 30.2139C124.156 31.1156 123.88 31.8605 123.327 32.452C122.775 33.0418 122.053 33.3371 121.162 33.3371C120.302 33.3371 119.588 33.0418 119.02 32.452C118.452 31.8605 118.168 31.1156 118.168 30.2139V20.6098C118.168 19.5847 117.922 18.7454 117.432 18.0923C116.879 17.3156 116.126 16.9269 115.174 16.9269C114.222 16.9269 113.485 17.2927 112.963 18.0225C112.441 18.7534 112.18 19.6154 112.18 20.6098V30.2139C112.18 31.1156 111.904 31.8605 111.351 32.452C110.799 33.0418 110.077 33.3371 109.186 33.3371C108.326 33.3371 107.613 33.0418 107.045 32.452C106.477 31.8605 106.192 31.1156 106.192 30.2139V20.6098C106.192 19.6154 105.932 18.7534 105.409 18.0225C104.888 17.2927 104.151 16.9269 103.198 16.9269C102.246 16.9269 101.502 17.2927 100.965 18.0225C100.427 18.7534 100.158 19.6154 100.158 20.6098V30.2139C100.158 31.1156 99.8824 31.8605 99.3292 32.452C98.7762 33.0418 98.0552 33.3371 97.165 33.3371C96.3045 33.3371 95.5905 33.0418 95.0225 32.452C94.454 31.8605 94.1708 31.1156 94.1708 30.2139V15.3419C94.1708 14.4718 94.4626 13.7261 95.046 13.1047C95.6287 12.4824 96.336 12.172 97.165 12.172C98.6998 12.172 99.6977 12.8244 100.158 14.1298C101.203 12.545 102.938 11.7523 105.363 11.7523C107.82 11.7523 109.663 12.6067 110.89 14.3158C112.211 13.3841 113.147 12.7777 113.7 12.4983C114.713 12.001 115.804 11.7523 116.971 11.7523C119.151 11.7523 120.894 12.3977 122.198 13.6866C123.504 14.977 124.156 16.7249 124.156 18.9314V30.2139ZM86.3505 20.6098C86.3505 19.6464 85.9358 18.792 85.1068 18.0463C84.2776 17.2999 83.3867 16.9269 82.4348 16.9269C81.483 16.9269 80.6076 17.3077 79.809 18.0694C79.0112 18.8309 78.6123 19.678 78.6123 20.6098H86.3505ZM92.3381 22.1022C92.3381 23.1275 92.1073 23.8266 91.6474 24.2003C91.1867 24.573 90.4492 24.759 89.4362 24.759H78.6123C78.6123 25.9094 79.1644 26.7795 80.2697 27.3701C81.1302 27.8672 82.1892 28.1159 83.4486 28.1159C84.2472 28.1159 84.9378 28.0075 85.5214 27.7898C85.5824 27.7588 86.2737 27.4478 87.5941 26.8571C88.5765 26.4217 89.2366 26.2038 89.5745 26.2038C90.2809 26.2038 90.8636 26.4603 91.3244 26.9733C91.7851 27.4864 92.0159 28.1159 92.0159 28.8616C92.0159 30.4774 90.8027 31.7521 88.3763 32.6847C86.5037 33.3688 84.5999 33.7108 82.6656 33.7108C79.5329 33.7108 77.0002 32.6847 75.0659 30.6333C73.1307 28.5822 72.164 25.9561 72.164 22.7546C72.164 19.7398 73.169 17.1525 75.1801 14.9929C77.1918 12.8322 79.687 11.7523 82.6656 11.7523C85.429 11.7523 87.7318 12.7698 89.5745 14.806C91.4166 16.8414 92.3381 19.2734 92.3381 22.1022ZM57.462 26.9505C57.462 29.0326 56.6788 30.711 55.1121 31.9857C53.6386 33.1352 51.8575 33.7108 49.7697 33.7108C48.0192 33.7108 46.3916 33.4305 44.8874 32.8715C42.8294 32.1251 41.8008 31.0063 41.8008 29.5149C41.8008 28.7382 42.0158 28.0541 42.4462 27.4628C42.8757 26.8728 43.459 26.5777 44.1958 26.5777C44.9022 26.5777 45.8621 26.88 47.0751 27.4864C48.2875 28.0921 49.2167 28.3962 49.8613 28.3962C51.0901 28.3962 51.7043 27.9915 51.7043 27.1832C51.7043 26.7795 51.5734 26.4684 51.3122 26.2507C51.0511 26.0337 50.3681 25.7068 49.2629 25.2721C47.1135 24.4013 45.7931 23.8266 45.302 23.547C43.7666 22.6769 42.8293 21.6509 42.4914 20.4698C42.3695 19.9417 42.3076 19.3511 42.3076 18.6987C42.3076 16.6475 43.1056 14.9532 44.7027 13.6168C46.2077 12.374 48.0037 11.7523 50.0912 11.7523C51.6275 11.7523 53.0707 12.0937 54.4215 12.7777C56.111 13.586 56.9551 14.6895 56.9551 16.0885C56.9551 16.8336 56.7243 17.455 56.2644 17.9521C55.8037 18.45 55.2044 18.6987 54.4676 18.6987C54.1297 18.6987 53.4007 18.4422 52.2799 17.9292C51.159 17.417 50.2914 17.1605 49.6768 17.1605C48.6334 17.1605 48.1115 17.595 48.1115 18.466C48.1115 19.025 48.9249 19.6154 50.5528 20.237C52.7945 21.1071 54.2986 21.8062 55.066 22.3349C56.6633 23.5162 57.462 25.0544 57.462 26.9505ZM68.461 30.0737C68.461 32.2501 67.3863 33.3371 65.2369 33.3371C64.4686 33.3371 63.8163 33.0189 63.2791 32.3816C62.7416 31.7449 62.4733 31.0214 62.4733 30.2139V17.6219H60.3998C58.8792 17.6219 57.6362 16.3647 57.6362 14.8257V14.825C57.6362 13.286 58.8792 12.0279 60.3998 12.0279H70.5345C72.0551 12.0279 73.2981 13.286 73.2981 14.825V14.8257C73.2981 16.3647 72.0551 17.6219 70.5345 17.6219H68.461V30.0737Z" fill="white"/>
<path d="M80.8254 47.9042L80.8116 41.5535L77.6389 46.8092H76.8388L73.6661 41.6356V47.9042H71.9556V38.3233H73.4316L77.2664 44.6741L81.0323 38.3233H82.5083L82.5221 47.9042H80.8254Z" fill="white"/>
<path d="M87.7788 40.5133C88.864 40.5133 89.6916 40.7733 90.2618 41.2934C90.8412 41.8044 91.1308 42.58 91.1308 43.6202V47.9042H89.5031V47.0145C89.2916 47.3339 88.9881 47.5803 88.5927 47.7536C88.2064 47.9179 87.7374 48 87.1856 48C86.6339 48 86.1511 47.9088 85.7372 47.7263C85.3234 47.5346 85.0015 47.2746 84.7716 46.9461C84.5509 46.6085 84.4406 46.2298 84.4406 45.8101C84.4406 45.1531 84.6843 44.6285 85.1717 44.2361C85.6683 43.8346 86.4453 43.6339 87.5029 43.6339H89.4065V43.5244C89.4065 43.0134 89.2502 42.621 88.9375 42.3473C88.6341 42.0736 88.1788 41.9367 87.5719 41.9367C87.1581 41.9367 86.7488 42.0006 86.3442 42.1283C85.9487 42.2561 85.6131 42.434 85.3372 42.6621L84.6613 41.4166C85.0475 41.1246 85.5119 40.9011 86.0545 40.7459C86.5971 40.5908 87.1718 40.5133 87.7788 40.5133ZM87.5443 46.7545C87.9765 46.7545 88.3582 46.6587 88.6892 46.4671C89.0295 46.2663 89.2686 45.9835 89.4065 45.6185V44.7699H87.6271C86.6339 44.7699 86.1373 45.0938 86.1373 45.7417C86.1373 46.0519 86.2614 46.2983 86.5097 46.4807C86.758 46.6632 87.1029 46.7545 87.5443 46.7545Z" fill="white"/>
<path d="M97.7718 47.5073C97.5694 47.6715 97.3211 47.7947 97.0269 47.8768C96.7418 47.9589 96.4383 48 96.1164 48C95.3072 48 94.6818 47.7901 94.2404 47.3704C93.799 46.9507 93.5783 46.3393 93.5783 45.5364V42.0188H92.3644V40.6501H93.5783V38.9803H95.3026V40.6501H97.2752V42.0188H95.3026V45.4953C95.3026 45.8512 95.3899 46.1249 95.5647 46.3165C95.7394 46.499 95.9923 46.5902 96.3233 46.5902C96.7096 46.5902 97.0315 46.4899 97.2889 46.2891L97.7718 47.5073Z" fill="white"/>
<path d="M103.37 40.5133C104.299 40.5133 105.044 40.7824 105.605 41.3208C106.166 41.8591 106.446 42.6575 106.446 43.716V47.9042H104.722V43.935C104.722 43.2963 104.57 42.8172 104.267 42.4979C103.963 42.1694 103.531 42.0051 102.97 42.0051C102.335 42.0051 101.834 42.1967 101.466 42.58C101.098 42.9541 100.915 43.497 100.915 44.2087V47.9042H99.1902V37.7485H100.915V41.444C101.2 41.1429 101.549 40.9147 101.963 40.7596C102.386 40.5954 102.855 40.5133 103.37 40.5133Z" fill="white"/>
<path d="M115.626 44.2908C115.626 44.4095 115.616 44.5783 115.598 44.7973H109.818C109.919 45.3356 110.181 45.7645 110.604 46.0838C111.037 46.3941 111.57 46.5492 112.205 46.5492C113.014 46.5492 113.681 46.2846 114.205 45.7553L115.129 46.8092C114.798 47.2016 114.379 47.4981 113.874 47.6989C113.368 47.8996 112.798 48 112.163 48C111.354 48 110.641 47.8403 110.025 47.521C109.409 47.2016 108.931 46.759 108.59 46.1933C108.259 45.6185 108.094 44.9706 108.094 44.2498C108.094 43.5381 108.255 42.8993 108.577 42.3336C108.908 41.7588 109.363 41.3117 109.942 40.9923C110.522 40.6729 111.175 40.5133 111.901 40.5133C112.618 40.5133 113.258 40.6729 113.819 40.9923C114.389 41.3025 114.83 41.7451 115.143 42.3199C115.465 42.8857 115.626 43.5426 115.626 44.2908ZM111.901 41.8819C111.349 41.8819 110.88 42.0462 110.494 42.3747C110.117 42.694 109.887 43.1229 109.804 43.6612H113.984C113.91 43.132 113.685 42.7032 113.308 42.3747C112.931 42.0462 112.462 41.8819 111.901 41.8819Z" fill="white"/>
<path d="M126.579 40.5133C127.508 40.5133 128.244 40.7824 128.786 41.3208C129.329 41.85 129.6 42.6484 129.6 43.716V47.9042H127.876V43.935C127.876 43.2963 127.733 42.8172 127.448 42.4979C127.163 42.1694 126.754 42.0051 126.221 42.0051C125.641 42.0051 125.177 42.1967 124.827 42.58C124.478 42.9541 124.303 43.4924 124.303 44.195V47.9042H122.579V43.935C122.579 43.2963 122.436 42.8172 122.151 42.4979C121.866 42.1694 121.457 42.0051 120.924 42.0051C120.335 42.0051 119.866 42.1922 119.517 42.5663C119.176 42.9404 119.006 43.4833 119.006 44.195V47.9042H117.282V40.5954H118.923V41.5261C119.199 41.1976 119.544 40.9467 119.958 40.7733C120.372 40.5999 120.832 40.5133 121.337 40.5133C121.889 40.5133 122.377 40.6182 122.8 40.8281C123.232 41.0288 123.572 41.3299 123.82 41.7314C124.124 41.3482 124.515 41.0516 124.993 40.8417C125.471 40.6227 126 40.5133 126.579 40.5133Z" fill="white"/>
<path d="M134.618 40.5133C135.703 40.5133 136.531 40.7733 137.101 41.2934C137.68 41.8044 137.97 42.58 137.97 43.6202V47.9042H136.342V47.0145C136.131 47.3339 135.827 47.5803 135.432 47.7536C135.045 47.9179 134.576 48 134.025 48C133.473 48 132.99 47.9088 132.576 47.7263C132.162 47.5346 131.84 47.2746 131.611 46.9461C131.39 46.6085 131.279 46.2298 131.279 45.8101C131.279 45.1531 131.523 44.6285 132.011 44.2361C132.507 43.8346 133.284 43.6339 134.342 43.6339H136.245V43.5244C136.245 43.0134 136.089 42.621 135.776 42.3473C135.473 42.0736 135.018 41.9367 134.411 41.9367C133.997 41.9367 133.588 42.0006 133.183 42.1283C132.788 42.2561 132.452 42.434 132.176 42.6621L131.5 41.4166C131.886 41.1246 132.351 40.9011 132.893 40.7459C133.436 40.5908 134.011 40.5133 134.618 40.5133ZM134.383 46.7545C134.815 46.7545 135.197 46.6587 135.528 46.4671C135.868 46.2663 136.108 45.9835 136.245 45.6185V44.7699H134.466C133.473 44.7699 132.976 45.0938 132.976 45.7417C132.976 46.0519 133.1 46.2983 133.349 46.4807C133.597 46.6632 133.942 46.7545 134.383 46.7545Z" fill="white"/>
<path d="M144.611 47.5073C144.408 47.6715 144.16 47.7947 143.866 47.8768C143.581 47.9589 143.277 48 142.955 48C142.146 48 141.521 47.7901 141.079 47.3704C140.638 46.9507 140.417 46.3393 140.417 45.5364V42.0188H139.203V40.6501H140.417V38.9803H142.141V40.6501H144.114V42.0188H142.141V45.4953C142.141 45.8512 142.229 46.1249 142.404 46.3165C142.578 46.499 142.831 46.5902 143.162 46.5902C143.549 46.5902 143.87 46.4899 144.128 46.2891L144.611 47.5073Z" fill="white"/>
<path d="M146.029 40.5954H147.753V47.9042H146.029V40.5954ZM146.898 39.3909C146.586 39.3909 146.323 39.2951 146.112 39.1035C145.9 38.9028 145.795 38.6564 145.795 38.3644C145.795 38.0724 145.9 37.8306 146.112 37.639C146.323 37.4383 146.586 37.3379 146.898 37.3379C147.211 37.3379 147.473 37.4337 147.684 37.6253C147.896 37.8078 148.002 38.0405 148.002 38.3233C148.002 38.6245 147.896 38.8799 147.684 39.0898C147.482 39.2906 147.22 39.3909 146.898 39.3909Z" fill="white"/>
<path d="M153.396 48C152.633 48 151.948 47.8403 151.341 47.521C150.734 47.2016 150.26 46.759 149.92 46.1933C149.58 45.6185 149.41 44.9706 149.41 44.2498C149.41 43.5289 149.58 42.8857 149.92 42.3199C150.26 41.7542 150.729 41.3117 151.327 40.9923C151.934 40.6729 152.624 40.5133 153.396 40.5133C154.123 40.5133 154.757 40.6592 155.3 40.9512C155.852 41.2432 156.265 41.663 156.541 42.2104L155.217 42.9769C155.006 42.6393 154.739 42.3884 154.417 42.2241C154.104 42.0508 153.759 41.9641 153.382 41.9641C152.739 41.9641 152.205 42.1739 151.782 42.5937C151.359 43.0043 151.148 43.5563 151.148 44.2498C151.148 44.9433 151.355 45.4999 151.768 45.9196C152.191 46.3302 152.729 46.5355 153.382 46.5355C153.759 46.5355 154.104 46.4534 154.417 46.2891C154.739 46.1158 155.006 45.8603 155.217 45.5227L156.541 46.2891C156.256 46.8366 155.838 47.2609 155.286 47.562C154.743 47.854 154.114 48 153.396 48Z" fill="white"/>
<path d="M160.308 48C159.71 48 159.126 47.9224 158.556 47.7673C157.986 47.6122 157.531 47.416 157.19 47.1788L157.853 45.8785C158.184 46.0975 158.579 46.2754 159.039 46.4123C159.508 46.5401 159.968 46.6039 160.418 46.6039C161.448 46.6039 161.963 46.3348 161.963 45.7964C161.963 45.5409 161.83 45.363 161.563 45.2626C161.306 45.1622 160.887 45.0664 160.308 44.9752C159.701 44.8839 159.204 44.779 158.818 44.6604C158.441 44.5418 158.11 44.3365 157.825 44.0445C157.549 43.7434 157.411 43.3282 157.411 42.799C157.411 42.1055 157.701 41.5535 158.28 41.1429C158.869 40.7231 159.66 40.5133 160.653 40.5133C161.159 40.5133 161.664 40.5726 162.17 40.6912C162.676 40.8007 163.09 40.9512 163.412 41.1429L162.75 42.4431C162.124 42.0781 161.421 41.8956 160.639 41.8956C160.133 41.8956 159.747 41.9732 159.48 42.1283C159.223 42.2743 159.094 42.4705 159.094 42.7168C159.094 42.9906 159.232 43.1868 159.508 43.3054C159.793 43.4149 160.23 43.5198 160.818 43.6202C161.407 43.7114 161.89 43.8164 162.267 43.935C162.644 44.0536 162.966 44.2543 163.232 44.5372C163.508 44.8201 163.646 45.2216 163.646 45.7417C163.646 46.426 163.347 46.9735 162.75 47.3841C162.152 47.7947 161.338 48 160.308 48Z" fill="white"/>
</svg>
