<svg width="16" height="14" viewBox="0 0 16 14" fill="none" xmlns="http://www.w3.org/2000/svg">
<path d="M8.75 1.75H14.75M8.75 4.75H12.5M8.75 9.25H14.75M8.75 12.25H12.5M1.25 1.75C1.25 1.55109 1.32902 1.36032 1.46967 1.21967C1.61032 1.07902 1.80109 1 2 1H5C5.19891 1 5.38968 1.07902 5.53033 1.21967C5.67098 1.36032 5.75 1.55109 5.75 1.75V4.75C5.75 4.94891 5.67098 5.13968 5.53033 5.28033C5.38968 5.42098 5.19891 5.5 5 5.5H2C1.80109 5.5 1.61032 5.42098 1.46967 5.28033C1.32902 5.13968 1.25 4.94891 1.25 4.75V1.75ZM1.25 9.25C1.25 9.05109 1.32902 8.86032 1.46967 8.71967C1.61032 8.57902 1.80109 8.5 2 8.5H5C5.19891 8.5 5.38968 8.57902 5.53033 8.71967C5.67098 8.86032 5.75 9.05109 5.75 9.25V12.25C5.75 12.4489 5.67098 12.6397 5.53033 12.7803C5.38968 12.921 5.19891 13 5 13H2C1.80109 13 1.61032 12.921 1.46967 12.7803C1.32902 12.6397 1.25 12.4489 1.25 12.25V9.25Z" stroke="#4B6A7E" stroke-width="1.5" stroke-linecap="round" stroke-linejoin="round"/>
</svg>
