<svg width="25" height="24" viewBox="0 0 25 24" fill="none" xmlns="http://www.w3.org/2000/svg">
<path d="M21.8886 3.19449C21.8886 4.95846 20.5075 6.38834 18.8035 6.38834C17.0994 6.38834 15.7183 4.95846 15.7183 3.19449C15.7183 1.42988 17.0994 0 18.8035 0C20.5075 0 21.8886 1.42988 21.8886 3.19449Z" fill="url(#paint0_linear_2732_98124)"/>
<path d="M22.7184 6.65666C23.4573 6.00058 24.6175 6.62183 24.4904 7.7162C23.7694 13.9397 22.2803 18.9111 20.2353 23.3902C19.7708 24.4084 18.4987 23.9577 18.4472 22.7976C18.2561 18.507 17.4956 14.3325 15.8295 10.4393C15.3843 9.39888 16.3675 7.91219 17.3255 8.11026C19.5601 8.57209 21.2256 7.98235 22.7184 6.65666Z" fill="url(#paint1_linear_2732_98124)"/>
<path d="M12.5689 22.9114C12.4488 23.5499 11.9061 24 11.278 24H10.0858C9.36056 24 8.7661 23.4052 8.72378 22.6554C8.57451 20.0198 8.20966 16.4465 7.62444 13.5826C7.43224 12.6441 8.1358 11.7456 9.05987 11.8157C10.0598 11.8916 10.9506 11.9309 11.9901 11.7749C12.8843 11.6407 13.7589 12.3006 13.7202 13.2351C13.5531 17.2507 12.911 21.0957 12.5689 22.9114Z" fill="url(#paint2_linear_2732_98124)"/>
<path d="M4.83921 22.7596C4.83921 23.4443 4.30277 23.9993 3.64169 23.9993H1.69768C1.03644 23.9993 0.5 23.4443 0.5 22.7596V18.2125C0.5 17.5278 1.03644 16.9727 1.69768 16.9727H3.64169C4.30277 16.9727 4.83921 17.5278 4.83921 18.2125V22.7596Z" fill="url(#paint3_linear_2732_98124)"/>
<defs>
<linearGradient id="paint0_linear_2732_98124" x1="0.2625" y1="-0.00011213" x2="24.5412" y2="0.0416252" gradientUnits="userSpaceOnUse">
<stop stop-color="#043785"/>
<stop offset="1" stop-color="#1F55A6"/>
</linearGradient>
<linearGradient id="paint1_linear_2732_98124" x1="0.2625" y1="-0.00011213" x2="24.5412" y2="0.0416252" gradientUnits="userSpaceOnUse">
<stop stop-color="#043785"/>
<stop offset="1" stop-color="#1F55A6"/>
</linearGradient>
<linearGradient id="paint2_linear_2732_98124" x1="0.2625" y1="-0.00011213" x2="24.5412" y2="0.0416252" gradientUnits="userSpaceOnUse">
<stop stop-color="#043785"/>
<stop offset="1" stop-color="#1F55A6"/>
</linearGradient>
<linearGradient id="paint3_linear_2732_98124" x1="0.2625" y1="-0.00011213" x2="24.5412" y2="0.0416252" gradientUnits="userSpaceOnUse">
<stop stop-color="#043785"/>
<stop offset="1" stop-color="#1F55A6"/>
</linearGradient>
</defs>
</svg>
