<svg width="24" height="24" viewBox="0 0 24 24" fill="none" xmlns="http://www.w3.org/2000/svg">
<path d="M12 24C18.6274 24 24 18.6274 24 12C24 5.37258 18.6274 0 12 0C5.37258 0 0 5.37258 0 12C0 18.6274 5.37258 24 12 24Z" fill="url(#paint0_linear_1987_39864)"/>
<path d="M11.9999 15.5156C10.6787 15.5156 9.41673 16.1467 8.62431 17.2034C8.39223 17.5138 8.45537 17.9546 8.76578 18.1874C9.07614 18.4208 9.51695 18.359 9.75043 18.0466C10.2778 17.3421 11.1196 16.9219 11.9999 16.9219C12.8801 16.9219 13.722 17.3421 14.2493 18.0466C14.4826 18.3572 14.9228 18.4208 15.234 18.1874C15.5443 17.9546 15.6075 17.5138 15.3754 17.2034C14.583 16.1467 13.321 15.5156 11.9999 15.5156ZM9.8905 10.5938C9.8905 9.43059 8.94428 8.48438 7.78112 8.48438C6.61796 8.48438 5.67175 9.43059 5.67175 10.5938C5.67175 11.7569 6.61796 12.7031 7.78112 12.7031C8.94428 12.7031 9.8905 11.7569 9.8905 10.5938ZM16.2186 8.48438C15.0555 8.48438 14.1092 9.43059 14.1092 10.5938C14.1092 11.7569 15.0555 12.7031 16.2186 12.7031C17.3818 12.7031 18.328 11.7569 18.328 10.5938C18.328 9.43059 17.3818 8.48438 16.2186 8.48438ZM8.48425 6.375C8.48425 5.98636 8.16976 5.67188 7.78112 5.67188C6.56851 5.67188 5.40395 6.11817 4.49893 6.92775C4.21056 7.1873 4.18581 7.63158 4.44536 7.92066C4.70495 8.21109 5.14932 8.23355 5.43826 7.97559C6.08373 7.39673 6.91595 7.07812 7.78112 7.07812C8.16976 7.07812 8.48425 6.76364 8.48425 6.375ZM19.5008 6.92775C18.5958 6.11817 17.4312 5.67188 16.2186 5.67188C15.83 5.67188 15.5155 5.98636 15.5155 6.375C15.5155 6.76364 15.83 7.07812 16.2186 7.07812C17.0838 7.07812 17.916 7.39673 18.5614 7.97559C18.8509 8.23402 19.2952 8.21058 19.5543 7.92066C19.8139 7.63158 19.7892 7.1873 19.5008 6.92775Z" fill="white"/>
<defs>
<linearGradient id="paint0_linear_1987_39864" x1="12" y1="0" x2="12" y2="24" gradientUnits="userSpaceOnUse">
<stop stop-color="#E02B40"/>
<stop offset="1" stop-color="#D76573"/>
</linearGradient>
</defs>
</svg>
