<svg width="24" height="20" viewBox="0 0 24 20" fill="none" xmlns="http://www.w3.org/2000/svg">
<path d="M19.7805 12.5073C19.9727 12.5381 20.1671 12.5536 20.3619 12.5537C21.0789 12.5537 21.7768 12.3418 22.3723 11.9365C23.1281 11.422 23.6288 10.6574 23.7822 9.78351L23.9999 8.54241L22.6996 8.33454C21.8596 8.20031 21.0387 8.36767 20.3576 8.75279C20.3574 8.66696 20.3571 8.58132 20.3564 8.4958C22.0794 8.2835 23.313 6.78313 23.1124 5.13108L22.9679 3.94205L21.7222 4.0799C20.9739 4.16272 20.3161 4.4887 19.8243 4.96489C19.8054 4.91824 19.7859 4.87184 19.7657 4.8257C21.0685 3.96918 21.4479 2.27168 20.6018 0.978382L19.9618 0L18.9369 0.610991C18.2618 1.01335 17.7913 1.64252 17.6121 2.38263C17.4328 3.12274 17.5662 3.88523 17.9877 4.52953L18.3082 5.01942C18.8478 5.99906 18.9506 7.12603 18.9506 8.8572C18.9506 10.8156 18.4201 12.3343 17.3287 13.5C16.3558 14.5394 15.0767 15.1825 13.8397 15.8046C13.2081 16.1222 12.5693 16.4435 11.9999 16.8174C11.4306 16.4436 10.7918 16.1222 10.1602 15.8046C8.92322 15.1825 7.64417 14.5394 6.67118 13.5C5.5798 12.3343 5.04926 10.8156 5.04926 8.8572C5.04926 7.12626 5.15207 5.99928 5.69148 5.01982L6.01217 4.52958C6.4337 3.88519 6.56715 3.12274 6.38783 2.38263C6.20856 1.64252 5.73806 1.01335 5.06305 0.611036L4.03808 4.47465e-05L3.39807 0.978427C2.55219 2.27146 2.93118 3.96842 4.23307 4.82516C4.21313 4.87038 4.19362 4.91591 4.17486 4.96189C3.66758 4.47066 3.00576 4.16058 2.27765 4.07999L1.03195 3.94214L0.887533 5.13117C0.686874 6.78331 1.92061 8.28372 3.6438 8.49594C3.64307 8.58166 3.64262 8.66738 3.64244 8.7531C2.96134 8.36785 2.14031 8.20045 1.3002 8.33463L0 8.54246L0.217732 9.78355C0.371064 10.6575 0.871726 11.4221 1.62755 11.9365C2.22315 12.342 2.92086 12.5537 3.63794 12.5537C3.83081 12.5537 4.02528 12.5384 4.21932 12.5073L4.34653 12.487C4.36701 12.5327 4.38799 12.5783 4.40948 12.6236C3.65844 12.5956 2.92142 12.7988 2.29261 13.2145L1.20588 13.933L1.95861 14.9703C2.48966 15.7021 3.28751 16.1927 4.20511 16.3517C4.41336 16.3879 4.62459 16.4062 4.83626 16.4063C5.53988 16.4063 6.22629 16.2029 6.81701 15.8123L7.08746 15.6335C7.13218 15.664 7.17714 15.6943 7.22231 15.7243C6.39144 16.0337 5.71948 16.618 5.31802 17.3851L4.71708 18.5331L5.91986 19.1067C6.43403 19.352 6.98094 19.4681 7.52011 19.4681C8.81928 19.4681 10.0724 18.7932 10.7107 17.6258C10.7749 17.6622 10.8376 17.6984 10.8987 17.7345C10.3694 18.3238 10.0318 19.0479 10.0318 20H11.439C11.439 19.414 11.6327 18.9642 12 18.5671C12.3673 18.9642 12.5611 19.414 12.5611 20H13.9683C13.9683 19.0479 13.6307 18.3238 13.1014 17.7345C13.1637 17.6978 13.2264 17.6615 13.2894 17.6259C13.9277 18.7934 15.1807 19.4681 16.48 19.4681C17.0189 19.4681 17.5661 19.3519 18.0802 19.1068L19.2829 18.5332L18.682 17.3851C18.2685 16.5951 17.5765 16.0241 16.7758 15.7255C16.8216 15.6952 16.8672 15.6645 16.9126 15.6335L17.183 15.8123C17.7738 16.2029 18.4601 16.4063 19.1638 16.4063C19.3733 16.4063 19.5844 16.3883 19.7949 16.3518C20.7125 16.1927 21.5104 15.7021 22.0415 14.9703L22.7941 13.933L21.7075 13.2145C21.0787 12.7988 20.3417 12.5956 19.5906 12.6236C19.6121 12.5784 19.6329 12.5328 19.6535 12.4871L19.7805 12.5073Z" fill="#4D956A"/>
</svg>
