<svg width="115" height="111" viewBox="0 0 115 111" fill="none" xmlns="http://www.w3.org/2000/svg">
<path d="M92.62 5.54773C92.62 6.99773 91.69 8.45773 89.79 9.54773C87.6569 10.6586 85.2917 11.2503 82.8868 11.2746C80.4819 11.2989 78.1052 10.7552 75.95 9.68773C74.02 8.60773 73.05 7.16773 73.04 5.68773L73.38 38.6877C73.38 40.1377 74.38 41.5777 76.29 42.6877C78.4469 43.7553 80.8253 44.299 83.2318 44.2747C85.6383 44.2504 88.0052 43.6587 90.14 42.5477C92.04 41.4177 92.98 39.9677 92.96 38.5477L92.62 5.54773Z" fill="#5195FB"/>
<path d="M89.7101 1.58777C87.5532 0.520179 85.1749 -0.0235442 82.7683 0.000781726C80.3618 0.0251076 77.995 0.616796 75.8601 1.72777C72.0601 3.97777 72.1001 7.55777 75.9501 9.72777C78.1052 10.7953 80.4819 11.339 82.8869 11.3146C85.2918 11.2903 87.657 10.6987 89.7901 9.58777C93.6001 7.32777 93.5601 3.74777 89.7101 1.58777Z" fill="#69A4FC"/>
<path d="M114.6 33.7877L102.76 40.7877L102.91 54.8977L114.75 47.8977L114.6 33.7877Z" fill="#99C1FD"/>
<path d="M102.76 40.7877L90.7798 34.0377L90.9198 48.1477L102.91 54.8977L102.76 40.7877Z" fill="#81B2FC"/>
<path d="M114.6 33.7877L102.62 27.0277L90.7798 34.0377L102.76 40.7877L114.6 33.7877Z" fill="#C9DEFE"/>
<path d="M12.3094 82.5878V90.0778L9.68945 88.5678V81.0778L12.3094 82.5878Z" fill="#FF8980"/>
<path d="M12.3097 79.4378L5.8197 83.1878L3.19971 81.6778L9.6897 77.9378L12.3097 79.4378Z" fill="#FC9F9C"/>
<path d="M21.5197 74.1278L15.0297 77.8678L12.4097 76.3578L18.9097 72.6178L21.5197 74.1278Z" fill="#FC9F9C"/>
<path d="M15.0294 70.3778L12.3094 71.9478L9.68945 70.4378L12.4095 68.8678L15.0294 70.3778Z" fill="#FC9F9C"/>
<path d="M12.3094 71.9478V79.4378L9.68945 77.9378V70.4378L12.3094 71.9478Z" fill="#FF8980"/>
<path d="M5.8197 83.1878V86.3278L3.19971 84.8178V81.6778L5.8197 83.1878Z" fill="#FF8980"/>
<path d="M21.5197 74.1278V77.2678L15.0297 81.0178V88.5078L12.3097 90.0778V82.5878L5.8197 86.3278V83.1878L12.3097 79.4378V71.9478L15.0297 70.3778V77.8678L21.5197 74.1278Z" fill="#FF6666"/>
<path d="M46.6797 30.8577L50.2897 24.5977L53.6397 26.5377L56.0997 22.2677L52.7497 20.3377L56.3597 14.0777L53.8997 12.6577L50.2897 18.9177L46.9397 16.9777L44.4797 21.2377L47.8297 23.1777L44.2197 29.4377L46.6797 30.8577Z" fill="#FF6666"/>
<path d="M52.0193 11.571L48.4043 17.8324L50.2836 18.9174L53.8986 12.656L52.0193 11.571Z" fill="#FF8980"/>
<path d="M45.9548 22.0878L42.3398 28.3492L44.2191 29.4342L47.8341 23.1728L45.9548 22.0878Z" fill="#FF8980"/>
<path d="M45.0632 15.8959L42.6031 20.1567L44.4824 21.2417L46.9424 16.9809L45.0632 15.8959Z" fill="#FF8980"/>
<path d="M76.0999 33.3677C75.6699 33.6077 75.3699 34.3077 75.3699 35.6377C75.3699 37.7677 76.1099 39.0277 77.0699 39.5777C77.2265 39.7 77.4134 39.7776 77.6106 39.8023C77.8078 39.8269 78.008 39.7977 78.1899 39.7177L79.5599 38.9277C79.3786 39.0027 79.181 39.0292 78.9863 39.0047C78.7917 38.9802 78.6068 38.9054 78.4499 38.7877C77.4499 38.2277 76.7499 36.9677 76.7499 34.8377C76.7499 33.5177 77.0499 32.8377 77.4799 32.5677L76.0999 33.3677Z" fill="#E84343"/>
<path d="M79.4699 41.8977C81.5599 40.6977 81.1999 33.8277 77.1299 31.4777C76.7842 31.2185 76.3745 31.0582 75.9446 31.0142C75.5148 30.9701 75.081 31.0439 74.6899 31.2277L76.0599 30.4277C76.4523 30.2492 76.885 30.1783 77.3138 30.2223C77.7426 30.2662 78.1519 30.4234 78.4999 30.6777C79.6376 31.4502 80.5634 32.4958 81.1923 33.7188C81.8213 34.9417 82.1333 36.3029 82.0999 37.6777C82.0999 39.4477 81.6399 40.5977 80.8499 41.0577L79.4699 41.8977Z" fill="#FF8980"/>
<path d="M75.3299 35.6377C75.3299 37.7677 76.0699 39.0277 77.0299 39.5777C77.9899 40.1277 78.8299 39.7277 78.8299 37.4377C78.8299 35.3277 77.9899 33.9677 77.0999 33.4377C76.2099 32.9077 75.3299 33.3677 75.3299 35.6377ZM73.4099 34.5277C73.4099 27.6877 80.7199 31.7677 80.7199 38.5277C80.7199 41.7077 79.2299 42.8977 77.0099 41.6077C75.8558 40.8326 74.9191 39.7751 74.289 38.5359C73.6589 37.2967 73.3563 35.9169 73.4099 34.5277Z" fill="#FF6666"/>
<path d="M87.32 49.3777C86.89 49.6277 86.59 50.3277 86.59 51.6577C86.59 53.7777 87.33 55.0377 88.29 55.5977C88.4476 55.7181 88.6343 55.7945 88.8311 55.8191C89.0278 55.8437 89.2276 55.8156 89.41 55.7377L90.78 54.9377C90.5998 55.0179 90.4011 55.0473 90.2054 55.0226C90.0098 54.998 89.8246 54.9202 89.67 54.7977C88.67 54.2477 87.97 52.9877 87.97 50.8577C87.97 49.5277 88.27 48.8577 88.7 48.5877L87.32 49.3777Z" fill="#E84343"/>
<path d="M90.7299 57.9177C92.82 56.7177 92.4599 49.8377 88.3799 47.4877C88.032 47.2334 87.6226 47.0762 87.1938 47.0323C86.765 46.9883 86.3323 47.0593 85.9399 47.2377L87.3199 46.4477C87.711 46.264 88.1448 46.1902 88.5746 46.2342C89.0045 46.2782 89.4142 46.4385 89.7599 46.6977C90.9049 47.4748 91.8352 48.5284 92.4645 49.7608C93.0938 50.9932 93.4018 52.3646 93.36 53.7477C93.36 55.5177 92.9 56.6677 92.11 57.1277L90.7299 57.9177Z" fill="#FF8980"/>
<path d="M86.5899 51.6577C86.5899 53.7777 87.3299 55.0377 88.2899 55.5977C89.2499 56.1577 90.0899 55.7477 90.0899 53.4477C90.0899 51.3477 89.2499 49.9777 88.3599 49.4477C87.4699 48.9177 86.5899 49.3877 86.5899 51.6577ZM84.6699 50.5477C84.6699 43.6977 91.9799 47.7777 91.9799 54.5477C91.9799 57.7277 90.4899 58.9177 88.2699 57.6277C87.1165 56.8519 86.1804 55.7944 85.5504 54.5553C84.9203 53.3162 84.6173 51.9368 84.6699 50.5477Z" fill="#FF6666"/>
<path d="M78.6096 52.1377L88.7196 38.2777L90.0996 37.4877L79.9896 51.3377L78.6096 52.1377Z" fill="#E84343"/>
<path d="M88.7196 38.2777L86.2296 36.8377L87.6096 36.0477L90.0996 37.4877L88.7196 38.2777Z" fill="#FF8980"/>
<path d="M78.6096 52.1378L76.1196 50.6978L86.2296 36.8378L88.7196 38.2778L78.6096 52.1378Z" fill="#FF6666"/>
<path d="M37.4299 30.2578L36.4899 30.1678L34.4199 28.9778L35.3499 29.0578L37.4299 30.2578Z" fill="#E1EDFF"/>
<path d="M36.4899 30.1678V36.0978L34.4199 34.8978V28.9778L36.4899 30.1678Z" fill="#88BEFF"/>
<path d="M36.4899 36.0978L41.0799 70.0378L39.0099 68.8378L34.4199 34.8978L36.4899 36.0978Z" fill="#1C6DF6"/>
<path d="M37.43 30.2578L41.76 65.2278L41.08 70.0378L36.49 36.0978V30.1678L37.43 30.2578Z" fill="#81B2FC"/>
<path d="M36.6998 28.4477L34.2998 29.8277L32.0598 28.5277L34.4498 27.1477L36.6998 28.4477Z" fill="#B1D0FE"/>
<path d="M34.2999 29.8277V36.8277C34.2849 36.9755 34.3094 37.1247 34.3709 37.26C34.4324 37.3953 34.5286 37.5118 34.6499 37.5977L32.4099 36.3077C32.2878 36.2202 32.1911 36.1019 32.1297 35.9649C32.0682 35.8279 32.0441 35.6771 32.0599 35.5277V28.5277L34.2999 29.8277Z" fill="#81B2FC"/>
<path d="M35.3999 22.6177C35.3999 28.9277 35.4499 28.4777 35.2799 28.6177C35.0222 28.8213 34.7034 28.9321 34.3749 28.9321C34.0465 28.9321 33.7277 28.8213 33.4699 28.6177C33.3099 28.4277 33.3599 28.8377 33.3599 22.6177C33.3599 22.9577 33.7999 23.1477 34.1299 23.1977C34.6499 23.2777 35.3999 23.0977 35.3999 22.6177Z" fill="#81B2FC"/>
<path d="M33.55 28.7377L33.47 28.6577V22.8877C33.59 23.0377 33.55 22.3277 33.55 28.7377Z" fill="#81B2FC"/>
<path d="M33.84 23.0977V28.8577C33.8136 28.8631 33.7864 28.8631 33.76 28.8577V23.0977H33.84Z" fill="#81B2FC"/>
<path d="M34.1 23.1978V28.9577H34.01V23.1978H34.1Z" fill="#81B2FC"/>
<path d="M34.42 23.2078V28.9778H34.33V23.2178L34.42 23.2078Z" fill="#81B2FC"/>
<path d="M34.7099 23.1777V28.9377H34.6199V23.1977L34.7099 23.1777Z" fill="#81B2FC"/>
<path d="M34.9999 23.0977V28.8677H34.9099V23.0977H34.9999Z" fill="#81B2FC"/>
<path d="M35.28 22.8977V28.6577C35.2586 28.6892 35.2315 28.7164 35.2 28.7377C35.2 22.3377 35.16 23.0377 35.28 22.8977Z" fill="#81B2FC"/>
<path d="M33.36 22.6177C33.36 22.2977 33.81 22.0277 34.36 22.0277C34.91 22.0277 35.36 22.2977 35.36 22.6177C35.36 22.9377 34.9 23.2077 34.36 23.2077C33.82 23.2077 33.36 22.9477 33.36 22.6177Z" fill="#E1EDFF"/>
<path d="M34.2399 31.3478L33.2599 32.5678L31.0898 31.3178L32.0699 30.0978L34.2399 31.3478Z" fill="#E1EDFF"/>
<path d="M33.2598 32.5677L28.7198 74.4577L26.5498 73.1978L31.0898 31.3177L33.2598 32.5677Z" fill="#88BEFF"/>
<path d="M34.2397 31.3478V37.5578L29.4297 78.6678L28.7197 74.4578L33.2597 32.5678L34.2397 31.3478Z" fill="#81B2FC"/>
<path d="M34.3697 36.7678C33.1297 36.9778 32.9397 35.3278 33.7697 33.8978C33.9361 33.6075 34.1376 33.3388 34.3697 33.0978V32.9278C32.7597 34.4578 32.7297 37.1578 34.3697 36.9278V36.7678Z" fill="#1C6DF6"/>
<path d="M36.6998 28.4478V35.4478C36.6761 35.8627 36.5552 36.2663 36.3467 36.6259C36.1383 36.9855 35.8481 37.291 35.4998 37.5177C34.8498 37.8977 34.2998 37.5977 34.2998 36.8277V29.8277L36.6998 28.4478Z" fill="#69A4FC"/>
<path d="M35.4301 31.2477C35.2901 31.1677 35.4301 30.8577 35.5701 30.7577C35.7101 30.6577 35.7801 30.7577 35.7801 30.8777C35.7801 30.9977 35.5601 31.3177 35.4301 31.2477Z" fill="#1C6DF6"/>
<path d="M35.5197 35.4378C35.4697 35.4378 35.5197 35.2878 35.5697 35.2478C35.6197 35.2078 35.6497 35.2478 35.6497 35.2478C35.6497 35.2478 35.5697 35.4678 35.5197 35.4378Z" fill="#1C6DF6"/>
<path d="M29.4298 78.6678L27.7298 77.6978L26.5498 73.1978L28.7198 74.4577L29.4298 78.6678Z" fill="#81B2FC"/>
<path d="M28.4996 77.2577C28.4996 77.2577 28.1096 77.0877 27.9896 77.4277C27.8696 77.7677 28.1196 83.0177 28.1196 83.0177L28.7196 78.2577C28.7196 78.2577 28.9896 77.5377 28.4996 77.2577Z" fill="#1C6DF6"/>
<path d="M40.2799 68.6878C40.2799 68.6878 39.8899 68.5278 39.7699 68.8678C39.6499 69.2078 39.8999 74.4578 39.8999 74.4578L40.4999 69.6978C40.4999 69.6978 40.7699 68.9778 40.2799 68.6878Z" fill="#1C6DF6"/>
<path d="M9.71002 50.4477L17.61 65.0077L13.55 62.6677L5.66003 48.1077L9.71002 50.4477Z" fill="#FCD561"/>
<path d="M28.0401 22.3877L20.2001 26.9177L16.1401 24.5777L23.9801 20.0477L28.0401 22.3877Z" fill="#FCEAB2"/>
<path d="M20.2001 26.9178L16.1401 51.7178L12.0801 49.3778L16.1401 24.5778L20.2001 26.9178Z" fill="#FCD561"/>
<path d="M12.2 44.4677L4.06 49.1677L0 46.8177L8.14001 42.1177L12.2 44.4677Z" fill="#FCEAB2"/>
<path d="M4.06 49.1678V53.7177L0 51.3777V46.8177L4.06 49.1678Z" fill="#FCD96E"/>
<path d="M28.0401 22.3877V26.9377L23.4001 29.6177L17.6101 65.0077L9.71005 50.4477L4.06006 53.7177V49.1677L12.2001 44.4677L16.1401 51.7177L20.2001 26.9177L28.0401 22.3877Z" fill="#FEB30F"/>
<path d="M69.37 44.2977L68.63 44.7177L66.49 43.4877L67.23 43.0577L69.37 44.2977Z" fill="#EAAC88"/>
<path d="M68.6299 44.7177C68.5699 45.0577 68.5199 45.3677 68.4499 45.7177C68.2152 46.7893 67.627 47.7508 66.7799 48.4477C65.9199 49.1277 65.1099 49.3177 64.5599 48.9977L62.4199 47.7677C62.9699 48.0877 63.7799 47.8877 64.6399 47.2077C65.487 46.5108 66.0752 45.5493 66.3099 44.4777C66.3899 44.1577 66.4299 43.8477 66.4899 43.4777L68.6299 44.7177Z" fill="#FEB30F"/>
<path d="M62.1 35.8177C62.1 38.2377 59.93 52.0877 62.82 53.7477L60.68 52.5177C60.3414 52.3076 60.0733 52.0012 59.91 51.6377C58.22 48.1077 59.96 36.1677 59.96 34.6377L62.1 35.8177Z" fill="#FCD96E"/>
<path d="M54.82 40.0177C54.82 40.7077 54.35 47.1077 54.11 49.6977C53.8894 51.9566 53.2483 54.1543 52.22 56.1777C51.64 57.3577 50.53 59.9777 51.67 60.6377L49.53 59.3977C48.66 58.8977 49.14 57.3077 49.47 56.3977C49.96 54.9377 51.59 52.5977 51.97 48.4877C52.21 45.9077 52.64 39.4877 52.68 38.8177L54.82 40.0177Z" fill="#FCD96E"/>
<path d="M69.35 28.0977C51.96 38.0977 56.95 35.2477 54.54 36.7077C51.36 38.6377 49.85 42.9977 49.1 46.7077L46.98 45.5077C47.71 41.7677 49.22 37.3977 52.4 35.5077C54.81 34.0477 49.83 36.9377 67.21 26.8977L69.35 28.0977Z" fill="#FCEAB2"/>
<path d="M69.35 28.0977V31.6577L64.47 34.4777C64.36 35.4177 63.8 43.1577 63.68 46.0877C63.6491 46.8086 63.7438 47.5293 63.96 48.2177C64.39 49.5477 65.67 49.3477 66.78 48.4677C67.6271 47.7708 68.2153 46.8093 68.45 45.7377C68.52 45.4177 68.57 45.1077 68.63 44.7377L69.37 44.3177C69.2332 46.3172 68.7458 48.2771 67.93 50.1077C67.3984 51.3042 66.5976 52.3617 65.59 53.1977C64.53 54.0077 63.54 54.1977 62.82 53.7677C59.93 52.1077 62.1 37.9977 62.1 35.8377L57.18 38.6777C56.73 45.3177 56.52 51.0077 55.3 56.4777C54.93 58.1077 53.88 60.6977 52.21 60.7777C51.36 60.7777 51.09 60.0477 51.21 59.1877C51.3821 58.141 51.7197 57.1283 52.21 56.1877C53.2395 54.1613 53.8806 51.9601 54.1 49.6977C54.34 47.1077 54.77 40.6977 54.81 40.0177C52.71 41.1577 51.55 42.0977 50.14 45.5777C49.87 46.2277 49.59 46.5777 49.14 46.6977C49.88 42.9677 51.39 38.5877 54.57 36.6977C56.95 35.1977 51.96 38.0977 69.35 28.0977Z" fill="#FEB30F"/>
<path d="M106.23 70.3677C106.23 68.3677 104.94 66.4577 102.37 64.9777C97.2597 62.0277 88.9797 61.9777 83.8297 64.9077V65.9877C88.9797 63.0877 97.2597 63.1177 102.37 66.0577C104.94 67.5477 106.23 69.4977 106.23 71.4477V70.3677Z" fill="#FEB30F"/>
<path d="M106.69 78.0977C110.34 75.9477 112.17 73.1577 112.17 70.3577V71.4477C112.17 74.2377 110.34 77.0377 106.69 79.1877V78.0977Z" fill="#FEB30F"/>
<path d="M71.4197 62.5977L106.49 82.8377V83.9277L71.4197 63.6777V62.5977Z" fill="#FEB30F"/>
<path d="M106.49 82.8377L110.69 80.4077V81.4977L106.49 83.9277V82.8377Z" fill="#EAAC88"/>
<path d="M106.69 78.0977C114.03 73.7777 113.99 66.8177 106.57 62.5377C99.1496 58.2577 87.0996 58.2277 79.5696 62.4677L75.5696 60.1577L71.3696 62.5877L106.44 82.8277L110.64 80.4077L106.69 78.0977ZM83.8297 64.8977C88.9797 61.9977 97.2596 62.0177 102.37 64.9677C107.48 67.9177 107.51 72.6977 102.49 75.6677L83.8297 64.8977Z" fill="#FCD561"/>
<path d="M83.6898 89.8877L55.3398 73.4277L63.4298 64.8177L91.7899 81.2777L83.6898 89.8877Z" fill="#478EFB"/>
<path d="M58.83 71.5277L62.71 67.3977C62.9815 67.109 63.3424 66.9203 63.7344 66.8623C64.1264 66.8042 64.5265 66.8801 64.87 67.0777L87.87 80.4577C88.098 80.5909 88.2932 80.7736 88.441 80.9924C88.5888 81.2111 88.6855 81.4604 88.7239 81.7216C88.7623 81.9828 88.7415 82.2493 88.6629 82.5014C88.5843 82.7534 88.4501 82.9846 88.27 83.1777L84.39 87.3077C84.1174 87.5949 83.7558 87.7816 83.3639 87.8379C82.9719 87.8941 82.5725 87.8166 82.23 87.6177L59.23 74.2477C59.002 74.1146 58.8069 73.9319 58.6591 73.7131C58.5113 73.4943 58.4146 73.2451 58.3761 72.9839C58.3377 72.7227 58.3586 72.4562 58.4372 72.2041C58.5157 71.952 58.65 71.7209 58.83 71.5277Z" fill="#202A5F"/>
<path d="M83.0997 87.8577C82.5697 87.8577 84.3197 88.7778 59.3997 74.2978C59.2242 74.1971 59.0737 74.058 58.9596 73.8909C58.8455 73.7238 58.7708 73.533 58.741 73.3328C58.7111 73.1327 58.727 72.9284 58.7874 72.7353C58.8478 72.5422 58.9512 72.3652 59.0897 72.2177L62.9697 68.0978C63.0975 67.9606 63.2523 67.8515 63.4245 67.7775C63.5967 67.7035 63.7823 67.6661 63.9697 67.6678C64.4997 67.6678 62.7498 66.7478 87.6698 81.2278C87.8453 81.3284 87.9958 81.4675 88.1098 81.6346C88.2239 81.8018 88.2987 81.9925 88.3285 82.1927C88.3584 82.3928 88.3425 82.5971 88.2821 82.7902C88.2217 82.9834 88.1183 83.1603 87.9798 83.3078L84.0997 87.4377C83.9694 87.5708 83.8138 87.6764 83.6421 87.7485C83.4704 87.8206 83.286 87.8578 83.0997 87.8577Z" fill="#8EC1FD"/>
<path d="M54.6298 106.668L26.2798 90.2077L55.3398 73.4277L83.6898 89.8877L54.6298 106.668Z" fill="#4489F4"/>
<path d="M54.6298 110.718L26.2798 94.2478V90.2078L54.6298 106.668V110.718Z" fill="#1C6DF6"/>
<path d="M91.7898 81.2777V89.2577L54.6298 110.718V106.668L83.6898 89.8877L91.7898 81.2777Z" fill="#0B45B2"/>
<path d="M59.02 77.3778V78.7178C59.0077 78.8752 58.9528 79.0263 58.8612 79.1549C58.7696 79.2835 58.6447 79.3848 58.4999 79.4478L56.27 80.7578C55.8756 80.9549 55.4408 81.0576 54.9999 81.0576C54.5591 81.0576 54.1243 80.9549 53.7299 80.7578L51.4799 79.4478C51.3338 79.3827 51.2077 79.2798 51.1145 79.1497C51.0213 79.0197 50.9645 78.8671 50.95 78.7078V77.3578C50.9645 77.5171 51.0213 77.6697 51.1145 77.7997C51.2077 77.9298 51.3338 78.0327 51.4799 78.0978L53.7299 79.3978C54.1229 79.5996 54.5582 79.7048 54.9999 79.7048C55.4417 79.7048 55.877 79.5996 56.27 79.3978L58.4999 78.0978C58.6433 78.0356 58.7672 77.9358 58.8587 77.8091C58.9502 77.6824 59.0059 77.5334 59.02 77.3778Z" fill="#5496FB"/>
<path d="M52.7299 81.0078V82.3478C52.7176 82.5052 52.6627 82.6563 52.5711 82.7849C52.4795 82.9135 52.3547 83.0148 52.2099 83.0778L49.9799 84.3878C49.5856 84.5849 49.1508 84.6876 48.7099 84.6876C48.269 84.6876 47.8342 84.5849 47.4399 84.3878L45.1999 83.0978C45.0513 83.035 44.9225 82.933 44.8274 82.8026C44.7323 82.6723 44.6744 82.5185 44.6599 82.3578V81.0078C44.6744 81.1685 44.7323 81.3223 44.8274 81.4526C44.9225 81.583 45.0513 81.685 45.1999 81.7478L47.4499 83.0478C47.8411 83.2495 48.2748 83.3548 48.7149 83.3548C49.155 83.3548 49.5888 83.2495 49.9799 83.0478L52.2199 81.7478C52.3636 81.6817 52.4868 81.5781 52.5765 81.4478C52.6663 81.3176 52.7193 81.1656 52.7299 81.0078Z" fill="#5496FB"/>
<path d="M46.4899 84.6078V85.9578C46.4746 86.1156 46.4174 86.2666 46.3242 86.3949C46.2311 86.5232 46.1053 86.6244 45.9599 86.6878L43.7299 87.9878C43.337 88.1896 42.9016 88.2948 42.4599 88.2948C42.0182 88.2948 41.5828 88.1896 41.1899 87.9878L38.9499 86.6878C38.8025 86.6245 38.6752 86.5221 38.5818 86.3916C38.4884 86.2612 38.4324 86.1077 38.4199 85.9478V84.5978C38.4345 84.7571 38.4913 84.9096 38.5845 85.0397C38.6776 85.1698 38.8038 85.2727 38.9499 85.3378L41.1999 86.6378C41.5911 86.8395 42.0248 86.9447 42.4649 86.9447C42.905 86.9447 43.3388 86.8395 43.7299 86.6378L45.9699 85.3378C46.1134 85.273 46.2372 85.1713 46.3285 85.043C46.4199 84.9148 46.4756 84.7646 46.4899 84.6078Z" fill="#5496FB"/>
<path d="M40.3 88.1778V89.5278C40.2856 89.6846 40.2299 89.8348 40.1386 89.9631C40.0472 90.0913 39.9235 90.193 39.78 90.2578L37.54 91.5578C37.1488 91.7596 36.7151 91.8648 36.275 91.8648C35.8349 91.8648 35.4011 91.7596 35.01 91.5578L32.76 90.2578C32.6138 90.1927 32.4877 90.0898 32.3945 89.9598C32.3014 89.8297 32.2446 89.6772 32.23 89.5178V88.1678C32.2446 88.3272 32.3014 88.4797 32.3945 88.6098C32.4877 88.7399 32.6138 88.8427 32.76 88.9078L35.01 90.2078C35.4029 90.4096 35.8383 90.5149 36.28 90.5149C36.7217 90.5149 37.1571 90.4096 37.55 90.2078L39.78 88.9078C39.9247 88.8448 40.0496 88.7436 40.1412 88.615C40.2328 88.4864 40.2877 88.3353 40.3 88.1778Z" fill="#5496FB"/>
<path d="M58.5 78.0978L56.27 79.3978C55.8771 79.5996 55.4417 79.7048 55 79.7048C54.5583 79.7048 54.1229 79.5996 53.73 79.3978L51.48 78.0978C51.327 78.0465 51.1941 77.9484 51.0999 77.8174C51.0056 77.6864 50.955 77.5292 50.955 77.3678C50.955 77.2065 51.0056 77.0492 51.0999 76.9182C51.1941 76.7872 51.327 76.6891 51.48 76.6378L53.71 75.3378C54.1019 75.1385 54.5353 75.0345 54.975 75.0345C55.4147 75.0345 55.8481 75.1385 56.24 75.3378L58.49 76.6378C59.18 77.0278 59.22 77.6878 58.5 78.0978Z" fill="#8EC1FD"/>
<path d="M52.22 81.7278L49.98 83.0278C49.5888 83.2295 49.1551 83.3348 48.7149 83.3348C48.2748 83.3348 47.8411 83.2295 47.45 83.0278L45.2 81.7278C44.51 81.3378 44.47 80.7278 45.2 80.2678L47.4299 78.9678C47.8236 78.7683 48.2587 78.6644 48.7 78.6644C49.1412 78.6644 49.5763 78.7683 49.97 78.9678L52.22 80.2678C52.3729 80.3191 52.5059 80.4172 52.6001 80.5482C52.6943 80.6792 52.745 80.8364 52.745 80.9978C52.745 81.1591 52.6943 81.3164 52.6001 81.4474C52.5059 81.5784 52.3729 81.6765 52.22 81.7278Z" fill="#8EC1FD"/>
<path d="M45.97 85.3378L43.73 86.6378C43.3389 86.8395 42.9051 86.9447 42.465 86.9447C42.0249 86.9447 41.5912 86.8395 41.2 86.6378L38.95 85.3378C38.7982 85.2839 38.6669 85.1842 38.5739 85.0526C38.481 84.921 38.4312 84.7639 38.4312 84.6028C38.4312 84.4417 38.481 84.2845 38.5739 84.1529C38.6669 84.0213 38.7982 83.9217 38.95 83.8678L41.18 82.5678C41.5737 82.3683 42.0088 82.2644 42.45 82.2644C42.8913 82.2644 43.3264 82.3683 43.72 82.5678L45.97 83.8678C46.1267 83.9167 46.2636 84.0144 46.3609 84.1466C46.4581 84.2788 46.5105 84.4387 46.5105 84.6028C46.5105 84.7669 46.4581 84.9267 46.3609 85.0589C46.2636 85.1912 46.1267 85.2889 45.97 85.3378Z" fill="#8EC1FD"/>
<path d="M39.78 88.9078L37.55 90.2078C37.1571 90.4096 36.7217 90.5148 36.28 90.5148C35.8383 90.5148 35.4029 90.4096 35.01 90.2078L32.76 88.9078C32.6082 88.8539 32.4768 88.7543 32.3839 88.6227C32.291 88.491 32.2411 88.3339 32.2411 88.1728C32.2411 88.0117 32.291 87.8545 32.3839 87.7229C32.4768 87.5913 32.6082 87.4917 32.76 87.4378L35 86.1478C35.3911 85.9461 35.8249 85.8408 36.265 85.8408C36.7051 85.8408 37.1388 85.9461 37.53 86.1478L39.78 87.4478C39.9329 87.4991 40.0659 87.5972 40.1601 87.7282C40.2543 87.8592 40.305 88.0164 40.305 88.1778C40.305 88.3391 40.2543 88.4964 40.1601 88.6274C40.0659 88.7584 39.9329 88.8565 39.78 88.9078Z" fill="#8EC1FD"/>
<path d="M65.6798 81.2178V82.5678C65.6635 82.7253 65.6059 82.8758 65.5129 83.004C65.4198 83.1321 65.2946 83.2335 65.1498 83.2978L62.9198 84.5978C62.5273 84.7948 62.0941 84.8974 61.6548 84.8974C61.2156 84.8974 60.7824 84.7948 60.3898 84.5978L58.0998 83.2978C57.9537 83.2327 57.8275 83.1298 57.7344 82.9997C57.6412 82.8696 57.5844 82.7171 57.5698 82.5578V81.2078C57.5854 81.3668 57.6426 81.5189 57.7357 81.6488C57.8287 81.7787 57.9543 81.8818 58.0998 81.9478L60.3498 83.2478C60.7428 83.4495 61.1781 83.5548 61.6198 83.5548C62.0615 83.5548 62.4969 83.4495 62.8898 83.2478L65.1198 81.9478C65.2702 81.8877 65.4016 81.7882 65.5002 81.6597C65.5987 81.5313 65.6608 81.3786 65.6798 81.2178Z" fill="#5496FB"/>
<path d="M59.3898 84.8478V86.1978C59.3735 86.354 59.317 86.5033 59.2259 86.6312C59.1348 86.7591 59.0121 86.8613 58.8698 86.9278L56.6298 88.2278C56.2372 88.4248 55.8041 88.5274 55.3648 88.5274C54.9256 88.5274 54.4924 88.4248 54.0998 88.2278L51.8498 86.9278C51.7055 86.8602 51.5809 86.7566 51.4881 86.627C51.3953 86.4974 51.3373 86.3462 51.3198 86.1878V84.8378C51.3354 84.9968 51.3926 85.1489 51.4857 85.2788C51.5787 85.4087 51.7043 85.5118 51.8498 85.5778L54.0998 86.8778C54.4928 87.0796 54.9281 87.1848 55.3698 87.1848C55.8115 87.1848 56.2469 87.0796 56.6398 86.8778L58.8698 85.5778C59.0127 85.5121 59.1359 85.4102 59.2271 85.2821C59.3184 85.154 59.3745 85.0043 59.3898 84.8478Z" fill="#5496FB"/>
<path d="M53.0998 88.4577V89.7977C53.0875 89.9552 53.0326 90.1063 52.941 90.2349C52.8494 90.3635 52.7246 90.4647 52.5798 90.5277L50.3498 91.8378C49.9555 92.0349 49.5207 92.1375 49.0798 92.1375C48.6389 92.1375 48.2041 92.0349 47.8098 91.8378L45.5598 90.5277C45.4136 90.4626 45.2875 90.3598 45.1943 90.2297C45.1012 90.0996 45.0444 89.9471 45.0298 89.7878V88.4377C45.0444 88.5971 45.1012 88.7496 45.1943 88.8797C45.2875 89.0098 45.4136 89.1126 45.5598 89.1777L47.8098 90.4778C48.2027 90.6795 48.6381 90.7848 49.0798 90.7848C49.5215 90.7848 49.9569 90.6795 50.3498 90.4778L52.5798 89.1777C52.7232 89.1155 52.8471 89.0158 52.9386 88.8891C53.0301 88.7624 53.0858 88.6134 53.0998 88.4577Z" fill="#5496FB"/>
<path d="M46.9597 92.0278V93.3778C46.9448 93.5345 46.8876 93.6843 46.7943 93.8111C46.701 93.9378 46.575 94.0369 46.4297 94.0978L44.1998 95.4078C43.8054 95.6049 43.3706 95.7075 42.9297 95.7075C42.4889 95.7075 42.0541 95.6049 41.6598 95.4078L39.4198 94.0978C39.2724 94.0344 39.1451 93.932 39.0517 93.8016C38.9583 93.6712 38.9023 93.5177 38.8898 93.3578V92.0178C38.9073 92.1762 38.9652 92.3275 39.058 92.457C39.1509 92.5866 39.2754 92.6902 39.4198 92.7578L41.6698 94.0478C42.0609 94.2495 42.4946 94.3547 42.9348 94.3547C43.3749 94.3547 43.8086 94.2495 44.1998 94.0478L46.4398 92.7578C46.5815 92.6905 46.7037 92.5881 46.7947 92.4604C46.8857 92.3326 46.9425 92.1837 46.9597 92.0278Z" fill="#FCDD7C"/>
<path d="M65.1598 81.9478L62.9298 83.2478C62.5368 83.4496 62.1015 83.5548 61.6598 83.5548C61.2181 83.5548 60.7827 83.4496 60.3898 83.2478L58.1398 81.9478C57.4498 81.5478 57.4098 80.9478 58.1398 80.4778L60.3798 79.1778C60.7717 78.9784 61.2051 78.8745 61.6448 78.8745C62.0845 78.8745 62.5179 78.9784 62.9098 79.1778L65.1598 80.4778C65.8298 80.8778 65.8698 81.5278 65.1598 81.9478Z" fill="#8EC1FD"/>
<path d="M58.8698 85.5778L56.6398 86.8778C56.2469 87.0796 55.8115 87.1848 55.3698 87.1848C54.9281 87.1848 54.4928 87.0796 54.0998 86.8778L51.8498 85.5778C51.698 85.5238 51.5666 85.4242 51.4737 85.2926C51.3808 85.161 51.3309 85.0039 51.3309 84.8428C51.3309 84.6817 51.3808 84.5245 51.4737 84.3929C51.5666 84.2613 51.698 84.1617 51.8498 84.1078L54.0898 82.8078C54.4817 82.6084 54.9152 82.5045 55.3548 82.5045C55.7945 82.5045 56.2279 82.6084 56.6198 82.8078L58.8698 84.1078C59.0216 84.1617 59.153 84.2613 59.2459 84.3929C59.3388 84.5245 59.3887 84.6817 59.3887 84.8428C59.3887 85.0039 59.3388 85.161 59.2459 85.2926C59.153 85.4242 59.0216 85.5238 58.8698 85.5778Z" fill="#8EC1FD"/>
<path d="M52.6198 89.1777L50.3898 90.4778C49.9968 90.6795 49.5615 90.7848 49.1198 90.7848C48.678 90.7848 48.2427 90.6795 47.8498 90.4778L45.5998 89.1777C45.4468 89.1264 45.3138 89.0283 45.2196 88.8974C45.1254 88.7664 45.0747 88.6091 45.0747 88.4478C45.0747 88.2864 45.1254 88.1291 45.2196 87.9981C45.3138 87.8672 45.4468 87.7691 45.5998 87.7177L47.8298 86.4178C48.2234 86.2183 48.6585 86.1144 49.0998 86.1144C49.541 86.1144 49.9761 86.2183 50.3698 86.4178L52.6198 87.7177C52.7727 87.7691 52.9057 87.8672 52.9999 87.9981C53.0941 88.1291 53.1448 88.2864 53.1448 88.4478C53.1448 88.6091 53.0941 88.7664 52.9999 88.8974C52.9057 89.0283 52.7727 89.1264 52.6198 89.1777Z" fill="#8EC1FD"/>
<path d="M46.4398 92.7578L44.1998 94.0977C43.8087 94.2995 43.3749 94.4047 42.9348 94.4047C42.4947 94.4047 42.061 94.2995 41.6698 94.0977L39.4198 92.8077C38.7298 92.4077 38.6898 91.7578 39.4198 91.3378L41.6498 90.0378C42.0434 89.8383 42.4785 89.7344 42.9198 89.7344C43.3611 89.7344 43.7962 89.8383 44.1898 90.0378L46.4398 91.3378C47.0998 91.6878 47.1498 92.3378 46.4398 92.7578Z" fill="#FCECB8"/>
<path d="M72.4399 85.0977V86.4377C72.4276 86.5951 72.3727 86.7462 72.2811 86.8748C72.1895 87.0034 72.0646 87.1046 71.9199 87.1677L69.6899 88.4677C69.297 88.6694 68.8616 88.7747 68.4199 88.7747C67.9782 88.7747 67.5428 88.6694 67.1499 88.4677L64.9099 87.1677C64.7612 87.1049 64.6325 87.0028 64.5374 86.8725C64.4422 86.7421 64.3843 86.5884 64.3699 86.4277V85.0977C64.3843 85.2584 64.4422 85.4121 64.5374 85.5425C64.6325 85.6728 64.7612 85.7749 64.9099 85.8377L67.1599 87.1376C67.551 87.3394 67.9848 87.4446 68.4249 87.4446C68.865 87.4446 69.2987 87.3394 69.6899 87.1376L71.9199 85.8377C72.0661 85.7738 72.1919 85.6711 72.2836 85.5405C72.3753 85.41 72.4294 85.2568 72.4399 85.0977Z" fill="#5496FB"/>
<path d="M66.1599 88.7577V90.0977C66.1446 90.2556 66.0874 90.4065 65.9942 90.5348C65.901 90.6632 65.7752 90.7643 65.6299 90.8277L63.3998 92.0977C63.0069 92.2995 62.5716 92.4047 62.1299 92.4047C61.6881 92.4047 61.2528 92.2995 60.8599 92.0977L58.6198 90.7977C58.4798 90.7362 58.3582 90.6394 58.2671 90.5166C58.1759 90.3939 58.1182 90.2495 58.0999 90.0977V88.7477C58.1144 88.907 58.1712 89.0596 58.2644 89.1896C58.3576 89.3197 58.4837 89.4226 58.6299 89.4877L60.8799 90.7877C61.271 90.9894 61.7048 91.0947 62.1449 91.0947C62.585 91.0947 63.0187 90.9894 63.4099 90.7877L65.6498 89.4877C65.7915 89.4215 65.9132 89.3192 66.0027 89.1911C66.0922 89.0629 66.1464 88.9134 66.1599 88.7577Z" fill="#5496FB"/>
<path d="M59.9099 92.3577V93.7076C59.8946 93.8655 59.8374 94.0164 59.7442 94.1448C59.651 94.2731 59.5252 94.3742 59.3799 94.4377L57.1498 95.7377C56.7587 95.9394 56.325 96.0446 55.8849 96.0446C55.4447 96.0446 55.011 95.9394 54.6198 95.7377L52.3698 94.4377C52.2224 94.3743 52.0952 94.2719 52.0017 94.1415C51.9083 94.0111 51.8523 93.8576 51.8398 93.6977V92.3477C51.8544 92.507 51.9112 92.6595 52.0044 92.7896C52.0976 92.9197 52.2237 93.0225 52.3698 93.0876L54.6198 94.3877C55.0128 94.5895 55.4481 94.6947 55.8899 94.6947C56.3316 94.6947 56.7669 94.5895 57.1599 94.3877L59.3899 93.0876C59.5346 93.0246 59.6595 92.9234 59.7511 92.7948C59.8427 92.6662 59.8976 92.5151 59.9099 92.3577Z" fill="#5496FB"/>
<path d="M53.7199 95.9277V97.2777C53.7076 97.4351 53.6528 97.5862 53.5612 97.7148C53.4696 97.8434 53.3447 97.9447 53.1999 98.0077L50.9699 99.3077C50.577 99.5095 50.1416 99.6148 49.6999 99.6148C49.2582 99.6148 48.8228 99.5095 48.4299 99.3077L46.1799 98.0077C46.0338 97.9426 45.9076 97.8397 45.8145 97.7097C45.7213 97.5796 45.6645 97.4271 45.6499 97.2677V95.9177C45.6645 96.077 45.7213 96.2296 45.8145 96.3596C45.9076 96.4897 46.0338 96.5926 46.1799 96.6577L48.4299 97.9577C48.8228 98.1595 49.2582 98.2648 49.6999 98.2648C50.1416 98.2648 50.577 98.1595 50.9699 97.9577L53.1999 96.6577C53.3447 96.5947 53.4696 96.4934 53.5612 96.3648C53.6528 96.2362 53.7076 96.0851 53.7199 95.9277Z" fill="#FC5552"/>
<path d="M71.9199 85.8477L69.6899 87.1477C69.2987 87.3494 68.865 87.4547 68.4249 87.4547C67.9848 87.4547 67.551 87.3494 67.1599 87.1477L64.9099 85.8477C64.7581 85.7938 64.6267 85.6942 64.5338 85.5625C64.4409 85.4309 64.391 85.2738 64.391 85.1127C64.391 84.9516 64.4409 84.7944 64.5338 84.6628C64.6267 84.5312 64.7581 84.4316 64.9099 84.3777L67.0999 83.0977C67.4935 82.8982 67.9286 82.7943 68.3699 82.7943C68.8112 82.7943 69.2463 82.8982 69.6399 83.0977L71.8899 84.3977C72.0405 84.448 72.1719 84.5436 72.2661 84.6715C72.3602 84.7994 72.4125 84.9533 72.4158 85.1121C72.4191 85.2709 72.3732 85.4268 72.2844 85.5585C72.1956 85.6902 72.0683 85.7912 71.9199 85.8477Z" fill="#8EC1FD"/>
<path d="M65.6399 89.4777L63.3999 90.7777C63.0087 90.9794 62.575 91.0846 62.1349 91.0846C61.6948 91.0846 61.261 90.9794 60.8699 90.7777L58.6199 89.4777C57.9299 89.0877 57.8899 88.4777 58.6199 88.0177L60.8499 86.7177C61.2435 86.5182 61.6786 86.4143 62.1199 86.4143C62.5612 86.4143 62.9963 86.5182 63.3899 86.7177L65.6399 88.0177C65.7929 88.069 65.9259 88.1671 66.0201 88.2981C66.1143 88.4291 66.165 88.5863 66.165 88.7477C66.165 88.909 66.1143 89.0663 66.0201 89.1973C65.9259 89.3283 65.7929 89.4263 65.6399 89.4777Z" fill="#8EC1FD"/>
<path d="M59.3899 93.0977L57.1599 94.3977C56.767 94.5995 56.3316 94.7047 55.8899 94.7047C55.4482 94.7047 55.0128 94.5995 54.6199 94.3977L52.3699 93.0977C51.6799 92.6977 51.6399 92.0477 52.3699 91.6277L54.6099 90.3277C55.0018 90.1283 55.4352 90.0244 55.8749 90.0244C56.3146 90.0244 56.748 90.1283 57.1399 90.3277L59.3899 91.6277C59.5466 91.6766 59.6835 91.7743 59.7807 91.9065C59.8779 92.0387 59.9304 92.1986 59.9304 92.3627C59.9304 92.5268 59.8779 92.6866 59.7807 92.8188C59.6835 92.9511 59.5466 93.0488 59.3899 93.0977Z" fill="#8EC1FD"/>
<path d="M53.1999 96.6577L50.9699 97.9577C50.577 98.1595 50.1416 98.2647 49.6999 98.2647C49.2582 98.2647 48.8228 98.1595 48.4299 97.9577L46.1799 96.6577C45.4999 96.2577 45.4599 95.6077 46.1799 95.1877L48.4099 93.8877C48.8018 93.6883 49.2352 93.5844 49.6749 93.5844C50.1146 93.5844 50.548 93.6883 50.9399 93.8877L53.1899 95.1877C53.3469 95.2355 53.4845 95.3323 53.5827 95.4638C53.6808 95.5954 53.7343 95.7549 53.7354 95.919C53.7366 96.0831 53.6852 96.2433 53.5889 96.3762C53.4925 96.5091 53.3562 96.6077 53.1999 96.6577Z" fill="#FC7464"/>
<path d="M79.0995 88.9678V90.3178C79.0845 90.4731 79.0284 90.6216 78.937 90.7482C78.8457 90.8747 78.7223 90.9746 78.5796 91.0378L76.3395 92.3478C75.947 92.5448 75.5138 92.6474 75.0746 92.6474C74.6353 92.6474 74.2021 92.5448 73.8095 92.3478L71.5595 91.0378C71.4134 90.9727 71.2872 90.8698 71.1941 90.7397C71.1009 90.6096 71.0441 90.4571 71.0295 90.2978V88.9578C71.0471 89.1162 71.105 89.2674 71.1978 89.397C71.2906 89.5266 71.4152 89.6302 71.5595 89.6978L73.8095 90.9878C74.2025 91.1896 74.6378 91.2948 75.0796 91.2948C75.5213 91.2948 75.9566 91.1896 76.3495 90.9878L78.5796 89.6978C78.7225 89.6321 78.8457 89.5302 78.9369 89.4021C79.0281 89.274 79.0842 89.1243 79.0995 88.9678Z" fill="#0B45B2"/>
<path d="M72.8095 92.5978V93.9478C72.7966 94.1038 72.7413 94.2532 72.6497 94.3801C72.5581 94.507 72.4335 94.6064 72.2896 94.6678L70.0995 95.9778C69.7052 96.1749 69.2704 96.2776 68.8296 96.2776C68.3887 96.2776 67.9539 96.1749 67.5595 95.9778L65.3095 94.6678C65.1634 94.6027 65.0372 94.4998 64.9441 94.3697C64.8509 94.2397 64.7941 94.0871 64.7795 93.9278V92.5878C64.7971 92.7462 64.855 92.8975 64.9478 93.027C65.0406 93.1566 65.1652 93.2602 65.3095 93.3278L67.5595 94.6178C67.9525 94.8196 68.3878 94.9248 68.8296 94.9248C69.2713 94.9248 69.7066 94.8196 70.0995 94.6178L72.3296 93.3278C72.465 93.2569 72.5801 93.1527 72.6641 93.0249C72.748 92.8972 72.7981 92.7502 72.8095 92.5978Z" fill="#0B45B2"/>
<path d="M66.5596 96.2077V97.5478C66.5473 97.7052 66.4925 97.8563 66.4008 97.9849C66.3092 98.1135 66.1844 98.2147 66.0396 98.2777L63.8096 99.5778C63.4167 99.7795 62.9813 99.8848 62.5396 99.8848C62.0979 99.8848 61.6626 99.7795 61.2696 99.5778L59.0296 98.2777C58.881 98.2149 58.7522 98.1129 58.6571 97.9826C58.562 97.8522 58.5041 97.6985 58.4896 97.5378V96.1877C58.5041 96.3485 58.562 96.5022 58.6571 96.6326C58.7522 96.7629 58.881 96.8649 59.0296 96.9277L61.2796 98.2278C61.6708 98.4295 62.1045 98.5347 62.5446 98.5347C62.9847 98.5347 63.4184 98.4295 63.8096 98.2278L66.0496 96.9277C66.1905 96.8632 66.3118 96.7627 66.4014 96.6363C66.4909 96.5099 66.5455 96.362 66.5596 96.2077Z" fill="#0B45B2"/>
<path d="M60.3796 99.7778V101.098C60.3635 101.253 60.3071 101.401 60.2158 101.527C60.1246 101.654 60.0017 101.754 59.8596 101.818L57.6196 103.128C57.227 103.325 56.7938 103.427 56.3546 103.427C55.9153 103.427 55.4821 103.325 55.0896 103.128L52.8396 101.818C52.6922 101.754 52.5649 101.652 52.4715 101.522C52.3781 101.391 52.3221 101.238 52.3096 101.078V99.7278C52.3242 99.8871 52.381 100.04 52.4741 100.17C52.5673 100.3 52.6934 100.403 52.8396 100.468L55.0896 101.768C55.4825 101.97 55.9179 102.075 56.3596 102.075C56.8013 102.075 57.2366 101.97 57.6296 101.768L59.8596 100.468C59.9989 100.408 60.1201 100.313 60.2113 100.192C60.3025 100.071 60.3605 99.9281 60.3796 99.7778Z" fill="#0B45B2"/>
<path d="M78.5796 89.6978L76.3495 90.9878C75.9566 91.1896 75.5213 91.2948 75.0796 91.2948C74.6378 91.2948 74.2025 91.1896 73.8095 90.9878L71.5595 89.6978C71.4077 89.6439 71.2764 89.5442 71.1834 89.4126C71.0905 89.281 71.0406 89.1239 71.0406 88.9628C71.0406 88.8017 71.0905 88.6445 71.1834 88.5129C71.2764 88.3813 71.4077 88.2817 71.5595 88.2278L73.7996 86.9278C74.1914 86.7284 74.6249 86.6245 75.0645 86.6245C75.5042 86.6245 75.9377 86.7284 76.3296 86.9278L78.5796 88.2278C78.7314 88.2817 78.8627 88.3813 78.9557 88.5129C79.0486 88.6445 79.0984 88.8017 79.0984 88.9628C79.0984 89.1239 79.0486 89.281 78.9557 89.4126C78.8627 89.5442 78.7314 89.6439 78.5796 89.6978Z" fill="#8EC1FD"/>
<path d="M72.2896 93.3278L70.0995 94.6178C69.7066 94.8196 69.2713 94.9248 68.8296 94.9248C68.3878 94.9248 67.9525 94.8196 67.5595 94.6178L65.3095 93.3278C65.1577 93.2739 65.0264 93.1742 64.9334 93.0426C64.8405 92.911 64.7906 92.7539 64.7906 92.5928C64.7906 92.4317 64.8405 92.2745 64.9334 92.1429C65.0264 92.0113 65.1577 91.9117 65.3095 91.8578L67.5396 90.5578C67.9314 90.3584 68.3649 90.2545 68.8045 90.2545C69.2442 90.2545 69.6777 90.3584 70.0695 90.5578L72.3195 91.8578C72.9695 92.2578 73.0096 92.9078 72.2896 93.3278Z" fill="#8EC1FD"/>
<path d="M66.0996 96.9277L63.8596 98.2278C63.4684 98.4295 63.0347 98.5347 62.5946 98.5347C62.1545 98.5347 61.7208 98.4295 61.3296 98.2278L59.0796 96.9277C58.3896 96.5377 58.3496 95.8777 59.0796 95.4677L61.3096 94.1678C61.7032 93.9683 62.1383 93.8644 62.5796 93.8644C63.0209 93.8644 63.456 93.9683 63.8496 94.1678L66.0996 95.4677C66.2526 95.5191 66.3855 95.6172 66.4797 95.7481C66.574 95.8791 66.6246 96.0364 66.6246 96.1978C66.6246 96.3591 66.574 96.5164 66.4797 96.6473C66.3855 96.7783 66.2526 96.8764 66.0996 96.9277Z" fill="#8EC1FD"/>
<path d="M59.8595 100.498L57.6295 101.798C57.2366 102 56.8012 102.105 56.3595 102.105C55.9178 102.105 55.4824 102 55.0895 101.798L52.8395 100.498C52.6865 100.446 52.5536 100.348 52.4594 100.217C52.3651 100.086 52.3145 99.9291 52.3145 99.7678C52.3145 99.6064 52.3651 99.4492 52.4594 99.3182C52.5536 99.1872 52.6865 99.0891 52.8395 99.0378L55.0795 97.7378C55.4714 97.5384 55.9048 97.4345 56.3445 97.4345C56.7842 97.4345 57.2176 97.5384 57.6095 97.7378L59.8595 99.0378C60.0125 99.0891 60.1455 99.1872 60.2397 99.3182C60.3339 99.4492 60.3846 99.6064 60.3846 99.7678C60.3846 99.9291 60.3339 100.086 60.2397 100.217C60.1455 100.348 60.0125 100.446 59.8595 100.498Z" fill="#8EC1FD"/>
<path d="M26.2798 90.2077C57.8798 108.308 54.8098 106.498 54.5298 106.498L83.6398 89.7877L91.7898 81.2777L83.7898 89.9777L54.6298 106.898L26.2798 90.2077Z" fill="#71AAF9"/>
</svg>
