<svg width="48" height="48" viewBox="0 0 48 48" fill="none" xmlns="http://www.w3.org/2000/svg">
<circle opacity="0.2" cx="24" cy="24" r="24" fill="#48BB77"/>
<g clip-path="url(#clip0_1802_30815)">
<path d="M27.987 24.8812C27.3219 25.4699 25.3087 27.0808 24.983 27.3486C25.3972 27.7333 25.7774 28.1245 26.1146 28.5359H21.8846C22.7575 27.471 23.9195 26.5412 25.2081 25.5104C26.635 24.3689 28.2521 23.0751 29.4791 21.4223C30.9063 19.4996 31.6001 17.3774 31.6001 14.9343C31.6001 13.8677 30.7324 13 29.6658 13C28.5993 13 27.7316 13.8677 27.7316 14.9343C27.7316 15.1581 27.7231 15.3748 27.7067 15.5849H20.2934C20.2764 15.3684 20.268 15.1514 20.268 14.9343C20.2679 13.8677 19.4003 13 18.3337 13C17.2671 13 16.3994 13.8677 16.3994 14.9343C16.3994 17.3774 17.0932 19.4996 18.5204 21.4223C18.9741 22.0335 19.4814 22.5954 20.0125 23.1189C20.6776 22.5301 22.6908 20.9192 23.0165 20.6514C22.6024 20.2668 22.2222 19.8755 21.8849 19.4641H26.1149C25.242 20.5291 24.08 21.4588 22.7914 22.4896C21.3646 23.6311 19.7474 24.9249 18.5205 26.5777C17.0933 28.5004 16.3995 30.6227 16.3995 33.0658C16.3995 34.1323 17.2672 35 18.3337 35C19.4003 35 20.268 34.1323 20.268 33.0658C20.268 32.8419 20.2765 32.6252 20.2929 32.4152H27.7062C27.7227 32.6254 27.7316 32.8417 27.7316 33.0658C27.7316 34.1323 28.5993 35 29.6659 35C30.7325 35 31.6002 34.1323 31.6002 33.0658C31.6002 30.6227 30.9064 28.5004 29.4791 26.5777C29.0254 25.9665 28.5181 25.4046 27.987 24.8812ZM21.0221 18.1751C20.8052 17.7613 20.6342 17.325 20.5123 16.8739H27.4872C27.3653 17.325 27.1944 17.7613 26.9774 18.1751H21.0221ZM20.5123 31.1261C20.6342 30.6751 20.8052 30.2388 21.0221 29.825H26.9775C27.1944 30.2388 27.3653 30.6751 27.4872 31.1261H20.5123Z" fill="#48BB77"/>
</g>
<defs>
<clipPath id="clip0_1802_30815">
<rect width="22" height="22" fill="white" transform="translate(13 13)"/>
</clipPath>
</defs>
</svg>
