<svg width="16" height="16" viewBox="0 0 16 16" fill="none" xmlns="http://www.w3.org/2000/svg">
<path d="M14.598 5.18231C14.8967 3.66785 13.8498 2.24384 12.3895 2.08274C11.6262 0.233165 9.16266 -0.077347 8.00049 1.5878C6.83879 -0.0767099 4.37513 0.232286 3.61153 2.08274C2.1503 2.24396 1.10448 3.66889 1.40301 5.18231C0.314552 6.11861 0.202038 7.78728 1.11716 8.86929C-0.398982 10.9652 1.04207 14.0201 3.65764 14.0201C4.49285 15.8086 6.87739 16.0207 8.00046 14.4116C9.12445 16.0221 11.5089 15.8069 12.3433 14.0201C14.9523 14.026 16.4003 10.9658 14.8838 8.86929C15.8001 7.78591 15.6851 6.11746 14.598 5.18231ZM5.88214 14.5142C4.56073 14.5142 3.79826 12.9205 4.6593 11.8509C4.82569 11.6442 4.79735 11.3383 4.59602 11.1675C4.3947 10.9968 4.09667 11.0259 3.93031 11.2325C3.53274 11.7263 3.32113 12.3658 3.35456 13.0209C1.56154 12.8253 0.762923 10.6247 1.94821 9.268C1.96118 9.28305 2.40574 8.63068 3.35426 8.52699C3.33866 8.84141 3.37867 9.1593 3.47682 9.4675C3.54202 9.67223 3.72718 9.80219 3.9262 9.80219C4.2466 9.80219 4.47588 9.48021 4.37575 9.16582C4.10415 8.31286 4.55914 7.39206 5.39006 7.11325C5.63829 7.02994 5.77374 6.75587 5.69258 6.50102C5.61143 6.24618 5.34452 6.10705 5.09617 6.19048C4.98794 6.2268 4.88347 6.27061 4.78254 6.32036C4.59413 5.82512 4.72411 5.24011 5.1442 4.88278C5.34529 4.7117 5.37322 4.40571 5.20659 4.19929C5.03996 3.99287 4.74184 3.96423 4.54075 4.13525C3.72177 4.8319 3.53227 6.00296 4.00839 6.91335C3.68944 7.27508 3.61537 7.54324 3.58872 7.54324C2.89466 7.54324 2.25244 7.77517 1.73151 8.16736C1.15118 7.42152 1.31648 6.29752 2.13549 5.77321C2.32417 5.65243 2.40538 5.41303 2.33058 5.19806C1.9832 4.19947 2.63842 3.02495 3.89268 3.02495C4.10645 3.02495 4.2946 2.87724 4.34966 2.66384C4.5334 1.95168 5.16356 1.45431 5.88211 1.45431C6.75631 1.45431 7.46754 2.18437 7.46754 3.08178V12.8868C7.46754 13.7842 6.75634 14.5142 5.88214 14.5142ZM14.1492 8.16739C13.5853 7.7428 12.9013 7.53189 12.2829 7.54372C12.1757 7.31315 12.0435 7.10737 11.8724 6.91335C12.3481 6.00369 12.1597 4.83251 11.34 4.13525C11.1389 3.9642 10.8408 3.99287 10.6742 4.19929C10.5076 4.40574 10.5355 4.71173 10.7366 4.88278C11.1567 5.24007 11.2867 5.82512 11.0982 6.32036C10.9973 6.27061 10.8928 6.2268 10.7846 6.19048C10.5364 6.10711 10.2694 6.24621 10.1882 6.50102C10.107 6.75584 10.2425 7.02994 10.4907 7.11325C11.3216 7.39206 11.7767 8.31286 11.505 9.16582C11.4239 9.42063 11.5593 9.69474 11.8076 9.77805C12.0544 9.8609 12.3224 9.72362 12.404 9.4675C12.5021 9.15927 12.5422 8.84138 12.5265 8.52696C13.6377 8.64846 14.4936 9.61834 14.4936 10.7739C14.4936 11.9388 13.6304 12.9005 12.5262 13.0209C12.5596 12.3683 12.3496 11.7281 11.9505 11.2324C11.7842 11.0257 11.4861 10.9967 11.2848 11.1674C11.0835 11.3383 11.0551 11.6442 11.2215 11.8508C12.081 12.9185 11.3207 14.5142 9.99867 14.5142C9.12448 14.5142 8.41325 13.7841 8.41325 12.8867V3.08178C8.41325 2.1844 9.12445 1.45431 9.99867 1.45431C10.7172 1.45431 11.3474 1.95171 11.5311 2.66384C11.5875 2.88246 11.7828 3.03263 12.0038 3.02471C13.1114 2.98291 13.9278 4.11276 13.5502 5.19809C13.4754 5.41306 13.5566 5.65246 13.7453 5.77324C14.5651 6.29806 14.7289 7.42243 14.1492 8.16739Z" fill="#36454F"/>
</svg>
