<svg width="68" height="68" viewBox="0 0 68 68" fill="none" xmlns="http://www.w3.org/2000/svg">
<g filter="url(#filter0_d_1804_29418)">
<circle cx="34" cy="34" r="22" fill="#FFE5CF"/>
<circle cx="34" cy="34" r="20.5" stroke="white" stroke-width="3"/>
</g>
<g clip-path="url(#clip0_1804_29418)">
<path d="M28.4467 37.0353C29.5082 38.0743 30.1739 39.3258 30.4041 40.5317C30.4523 40.7843 30.0648 41.1802 29.8112 41.1375C28.6006 40.9333 27.3351 40.2945 26.2736 39.2556C25.2121 38.2167 24.5463 36.9651 24.3161 35.7592C24.2679 35.5066 24.6555 35.1106 24.909 35.1534C26.1196 35.3576 27.3851 35.9963 28.4467 37.0353Z" fill="url(#paint0_linear_1804_29418)"/>
<path d="M28.4467 37.0353C29.5082 38.0743 30.1739 39.3258 30.4041 40.5317C30.4523 40.7843 30.0648 41.1802 29.8112 41.1375C28.6006 40.9333 27.3351 40.2945 26.2736 39.2556C25.2121 38.2167 24.5463 36.9651 24.3161 35.7592C24.2679 35.5066 24.6555 35.1106 24.909 35.1534C26.1196 35.3576 27.3851 35.9963 28.4467 37.0353Z" fill="url(#paint1_linear_1804_29418)"/>
<path d="M29.8861 34.5747C30.7373 36.2382 31.0314 37.9971 30.8241 39.5276C30.7807 39.8481 30.1602 40.1656 29.8749 40.0133C28.5124 39.286 27.2579 38.0184 26.4068 36.355C25.5557 34.6916 25.2615 32.9327 25.4688 31.4022C25.5122 31.0816 26.1327 30.7641 26.4181 30.9165C27.7805 31.6437 29.035 32.9113 29.8861 34.5747Z" fill="url(#paint2_linear_1804_29418)"/>
<path d="M25.4525 33.2251C25.565 34.2536 25.8785 35.3226 26.4067 36.355C27.2579 38.0185 28.5123 39.286 29.8748 40.0133C30.1601 40.1656 30.7806 39.8481 30.824 39.5276C31.0313 37.9971 30.7372 36.2382 29.886 34.5747C29.3848 33.5952 28.7437 32.7532 28.0231 32.0777L25.4525 33.2251Z" fill="url(#paint3_linear_1804_29418)"/>
<path d="M39.5532 37.0353C38.4917 38.0743 37.8259 39.3258 37.5958 40.5317C37.5476 40.7843 37.9351 41.1802 38.1887 41.1375C39.3993 40.9333 40.6648 40.2945 41.7263 39.2556C42.7878 38.2167 43.4536 36.9651 43.6838 35.7591C43.732 35.5066 43.3444 35.1106 43.0909 35.1534C41.8803 35.3576 40.6147 35.9963 39.5532 37.0353Z" fill="url(#paint4_linear_1804_29418)"/>
<path d="M39.5532 37.0353C38.4917 38.0743 37.8259 39.3258 37.5958 40.5317C37.5476 40.7843 37.9351 41.1802 38.1887 41.1375C39.3993 40.9333 40.6648 40.2945 41.7263 39.2556C42.7878 38.2167 43.4536 36.9651 43.6838 35.7591C43.732 35.5066 43.3444 35.1106 43.0909 35.1534C41.8803 35.3576 40.6147 35.9963 39.5532 37.0353Z" fill="url(#paint5_linear_1804_29418)"/>
<path d="M38.1139 34.5747C37.2627 36.2382 36.9686 37.9971 37.1758 39.5276C37.2192 39.8481 37.8397 40.1656 38.1251 40.0133C39.4876 39.286 40.742 38.0184 41.5931 36.355C42.4443 34.6916 42.7384 32.9327 42.5312 31.4022C42.4878 31.0816 41.8673 30.7641 41.5819 30.9165C40.2195 31.6437 38.965 32.9113 38.1139 34.5747Z" fill="url(#paint6_linear_1804_29418)"/>
<path d="M42.5474 33.2251C42.4349 34.2535 42.1214 35.3226 41.5931 36.355C40.742 38.0184 39.4876 39.286 38.1251 40.0133C37.8398 40.1656 37.2193 39.848 37.1758 39.5276C36.9686 37.9971 37.2627 36.2382 38.1139 34.5747C38.615 33.5952 39.2562 32.7532 39.9768 32.0777L42.5474 33.2251Z" fill="url(#paint7_linear_1804_29418)"/>
<path d="M33.9999 46C38.133 46 41.4835 42.6495 41.4835 38.5164C41.4835 34.3834 38.133 31.0329 33.9999 31.0329C29.8669 31.0329 26.5164 34.3834 26.5164 38.5164C26.5164 42.6495 29.8669 46 33.9999 46Z" fill="url(#paint8_linear_1804_29418)"/>
<path d="M34.0001 44.4814C37.2944 44.4814 39.965 41.8108 39.965 38.5164C39.965 35.2221 37.2944 32.5515 34.0001 32.5515C30.7058 32.5515 28.0352 35.2221 28.0352 38.5164C28.0352 41.8108 30.7058 44.4814 34.0001 44.4814Z" fill="url(#paint9_linear_1804_29418)"/>
<path d="M33.9998 43.6374C36.8281 43.6374 39.1208 41.3447 39.1208 38.5164C39.1208 35.6882 36.8281 33.3955 33.9998 33.3955C31.1716 33.3955 28.8789 35.6882 28.8789 38.5164C28.8789 41.3447 31.1716 43.6374 33.9998 43.6374Z" fill="url(#paint10_linear_1804_29418)"/>
<path d="M26.5164 38.5164C26.5164 42.6495 29.8669 46 33.9999 46C38.133 46 41.4835 42.6495 41.4835 38.5164C41.4835 38.4874 41.4828 38.4585 41.4824 38.4296H26.5174C26.5171 38.4585 26.5164 38.4874 26.5164 38.5164Z" fill="url(#paint11_linear_1804_29418)"/>
<path d="M36.0989 45.7012C38.4569 45.0135 40.3334 43.1968 41.1039 40.8752L37.459 37.2304L36.6373 37.2707L34.4196 35.053L31.7168 41.3191L36.0989 45.7012Z" fill="url(#paint12_linear_1804_29418)"/>
<path d="M37.0685 36.8903L35.6009 36.5357C35.4644 36.5027 35.3451 36.42 35.2663 36.3036L34.4203 35.053C34.318 34.9018 34.1612 34.8206 33.9999 34.8075C33.8386 34.8206 33.6818 34.9018 33.5795 35.053L32.7334 36.3036C32.6548 36.42 32.5355 36.5027 32.3989 36.5357L30.9313 36.8903C30.5332 36.9865 30.3673 37.4617 30.6189 37.7848L31.5469 38.9758C31.6332 39.0866 31.6751 39.2257 31.6643 39.3657L31.548 40.8711C31.5164 41.2794 31.9171 41.5841 32.3021 41.4445L33.7217 40.93C33.8114 40.8975 33.907 40.8891 33.9999 40.9035C34.0928 40.8892 34.1884 40.8976 34.2781 40.93L35.6976 41.4445C36.0827 41.584 36.4833 41.2794 36.4518 40.8711L36.3355 39.3657C36.3247 39.2257 36.3666 39.0866 36.4529 38.9758L37.3808 37.7848C37.6325 37.4617 37.4666 36.9865 37.0685 36.8903Z" fill="url(#paint13_linear_1804_29418)"/>
<path d="M34.2781 40.93L35.6976 41.4445C36.0827 41.584 36.4833 41.2794 36.4518 40.8711L36.3355 39.3657C36.3247 39.2257 36.3666 39.0866 36.4529 38.9758L37.3808 37.7848C37.6325 37.4617 37.4666 36.9865 37.0685 36.8903L35.6009 36.5357C35.4643 36.5027 35.3451 36.42 35.2663 36.3036L34.4203 35.053C34.3179 34.9018 34.1612 34.8206 33.9999 34.8075V40.9035C34.0928 40.8891 34.1884 40.8975 34.2781 40.93Z" fill="url(#paint14_linear_1804_29418)"/>
<path d="M37.0684 36.8903L35.6008 36.5357C35.5507 36.5236 35.503 36.5046 35.4587 36.4799L31.7174 41.3191C31.8642 41.461 32.0856 41.523 32.3021 41.4445L33.7216 40.9301C33.8113 40.8975 33.907 40.8892 33.9998 40.9036C34.0927 40.8892 34.1883 40.8976 34.278 40.9301L35.6975 41.4445C36.0826 41.584 36.4832 41.2794 36.4517 40.8711L36.3354 39.3657C36.3246 39.2257 36.3665 39.0867 36.4528 38.9758L37.3807 37.7848C37.6324 37.4616 37.4665 36.9865 37.0684 36.8903Z" fill="url(#paint15_linear_1804_29418)"/>
<path d="M30.9313 36.8903L32.3989 36.5357C32.449 36.5236 32.4967 36.5047 32.541 36.48L36.2823 41.3192C36.1355 41.461 35.9141 41.523 35.6976 41.4445L34.2781 40.9301C34.1884 40.8976 34.0927 40.8892 33.9999 40.9036C33.907 40.8892 33.8114 40.8976 33.7217 40.9301L32.3021 41.4445C31.9171 41.5841 31.5164 41.2794 31.548 40.8711L31.6643 39.3657C31.6751 39.2257 31.6332 39.0867 31.5469 38.9759L30.6189 37.7848C30.3673 37.4617 30.5332 36.9865 30.9313 36.8903Z" fill="url(#paint16_linear_1804_29418)"/>
<path d="M30.5407 37.2304C30.4709 37.4064 30.4876 37.6161 30.619 37.7848L31.5469 38.9758C31.6332 39.0866 31.6751 39.2257 31.6643 39.3657L31.548 40.8711C31.5165 41.2794 31.9171 41.5841 32.3022 41.4445L33.7217 40.93C33.8114 40.8975 33.9071 40.8891 33.9999 40.9035C34.0928 40.8892 34.1884 40.8976 34.2781 40.93L35.6976 41.4445C36.0827 41.584 36.4833 41.2794 36.4518 40.8711L36.3355 39.3657C36.3295 39.288 36.3403 39.2108 36.3653 39.1384L30.5407 37.2304Z" fill="url(#paint17_linear_1804_29418)"/>
<path d="M37.4598 37.2304C37.5296 37.4064 37.5129 37.6162 37.3815 37.7848L36.4535 38.9758C36.3672 39.0867 36.3253 39.2257 36.3362 39.3657L36.4524 40.8711C36.484 41.2794 36.0833 41.5841 35.6983 41.4445L34.2787 40.93C34.189 40.8975 34.0934 40.8892 34.0005 40.9036C33.9076 40.8892 33.812 40.8976 33.7223 40.93L32.3028 41.4445C31.9178 41.584 31.5171 41.2794 31.5486 40.8711L31.6649 39.3657C31.6709 39.288 31.6602 39.2108 31.6351 39.1384L37.4598 37.2304Z" fill="url(#paint18_linear_1804_29418)"/>
<path d="M34 31.0328C33.9689 31.0328 33.9381 31.0336 33.9071 31.034L32.7522 32.1889L41.1833 40.62C41.3784 39.9527 41.4835 39.2468 41.4835 38.5164C41.4835 34.3833 38.133 31.0328 34 31.0328Z" fill="url(#paint19_linear_1804_29418)"/>
<path d="M29.4823 22.1568V26.1098L33.9999 30.6274L38.5176 26.1098V22.1568H29.4823Z" fill="url(#paint20_linear_1804_29418)"/>
<path d="M29.4823 22.1568V23.3871L33.9848 27.8896C33.9932 27.8979 34.0067 27.8979 34.0151 27.8896L38.5176 23.3871V22.1568H29.4823Z" fill="url(#paint21_linear_1804_29418)"/>
<path d="M33.9999 28.6014C33.8137 28.6014 33.6275 28.5305 33.4857 28.3888L29.4823 24.3853V26.1098L33.9999 30.6275L38.5176 26.1098V24.3853L34.5142 28.3888C34.3724 28.5305 34.1862 28.6014 33.9999 28.6014Z" fill="url(#paint22_linear_1804_29418)"/>
<path d="M29.4823 22.1568V23.3871L33.9848 27.8896C33.9932 27.8979 34.0067 27.8979 34.0151 27.8896L38.5176 23.3871V22.1568H29.4823Z" fill="url(#paint23_linear_1804_29418)"/>
<path d="M33.9999 28.6014C33.8137 28.6014 33.6275 28.5305 33.4857 28.3888L29.4823 24.3853V26.1098L33.9999 30.6275L38.5176 26.1098V24.3853L34.5142 28.3888C34.3724 28.5305 34.1862 28.6014 33.9999 28.6014Z" fill="url(#paint24_linear_1804_29418)"/>
<path d="M33.9999 28.6014C34.1862 28.6014 34.3724 28.5305 34.5142 28.3888L38.5176 24.3853V26.1098L33.9999 30.6275L29.4823 26.1098V24.3853L33.4857 28.3888C33.6275 28.5305 33.8137 28.6014 33.9999 28.6014Z" fill="url(#paint25_linear_1804_29418)"/>
<path d="M33.5047 29.6013L29.6602 25.7568C29.372 25.4686 28.9045 25.4686 28.6162 25.7568C28.328 26.0451 28.328 26.5126 28.6162 26.8008L34 32.1848L39.3839 26.8009C39.6722 26.5126 39.6722 26.0452 39.3839 25.7569C39.0956 25.4686 38.6282 25.4686 38.3399 25.7569L34.4955 29.6013C34.2218 29.8749 33.7783 29.8749 33.5047 29.6013Z" fill="url(#paint26_linear_1804_29418)"/>
<path d="M28.6163 25.7656L33.4333 30.5826C33.7464 30.8957 34.254 30.8957 34.5671 30.5826L39.3841 25.7656C39.3855 25.7642 39.3866 25.7626 39.388 25.7612C39.3866 25.7598 39.3855 25.7583 39.3841 25.7568C39.0958 25.4686 38.6283 25.4686 38.3401 25.7568L34.4956 29.6013C34.222 29.8749 33.7784 29.8749 33.5048 29.6013L29.6604 25.7568C29.3721 25.4686 28.9047 25.4686 28.6164 25.7568C28.615 25.7583 28.6138 25.7598 28.6124 25.7612C28.6138 25.7626 28.6149 25.7642 28.6163 25.7656Z" fill="url(#paint27_linear_1804_29418)"/>
<path d="M33.9999 32.1848L37.8004 28.3843H35.7123L34.4953 29.6013C34.2217 29.8749 33.7781 29.8749 33.5045 29.6013L32.2875 28.3843H30.1995L33.9999 32.1848Z" fill="url(#paint28_linear_1804_29418)"/>
<path d="M33.5293 31.7142L33.9999 32.1847L38.8199 27.3647H36.7319L34.4953 29.6013C34.2297 29.8669 33.8043 29.8738 33.5293 29.6237V31.7142Z" fill="url(#paint29_linear_1804_29418)"/>
<path d="M34 32.7058C34.9745 32.7058 35.7646 31.9157 35.7646 30.9412C35.7646 29.9666 34.9745 29.1766 34 29.1766C33.0254 29.1766 32.2354 29.9666 32.2354 30.9412C32.2354 31.9157 33.0254 32.7058 34 32.7058Z" fill="url(#paint30_linear_1804_29418)"/>
<path d="M34 31.9528C34.5587 31.9528 35.0116 31.4999 35.0116 30.9412C35.0116 30.3824 34.5587 29.9295 34 29.9295C33.4412 29.9295 32.9883 30.3824 32.9883 30.9412C32.9883 31.4999 33.4412 31.9528 34 31.9528Z" fill="url(#paint31_linear_1804_29418)"/>
<path d="M39.2002 23.7568H28.8C28.5012 23.7568 28.2589 23.5146 28.2589 23.2158V22.5411C28.2589 22.2423 28.5012 22 28.8 22H39.2002C39.499 22 39.7413 22.2423 39.7413 22.5411V23.2158C39.7413 23.5146 39.499 23.7568 39.2002 23.7568Z" fill="url(#paint32_linear_1804_29418)"/>
</g>
<defs>
<filter id="filter0_d_1804_29418" x="0" y="0" width="68" height="68" filterUnits="userSpaceOnUse" color-interpolation-filters="sRGB">
<feFlood flood-opacity="0" result="BackgroundImageFix"/>
<feColorMatrix in="SourceAlpha" type="matrix" values="0 0 0 0 0 0 0 0 0 0 0 0 0 0 0 0 0 0 127 0" result="hardAlpha"/>
<feOffset/>
<feGaussianBlur stdDeviation="6"/>
<feComposite in2="hardAlpha" operator="out"/>
<feColorMatrix type="matrix" values="0 0 0 0 0.211765 0 0 0 0 0.270588 0 0 0 0 0.309804 0 0 0 0.16 0"/>
<feBlend mode="normal" in2="BackgroundImageFix" result="effect1_dropShadow_1804_29418"/>
<feBlend mode="normal" in="SourceGraphic" in2="effect1_dropShadow_1804_29418" result="shape"/>
</filter>
<linearGradient id="paint0_linear_1804_29418" x1="25.6503" y1="35.485" x2="27.1887" y2="37.9081" gradientUnits="userSpaceOnUse">
<stop stop-color="#FBC56D"/>
<stop offset="1" stop-color="#C5715A"/>
</linearGradient>
<linearGradient id="paint1_linear_1804_29418" x1="25.8667" y1="37.6188" x2="27.5083" y2="38.2178" gradientUnits="userSpaceOnUse">
<stop stop-color="#8C3D27" stop-opacity="0"/>
<stop offset="1" stop-color="#8C3D27"/>
</linearGradient>
<linearGradient id="paint2_linear_1804_29418" x1="28.2819" y1="32.9013" x2="28.0662" y2="36.7119" gradientUnits="userSpaceOnUse">
<stop stop-color="#FBC56D"/>
<stop offset="1" stop-color="#C5715A"/>
</linearGradient>
<linearGradient id="paint3_linear_1804_29418" x1="27.792" y1="34.8336" x2="28.7227" y2="36.5786" gradientUnits="userSpaceOnUse">
<stop stop-color="#8C3D27" stop-opacity="0"/>
<stop offset="1" stop-color="#8C3D27"/>
</linearGradient>
<linearGradient id="paint4_linear_1804_29418" x1="42.3458" y1="35.4916" x2="40.8074" y2="37.9147" gradientUnits="userSpaceOnUse">
<stop stop-color="#FBC56D"/>
<stop offset="1" stop-color="#C5715A"/>
</linearGradient>
<linearGradient id="paint5_linear_1804_29418" x1="42.1294" y1="37.6254" x2="40.4878" y2="38.2244" gradientUnits="userSpaceOnUse">
<stop stop-color="#8C3D27" stop-opacity="0"/>
<stop offset="1" stop-color="#8C3D27"/>
</linearGradient>
<linearGradient id="paint6_linear_1804_29418" x1="39.7143" y1="32.9079" x2="39.93" y2="36.7185" gradientUnits="userSpaceOnUse">
<stop stop-color="#FBC56D"/>
<stop offset="1" stop-color="#C5715A"/>
</linearGradient>
<linearGradient id="paint7_linear_1804_29418" x1="40.2041" y1="34.8402" x2="39.2734" y2="36.5852" gradientUnits="userSpaceOnUse">
<stop stop-color="#8C3D27" stop-opacity="0"/>
<stop offset="1" stop-color="#8C3D27"/>
</linearGradient>
<linearGradient id="paint8_linear_1804_29418" x1="29.386" y1="33.9025" x2="37.2785" y2="41.795" gradientUnits="userSpaceOnUse">
<stop stop-color="#FBC56D"/>
<stop offset="1" stop-color="#C5715A"/>
</linearGradient>
<linearGradient id="paint9_linear_1804_29418" x1="37.8743" y1="42.3906" x2="30.0129" y2="34.5292" gradientUnits="userSpaceOnUse">
<stop stop-color="#FBC56D"/>
<stop offset="1" stop-color="#C5715A"/>
</linearGradient>
<linearGradient id="paint10_linear_1804_29418" x1="30.2771" y1="34.7937" x2="36.4049" y2="40.9215" gradientUnits="userSpaceOnUse">
<stop stop-color="#FBC56D"/>
<stop offset="1" stop-color="#C5715A"/>
</linearGradient>
<linearGradient id="paint11_linear_1804_29418" x1="33.9999" y1="40.706" x2="33.9999" y2="45.618" gradientUnits="userSpaceOnUse">
<stop stop-color="#8C3D27" stop-opacity="0"/>
<stop offset="1" stop-color="#8C3D27"/>
</linearGradient>
<linearGradient id="paint12_linear_1804_29418" x1="38.482" y1="42.4056" x2="32.3016" y2="38.5154" gradientUnits="userSpaceOnUse">
<stop stop-color="#8C3D27" stop-opacity="0"/>
<stop offset="1" stop-color="#8C3D27"/>
</linearGradient>
<linearGradient id="paint13_linear_1804_29418" x1="32.441" y1="37.094" x2="35.2521" y2="39.905" gradientUnits="userSpaceOnUse">
<stop stop-color="#FBC56D"/>
<stop offset="1" stop-color="#C5715A"/>
</linearGradient>
<linearGradient id="paint14_linear_1804_29418" x1="35.6843" y1="37.8604" x2="31.7989" y2="39.4666" gradientUnits="userSpaceOnUse">
<stop stop-color="#8C3D27" stop-opacity="0"/>
<stop offset="1" stop-color="#8C3D27"/>
</linearGradient>
<linearGradient id="paint15_linear_1804_29418" x1="34.6697" y1="39.2392" x2="32.5426" y2="38.3276" gradientUnits="userSpaceOnUse">
<stop stop-color="#8C3D27" stop-opacity="0"/>
<stop offset="1" stop-color="#8C3D27"/>
</linearGradient>
<linearGradient id="paint16_linear_1804_29418" x1="33.33" y1="39.2393" x2="35.4571" y2="38.3276" gradientUnits="userSpaceOnUse">
<stop stop-color="#8C3D27" stop-opacity="0"/>
<stop offset="1" stop-color="#8C3D27"/>
</linearGradient>
<linearGradient id="paint17_linear_1804_29418" x1="33.3773" y1="39.3459" x2="34.7447" y2="37.1482" gradientUnits="userSpaceOnUse">
<stop stop-color="#8C3D27" stop-opacity="0"/>
<stop offset="1" stop-color="#8C3D27"/>
</linearGradient>
<linearGradient id="paint18_linear_1804_29418" x1="34.5178" y1="39.0684" x2="34.4038" y2="36.9196" gradientUnits="userSpaceOnUse">
<stop stop-color="#8C3D27" stop-opacity="0"/>
<stop offset="1" stop-color="#8C3D27"/>
</linearGradient>
<linearGradient id="paint19_linear_1804_29418" x1="37.6877" y1="35.3549" x2="34.8014" y2="30.304" gradientUnits="userSpaceOnUse">
<stop stop-color="#8C3D27" stop-opacity="0"/>
<stop offset="1" stop-color="#8C3D27"/>
</linearGradient>
<linearGradient id="paint20_linear_1804_29418" x1="34.3346" y1="24.6671" x2="36.1935" y2="27.6318" gradientUnits="userSpaceOnUse">
<stop stop-color="#F9F5F3"/>
<stop offset="1" stop-color="#D8E8F0"/>
</linearGradient>
<linearGradient id="paint21_linear_1804_29418" x1="32.4806" y1="21.0296" x2="38.2531" y2="27.6492" gradientUnits="userSpaceOnUse">
<stop stop-color="#BBEC6C"/>
<stop offset="1" stop-color="#81B823"/>
</linearGradient>
<linearGradient id="paint22_linear_1804_29418" x1="31.2543" y1="22.099" x2="37.0268" y2="28.7186" gradientUnits="userSpaceOnUse">
<stop stop-color="#BBEC6C"/>
<stop offset="1" stop-color="#81B823"/>
</linearGradient>
<linearGradient id="paint23_linear_1804_29418" x1="33.9999" y1="25.1294" x2="33.9999" y2="23.5749" gradientUnits="userSpaceOnUse">
<stop stop-color="#78A91F" stop-opacity="0"/>
<stop offset="1" stop-color="#78A91F"/>
</linearGradient>
<linearGradient id="paint24_linear_1804_29418" x1="35.7879" y1="27.0355" x2="36.5912" y2="27.8388" gradientUnits="userSpaceOnUse">
<stop stop-color="#78A91F" stop-opacity="0"/>
<stop offset="1" stop-color="#78A91F"/>
</linearGradient>
<linearGradient id="paint25_linear_1804_29418" x1="32.2119" y1="27.0355" x2="31.4087" y2="27.8388" gradientUnits="userSpaceOnUse">
<stop stop-color="#78A91F" stop-opacity="0"/>
<stop offset="1" stop-color="#78A91F"/>
</linearGradient>
<linearGradient id="paint26_linear_1804_29418" x1="38.0794" y1="30.3582" x2="28.4295" y2="20.7083" gradientUnits="userSpaceOnUse">
<stop stop-color="#FBC56D"/>
<stop offset="1" stop-color="#C5715A"/>
</linearGradient>
<linearGradient id="paint27_linear_1804_29418" x1="34.0002" y1="25.8432" x2="34.0002" y2="32.4332" gradientUnits="userSpaceOnUse">
<stop stop-color="#FBC56D"/>
<stop offset="1" stop-color="#C5715A"/>
</linearGradient>
<linearGradient id="paint28_linear_1804_29418" x1="33.9999" y1="29.6706" x2="33.9999" y2="31.8374" gradientUnits="userSpaceOnUse">
<stop stop-color="#8C3D27" stop-opacity="0"/>
<stop offset="1" stop-color="#8C3D27"/>
</linearGradient>
<linearGradient id="paint29_linear_1804_29418" x1="36.2242" y1="28.4437" x2="34.9066" y2="29.7849" gradientUnits="userSpaceOnUse">
<stop stop-color="#8C3D27" stop-opacity="0"/>
<stop offset="1" stop-color="#8C3D27"/>
</linearGradient>
<linearGradient id="paint30_linear_1804_29418" x1="32.9882" y1="29.9294" x2="35.4837" y2="32.4249" gradientUnits="userSpaceOnUse">
<stop stop-color="#FBC56D"/>
<stop offset="1" stop-color="#C5715A"/>
</linearGradient>
<linearGradient id="paint31_linear_1804_29418" x1="34.7176" y1="31.6588" x2="33.4823" y2="30.4235" gradientUnits="userSpaceOnUse">
<stop stop-color="#FBC56D"/>
<stop offset="1" stop-color="#C5715A"/>
</linearGradient>
<linearGradient id="paint32_linear_1804_29418" x1="34.0001" y1="22.5333" x2="34.0001" y2="23.5139" gradientUnits="userSpaceOnUse">
<stop stop-color="#FBC56D"/>
<stop offset="1" stop-color="#C5715A"/>
</linearGradient>
<clipPath id="clip0_1804_29418">
<rect width="24" height="24" fill="white" transform="translate(22 22)"/>
</clipPath>
</defs>
</svg>
