<svg width="16" height="18" viewBox="0 0 16 18" fill="none" xmlns="http://www.w3.org/2000/svg">
<path d="M3.83499 11.2765C4.63112 12.0557 5.13046 12.9943 5.30308 13.8988C5.33922 14.0882 5.04858 14.3852 4.85841 14.3531C3.95047 14.2 3.00131 13.7209 2.20518 12.9417C1.40905 12.1625 0.909707 11.2238 0.737083 10.3194C0.700942 10.1299 0.991589 9.83298 1.18175 9.86506C2.08969 10.0182 3.03886 10.4973 3.83499 11.2765Z" fill="url(#paint0_linear_1804_29594)"/>
<path d="M3.83499 11.2765C4.63112 12.0557 5.13046 12.9943 5.30308 13.8988C5.33922 14.0882 5.04858 14.3852 4.85841 14.3531C3.95047 14.2 3.00131 13.7209 2.20518 12.9417C1.40905 12.1625 0.909707 11.2238 0.737083 10.3194C0.700942 10.1299 0.991589 9.83298 1.18175 9.86506C2.08969 10.0182 3.03886 10.4973 3.83499 11.2765Z" fill="url(#paint1_linear_1804_29594)"/>
<path d="M4.91458 9.43105C5.55295 10.6786 5.77354 11.9978 5.6181 13.1457C5.58556 13.3861 5.12017 13.6242 4.90615 13.51C3.88428 12.9645 2.94344 12.0138 2.30511 10.7663C1.66678 9.51869 1.44616 8.1995 1.60159 7.05163C1.63414 6.81124 2.09952 6.57311 2.31355 6.68736C3.33538 7.23279 4.27622 8.18347 4.91458 9.43105Z" fill="url(#paint2_linear_1804_29594)"/>
<path d="M1.58942 8.41882C1.67377 9.19018 1.9089 9.99199 2.30508 10.7663C2.94344 12.0138 3.88424 12.9645 4.90611 13.51C5.1201 13.6242 5.58549 13.386 5.61806 13.1457C5.7735 11.9979 5.55291 10.6786 4.91455 9.43106C4.53866 8.69641 4.05782 8.06489 3.51736 7.55828L1.58942 8.41882Z" fill="url(#paint3_linear_1804_29594)"/>
<path d="M12.165 11.2765C11.3688 12.0557 10.8695 12.9943 10.6969 13.8988C10.6607 14.0882 10.9514 14.3852 11.1415 14.3531C12.0495 14.2 12.9986 13.7209 13.7948 12.9417C14.5909 12.1625 15.0902 11.2238 15.2629 10.3194C15.299 10.1299 15.0084 9.83298 14.8182 9.86506C13.9103 10.0182 12.9611 10.4973 12.165 11.2765Z" fill="url(#paint4_linear_1804_29594)"/>
<path d="M12.165 11.2765C11.3688 12.0557 10.8695 12.9943 10.6969 13.8988C10.6607 14.0882 10.9514 14.3852 11.1415 14.3531C12.0495 14.2 12.9986 13.7209 13.7948 12.9417C14.5909 12.1625 15.0902 11.2238 15.2629 10.3194C15.299 10.1299 15.0084 9.83298 14.8182 9.86506C13.9103 10.0182 12.9611 10.4973 12.165 11.2765Z" fill="url(#paint5_linear_1804_29594)"/>
<path d="M11.0855 9.43105C10.4471 10.6786 10.2265 11.9978 10.3819 13.1457C10.4145 13.3861 10.8799 13.6242 11.0939 13.51C12.1158 12.9645 13.0566 12.0138 13.6949 10.7663C14.3333 9.51869 14.5539 8.1995 14.3984 7.05163C14.3659 6.81124 13.9005 6.57311 13.6865 6.68736C12.6647 7.23279 11.7238 8.18347 11.0855 9.43105Z" fill="url(#paint6_linear_1804_29594)"/>
<path d="M14.4106 8.41881C14.3262 9.19017 14.0911 9.99198 13.6949 10.7663C13.0566 12.0138 12.1158 12.9645 11.0939 13.51C10.8799 13.6242 10.4145 13.386 10.3819 13.1457C10.2265 11.9979 10.4471 10.6786 11.0855 9.43105C11.4613 8.6964 11.9422 8.06489 12.4826 7.55827L14.4106 8.41881Z" fill="url(#paint7_linear_1804_29594)"/>
<path d="M7.99989 18C11.0997 18 13.6126 15.4871 13.6126 12.3873C13.6126 9.28752 11.0997 6.77464 7.99989 6.77464C4.90009 6.77464 2.38721 9.28752 2.38721 12.3873C2.38721 15.4871 4.90009 18 7.99989 18Z" fill="url(#paint8_linear_1804_29594)"/>
<path d="M7.99995 16.861C10.4707 16.861 12.4737 14.8581 12.4737 12.3873C12.4737 9.91656 10.4707 7.91361 7.99995 7.91361C5.52919 7.91361 3.52625 9.91656 3.52625 12.3873C3.52625 14.8581 5.52919 16.861 7.99995 16.861Z" fill="url(#paint9_linear_1804_29594)"/>
<path d="M7.99976 16.228C10.1209 16.228 11.8405 14.5085 11.8405 12.3873C11.8405 10.2662 10.1209 8.54662 7.99976 8.54662C5.8786 8.54662 4.15906 10.2662 4.15906 12.3873C4.15906 14.5085 5.8786 16.228 7.99976 16.228Z" fill="url(#paint10_linear_1804_29594)"/>
<path d="M2.38721 12.3873C2.38721 15.4871 4.90008 18 7.99989 18C11.0997 18 13.6126 15.4871 13.6126 12.3873C13.6126 12.3655 13.612 12.3439 13.6118 12.3222H2.38802C2.38777 12.3439 2.38721 12.3655 2.38721 12.3873Z" fill="url(#paint11_linear_1804_29594)"/>
<path d="M9.57415 17.7759C11.3427 17.2601 12.75 15.8976 13.3279 14.1564L10.5943 11.4228L9.97799 11.453L8.31472 9.78974L6.2876 14.4893L9.57415 17.7759Z" fill="url(#paint12_linear_1804_29594)"/>
<path d="M10.3014 11.1677L9.20065 10.9018C9.09826 10.8771 9.00879 10.815 8.94975 10.7277L8.31523 9.78978C8.23846 9.67635 8.1209 9.61546 7.99991 9.60565C7.87892 9.61546 7.76132 9.67635 7.68459 9.78978L7.05008 10.7277C6.99106 10.815 6.90159 10.8771 6.79917 10.9018L5.69845 11.1677C5.39986 11.2399 5.27545 11.5962 5.46421 11.8386L6.16017 12.7319C6.2249 12.815 6.25631 12.9192 6.24819 13.0243L6.16098 14.1533C6.13733 14.4595 6.43779 14.688 6.72661 14.5834L7.79125 14.1975C7.85852 14.1731 7.93028 14.1669 7.99991 14.1777C8.06958 14.1669 8.1413 14.1732 8.20857 14.1975L9.27322 14.5834C9.56199 14.688 9.86249 14.4595 9.83884 14.1533L9.75163 13.0243C9.74351 12.9192 9.77492 12.815 9.83965 12.7319L10.5356 11.8386C10.7244 11.5962 10.6 11.2399 10.3014 11.1677Z" fill="url(#paint13_linear_1804_29594)"/>
<path d="M8.2086 14.1975L9.27324 14.5834C9.56202 14.688 9.86252 14.4595 9.83887 14.1533L9.75166 13.0243C9.74354 12.9192 9.77495 12.815 9.83968 12.7319L10.5356 11.8386C10.7244 11.5963 10.6 11.2399 10.3014 11.1677L9.20068 10.9018C9.09829 10.8771 9.00882 10.815 8.94977 10.7277L8.31526 9.78978C8.23849 9.67635 8.12093 9.61546 7.99994 9.60565V14.1777C8.06961 14.1669 8.14136 14.1731 8.2086 14.1975Z" fill="url(#paint14_linear_1804_29594)"/>
<path d="M10.3013 11.1677L9.20057 10.9018C9.16298 10.8927 9.12719 10.8785 9.09398 10.86L6.28802 14.4894C6.39811 14.5957 6.56417 14.6422 6.72652 14.5834L7.79117 14.1976C7.85844 14.1732 7.93019 14.1669 7.99983 14.1777C8.0695 14.1669 8.14121 14.1732 8.20848 14.1976L9.27313 14.5834C9.56191 14.688 9.8624 14.4596 9.83875 14.1533L9.75154 13.0243C9.74343 12.9193 9.77484 12.815 9.83957 12.7319L10.5355 11.8386C10.7243 11.5962 10.5999 11.2399 10.3013 11.1677Z" fill="url(#paint15_linear_1804_29594)"/>
<path d="M5.69845 11.1677L6.79917 10.9018C6.83676 10.8927 6.87255 10.8785 6.90576 10.86L9.71171 14.4894C9.60163 14.5957 9.43557 14.6422 9.27322 14.5834L8.20857 14.1976C8.1413 14.1732 8.06955 14.1669 7.99991 14.1777C7.93024 14.1669 7.85852 14.1732 7.79125 14.1976L6.72661 14.5834C6.43783 14.688 6.13733 14.4596 6.16098 14.1533L6.24819 13.0243C6.25631 12.9193 6.2249 12.815 6.16017 12.7319L5.46421 11.8386C5.27545 11.5962 5.39986 11.2399 5.69845 11.1677Z" fill="url(#paint16_linear_1804_29594)"/>
<path d="M5.40546 11.4228C5.35312 11.5548 5.36568 11.7121 5.46419 11.8386L6.16015 12.7319C6.22488 12.815 6.25629 12.9192 6.24818 13.0243L6.16096 14.1533C6.13732 14.4595 6.43778 14.688 6.72659 14.5834L7.79124 14.1975C7.85851 14.1731 7.93026 14.1669 7.99989 14.1777C8.06957 14.1669 8.14128 14.1732 8.20855 14.1975L9.2732 14.5834C9.56198 14.688 9.86247 14.4595 9.83882 14.1533L9.75161 13.0243C9.74709 12.966 9.75518 12.9081 9.77395 12.8538L5.40546 11.4228Z" fill="url(#paint17_linear_1804_29594)"/>
<path d="M10.5948 11.4228C10.6472 11.5548 10.6346 11.7121 10.5361 11.8386L9.84014 12.7319C9.77541 12.815 9.744 12.9193 9.75211 13.0243L9.83933 14.1533C9.86297 14.4596 9.56248 14.6881 9.2737 14.5834L8.20906 14.1975C8.14179 14.1732 8.07003 14.1669 8.0004 14.1777C7.93073 14.1669 7.85901 14.1732 7.79174 14.1975L6.72709 14.5834C6.43831 14.688 6.13782 14.4596 6.16147 14.1533L6.24868 13.0243C6.2532 12.966 6.24511 12.9081 6.22634 12.8538L10.5948 11.4228Z" fill="url(#paint18_linear_1804_29594)"/>
<path d="M7.99997 6.77464C7.97668 6.77464 7.95356 6.77524 7.93034 6.77552L7.06415 7.64171L13.3875 13.965C13.5338 13.4645 13.6127 12.9351 13.6127 12.3873C13.6127 9.28751 11.0998 6.77464 7.99997 6.77464Z" fill="url(#paint19_linear_1804_29594)"/>
<path d="M4.61176 0.117638V3.08234L7.99999 6.47058L11.3882 3.08234V0.117638H4.61176Z" fill="url(#paint20_linear_1804_29594)"/>
<path d="M4.61176 0.117638V1.0403L7.98866 4.4172C7.99491 4.42345 8.00507 4.42345 8.01132 4.4172L11.3882 1.0403V0.117638H4.61176Z" fill="url(#paint21_linear_1804_29594)"/>
<path d="M7.99999 4.95107C7.8603 4.95107 7.72064 4.89791 7.61433 4.79157L4.61176 1.78899V3.08238L7.99999 6.47062L11.3882 3.08238V1.78899L8.38565 4.79157C8.27934 4.89788 8.13969 4.95107 7.99999 4.95107Z" fill="url(#paint22_linear_1804_29594)"/>
<path d="M4.61176 0.117638V1.0403L7.98866 4.4172C7.99491 4.42345 8.00507 4.42345 8.01132 4.4172L11.3882 1.0403V0.117638H4.61176Z" fill="url(#paint23_linear_1804_29594)"/>
<path d="M7.99999 4.95107C7.8603 4.95107 7.72064 4.89791 7.61433 4.79157L4.61176 1.78899V3.08238L7.99999 6.47062L11.3882 3.08238V1.78899L8.38565 4.79157C8.27934 4.89788 8.13969 4.95107 7.99999 4.95107Z" fill="url(#paint24_linear_1804_29594)"/>
<path d="M7.99999 4.95107C8.13969 4.95107 8.27934 4.89791 8.38565 4.79157L11.3882 1.78899V3.08238L7.99999 6.47062L4.61176 3.08238V1.78899L7.61433 4.79157C7.72064 4.89788 7.86033 4.95107 7.99999 4.95107Z" fill="url(#paint25_linear_1804_29594)"/>
<path d="M7.62846 5.70096L4.74515 2.81764C4.52894 2.60143 4.17836 2.60143 3.96215 2.81764C3.74593 3.03385 3.74593 3.38443 3.96215 3.60064L8.00001 7.63857L12.0379 3.60067C12.2541 3.38446 12.2541 3.03389 12.0379 2.81767C11.8217 2.60146 11.4711 2.60146 11.2549 2.81767L8.37158 5.70099C8.16635 5.90619 7.83366 5.90619 7.62846 5.70096Z" fill="url(#paint26_linear_1804_29594)"/>
<path d="M3.96222 2.8242L7.57496 6.43694C7.80977 6.67176 8.19049 6.67176 8.4253 6.43694L12.038 2.8242C12.0391 2.82314 12.0399 2.82198 12.041 2.82092C12.0399 2.81986 12.0391 2.8187 12.038 2.81764C11.8218 2.60143 11.4712 2.60143 11.255 2.81764L8.37169 5.70096C8.16649 5.90616 7.83377 5.90616 7.62857 5.70096L4.74525 2.81764C4.52904 2.60143 4.17847 2.60143 3.96225 2.81764C3.9612 2.8187 3.96035 2.81986 3.95929 2.82092C3.96031 2.82198 3.96116 2.82314 3.96222 2.8242Z" fill="url(#paint27_linear_1804_29594)"/>
<path d="M7.99989 7.63857L10.8502 4.78825H9.28417L8.37143 5.70099C8.16623 5.90619 7.83351 5.90619 7.62831 5.70099L6.71557 4.78825H5.14954L7.99989 7.63857Z" fill="url(#paint28_linear_1804_29594)"/>
<path d="M7.64697 7.28562L7.99991 7.63856L11.6149 4.02352H10.0489L8.37149 5.70095C8.17226 5.90018 7.85323 5.90537 7.64697 5.71778V7.28562Z" fill="url(#paint29_linear_1804_29594)"/>
<path d="M7.99997 8.02934C8.7309 8.02934 9.32343 7.43681 9.32343 6.70588C9.32343 5.97496 8.7309 5.38242 7.99997 5.38242C7.26905 5.38242 6.67651 5.97496 6.67651 6.70588C6.67651 7.43681 7.26905 8.02934 7.99997 8.02934Z" fill="url(#paint30_linear_1804_29594)"/>
<path d="M7.99996 7.46463C8.41901 7.46463 8.75872 7.12493 8.75872 6.70588C8.75872 6.28683 8.41901 5.94713 7.99996 5.94713C7.58092 5.94713 7.24121 6.28683 7.24121 6.70588C7.24121 7.12493 7.58092 7.46463 7.99996 7.46463Z" fill="url(#paint31_linear_1804_29594)"/>
<path d="M11.9001 1.31764H4.09996C3.87585 1.31764 3.69415 1.13594 3.69415 0.911824V0.405812C3.69415 0.181694 3.87585 0 4.09996 0H11.9001C12.1242 0 12.3059 0.181694 12.3059 0.405812V0.911859C12.3059 1.13598 12.1242 1.31764 11.9001 1.31764Z" fill="url(#paint32_linear_1804_29594)"/>
<defs>
<linearGradient id="paint0_linear_1804_29594" x1="1.73773" y1="10.1137" x2="2.89156" y2="11.9311" gradientUnits="userSpaceOnUse">
<stop stop-color="#FBC56D"/>
<stop offset="1" stop-color="#C5715A"/>
</linearGradient>
<linearGradient id="paint1_linear_1804_29594" x1="1.90006" y1="11.7141" x2="3.13124" y2="12.1633" gradientUnits="userSpaceOnUse">
<stop stop-color="#8C3D27" stop-opacity="0"/>
<stop offset="1" stop-color="#8C3D27"/>
</linearGradient>
<linearGradient id="paint2_linear_1804_29594" x1="3.71143" y1="8.17598" x2="3.54967" y2="11.034" gradientUnits="userSpaceOnUse">
<stop stop-color="#FBC56D"/>
<stop offset="1" stop-color="#C5715A"/>
</linearGradient>
<linearGradient id="paint3_linear_1804_29594" x1="3.34404" y1="9.62519" x2="4.04207" y2="10.934" gradientUnits="userSpaceOnUse">
<stop stop-color="#8C3D27" stop-opacity="0"/>
<stop offset="1" stop-color="#8C3D27"/>
</linearGradient>
<linearGradient id="paint4_linear_1804_29594" x1="14.2594" y1="10.1187" x2="13.1055" y2="11.936" gradientUnits="userSpaceOnUse">
<stop stop-color="#FBC56D"/>
<stop offset="1" stop-color="#C5715A"/>
</linearGradient>
<linearGradient id="paint5_linear_1804_29594" x1="14.0971" y1="11.719" x2="12.8659" y2="12.1683" gradientUnits="userSpaceOnUse">
<stop stop-color="#8C3D27" stop-opacity="0"/>
<stop offset="1" stop-color="#8C3D27"/>
</linearGradient>
<linearGradient id="paint6_linear_1804_29594" x1="12.2858" y1="8.18096" x2="12.4475" y2="11.0389" gradientUnits="userSpaceOnUse">
<stop stop-color="#FBC56D"/>
<stop offset="1" stop-color="#C5715A"/>
</linearGradient>
<linearGradient id="paint7_linear_1804_29594" x1="12.6531" y1="9.63013" x2="11.9551" y2="10.9389" gradientUnits="userSpaceOnUse">
<stop stop-color="#8C3D27" stop-opacity="0"/>
<stop offset="1" stop-color="#8C3D27"/>
</linearGradient>
<linearGradient id="paint8_linear_1804_29594" x1="4.53944" y1="8.92687" x2="10.4588" y2="14.8463" gradientUnits="userSpaceOnUse">
<stop stop-color="#FBC56D"/>
<stop offset="1" stop-color="#C5715A"/>
</linearGradient>
<linearGradient id="paint9_linear_1804_29594" x1="10.9056" y1="15.2929" x2="5.00955" y2="9.39692" gradientUnits="userSpaceOnUse">
<stop stop-color="#FBC56D"/>
<stop offset="1" stop-color="#C5715A"/>
</linearGradient>
<linearGradient id="paint10_linear_1804_29594" x1="5.20768" y1="9.59525" x2="9.80358" y2="14.1911" gradientUnits="userSpaceOnUse">
<stop stop-color="#FBC56D"/>
<stop offset="1" stop-color="#C5715A"/>
</linearGradient>
<linearGradient id="paint11_linear_1804_29594" x1="7.99989" y1="14.0295" x2="7.99989" y2="17.7135" gradientUnits="userSpaceOnUse">
<stop stop-color="#8C3D27" stop-opacity="0"/>
<stop offset="1" stop-color="#8C3D27"/>
</linearGradient>
<linearGradient id="paint12_linear_1804_29594" x1="11.3615" y1="15.3042" x2="6.7262" y2="12.3866" gradientUnits="userSpaceOnUse">
<stop stop-color="#8C3D27" stop-opacity="0"/>
<stop offset="1" stop-color="#8C3D27"/>
</linearGradient>
<linearGradient id="paint13_linear_1804_29594" x1="6.83076" y1="11.3205" x2="8.93909" y2="13.4288" gradientUnits="userSpaceOnUse">
<stop stop-color="#FBC56D"/>
<stop offset="1" stop-color="#C5715A"/>
</linearGradient>
<linearGradient id="paint14_linear_1804_29594" x1="9.26322" y1="11.8953" x2="6.34923" y2="13.1" gradientUnits="userSpaceOnUse">
<stop stop-color="#8C3D27" stop-opacity="0"/>
<stop offset="1" stop-color="#8C3D27"/>
</linearGradient>
<linearGradient id="paint15_linear_1804_29594" x1="8.50227" y1="12.9294" x2="6.90691" y2="12.2457" gradientUnits="userSpaceOnUse">
<stop stop-color="#8C3D27" stop-opacity="0"/>
<stop offset="1" stop-color="#8C3D27"/>
</linearGradient>
<linearGradient id="paint16_linear_1804_29594" x1="7.49746" y1="12.9294" x2="9.09283" y2="12.2457" gradientUnits="userSpaceOnUse">
<stop stop-color="#8C3D27" stop-opacity="0"/>
<stop offset="1" stop-color="#8C3D27"/>
</linearGradient>
<linearGradient id="paint17_linear_1804_29594" x1="7.53292" y1="13.0095" x2="8.55849" y2="11.3612" gradientUnits="userSpaceOnUse">
<stop stop-color="#8C3D27" stop-opacity="0"/>
<stop offset="1" stop-color="#8C3D27"/>
</linearGradient>
<linearGradient id="paint18_linear_1804_29594" x1="8.38831" y1="12.8013" x2="8.30287" y2="11.1897" gradientUnits="userSpaceOnUse">
<stop stop-color="#8C3D27" stop-opacity="0"/>
<stop offset="1" stop-color="#8C3D27"/>
</linearGradient>
<linearGradient id="paint19_linear_1804_29594" x1="10.7658" y1="10.0162" x2="8.60106" y2="6.22796" gradientUnits="userSpaceOnUse">
<stop stop-color="#8C3D27" stop-opacity="0"/>
<stop offset="1" stop-color="#8C3D27"/>
</linearGradient>
<linearGradient id="paint20_linear_1804_29594" x1="8.251" y1="2.00033" x2="9.64512" y2="4.22386" gradientUnits="userSpaceOnUse">
<stop stop-color="#F9F5F3"/>
<stop offset="1" stop-color="#D8E8F0"/>
</linearGradient>
<linearGradient id="paint21_linear_1804_29594" x1="6.86045" y1="-0.727762" x2="11.1899" y2="4.23692" gradientUnits="userSpaceOnUse">
<stop stop-color="#BBEC6C"/>
<stop offset="1" stop-color="#81B823"/>
</linearGradient>
<linearGradient id="paint22_linear_1804_29594" x1="5.94076" y1="0.074264" x2="10.2701" y2="5.03895" gradientUnits="userSpaceOnUse">
<stop stop-color="#BBEC6C"/>
<stop offset="1" stop-color="#81B823"/>
</linearGradient>
<linearGradient id="paint23_linear_1804_29594" x1="7.99999" y1="2.34706" x2="7.99999" y2="1.18116" gradientUnits="userSpaceOnUse">
<stop stop-color="#78A91F" stop-opacity="0"/>
<stop offset="1" stop-color="#78A91F"/>
</linearGradient>
<linearGradient id="paint24_linear_1804_29594" x1="9.34099" y1="3.77665" x2="9.94346" y2="4.37912" gradientUnits="userSpaceOnUse">
<stop stop-color="#78A91F" stop-opacity="0"/>
<stop offset="1" stop-color="#78A91F"/>
</linearGradient>
<linearGradient id="paint25_linear_1804_29594" x1="6.65899" y1="3.77665" x2="6.05652" y2="4.37912" gradientUnits="userSpaceOnUse">
<stop stop-color="#78A91F" stop-opacity="0"/>
<stop offset="1" stop-color="#78A91F"/>
</linearGradient>
<linearGradient id="paint26_linear_1804_29594" x1="11.0595" y1="6.26866" x2="3.8221" y2="-0.968749" gradientUnits="userSpaceOnUse">
<stop stop-color="#FBC56D"/>
<stop offset="1" stop-color="#C5715A"/>
</linearGradient>
<linearGradient id="paint27_linear_1804_29594" x1="8.00011" y1="2.88237" x2="8.00011" y2="7.82492" gradientUnits="userSpaceOnUse">
<stop stop-color="#FBC56D"/>
<stop offset="1" stop-color="#C5715A"/>
</linearGradient>
<linearGradient id="paint28_linear_1804_29594" x1="7.99989" y1="5.75295" x2="7.99989" y2="7.37803" gradientUnits="userSpaceOnUse">
<stop stop-color="#8C3D27" stop-opacity="0"/>
<stop offset="1" stop-color="#8C3D27"/>
</linearGradient>
<linearGradient id="paint29_linear_1804_29594" x1="9.66816" y1="4.83278" x2="8.67993" y2="5.83866" gradientUnits="userSpaceOnUse">
<stop stop-color="#8C3D27" stop-opacity="0"/>
<stop offset="1" stop-color="#8C3D27"/>
</linearGradient>
<linearGradient id="paint30_linear_1804_29594" x1="7.24115" y1="5.94706" x2="9.1128" y2="7.81871" gradientUnits="userSpaceOnUse">
<stop stop-color="#FBC56D"/>
<stop offset="1" stop-color="#C5715A"/>
</linearGradient>
<linearGradient id="paint31_linear_1804_29594" x1="8.5382" y1="7.24412" x2="7.61169" y2="6.31761" gradientUnits="userSpaceOnUse">
<stop stop-color="#FBC56D"/>
<stop offset="1" stop-color="#C5715A"/>
</linearGradient>
<linearGradient id="paint32_linear_1804_29594" x1="8.00004" y1="0.399988" x2="8.00004" y2="1.13545" gradientUnits="userSpaceOnUse">
<stop stop-color="#FBC56D"/>
<stop offset="1" stop-color="#C5715A"/>
</linearGradient>
</defs>
</svg>
