<svg width="18" height="20" viewBox="0 0 18 20" fill="none" xmlns="http://www.w3.org/2000/svg">
<path d="M4.37229 12.5306C5.25688 13.3964 5.8117 14.4394 6.00351 15.4443C6.04366 15.6548 5.72072 15.9847 5.50943 15.9491C4.50061 15.7789 3.44598 15.2466 2.56139 14.3809C1.6768 13.5151 1.12198 12.4721 0.930174 11.4672C0.890017 11.2567 1.21296 10.9267 1.42425 10.9624C2.43308 11.1325 3.4877 11.6648 4.37229 12.5306Z" fill="url(#paint0_linear_2732_70814)"/>
<path d="M4.37229 12.5306C5.25688 13.3964 5.8117 14.4394 6.00351 15.4443C6.04366 15.6548 5.72072 15.9847 5.50943 15.9491C4.50061 15.7789 3.44598 15.2466 2.56139 14.3809C1.6768 13.5151 1.12198 12.4721 0.930174 11.4672C0.890017 11.2567 1.21296 10.9267 1.42425 10.9624C2.43308 11.1325 3.4877 11.6648 4.37229 12.5306Z" fill="url(#paint1_linear_2732_70814)"/>
<path d="M5.57213 10.4795C6.28142 11.8657 6.52652 13.3315 6.35381 14.6069C6.31766 14.874 5.80056 15.1386 5.56275 15.0116C4.42734 14.4056 3.38197 13.3493 2.67271 11.9631C1.96346 10.5769 1.71832 9.11112 1.89103 7.8357C1.92718 7.56861 2.44428 7.30402 2.68209 7.43096C3.81746 8.037 4.86283 9.09331 5.57213 10.4795Z" fill="url(#paint2_linear_2732_70814)"/>
<path d="M1.87695 9.35435C1.97068 10.2114 2.23193 11.1023 2.67213 11.9626C3.38142 13.3488 4.42676 14.4051 5.56217 15.0112C5.79993 15.1381 6.31703 14.8735 6.35323 14.6064C6.52593 13.3311 6.28083 11.8653 5.57154 10.4791C5.15389 9.66278 4.61962 8.9611 4.01911 8.39819L1.87695 9.35435Z" fill="url(#paint3_linear_2732_70814)"/>
<path d="M13.6278 12.5306C12.7432 13.3964 12.1884 14.4394 11.9966 15.4443C11.9564 15.6548 12.2794 15.9847 12.4907 15.9491C13.4995 15.7789 14.5541 15.2466 15.4387 14.3809C16.3233 13.5151 16.8781 12.4721 17.0699 11.4672C17.1101 11.2567 16.7871 10.9267 16.5758 10.9624C15.567 11.1325 14.5124 11.6648 13.6278 12.5306Z" fill="url(#paint4_linear_2732_70814)"/>
<path d="M13.6278 12.5306C12.7432 13.3964 12.1884 14.4394 11.9966 15.4443C11.9564 15.6548 12.2794 15.9847 12.4907 15.9491C13.4995 15.7789 14.5541 15.2466 15.4387 14.3809C16.3233 13.5151 16.8781 12.4721 17.0699 11.4672C17.1101 11.2567 16.7871 10.9267 16.5758 10.9624C15.567 11.1325 14.5124 11.6648 13.6278 12.5306Z" fill="url(#paint5_linear_2732_70814)"/>
<path d="M12.4286 10.4795C11.7193 11.8657 11.4742 13.3315 11.6469 14.6069C11.683 14.874 12.2001 15.1386 12.4379 15.0116C13.5734 14.4056 14.6187 13.3493 15.328 11.9631C16.0372 10.5769 16.2824 9.11112 16.1097 7.8357C16.0735 7.56861 15.5564 7.30402 15.3186 7.43096C14.1832 8.037 13.1379 9.09331 12.4286 10.4795Z" fill="url(#paint6_linear_2732_70814)"/>
<path d="M16.1232 9.35459C16.0294 10.2117 15.7682 11.1026 15.328 11.9629C14.6187 13.3491 13.5734 14.4054 12.4379 15.0114C12.2002 15.1383 11.6831 14.8737 11.6469 14.6067C11.4742 13.3313 11.7193 11.8655 12.4286 10.4793C12.8462 9.66303 13.3805 8.96134 13.981 8.39844L16.1232 9.35459Z" fill="url(#paint7_linear_2732_70814)"/>
<path d="M8.99999 20C12.4442 20 15.2363 17.2079 15.2363 13.7637C15.2363 10.3194 12.4442 7.52734 8.99999 7.52734C5.55576 7.52734 2.76367 10.3194 2.76367 13.7637C2.76367 17.2079 5.55576 20 8.99999 20Z" fill="url(#paint8_linear_2732_70814)"/>
<path d="M9.00008 18.7343C11.7454 18.7343 13.9709 16.5088 13.9709 13.7635C13.9709 11.0182 11.7454 8.79272 9.00008 8.79272C6.25479 8.79272 4.0293 11.0182 4.0293 13.7635C4.0293 16.5088 6.25479 18.7343 9.00008 18.7343Z" fill="url(#paint9_linear_2732_70814)"/>
<path d="M8.99987 18.032C11.3567 18.032 13.2673 16.1214 13.2673 13.7645C13.2673 11.4077 11.3567 9.49707 8.99987 9.49707C6.64303 9.49707 4.73242 11.4077 4.73242 13.7645C4.73242 16.1214 6.64303 18.032 8.99987 18.032Z" fill="url(#paint10_linear_2732_70814)"/>
<path d="M2.76367 13.7638C2.76367 17.208 5.55575 20.0001 8.99999 20.0001C12.4442 20.0001 15.2363 17.208 15.2363 13.7638C15.2363 13.7396 15.2357 13.7156 15.2354 13.6914H2.76457C2.7643 13.7156 2.76367 13.7396 2.76367 13.7638Z" fill="url(#paint11_linear_2732_70814)"/>
<path d="M10.7494 19.7517C12.7144 19.1786 14.2781 17.6646 14.9202 15.73L11.8828 12.6926L11.1981 12.7263L9.35001 10.8782L7.09766 16.0999L10.7494 19.7517Z" fill="url(#paint12_linear_2732_70814)"/>
<path d="M11.5572 12.4085L10.3341 12.113C10.2204 12.0855 10.121 12.0165 10.0554 11.9196L9.35034 10.8774C9.26504 10.7514 9.13441 10.6838 8.99998 10.6729C8.86555 10.6838 8.73488 10.7514 8.64963 10.8774L7.94461 11.9196C7.87904 12.0165 7.77963 12.0855 7.66583 12.113L6.44281 12.4085C6.11104 12.4887 5.97281 12.8846 6.18253 13.1539L6.95583 14.1464C7.02775 14.2388 7.06265 14.3546 7.05363 14.4713L6.95673 15.7258C6.93045 16.0661 7.2643 16.32 7.5852 16.2036L8.76814 15.7749C8.84288 15.7478 8.92261 15.7409 8.99998 15.7529C9.07739 15.7409 9.15708 15.7479 9.23183 15.7749L10.4148 16.2036C10.7356 16.3199 11.0695 16.0661 11.0432 15.7258L10.9463 14.4713C10.9373 14.3546 10.9722 14.2388 11.0441 14.1464L11.8174 13.1539C12.0272 12.8846 11.8889 12.4887 11.5572 12.4085Z" fill="url(#paint13_linear_2732_70814)"/>
<path d="M9.23184 15.7749L10.4148 16.2036C10.7356 16.3199 11.0695 16.0661 11.0433 15.7258L10.9464 14.4713C10.9373 14.3546 10.9722 14.2388 11.0442 14.1464L11.8175 13.1539C12.0272 12.8847 11.8889 12.4887 11.5572 12.4085L10.3342 12.113C10.2204 12.0855 10.121 12.0165 10.0554 11.9196L9.35035 10.8774C9.26506 10.7514 9.13443 10.6838 9 10.6729V15.7529C9.07741 15.7409 9.15714 15.7478 9.23184 15.7749Z" fill="url(#paint14_linear_2732_70814)"/>
<path d="M11.5568 12.4084L10.3338 12.1129C10.292 12.1028 10.2523 12.087 10.2154 12.0664L7.09766 16.0991C7.21997 16.2173 7.40448 16.2689 7.58487 16.2035L8.76781 15.7748C8.84256 15.7477 8.92228 15.7408 8.99966 15.7528C9.07707 15.7408 9.15675 15.7478 9.2315 15.7748L10.4144 16.2035C10.7353 16.3198 11.0692 16.066 11.0429 15.7257L10.946 14.4712C10.937 14.3545 10.9719 14.2387 11.0438 14.1463L11.8171 13.1538C12.0268 12.8845 11.8886 12.4885 11.5568 12.4084Z" fill="url(#paint15_linear_2732_70814)"/>
<path d="M6.44281 12.4084L7.66583 12.1129C7.70759 12.1028 7.74735 12.087 7.78426 12.0664L10.902 16.0991C10.7797 16.2173 10.5952 16.2689 10.4148 16.2035L9.23183 15.7748C9.15708 15.7477 9.07735 15.7408 8.99998 15.7528C8.92257 15.7408 8.84288 15.7478 8.76814 15.7748L7.5852 16.2035C7.26434 16.3198 6.93045 16.066 6.95673 15.7257L7.05363 14.4712C7.06265 14.3545 7.02775 14.2387 6.95583 14.1463L6.18253 13.1538C5.97281 12.8845 6.11104 12.4885 6.44281 12.4084Z" fill="url(#paint16_linear_2732_70814)"/>
<path d="M6.11678 12.6914C6.05863 12.8381 6.07259 13.0129 6.18204 13.1534L6.95533 14.1459C7.02725 14.2383 7.06216 14.3541 7.05314 14.4708L6.95623 15.7253C6.92996 16.0656 7.2638 16.3194 7.5847 16.2031L8.76765 15.7744C8.84239 15.7473 8.92212 15.7403 8.99949 15.7523C9.0769 15.7404 9.15659 15.7474 9.23133 15.7744L10.4143 16.2031C10.7351 16.3194 11.069 16.0656 11.0427 15.7253L10.9458 14.4708C10.9408 14.4061 10.9498 14.3417 10.9707 14.2814L6.11678 12.6914Z" fill="url(#paint17_linear_2732_70814)"/>
<path d="M11.8825 12.6914C11.9407 12.8381 11.9267 13.0129 11.8172 13.1534L11.0439 14.1459C10.972 14.2383 10.9371 14.3541 10.9461 14.4708L11.043 15.7253C11.0693 16.0656 10.7354 16.3194 10.4146 16.2031L9.23163 15.7744C9.15689 15.7473 9.07716 15.7403 8.99979 15.7523C8.92238 15.7404 8.84269 15.7474 8.76795 15.7744L7.58501 16.2031C7.26414 16.3194 6.93026 16.0656 6.95653 15.7253L7.05344 14.4708C7.05846 14.4061 7.04948 14.3417 7.02861 14.2814L11.8825 12.6914Z" fill="url(#paint18_linear_2732_70814)"/>
<path d="M9.00074 7.52734C8.97486 7.52734 8.94917 7.52801 8.92337 7.52832L7.96094 8.49076L14.9869 15.5167C15.1494 14.9605 15.2371 14.3723 15.2371 13.7636C15.2371 10.3194 12.445 7.52734 9.00074 7.52734Z" fill="url(#paint19_linear_2732_70814)"/>
<path d="M5.23535 0.129883V3.424L9.00006 7.18871L12.7648 3.424V0.129883H5.23535Z" fill="url(#paint20_linear_2732_70814)"/>
<path d="M5.23535 0.129883V1.15506L8.98747 4.90718C8.99441 4.91412 9.0057 4.91412 9.01265 4.90718L12.7648 1.15506V0.129883H5.23535Z" fill="url(#paint21_linear_2732_70814)"/>
<path d="M9.00006 5.4995C8.84484 5.4995 8.68967 5.44044 8.57155 5.32228L5.23535 1.98608V3.42318L9.00006 7.18789L12.7648 3.42318V1.98608L9.42857 5.32228C9.31045 5.4404 9.15527 5.4995 9.00006 5.4995Z" fill="url(#paint22_linear_2732_70814)"/>
<path d="M5.23535 0.129883V1.15506L8.98747 4.90718C8.99441 4.91412 9.0057 4.91412 9.01265 4.90718L12.7648 1.15506V0.129883H5.23535Z" fill="url(#paint23_linear_2732_70814)"/>
<path d="M9.00006 5.4995C8.84484 5.4995 8.68967 5.44044 8.57155 5.32228L5.23535 1.98608V3.42318L9.00006 7.18789L12.7648 3.42318V1.98608L9.42857 5.32228C9.31045 5.4404 9.15527 5.4995 9.00006 5.4995Z" fill="url(#paint24_linear_2732_70814)"/>
<path d="M9.00006 5.4995C9.15527 5.4995 9.31045 5.44044 9.42857 5.32228L12.7648 1.98608V3.42318L9.00006 7.18789L5.23535 3.42318V1.98608L8.57155 5.32228C8.68967 5.4404 8.84488 5.4995 9.00006 5.4995Z" fill="url(#paint25_linear_2732_70814)"/>
<path d="M8.58687 6.33381L5.38318 3.13013C5.14295 2.88989 4.75342 2.88989 4.51318 3.13013C4.27295 3.37036 4.27295 3.75989 4.51318 4.00013L8.99969 8.48672L13.4862 4.00017C13.7265 3.75993 13.7265 3.3704 13.4862 3.13017C13.246 2.88993 12.8565 2.88993 12.6162 3.13017L9.41256 6.33385C9.18452 6.56185 8.81487 6.56185 8.58687 6.33381Z" fill="url(#paint26_linear_2732_70814)"/>
<path d="M4.514 3.13742L8.52815 7.15158C8.78906 7.41248 9.21208 7.41248 9.47298 7.15158L13.4871 3.13742C13.4883 3.13625 13.4892 3.13495 13.4904 3.13377C13.4893 3.1326 13.4883 3.1313 13.4871 3.13013C13.2469 2.88989 12.8573 2.88989 12.6171 3.13013L9.41341 6.33381C9.18541 6.56181 8.81572 6.56181 8.58772 6.33381L5.38404 3.13013C5.1438 2.88989 4.75427 2.88989 4.51404 3.13013C4.51286 3.1313 4.51192 3.1326 4.51074 3.13377C4.51188 3.13495 4.51282 3.13625 4.514 3.13742Z" fill="url(#paint27_linear_2732_70814)"/>
<path d="M9.00007 8.48709L12.1671 5.32007H10.427L9.41289 6.33422C9.18489 6.56222 8.8152 6.56222 8.5872 6.33422L7.57305 5.32007H5.83301L9.00007 8.48709Z" fill="url(#paint28_linear_2732_70814)"/>
<path d="M8.60742 8.09501L8.99958 8.48717L13.0163 4.47046H11.2762L9.41244 6.33426C9.19107 6.55564 8.8366 6.5614 8.60742 6.35297V8.09501Z" fill="url(#paint29_linear_2732_70814)"/>
<path d="M8.99981 8.92149C9.81195 8.92149 10.4703 8.26312 10.4703 7.45098C10.4703 6.63884 9.81195 5.98047 8.99981 5.98047C8.18767 5.98047 7.5293 6.63884 7.5293 7.45098C7.5293 8.26312 8.18767 8.92149 8.99981 8.92149Z" fill="url(#paint30_linear_2732_70814)"/>
<path d="M8.99931 8.29452C9.46492 8.29452 9.84237 7.91707 9.84237 7.45146C9.84237 6.98585 9.46492 6.6084 8.99931 6.6084C8.5337 6.6084 8.15625 6.98585 8.15625 7.45146C8.15625 7.91707 8.5337 8.29452 8.99931 8.29452Z" fill="url(#paint31_linear_2732_70814)"/>
<path d="M13.3335 1.46404H4.66672C4.4177 1.46404 4.21582 1.26216 4.21582 1.01314V0.450902C4.21582 0.201882 4.4177 0 4.66672 0H13.3336C13.5826 0 13.7845 0.201882 13.7845 0.450902V1.01318C13.7845 1.2622 13.5826 1.46404 13.3335 1.46404Z" fill="url(#paint32_linear_2732_70814)"/>
<defs>
<linearGradient id="paint0_linear_2732_70814" x1="2.042" y1="11.2387" x2="3.32404" y2="13.258" gradientUnits="userSpaceOnUse">
<stop stop-color="#FBC56D"/>
<stop offset="1" stop-color="#C5715A"/>
</linearGradient>
<linearGradient id="paint1_linear_2732_70814" x1="2.22237" y1="13.0168" x2="3.59035" y2="13.516" gradientUnits="userSpaceOnUse">
<stop stop-color="#8C3D27" stop-opacity="0"/>
<stop offset="1" stop-color="#8C3D27"/>
</linearGradient>
<linearGradient id="paint2_linear_2732_70814" x1="4.23528" y1="9.08499" x2="4.05556" y2="12.2605" gradientUnits="userSpaceOnUse">
<stop stop-color="#FBC56D"/>
<stop offset="1" stop-color="#C5715A"/>
</linearGradient>
<linearGradient id="paint3_linear_2732_70814" x1="3.82654" y1="10.6948" x2="4.60212" y2="12.149" gradientUnits="userSpaceOnUse">
<stop stop-color="#8C3D27" stop-opacity="0"/>
<stop offset="1" stop-color="#8C3D27"/>
</linearGradient>
<linearGradient id="paint4_linear_2732_70814" x1="15.955" y1="11.2442" x2="14.6729" y2="13.2635" gradientUnits="userSpaceOnUse">
<stop stop-color="#FBC56D"/>
<stop offset="1" stop-color="#C5715A"/>
</linearGradient>
<linearGradient id="paint5_linear_2732_70814" x1="15.7746" y1="13.0223" x2="14.4066" y2="13.5215" gradientUnits="userSpaceOnUse">
<stop stop-color="#8C3D27" stop-opacity="0"/>
<stop offset="1" stop-color="#8C3D27"/>
</linearGradient>
<linearGradient id="paint6_linear_2732_70814" x1="13.7623" y1="9.09052" x2="13.942" y2="12.266" gradientUnits="userSpaceOnUse">
<stop stop-color="#FBC56D"/>
<stop offset="1" stop-color="#C5715A"/>
</linearGradient>
<linearGradient id="paint7_linear_2732_70814" x1="14.1704" y1="10.7005" x2="13.3948" y2="12.1547" gradientUnits="userSpaceOnUse">
<stop stop-color="#8C3D27" stop-opacity="0"/>
<stop offset="1" stop-color="#8C3D27"/>
</linearGradient>
<linearGradient id="paint8_linear_2732_70814" x1="5.15504" y1="9.91872" x2="11.7321" y2="16.4958" gradientUnits="userSpaceOnUse">
<stop stop-color="#FBC56D"/>
<stop offset="1" stop-color="#C5715A"/>
</linearGradient>
<linearGradient id="paint9_linear_2732_70814" x1="12.2286" y1="16.992" x2="5.67741" y2="10.4408" gradientUnits="userSpaceOnUse">
<stop stop-color="#FBC56D"/>
<stop offset="1" stop-color="#C5715A"/>
</linearGradient>
<linearGradient id="paint10_linear_2732_70814" x1="5.89756" y1="10.6622" x2="11.0041" y2="15.7688" gradientUnits="userSpaceOnUse">
<stop stop-color="#FBC56D"/>
<stop offset="1" stop-color="#C5715A"/>
</linearGradient>
<linearGradient id="paint11_linear_2732_70814" x1="8.99999" y1="15.5884" x2="8.99999" y2="19.6818" gradientUnits="userSpaceOnUse">
<stop stop-color="#8C3D27" stop-opacity="0"/>
<stop offset="1" stop-color="#8C3D27"/>
</linearGradient>
<linearGradient id="paint12_linear_2732_70814" x1="12.7353" y1="17.0054" x2="7.58499" y2="13.7635" gradientUnits="userSpaceOnUse">
<stop stop-color="#8C3D27" stop-opacity="0"/>
<stop offset="1" stop-color="#8C3D27"/>
</linearGradient>
<linearGradient id="paint13_linear_2732_70814" x1="7.70092" y1="12.5782" x2="10.0435" y2="14.9208" gradientUnits="userSpaceOnUse">
<stop stop-color="#FBC56D"/>
<stop offset="1" stop-color="#C5715A"/>
</linearGradient>
<linearGradient id="paint14_linear_2732_70814" x1="10.4036" y1="13.2169" x2="7.16588" y2="14.5554" gradientUnits="userSpaceOnUse">
<stop stop-color="#8C3D27" stop-opacity="0"/>
<stop offset="1" stop-color="#8C3D27"/>
</linearGradient>
<linearGradient id="paint15_linear_2732_70814" x1="9.55793" y1="14.3658" x2="7.7853" y2="13.6061" gradientUnits="userSpaceOnUse">
<stop stop-color="#8C3D27" stop-opacity="0"/>
<stop offset="1" stop-color="#8C3D27"/>
</linearGradient>
<linearGradient id="paint16_linear_2732_70814" x1="8.44171" y1="14.3658" x2="10.2143" y2="13.6061" gradientUnits="userSpaceOnUse">
<stop stop-color="#8C3D27" stop-opacity="0"/>
<stop offset="1" stop-color="#8C3D27"/>
</linearGradient>
<linearGradient id="paint17_linear_2732_70814" x1="8.48063" y1="14.4543" x2="9.62016" y2="12.6229" gradientUnits="userSpaceOnUse">
<stop stop-color="#8C3D27" stop-opacity="0"/>
<stop offset="1" stop-color="#8C3D27"/>
</linearGradient>
<linearGradient id="paint18_linear_2732_70814" x1="9.43081" y1="14.2231" x2="9.33587" y2="12.4323" gradientUnits="userSpaceOnUse">
<stop stop-color="#8C3D27" stop-opacity="0"/>
<stop offset="1" stop-color="#8C3D27"/>
</linearGradient>
<linearGradient id="paint19_linear_2732_70814" x1="12.0738" y1="11.1291" x2="9.66862" y2="6.91993" gradientUnits="userSpaceOnUse">
<stop stop-color="#8C3D27" stop-opacity="0"/>
<stop offset="1" stop-color="#8C3D27"/>
</linearGradient>
<linearGradient id="paint20_linear_2732_70814" x1="9.27896" y1="2.22177" x2="10.828" y2="4.69235" gradientUnits="userSpaceOnUse">
<stop stop-color="#F9F5F3"/>
<stop offset="1" stop-color="#D8E8F0"/>
</linearGradient>
<linearGradient id="paint21_linear_2732_70814" x1="7.7339" y1="-0.80945" x2="12.5444" y2="4.70686" gradientUnits="userSpaceOnUse">
<stop stop-color="#BBEC6C"/>
<stop offset="1" stop-color="#81B823"/>
</linearGradient>
<linearGradient id="paint22_linear_2732_70814" x1="6.71202" y1="0.0808285" x2="11.5225" y2="5.59714" gradientUnits="userSpaceOnUse">
<stop stop-color="#BBEC6C"/>
<stop offset="1" stop-color="#81B823"/>
</linearGradient>
<linearGradient id="paint23_linear_2732_70814" x1="9.00006" y1="2.60702" x2="9.00006" y2="1.31157" gradientUnits="userSpaceOnUse">
<stop stop-color="#78A91F" stop-opacity="0"/>
<stop offset="1" stop-color="#78A91F"/>
</linearGradient>
<linearGradient id="paint24_linear_2732_70814" x1="10.4901" y1="4.19459" x2="11.1595" y2="4.86401" gradientUnits="userSpaceOnUse">
<stop stop-color="#78A91F" stop-opacity="0"/>
<stop offset="1" stop-color="#78A91F"/>
</linearGradient>
<linearGradient id="paint25_linear_2732_70814" x1="7.51006" y1="4.19459" x2="6.84065" y2="4.86401" gradientUnits="userSpaceOnUse">
<stop stop-color="#78A91F" stop-opacity="0"/>
<stop offset="1" stop-color="#78A91F"/>
</linearGradient>
<linearGradient id="paint26_linear_2732_70814" x1="12.3991" y1="6.9646" x2="4.35758" y2="-1.07697" gradientUnits="userSpaceOnUse">
<stop stop-color="#FBC56D"/>
<stop offset="1" stop-color="#C5715A"/>
</linearGradient>
<linearGradient id="paint27_linear_2732_70814" x1="9.00055" y1="3.20205" x2="9.00055" y2="8.69377" gradientUnits="userSpaceOnUse">
<stop stop-color="#FBC56D"/>
<stop offset="1" stop-color="#C5715A"/>
</linearGradient>
<linearGradient id="paint28_linear_2732_70814" x1="9.00007" y1="6.39195" x2="9.00007" y2="8.1976" gradientUnits="userSpaceOnUse">
<stop stop-color="#8C3D27" stop-opacity="0"/>
<stop offset="1" stop-color="#8C3D27"/>
</linearGradient>
<linearGradient id="paint29_linear_2732_70814" x1="10.8532" y1="5.36964" x2="9.75515" y2="6.48728" gradientUnits="userSpaceOnUse">
<stop stop-color="#8C3D27" stop-opacity="0"/>
<stop offset="1" stop-color="#8C3D27"/>
</linearGradient>
<linearGradient id="paint30_linear_2732_70814" x1="8.15667" y1="6.60784" x2="10.2363" y2="8.68745" gradientUnits="userSpaceOnUse">
<stop stop-color="#FBC56D"/>
<stop offset="1" stop-color="#C5715A"/>
</linearGradient>
<linearGradient id="paint31_linear_2732_70814" x1="9.59735" y1="8.0495" x2="8.5679" y2="7.02005" gradientUnits="userSpaceOnUse">
<stop stop-color="#FBC56D"/>
<stop offset="1" stop-color="#C5715A"/>
</linearGradient>
<linearGradient id="paint32_linear_2732_70814" x1="9.00014" y1="0.444431" x2="9.00014" y2="1.26161" gradientUnits="userSpaceOnUse">
<stop stop-color="#FBC56D"/>
<stop offset="1" stop-color="#C5715A"/>
</linearGradient>
</defs>
</svg>
