<svg width="20" height="20" viewBox="0 0 20 20" fill="none" xmlns="http://www.w3.org/2000/svg">
<g clip-path="url(#clip0_2099_45036)">
<path fill-rule="evenodd" clip-rule="evenodd" d="M10.5337 2.44443C10.3736 2.34422 10.1887 2.29109 10 2.29109C9.81128 2.29109 9.62636 2.34422 9.46632 2.44443L3.42465 6.22751C3.27983 6.3182 3.16041 6.44429 3.07762 6.59395C2.99483 6.7436 2.95139 6.91189 2.95139 7.08299V12.917C2.95139 13.0881 2.99483 13.2564 3.07762 13.4061C3.16041 13.5557 3.27983 13.6818 3.42465 13.7725L9.46632 17.5556C9.62636 17.6558 9.81128 17.7089 10 17.7089C10.1887 17.7089 10.3736 17.6558 10.5337 17.5556L16.5753 13.7725C16.7202 13.6818 16.8396 13.5557 16.9224 13.4061C17.0052 13.2564 17.0486 13.0881 17.0486 12.917V7.08299C17.0486 6.91189 17.0052 6.7436 16.9224 6.59395C16.8396 6.44429 16.7202 6.3182 16.5753 6.22751L10.5337 2.44443ZM8.39896 0.733467C8.87906 0.43284 9.43384 0.273437 10 0.273438C10.5662 0.273437 11.1209 0.43284 11.601 0.733467L17.6427 4.51655C18.0772 4.7886 18.4354 5.16689 18.6838 5.61585C18.9322 6.06481 19.0625 6.56969 19.0625 7.08299V12.917C19.0625 13.4303 18.9322 13.9352 18.6838 14.3841C18.4354 14.8331 18.0772 15.2114 17.6427 15.4835L11.601 19.2665C11.1209 19.5672 10.5662 19.7266 10 19.7266C9.43384 19.7266 8.87906 19.5672 8.39896 19.2665L2.35729 15.4835C1.92282 15.2114 1.56455 14.8331 1.31618 14.3841C1.06781 13.9352 0.937499 13.4303 0.9375 12.917V7.08299C0.937499 6.56969 1.06781 6.06481 1.31618 5.61585C1.56455 5.16689 1.92282 4.7886 2.35729 4.51655L8.39896 0.733467Z" fill="url(#paint0_linear_2099_45036)"/>
<path d="M4.64062 11.7189V8.22461H6.03972C6.29679 8.22461 6.5112 8.26271 6.68296 8.33893C6.85472 8.41514 6.98382 8.52092 7.07027 8.65628C7.15672 8.7905 7.19994 8.9452 7.19994 9.12037C7.19994 9.25687 7.17264 9.37687 7.11804 9.48038C7.06344 9.58275 6.98837 9.66693 6.89282 9.7329C6.79841 9.79773 6.69035 9.8438 6.56864 9.8711V9.90523C6.70173 9.91091 6.82628 9.94845 6.9423 10.0178C7.05946 10.0872 7.15444 10.1845 7.22724 10.3096C7.30004 10.4336 7.33644 10.5815 7.33644 10.7532C7.33644 10.9386 7.29037 11.1041 7.19823 11.2497C7.10724 11.3942 6.97245 11.5085 6.79386 11.5927C6.61528 11.6768 6.39518 11.7189 6.13356 11.7189H4.64062ZM5.37941 11.1149H5.98171C6.18759 11.1149 6.33774 11.0757 6.43215 10.9972C6.52656 10.9176 6.57376 10.8118 6.57376 10.6798C6.57376 10.5832 6.55044 10.4978 6.50381 10.4239C6.45717 10.35 6.39063 10.292 6.30418 10.2499C6.21887 10.2078 6.11707 10.1868 5.99877 10.1868H5.37941V11.1149ZM5.37941 9.68683H5.92711C6.02834 9.68683 6.1182 9.6692 6.19669 9.63394C6.27631 9.59754 6.33887 9.54635 6.38437 9.48038C6.43101 9.41441 6.45433 9.33535 6.45433 9.24322C6.45433 9.11696 6.4094 9.01515 6.31954 8.93781C6.23081 8.86046 6.10455 8.82178 5.94076 8.82178H5.37941V9.68683Z" fill="#F37328"/>
<path d="M7.61242 8.22461H8.43993L9.23673 9.72949H9.27085L10.0677 8.22461H10.8952L9.62063 10.4836V11.7189H8.88695V10.4836L7.61242 8.22461Z" fill="#F37328"/>
<path d="M12.1535 8.22461L12.087 10.6713H11.4625L11.3942 8.22461H12.1535ZM11.7747 11.7633C11.6621 11.7633 11.5654 11.7235 11.4847 11.6439C11.4039 11.5631 11.3641 11.4664 11.3652 11.3538C11.3641 11.2423 11.4039 11.1468 11.4847 11.0672C11.5654 10.9875 11.6621 10.9477 11.7747 10.9477C11.8828 10.9477 11.9778 10.9875 12.0597 11.0672C12.1416 11.1468 12.1831 11.2423 12.1842 11.3538C12.1831 11.4289 12.1632 11.4977 12.1245 11.5602C12.087 11.6217 12.0375 11.6712 11.976 11.7087C11.9146 11.7451 11.8475 11.7633 11.7747 11.7633Z" fill="#F37328"/>
<path d="M12.8565 11.7189V8.22461H14.2351C14.5001 8.22461 14.7259 8.27523 14.9124 8.37646C15.099 8.47656 15.2412 8.6159 15.339 8.79448C15.4379 8.97193 15.4874 9.17667 15.4874 9.40872C15.4874 9.64076 15.4374 9.84551 15.3373 10.023C15.2372 10.2004 15.0922 10.3386 14.9022 10.4376C14.7134 10.5365 14.4847 10.586 14.2163 10.586H13.3376V9.99395H14.0969C14.2391 9.99395 14.3562 9.96949 14.4483 9.92058C14.5416 9.87053 14.611 9.80172 14.6565 9.71413C14.7031 9.62541 14.7265 9.5236 14.7265 9.40872C14.7265 9.2927 14.7031 9.19146 14.6565 9.10501C14.611 9.01743 14.5416 8.94975 14.4483 8.90197C14.3551 8.85306 14.2368 8.82861 14.0935 8.82861H13.5952V11.7189H12.8565Z" fill="#F37328"/>
</g>
<defs>
<linearGradient id="paint0_linear_2099_45036" x1="10" y1="0.273445" x2="10" y2="19.7266" gradientUnits="userSpaceOnUse">
<stop stop-color="#F12711"/>
<stop offset="1" stop-color="#F5BA3D"/>
</linearGradient>
<clipPath id="clip0_2099_45036">
<rect width="20" height="20" fill="white"/>
</clipPath>
</defs>
</svg>
