<svg width="48" height="48" viewBox="0 0 48 48" fill="none" xmlns="http://www.w3.org/2000/svg">
<circle opacity="0.2" cx="24" cy="24" r="24" fill="#F5821F"/>
<g clip-path="url(#clip0_1802_30800)">
<path d="M32.5223 30.1194L27.2139 21.2002V16.7485C27.9626 16.4815 28.5116 15.7728 28.5116 14.9336C28.5116 13.8674 27.6442 13 26.578 13H21.4218C20.3555 13 19.4882 13.8674 19.4882 14.9336C19.4882 15.7728 20.0286 16.4815 20.7772 16.7485V21.2002L15.4775 30.1194C14.1885 32.2673 15.7326 35 18.2407 35H29.7591C32.2651 35 33.8124 32.2691 32.5223 30.1194ZM20.1327 29.8438C19.7767 29.8438 19.4882 29.5552 19.4882 29.1992C19.4882 28.8432 19.7767 28.5547 20.1327 28.5547C20.4887 28.5547 20.7772 28.8432 20.7772 29.1992C20.7772 29.5552 20.4887 29.8438 20.1327 29.8438ZM23.9999 32.4219C23.6439 32.4219 23.3554 32.1333 23.3554 31.7773C23.3554 31.4213 23.6439 31.1328 23.9999 31.1328C24.3558 31.1328 24.6444 31.4213 24.6444 31.7773C24.6444 32.1333 24.3558 32.4219 23.9999 32.4219ZM27.8671 31.1328C27.5111 31.1328 27.2225 30.8442 27.2225 30.4883C27.2225 30.1322 27.5111 29.8438 27.8671 29.8438C28.223 29.8438 28.5116 30.1322 28.5116 30.4883C28.5116 30.8442 28.223 31.1328 27.8671 31.1328ZM27.2225 27.1797C26.0271 27.1797 24.5064 26.2853 24.4295 26.0546C24.3631 25.9951 22.78 24.6016 20.7772 24.6016C20.5864 24.6016 20.3905 24.6482 20.1969 24.6731L21.9658 21.7106C22.0261 21.6105 22.0579 21.4957 22.0577 21.3789V16.8672H25.9335V18.1562H25.2889C24.9327 18.1562 24.6444 18.4445 24.6444 18.8008C24.6444 19.157 24.9327 19.4453 25.2889 19.4453H25.9335V20.7344H25.2889C24.9327 20.7344 24.6444 21.0227 24.6444 21.3789C24.6444 21.7352 24.9327 22.0234 25.2889 22.0234H26.2131L29.0182 26.6988C28.5405 26.9416 27.9094 27.1797 27.2225 27.1797Z" fill="#F5821F"/>
</g>
<defs>
<clipPath id="clip0_1802_30800">
<rect width="22" height="22" fill="white" transform="translate(13 13)"/>
</clipPath>
</defs>
</svg>
