<svg width="128" height="128" viewBox="0 0 128 128" fill="none" xmlns="http://www.w3.org/2000/svg">
<path d="M55.3989 88.13C55.8889 87.85 55.8889 86.93 55.3989 86.13C54.9089 85.33 54.1189 84.82 53.6289 85.13L56.2389 84.67C56.415 84.6319 56.5989 84.6558 56.7593 84.7379C56.9197 84.8199 57.0468 84.9549 57.1189 85.1201C57.2132 85.2721 57.2589 85.4492 57.25 85.6279C57.2411 85.8065 57.1779 85.9782 57.0689 86.1201L55.3989 88.13Z" fill="#B8C8F4"/>
<path d="M55.3992 88.13C54.9092 88.41 54.1192 87.95 53.6292 87.13C53.1392 86.31 53.1392 85.37 53.6292 85.13C54.1192 84.89 54.9092 85.3 55.3992 86.13C55.8892 86.96 55.8892 87.85 55.3992 88.13Z" fill="#1C6DF6"/>
<path d="M50.2798 86.09C50.203 86.0892 50.1279 86.0673 50.0626 86.0267C49.9974 85.9862 49.9445 85.9285 49.9098 85.86C49.8845 85.8117 49.8694 85.7588 49.8654 85.7045C49.8613 85.6501 49.8684 85.5955 49.8862 85.544C49.904 85.4925 49.9321 85.4452 49.9688 85.405C50.0056 85.3647 50.0501 85.3324 50.0998 85.31C50.9018 84.8584 51.5759 84.2103 52.0587 83.4267C52.5415 82.643 52.8172 81.7495 52.8598 80.83C52.8915 80.5188 52.8429 80.2046 52.7186 79.9174C52.5943 79.6303 52.3985 79.3799 52.1498 79.19C51.8854 79.057 51.5914 78.9936 51.2957 79.0058C51 79.0181 50.7123 79.1056 50.4598 79.26C50.363 79.3089 50.2507 79.3173 50.1476 79.2836C50.0445 79.2499 49.959 79.1767 49.9098 79.08C49.8868 79.031 49.8739 78.9778 49.8721 78.9236C49.8702 78.8695 49.8794 78.8155 49.8991 78.765C49.9187 78.7145 49.9484 78.6685 49.9863 78.6298C50.0243 78.5912 50.0697 78.5606 50.1198 78.54C50.499 78.3234 50.9281 78.2095 51.3648 78.2095C51.8015 78.2095 52.2306 78.3234 52.6098 78.54C52.9761 78.8017 53.2682 79.1539 53.4576 79.5624C53.6469 79.9708 53.7269 80.4214 53.6898 80.87C53.647 81.9423 53.3293 82.9855 52.7672 83.8997C52.2051 84.8138 51.4174 85.568 50.4798 86.09C50.4136 86.1016 50.346 86.1016 50.2798 86.09Z" fill="#121E51"/>
<path d="M37.5498 97.6602C37.5498 100.9 42.0898 103.51 47.6798 103.51C53.2698 103.51 57.8198 100.9 57.8198 97.6602V98.3402C57.8198 101.57 53.2798 104.19 47.6798 104.19C42.0798 104.19 37.5498 101.57 37.5498 98.3402V97.6602Z" fill="#1C6DF6"/>
<path d="M47.6896 103.52C53.2842 103.52 57.8196 100.901 57.8196 97.6701C57.8196 94.4392 53.2842 91.8201 47.6896 91.8201C42.0949 91.8201 37.5596 94.4392 37.5596 97.6701C37.5596 100.901 42.0949 103.52 47.6896 103.52Z" fill="#99C1FD"/>
<path d="M38.5303 94.54C38.5303 97.45 42.6303 99.82 47.6803 99.82C52.7303 99.82 56.8403 97.45 56.8403 94.54V97.64C56.8403 100.56 52.7403 102.93 47.6803 102.93C42.6203 102.93 38.5303 100.56 38.5303 97.64V94.54Z" fill="#69A4FC"/>
<path d="M38.5303 94.54C38.5303 91.62 42.6303 89.25 47.6803 89.25C52.7303 89.25 56.8403 91.62 56.8403 94.54C56.8403 97.46 52.7403 99.82 47.6803 99.82C42.6203 99.82 38.5303 97.47 38.5303 94.54Z" fill="#88BEFF"/>
<path d="M53.4399 89.26C53.9299 88.98 53.9299 88.06 53.4399 87.26C52.9499 86.46 52.1599 85.95 51.6699 86.26L53.5599 85.64C54.0499 85.36 54.6699 85.82 54.9899 86.39C55.3099 86.96 55.3399 87.78 54.8499 88.06L53.4399 89.26Z" fill="#B8C8F4"/>
<path d="M53.4402 89.2601C52.9502 89.5401 52.1602 89.0801 51.6702 88.2601C51.1802 87.4401 51.1802 86.5001 51.6702 86.2601C52.1602 86.0201 52.9502 86.4301 53.4402 87.2601C53.9302 88.0901 53.9302 88.9801 53.4402 89.2601Z" fill="#1C6DF6"/>
<path d="M51.6404 90.4C52.1304 90.11 52.1304 89.2 51.6404 88.4C51.1504 87.6 50.3504 87.09 49.8604 87.4L51.7504 86.79C52.2404 86.51 52.8603 86.96 53.1803 87.54C53.5003 88.12 53.5303 88.92 53.0403 89.21L51.6404 90.4Z" fill="#B8C8F4"/>
<path d="M51.6407 90.3999C51.1507 90.6799 50.3507 90.2199 49.8607 89.3999C49.3707 88.5799 49.3707 87.6399 49.8607 87.3999C50.3507 87.1599 51.1507 87.5799 51.6407 88.3999C52.1307 89.2199 52.1207 90.1099 51.6407 90.3999Z" fill="#1C6DF6"/>
<path d="M49.6196 91.54C50.1096 91.26 50.1096 90.34 49.6196 89.54C49.1296 88.74 48.3396 88.23 47.8496 88.54L49.7396 87.92C50.2296 87.64 50.8496 88.1 51.1596 88.67C51.4696 89.24 51.5196 90.06 51.0296 90.34L49.6196 91.54Z" fill="#121E51"/>
<path d="M49.6199 91.5401C49.1299 91.8201 48.3399 91.3601 47.8499 90.5401C47.3599 89.7201 47.3599 88.7701 47.8499 88.5401C48.3399 88.3101 49.1299 88.7101 49.6199 89.5401C50.1099 90.3701 50.1199 91.2801 49.6199 91.5401Z" fill="#006272"/>
<path d="M45.3301 87.54C45.3301 88.29 46.3901 88.89 47.6801 88.89C48.9701 88.89 50.0401 88.29 50.0401 87.54V93.22C50.0401 93.97 48.9801 94.58 47.6801 94.58C46.3801 94.58 45.3301 93.97 45.3301 93.22V87.54Z" fill="#1C6DF6"/>
<path d="M45.3301 85.7102C45.3301 86.4602 46.3901 87.0602 47.6801 87.0602C48.9701 87.0602 50.0401 86.4602 50.0401 85.7102V87.5402C50.0401 88.2902 48.9801 88.8902 47.6801 88.8902C46.3801 88.8902 45.3301 88.2902 45.3301 87.5402V85.7102Z" fill="#3C94A3"/>
<path d="M45.3301 85.7101C45.3301 84.9601 46.3901 84.3501 47.6801 84.3501C48.9701 84.3501 50.0401 84.9601 50.0401 85.7101C50.0401 86.4601 48.9801 87.0601 47.6801 87.0601C46.3801 87.0601 45.3301 86.4601 45.3301 85.7101Z" fill="#2B6C81"/>
<path d="M46.25 84.2202C46.25 84.6802 46.89 85.0502 47.68 85.0502C48.47 85.0502 49.12 84.6802 49.12 84.2202V85.3502C49.12 85.8102 48.48 86.1802 47.68 86.1802C46.88 86.1802 46.25 85.8102 46.25 85.3502V84.2202Z" fill="#3C94A3"/>
<path d="M46.25 84.2201C46.25 83.7601 46.89 83.3901 47.68 83.3901C48.47 83.3901 49.12 83.7601 49.12 84.2201C49.12 84.6801 48.48 85.0501 47.68 85.0501C46.88 85.0501 46.25 84.6801 46.25 84.2201Z" fill="#2B6C81"/>
<path d="M44.7197 85.47C44.7197 86.41 46.0497 87.18 47.7197 87.18C49.3897 87.18 50.7197 86.41 50.7197 85.47V87.79C50.7197 88.73 49.3897 89.5 47.7197 89.5C46.0497 89.5 44.7197 88.73 44.7197 87.79V85.47Z" fill="#69A4FC"/>
<path d="M44.7197 85.47C44.7197 84.47 46.0497 83.75 47.7197 83.75C49.3897 83.75 50.7197 84.52 50.7197 85.47C50.7197 86.42 49.3897 87.18 47.7197 87.18C46.0497 87.18 44.7197 86.41 44.7197 85.47Z" fill="#88BEFF"/>
<path d="M46.25 84.2202C46.25 84.6802 46.89 85.0502 47.68 85.0502C48.47 85.0502 49.12 84.6802 49.12 84.2202V85.3502C49.12 85.8102 48.48 86.1802 47.68 86.1802C46.88 86.1802 46.25 85.8102 46.25 85.3502V84.2202Z" fill="#1C6DF6"/>
<path d="M46.25 84.2201C46.25 83.7601 46.89 83.3901 47.68 83.3901C48.47 83.3901 49.12 83.7601 49.12 84.2201C49.12 84.6801 48.48 85.0501 47.68 85.0501C46.88 85.0501 46.25 84.6801 46.25 84.2201Z" fill="#2B6C81"/>
<path d="M45.3301 82.54C45.3301 83.29 46.3901 83.9 47.6801 83.9C48.9701 83.9 50.0401 83.29 50.0401 82.54V84.38C50.0401 85.13 48.9801 85.74 47.6801 85.74C46.3801 85.74 45.3301 85.13 45.3301 84.38V82.54Z" fill="#69A4FC"/>
<path d="M45.3301 82.5399C45.3301 81.7899 46.3901 81.1799 47.6801 81.1799C48.9701 81.1799 50.0401 81.7899 50.0401 82.5399C50.0401 83.2899 48.9801 83.8999 47.6801 83.8999C46.3801 83.8999 45.3301 83.2599 45.3301 82.5399Z" fill="#1C6DF6"/>
<path d="M46.25 81.03C46.25 81.48 46.89 81.86 47.68 81.86C48.47 81.86 49.12 81.48 49.12 81.03V82.15C49.12 82.61 48.48 82.98 47.68 82.98C46.88 82.98 46.25 82.61 46.25 82.15V81.03Z" fill="#3C94A3"/>
<path d="M46.25 81.0299C46.25 80.5699 46.89 80.1899 47.68 80.1899C48.47 80.1899 49.12 80.5699 49.12 81.0299C49.12 81.4899 48.48 81.8599 47.68 81.8599C46.88 81.8599 46.25 81.4799 46.25 81.0299Z" fill="#2B6C81"/>
<path d="M44.21 79.03C44.21 80.14 45.77 81.03 47.68 81.03C49.59 81.03 51.16 80.13 51.16 79.03V81.03C51.16 82.13 49.6 83.03 47.68 83.03C45.76 83.03 44.21 82.13 44.21 81.03V79.03Z" fill="#69A4FC"/>
<path d="M44.21 79.03C44.21 77.93 45.77 77.03 47.68 77.03C49.59 77.03 51.16 77.93 51.16 79.03C51.16 80.13 49.6 81.03 47.68 81.03C45.76 81.03 44.21 80.14 44.21 79.03Z" fill="#88BEFF"/>
<path d="M49.2694 79.66C48.7805 79.9201 48.2332 80.0509 47.6794 80.04C46.4394 80.04 45.4395 79.46 45.4395 78.74V76.74C45.4395 77.46 46.4394 78.04 47.6794 78.04C48.2367 78.0544 48.7882 77.9234 49.2794 77.66C49.4594 77.5777 49.6144 77.4493 49.7285 77.2877C49.8427 77.1261 49.912 76.9371 49.9294 76.74V78.74C49.9101 78.9378 49.8389 79.1271 49.723 79.2886C49.6071 79.4502 49.4507 79.5783 49.2694 79.66Z" fill="#1C6DF6"/>
<path d="M49.2794 77.65C48.7882 77.9134 48.2367 78.0444 47.6794 78.03C46.4394 78.03 45.4395 77.45 45.4395 76.73C45.4588 76.5321 45.53 76.3429 45.6459 76.1814C45.7618 76.0198 45.9182 75.8917 46.0994 75.81C46.5851 75.5507 47.129 75.4199 47.6794 75.43C48.9294 75.43 49.9294 76.02 49.9294 76.73C49.912 76.9271 49.8427 77.116 49.7285 77.2776C49.6144 77.4392 49.4594 77.5677 49.2794 77.65Z" fill="#2B6C81"/>
<path d="M44.7402 70.1399C44.7402 71.0799 46.0602 71.8399 47.6802 71.8399C49.3002 71.8399 50.6302 71.0799 50.6302 70.1399V76.7299C50.6302 77.6699 49.3102 78.4299 47.6802 78.4299C46.0502 78.4299 44.7402 77.6699 44.7402 76.7299V70.1399Z" fill="#69A4FC"/>
<path d="M44.7402 70.1399C44.7402 69.1999 46.0602 68.4399 47.6802 68.4399C49.3002 68.4399 50.6302 69.1999 50.6302 70.1399C50.6302 71.0799 49.3102 71.8399 47.6802 71.8399C46.0502 71.8399 44.7402 71.0799 44.7402 70.1399Z" fill="#88BEFF"/>
<path d="M47.6807 71.3399C46.5707 71.3399 45.6807 70.7999 45.6807 70.1399C45.6807 69.4799 46.5907 68.9399 47.6807 68.9399C48.7707 68.9399 49.6807 69.4799 49.6807 70.1399C49.6807 70.7999 48.8007 71.3399 47.6807 71.3399ZM47.6807 69.0799C46.6807 69.0799 45.8007 69.5599 45.8007 70.1399C45.8007 70.7199 46.6507 71.1999 47.6807 71.1999C48.7107 71.1999 49.5707 70.7299 49.5707 70.1399C49.5707 69.5499 48.7207 69.0799 47.6807 69.0799Z" fill="#1C6DF6"/>
<path d="M43.9102 88.92C43.5119 88.9254 43.1201 88.818 42.7803 88.61C42.4139 88.3484 42.1218 87.9961 41.9325 87.5877C41.7432 87.1792 41.6632 86.7287 41.7002 86.28C41.7421 85.2075 42.0594 84.1639 42.6216 83.2496C43.1838 82.3353 43.972 81.5813 44.9102 81.06C44.9588 81.0362 45.0116 81.0222 45.0656 81.0189C45.1196 81.0155 45.1737 81.0229 45.2248 81.0405C45.2759 81.0582 45.323 81.0858 45.3635 81.1218C45.4039 81.1577 45.4368 81.2013 45.4602 81.25C45.4855 81.2983 45.5006 81.3512 45.5047 81.4056C45.5087 81.4599 45.5017 81.5145 45.4839 81.566C45.4661 81.6175 45.438 81.6648 45.4012 81.7051C45.3645 81.7453 45.3199 81.7776 45.2702 81.8C44.4682 82.2516 43.7941 82.8997 43.3113 83.6834C42.8285 84.467 42.5529 85.3606 42.5102 86.28C42.4785 86.5913 42.5272 86.9055 42.6515 87.1926C42.7758 87.4797 42.9716 87.7301 43.2203 87.92C43.4846 88.0531 43.7786 88.1164 44.0743 88.1042C44.37 88.0919 44.6578 88.0045 44.9102 87.85C45.0071 87.8012 45.1193 87.7927 45.2224 87.8264C45.3255 87.8602 45.411 87.9334 45.4602 88.03C45.4855 88.0783 45.5006 88.1312 45.5047 88.1856C45.5087 88.2399 45.5017 88.2945 45.4839 88.346C45.4661 88.3975 45.438 88.4448 45.4012 88.4851C45.3645 88.5253 45.3199 88.5576 45.2702 88.58C44.8488 88.7957 44.3836 88.912 43.9102 88.92Z" fill="#121E51"/>
<path d="M45.7904 93.39C46.2404 93.13 46.2404 92.28 45.7904 91.5C45.3404 90.72 44.6004 90.3 44.1504 90.56L45.2304 89.93C45.6804 89.67 46.4204 90.09 46.8704 90.93C47.3204 91.77 47.3204 92.55 46.8704 92.81L45.7904 93.39Z" fill="#121E51"/>
<path d="M45.79 93.3901C45.33 93.6501 44.6 93.2301 44.15 92.4401C43.7 91.6501 43.7 90.8201 44.15 90.5601C44.6 90.3001 45.33 90.7201 45.79 91.5001C46.25 92.2801 46.24 93.1301 45.79 93.3901Z" fill="#202A5F"/>
<path d="M44.4202 93.1199C44.6102 92.9999 44.6102 92.6299 44.4202 92.2899C44.2302 91.9499 43.9002 91.7599 43.7002 91.8799L44.4902 91.4199C44.6902 91.3099 45.0102 91.4899 45.2102 91.8299C45.4102 92.1699 45.4102 92.5499 45.2102 92.6599L44.4202 93.1199Z" fill="#121E51"/>
<path d="M44.4198 93.1199C44.2198 93.2299 43.8998 93.0499 43.6998 92.6999C43.4998 92.3499 43.4998 91.9899 43.6998 91.8799C43.8998 91.7699 44.2198 91.9499 44.4198 92.2899C44.6198 92.6299 44.6098 92.9999 44.4198 93.1199Z" fill="#B8C8F4"/>
<path d="M43.7393 93.8601C44.0193 93.7001 44.0193 93.1701 43.7393 92.6801C43.4593 92.1901 42.9993 91.9301 42.7393 92.1001L43.2093 91.8201C43.4893 91.6601 43.9493 91.9201 44.2093 92.4101C44.4693 92.9001 44.4893 93.4101 44.2093 93.5901L43.7393 93.8601Z" fill="#69A4FC"/>
<path d="M43.7397 93.8601C43.4497 94.0201 42.9997 93.7601 42.7397 93.2701C42.4797 92.7801 42.4597 92.2701 42.7397 92.1001C43.0197 91.9301 43.4697 92.2001 43.7397 92.6801C44.0097 93.1601 44.0197 93.7001 43.7397 93.8601Z" fill="#00ABAC"/>
<path d="M42.9199 96.6699C43.7599 96.1799 43.7599 94.6099 42.9199 93.1599C42.0799 91.7099 40.7199 90.9199 39.9199 91.3999L40.8499 90.8599C41.6899 90.3799 43.0499 91.1599 43.8499 92.6199C44.6499 94.0799 44.6899 95.6199 43.8499 96.1299L42.9199 96.6699Z" fill="#99C1FD"/>
<path d="M42.9198 96.6698C42.0798 97.1498 40.7198 96.3698 39.9198 94.9098C39.1198 93.4498 39.0798 91.9098 39.9198 91.3998C40.7598 90.8898 42.1198 91.6998 42.9198 93.1598C43.7198 94.6198 43.7598 96.1798 42.9198 96.6698Z" fill="#69A4FC"/>
<path d="M47.6803 70.14C47.6803 70.14 44.4203 69.74 45.7303 66.03C46.2629 64.7224 46.9157 63.467 47.6803 62.28C48.64 63.5802 49.3209 65.0645 49.6803 66.64C49.8803 68.63 49.6403 69.62 47.6803 70.14Z" fill="#FEB30F"/>
<path opacity="0.67" d="M47.6603 70.08C47.4229 69.9965 47.2048 69.8662 47.0187 69.6968C46.8327 69.5275 46.6825 69.3225 46.5771 69.094C46.4718 68.8655 46.4133 68.6182 46.4053 68.3668C46.3972 68.1153 46.4397 67.8648 46.5303 67.63C46.7449 66.8137 47.0537 66.0251 47.4503 65.28C48.0832 65.9487 48.5193 66.7793 48.7103 67.68C48.7803 68.8 48.6403 69.88 47.6603 70.08Z" fill="#FBC22C"/>
<path opacity="0.67" d="M47.7299 69.8799C47.6199 69.8421 47.5188 69.7824 47.4325 69.7044C47.3463 69.6264 47.2768 69.5318 47.2282 69.4261C47.1796 69.3205 47.1529 69.2061 47.1497 69.0899C47.1466 68.9737 47.167 68.858 47.2098 68.7499C47.3239 68.3804 47.4643 68.0195 47.6298 67.6699C47.9226 67.9788 48.1234 68.3632 48.2098 68.7799C48.2398 69.2899 48.1799 69.7899 47.7299 69.8799Z" fill="#F2DBD1"/>
<path d="M67.4496 51.8301L60.3096 55.9501V72.7001L67.4496 68.5701V51.8301Z" fill="#99C1FD"/>
<path d="M60.3099 55.9502L59.4199 55.4302V72.1802L60.3099 72.7002V55.9502Z" fill="#5195FB"/>
<path d="M67.4499 51.8301L66.5499 51.3101L59.4199 55.4301L60.3099 55.9501L67.4499 51.8301Z" fill="#C9DEFE"/>
<path d="M64.6602 70.0101C64.6717 69.7973 64.7411 69.5916 64.8609 69.4154C64.9808 69.2392 65.1465 69.099 65.3402 69.0101C65.8526 68.7485 66.4198 68.6121 66.9952 68.6121C67.5705 68.6121 68.1377 68.7485 68.6502 69.0101C68.8438 69.099 69.0095 69.2392 69.1294 69.4154C69.2492 69.5916 69.3186 69.7973 69.3302 70.0101V70.6701C69.312 70.4654 69.2394 70.2693 69.1198 70.1023C69.0002 69.9352 68.838 69.8032 68.6502 69.7201C68.1377 69.4585 67.5705 69.3221 66.9952 69.3221C66.4198 69.3221 65.8526 69.4585 65.3402 69.7201C65.1523 69.8032 64.9901 69.9352 64.8705 70.1023C64.751 70.2693 64.6783 70.4654 64.6602 70.6701V70.0101Z" fill="#5195FB"/>
<path d="M66.9704 72.97L61.9004 70.04V70.69L66.9704 73.62V72.97Z" fill="#7788BD"/>
<path d="M66.9704 72.97L72.1104 69.97L67.0404 67.04L61.9004 70.04L66.9704 72.97ZM65.3404 70.97C65.1403 70.9043 64.9661 70.777 64.8426 70.6064C64.7191 70.4359 64.6526 70.2306 64.6526 70.02C64.6526 69.8094 64.7191 69.6042 64.8426 69.4336C64.9661 69.263 65.1403 69.1358 65.3404 69.07C65.8529 68.8084 66.42 68.672 66.9954 68.672C67.5708 68.672 68.1379 68.8084 68.6504 69.07C68.8505 69.1358 69.0247 69.263 69.1482 69.4336C69.2717 69.6042 69.3381 69.8094 69.3381 70.02C69.3381 70.2306 69.2717 70.4359 69.1482 70.6064C69.0247 70.777 68.8505 70.9043 68.6504 70.97C68.1371 71.2301 67.5696 71.3648 66.9942 71.363C66.4188 71.3613 65.8521 71.2232 65.3404 70.96V70.97Z" fill="#C9DEFE"/>
<path d="M69.7207 72.9299C69.7289 72.7162 69.7969 72.5091 69.9172 72.3323C70.0374 72.1555 70.205 72.016 70.4007 71.9299C70.9114 71.6684 71.4769 71.532 72.0507 71.532C72.6245 71.532 73.19 71.6684 73.7007 71.9299C73.8969 72.0165 74.0653 72.1558 74.1871 72.3323C74.3089 72.5089 74.3794 72.7157 74.3907 72.9299V73.5899C74.3783 73.376 74.3073 73.1696 74.1857 72.9933C74.064 72.817 73.8962 72.6774 73.7007 72.5899C73.1884 72.3338 72.6235 72.2004 72.0507 72.2004C71.4779 72.2004 70.913 72.3338 70.4007 72.5899C70.2064 72.6779 70.04 72.8178 69.9201 72.9943C69.8001 73.1707 69.7311 73.3768 69.7207 73.5899V72.9299Z" fill="#5195FB"/>
<path d="M72.0607 75.9L66.9707 72.97V73.62L72.0607 76.56V75.9Z" fill="#7788BD"/>
<path d="M72.0605 75.9L77.2005 72.9L72.1205 70L66.9805 73L72.0605 75.9ZM70.4005 73.9C70.2004 73.8342 70.0262 73.707 69.9027 73.5364C69.7792 73.3658 69.7127 73.1606 69.7127 72.95C69.7127 72.7394 69.7792 72.5342 69.9027 72.3636C70.0262 72.193 70.2004 72.0658 70.4005 72C70.9112 71.7385 71.4767 71.6021 72.0505 71.6021C72.6242 71.6021 73.1898 71.7385 73.7005 72C73.9005 72.0658 74.0747 72.193 74.1982 72.3636C74.3217 72.5342 74.3882 72.7394 74.3882 72.95C74.3882 73.1606 74.3217 73.3658 74.1982 73.5364C74.0747 73.707 73.9005 73.8342 73.7005 73.9C73.1882 74.1584 72.6218 74.2914 72.048 74.2879C71.4743 74.2844 70.9096 74.1446 70.4005 73.88V73.9Z" fill="#C9DEFE"/>
<path d="M74.7705 75.8501C74.7818 75.6359 74.8523 75.429 74.9741 75.2525C75.0959 75.076 75.2643 74.9367 75.4605 74.8501C75.9712 74.5885 76.5367 74.4521 77.1105 74.4521C77.6843 74.4521 78.2498 74.5885 78.7605 74.8501C78.9556 74.9371 79.1225 75.0768 79.2426 75.2535C79.3627 75.4301 79.4312 75.6367 79.4405 75.8501V76.5401C79.4279 76.3275 79.3581 76.1224 79.2383 75.9463C79.1186 75.7703 78.9535 75.6299 78.7605 75.5401C78.2482 75.2839 77.6833 75.1506 77.1105 75.1506C76.5377 75.1506 75.9728 75.2839 75.4605 75.5401C75.265 75.6276 75.0972 75.7671 74.9755 75.9435C74.8539 76.1198 74.7829 76.3262 74.7705 76.5401V75.8501Z" fill="#5195FB"/>
<path d="M77.1505 78.8401L72.0605 75.9001V76.5601L77.1505 79.5001V78.8401Z" fill="#7788BD"/>
<path d="M72.0605 75.9002L77.1205 78.8402L82.2606 75.8402L77.1705 72.9102L72.0605 75.9002ZM75.4605 76.8002C75.2605 76.7344 75.0863 76.6071 74.9628 76.4366C74.8393 76.266 74.7728 76.0607 74.7728 75.8502C74.7728 75.6396 74.8393 75.4343 74.9628 75.2637C75.0863 75.0932 75.2605 74.9659 75.4605 74.9002C75.9712 74.6386 76.5368 74.5023 77.1105 74.5023C77.6843 74.5023 78.2499 74.6386 78.7606 74.9002C78.9606 74.9659 79.1348 75.0932 79.2583 75.2637C79.3818 75.4343 79.4483 75.6396 79.4483 75.8502C79.4483 76.0607 79.3818 76.266 79.2583 76.4366C79.1348 76.6071 78.9606 76.7344 78.7606 76.8002C78.2499 77.0617 77.6843 77.1981 77.1105 77.1981C76.5368 77.1981 75.9712 77.0617 75.4605 76.8002Z" fill="#C9DEFE"/>
<path d="M79.8301 78.7701C79.8394 78.5567 79.9079 78.3501 80.028 78.1735C80.1482 77.9968 80.3151 77.8572 80.5101 77.7701C81.0226 77.5085 81.5897 77.3721 82.1651 77.3721C82.7405 77.3721 83.3076 77.5085 83.8201 77.7701C84.0151 77.8572 84.182 77.9968 84.3022 78.1735C84.4223 78.3501 84.4908 78.5567 84.5001 78.7701V79.4301C84.4875 79.2175 84.4176 79.0124 84.2979 78.8363C84.1782 78.6603 84.0131 78.5199 83.8201 78.4301C83.306 78.1738 82.7395 78.0405 82.1651 78.0405C81.5907 78.0405 81.0242 78.1738 80.5101 78.4301C80.3171 78.5199 80.152 78.6603 80.0323 78.8363C79.9125 79.0124 79.8427 79.2175 79.8301 79.4301V78.7701Z" fill="#5195FB"/>
<path d="M82.2404 81.7801L77.1504 78.8401V79.5001L82.2404 82.4301V81.7801Z" fill="#7788BD"/>
<path d="M82.2904 75.8701L77.1504 78.8701L82.2404 81.8101L87.3704 78.8101L82.2904 75.8701ZM83.8204 77.8701C84.0205 77.9359 84.1946 78.0631 84.3181 78.2337C84.4416 78.4043 84.5081 78.6095 84.5081 78.8201C84.5081 79.0307 84.4416 79.2359 84.3181 79.4065C84.1946 79.5771 84.0205 79.7044 83.8204 79.7701C83.3079 80.0317 82.7408 80.1681 82.1654 80.1681C81.59 80.1681 81.0229 80.0317 80.5104 79.7701C80.3103 79.7044 80.1361 79.5771 80.0126 79.4065C79.8891 79.2359 79.8226 79.0307 79.8226 78.8201C79.8226 78.6095 79.8891 78.4043 80.0126 78.2337C80.1361 78.0631 80.3103 77.9359 80.5104 77.8701C81.0189 77.6007 81.584 77.4558 82.1594 77.4471C82.7348 77.4384 83.304 77.5662 83.8204 77.8201V77.8701Z" fill="#C9DEFE"/>
<path d="M84.8906 81.6901C84.8976 81.4762 84.9652 81.2686 85.0856 81.0915C85.206 80.9145 85.3742 80.7753 85.5706 80.6901C86.0813 80.4286 86.6469 80.2922 87.2206 80.2922C87.7944 80.2922 88.3599 80.4286 88.8706 80.6901C89.0675 80.7758 89.2365 80.9149 89.3585 81.0916C89.4804 81.2683 89.5505 81.4757 89.5606 81.6901V82.3501C89.5482 82.1363 89.4773 81.9299 89.3556 81.7536C89.2339 81.5772 89.0662 81.4377 88.8706 81.3501C88.3583 81.094 87.7934 80.9607 87.2206 80.9607C86.6479 80.9607 86.083 81.094 85.5706 81.3501C85.3763 81.4382 85.21 81.5781 85.09 81.7545C84.9701 81.9309 84.901 82.137 84.8906 82.3501V81.6901Z" fill="#5195FB"/>
<path d="M92.6007 81.8301L87.4707 84.8001V85.4501L92.6007 82.4901V81.8301Z" fill="#C9DEFE"/>
<path d="M87.4702 84.8L82.2402 81.78V82.43L87.4702 85.45V84.8Z" fill="#7788BD"/>
<path d="M87.3702 78.8101L82.2402 81.8101L87.4702 84.8101L92.6003 81.8101L87.3702 78.8101ZM88.8702 80.7401C89.0703 80.8058 89.2445 80.9331 89.368 81.1037C89.4915 81.2742 89.558 81.4795 89.558 81.6901C89.558 81.9007 89.4915 82.1059 89.368 82.2765C89.2445 82.4471 89.0703 82.5743 88.8702 82.6401C88.3595 82.9016 87.794 83.038 87.2202 83.038C86.6465 83.038 86.0809 82.9016 85.5703 82.6401C85.3702 82.5743 85.196 82.4471 85.0725 82.2765C84.949 82.1059 84.8825 81.9007 84.8825 81.6901C84.8825 81.4795 84.949 81.2742 85.0725 81.1037C85.196 80.9331 85.3702 80.8058 85.5703 80.7401C86.0809 80.4785 86.6465 80.3422 87.2202 80.3422C87.794 80.3422 88.3595 80.4785 88.8702 80.7401Z" fill="#C9DEFE"/>
<path d="M63.9297 62.0102C63.939 61.7968 64.0075 61.5902 64.1276 61.4136C64.2477 61.237 64.4147 61.0973 64.6097 61.0102C65.1204 60.7487 65.6859 60.6123 66.2597 60.6123C66.8335 60.6123 67.399 60.7487 67.9097 61.0102C68.1066 61.0959 68.2756 61.2349 68.3975 61.4117C68.5195 61.5884 68.5895 61.7957 68.5997 62.0102V62.6702C68.5873 62.4563 68.5163 62.25 68.3947 62.0736C68.273 61.8973 68.1052 61.7577 67.9097 61.6702C67.3974 61.4141 66.8325 61.2808 66.2597 61.2808C65.6869 61.2808 65.122 61.4141 64.6097 61.6702C64.4167 61.76 64.2516 61.9004 64.1319 62.0765C64.0121 62.2525 63.9423 62.4577 63.9297 62.6702V62.0102Z" fill="#5195FB"/>
<path d="M67.9093 61.0601C67.3986 60.7986 66.8331 60.6622 66.2593 60.6622C65.6855 60.6622 65.12 60.7986 64.6093 61.0601C63.9793 61.4201 63.7893 61.9401 64.0293 62.4001L61.2793 62.1001L66.4193 59.1001L71.6493 62.1001L68.4593 62.4201C68.7493 61.9901 68.5793 61.4401 67.9093 61.0601Z" fill="#C9DEFE"/>
<path d="M64.2295 69.3101C64.2295 70.3801 65.0995 70.9501 66.1695 70.9501C67.2395 70.9501 68.0995 70.3801 68.0995 69.3101C68.0643 68.8209 67.8452 68.3632 67.4861 68.0291C67.1271 67.695 66.6549 67.5093 66.1645 67.5093C65.6741 67.5093 65.2018 67.695 64.8428 68.0291C64.4838 68.3632 64.2647 68.8209 64.2295 69.3101Z" fill="#81B2FC"/>
<path d="M64.2295 56.54V69.23C64.2295 69.85 65.0995 70.35 66.1695 70.35C67.2395 70.35 67.9595 69.92 68.0795 69.35C68.0851 69.3035 68.0851 69.2565 68.0795 69.21V56.54C68.0795 57.16 67.2095 57.66 66.1495 57.66C65.0895 57.66 64.2295 57.14 64.2295 56.54Z" fill="#B1D0FE"/>
<path d="M64.2295 56.54V69.23C64.2295 69.85 65.0995 70.35 66.1695 70.35C67.2395 70.35 67.9595 69.92 68.0795 69.35C68.007 69.4182 67.9301 69.4817 67.8495 69.54C67.2395 69.94 66.3595 69.54 65.7895 67.64C65.2195 65.74 65.2295 58.47 65.2295 58.47L66.9195 58.07C67.3798 57.9685 67.7942 57.7191 68.0995 57.36V56.54C68.0995 57.16 67.2295 57.66 66.1695 57.66C65.1095 57.66 64.2295 57.14 64.2295 56.54Z" fill="#81B2FC"/>
<path d="M68.119 56.5402C68.119 55.9202 67.249 55.4302 66.189 55.4302C65.129 55.4302 64.249 55.9202 64.249 56.5402C64.249 57.1602 65.119 57.6602 66.189 57.6602C67.259 57.6602 68.119 57.1402 68.119 56.5402Z" fill="#81B2FC"/>
<path d="M63.9092 56.5401C63.9092 55.7301 64.9092 55.1001 66.1692 55.1001C67.4292 55.1001 68.4192 55.7301 68.4192 56.5401C68.4192 57.3501 67.4192 57.9801 66.1692 57.9801C64.9192 57.9801 63.9092 57.3301 63.9092 56.5401ZM64.5592 56.5401C64.5592 56.9201 65.2392 57.3301 66.1692 57.3301C67.0992 57.3301 67.7792 56.9201 67.7792 56.5401C67.7792 56.1601 67.0892 55.7501 66.1692 55.7501C65.2492 55.7501 64.5592 56.1501 64.5592 56.5401Z" fill="#E1EDFF"/>
<path d="M67.6193 58.3901V63.5401C67.6193 63.5401 67.6193 65.3101 67.3193 65.1001C67.0193 64.8901 67.1093 63.3501 67.1093 63.3501V58.6401C67.2076 58.6391 67.3044 58.6161 67.3926 58.5728C67.4808 58.5296 67.5583 58.4671 67.6193 58.3901Z" fill="white"/>
<path d="M71.6498 62.1501L66.5098 65.1201V65.7701L71.6498 62.8101V62.1501Z" fill="#C9DEFE"/>
<path d="M66.5093 65.1201L61.2793 62.1001V62.7601L66.5093 65.7701V65.1201Z" fill="#7788BD"/>
<path d="M64.0293 62.4001C64.1649 62.6386 64.3663 62.833 64.6093 62.9601C65.12 63.2217 65.6855 63.358 66.2593 63.358C66.8331 63.358 67.3986 63.2217 67.9093 62.9601C68.1289 62.8427 68.3174 62.6748 68.4593 62.4701L71.6493 62.1501L66.5093 65.1501L61.2793 62.1501L64.0293 62.4001Z" fill="#C9DEFE"/>
<path d="M69.1699 65.03C69.187 64.8251 69.2593 64.6286 69.379 64.4613C69.4987 64.2941 69.6614 64.1623 69.8499 64.08C70.3606 63.8185 70.9262 63.6821 71.4999 63.6821C72.0737 63.6821 72.6392 63.8185 73.1499 64.08C73.3391 64.1627 73.5027 64.2943 73.624 64.4613C73.7453 64.6283 73.8198 64.8246 73.8399 65.03V65.69C73.8286 65.4759 73.7581 65.269 73.6363 65.0925C73.5145 64.9159 73.3461 64.7766 73.1499 64.69C72.6392 64.4285 72.0737 64.2921 71.4999 64.2921C70.9262 64.2921 70.3606 64.4285 69.8499 64.69C69.6542 64.7762 69.4867 64.9156 69.3664 65.0924C69.2462 65.2693 69.1781 65.4763 69.1699 65.69V65.03Z" fill="#5195FB"/>
<path d="M73.1202 64.0801C72.6095 63.8186 72.044 63.6822 71.4702 63.6822C70.8965 63.6822 70.3309 63.8186 69.8203 64.0801C69.1903 64.4401 69.0002 64.9601 69.2402 65.4201L66.4902 65.1201L71.6302 62.1201L76.8602 65.1201L73.6702 65.4301C73.9902 65.0201 73.8202 64.4601 73.1202 64.0801Z" fill="#C9DEFE"/>
<path d="M69.4707 72.3401C69.4707 73.4101 70.3407 73.9801 71.4007 73.9801C72.4607 73.9801 73.3407 73.4101 73.3407 72.3401C73.3055 71.851 73.0864 71.3933 72.7274 71.0592C72.3683 70.7251 71.8961 70.5393 71.4057 70.5393C70.9153 70.5393 70.4431 70.7251 70.084 71.0592C69.725 71.3933 69.5059 71.851 69.4707 72.3401Z" fill="#81B2FC"/>
<path d="M69.4697 59.54V72.26C69.4697 72.87 70.3397 73.37 71.3997 73.37C72.4597 73.37 73.1997 72.95 73.3197 72.37C73.3239 72.3235 73.3239 72.2766 73.3197 72.23V59.54C73.3197 60.15 72.4497 60.65 71.3797 60.65C70.3097 60.65 69.4697 60.16 69.4697 59.54Z" fill="#B1D0FE"/>
<path d="M69.4697 59.54V72.26C69.4697 72.87 70.3397 73.37 71.3997 73.37C72.4597 73.37 73.1997 72.95 73.3197 72.37C73.2563 72.4305 73.1896 72.4872 73.1197 72.54C72.5097 72.94 71.6297 72.54 71.0597 70.65C70.4897 68.76 70.4997 61.47 70.4997 61.47L72.1897 61.07C72.6532 60.9765 73.07 60.7257 73.3697 60.36V59.54C73.3697 60.15 72.4997 60.65 71.4297 60.65C70.3597 60.65 69.4697 60.16 69.4697 59.54Z" fill="#81B2FC"/>
<path d="M73.3397 59.5402C73.3397 58.9202 72.4697 58.4202 71.3997 58.4202C70.3297 58.4202 69.4697 58.9202 69.4697 59.5402C69.4697 60.1602 70.3397 60.6502 71.3997 60.6502C72.4597 60.6502 73.3397 60.1602 73.3397 59.5402Z" fill="#81B2FC"/>
<path d="M69.1201 59.5401C69.1201 58.7301 70.1201 58.1001 71.3701 58.1001C72.6201 58.1001 73.6301 58.7301 73.6301 59.5401C73.6301 60.3501 72.6301 60.9701 71.3701 60.9701C70.1101 60.9701 69.1201 60.3501 69.1201 59.5401ZM69.7701 59.5401C69.7701 59.9101 70.4501 60.3301 71.3701 60.3301C72.2901 60.3301 72.9801 59.9101 72.9801 59.5401C72.9801 59.1701 72.3001 58.7401 71.3701 58.7401C70.4401 58.7401 69.8001 59.1701 69.8001 59.5401H69.7701Z" fill="#E1EDFF"/>
<path d="M72.8597 61.4202V66.6002C72.8597 66.6002 72.8598 68.3702 72.5598 68.1502C72.2598 67.9302 72.3398 66.4102 72.3398 66.4102V61.6602C72.4391 61.6633 72.5378 61.6432 72.6281 61.6016C72.7183 61.5599 72.7977 61.4978 72.8597 61.4202Z" fill="white"/>
<path d="M76.881 65.1802L71.751 68.1402V68.8002L76.881 65.8302V65.1802Z" fill="#C9DEFE"/>
<path d="M71.7505 68.1401L66.5205 65.1201V65.7801L71.7505 68.8001V68.1401Z" fill="#7788BD"/>
<path d="M69.2705 65.4202C69.4051 65.662 69.6064 65.8598 69.8505 65.9902C70.3628 66.2463 70.9277 66.3796 71.5005 66.3796C72.0733 66.3796 72.6382 66.2463 73.1505 65.9902C73.3687 65.8664 73.5565 65.6956 73.7005 65.4902L76.8905 65.1802L71.7505 68.1802L66.5205 65.1802L69.2705 65.4202Z" fill="#C9DEFE"/>
<path d="M74.4102 68.06C74.4171 67.846 74.4847 67.6384 74.6051 67.4614C74.7255 67.2844 74.8937 67.1452 75.0901 67.06C75.6008 66.7985 76.1664 66.6621 76.7401 66.6621C77.3139 66.6621 77.8794 66.7985 78.3901 67.06C78.587 67.1457 78.756 67.2847 78.878 67.4615C78.9999 67.6382 79.07 67.8455 79.0801 68.06V68.72C79.0677 68.5061 78.9968 68.2998 78.8751 68.1234C78.7534 67.9471 78.5857 67.8075 78.3901 67.72C77.8778 67.4639 77.3129 67.3306 76.7401 67.3306C76.1674 67.3306 75.6025 67.4639 75.0901 67.72C74.8958 67.808 74.7295 67.948 74.6095 68.1244C74.4896 68.3008 74.4206 68.5069 74.4102 68.72V68.06Z" fill="#5195FB"/>
<path d="M78.3897 67.1101C77.879 66.8486 77.3135 66.7122 76.7397 66.7122C76.166 66.7122 75.6004 66.8486 75.0898 67.1101C74.4598 67.4701 74.2698 67.9901 74.5098 68.4501L71.7598 68.1501L76.8897 65.1501L82.1198 68.1501L78.9398 68.4701C79.2298 68.0401 79.0497 67.5401 78.3897 67.1101Z" fill="#C9DEFE"/>
<path d="M74.71 75.3601C74.71 76.4301 75.58 77.0001 76.64 77.0001C77.7 77.0001 78.58 76.4301 78.58 75.3601C78.5448 74.871 78.3256 74.4133 77.9666 74.0792C77.6076 73.7451 77.1354 73.5593 76.645 73.5593C76.1545 73.5593 75.6823 73.7451 75.3233 74.0792C74.9643 74.4133 74.7451 74.871 74.71 75.3601Z" fill="#81B2FC"/>
<path d="M74.71 62.54V75.28C74.71 75.9 75.58 76.4 76.64 76.4C77.7 76.4 78.44 75.97 78.56 75.4C78.5655 75.3535 78.5655 75.3065 78.56 75.26V62.54C78.56 63.16 77.69 63.66 76.62 63.66C75.55 63.66 74.71 63.19 74.71 62.54Z" fill="#B1D0FE"/>
<path d="M74.71 62.54V75.28C74.71 75.9 75.58 76.4 76.64 76.4C77.7 76.4 78.44 75.97 78.56 75.4L78.33 75.59C77.72 75.99 76.84 75.59 76.27 73.69C75.7 71.79 75.71 64.52 75.71 64.52L77.4 64.12C77.8602 64.0185 78.2746 63.7691 78.58 63.41V62.54C78.58 63.16 77.71 63.66 76.64 63.66C75.57 63.66 74.71 63.19 74.71 62.54Z" fill="#81B2FC"/>
<path d="M78.58 62.5402C78.58 61.9202 77.71 61.4302 76.64 61.4302C75.57 61.4302 74.71 61.9202 74.71 62.5402C74.71 63.1602 75.58 63.6602 76.64 63.6602C77.7 63.6602 78.58 63.1902 78.58 62.5402Z" fill="#81B2FC"/>
<path d="M74.3896 62.5401C74.3896 61.7301 75.3896 61.1001 76.6396 61.1001C77.8896 61.1001 78.8997 61.7301 78.8997 62.5401C78.8997 63.3501 77.8996 63.9801 76.6396 63.9801C75.3796 63.9801 74.3896 63.3801 74.3896 62.5401ZM75.0297 62.5401C75.0297 62.9201 75.7196 63.3301 76.6396 63.3301C77.5596 63.3301 78.2497 62.9201 78.2497 62.5401C78.2497 62.1601 77.5696 61.7501 76.6396 61.7501C75.7096 61.7501 75.0297 62.2001 75.0297 62.5401Z" fill="#E1EDFF"/>
<path d="M78.1195 64.4402V69.6202C78.1195 69.6202 78.1195 71.3902 77.8195 71.1802C77.5195 70.9702 77.5995 69.4302 77.5995 69.4302V64.6902C77.6993 64.6899 77.7978 64.6673 77.8878 64.624C77.9778 64.5808 78.0569 64.518 78.1195 64.4402Z" fill="white"/>
<path d="M82.1202 68.2002L76.9902 71.1702V71.8202L82.1202 68.8602V68.2002Z" fill="#C9DEFE"/>
<path d="M76.9897 71.1701L71.7598 68.1501V68.8101L76.9897 71.8201V71.1701Z" fill="#7788BD"/>
<path d="M74.5098 68.4502C74.6426 68.6908 74.8446 68.8859 75.0898 69.0102C75.6004 69.2717 76.166 69.4081 76.7397 69.4081C77.3135 69.4081 77.879 69.2717 78.3897 69.0102C78.6093 68.8928 78.7979 68.7248 78.9398 68.5202L82.1198 68.2002L76.9897 71.2002L71.7598 68.2002L74.5098 68.4502Z" fill="#C9DEFE"/>
<path d="M79.6504 71.08C79.6585 70.8663 79.7266 70.6593 79.8469 70.4824C79.9671 70.3056 80.1347 70.1662 80.3304 70.08C80.8411 69.8185 81.4066 69.6821 81.9804 69.6821C82.5541 69.6821 83.1197 69.8185 83.6304 70.08C83.8266 70.1666 83.995 70.3059 84.1168 70.4825C84.2386 70.659 84.3091 70.8659 84.3204 71.08V71.74C84.3091 71.5258 84.2386 71.319 84.1168 71.1425C83.995 70.9659 83.8266 70.8266 83.6304 70.74C83.1197 70.4785 82.5541 70.3421 81.9804 70.3421C81.4066 70.3421 80.8411 70.4785 80.3304 70.74C80.1347 70.8262 79.9671 70.9656 79.8469 71.1424C79.7266 71.3193 79.6585 71.5263 79.6504 71.74V71.08Z" fill="#5195FB"/>
<path d="M83.63 70.1302C83.1193 69.8686 82.5537 69.7323 81.98 69.7323C81.4062 69.7323 80.8407 69.8686 80.33 70.1302C79.7 70.4902 79.51 71.0102 79.75 71.4702L77 71.1702L82.13 68.1702L87.36 71.1702L84.18 71.4802C84.47 71.0702 84.29 70.5402 83.63 70.1302Z" fill="#C9DEFE"/>
<path d="M79.9502 78.3902C79.9502 79.4602 80.8202 80.0302 81.8802 80.0302C82.9402 80.0302 83.8202 79.4602 83.8202 78.3902C83.785 77.901 83.5659 77.4433 83.2069 77.1092C82.8479 76.7751 82.3756 76.5894 81.8852 76.5894C81.3948 76.5894 80.9225 76.7751 80.5635 77.1092C80.2045 77.4433 79.9854 77.901 79.9502 78.3902Z" fill="#81B2FC"/>
<path d="M79.9502 65.6001V78.3101C79.9502 78.9201 80.8202 79.4201 81.8802 79.4201C82.9402 79.4201 83.6802 79.0001 83.8002 78.4201C83.8044 78.3735 83.8044 78.3267 83.8002 78.2801V65.6001C83.8002 66.2101 82.9302 66.7101 81.8602 66.7101C80.7902 66.7101 79.9502 66.2101 79.9502 65.6001Z" fill="#B1D0FE"/>
<path d="M79.9502 65.6001V78.3101C79.9502 78.9201 80.8202 79.4201 81.8802 79.4201C82.9402 79.4201 83.6802 79.0001 83.8002 78.4201L83.5702 78.6001C82.9602 79.0001 82.0802 78.6001 81.5102 76.7101C80.9402 74.8201 80.9502 67.5301 80.9502 67.5301L82.6402 67.1301C83.1036 67.0365 83.5205 66.7857 83.8202 66.4201V65.5701C83.8202 66.1801 82.9502 66.6801 81.8802 66.6801C80.8102 66.6801 79.9502 66.2101 79.9502 65.6001Z" fill="#81B2FC"/>
<path d="M83.8202 65.6002C83.8202 64.9802 82.9502 64.4802 81.8802 64.4802C80.8102 64.4802 79.9502 64.9802 79.9502 65.6002C79.9502 66.2202 80.8202 66.7102 81.8802 66.7102C82.9402 66.7102 83.8202 66.2102 83.8202 65.6002Z" fill="#81B2FC"/>
<path d="M79.6299 65.6002C79.6299 64.7902 80.6299 64.1602 81.8799 64.1602C83.1299 64.1602 84.1399 64.7902 84.1399 65.6002C84.1399 66.4102 83.1399 67.0302 81.8799 67.0302C80.6199 67.0302 79.6299 66.4002 79.6299 65.6002ZM80.2699 65.6002C80.2699 65.9702 80.9599 66.3902 81.8799 66.3902C82.7999 66.3902 83.4899 65.9702 83.4899 65.6002C83.4899 65.2302 82.8099 64.8002 81.8799 64.8002C80.9499 64.8002 80.2699 65.2202 80.2699 65.6002Z" fill="#E1EDFF"/>
<path d="M83.3402 67.4702V72.6502C83.3402 72.6502 83.3402 74.4202 83.0402 74.2002C82.7402 73.9802 82.8202 72.4602 82.8202 72.4602V67.7102C82.9196 67.7133 83.0183 67.6933 83.1086 67.6516C83.1988 67.61 83.2781 67.5479 83.3402 67.4702Z" fill="white"/>
<path d="M87.3605 71.2302L82.2305 74.1902V74.8502L87.3605 71.8802V71.2302Z" fill="#C9DEFE"/>
<path d="M82.23 74.1902L77 71.1702V71.8302L82.23 74.8502V74.1902Z" fill="#7788BD"/>
<path d="M79.75 71.4702C79.8817 71.7142 80.0838 71.9128 80.33 72.0402C80.8423 72.2963 81.4072 72.4297 81.98 72.4297C82.5528 72.4297 83.1177 72.2963 83.63 72.0402C83.8482 71.9164 84.036 71.7456 84.18 71.5402L87.36 71.2302L82.23 74.2302L77 71.2302L79.75 71.4702Z" fill="#C9DEFE"/>
<path d="M84.8906 74.1101C84.9067 73.9048 84.9785 73.7078 85.0983 73.5404C85.2182 73.373 85.3815 73.2415 85.5706 73.1601C86.0813 72.8986 86.6469 72.7622 87.2206 72.7622C87.7944 72.7622 88.3599 72.8986 88.8706 73.1601C89.0604 73.2419 89.2246 73.3732 89.346 73.5404C89.4674 73.7076 89.5416 73.9044 89.5606 74.1101V74.7701C89.5482 74.5562 89.4773 74.3499 89.3556 74.1735C89.2339 73.9972 89.0662 73.8576 88.8706 73.7701C88.3583 73.514 87.7934 73.3807 87.2206 73.3807C86.6479 73.3807 86.083 73.514 85.5706 73.7701C85.3763 73.8581 85.21 73.9981 85.09 74.1745C84.9701 74.3509 84.901 74.557 84.8906 74.7701V74.1101Z" fill="#5195FB"/>
<path d="M88.8702 73.1602C88.3595 72.8987 87.794 72.7623 87.2202 72.7623C86.6465 72.7623 86.0809 72.8987 85.5703 73.1602C84.9403 73.5202 84.7502 74.0402 84.9902 74.5002L82.2402 74.2002L87.3702 71.2002L92.6003 74.2002L89.4102 74.5202C89.7102 74.0902 89.5302 73.5402 88.8702 73.1602Z" fill="#C9DEFE"/>
<path d="M85.1904 81.4102C85.1904 82.4802 86.0604 83.0502 87.1204 83.0502C88.1804 83.0502 89.0504 82.4802 89.0504 81.4102C89.0504 80.8984 88.8471 80.4075 88.4851 80.0455C88.1232 79.6836 87.6323 79.4802 87.1204 79.4802C86.6086 79.4802 86.1177 79.6836 85.7557 80.0455C85.3938 80.4075 85.1904 80.8984 85.1904 81.4102Z" fill="#81B2FC"/>
<path d="M85.1904 68.6201V81.3301C85.1904 81.9501 86.0604 82.4501 87.1204 82.4501C88.1804 82.4501 88.9204 82.0201 89.0404 81.4501C89.0458 81.4036 89.0458 81.3566 89.0404 81.3101V68.6201C89.0404 69.2401 88.1804 69.7401 87.1104 69.7401C86.0404 69.7401 85.1904 69.2401 85.1904 68.6201Z" fill="#B1D0FE"/>
<path d="M85.1904 68.6201V81.3301C85.1904 81.9501 86.0604 82.4501 87.1204 82.4501C88.1804 82.4501 88.9204 82.0201 89.0404 81.4501L88.8104 81.6401C88.2004 82.0401 87.3204 81.6401 86.7504 79.7401C86.1804 77.8401 86.1904 70.5701 86.1904 70.5701L87.8804 70.1701C88.3388 70.0707 88.7506 69.8208 89.0504 69.4601V68.6001C89.0504 69.2201 88.1904 69.7201 87.1204 69.7201C86.0504 69.7201 85.1904 69.2401 85.1904 68.6201Z" fill="#81B2FC"/>
<path d="M89.0504 68.6203C89.0504 68.0003 88.1904 67.5103 87.1204 67.5103C86.0504 67.5103 85.1904 68.0003 85.1904 68.6203C85.1904 69.2403 86.0604 69.7402 87.1204 69.7402C88.1804 69.7402 89.0504 69.2403 89.0504 68.6203Z" fill="#81B2FC"/>
<path d="M84.8701 68.6202C84.8701 67.8102 85.8701 67.1802 87.1201 67.1802C88.3701 67.1802 89.3801 67.8102 89.3801 68.6202C89.3801 69.4302 88.3801 70.0602 87.1201 70.0602C85.8601 70.0602 84.8701 69.4302 84.8701 68.6202ZM85.5101 68.6202C85.5101 69.0002 86.2001 69.4102 87.1201 69.4102C88.0401 69.4102 88.7301 69.0002 88.7301 68.6202C88.7301 68.2402 88.0401 67.8302 87.1201 67.8302C86.2001 67.8302 85.5101 68.2502 85.5101 68.6202Z" fill="#E1EDFF"/>
<path d="M88.5804 70.5403V75.7203C88.5804 75.7203 88.5805 77.4903 88.2805 77.2803C87.9805 77.0703 88.0605 75.5303 88.0605 75.5303V70.7403C88.1564 70.7462 88.2525 70.7314 88.3422 70.6969C88.432 70.6624 88.5132 70.609 88.5804 70.5403Z" fill="white"/>
<path d="M92.6007 74.2502L87.4707 77.2202V77.8702L92.6007 74.9102V74.2502Z" fill="#C9DEFE"/>
<path d="M87.4702 77.2202L82.2402 74.2002V74.8502L87.4702 77.8702V77.2202Z" fill="#7788BD"/>
<path d="M84.9902 74.5403C85.123 74.7809 85.3251 74.976 85.5703 75.1003C86.0809 75.3618 86.6465 75.4982 87.2202 75.4982C87.794 75.4982 88.3595 75.3618 88.8702 75.1003C89.089 74.9856 89.2749 74.8169 89.4102 74.6103L92.6003 74.2903L87.4702 77.2903L82.2402 74.2903L84.9902 74.5403Z" fill="#C9DEFE"/>
<path d="M93.8507 67.0701L86.7207 71.1901V87.9401L93.8507 83.8201V67.0701Z" fill="#99C1FD"/>
<path d="M86.7203 71.1902L85.8203 70.6802V87.4202L86.7203 87.9402V71.1902Z" fill="#5195FB"/>
<path d="M93.8503 67.0701L92.9503 66.5601L85.8203 70.6801L86.7203 71.1901L93.8503 67.0701Z" fill="#C9DEFE"/>
<path d="M55.8805 52.43C55.8824 54.1017 55.3885 55.7364 54.4612 57.1273C53.5339 58.5182 52.2149 59.6028 50.6711 60.2439C49.1272 60.885 47.4279 61.0538 45.7881 60.7288C44.1483 60.4039 42.6417 59.5999 41.459 58.4186C40.2762 57.2372 39.4704 55.7316 39.1436 54.0922C38.8167 52.4528 38.9835 50.7532 39.6227 49.2086C40.262 47.664 41.3451 46.3437 42.7349 45.4148C44.1247 44.4858 45.7588 43.99 47.4305 43.99C48.6519 43.9912 49.8589 44.2537 50.9705 44.76C52.4359 45.4361 53.677 46.5177 54.5472 47.8769C55.4173 49.2362 55.8799 50.8161 55.8805 52.43Z" fill="#99C1FD"/>
<path d="M42.0496 47.5898C43.7179 46.7415 45.563 46.2993 47.4346 46.2993C49.3062 46.2993 51.1514 46.7415 52.8196 47.5898C53.4714 47.943 54.038 48.4345 54.4796 49.0298C53.8408 47.7039 52.8408 46.5852 51.5946 45.8023C50.3483 45.0193 48.9064 44.604 47.4346 44.604C45.9629 44.604 44.521 45.0193 43.2747 45.8023C42.0285 46.5852 41.0285 47.7039 40.3896 49.0298C40.8293 48.4327 41.3964 47.9408 42.0496 47.5898Z" fill="#B6D4FF"/>
<path d="M55.0297 50.54C55.0897 51.71 54.3597 52.89 52.8197 53.77C51.1514 54.6184 49.3063 55.0606 47.4347 55.0606C45.5631 55.0606 43.718 54.6184 42.0497 53.77C40.5097 52.89 39.7697 51.71 39.8297 50.54C39.682 51.1492 39.6048 51.7733 39.5997 52.4C39.5621 53.4525 39.7369 54.5017 40.1137 55.4852C40.4906 56.4686 41.0616 57.366 41.7929 58.1238C42.5242 58.8817 43.4006 59.4844 44.3699 59.8961C45.3393 60.3078 46.3816 60.52 47.4347 60.52C48.4879 60.52 49.5302 60.3078 50.4995 59.8961C51.4689 59.4844 52.3453 58.8817 53.0766 58.1238C53.8078 57.366 54.3789 56.4686 54.7557 55.4852C55.1325 54.5017 55.3073 53.4525 55.2697 52.4C55.2663 51.7725 55.1857 51.1478 55.0297 50.54Z" fill="#FC7464"/>
<path d="M39.8301 50.54C39.9596 50.0076 40.1474 49.4912 40.3901 49L39.8301 50.54Z" fill="#195161"/>
<path d="M42.0495 53.7999C43.7178 54.6482 45.5629 55.0904 47.4345 55.0904C49.3061 55.0904 51.1513 54.6482 52.8195 53.7999C54.3595 52.9199 55.0895 51.7399 55.0295 50.5699C54.899 50.0392 54.7147 49.5232 54.4795 49.0299C54.0379 48.4345 53.4713 47.943 52.8195 47.5899C51.1513 46.7415 49.3061 46.2993 47.4345 46.2993C45.5629 46.2993 43.7178 46.7415 42.0495 47.5899C41.3963 47.9408 40.8292 48.4327 40.3895 49.0299C40.1468 49.5211 39.959 50.0375 39.8295 50.5699C39.7695 51.7399 40.5095 52.9199 42.0495 53.7999Z" fill="#FF6666"/>
<path d="M43.3105 48.6401C43.3105 48.6401 44.0005 49.0901 44.3105 49.3301C44.5558 49.4999 44.8359 49.6127 45.1304 49.6601C45.1304 49.6601 44.9005 50.4601 44.7005 51.1201C44.5912 51.4709 44.5043 51.8283 44.4405 52.1901C43.6876 52.0342 42.9692 51.7428 42.3205 51.3301C41.5705 50.6501 41.3805 50.1201 41.5105 50.1801C41.7999 49.8056 42.1359 49.4695 42.5105 49.1801C42.7626 48.9795 43.0301 48.7989 43.3105 48.6401Z" fill="white"/>
<path d="M49.5894 33.8399C49.5242 33.9479 49.4433 34.0456 49.3494 34.1299C49.169 34.2903 48.9582 34.4127 48.7294 34.4899H48.6395C48.5463 34.5303 48.4491 34.5605 48.3494 34.5799H48.2694L47.8895 34.6499H47.8194H47.4894H47.1895V47.3699C47.8332 47.4258 48.4792 47.2938 49.0494 46.9899C49.218 46.9132 49.3663 46.7983 49.4827 46.6542C49.599 46.5101 49.6801 46.3408 49.7195 46.1599C49.7195 46.1599 49.7195 46.0899 49.7195 46.0599V33.3999C49.7189 33.556 49.6738 33.7086 49.5894 33.8399Z" fill="#B8C8F4"/>
<path d="M46.6804 34.6499H46.6304L46.3804 34.5799C46.3153 34.566 46.2517 34.5459 46.1904 34.5199L45.9604 34.4199C45.9078 34.4027 45.8574 34.3792 45.8104 34.3499C45.7567 34.3225 45.7064 34.289 45.6604 34.2499L45.5804 34.1899L45.4804 34.0999C45.4352 34.0618 45.3948 34.0181 45.3604 33.9699L45.2904 33.8799C45.2599 33.8321 45.2331 33.7819 45.2104 33.7299C45.2104 33.7299 45.2104 33.7299 45.2104 33.6499C45.2007 33.5803 45.2007 33.5096 45.2104 33.4399V46.1599C45.2436 46.3116 45.3067 46.4552 45.396 46.5822C45.4853 46.7093 45.599 46.8173 45.7304 46.8999L45.8804 46.9899C46.1494 47.1467 46.4439 47.255 46.7504 47.3099L47.2604 47.3699V34.7099C47.0656 34.7088 46.8713 34.6887 46.6804 34.6499Z" fill="#99C1FD"/>
<path d="M47.4294 32.4002C47.9404 32.3864 48.4464 32.5034 48.8994 32.7402C49.2294 32.9302 49.4094 33.1602 49.4094 33.4002C49.3865 33.5441 49.3278 33.6799 49.2387 33.7953C49.1496 33.9106 49.0329 34.0017 48.8994 34.0602C48.4464 34.2969 47.9404 34.4139 47.4294 34.4002H47.1895V34.7202H47.4894H47.8194H47.8895L48.2694 34.6502H48.3494C48.4491 34.6308 48.5463 34.6006 48.6395 34.5602H48.7294C48.9582 34.4829 49.169 34.3605 49.3494 34.2002C49.4433 34.1158 49.5242 34.0181 49.5894 33.9102C49.6773 33.7799 49.7259 33.6272 49.7294 33.4702C49.7115 33.268 49.64 33.0743 49.5222 32.9091C49.4044 32.7438 49.2447 32.613 49.0594 32.5302C48.4827 32.2352 47.8351 32.107 47.1895 32.1602V32.4802L47.4294 32.4002Z" fill="#99C1FD"/>
<path d="M45.1198 33.4298C45.1101 33.4995 45.1101 33.5702 45.1198 33.6398C45.1198 33.6398 45.1198 33.6398 45.1198 33.7198C45.1425 33.7719 45.1693 33.822 45.1998 33.8698L45.2698 33.9598C45.3042 34.008 45.3446 34.0517 45.3898 34.0898L45.4898 34.1798C45.5631 34.2378 45.64 34.2913 45.7198 34.3398C45.7668 34.3691 45.8172 34.3926 45.8698 34.4098L46.0998 34.5098C46.1611 34.5358 46.2247 34.5559 46.2898 34.5698L46.5398 34.6398C46.7242 34.6785 46.9115 34.7019 47.0998 34.7098V34.3898C46.6734 34.3736 46.2563 34.2607 45.8798 34.0598C45.7324 34.0233 45.6015 33.9384 45.5079 33.8188C45.4143 33.6992 45.3635 33.5517 45.3635 33.3998C45.3635 33.248 45.4143 33.1005 45.5079 32.9809C45.6015 32.8613 45.7324 32.7764 45.8798 32.7398C46.2563 32.539 46.6734 32.4261 47.0998 32.4098V32.0898C46.6179 32.1079 46.1462 32.2344 45.7198 32.4598C45.5346 32.5427 45.3748 32.6735 45.257 32.8388C45.1393 33.004 45.0677 33.1977 45.0498 33.3998L45.1198 33.4298Z" fill="#99C1FD"/>
<path d="M45.2095 33.7199C45.2095 33.7199 45.2095 33.7199 45.2095 33.6399C45.2095 33.5599 45.1995 33.6899 45.2095 33.7199Z" fill="#99C1FD"/>
<path d="M45.9694 32.7401C45.822 32.7767 45.6911 32.8615 45.5975 32.9812C45.504 33.1008 45.4531 33.2483 45.4531 33.4001C45.4531 33.552 45.504 33.6995 45.5975 33.8191C45.6911 33.9387 45.822 34.0236 45.9694 34.0601C46.3459 34.261 46.763 34.3739 47.1894 34.3901V32.3901C46.7614 32.4126 46.3442 32.5323 45.9694 32.7401Z" fill="#8AACEA"/>
<path d="M48.8994 34.06C49.0329 34.0015 49.1496 33.9104 49.2387 33.7951C49.3278 33.6798 49.3865 33.5439 49.4094 33.4C49.4094 33.16 49.2294 32.93 48.8994 32.74C48.4464 32.5033 47.9404 32.3863 47.4294 32.4H47.1895V34.4H47.4294C47.9404 34.4138 48.4464 34.2967 48.8994 34.06Z" fill="#8AACEA"/>
<path d="M46.6802 34.65V47.31C46.3737 47.2551 46.0792 47.1468 45.8102 46.99L45.6602 46.9V34.24C45.7061 34.279 45.7565 34.3126 45.8102 34.34C46.0797 34.4936 46.3742 34.5986 46.6802 34.65Z" fill="white"/>
<path d="M50.4994 32.8601C50.5021 33.1475 50.4297 33.4306 50.2894 33.6814C50.1491 33.9322 49.9457 34.142 49.6994 34.2901C49.028 34.6349 48.2841 34.8147 47.5294 34.8147C46.7746 34.8147 46.0308 34.6349 45.3594 34.2901C45.0911 34.1483 44.8604 33.9446 44.6865 33.696C44.5126 33.4473 44.4005 33.1607 44.3594 32.8601C44.3844 32.5904 44.4811 32.3324 44.6393 32.1126C44.7975 31.8929 45.0116 31.7194 45.2594 31.6101C45.9322 31.27 46.6755 31.0928 47.4294 31.0928C48.1832 31.0928 48.9266 31.27 49.5994 31.6101C49.8471 31.7194 50.0612 31.8929 50.2194 32.1126C50.3777 32.3324 50.4743 32.5904 50.4994 32.8601Z" fill="#88BEFF"/>
<path d="M49.57 33.15C49.4496 33.3409 49.2805 33.4962 49.08 33.6C48.5677 33.8561 48.0028 33.9895 47.43 33.9895C46.8573 33.9895 46.2924 33.8561 45.78 33.6C45.582 33.4929 45.4136 33.3383 45.29 33.15C45.4077 32.9568 45.5776 32.8008 45.78 32.7C46.2924 32.4439 46.8573 32.3105 47.43 32.3105C48.0028 32.3105 48.5677 32.4439 49.08 32.7C49.2805 32.8038 49.4496 32.9591 49.57 33.15Z" fill="#99C1FD"/>
<path d="M21 107.79C21 110.72 26.93 112.16 30.35 110.11C30.7967 109.897 31.1797 109.571 31.4606 109.164C31.7414 108.757 31.9102 108.283 31.95 107.79V109.16C31.95 112.08 26.03 113.53 22.61 111.48C22.162 111.268 21.7775 110.942 21.4949 110.535C21.2124 110.128 21.0417 109.654 21 109.16V107.79Z" fill="#69A4FC"/>
<path d="M21 107.79C21 104.86 26.93 103.41 30.35 105.47C32.49 106.75 32.49 108.83 30.35 110.11C26.93 112.16 21 110.71 21 107.79Z" fill="#88BEFF"/>
<path d="M25.3896 26.9199C23.9196 25.6199 23.9196 21.6899 25.3896 22.1599C26.8596 23.4599 26.8596 27.3899 25.3896 26.9199Z" fill="#195161"/>
<path d="M43.1191 38.46V43.15C43.2085 43.4704 43.3629 43.769 43.5728 44.0271C43.7827 44.2852 44.0436 44.4972 44.3391 44.65C46.7691 46.12 51.0691 45.25 51.4291 43.15V38.46H49.4291C49.4177 38.6113 49.3582 38.755 49.2591 38.87C48.1991 40.19 45.1891 39.7 45.0391 38.46H43.1191Z" fill="#69A4FC"/>
<path d="M48.3691 39.5398V45.3498C49.0299 45.2484 49.6668 45.0282 50.2491 44.6998V36.5898H49.4991C49.4991 38.1198 49.4991 38.3598 49.4991 38.4598C49.4291 38.9698 48.8291 39.3498 48.3691 39.5398Z" fill="#99C1FD"/>
<path d="M43.1198 38.46C43.1698 39.46 44.1798 40.14 45.1198 40.46C47.0198 41.17 49.7698 40.88 51.0198 39.51C51.3086 39.1887 51.4684 38.772 51.4684 38.34C51.4684 37.908 51.3086 37.4912 51.0198 37.17C50.6049 36.7403 50.0944 36.4148 49.5298 36.22C49.5298 38.01 49.5298 38.34 49.5298 38.44C49.3798 39.68 46.3698 40.17 45.3098 38.85C45.0398 38.5 45.1298 38.24 45.1298 36.21C44.5094 36.4253 43.9573 36.8014 43.5298 37.3C43.2478 37.6188 43.1008 38.0347 43.1198 38.46Z" fill="#88BEFF"/>
<path d="M29.1191 54.0499L44.3991 44.4399C44.8852 43.8446 45.2028 43.1298 45.3188 42.37C45.4349 41.6103 45.3452 40.8333 45.0591 40.1199C45.0025 40.0011 44.9029 39.9082 44.7804 39.8599C44.6579 39.8117 44.5216 39.8117 44.3991 39.8599L29.1191 49.4599V54.0499Z" fill="#1C6DF6"/>
<path d="M28.2402 51.6601L45.3002 40.9801C45.2707 40.675 45.1715 40.3808 45.0102 40.1201L28.2402 50.6301V51.6601Z" fill="#99C1FD"/>
<path d="M29.0205 54.16C30.4905 52.86 30.4905 48.94 29.0205 49.41C27.5505 50.7 27.5505 54.63 29.0205 54.16Z" fill="#195161"/>
<path d="M28.6696 20.3999C28.6696 22.5699 28.6696 23.2499 28.6696 23.3399C28.6481 23.4934 28.586 23.6384 28.4896 23.7599C28.1489 24.0848 27.7338 24.3213 27.2805 24.4485C26.8272 24.5758 26.3497 24.59 25.8896 24.4899V21.6199C27.1196 21.8199 28.6396 21.3199 28.6696 20.3999Z" fill="#1C6DF6"/>
<path d="M24.8998 21.2799V24.1499C24.7182 24.0655 24.5629 23.9336 24.4502 23.7681C24.3376 23.6026 24.2718 23.4097 24.2598 23.2099V20.3999C24.2838 20.5886 24.355 20.7682 24.4669 20.922C24.5788 21.0758 24.7276 21.1989 24.8998 21.2799Z" fill="#1C6DF6"/>
<path d="M24.2598 20.3999H28.6698C28.6695 20.5794 28.6057 20.7529 28.4898 20.8899C27.4098 22.2299 24.2998 21.6899 24.2598 20.3999Z" fill="#195161"/>
<path d="M28.6695 23.21V107.59C28.6242 107.759 28.5437 107.917 28.4335 108.053C28.3232 108.189 28.1856 108.3 28.0295 108.38C26.7295 109.16 24.4695 108.7 24.2695 107.59V23.21C24.2695 24.61 27.4395 25.07 28.4995 23.76C28.6185 23.602 28.6786 23.4075 28.6695 23.21Z" fill="#1C6DF6"/>
<path d="M25.8896 21.62V24.54C25.5369 24.4949 25.1968 24.3793 24.8896 24.2V21.28C25.1994 21.4536 25.5383 21.5689 25.8896 21.62Z" fill="#99C1FD"/>
<path d="M25.8896 24.5399V108.78C25.5389 108.721 25.2008 108.602 24.8896 108.43V24.1499C25.1929 24.3468 25.5332 24.4795 25.8896 24.5399Z" fill="#99C1FD"/>
<path d="M25.8896 19.4102V21.6202C25.5383 21.569 25.1994 21.4537 24.8896 21.2802V19.4102H25.8896Z" fill="#99C1FD"/>
<path d="M28.6696 20.4C28.5896 21.76 25.4797 22.18 24.4397 20.89C24.3204 20.7333 24.2559 20.5419 24.2559 20.345C24.2559 20.1481 24.3204 19.9567 24.4397 19.8C25.5097 18.48 28.7596 18.96 28.6696 20.4Z" fill="#88BEFF"/>
<path d="M30.6301 23.3398V28.0298C30.5414 28.3519 30.3873 28.6522 30.1774 28.912C29.9675 29.1718 29.7063 29.3855 29.4101 29.5398C27.0001 30.9798 22.6901 30.1498 22.3301 28.0298V23.3398H24.3301C24.3539 23.491 24.412 23.6347 24.5001 23.7598C25.5701 25.0698 28.5801 24.5798 28.7301 23.3398H30.6301Z" fill="#69A4FC"/>
<path d="M25.3895 24.37V30.18C24.7325 30.082 24.0988 29.8651 23.5195 29.54V21.47H24.2595C24.2595 22.9 24.2595 23.25 24.2595 23.34C24.3295 23.86 24.9295 24.23 25.3895 24.37Z" fill="#99C1FD"/>
<path d="M30.6295 23.34C30.6295 24.34 29.6295 25.02 28.6796 25.34C26.7596 26.06 24.0096 25.74 22.7796 24.39C22.4844 24.0719 22.3203 23.654 22.3203 23.22C22.3203 22.7861 22.4844 22.3681 22.7796 22.05C23.1846 21.6018 23.6925 21.2586 24.2596 21.05C24.2596 22.84 24.2596 23.18 24.2596 23.27C24.4096 24.51 27.4196 25 28.4796 23.69C28.7596 23.33 28.6595 23.06 28.6595 21.04C29.2827 21.2555 29.838 21.6315 30.2695 22.13C30.5404 22.4722 30.6693 22.9054 30.6295 23.34Z" fill="#88BEFF"/>
<path d="M30.6301 50.05V54.73C30.5442 55.0533 30.3912 55.3549 30.181 55.6151C29.9708 55.8753 29.7081 56.0882 29.4101 56.2401C27.0001 57.6901 22.6901 56.86 22.3301 54.73V50.05H24.3301C24.3508 50.199 24.4093 50.3402 24.5001 50.46C25.5601 51.78 28.5801 51.29 28.7301 50.05H30.6301Z" fill="#69A4FC"/>
<path d="M25.3895 51.0802V56.8902C24.732 56.7886 24.0983 56.5684 23.5195 56.2402V48.1802H24.2595C24.2595 49.7102 24.2595 49.9502 24.2595 50.0502C24.3295 50.5402 24.9295 50.9302 25.3895 51.0802Z" fill="#99C1FD"/>
<path d="M30.6295 50.05C30.6295 51.05 29.5696 51.73 28.6796 52.05C26.7596 52.76 24.0096 52.45 22.7796 51.05C22.4844 50.7319 22.3203 50.314 22.3203 49.88C22.3203 49.446 22.4844 49.0281 22.7796 48.71C23.1897 48.2817 23.6975 47.9592 24.2596 47.77C24.2596 49.56 24.2596 49.89 24.2596 49.99C24.4096 51.23 27.4196 51.71 28.4796 50.4C28.7596 50.05 28.6696 49.79 28.6696 47.76C29.2887 47.9779 29.8402 48.3536 30.2695 48.85C30.5398 49.1886 30.6688 49.6186 30.6295 50.05Z" fill="#88BEFF"/>
<path d="M72.2095 43.3598C72.1086 43.3579 72.0104 43.3266 71.9269 43.2698C71.8435 43.2129 71.7783 43.1331 71.7395 43.0398L66.7395 30.0398C66.7139 29.9796 66.7009 29.9149 66.7012 29.8494C66.7015 29.784 66.7152 29.7193 66.7414 29.6594C66.7676 29.5995 66.8058 29.5455 66.8537 29.5009C66.9015 29.4563 66.9579 29.4219 67.0195 29.3998C67.0806 29.3755 67.1459 29.3634 67.2116 29.3643C67.2773 29.3652 67.3422 29.379 67.4026 29.405C67.463 29.4311 67.5176 29.4687 67.5634 29.5159C67.6092 29.563 67.6453 29.6187 67.6695 29.6798L72.6695 42.6798C72.7156 42.802 72.7122 42.9373 72.6598 43.0569C72.6075 43.1764 72.5105 43.2708 72.3895 43.3198C72.3336 43.3474 72.2719 43.3611 72.2095 43.3598Z" fill="#DD6C2D"/>
<path d="M70.1192 43.8901C70.1153 44.3584 70.2502 44.8173 70.5069 45.209C70.7636 45.6007 71.1306 45.9075 71.5615 46.0908C71.9925 46.2741 72.4681 46.3256 72.9283 46.2389C73.3885 46.1521 73.8126 45.9309 74.1472 45.6033C74.4818 45.2757 74.7119 44.8562 74.8083 44.398C74.9048 43.9397 74.8633 43.4631 74.6891 43.0284C74.5149 42.5937 74.2159 42.2204 73.8297 41.9555C73.4435 41.6906 72.9875 41.546 72.5192 41.5401C72.0689 41.537 71.6274 41.6656 71.2492 41.9101C70.9083 42.1171 70.6257 42.4075 70.428 42.7539C70.2303 43.1003 70.1241 43.4913 70.1192 43.8901Z" fill="#FEB30F"/>
<path d="M70.7998 43.2801C70.7998 43.9087 71.0495 44.5115 71.494 44.9559C71.9384 45.4004 72.5412 45.6501 73.1698 45.6501C73.6201 45.6532 74.0616 45.5246 74.4398 45.2801C74.6942 44.9273 74.846 44.511 74.8787 44.0773C74.9113 43.6435 74.8235 43.2092 74.6248 42.8223C74.4262 42.4353 74.1245 42.1108 73.753 41.8845C73.3815 41.6583 72.9548 41.5391 72.5198 41.5401C72.0695 41.537 71.628 41.6656 71.2498 41.9101C70.9612 42.3089 70.8039 42.7878 70.7998 43.2801Z" fill="#FCD561"/>
<path d="M72.7402 43.1399C72.7402 43.2289 72.7666 43.3159 72.8161 43.3899C72.8655 43.4639 72.9358 43.5216 73.018 43.5557C73.1003 43.5897 73.1907 43.5987 73.278 43.5813C73.3653 43.5639 73.4455 43.5211 73.5084 43.4581C73.5714 43.3952 73.6142 43.315 73.6316 43.2277C73.649 43.1404 73.64 43.05 73.606 42.9677C73.5719 42.8855 73.5142 42.8152 73.4402 42.7658C73.3662 42.7163 73.2792 42.6899 73.1902 42.6899C73.0709 42.6899 72.9564 42.7374 72.872 42.8217C72.7876 42.9061 72.7402 43.0206 72.7402 43.1399Z" fill="#FFEFCA"/>
<path d="M83.8697 51.0999C83.7813 51.1017 83.6943 51.0773 83.6197 51.0299L73.3497 45.0999C73.2345 45.0348 73.1498 44.9267 73.1141 44.7992C73.0785 44.6717 73.0949 44.5354 73.1597 44.4199C73.2285 44.306 73.3384 44.2227 73.4668 44.1874C73.5952 44.152 73.7322 44.1673 73.8497 44.2299L84.1197 50.1599C84.2339 50.2286 84.3167 50.3393 84.3503 50.4683C84.3839 50.5972 84.3658 50.7342 84.2997 50.8499C84.256 50.9255 84.1934 50.9884 84.118 51.0322C84.0425 51.0761 83.9569 51.0994 83.8697 51.0999Z" fill="#DD6C2D"/>
<path d="M82.6397 51.0301C82.6377 51.4992 82.775 51.9584 83.0342 52.3495C83.2934 52.7405 83.6629 53.0459 84.0958 53.2268C84.5287 53.4077 85.0055 53.456 85.4659 53.3657C85.9263 53.2754 86.3495 53.0505 86.682 52.7194C87.0144 52.3884 87.2411 51.9661 87.3334 51.5061C87.4257 51.0461 87.3793 50.5691 87.2002 50.1354C87.0211 49.7018 86.7174 49.331 86.3274 49.0702C85.9375 48.8093 85.4789 48.6701 85.0097 48.6701C84.5591 48.6652 84.1171 48.7939 83.7397 49.0401C83.4042 49.253 83.1277 49.5468 82.9354 49.8945C82.7432 50.2423 82.6415 50.6327 82.6397 51.0301Z" fill="#FEB30F"/>
<path d="M83.2891 50.4298C83.286 50.8555 83.398 51.2741 83.6134 51.6413C83.8288 52.0084 84.1395 52.3105 84.5126 52.5155C84.8857 52.7205 85.3073 52.8207 85.7327 52.8057C86.1581 52.7906 86.5715 52.6607 86.9291 52.4298C87.1863 52.077 87.3405 51.6597 87.3747 51.2244C87.4089 50.7891 87.3216 50.3529 87.1226 49.9642C86.9236 49.5756 86.6207 49.2498 86.2476 49.023C85.8744 48.7963 85.4457 48.6775 85.0091 48.6798C84.5585 48.6749 84.1166 48.8037 83.7391 49.0498C83.4447 49.4495 83.287 49.9334 83.2891 50.4298Z" fill="#FCD561"/>
<path d="M85.5399 51.54C85.4393 51.5407 85.3412 51.5092 85.2599 51.45C85.1512 51.3733 85.0768 51.2572 85.0525 51.1264C85.0282 50.9957 85.056 50.8606 85.1299 50.75L90.2699 43.44C90.3468 43.3312 90.4638 43.2575 90.595 43.235C90.7263 43.2125 90.8611 43.2431 90.9699 43.32C91.0786 43.3969 91.1523 43.5139 91.1748 43.6451C91.1973 43.7764 91.1668 43.9112 91.0899 44.02L85.9499 51.33C85.9022 51.3941 85.8405 51.4464 85.7694 51.4829C85.6983 51.5193 85.6198 51.5388 85.5399 51.54Z" fill="#DD6C2D"/>
<path d="M72.3203 21.5579L67.1855 28.864L68.0037 29.439L73.1385 22.1329L72.3203 21.5579Z" fill="#DD6C2D"/>
<path d="M64.5195 29.1802C64.5222 29.807 64.773 30.4073 65.2172 30.8496C65.6614 31.2919 66.2627 31.5402 66.8895 31.5402C67.2131 31.5612 67.5374 31.5157 67.8426 31.4063C68.1478 31.297 68.4274 31.1262 68.6639 30.9046C68.9005 30.6829 69.0891 30.415 69.218 30.1176C69.3469 29.8201 69.4134 29.4994 69.4134 29.1752C69.4134 28.851 69.3469 28.5302 69.218 28.2328C69.0891 27.9353 68.9005 27.6675 68.6639 27.4458C68.4274 27.2241 68.1478 27.0533 67.8426 26.944C67.5374 26.8347 67.2131 26.7891 66.8895 26.8102C66.261 26.8102 65.6582 27.0599 65.2137 27.5043C64.7692 27.9488 64.5195 28.5516 64.5195 29.1802Z" fill="#FEB30F"/>
<path d="M65.1699 28.54C65.1699 29.1686 65.4196 29.7714 65.8641 30.2158C66.3085 30.6603 66.9114 30.91 67.5399 30.91C67.9913 30.9101 68.4328 30.778 68.8099 30.53C69.1267 30.0831 69.2788 29.5403 69.2405 28.9939C69.2022 28.4475 68.9759 27.9312 68.5999 27.5329C68.2239 27.1345 67.7216 26.8787 67.1783 26.8089C66.635 26.7391 66.0844 26.8596 65.6199 27.15C65.3279 27.5547 65.1705 28.0409 65.1699 28.54Z" fill="#FCD561"/>
<path d="M67.2402 28.42C67.2402 28.5049 67.274 28.5862 67.334 28.6463C67.394 28.7063 67.4754 28.74 67.5602 28.74C67.6063 28.7482 67.6536 28.7463 67.6988 28.7342C67.7441 28.7222 67.7861 28.7004 67.822 28.6704C67.8579 28.6403 67.8867 28.6028 67.9065 28.5604C67.9263 28.518 67.9366 28.4718 67.9366 28.425C67.9366 28.3782 67.9263 28.332 67.9065 28.2896C67.8867 28.2472 67.8579 28.2096 67.822 28.1796C67.7861 28.1496 67.7441 28.1278 67.6988 28.1157C67.6536 28.1037 67.6063 28.1017 67.5602 28.11C67.4771 28.1099 67.3972 28.1423 67.3374 28.2001C67.2777 28.258 67.2428 28.3369 67.2402 28.42Z" fill="#FFEFCA"/>
<path d="M70.4903 21.38C70.4903 21.8492 70.6295 22.3078 70.8904 22.6978C71.1512 23.0877 71.522 23.3915 71.9556 23.5706C72.3893 23.7496 72.8663 23.796 73.3263 23.7037C73.7863 23.6115 74.2086 23.3848 74.5396 23.0523C74.8707 22.7199 75.0956 22.2966 75.1859 21.8362C75.2763 21.3758 75.2279 20.899 75.047 20.4661C74.866 20.0332 74.5607 19.6638 74.1697 19.4046C73.7786 19.1454 73.3194 19.0081 72.8503 19.01C72.4008 19.013 71.961 19.1411 71.5803 19.38C71.2446 19.5943 70.9686 19.8901 70.778 20.2398C70.5874 20.5895 70.4884 20.9818 70.4903 21.38Z" fill="#FEB30F"/>
<path d="M71.1191 20.77C71.1191 21.3986 71.3688 22.0014 71.8133 22.4459C72.2578 22.8904 72.8606 23.14 73.4891 23.14C73.9407 23.1414 74.3825 23.0092 74.7592 22.76C75.0163 22.4072 75.1706 21.9899 75.2047 21.5546C75.2389 21.1193 75.1516 20.6831 74.9526 20.2945C74.7536 19.9058 74.4507 19.58 74.0776 19.3532C73.7045 19.1265 73.2758 19.0077 72.8391 19.01C72.3897 19.013 71.9499 19.1412 71.5692 19.38C71.2771 19.7847 71.1197 20.271 71.1191 20.77Z" fill="#FCD561"/>
<path d="M73.2101 20.63C73.2233 20.7039 73.2621 20.7708 73.3197 20.819C73.3773 20.8672 73.45 20.8937 73.5251 20.8937C73.6002 20.8937 73.6729 20.8672 73.7305 20.819C73.788 20.7708 73.8269 20.7039 73.8401 20.63C73.8483 20.5839 73.8464 20.5366 73.8343 20.4914C73.8223 20.4462 73.8005 20.4042 73.7705 20.3683C73.7404 20.3324 73.7029 20.3035 73.6605 20.2837C73.6181 20.2639 73.5719 20.2537 73.5251 20.2537C73.4783 20.2537 73.4321 20.2639 73.3897 20.2837C73.3473 20.3035 73.3097 20.3324 73.2797 20.3683C73.2496 20.4042 73.2279 20.4462 73.2158 20.4914C73.2038 20.5366 73.2018 20.5839 73.2101 20.63Z" fill="#FFEFCA"/>
<path d="M90.6302 42.6801C90.5297 42.6817 90.4312 42.6516 90.3487 42.5942C90.2661 42.5368 90.2037 42.4549 90.1702 42.3601L85.1202 29.3601C85.0961 29.2985 85.0845 29.2326 85.0861 29.1664C85.0876 29.1002 85.1023 29.035 85.1293 28.9745C85.1563 28.914 85.195 28.8595 85.2432 28.8142C85.2915 28.7688 85.3482 28.7334 85.4102 28.7101C85.5336 28.6646 85.6699 28.6695 85.7897 28.7238C85.9095 28.7781 86.0031 28.8773 86.0502 29.0001L91.1002 42.0001C91.1243 42.0618 91.1359 42.1277 91.1343 42.1939C91.1328 42.2601 91.1181 42.3253 91.0911 42.3858C91.0641 42.4462 91.0254 42.5007 90.9772 42.5461C90.9289 42.5915 90.8722 42.6269 90.8102 42.6501C90.7522 42.6697 90.6914 42.6799 90.6302 42.6801Z" fill="#DD6C2D"/>
<path d="M88.7696 43.4602C88.7676 43.9302 88.9054 44.3902 89.1655 44.7817C89.4256 45.1731 89.7963 45.4784 90.2304 45.6588C90.6644 45.8391 91.1423 45.8863 91.6032 45.7943C92.0641 45.7024 92.4873 45.4754 92.8189 45.1424C93.1506 44.8093 93.3757 44.3852 93.4657 43.9239C93.5557 43.4625 93.5065 42.9849 93.3243 42.5516C93.1422 42.1183 92.8353 41.749 92.4427 41.4905C92.0501 41.2321 91.5896 41.0962 91.1196 41.1002C90.6692 41.0971 90.2278 41.2257 89.8496 41.4702C89.5165 41.6841 89.2429 41.9787 89.0541 42.3265C88.8653 42.6744 88.7674 43.0644 88.7696 43.4602Z" fill="#FEB30F"/>
<path d="M89.4201 42.8598C89.4227 43.4867 89.6736 44.0869 90.1177 44.5292C90.5619 44.9715 91.1632 45.2198 91.7901 45.2198C92.2404 45.2229 92.6819 45.0943 93.0601 44.8498C93.3183 44.4956 93.4728 44.0765 93.5061 43.6394C93.5395 43.2023 93.4505 42.7646 93.2491 42.3752C93.0477 41.9859 92.7418 41.6603 92.3658 41.4351C91.9897 41.2098 91.5584 41.0937 91.1201 41.0998C90.6697 41.0967 90.2283 41.2253 89.8501 41.4698C89.5652 41.8769 89.4148 42.363 89.4201 42.8598Z" fill="#FCD561"/>
<path d="M91.5996 42.71C91.5996 42.7515 91.6119 42.7921 91.635 42.8267C91.6581 42.8612 91.6909 42.8881 91.7292 42.904C91.7676 42.9199 91.8098 42.9241 91.8506 42.916C91.8913 42.9079 91.9287 42.8879 91.9581 42.8585C91.9875 42.8291 92.0075 42.7917 92.0156 42.751C92.0237 42.7102 92.0195 42.668 92.0036 42.6296C91.9877 42.5913 91.9608 42.5585 91.9263 42.5354C91.8917 42.5123 91.8511 42.5 91.8096 42.5C91.7539 42.5 91.7005 42.5221 91.6611 42.5615C91.6217 42.6009 91.5996 42.6543 91.5996 42.71Z" fill="#FFEFCA"/>
<path d="M84.3297 28.28C84.2428 28.2793 84.1573 28.2588 84.0797 28.22L73.8097 22.29C73.6955 22.2214 73.6127 22.1107 73.579 21.9817C73.5454 21.8528 73.5636 21.7158 73.6297 21.6C73.6618 21.5428 73.705 21.4927 73.7569 21.4525C73.8088 21.4123 73.8682 21.383 73.9316 21.3662C73.995 21.3494 74.0611 21.3455 74.1261 21.3548C74.191 21.364 74.2535 21.3862 74.3097 21.42L84.5797 27.35C84.6949 27.4152 84.7796 27.5233 84.8152 27.6508C84.8508 27.7782 84.8344 27.9146 84.7697 28.03C84.7244 28.1064 84.66 28.1696 84.5829 28.2135C84.5057 28.2573 84.4184 28.2803 84.3297 28.28Z" fill="#DD6C2D"/>
<path d="M82.46 28C82.458 28.4691 82.5953 28.9283 82.8545 29.3194C83.1138 29.7104 83.4832 30.0158 83.9161 30.1967C84.3489 30.3776 84.8258 30.4259 85.2862 30.3356C85.7466 30.2453 86.1698 30.0204 86.5022 29.6893C86.8347 29.3583 87.0614 28.936 87.1537 28.476C87.2459 28.016 87.1996 27.539 87.0205 27.1053C86.8414 26.6717 86.5377 26.3009 86.1477 26.0401C85.7578 25.7792 85.2991 25.64 84.83 25.64C84.3765 25.6366 83.9318 25.7652 83.55 26.01C83.2164 26.224 82.9418 26.5184 82.7514 26.866C82.5609 27.2137 82.4608 27.6036 82.46 28Z" fill="#FEB30F"/>
<path d="M83.1191 27.4C83.1218 28.0268 83.3727 28.627 83.8168 29.0693C84.261 29.5116 84.8623 29.76 85.4891 29.76C85.9426 29.7633 86.3873 29.6347 86.7691 29.39C87.0225 29.0362 87.1736 28.6195 87.2058 28.1856C87.2381 27.7516 87.1502 27.3172 86.9519 26.9298C86.7536 26.5425 86.4525 26.2173 86.0816 25.9897C85.7107 25.7622 85.2843 25.6412 84.8492 25.64C84.3956 25.6366 83.9509 25.7652 83.5692 26.01C83.2771 26.4147 83.1197 26.9009 83.1191 27.4Z" fill="#FCD561"/>
<path d="M85.0498 27.2499C85.0498 27.3393 85.0765 27.4267 85.1264 27.5009C85.1763 27.5751 85.2472 27.6328 85.33 27.6665C85.4128 27.7003 85.5038 27.7086 85.5913 27.6904C85.6789 27.6722 85.759 27.6283 85.8216 27.5644C85.8841 27.5005 85.9261 27.4194 85.9424 27.3314C85.9586 27.2435 85.9482 27.1527 85.9126 27.0707C85.877 26.9886 85.8178 26.9191 85.7425 26.8708C85.6672 26.8226 85.5792 26.7979 85.4898 26.7999C85.3722 26.8025 85.2603 26.8511 85.1781 26.9352C85.0958 27.0193 85.0498 27.1323 85.0498 27.2499Z" fill="#FFEFCA"/>
<path d="M52.2599 21.8902C52.2757 22.299 52.4165 22.6932 52.6634 23.0196C52.9102 23.3459 53.2512 23.5887 53.6404 23.7152C54.0296 23.8416 54.4481 23.8456 54.8397 23.7267C55.2312 23.6078 55.5768 23.3717 55.8299 23.0502C56.0781 22.7144 56.2114 22.3076 56.2099 21.8902C56.2099 21.3597 55.9992 20.851 55.6241 20.4759C55.2491 20.1009 54.7404 19.8902 54.2099 19.8902C53.834 19.8886 53.4658 19.9963 53.1499 20.2002C52.8724 20.3853 52.6456 20.6369 52.4902 20.932C52.3347 21.2272 52.2556 21.5566 52.2599 21.8902Z" fill="#FEB30F"/>
<path d="M52.7998 21.3899C52.7998 21.9204 53.0105 22.4291 53.3856 22.8042C53.7607 23.1792 54.2694 23.3899 54.7998 23.3899C55.176 23.3932 55.5447 23.2854 55.8598 23.0799C56.108 22.7442 56.2413 22.3374 56.2398 21.9199C56.2398 21.3895 56.0291 20.8808 55.654 20.5057C55.2789 20.1307 54.7702 19.9199 54.2398 19.9199C53.8639 19.9184 53.4956 20.0261 53.1798 20.2299C52.9354 20.5676 52.8025 20.9731 52.7998 21.3899Z" fill="#FCD561"/>
<path d="M54.4201 21.27C54.4201 21.3681 54.459 21.4622 54.5284 21.5316C54.5978 21.601 54.6919 21.64 54.7901 21.64C54.8444 21.6489 54.9001 21.6459 54.9532 21.6312C55.0063 21.6164 55.0555 21.5903 55.0975 21.5546C55.1395 21.5189 55.1732 21.4746 55.1964 21.4246C55.2195 21.3746 55.2315 21.3201 55.2315 21.265C55.2315 21.2099 55.2195 21.1555 55.1964 21.1055C55.1732 21.0555 55.1395 21.0111 55.0975 20.9754C55.0555 20.9397 55.0063 20.9136 54.9532 20.8989C54.9001 20.8841 54.8444 20.8811 54.7901 20.89C54.7406 20.89 54.6917 20.8999 54.6461 20.9191C54.6006 20.9383 54.5593 20.9665 54.5248 21.0019C54.4903 21.0373 54.4633 21.0793 54.4453 21.1253C54.4273 21.1714 54.4187 21.2206 54.4201 21.27Z" fill="#FFEFCA"/>
<path d="M65.5791 29.0999C65.4909 29.1006 65.4042 29.0763 65.3291 29.0299L55.0591 23.0999C54.9458 23.033 54.8628 22.9249 54.8274 22.7981C54.792 22.6714 54.8069 22.5359 54.8691 22.4199C54.9379 22.306 55.0478 22.2227 55.1762 22.1874C55.3046 22.152 55.4416 22.1673 55.5591 22.2299L65.8291 28.1599C65.9433 28.2286 66.0261 28.3393 66.0598 28.4683C66.0934 28.5972 66.0752 28.7342 66.0091 28.8499C65.9655 28.9255 65.9028 28.9884 65.8274 29.0322C65.752 29.0761 65.6664 29.0994 65.5791 29.0999Z" fill="#DD6C2D"/>
<path d="M72.35 20.68C72.2487 20.6794 72.1499 20.6486 72.0662 20.5916C71.9825 20.5346 71.9177 20.454 71.88 20.36L66.88 7.36005C66.8322 7.23539 66.836 7.09688 66.8904 6.97499C66.9447 6.85309 67.0453 6.75779 67.17 6.71005C67.2946 6.66231 67.4331 6.66604 67.555 6.72043C67.6769 6.77481 67.7722 6.8754 67.82 7.00005L72.82 20C72.8665 20.1236 72.8633 20.2603 72.8111 20.3815C72.7589 20.5027 72.6617 20.599 72.54 20.65C72.4788 20.6707 72.4146 20.6809 72.35 20.68Z" fill="#DD6C2D"/>
<path d="M70.8801 21.46C70.8958 21.8689 71.0366 22.2631 71.2835 22.5894C71.5303 22.9158 71.8714 23.1585 72.2605 23.285C72.6497 23.4114 73.0682 23.4155 73.4598 23.2966C73.8513 23.1776 74.1969 22.9415 74.45 22.62C74.6982 22.2843 74.8315 21.8775 74.83 21.46C74.83 20.9295 74.6193 20.4208 74.2443 20.0458C73.8692 19.6707 73.3605 19.46 72.83 19.46C72.4541 19.4584 72.0859 19.5661 71.77 19.77C71.4925 19.9551 71.2657 20.2067 71.1103 20.5019C70.9548 20.797 70.8757 21.1264 70.8801 21.46Z" fill="#FEB30F"/>
<path d="M71.4199 20.96C71.4199 21.4904 71.6306 21.9991 72.0057 22.3742C72.3808 22.7493 72.8895 22.96 73.4199 22.96C73.7961 22.9633 74.1648 22.8555 74.4799 22.65C74.7281 22.3143 74.8614 21.9075 74.8599 21.49C74.8599 20.9596 74.6492 20.4509 74.2741 20.0758C73.8991 19.7007 73.3904 19.49 72.8599 19.49C72.484 19.4885 72.1158 19.5962 71.7999 19.8C71.5555 20.1376 71.4226 20.5432 71.4199 20.96Z" fill="#FCD561"/>
<path d="M73.2405 20.8402C73.2405 20.8852 73.2585 20.9285 73.2903 20.9604C73.3222 20.9922 73.3655 21.0102 73.4105 21.0102C73.4566 21.0102 73.5009 20.9926 73.5344 20.961C73.5679 20.9294 73.588 20.8861 73.5905 20.8402C73.5905 20.7924 73.5716 20.7466 73.5378 20.7129C73.504 20.6791 73.4583 20.6602 73.4105 20.6602C73.3874 20.6601 73.3644 20.6648 73.3431 20.674C73.3218 20.6831 73.3026 20.6966 73.2866 20.7134C73.2707 20.7303 73.2584 20.7502 73.2505 20.772C73.2425 20.7938 73.2392 20.817 73.2405 20.8402Z" fill="#FFEFCA"/>
<path d="M64.5699 6C64.5903 6.40407 64.7327 6.79245 64.9784 7.11386C65.2242 7.43528 65.5616 7.67462 65.9461 7.80028C66.3307 7.92594 66.7443 7.93202 67.1324 7.81771C67.5205 7.70339 67.8648 7.47406 68.1199 7.16C68.3608 6.82119 68.4901 6.41572 68.4899 6C68.4899 5.46957 68.2792 4.96086 67.9041 4.58579C67.529 4.21071 67.0203 4 66.4899 4C66.1144 4.0018 65.7471 4.10923 65.4299 4.31C65.1579 4.49855 64.9369 4.75165 64.7869 5.0466C64.6368 5.34155 64.5622 5.66914 64.5699 6Z" fill="#FEB30F"/>
<path d="M65.1191 5.53982C65.1191 6.07026 65.3299 6.57896 65.7049 6.95404C66.08 7.32911 66.5887 7.53982 67.1191 7.53982C67.495 7.54137 67.8633 7.43367 68.1791 7.22982C68.42 6.89101 68.5494 6.48555 68.5491 6.06982C68.5491 5.53939 68.3384 5.03068 67.9633 4.65561C67.5883 4.28054 67.0796 4.06982 66.5491 4.06982C66.1737 4.07162 65.8064 4.17905 65.4891 4.37982C65.2482 4.71864 65.1189 5.1241 65.1191 5.53982Z" fill="#FCD561"/>
<path d="M66.7197 5.38C66.7197 5.45516 66.742 5.52863 66.7838 5.59112C66.8255 5.65361 66.8849 5.70231 66.9543 5.73107C67.0237 5.75984 67.1001 5.76736 67.1739 5.7527C67.2476 5.73804 67.3153 5.70184 67.3684 5.6487C67.4216 5.59556 67.4577 5.52785 67.4724 5.45413C67.4871 5.38042 67.4796 5.30402 67.4508 5.23458C67.422 5.16514 67.3733 5.1058 67.3108 5.06404C67.2483 5.02229 67.1749 5 67.0997 5C66.9989 5 66.9023 5.04004 66.831 5.1113C66.7598 5.18256 66.7197 5.27922 66.7197 5.38Z" fill="#FFEFCA"/>
<path d="M92.2051 42.8157L91.7441 43.7031L104.869 50.5209L105.33 49.6335L92.2051 42.8157Z" fill="#DD6C2D"/>
<path d="M103.23 49.6001C103.245 50.009 103.386 50.4032 103.633 50.7295C103.88 51.0559 104.221 51.2987 104.61 51.4251C104.999 51.5516 105.418 51.5556 105.809 51.4367C106.201 51.3178 106.547 51.0816 106.8 50.7601C107.048 50.4244 107.181 50.0176 107.18 49.6001C107.18 49.0697 106.969 48.561 106.594 48.1859C106.219 47.8108 105.71 47.6001 105.18 47.6001C104.804 47.5986 104.436 47.7063 104.12 47.9101C103.842 48.0952 103.615 48.3468 103.46 48.642C103.304 48.9372 103.225 49.2665 103.23 49.6001Z" fill="#FEB30F"/>
<path d="M103.77 49.0999C103.77 49.6303 103.98 50.139 104.355 50.5141C104.73 50.8892 105.239 51.0999 105.77 51.0999C106.146 51.1032 106.514 50.9954 106.83 50.7899C107.078 50.4542 107.211 50.0474 107.21 49.6299C107.21 49.0995 106.999 48.5908 106.624 48.2157C106.249 47.8406 105.74 47.6299 105.21 47.6299C104.834 47.6284 104.465 47.7361 104.15 47.9399C103.905 48.2775 103.772 48.6831 103.77 49.0999Z" fill="#FCD561"/>
<path d="M105.5 48.9801C105.5 49.049 105.528 49.1152 105.576 49.1639C105.625 49.2127 105.691 49.2401 105.76 49.2401C105.799 49.2477 105.84 49.2466 105.878 49.2368C105.917 49.227 105.953 49.2088 105.984 49.1835C106.014 49.1582 106.039 49.1263 106.056 49.0903C106.073 49.0543 106.082 49.0149 106.082 48.9751C106.082 48.9352 106.073 48.8959 106.056 48.8599C106.039 48.8238 106.014 48.792 105.984 48.7667C105.953 48.7413 105.917 48.7231 105.878 48.7133C105.84 48.7036 105.799 48.7024 105.76 48.7101C105.725 48.7101 105.691 48.7171 105.658 48.7308C105.626 48.7445 105.597 48.7645 105.573 48.7897C105.548 48.8149 105.53 48.8448 105.517 48.8775C105.505 48.9102 105.499 48.9451 105.5 48.9801Z" fill="#FFEFCA"/>
<path d="M62.9492 116.77C62.9492 120.03 67.5392 122.68 73.1892 122.68C78.8392 122.68 83.4192 120.03 83.4192 116.77C83.4192 113.51 78.8392 110.86 73.1892 110.86C67.5392 110.86 62.9492 113.54 62.9492 116.77Z" fill="#81B2FC"/>
<path d="M75.9964 120.214C82.717 118.518 86.7906 111.696 85.095 104.975C83.3994 98.2544 76.5768 94.1808 69.8562 95.8764C63.1356 97.572 59.062 104.395 60.7576 111.115C62.4532 117.836 69.2758 121.909 75.9964 120.214Z" fill="#E1EDFF"/>
<path d="M72.9195 120.21C79.6298 120.21 85.0695 114.77 85.0695 108.06C85.0695 101.35 79.6298 95.9102 72.9195 95.9102C66.2093 95.9102 60.7695 101.35 60.7695 108.06C60.7695 114.77 66.2093 120.21 72.9195 120.21Z" fill="#B1D0FE"/>
<path d="M60.4492 108.06C60.4512 105.594 61.1842 103.184 62.5556 101.135C63.9271 99.0855 65.8753 97.4888 68.1541 96.5465C70.4329 95.6042 72.9398 95.3586 75.3581 95.8409C77.7764 96.3232 79.9974 97.5117 81.7404 99.256C83.4833 101 84.67 103.222 85.1503 105.641C85.6307 108.06 85.3832 110.566 84.439 112.844C83.4949 115.122 81.8966 117.069 79.8461 118.439C77.7957 119.809 75.3851 120.54 72.9192 120.54C69.611 120.537 66.4393 119.221 64.101 116.881C61.7627 114.541 60.4492 111.368 60.4492 108.06ZM61.0892 108.06C61.0892 110.4 61.783 112.687 63.0829 114.633C64.3828 116.578 66.2304 118.094 68.3921 118.99C70.5537 119.885 72.9323 120.119 75.2271 119.663C77.5219 119.206 79.6298 118.08 81.2843 116.425C82.9387 114.771 84.0654 112.663 84.5219 110.368C84.9784 108.073 84.7441 105.695 83.8487 103.533C82.9533 101.371 81.4371 99.5237 79.4916 98.2238C77.5462 96.9239 75.259 96.2301 72.9192 96.2301C69.7885 96.2433 66.7903 97.4949 64.5794 99.7114C62.3684 101.928 61.1245 104.929 61.1192 108.06H61.0892Z" fill="#E1EDFF"/>
<path d="M62.7206 112.25C63.5495 114.305 64.9797 116.062 66.8239 117.29C68.6681 118.518 70.8404 119.161 73.0561 119.134C75.2718 119.107 77.4276 118.412 79.2413 117.139C81.055 115.866 82.442 114.074 83.2206 112C83.6906 110.78 62.1906 110.96 62.7206 112.25Z" fill="#FFDA23"/>
<path d="M62.4197 112.37C62.3815 112.27 62.3785 112.16 62.4112 112.058C62.4439 111.957 62.5104 111.869 62.5996 111.81C64.0396 110.69 81.8697 110.49 83.3397 111.58C83.4251 111.635 83.4894 111.717 83.5221 111.814C83.5548 111.91 83.5539 112.014 83.5196 112.11C82.7075 114.234 81.2759 116.065 79.4105 117.366C77.5451 118.667 75.332 119.378 73.0579 119.406C70.7839 119.434 68.5539 118.778 66.6571 117.523C64.7602 116.269 63.2839 114.474 62.4197 112.37ZM63.0696 112.26C63.9017 114.208 65.293 115.866 67.0674 117.024C68.8418 118.181 70.9197 118.787 73.0382 118.763C75.1567 118.74 77.2206 118.088 78.9688 116.891C80.7171 115.695 82.0711 114.006 82.8596 112.04C81.1196 111.15 64.7297 111.34 63.1197 112.26H63.0696Z" fill="#E1EDFF"/>
<path d="M62.3896 110.69C62.3896 112.24 63.3897 113.8 65.4697 114.99C67.7792 116.159 70.3312 116.768 72.9196 116.768C75.508 116.768 78.0601 116.159 80.3696 114.99C82.4196 113.8 83.4496 112.25 83.4496 110.69C83.4496 109.13 82.4496 107.58 80.3696 106.39C78.0615 105.217 75.5089 104.605 72.9196 104.605C70.3304 104.605 67.7778 105.217 65.4697 106.39C63.4197 107.54 62.3896 109.13 62.3896 110.69Z" fill="#FFE53E"/>
<path d="M62.9698 100.81H62.8298C62.333 100.796 61.8472 100.959 61.4598 101.27C61.3535 101.349 61.2532 101.436 61.1598 101.53C60.945 101.739 60.7719 101.986 60.6498 102.26C60.414 102.659 60.3102 103.122 60.3533 103.584C60.3964 104.045 60.5842 104.481 60.8898 104.83C61.0017 104.945 61.1297 105.042 61.2698 105.12C61.7945 105.279 62.3579 105.254 62.8662 105.048C63.3745 104.842 63.797 104.469 64.0635 103.99C64.3299 103.51 64.4243 102.954 64.3309 102.414C64.2374 101.874 63.9617 101.382 63.5498 101.02L63.3198 100.91L62.9698 100.81Z" fill="#B1D0FE"/>
<path d="M61.2695 105.11C61.2695 105.11 62.0195 105.53 62.0795 105.55C62.2989 105.645 62.5355 105.694 62.7745 105.694C63.0136 105.694 63.2501 105.645 63.4695 105.55C63.7871 105.432 64.0741 105.244 64.3095 105C65.4595 103.88 65.4195 102 64.2595 101.38L63.5495 100.98C63.793 101.124 63.996 101.327 64.1395 101.57C64.3318 101.946 64.4244 102.365 64.4087 102.787C64.3929 103.209 64.2693 103.619 64.0495 103.98C63.8229 104.492 63.4064 104.896 62.8878 105.107C62.3692 105.317 61.789 105.319 61.2695 105.11Z" fill="#81B2FC"/>
<path d="M62.6398 105.7H62.5498C62.8184 105.831 63.1117 105.903 63.4104 105.913C63.7091 105.922 64.0063 105.867 64.2824 105.753C64.5584 105.638 64.807 105.467 65.0117 105.249C65.2165 105.031 65.3726 104.773 65.4698 104.49C65.7258 104.029 65.7895 103.486 65.6472 102.979C65.5049 102.471 65.168 102.04 64.7098 101.78C65.0543 102.278 65.2039 102.885 65.1302 103.486C65.0564 104.087 64.7645 104.64 64.3098 105.04C64.0984 105.268 63.8387 105.445 63.5497 105.56C63.2607 105.674 62.9498 105.722 62.6398 105.7Z" fill="#B1D0FE"/>
<path opacity="0.56" d="M66.1191 104.85C65.9567 105.257 65.6829 105.609 65.3291 105.868C64.9754 106.126 64.556 106.279 64.1191 106.31L65.7391 107.21C65.8788 107.283 66.0319 107.327 66.1891 107.34C66.5007 107.328 66.8061 107.25 67.0858 107.113C67.3656 106.975 67.6133 106.78 67.8131 106.541C68.0128 106.301 68.1602 106.023 68.2457 105.723C68.3311 105.423 68.3527 105.109 68.3091 104.8C68.289 104.566 68.2143 104.34 68.091 104.141C67.9677 103.941 67.7992 103.773 67.5991 103.65L66.0191 102.77C66.199 103.084 66.3019 103.436 66.3192 103.798C66.3366 104.16 66.2681 104.52 66.1191 104.85Z" fill="#EFF9FF"/>
<path d="M65.4697 104.48C65.3053 104.886 65.031 105.237 64.6776 105.495C64.3243 105.753 63.906 105.907 63.4697 105.94L65.0897 106.83C65.2311 106.899 65.3834 106.943 65.5397 106.96C65.8517 106.946 66.1573 106.868 66.4371 106.729C66.7168 106.59 66.9644 106.394 67.164 106.154C67.3637 105.914 67.5109 105.635 67.5963 105.335C67.6816 105.034 67.7032 104.719 67.6597 104.41C67.6396 104.176 67.5649 103.95 67.4416 103.751C67.3183 103.551 67.1498 103.383 66.9497 103.26L65.3697 102.39C65.552 102.705 65.6562 103.059 65.6736 103.423C65.691 103.787 65.6211 104.149 65.4697 104.48Z" fill="#69A4FC"/>
<path d="M103.12 85.7C102.49 85.7 97.6198 85.8 97.1198 85.82C96.6198 85.84 93.2199 86.02 92.7499 86.06C88.5099 86.37 83.3699 87.06 79.4399 88.59C76.8452 89.5263 74.603 91.2411 73.0198 93.5C72.271 94.6423 71.6284 95.8506 71.0999 97.11C71.0506 97.2476 71.0464 97.3973 71.0877 97.5375C71.1291 97.6777 71.2138 97.8011 71.3298 97.89C71.6587 98.1762 72.0435 98.3907 72.4598 98.52C73.3905 98.8267 74.3777 98.9224 75.3499 98.8C75.7309 98.7606 76.1009 98.6486 76.4399 98.47C76.5506 98.4206 76.6491 98.3476 76.7286 98.256C76.8081 98.1645 76.8665 98.0566 76.8998 97.94C77.0094 96.1036 77.7637 94.3647 79.0299 93.03C82.8399 89.19 92.0298 87.77 97.4198 87.17L102.33 86.73C102.559 86.7048 102.779 86.6206 102.966 86.4857C103.154 86.3508 103.303 86.1697 103.4 85.96C103.409 85.9163 103.403 85.871 103.383 85.8311C103.363 85.7913 103.33 85.7592 103.29 85.74C103.237 85.7125 103.179 85.6988 103.12 85.7Z" fill="#C9DEFE"/>
<path d="M91.5495 87.26C91.5495 87.26 83.4495 88.26 80.4495 90.5C76.8795 93.18 77.1196 94.3 76.5996 94.36C76.0796 94.42 74.9396 91.99 81.1196 89.43C84.4713 88.2003 87.9854 87.4692 91.5495 87.26Z" fill="white"/>
<path d="M76.9102 101.62C76.9102 101.62 80.0501 103.1 81.0201 105.4C81.9901 107.7 81.7301 107.89 81.0201 108.27C80.3101 108.65 79.6102 106.37 79.2802 104.64C78.9502 102.91 76.9102 101.62 76.9102 101.62Z" fill="white"/>
<path d="M67.2793 104.23C67.2793 104.23 67.7993 104.87 67.3693 104.71C66.9393 104.55 65.8993 103.99 65.8993 103.99C65.8993 103.99 65.5993 103.67 65.9893 103.71C66.4403 103.826 66.8741 104 67.2793 104.23Z" fill="white"/>
<path d="M62.5498 101.09C62.7975 101.106 63.0362 101.188 63.2406 101.329C63.4449 101.47 63.6071 101.664 63.7098 101.89C64.0998 102.7 63.7098 103.58 63.4698 103.48C63.2298 103.38 63.6598 102.21 63.3398 101.77C63.127 101.49 62.8578 101.259 62.5498 101.09Z" fill="white"/>
<path d="M101.12 104.07C100.005 103.516 98.7758 103.234 97.5315 103.246C96.2871 103.258 95.0632 103.564 93.9599 104.14C92.0099 105.31 92.0499 107.14 94.0599 108.29C95.1736 108.846 96.4035 109.13 97.6483 109.118C98.8931 109.105 100.117 108.798 101.22 108.22C103.19 107.05 103.12 105.2 101.12 104.07Z" fill="#69A4FC"/>
<path d="M98.5992 104.8C98.2809 104.635 97.9276 104.549 97.5692 104.549C97.2107 104.549 96.8575 104.635 96.5392 104.8C95.9692 105.14 95.9892 105.69 96.5392 106.02C96.8645 106.185 97.2243 106.271 97.5892 106.271C97.954 106.271 98.3138 106.185 98.6391 106.02C99.2491 105.67 99.1892 105.13 98.5992 104.8Z" fill="#69A4FC"/>
<path d="M99.7295 97.3099C99.5921 97.141 99.422 97.0016 99.2295 96.8999L102.229 101.12C102.772 101.409 103.251 101.804 103.639 102.28L99.7295 97.3099Z" fill="#69A4FC"/>
<path d="M91.5293 102.31C91.888 101.87 92.3255 101.5 92.8193 101.22C94.2734 100.46 95.8866 100.055 97.5273 100.037C99.1679 100.02 100.789 100.391 102.259 101.12L99.2593 96.9C98.7413 96.6389 98.1694 96.5029 97.5893 96.5029C97.0092 96.5029 96.4372 96.6389 95.9193 96.9C95.7482 97.0035 95.5961 97.1354 95.4693 97.29L91.5293 102.31Z" fill="#69A4FC"/>
<path d="M103.67 102.28C103.281 101.804 102.802 101.41 102.26 101.12C102.76 101.83 102.14 103.47 101.14 104.12C103.14 105.25 103.19 107.12 101.24 108.27C100.137 108.848 98.9133 109.156 97.6685 109.168C96.4237 109.18 95.1937 108.896 94.08 108.34C92.08 107.22 92.08 105.34 93.98 104.19C95.0834 103.615 96.3073 103.308 97.5516 103.296C98.796 103.284 100.026 103.566 101.14 104.12C102.14 103.52 102.76 101.88 102.26 101.12C100.79 100.391 99.1687 100.02 97.528 100.037C95.8874 100.055 94.2741 100.46 92.82 101.22C92.3262 101.5 91.8887 101.87 91.53 102.31C91.2183 102.688 90.9845 103.124 90.8421 103.592C90.6996 104.061 90.6513 104.553 90.7 105.04C90.7317 105.34 90.7988 105.636 90.9 105.92C90.9782 106.132 91.0753 106.336 91.19 106.53C91.277 106.691 91.3774 106.845 91.49 106.99C91.667 107.224 91.8681 107.438 92.09 107.63C92.3105 107.833 92.548 108.017 92.8 108.18C93.0594 108.348 93.33 108.499 93.61 108.63C93.8902 108.759 94.1773 108.873 94.47 108.97C94.7642 109.073 95.0649 109.156 95.37 109.22C95.981 109.359 96.6038 109.439 97.23 109.46C97.8554 109.48 98.4813 109.443 99.1 109.35C99.4135 109.31 99.7242 109.25 100.03 109.17C100.335 109.096 100.635 109.006 100.93 108.9L101.4 108.71C101.64 108.6 101.96 108.43 102.19 108.3C102.532 108.103 102.851 107.869 103.14 107.6C103.468 107.313 103.748 106.975 103.97 106.6C104.178 106.255 104.333 105.881 104.43 105.49C104.484 105.277 104.517 105.059 104.53 104.84C104.545 104.64 104.545 104.44 104.53 104.24C104.499 103.939 104.429 103.643 104.32 103.36C104.259 103.195 104.185 103.034 104.1 102.88C103.972 102.67 103.828 102.469 103.67 102.28Z" fill="#69A4FC"/>
<path d="M102.19 108.3C102.753 107.978 103.252 107.554 103.66 107.05C104.038 106.582 104.308 106.035 104.45 105.45C104.45 105.27 104.51 105.03 104.53 104.85C104.55 104.67 104.53 104.62 104.53 104.52C104.531 104.318 104.508 104.116 104.46 103.92C104.396 103.619 104.295 103.327 104.16 103.05C104.11 102.95 104.05 102.83 103.99 102.73C103.93 102.63 103.77 102.41 103.67 102.28C104.79 103.68 104.37 105.4 102.39 106.58C100.936 107.34 99.3223 107.745 97.6817 107.763C96.041 107.78 94.4195 107.409 92.9497 106.68C90.8797 105.52 90.3997 103.76 91.5297 102.31C91.3813 102.507 91.2476 102.714 91.1297 102.93C91.007 103.145 90.9097 103.373 90.8397 103.61C90.6879 104.088 90.6401 104.592 90.6997 105.09C90.7521 105.515 90.8772 105.928 91.0697 106.31C91.2989 106.773 91.6107 107.189 91.9897 107.54C92.343 107.878 92.7398 108.167 93.1697 108.4C93.4327 108.544 93.703 108.674 93.9797 108.79C94.2836 108.914 94.5941 109.02 94.9097 109.11C95.1797 109.18 95.5397 109.26 95.8097 109.31C96.3297 109.4 96.7597 109.43 96.7597 109.43C97.2292 109.46 97.7001 109.46 98.1697 109.43C98.1697 109.43 98.5897 109.43 99.0997 109.33C100.189 109.199 101.24 108.849 102.19 108.3Z" fill="#99C1FD"/>
<path d="M102.5 106.78C101.011 107.554 99.3605 107.967 97.6821 107.985C96.0037 108.002 94.3449 107.623 92.8401 106.88C91.9967 106.44 91.3193 105.738 90.9102 104.88C90.9102 104.88 90.9102 104.99 90.9102 105.04C90.9522 105.434 91.0675 105.818 91.2502 106.17C91.4665 106.612 91.7613 107.012 92.1201 107.35C92.461 107.669 92.8406 107.945 93.2502 108.17C93.506 108.311 93.7698 108.438 94.0402 108.55C94.3327 108.674 94.6334 108.777 94.9402 108.86C95.2002 108.93 95.5601 109.01 95.8301 109.06C96.3301 109.15 96.7502 109.18 96.7502 109.18C97.2128 109.215 97.6775 109.215 98.1401 109.18C98.1401 109.18 98.5601 109.18 99.0501 109.09C100.107 108.962 101.128 108.622 102.05 108.09C102.588 107.777 103.065 107.371 103.46 106.89C103.824 106.452 104.081 105.935 104.21 105.38C104.248 105.205 104.271 105.028 104.28 104.85C103.913 105.67 103.288 106.347 102.5 106.78Z" fill="#B1D0FE"/>
<path d="M95.2193 97.8899C95.233 97.6789 95.3022 97.4754 95.4198 97.2998C95.5375 97.1242 95.6994 96.9828 95.8893 96.8899C96.4072 96.6288 96.9792 96.4928 97.5593 96.4928C98.1393 96.4928 98.7113 96.6288 99.2293 96.8899V91.5899C98.7095 91.3287 98.1359 91.1926 97.5543 91.1926C96.9726 91.1926 96.399 91.3287 95.8793 91.5899C95.6887 91.6807 95.5265 91.8218 95.4102 91.9981C95.2939 92.1743 95.2279 92.3789 95.2193 92.5899C95.2193 94.1799 95.2093 96.2999 95.2193 97.8899Z" fill="#69A4FC"/>
<path d="M96.1701 92.7599C96.1701 96.9799 96.1535 101.2 96.1201 105.42C96.1311 105.292 96.1757 105.169 96.2494 105.063C96.3232 104.958 96.4235 104.874 96.5401 104.82C96.8584 104.655 97.2117 104.569 97.5701 104.569C97.9286 104.569 98.2818 104.655 98.6001 104.82V92.1699C98.2883 92.0194 97.9464 91.9412 97.6001 91.9412C97.2538 91.9412 96.912 92.0194 96.6001 92.1699C96.4811 92.2192 96.378 92.3003 96.3021 92.4044C96.2263 92.5085 96.1806 92.6315 96.1701 92.7599Z" fill="#5195FB"/>
<path d="M99.1199 105.41L99.0099 92.7499C99.0078 92.6272 98.9709 92.5077 98.9037 92.405C98.8364 92.3024 98.7415 92.2209 98.6299 92.1699V104.8C98.8999 104.97 99.1199 105.19 99.1199 105.41Z" fill="#5195FB"/>
<path d="M98.9794 92.75C98.9692 92.8719 98.9269 92.989 98.8566 93.0892C98.7863 93.1893 98.6906 93.269 98.5794 93.32C98.271 93.482 97.9278 93.5667 97.5794 93.5667C97.231 93.5667 96.8878 93.482 96.5794 93.32C96.4643 93.2692 96.3647 93.1887 96.2909 93.0868C96.2171 92.9849 96.1717 92.8652 96.1594 92.74C96.1594 96.96 96.1427 101.18 96.1094 105.4C96.1228 105.534 96.1715 105.662 96.2505 105.771C96.3296 105.88 96.4362 105.966 96.5594 106.02C96.8848 106.185 97.2445 106.271 97.6094 106.271C97.9743 106.271 98.334 106.185 98.6594 106.02C98.7788 105.967 98.8811 105.882 98.9552 105.774C99.0293 105.666 99.0723 105.54 99.0794 105.41C99.0594 101.61 99.0094 96.54 98.9794 92.75Z" fill="#69A4FC"/>
<path d="M92.9493 106.68C94.4191 107.409 96.0406 107.78 97.6813 107.763C99.322 107.745 100.935 107.34 102.389 106.58C104.389 105.4 104.779 103.68 103.669 102.28L99.7293 97.28C100.129 97.78 99.9793 98.39 99.2793 98.81C98.7613 99.0711 98.1893 99.2071 97.6093 99.2071C97.0292 99.2071 96.4573 99.0711 95.9393 98.81C95.7401 98.724 95.5679 98.5856 95.4411 98.4095C95.3143 98.2334 95.2377 98.0262 95.2193 97.81C95.2193 97.71 95.2193 97.61 95.2193 97.51L91.5293 102.23C90.3993 103.76 90.8793 105.54 92.9493 106.68Z" fill="#B1D0FE"/>
<path d="M99.9395 92.54C99.9231 92.3246 99.8483 92.1177 99.7233 91.9415C99.5982 91.7654 99.4275 91.6266 99.2295 91.54V96.84C99.4275 96.9266 99.5982 97.0654 99.7233 97.2415C99.8483 97.4177 99.9231 97.6246 99.9395 97.84C99.9395 96.29 99.9495 94.17 99.9395 92.54Z" fill="#69A4FC"/>
<path d="M99.9397 97.88V92.54C99.926 92.751 99.8568 92.9545 99.7392 93.1301C99.6215 93.3057 99.4596 93.4471 99.2697 93.54C98.7517 93.8011 98.1798 93.9372 97.5997 93.9372C97.0197 93.9372 96.4477 93.8011 95.9297 93.54C95.7304 93.4554 95.5585 93.3171 95.4332 93.1405C95.3078 92.964 95.2339 92.7561 95.2197 92.54V97.84C95.2392 98.0559 95.3162 98.2626 95.4429 98.4386C95.5696 98.6145 95.7411 98.7531 95.9397 98.84C96.4577 99.1011 97.0297 99.2372 97.6097 99.2372C98.1898 99.2372 98.7618 99.1011 99.2797 98.84C99.4646 98.7524 99.6231 98.6175 99.739 98.4489C99.8549 98.2803 99.9242 98.084 99.9397 97.88Z" fill="#99C1FD"/>
<path d="M95.8293 99.0598C95.597 98.9583 95.3964 98.7961 95.2486 98.5902C95.1008 98.3843 95.0112 98.1424 94.9893 97.8898V92.5898H95.4393C95.4635 92.7606 95.5316 92.9221 95.6367 93.0588C95.7418 93.1954 95.8805 93.3026 96.0393 93.3698C96.5205 93.6164 97.0535 93.745 97.5943 93.745C98.135 93.745 98.668 93.6164 99.1493 93.3698C99.2998 93.3004 99.4308 93.1945 99.5303 93.0619C99.6298 92.9292 99.6947 92.7738 99.7193 92.6098H100.169V97.9098C100.152 98.1518 100.071 98.385 99.9363 98.5866C99.8013 98.7882 99.6163 98.9513 99.3993 99.0598C98.8477 99.3456 98.2355 99.4948 97.6143 99.4948C96.993 99.4948 96.3809 99.3456 95.8293 99.0598ZM99.3793 93.7298C98.8294 94.0156 98.2189 94.1648 97.5993 94.1648C96.9796 94.1648 96.3691 94.0156 95.8193 93.7298C95.6821 93.6597 95.5544 93.5723 95.4393 93.4698V97.8598C95.4645 98.0316 95.534 98.1939 95.6409 98.3306C95.7479 98.4674 95.8886 98.574 96.0493 98.6398C96.5323 98.8865 97.0669 99.0151 97.6093 99.0151C98.1516 99.0151 98.6862 98.8865 99.1693 98.6398C99.3161 98.5678 99.443 98.4608 99.5389 98.3283C99.6348 98.1958 99.6967 98.0418 99.7193 97.8798V93.4798C99.6138 93.5734 99.5 93.6571 99.3793 93.7298Z" fill="#B1D0FE"/>
<path d="M99.5799 93.71C98.9618 94.03 98.2759 94.1971 97.5799 94.1971C96.8838 94.1971 96.198 94.03 95.5799 93.71C94.4699 93.09 94.4499 92.06 95.5299 91.42C96.1411 91.1067 96.8181 90.9434 97.5049 90.9434C98.1917 90.9434 98.8686 91.1067 99.4798 91.42C100.63 92.04 100.66 93.07 99.5799 93.71ZM95.8799 91.63C94.9699 92.18 94.9899 93.04 95.9299 93.57C96.4478 93.8311 97.0198 93.9671 97.5999 93.9671C98.1799 93.9671 98.7519 93.8311 99.2699 93.57C100.18 93.02 100.16 92.16 99.2699 91.63C98.745 91.3622 98.1641 91.2226 97.5748 91.2226C96.9856 91.2226 96.4048 91.3622 95.8799 91.63Z" fill="#69A4FC"/>
<path d="M101.12 92C101.122 91.6441 101.018 91.2958 100.82 91C100.585 90.6643 100.273 90.39 99.91 90.2C99.9619 90.2344 100.003 90.2825 100.03 90.3389C100.056 90.3954 100.067 90.458 100.06 90.52C100.05 90.6913 100 90.8579 99.9151 91.007C99.8302 91.1561 99.7121 91.2837 99.57 91.38C100.68 92 100.71 93.03 99.63 93.67C99.0119 93.99 98.326 94.157 97.63 94.157C96.934 94.157 96.2481 93.99 95.63 93.67C94.52 93.05 94.5 92.02 95.58 91.38C96.1912 91.0667 96.8682 90.9033 97.555 90.9033C98.2418 90.9033 98.9188 91.0667 99.53 91.38C99.6721 91.2837 99.7902 91.1561 99.8751 91.007C99.9601 90.8579 100.01 90.6913 100.02 90.52C100.027 90.458 100.016 90.3954 99.9898 90.3389C99.9634 90.2825 99.9219 90.2344 99.87 90.2C99.3013 89.8945 98.674 89.7138 98.03 89.67C97.621 89.6282 97.2089 89.6282 96.8 89.67C96.4758 89.7168 96.1575 89.7972 95.85 89.91C95.5443 90.0161 95.2549 90.1641 94.99 90.35C94.7617 90.5162 94.5623 90.7189 94.4 90.95C94.2244 91.1706 94.1067 91.4317 94.0578 91.7094C94.0089 91.9871 94.0303 92.2726 94.12 92.54C94.3053 93.0431 94.6585 93.4669 95.12 93.74C95.2501 93.8248 95.3873 93.8984 95.53 93.96C95.6722 94.0275 95.8193 94.0844 95.97 94.13C96.121 94.1812 96.2745 94.2246 96.43 94.26C96.6676 94.3106 96.908 94.3474 97.15 94.37C97.5554 94.4149 97.9645 94.4149 98.37 94.37C98.6939 94.3219 99.0121 94.2415 99.32 94.13C99.6367 94.0146 99.9361 93.8564 100.21 93.66C100.461 93.4791 100.675 93.2517 100.84 92.99C101.032 92.6963 101.13 92.3508 101.12 92Z" fill="#69A4FC"/>
<path d="M94.8194 91.54C95.8194 91.54 96.1094 92.04 96.1694 92.82C96.1712 92.6909 96.2099 92.5649 96.2807 92.4569C96.3515 92.3488 96.4517 92.2632 96.5694 92.21C96.8813 92.0595 97.2231 91.9813 97.5694 91.9813C97.9157 91.9813 98.2576 92.0595 98.5694 92.21C98.533 91.8468 98.5966 91.4805 98.7535 91.1509C98.9104 90.8212 99.1545 90.5408 99.4594 90.34C98.8573 90.032 98.1907 89.8713 97.5144 89.8713C96.8381 89.8713 96.1715 90.032 95.5694 90.34C95.3426 90.4473 95.1514 90.6173 95.0184 90.8301C94.8855 91.0428 94.8164 91.2892 94.8194 91.54Z" fill="#81B2FC"/>
<path d="M98.9798 92.79C99.0298 92.01 99.3598 91.48 100.32 91.5C100.313 91.2409 100.232 90.9893 100.084 90.7761C99.9366 90.5629 99.7301 90.3974 99.4898 90.3C99.1849 90.5008 98.9408 90.7812 98.7839 91.1109C98.627 91.4405 98.5634 91.8068 98.5998 92.17C98.7178 92.2237 98.8169 92.3115 98.8846 92.4219C98.9523 92.5324 98.9855 92.6606 98.9798 92.79Z" fill="#81B2FC"/>
<path d="M98.8893 92.4501C98.7179 92.5575 98.528 92.6321 98.3293 92.6701C98.0906 92.7299 97.8454 92.7601 97.5993 92.7601H97.1193C96.9737 92.742 96.8299 92.7119 96.6893 92.6701C96.4441 92.6142 96.2171 92.4973 96.0293 92.3301C96.097 92.4849 96.1343 92.6512 96.1393 92.8201C96.159 92.9379 96.2077 93.0489 96.2811 93.1431C96.3544 93.2374 96.45 93.312 96.5593 93.3601C96.8677 93.5221 97.2109 93.6068 97.5593 93.6068C97.9077 93.6068 98.2509 93.5221 98.5593 93.3601C98.6626 93.309 98.7526 93.2345 98.8221 93.1425C98.8915 93.0504 98.9385 92.9435 98.9593 92.8301C98.9613 92.6608 98.9988 92.4939 99.0693 92.3401C99.0134 92.383 98.953 92.4199 98.8893 92.4501Z" fill="#69A4FC"/>
<path d="M98.9793 92.79C98.9843 92.6211 99.0216 92.4548 99.0893 92.3C98.663 92.6253 98.1348 92.7883 97.5993 92.76C97.047 92.8165 96.4944 92.655 96.0593 92.31C96.124 92.4658 96.1612 92.6315 96.1693 92.8C96.1093 92.02 95.7793 91.49 94.8193 91.52C94.8585 91.7531 94.9548 91.9728 95.0996 92.1595C95.2445 92.3462 95.4333 92.4941 95.6493 92.59C96.2521 92.8957 96.9185 93.055 97.5943 93.055C98.2702 93.055 98.9366 92.8957 99.5393 92.59C99.7455 92.4924 99.9245 92.3456 100.061 92.1625C100.197 91.9794 100.285 91.7656 100.319 91.54C99.3593 91.48 99.0293 92.01 98.9793 92.79Z" fill="#81B2FC"/>
<path d="M99.5792 92.54C98.9604 92.8576 98.2748 93.0233 97.5792 93.0233C96.8836 93.0233 96.1981 92.8576 95.5792 92.54C94.4692 91.92 94.4492 90.89 95.5192 90.25C96.1373 89.93 96.8232 89.7629 97.5192 89.7629C98.2153 89.7629 98.9011 89.93 99.5192 90.25C100.629 90.9 100.649 91.93 99.5792 92.54ZM95.5792 90.31C94.5192 90.94 94.5792 91.95 95.5792 92.56C96.182 92.8657 96.8484 93.025 97.5242 93.025C98.2001 93.025 98.8665 92.8657 99.4692 92.56C100.529 91.93 100.469 90.92 99.4192 90.31C98.8239 90.018 98.1687 89.8688 97.5057 89.874C96.8426 89.8792 96.1899 90.0387 95.5992 90.34L95.5792 90.31Z" fill="#69A4FC"/>
<path d="M99.9396 93.7399C100.266 93.5475 100.549 93.2886 100.77 92.98C100.965 92.6828 101.069 92.3353 101.07 91.98C101.047 91.6043 100.922 91.2419 100.709 90.9318C100.496 90.6217 100.202 90.3756 99.8596 90.22C99.8083 90.1891 99.7495 90.1728 99.6896 90.1728C99.6297 90.1728 99.5709 90.1891 99.5196 90.22C100.63 90.84 100.65 91.87 99.5796 92.51C98.9608 92.8276 98.2752 92.9932 97.5796 92.9932C96.884 92.9932 96.1984 92.8276 95.5796 92.51C94.4696 91.89 94.4496 90.86 95.5196 90.22C96.1377 89.8999 96.8236 89.7329 97.5196 89.7329C98.2156 89.7329 98.9015 89.8999 99.5196 90.22C99.5709 90.1891 99.6297 90.1728 99.6896 90.1728C99.7495 90.1728 99.8083 90.1891 99.8596 90.22L99.6696 90.12L99.4296 90.01C99.2057 89.9214 98.9749 89.8512 98.7396 89.8C98.3396 89.7078 97.93 89.6641 97.5196 89.6699C97.1153 89.6754 96.7128 89.7257 96.3196 89.8199C95.941 89.9111 95.5773 90.0559 95.2396 90.2499C94.9579 90.392 94.7113 90.5949 94.5176 90.844C94.3239 91.093 94.188 91.382 94.1196 91.69C94.0589 92.0006 94.0831 92.3219 94.1896 92.62C94.2997 92.8976 94.4705 93.147 94.6896 93.3499C95.3692 93.9516 96.2331 94.3042 97.1396 94.3499C98.1131 94.4333 99.089 94.2207 99.9396 93.7399Z" fill="#B1D0FE"/>
<path opacity="0.67" d="M91.4001 105.54C92.0161 106.611 92.9248 107.483 94.0195 108.055C95.1142 108.628 96.3494 108.875 97.5801 108.77C101.46 108.48 103.15 107.19 103.69 105.43C103.837 104.746 103.808 104.035 103.605 103.365C103.402 102.695 103.032 102.088 102.53 101.6C102.629 101.823 102.681 102.065 102.68 102.31C102.68 103.9 100.44 105.19 97.6801 105.19C94.9201 105.19 92.6801 103.9 92.6801 102.31C92.6852 102.006 92.7642 101.707 92.9102 101.44C92.8402 101.54 90.5201 103.72 91.4001 105.54Z" fill="#E84343"/>
<g opacity="0.67">
<path d="M92.6699 102.35C92.6699 103.94 94.9099 105.23 97.6699 105.23C100.43 105.23 102.67 103.94 102.67 102.35C102.67 102.105 102.619 101.863 102.52 101.64C101.97 100.39 100.01 99.46 97.6699 99.46C95.3299 99.46 93.5299 100.31 92.8899 101.46C92.7443 101.734 92.6687 102.04 92.6699 102.35Z" fill="#FF6666"/>
</g>
<path d="M100.619 100.54C100.619 100.54 103.279 104.05 103.159 104.54C103.039 105.03 103.309 105.42 102.679 104.93C102.049 104.44 100.619 100.54 100.619 100.54Z" fill="white"/>
</svg>
