<svg width="24" height="24" viewBox="0 0 24 24" fill="none" xmlns="http://www.w3.org/2000/svg">
<g clip-path="url(#clip0_2732_59523)">
<path d="M19.0312 14.1094C16.3172 14.1094 14.1094 16.3172 14.1094 19.0312C14.1094 21.7453 16.3172 24 19.0312 24C21.7453 24 24 21.7453 24 19.0312C24 16.3172 21.7453 14.1094 19.0312 14.1094ZM18.3281 21.4359L16.4297 19.5234L17.4141 18.539L18.3282 19.439L20.6485 17.1328L21.6329 18.1171L18.3281 21.4359Z" fill="#4B6A7E"/>
<path opacity="0.5" d="M19.0312 12.7031C19.6641 12.7031 20.2547 12.8296 20.8313 12.9984C21.014 12.2109 21.1406 11.4093 21.1406 10.5938C21.1406 4.77188 16.4156 0 10.5938 0C4.77188 0 0 4.77188 0 10.5938C0 16.4156 4.77188 21.1406 10.5938 21.1406C11.4094 21.1406 12.211 21.014 12.9985 20.8312C12.8297 20.2547 12.7031 19.6641 12.7031 19.0312C12.7031 15.5437 15.5438 12.7031 19.0312 12.7031ZM16.9219 9.89062H18.3281V11.2969H16.9219V9.89062ZM15.5718 4.63125L16.5562 5.61558L15.5718 6.61406L14.5734 5.61558L15.5718 4.63125ZM9.89062 2.85938H11.2969V4.26562H9.89062V2.85938ZM4.26562 11.2969H2.85938V9.89062H4.26562V11.2969ZM5.61567 16.5563L4.6313 15.5719L5.61567 14.5734L6.61406 15.5719L5.61567 16.5563ZM5.61567 6.61402L4.6313 5.61553L5.61567 4.6312L6.61406 5.61553L5.61567 6.61402ZM11.2969 18.3281H9.89062V16.9219H11.2969V18.3281ZM14.1094 11.2969H9.89062V5.67188H11.2969V9.89062H14.1094V11.2969Z" fill="#4B6A7E"/>
</g>
<defs>
<clipPath id="clip0_2732_59523">
<rect width="24" height="24" fill="white"/>
</clipPath>
</defs>
</svg>
