<svg width="18" height="14" viewBox="0 0 18 14" fill="none" xmlns="http://www.w3.org/2000/svg">
<g clip-path="url(#clip0_1514_13106)">
<path d="M0 9.25H18V13.75H0V9.25Z" fill="#1EB53A"/>
<path d="M0 0.25H18V4.75H0V0.25Z" fill="#0099B5"/>
<path d="M0 4.57031H18V9.43031H0V4.57031Z" fill="#CE1126"/>
<path d="M0 4.83984H18V9.15984H0V4.83984Z" fill="white"/>
<path d="M3.78016 4.03004C4.67486 4.03004 5.40016 3.30474 5.40016 2.41004C5.40016 1.51534 4.67486 0.790039 3.78016 0.790039C2.88545 0.790039 2.16016 1.51534 2.16016 2.41004C2.16016 3.30474 2.88545 4.03004 3.78016 4.03004Z" fill="white"/>
<path d="M4.3202 4.03004C5.2149 4.03004 5.9402 3.30474 5.9402 2.41004C5.9402 1.51534 5.2149 0.790039 4.3202 0.790039C3.42549 0.790039 2.7002 1.51534 2.7002 2.41004C2.7002 3.30474 3.42549 4.03004 4.3202 4.03004Z" fill="#0099B5"/>
<path d="M7.34381 3.38281L7.24121 3.69061L7.39781 3.74461" fill="white"/>
<path d="M7.34369 3.38281L7.44629 3.69061L7.28969 3.74461" fill="white"/>
<path d="M7.65182 3.60637L7.32738 3.6039L7.32442 3.76953" fill="white"/>
<path d="M7.65189 3.60652L7.39086 3.79922L7.29111 3.66697" fill="white"/>
<path d="M7.03561 3.60652L7.29664 3.79922L7.39639 3.66697" fill="white"/>
<path d="M7.03568 3.60637L7.36012 3.6039L7.36308 3.76953" fill="white"/>
<path d="M7.53418 3.96851L7.43627 3.65919L7.27783 3.70755" fill="white"/>
<path d="M7.53418 3.96899L7.27025 3.78028L7.3652 3.64455" fill="white"/>
<path d="M7.15332 3.96801L7.41725 3.7793L7.3223 3.64357" fill="white"/>
<path d="M7.15332 3.96753L7.25123 3.65821L7.40967 3.70657" fill="white"/>
<path d="M7.34381 3.38281L7.24121 3.69061L7.39781 3.74461" fill="white"/>
<path d="M7.34369 3.38281L7.44629 3.69061L7.28969 3.74461" fill="white"/>
<path d="M7.65182 3.60637L7.32738 3.6039L7.32442 3.76953" fill="white"/>
<path d="M7.65189 3.60652L7.39086 3.79922L7.29111 3.66697" fill="white"/>
<path d="M7.03561 3.60652L7.29664 3.79922L7.39639 3.66697" fill="white"/>
<path d="M7.03568 3.60637L7.36012 3.6039L7.36308 3.76953" fill="white"/>
<path d="M7.53418 3.96851L7.43627 3.65919L7.27783 3.70755" fill="white"/>
<path d="M7.53418 3.96899L7.27025 3.78028L7.3652 3.64455" fill="white"/>
<path d="M7.15332 3.96801L7.41725 3.7793L7.3223 3.64357" fill="white"/>
<path d="M7.15332 3.96753L7.25123 3.65821L7.40967 3.70657" fill="white"/>
<path d="M7.34381 3.38281L7.24121 3.69061L7.39781 3.74461" fill="white"/>
<path d="M7.34369 3.38281L7.44629 3.69061L7.28969 3.74461" fill="white"/>
<path d="M7.65182 3.60637L7.32738 3.6039L7.32442 3.76953" fill="white"/>
<path d="M7.65189 3.60652L7.39086 3.79922L7.29111 3.66697" fill="white"/>
<path d="M7.03561 3.60652L7.29664 3.79922L7.39639 3.66697" fill="white"/>
<path d="M7.03568 3.60637L7.36012 3.6039L7.36308 3.76953" fill="white"/>
<path d="M7.53418 3.96851L7.43627 3.65919L7.27783 3.70755" fill="white"/>
<path d="M7.53418 3.96899L7.27025 3.78028L7.3652 3.64455" fill="white"/>
<path d="M7.15332 3.96801L7.41725 3.7793L7.3223 3.64357" fill="white"/>
<path d="M7.15332 3.96753L7.25123 3.65821L7.40967 3.70657" fill="white"/>
<path d="M7.34381 3.38281L7.24121 3.69061L7.39781 3.74461" fill="white"/>
<path d="M7.34369 3.38281L7.44629 3.69061L7.28969 3.74461" fill="white"/>
<path d="M7.65182 3.60637L7.32738 3.6039L7.32442 3.76953" fill="white"/>
<path d="M7.65189 3.60652L7.39086 3.79922L7.29111 3.66697" fill="white"/>
<path d="M7.03561 3.60652L7.29664 3.79922L7.39639 3.66697" fill="white"/>
<path d="M7.03568 3.60637L7.36012 3.6039L7.36308 3.76953" fill="white"/>
<path d="M7.53418 3.96851L7.43627 3.65919L7.27783 3.70755" fill="white"/>
<path d="M7.53418 3.96899L7.27025 3.78028L7.3652 3.64455" fill="white"/>
<path d="M7.15332 3.96801L7.41725 3.7793L7.3223 3.64357" fill="white"/>
<path d="M7.15332 3.96753L7.25123 3.65821L7.40967 3.70657" fill="white"/>
<path d="M7.34381 3.38281L7.24121 3.69061L7.39781 3.74461" fill="white"/>
<path d="M7.34369 3.38281L7.44629 3.69061L7.28969 3.74461" fill="white"/>
<path d="M7.65182 3.60637L7.32738 3.6039L7.32442 3.76953" fill="white"/>
<path d="M7.65189 3.60652L7.39086 3.79922L7.29111 3.66697" fill="white"/>
<path d="M7.03561 3.60652L7.29664 3.79922L7.39639 3.66697" fill="white"/>
<path d="M7.03568 3.60637L7.36012 3.6039L7.36308 3.76953" fill="white"/>
<path d="M7.53418 3.96851L7.43627 3.65919L7.27783 3.70755" fill="white"/>
<path d="M7.53418 3.96899L7.27025 3.78028L7.3652 3.64455" fill="white"/>
<path d="M7.15332 3.96801L7.41725 3.7793L7.3223 3.64357" fill="white"/>
<path d="M7.15332 3.96753L7.25123 3.65821L7.40967 3.70657" fill="white"/>
<path d="M7.34381 3.38281L7.24121 3.69061L7.39781 3.74461" fill="white"/>
<path d="M7.34369 3.38281L7.44629 3.69061L7.28969 3.74461" fill="white"/>
<path d="M7.65182 3.60637L7.32738 3.6039L7.32442 3.76953" fill="white"/>
<path d="M7.65189 3.60652L7.39086 3.79922L7.29111 3.66697" fill="white"/>
<path d="M7.03561 3.60652L7.29664 3.79922L7.39639 3.66697" fill="white"/>
<path d="M7.03568 3.60637L7.36012 3.6039L7.36308 3.76953" fill="white"/>
<path d="M7.53418 3.96851L7.43627 3.65919L7.27783 3.70755" fill="white"/>
<path d="M7.53418 3.96899L7.27025 3.78028L7.3652 3.64455" fill="white"/>
<path d="M7.15332 3.96801L7.41725 3.7793L7.3223 3.64357" fill="white"/>
<path d="M7.15332 3.96753L7.25123 3.65821L7.40967 3.70657" fill="white"/>
<path d="M7.34381 3.38281L7.24121 3.69061L7.39781 3.74461" fill="white"/>
<path d="M7.34369 3.38281L7.44629 3.69061L7.28969 3.74461" fill="white"/>
<path d="M7.65182 3.60637L7.32738 3.6039L7.32442 3.76953" fill="white"/>
<path d="M7.65189 3.60652L7.39086 3.79922L7.29111 3.66697" fill="white"/>
<path d="M7.03561 3.60652L7.29664 3.79922L7.39639 3.66697" fill="white"/>
<path d="M7.03568 3.60637L7.36012 3.6039L7.36308 3.76953" fill="white"/>
<path d="M7.53418 3.96851L7.43627 3.65919L7.27783 3.70755" fill="white"/>
<path d="M7.53418 3.96899L7.27025 3.78028L7.3652 3.64455" fill="white"/>
<path d="M7.15332 3.96801L7.41725 3.7793L7.3223 3.64357" fill="white"/>
<path d="M7.15332 3.96753L7.25123 3.65821L7.40967 3.70657" fill="white"/>
<path d="M7.34381 3.38281L7.24121 3.69061L7.39781 3.74461" fill="white"/>
<path d="M7.34369 3.38281L7.44629 3.69061L7.28969 3.74461" fill="white"/>
<path d="M7.65182 3.60637L7.32738 3.6039L7.32442 3.76953" fill="white"/>
<path d="M7.65189 3.60652L7.39086 3.79922L7.29111 3.66697" fill="white"/>
<path d="M7.03561 3.60652L7.29664 3.79922L7.39639 3.66697" fill="white"/>
<path d="M7.03568 3.60637L7.36012 3.6039L7.36308 3.76953" fill="white"/>
<path d="M7.53418 3.96851L7.43627 3.65919L7.27783 3.70755" fill="white"/>
<path d="M7.53418 3.96899L7.27025 3.78028L7.3652 3.64455" fill="white"/>
<path d="M7.15332 3.96801L7.41725 3.7793L7.3223 3.64357" fill="white"/>
<path d="M7.15332 3.96753L7.25123 3.65821L7.40967 3.70657" fill="white"/>
<path d="M7.34381 3.38281L7.24121 3.69061L7.39781 3.74461" fill="white"/>
<path d="M7.34369 3.38281L7.44629 3.69061L7.28969 3.74461" fill="white"/>
<path d="M7.65182 3.60637L7.32738 3.6039L7.32442 3.76953" fill="white"/>
<path d="M7.65189 3.60652L7.39086 3.79922L7.29111 3.66697" fill="white"/>
<path d="M7.03561 3.60652L7.29664 3.79922L7.39639 3.66697" fill="white"/>
<path d="M7.03568 3.60637L7.36012 3.6039L7.36308 3.76953" fill="white"/>
<path d="M7.53418 3.96851L7.43627 3.65919L7.27783 3.70755" fill="white"/>
<path d="M7.53418 3.96899L7.27025 3.78028L7.3652 3.64455" fill="white"/>
<path d="M7.15332 3.96801L7.41725 3.7793L7.3223 3.64357" fill="white"/>
<path d="M7.15332 3.96753L7.25123 3.65821L7.40967 3.70657" fill="white"/>
<path d="M7.34381 3.38281L7.24121 3.69061L7.39781 3.74461" fill="white"/>
<path d="M7.34369 3.38281L7.44629 3.69061L7.28969 3.74461" fill="white"/>
<path d="M7.65182 3.60637L7.32738 3.6039L7.32442 3.76953" fill="white"/>
<path d="M7.65189 3.60652L7.39086 3.79922L7.29111 3.66697" fill="white"/>
<path d="M7.03561 3.60652L7.29664 3.79922L7.39639 3.66697" fill="white"/>
<path d="M7.03568 3.60637L7.36012 3.6039L7.36308 3.76953" fill="white"/>
<path d="M7.53418 3.96851L7.43627 3.65919L7.27783 3.70755" fill="white"/>
<path d="M7.53418 3.96899L7.27025 3.78028L7.3652 3.64455" fill="white"/>
<path d="M7.15332 3.96801L7.41725 3.7793L7.3223 3.64357" fill="white"/>
<path d="M7.15332 3.96753L7.25123 3.65821L7.40967 3.70657" fill="white"/>
<path d="M7.34381 3.38281L7.24121 3.69061L7.39781 3.74461" fill="white"/>
<path d="M7.34369 3.38281L7.44629 3.69061L7.28969 3.74461" fill="white"/>
<path d="M7.65182 3.60637L7.32738 3.6039L7.32442 3.76953" fill="white"/>
<path d="M7.65189 3.60652L7.39086 3.79922L7.29111 3.66697" fill="white"/>
<path d="M7.03561 3.60652L7.29664 3.79922L7.39639 3.66697" fill="white"/>
<path d="M7.03568 3.60637L7.36012 3.6039L7.36308 3.76953" fill="white"/>
<path d="M7.53418 3.96851L7.43627 3.65919L7.27783 3.70755" fill="white"/>
<path d="M7.53418 3.96899L7.27025 3.78028L7.3652 3.64455" fill="white"/>
<path d="M7.15332 3.96801L7.41725 3.7793L7.3223 3.64357" fill="white"/>
<path d="M7.15332 3.96753L7.25123 3.65821L7.40967 3.70657" fill="white"/>
<path d="M7.34381 3.38281L7.24121 3.69061L7.39781 3.74461" fill="white"/>
<path d="M7.34369 3.38281L7.44629 3.69061L7.28969 3.74461" fill="white"/>
<path d="M7.65182 3.60637L7.32738 3.6039L7.32442 3.76953" fill="white"/>
<path d="M7.65189 3.60652L7.39086 3.79922L7.29111 3.66697" fill="white"/>
<path d="M7.03561 3.60652L7.29664 3.79922L7.39639 3.66697" fill="white"/>
<path d="M7.03568 3.60637L7.36012 3.6039L7.36308 3.76953" fill="white"/>
<path d="M7.53418 3.96851L7.43627 3.65919L7.27783 3.70755" fill="white"/>
<path d="M7.53418 3.96899L7.27025 3.78028L7.3652 3.64455" fill="white"/>
<path d="M7.15332 3.96801L7.41725 3.7793L7.3223 3.64357" fill="white"/>
<path d="M7.15332 3.96753L7.25123 3.65821L7.40967 3.70657" fill="white"/>
</g>
<defs>
<clipPath id="clip0_1514_13106">
<rect y="0.25" width="18" height="13.5" rx="2" fill="white"/>
</clipPath>
</defs>
</svg>
