<svg width="20" height="16" viewBox="0 0 20 16" fill="none" xmlns="http://www.w3.org/2000/svg">
<g clip-path="url(#clip0_2022_44674)">
<path d="M0 10.5H20V15.5H0V10.5Z" fill="#1EB53A"/>
<path d="M0 0.5H20V5.5H0V0.5Z" fill="#0099B5"/>
<path d="M0 5.30005H20V10.7H0V5.30005Z" fill="#CE1126"/>
<path d="M0 5.59998H20V10.4H0V5.59998Z" fill="white"/>
<path d="M4.20039 4.69998C5.1945 4.69998 6.00039 3.89409 6.00039 2.89998C6.00039 1.90586 5.1945 1.09998 4.20039 1.09998C3.20628 1.09998 2.40039 1.90586 2.40039 2.89998C2.40039 3.89409 3.20628 4.69998 4.20039 4.69998Z" fill="white"/>
<path d="M4.8 4.69998C5.79411 4.69998 6.6 3.89409 6.6 2.89998C6.6 1.90586 5.79411 1.09998 4.8 1.09998C3.80589 1.09998 3 1.90586 3 2.89998C3 3.89409 3.80589 4.69998 4.8 4.69998Z" fill="#0099B5"/>
<path d="M8.15892 3.98047L8.04492 4.32247L8.21892 4.38247" fill="white"/>
<path d="M8.15944 3.98047L8.27344 4.32247L8.09944 4.38247" fill="white"/>
<path d="M8.50105 4.22927L8.14056 4.22653L8.13726 4.41056" fill="white"/>
<path d="M8.5009 4.22947L8.21087 4.44357L8.10004 4.29663" fill="white"/>
<path d="M7.81648 4.2291L8.10651 4.44321L8.21734 4.29627" fill="white"/>
<path d="M7.81633 4.2289L8.17682 4.22617L8.18012 4.41019" fill="white"/>
<path d="M8.37066 4.63158L8.26187 4.28789L8.08583 4.34163" fill="white"/>
<path d="M8.37055 4.6316L8.0773 4.42192L8.1828 4.27111" fill="white"/>
<path d="M7.94781 4.63148L8.24106 4.4218L8.13556 4.27099" fill="white"/>
<path d="M7.9477 4.63146L8.05649 4.28777L8.23253 4.3415" fill="white"/>
<path d="M8.15892 3.98047L8.04492 4.32247L8.21892 4.38247" fill="white"/>
<path d="M8.15944 3.98047L8.27344 4.32247L8.09944 4.38247" fill="white"/>
<path d="M8.50105 4.22927L8.14056 4.22653L8.13726 4.41056" fill="white"/>
<path d="M8.5009 4.22947L8.21087 4.44357L8.10004 4.29663" fill="white"/>
<path d="M7.81648 4.2291L8.10651 4.44321L8.21734 4.29627" fill="white"/>
<path d="M7.81633 4.2289L8.17682 4.22617L8.18012 4.41019" fill="white"/>
<path d="M8.37066 4.63158L8.26187 4.28789L8.08583 4.34163" fill="white"/>
<path d="M8.37055 4.6316L8.0773 4.42192L8.1828 4.27111" fill="white"/>
<path d="M7.94781 4.63148L8.24106 4.4218L8.13556 4.27099" fill="white"/>
<path d="M7.9477 4.63146L8.05649 4.28777L8.23253 4.3415" fill="white"/>
<path d="M8.15892 3.98047L8.04492 4.32247L8.21892 4.38247" fill="white"/>
<path d="M8.15944 3.98047L8.27344 4.32247L8.09944 4.38247" fill="white"/>
<path d="M8.50105 4.22927L8.14056 4.22653L8.13726 4.41056" fill="white"/>
<path d="M8.5009 4.22947L8.21087 4.44357L8.10004 4.29663" fill="white"/>
<path d="M7.81648 4.2291L8.10651 4.44321L8.21734 4.29627" fill="white"/>
<path d="M7.81633 4.2289L8.17682 4.22617L8.18012 4.41019" fill="white"/>
<path d="M8.37066 4.63158L8.26187 4.28789L8.08583 4.34163" fill="white"/>
<path d="M8.37055 4.6316L8.0773 4.42192L8.1828 4.27111" fill="white"/>
<path d="M7.94781 4.63148L8.24106 4.4218L8.13556 4.27099" fill="white"/>
<path d="M7.9477 4.63146L8.05649 4.28777L8.23253 4.3415" fill="white"/>
<path d="M8.15892 3.98047L8.04492 4.32247L8.21892 4.38247" fill="white"/>
<path d="M8.15944 3.98047L8.27344 4.32247L8.09944 4.38247" fill="white"/>
<path d="M8.50105 4.22927L8.14056 4.22653L8.13726 4.41056" fill="white"/>
<path d="M8.5009 4.22947L8.21087 4.44357L8.10004 4.29663" fill="white"/>
<path d="M7.81648 4.2291L8.10651 4.44321L8.21734 4.29627" fill="white"/>
<path d="M7.81633 4.2289L8.17682 4.22617L8.18012 4.41019" fill="white"/>
<path d="M8.37066 4.63158L8.26187 4.28789L8.08583 4.34163" fill="white"/>
<path d="M8.37055 4.6316L8.0773 4.42192L8.1828 4.27111" fill="white"/>
<path d="M7.94781 4.63148L8.24106 4.4218L8.13556 4.27099" fill="white"/>
<path d="M7.9477 4.63146L8.05649 4.28777L8.23253 4.3415" fill="white"/>
<path d="M8.15892 3.98047L8.04492 4.32247L8.21892 4.38247" fill="white"/>
<path d="M8.15944 3.98047L8.27344 4.32247L8.09944 4.38247" fill="white"/>
<path d="M8.50105 4.22927L8.14056 4.22653L8.13726 4.41056" fill="white"/>
<path d="M8.5009 4.22947L8.21087 4.44357L8.10004 4.29663" fill="white"/>
<path d="M7.81648 4.2291L8.10651 4.44321L8.21734 4.29627" fill="white"/>
<path d="M7.81633 4.2289L8.17682 4.22617L8.18012 4.41019" fill="white"/>
<path d="M8.37066 4.63158L8.26187 4.28789L8.08583 4.34163" fill="white"/>
<path d="M8.37055 4.6316L8.0773 4.42192L8.1828 4.27111" fill="white"/>
<path d="M7.94781 4.63148L8.24106 4.4218L8.13556 4.27099" fill="white"/>
<path d="M7.9477 4.63146L8.05649 4.28777L8.23253 4.3415" fill="white"/>
<path d="M8.15892 3.98047L8.04492 4.32247L8.21892 4.38247" fill="white"/>
<path d="M8.15944 3.98047L8.27344 4.32247L8.09944 4.38247" fill="white"/>
<path d="M8.50105 4.22927L8.14056 4.22653L8.13726 4.41056" fill="white"/>
<path d="M8.5009 4.22947L8.21087 4.44357L8.10004 4.29663" fill="white"/>
<path d="M7.81648 4.2291L8.10651 4.44321L8.21734 4.29627" fill="white"/>
<path d="M7.81633 4.2289L8.17682 4.22617L8.18012 4.41019" fill="white"/>
<path d="M8.37066 4.63158L8.26187 4.28789L8.08583 4.34163" fill="white"/>
<path d="M8.37055 4.6316L8.0773 4.42192L8.1828 4.27111" fill="white"/>
<path d="M7.94781 4.63148L8.24106 4.4218L8.13556 4.27099" fill="white"/>
<path d="M7.9477 4.63146L8.05649 4.28777L8.23253 4.3415" fill="white"/>
<path d="M8.15892 3.98047L8.04492 4.32247L8.21892 4.38247" fill="white"/>
<path d="M8.15944 3.98047L8.27344 4.32247L8.09944 4.38247" fill="white"/>
<path d="M8.50105 4.22927L8.14056 4.22653L8.13726 4.41056" fill="white"/>
<path d="M8.5009 4.22947L8.21087 4.44357L8.10004 4.29663" fill="white"/>
<path d="M7.81648 4.2291L8.10651 4.44321L8.21734 4.29627" fill="white"/>
<path d="M7.81633 4.2289L8.17682 4.22617L8.18012 4.41019" fill="white"/>
<path d="M8.37066 4.63158L8.26187 4.28789L8.08583 4.34163" fill="white"/>
<path d="M8.37055 4.6316L8.0773 4.42192L8.1828 4.27111" fill="white"/>
<path d="M7.94781 4.63148L8.24106 4.4218L8.13556 4.27099" fill="white"/>
<path d="M7.9477 4.63146L8.05649 4.28777L8.23253 4.3415" fill="white"/>
<path d="M8.15892 3.98047L8.04492 4.32247L8.21892 4.38247" fill="white"/>
<path d="M8.15944 3.98047L8.27344 4.32247L8.09944 4.38247" fill="white"/>
<path d="M8.50105 4.22927L8.14056 4.22653L8.13726 4.41056" fill="white"/>
<path d="M8.5009 4.22947L8.21087 4.44357L8.10004 4.29663" fill="white"/>
<path d="M7.81648 4.2291L8.10651 4.44321L8.21734 4.29627" fill="white"/>
<path d="M7.81633 4.2289L8.17682 4.22617L8.18012 4.41019" fill="white"/>
<path d="M8.37066 4.63158L8.26187 4.28789L8.08583 4.34163" fill="white"/>
<path d="M8.37055 4.6316L8.0773 4.42192L8.1828 4.27111" fill="white"/>
<path d="M7.94781 4.63148L8.24106 4.4218L8.13556 4.27099" fill="white"/>
<path d="M7.9477 4.63146L8.05649 4.28777L8.23253 4.3415" fill="white"/>
<path d="M8.15892 3.98047L8.04492 4.32247L8.21892 4.38247" fill="white"/>
<path d="M8.15944 3.98047L8.27344 4.32247L8.09944 4.38247" fill="white"/>
<path d="M8.50105 4.22927L8.14056 4.22653L8.13726 4.41056" fill="white"/>
<path d="M8.5009 4.22947L8.21087 4.44357L8.10004 4.29663" fill="white"/>
<path d="M7.81648 4.2291L8.10651 4.44321L8.21734 4.29627" fill="white"/>
<path d="M7.81633 4.2289L8.17682 4.22617L8.18012 4.41019" fill="white"/>
<path d="M8.37066 4.63158L8.26187 4.28789L8.08583 4.34163" fill="white"/>
<path d="M8.37055 4.6316L8.0773 4.42192L8.1828 4.27111" fill="white"/>
<path d="M7.94781 4.63148L8.24106 4.4218L8.13556 4.27099" fill="white"/>
<path d="M7.9477 4.63146L8.05649 4.28777L8.23253 4.3415" fill="white"/>
<path d="M8.15892 3.98047L8.04492 4.32247L8.21892 4.38247" fill="white"/>
<path d="M8.15944 3.98047L8.27344 4.32247L8.09944 4.38247" fill="white"/>
<path d="M8.50105 4.22927L8.14056 4.22653L8.13726 4.41056" fill="white"/>
<path d="M8.5009 4.22947L8.21087 4.44357L8.10004 4.29663" fill="white"/>
<path d="M7.81648 4.2291L8.10651 4.44321L8.21734 4.29627" fill="white"/>
<path d="M7.81633 4.2289L8.17682 4.22617L8.18012 4.41019" fill="white"/>
<path d="M8.37066 4.63158L8.26187 4.28789L8.08583 4.34163" fill="white"/>
<path d="M8.37055 4.6316L8.0773 4.42192L8.1828 4.27111" fill="white"/>
<path d="M7.94781 4.63148L8.24106 4.4218L8.13556 4.27099" fill="white"/>
<path d="M7.9477 4.63146L8.05649 4.28777L8.23253 4.3415" fill="white"/>
<path d="M8.15892 3.98047L8.04492 4.32247L8.21892 4.38247" fill="white"/>
<path d="M8.15944 3.98047L8.27344 4.32247L8.09944 4.38247" fill="white"/>
<path d="M8.50105 4.22927L8.14056 4.22653L8.13726 4.41056" fill="white"/>
<path d="M8.5009 4.22947L8.21087 4.44357L8.10004 4.29663" fill="white"/>
<path d="M7.81648 4.2291L8.10651 4.44321L8.21734 4.29627" fill="white"/>
<path d="M7.81633 4.2289L8.17682 4.22617L8.18012 4.41019" fill="white"/>
<path d="M8.37066 4.63158L8.26187 4.28789L8.08583 4.34163" fill="white"/>
<path d="M8.37055 4.6316L8.0773 4.42192L8.1828 4.27111" fill="white"/>
<path d="M7.94781 4.63148L8.24106 4.4218L8.13556 4.27099" fill="white"/>
<path d="M7.9477 4.63146L8.05649 4.28777L8.23253 4.3415" fill="white"/>
<path d="M8.15892 3.98047L8.04492 4.32247L8.21892 4.38247" fill="white"/>
<path d="M8.15944 3.98047L8.27344 4.32247L8.09944 4.38247" fill="white"/>
<path d="M8.50105 4.22927L8.14056 4.22653L8.13726 4.41056" fill="white"/>
<path d="M8.5009 4.22947L8.21087 4.44357L8.10004 4.29663" fill="white"/>
<path d="M7.81648 4.2291L8.10651 4.44321L8.21734 4.29627" fill="white"/>
<path d="M7.81633 4.2289L8.17682 4.22617L8.18012 4.41019" fill="white"/>
<path d="M8.37066 4.63158L8.26187 4.28789L8.08583 4.34163" fill="white"/>
<path d="M8.37055 4.6316L8.0773 4.42192L8.1828 4.27111" fill="white"/>
<path d="M7.94781 4.63148L8.24106 4.4218L8.13556 4.27099" fill="white"/>
<path d="M7.9477 4.63146L8.05649 4.28777L8.23253 4.3415" fill="white"/>
</g>
<defs>
<clipPath id="clip0_2022_44674">
<rect y="0.5" width="20" height="15" rx="2" fill="white"/>
</clipPath>
</defs>
</svg>
