<svg width="18" height="18" viewBox="0 0 18 18" fill="none" xmlns="http://www.w3.org/2000/svg">
<path d="M3.82324 1.75C3.82324 1.19771 4.27096 0.75 4.82324 0.75H13.0683C13.6206 0.75 14.0683 1.19772 14.0683 1.75V9.06177C14.0683 11.547 12.0536 13.5618 9.56834 13.5618H8.32324C5.83796 13.5618 3.82324 11.547 3.82324 9.06176V1.75Z" stroke="#36454F" stroke-width="1.5"/>
<path d="M14.0693 3.41895H15.6429C16.4713 3.41895 17.1429 4.09052 17.1429 4.91895V7.44394C17.1429 8.0188 16.8143 8.54309 16.297 8.79379L14.0693 9.87336" stroke="#36454F" stroke-width="1.5"/>
<path d="M3.82324 3.41895H2.24971C1.42128 3.41895 0.749713 4.09052 0.749713 4.91895V7.44394C0.749713 8.0188 1.07825 8.54309 1.59556 8.79379L3.82324 9.87336" stroke="#36454F" stroke-width="1.5"/>
<path d="M8.94629 13.5615V17.2498" stroke="#36454F" stroke-width="1.5"/>
<path d="M13.0449 17.25H4.84884" stroke="#36454F" stroke-width="1.5" stroke-linecap="round"/>
</svg>
