<svg width="16" height="16" viewBox="0 0 16 16" fill="none" xmlns="http://www.w3.org/2000/svg">
<path d="M6.87822 9.59663L6.60389 10.2824L5.83255 12.2104L5.83232 12.2109C5.75851 12.3947 5.74031 12.5962 5.77996 12.7902C5.8196 12.9842 5.91529 13.1623 6.05517 13.3024C6.12147 13.3686 6.20138 13.4195 6.28935 13.4518C6.37738 13.484 6.47137 13.4967 6.56481 13.489C6.65824 13.4813 6.74888 13.4533 6.83042 13.4071C6.91196 13.3608 6.98245 13.2973 7.037 13.2211L6.87822 9.59663ZM6.87822 9.59663L6.13966 9.59663M6.87822 9.59663L6.13966 9.59663M6.13966 9.59663L2.61644 9.59663L6.13966 9.59663ZM10.0933 2.95273L10.0932 2.95261C9.95147 2.81015 9.78292 2.69721 9.59727 2.62032C9.41163 2.54343 9.21258 2.50411 9.01164 2.50463L9.01033 2.50464L4.99339 2.50463C4.77279 2.50481 4.55696 2.56888 4.37199 2.68909C4.18712 2.80924 4.04099 2.98033 3.95123 3.1817C3.95122 3.18172 3.95122 3.18173 3.95121 3.18175C3.95117 3.18185 3.95112 3.18195 3.95108 3.18204L1.98056 7.6157L1.98032 7.61626C1.88299 7.83453 1.83301 8.07095 1.83366 8.30994L1.83366 8.3113L1.83366 8.81345C1.83387 9.02103 1.9164 9.22005 2.06314 9.36686C2.20982 9.51362 2.40868 9.59624 2.61616 9.59663L10.0933 2.95273ZM10.0933 2.95273L10.7817 3.64418L10.7817 8.45953L10.0933 2.95273ZM10.8336 8.40755L10.8334 8.40775M10.8336 8.40755L10.8337 8.4075L10.8334 8.40775M10.8336 8.40755C10.8336 8.40762 10.8335 8.40768 10.8334 8.40775M10.8336 8.40755L10.8334 8.40775M10.7817 3.57168L10.7817 3.57197L10.7817 3.57168ZM13.9723 8.50063C13.8477 8.62527 13.6786 8.6953 13.5023 8.6953C13.326 8.6953 13.157 8.62527 13.0323 8.50062C12.9077 8.37598 12.8377 8.20691 12.8377 8.03063L12.8377 3.6513C12.8377 3.47502 12.9077 3.30596 13.0323 3.18131C13.157 3.05666 13.326 2.98664 13.5023 2.98664C13.6786 2.98664 13.8477 3.05666 13.9723 3.18131C14.097 3.30596 14.167 3.47502 14.167 3.6513L14.167 8.03063C14.167 8.20691 14.097 8.37598 13.9723 8.50063Z" fill="#FAFBFD" stroke="#36454F"/>
</svg>
