<svg width="36" height="36" viewBox="0 0 36 36" fill="none" xmlns="http://www.w3.org/2000/svg">
<g clip-path="url(#clip0_1662_24607)">
<path d="M18 0C17.6148 0 17.2323 0.0120937 16.8531 0.0359297L1.86701 10.0081C0.671906 12.416 0 15.1296 0 18C0 23.2647 2.2602 28.0015 5.86329 31.293C5.86329 31.293 11.7295 35.328 18 35.328C26.39 35.328 35.1177 27.9411 35.1177 18C35.1177 6.21288 23.9029 0.990211 23.9029 0.990211C22.0537 0.348609 20.0675 0 18 0Z" fill="#008CDF"/>
<path d="M35.8237 15.4717L31.46 14.9736C31.46 24.9148 23.4011 32.9736 13.46 32.9736C10.745 32.9736 8.17171 32.3697 5.86328 31.2933C7.26081 32.57 8.86042 33.6293 10.6085 34.4176L11.6684 34.3585L13.0124 35.3001C14.5962 35.7559 16.2696 36.0003 18.0001 36.0003C27.9412 36.0003 36.0001 27.9414 36.0001 18.0003C36.0001 17.142 35.9399 16.2978 35.8237 15.4717Z" fill="#0069D0"/>
<path d="M25.6155 1.68534C25.0596 1.42547 24.488 1.19316 23.9027 0.990234L22.3108 2.3903C22.0969 2.57318 21.9568 2.82752 21.9164 3.106C21.876 3.38448 21.9381 3.66816 22.0912 3.90427C22.3995 4.38309 23.0228 4.55016 23.5474 4.3286L23.8696 4.19248C24.2652 4.02541 24.7287 4.08588 25.0495 4.37156C25.6164 4.87655 25.5176 5.76902 24.8815 6.14541L21.1431 8.35751C20.4129 8.78958 19.9491 9.57504 19.9643 10.4234C19.98 11.3045 20.4738 12.0222 21.466 12.1136C23.5193 12.3027 23.2237 10.1273 24.4297 10.1273H28.5659C29.1955 10.1273 29.7415 10.598 29.796 11.2253C29.8582 11.9399 29.2965 12.5392 28.5947 12.5392H23.6349C21.7057 12.5392 20.0234 14.0258 19.9655 15.9541C19.9057 17.9495 21.5053 19.5858 23.4872 19.5858H23.9916C24.9536 19.5858 25.7335 20.3657 25.7335 21.3277V27.5179C25.7335 27.7017 25.7658 27.8829 25.8265 28.052L27.2832 28.0206L31.8188 20.6445L32.4018 16.4171L33.8805 14.2762C33.8805 14.2763 31.0221 4.21259 25.6155 1.68534Z" fill="#98DB7C"/>
<path d="M35.8232 15.4716C34.9638 9.35193 31.014 4.21504 25.6152 1.68555C29.203 4.97603 31.4595 9.72156 31.4595 14.9735C31.4595 20.128 29.2984 24.7707 25.8262 28.0521C26.0391 28.6602 26.6426 29.0825 27.3441 28.9823C27.7915 28.9184 28.1713 28.6174 28.3942 28.2243L32.6902 20.6491C32.8785 20.3171 32.9995 19.9512 33.0462 19.5723C33.093 19.1935 33.0645 18.8091 32.9625 18.4413L32.6295 17.2399C32.52 16.8451 32.8429 16.4641 33.2503 16.5074L33.4872 16.5325C33.8027 16.5659 34.1216 16.5338 34.4241 16.4383C34.7265 16.3427 35.006 16.1857 35.245 15.9771L35.8232 15.4716Z" fill="#77CC7D"/>
<path d="M17.8321 1.59159L16.8532 0.0361328C10.2695 0.449148 4.65037 4.39741 1.86719 10.0083L3.00147 17.8442C3.06429 18.2783 3.22467 18.6926 3.47056 19.0558C3.71644 19.4191 4.04144 19.7219 4.42115 19.9415C4.63549 20.0655 4.79908 20.2613 4.88299 20.4942C4.9669 20.7272 4.96572 20.9823 4.87966 21.2145L4.49237 22.2592C4.32249 22.7176 4.30153 23.2178 4.43248 23.6887C4.56343 24.1596 4.83963 24.5772 5.22173 24.882L6.25595 25.7072C6.60973 25.9894 6.89263 26.3505 7.08205 26.7615L9.76947 32.5932L11.3403 33.7017L12.4494 32.9454L12.0472 31.2644C11.8203 30.3161 11.9418 29.3179 12.3897 28.4517L14.134 25.0784C14.6144 24.1492 14.1734 23.0091 13.1927 22.6452L11.7597 22.1133C11.5374 22.0309 11.3457 21.8824 11.2104 21.6877C11.075 21.4931 11.0025 21.2618 11.0025 21.0247V20.9128C11.0025 20.2714 10.4825 19.7515 9.84119 19.7515H7.34995C6.73945 19.7516 6.13967 19.5911 5.6107 19.2864L5.00298 18.9363C4.77516 18.805 4.58011 18.6237 4.43255 18.4061C4.28499 18.1885 4.18877 17.9402 4.15115 17.6799L4.11234 17.4113C4.06451 17.0805 4.1129 16.7428 4.25172 16.4387C4.39055 16.1346 4.61395 15.8768 4.89527 15.6962L5.25238 15.4669C5.46305 15.3317 5.71177 15.2681 5.96149 15.2857C6.21121 15.3033 6.44855 15.4011 6.63817 15.5646L6.95648 15.839C7.34404 16.1731 7.94795 15.9751 8.06242 15.4763L8.40189 13.9972C8.49085 13.6096 8.67782 13.2514 8.94489 12.9568C9.21196 12.6622 9.55018 12.4411 9.92718 12.3147L12.4326 11.4744C13.1481 11.2345 13.4482 10.3866 13.0431 9.74994L11.9042 7.96028C11.5912 7.46852 10.9622 7.28493 10.4338 7.53116L9.49321 7.96956C9.00672 8.19639 8.40055 8.09915 8.0722 7.67453C7.64856 7.1268 7.81879 6.33986 8.41645 6.01178L10.7803 4.71395C11.5644 4.28343 12.5472 4.5168 13.054 5.25388L13.2736 5.57331C13.4336 5.80615 13.6479 5.99656 13.8979 6.1281C14.148 6.25964 14.4263 6.32836 14.7088 6.32833H15.7725C16.1173 6.32833 16.4543 6.22601 16.7409 6.03433C17.0275 5.84265 17.2508 5.57023 17.3824 5.25156L18.0154 3.71938C18.1573 3.37592 18.2147 3.00342 18.1828 2.63317C18.1509 2.26292 18.0307 1.90572 17.8321 1.59159Z" fill="#98DB7C"/>
<path d="M10.6088 34.417C11.3879 34.7684 12.1912 35.0634 13.0126 35.2996L12.4494 32.945C11.5485 32.8953 10.6527 32.7776 9.76953 32.5928L10.6088 34.417Z" fill="#77CC7D"/>
</g>
<defs>
<clipPath id="clip0_1662_24607">
<rect width="36" height="36" fill="white"/>
</clipPath>
</defs>
</svg>
