<svg width="32" height="32" viewBox="0 0 32 32" fill="none" xmlns="http://www.w3.org/2000/svg">
<path d="M1 1H19.4219C20.0805 1 20.6969 1.32423 21.07 1.86694L30.0075 14.8669C30.4767 15.5494 30.4767 16.4506 30.0075 17.1331L21.07 30.1331C20.6969 30.6758 20.0805 31 19.4219 31H1V1Z" fill="#90A0AA" stroke="white" stroke-width="2"/>
<g clip-path="url(#clip0_2732_71522)">
<path d="M17.5883 12.2858H8.41171C7.63543 12.2858 7 12.9378 7 13.7143C7 14.4909 7.63543 15.1429 8.41171 15.1429H17.5883C18.3646 15.1429 19 14.4909 19 13.7143C19 12.9378 18.3646 12.2858 17.5883 12.2858ZM17.5883 16.8572H8.41171C7.63543 16.8572 7 17.5092 7 18.2858C7 19.0623 7.63543 19.7143 8.41171 19.7143H17.5883C18.3646 19.7143 19 19.0623 19 18.2858C19 17.5092 18.3646 16.8572 17.5883 16.8572Z" fill="#FAFBFD"/>
</g>
<defs>
<clipPath id="clip0_2732_71522">
<rect width="12" height="12" fill="white" transform="translate(7 10)"/>
</clipPath>
</defs>
</svg>
