<svg width="36" height="24" viewBox="0 0 36 24" fill="none" xmlns="http://www.w3.org/2000/svg">
<path d="M33.3039 0.457031H2.69613C1.20705 0.457031 0 1.63848 0 3.09597V20.9041C0 22.3615 1.20705 23.543 2.69613 23.543H33.3039C34.7929 23.543 36 22.3616 36 20.9041V3.09597C36 1.63848 34.7929 0.457031 33.3039 0.457031Z" fill="#3FC0DE"/>
<path d="M4.1841 3.22131C4.12792 2.98856 4.11393 2.90267 4.22066 2.79827C4.2727 2.74734 4.2727 2.66482 4.22066 2.6139C4.16863 2.56297 4.08433 2.56297 4.0323 2.6139C3.8163 2.82538 3.86784 3.04485 3.92373 3.27719C3.75344 3.22276 3.57681 3.26315 3.48217 3.38001C3.4352 3.4383 3.34436 3.60182 3.51459 3.86293C3.55417 3.92356 3.63602 3.94139 3.69852 3.90298C3.76061 3.86424 3.77868 3.78351 3.73909 3.72295C3.67525 3.6246 3.67335 3.56397 3.69121 3.54181C3.7123 3.51559 3.77769 3.50176 3.84618 3.5255C3.89041 3.5405 3.9932 3.59246 3.9932 3.74937C3.9932 3.8747 3.934 3.98956 3.83078 4.06423C3.72735 4.13911 3.59348 4.16024 3.46445 4.12101C3.30512 4.07338 3.19382 3.90911 3.19382 3.72143C3.19382 3.58716 3.22321 3.45145 3.27721 3.33253C3.28579 3.31498 3.48941 2.90212 3.54187 2.74823C3.64558 2.44384 3.54018 2.29078 3.46825 2.22685C3.37199 2.14103 3.2313 2.11962 3.11022 2.17158C3.0918 2.17957 3.07661 2.19113 3.06065 2.20186C3.04469 2.19106 3.02943 2.17957 3.01108 2.17158C2.89007 2.11962 2.74945 2.14096 2.65305 2.22685C2.58112 2.29078 2.47572 2.44391 2.57943 2.74823C2.63188 2.90212 2.83544 3.31498 2.84226 3.32874C2.89802 3.45152 2.92748 3.58723 2.92748 3.7215C2.92748 3.90925 2.81624 4.07345 2.65684 4.12108C2.52733 4.16024 2.39387 4.13938 2.29052 4.0643C2.1873 3.98963 2.12809 3.87483 2.12809 3.74944C2.12809 3.59253 2.23089 3.54064 2.27512 3.52557C2.34381 3.50189 2.40885 3.51559 2.43009 3.54188C2.44795 3.56404 2.44605 3.62467 2.3822 3.72302C2.34262 3.78365 2.36069 3.86444 2.42277 3.90305C2.48535 3.9418 2.56748 3.9237 2.60671 3.863C2.77694 3.60189 2.68609 3.43844 2.63912 3.38008C2.54441 3.26322 2.36786 3.22276 2.19756 3.27726C2.25353 3.04499 2.305 2.82538 2.089 2.61396C2.03697 2.56304 1.95266 2.56304 1.90063 2.61396C1.8486 2.66489 1.8486 2.74741 1.90063 2.79834C2.0073 2.90274 1.99345 2.98856 1.9372 3.22138C1.90337 3.36088 1.86147 3.53486 1.86147 3.74931C1.86147 3.89204 1.91266 4.02844 1.99893 4.14055H1.99464C1.92102 4.14055 1.8614 4.19884 1.8614 4.27097C1.8614 4.34309 1.92095 4.40138 1.99464 4.40138H1.99893C1.91266 4.51342 1.86147 4.6499 1.86147 4.79256C1.86147 5.00701 1.90337 5.18099 1.93705 5.32056C1.99323 5.55338 2.00723 5.6392 1.90049 5.7436C1.84846 5.79453 1.84846 5.87704 1.90049 5.92797C1.92651 5.95344 1.96061 5.96617 1.99471 5.96617C2.02874 5.96617 2.06291 5.95344 2.08893 5.92797C2.30493 5.71649 2.25339 5.49695 2.19749 5.26468C2.36779 5.31891 2.54441 5.27871 2.63905 5.16186C2.68602 5.10356 2.77687 4.94005 2.60664 4.67894C2.5672 4.61831 2.48486 4.60028 2.4227 4.63889C2.36062 4.67763 2.34255 4.75836 2.38213 4.81892C2.44598 4.91727 2.44787 4.9779 2.43002 5.00006C2.40885 5.026 2.34374 5.03977 2.27505 5.01637C2.23082 5.00137 2.12802 4.94941 2.12802 4.79249C2.12802 4.66717 2.18723 4.55231 2.29045 4.47771C2.39387 4.40283 2.52761 4.38143 2.65677 4.42093C2.8161 4.46855 2.92741 4.63283 2.92741 4.8205C2.92741 4.95477 2.89802 5.09049 2.84219 5.21327L1.96954 7.13475C1.89782 7.29269 1.8614 7.46055 1.8614 7.63343C1.8614 7.85593 1.96476 8.05908 2.12746 8.1831C1.96483 8.30712 1.8614 8.51028 1.8614 8.73277C1.8614 8.90572 1.89789 9.07357 1.96954 9.23145L2.84205 11.1529C2.8978 11.2756 2.92727 11.4114 2.92727 11.5456C2.92727 11.7334 2.81603 11.8976 2.65663 11.9452C2.52712 11.9847 2.39366 11.9636 2.2903 11.8884C2.18709 11.8138 2.12788 11.699 2.12788 11.5736C2.12788 11.4167 2.23068 11.3648 2.27491 11.3498C2.3436 11.3263 2.40864 11.3398 2.42987 11.3661C2.44773 11.3882 2.44584 11.4489 2.38199 11.5472C2.34241 11.6078 2.36048 11.6885 2.42256 11.7272C2.48514 11.766 2.56727 11.7481 2.6065 11.6872C2.77673 11.4261 2.68588 11.2626 2.63891 11.2043C2.5442 11.0873 2.36765 11.0472 2.19735 11.1015C2.25332 10.8692 2.30479 10.6496 2.08879 10.4382C2.03676 10.3872 1.95245 10.3872 1.90042 10.4382C1.84839 10.4891 1.84839 10.5716 1.90042 10.6225C2.00709 10.7269 1.99323 10.8128 1.93698 11.0456C1.9033 11.185 1.8614 11.359 1.8614 11.5734C1.8614 11.7161 1.91259 11.8526 1.99886 11.9647H1.99457C1.92095 11.9647 1.86133 12.023 1.86133 12.0951C1.86133 12.1671 1.92088 12.2255 1.99457 12.2255H1.99886C1.91259 12.3376 1.8614 12.474 1.8614 12.6168C1.8614 12.8312 1.9033 13.0052 1.93698 13.1448C1.99316 13.3776 2.00716 13.4634 1.90042 13.5678C1.84839 13.6187 1.84839 13.7012 1.90042 13.7522C1.92644 13.7776 1.96054 13.7904 1.99464 13.7904C2.02867 13.7904 2.06284 13.7776 2.08886 13.7522C2.30486 13.5407 2.25332 13.3211 2.19742 13.0889C2.36772 13.1431 2.54434 13.1029 2.63898 12.9861C2.68595 12.9278 2.7768 12.7642 2.60657 12.5031C2.56712 12.4425 2.48479 12.4245 2.42263 12.4631C2.36055 12.5018 2.34248 12.5826 2.38206 12.6431C2.44591 12.7415 2.4478 12.8021 2.42995 12.8243C2.40878 12.8505 2.34367 12.8642 2.27498 12.8406C2.23075 12.8256 2.12795 12.7736 2.12795 12.6167C2.12795 12.4914 2.18716 12.3765 2.29037 12.3019C2.3938 12.227 2.52754 12.2056 2.6567 12.2451C2.81603 12.2927 2.92734 12.457 2.92734 12.6447C2.92734 12.779 2.89795 12.9147 2.84212 13.0375L1.96954 14.9592C1.89782 15.1171 1.8614 15.285 1.8614 15.4579C1.8614 15.6804 1.96476 15.8836 2.12746 16.0076C1.96483 16.1315 1.8614 16.3347 1.8614 16.5572C1.8614 16.7302 1.89789 16.898 1.96954 17.0559L2.84205 18.9773C2.8978 19.1001 2.92727 19.2358 2.92727 19.3701C2.92727 19.5578 2.81603 19.7221 2.65663 19.7697C2.52712 19.8092 2.39366 19.7878 2.2903 19.7129C2.18709 19.6382 2.12788 19.5234 2.12788 19.3981C2.12788 19.2412 2.23068 19.1893 2.27491 19.1742C2.3436 19.1508 2.40864 19.1643 2.42987 19.1905C2.44773 19.2127 2.44584 19.2733 2.38199 19.3717C2.34241 19.4323 2.36048 19.513 2.42256 19.5517C2.48514 19.5905 2.56727 19.5726 2.6065 19.5117C2.77673 19.2506 2.68588 19.0871 2.63891 19.0287C2.5442 18.9115 2.36765 18.8715 2.19735 18.9259C2.25332 18.6937 2.30479 18.474 2.08879 18.2626C2.03676 18.2117 1.95245 18.2117 1.90042 18.2626C1.84839 18.3136 1.84839 18.3961 1.90042 18.447C2.00709 18.5514 1.99323 18.6372 1.93698 18.87C1.9033 19.0095 1.8614 19.1834 1.8614 19.3978C1.8614 19.6022 1.96145 19.7969 2.12873 19.9195C1.96145 20.0421 1.8614 20.2368 1.8614 20.4412C1.8614 20.6556 1.9033 20.8296 1.93698 20.9691C1.99316 21.2019 2.00716 21.2878 1.90042 21.3922C1.84839 21.4431 1.84839 21.5257 1.90042 21.5766C1.92644 21.602 1.96054 21.6148 1.99464 21.6148C2.02867 21.6148 2.06284 21.602 2.08886 21.5766C2.30486 21.3651 2.25332 21.1455 2.19742 20.9132C2.36772 20.9674 2.54434 20.9272 2.63898 20.8104C2.68595 20.7521 2.7768 20.5886 2.60657 20.3275C2.56712 20.2668 2.48479 20.249 2.42263 20.2874C2.36055 20.3262 2.34248 20.4069 2.38206 20.4674C2.44591 20.5658 2.4478 20.6264 2.42995 20.6486C2.40878 20.6748 2.34367 20.6883 2.27498 20.6649C2.23075 20.6499 2.12795 20.5979 2.12795 20.441C2.12795 20.3157 2.18716 20.2008 2.29037 20.1262C2.3938 20.0513 2.52754 20.0302 2.6567 20.0694C2.81603 20.117 2.92734 20.2813 2.92734 20.469C2.92734 20.6032 2.89795 20.7389 2.84395 20.8579C2.83537 20.8754 2.63174 21.2883 2.57929 21.4422C2.47558 21.7466 2.58098 21.8996 2.65291 21.9635C2.71443 22.0183 2.79367 22.0471 2.87467 22.0471C2.92059 22.0471 2.96713 22.0377 3.01101 22.0189C3.02943 22.0109 3.04462 21.9993 3.06058 21.9886C3.07654 21.9994 3.0918 22.0109 3.11015 22.0189C3.15395 22.0377 3.20064 22.0471 3.24648 22.0471C3.32727 22.0471 3.40666 22.0183 3.46825 21.9635C3.54018 21.8996 3.64558 21.7465 3.54187 21.4422C3.48941 21.2883 3.28586 20.8755 3.27904 20.8617C3.22328 20.7389 3.19382 20.6032 3.19382 20.4689C3.19382 20.2811 3.30505 20.1169 3.46445 20.0693C3.59404 20.0301 3.72742 20.0512 3.83078 20.1261C3.934 20.2008 3.9932 20.3156 3.9932 20.4409C3.9932 20.5979 3.89041 20.6498 3.84618 20.6648C3.77777 20.6883 3.71223 20.6748 3.69121 20.6485C3.67335 20.6264 3.67525 20.5657 3.73909 20.4674C3.77868 20.4067 3.76061 20.3261 3.69852 20.2873C3.6363 20.2491 3.55424 20.267 3.51459 20.3274C3.34436 20.5885 3.4352 20.752 3.48217 20.8103C3.57688 20.9272 3.75344 20.9674 3.92373 20.9131C3.86777 21.1454 3.8163 21.365 4.0323 21.5765C4.05831 21.602 4.09241 21.6147 4.12652 21.6147C4.16062 21.6147 4.19472 21.602 4.22073 21.5765C4.27277 21.5256 4.27277 21.443 4.22073 21.3921C4.11407 21.2877 4.12792 21.2019 4.18417 20.9691C4.21785 20.8295 4.25976 20.6555 4.25976 20.4411C4.25976 20.2367 4.1597 20.0421 3.9925 19.9194C4.1597 19.7968 4.25976 19.6022 4.25976 19.3978C4.25976 19.1833 4.21785 19.0093 4.18417 18.8698C4.12799 18.637 4.114 18.5511 4.22073 18.4467C4.27277 18.3958 4.27277 18.3133 4.22073 18.2624C4.1687 18.2114 4.0844 18.2114 4.03237 18.2624C3.81637 18.4738 3.86791 18.6933 3.9238 18.9256C3.75351 18.8712 3.57688 18.9113 3.48224 19.0285C3.43527 19.0868 3.34443 19.2503 3.51466 19.5114C3.55424 19.572 3.63609 19.5898 3.69859 19.5514C3.76068 19.5127 3.77875 19.432 3.73916 19.3714C3.67532 19.2731 3.67342 19.2124 3.69128 19.1903C3.71237 19.164 3.77777 19.1506 3.84625 19.174C3.89048 19.189 3.99327 19.2409 3.99327 19.3978C3.99327 19.5232 3.93407 19.638 3.83085 19.7126C3.72742 19.7875 3.59355 19.8089 3.46452 19.7694C3.3052 19.7218 3.19389 19.5575 3.19389 19.3698C3.19389 19.2356 3.22328 19.0998 3.27911 18.9771L4.15162 17.0556C4.22334 16.8978 4.25976 16.7298 4.25976 16.557C4.25976 16.3345 4.1564 16.1313 3.9937 16.0073C4.1564 15.8833 4.25976 15.6801 4.25976 15.4576C4.25976 15.2847 4.22327 15.1168 4.15162 14.9589L3.27911 13.0375C3.22335 12.9148 3.19389 12.779 3.19389 12.6448C3.19389 12.457 3.30512 12.2928 3.46452 12.2452C3.59411 12.206 3.72749 12.2271 3.83085 12.302C3.93407 12.3766 3.99327 12.4914 3.99327 12.6168C3.99327 12.7737 3.89048 12.8256 3.84625 12.8406C3.77784 12.8643 3.7123 12.8506 3.69128 12.8243C3.67342 12.8022 3.67532 12.7415 3.73916 12.6432C3.77875 12.5826 3.76068 12.5018 3.69859 12.4631C3.63637 12.425 3.55431 12.4428 3.51466 12.5032C3.34443 12.7643 3.43527 12.9278 3.48224 12.9861C3.57695 13.103 3.75351 13.1432 3.9238 13.0889C3.86784 13.3212 3.81637 13.5408 4.03237 13.7522C4.05838 13.7777 4.09248 13.7904 4.12659 13.7904C4.16069 13.7904 4.19479 13.7777 4.2208 13.7522C4.27284 13.7013 4.27284 13.6187 4.2208 13.5679C4.11414 13.4635 4.12799 13.3776 4.18424 13.1448C4.21792 13.0053 4.25983 12.8313 4.25983 12.6168C4.25983 12.4741 4.20864 12.3377 4.12237 12.2256H4.12666C4.20027 12.2256 4.2599 12.1673 4.2599 12.0952C4.2599 12.0231 4.20034 11.9647 4.12666 11.9647H4.12237C4.20864 11.8526 4.25983 11.7163 4.25983 11.5735C4.25983 11.3591 4.21792 11.1851 4.18424 11.0455C4.12806 10.8127 4.11407 10.7269 4.2208 10.6225C4.27284 10.5715 4.27284 10.489 4.2208 10.4381C4.16877 10.3872 4.08447 10.3872 4.03244 10.4381C3.81644 10.6496 3.86798 10.8691 3.92387 11.1014C3.75358 11.0472 3.57695 11.0873 3.48231 11.2042C3.43534 11.2625 3.3445 11.426 3.51473 11.6871C3.55431 11.7478 3.63616 11.7654 3.69866 11.7272C3.76075 11.6884 3.77882 11.6077 3.73923 11.5471C3.67539 11.4488 3.67349 11.3882 3.69135 11.366C3.71245 11.3398 3.77784 11.3263 3.84632 11.3497C3.89055 11.3647 3.99334 11.4167 3.99334 11.5736C3.99334 11.6989 3.93414 11.8138 3.83092 11.8884C3.72749 11.9632 3.59362 11.9844 3.46459 11.9451C3.30527 11.8975 3.19396 11.7332 3.19396 11.5456C3.19396 11.4113 3.22335 11.2756 3.27918 11.1528L4.15169 9.23138C4.22341 9.07351 4.25983 8.90558 4.25983 8.7327C4.25983 8.51021 4.15647 8.30705 3.99377 8.18303C4.15647 8.05908 4.25983 7.85586 4.25983 7.63336C4.25983 7.46041 4.22334 7.29256 4.15169 7.13468L3.27918 5.21327C3.22342 5.09049 3.19396 4.95477 3.19396 4.8205C3.19396 4.63276 3.3052 4.46855 3.46459 4.42093C3.59418 4.38177 3.72756 4.40283 3.83092 4.47771C3.93414 4.55238 3.99334 4.66717 3.99334 4.79249C3.99334 4.94941 3.89055 5.0013 3.84632 5.01637C3.77791 5.03984 3.71237 5.02607 3.69135 5.00006C3.67349 4.9779 3.67539 4.91727 3.73923 4.81892C3.77882 4.75829 3.76075 4.67756 3.69866 4.63889C3.63644 4.60069 3.55438 4.61824 3.51473 4.67887C3.3445 4.93998 3.43534 5.10343 3.48231 5.16179C3.57702 5.27865 3.75358 5.31891 3.92387 5.26461C3.86791 5.49688 3.81644 5.71648 4.03244 5.9279C4.05845 5.95337 4.09255 5.9661 4.12666 5.9661C4.16069 5.9661 4.19486 5.95337 4.22087 5.9279C4.27291 5.87698 4.27291 5.79446 4.22087 5.74353C4.11421 5.63913 4.12806 5.55331 4.18431 5.32049C4.21799 5.18092 4.2599 5.00694 4.2599 4.79249C4.2599 4.64976 4.20871 4.51336 4.12244 4.40125H4.12673C4.20034 4.40125 4.25997 4.34296 4.25997 4.27083C4.25997 4.19871 4.20041 4.14042 4.12673 4.14042H4.12244C4.20871 4.02831 4.2599 3.89197 4.2599 3.74917C4.25962 3.53486 4.21771 3.36088 4.1841 3.22131ZM2.83199 2.66551C2.78467 2.52649 2.8012 2.44728 2.83241 2.41948C2.8528 2.40062 2.88374 2.40138 2.90336 2.41005C2.92741 2.42044 2.92741 2.43703 2.92741 2.44522C2.92741 2.51727 2.98696 2.57563 3.06065 2.57563C3.13427 2.57563 3.19389 2.51734 3.19389 2.44522C3.19389 2.43709 3.19389 2.42051 3.21794 2.41005C3.2372 2.40138 3.26793 2.40062 3.28888 2.41948C3.32017 2.44728 3.3367 2.52649 3.2893 2.66551C3.25485 2.76633 3.13019 3.02882 3.06072 3.17128C2.99266 3.03212 2.86666 2.76702 2.83199 2.66551ZM3.06058 8.04635C3.09883 8.09721 3.14207 8.14456 3.19466 8.1831C3.14207 8.22171 3.09883 8.26899 3.06058 8.31985C3.02233 8.26899 2.97909 8.22164 2.92649 8.1831C2.97909 8.14442 3.02233 8.09721 3.06058 8.04635ZM3.06058 15.8706C3.09883 15.9215 3.14207 15.9688 3.19466 16.0074C3.14207 16.046 3.09883 16.0933 3.06058 16.1441C3.02233 16.0933 2.97909 16.0459 2.92649 16.0074C2.97909 15.9688 3.02233 15.9217 3.06058 15.8706ZM3.28916 21.5251C3.33648 21.6641 3.31996 21.7433 3.28874 21.7711C3.26779 21.7897 3.23706 21.7889 3.2178 21.7806C3.19375 21.7701 3.19375 21.7536 3.19375 21.7454C3.19375 21.6733 3.1342 21.615 3.06051 21.615C2.98682 21.615 2.92727 21.6733 2.92727 21.7454C2.92727 21.7535 2.92727 21.7701 2.90322 21.7806C2.88367 21.7889 2.85273 21.7898 2.83227 21.7711C2.80098 21.7433 2.78453 21.6641 2.83185 21.5251C2.8663 21.4243 2.99097 21.1618 3.06044 21.0193C3.12843 21.1584 3.25443 21.4235 3.28916 21.5251ZM3.1934 19.9196C3.14298 19.958 3.09827 20.004 3.06058 20.056C3.02296 20.004 2.97817 19.9581 2.92776 19.9196C2.97817 19.8812 3.02289 19.8353 3.06058 19.7833C3.0982 19.8353 3.14284 19.8812 3.1934 19.9196ZM3.90791 16.9498L3.06051 18.8159L2.2131 16.9498C2.15734 16.827 2.12788 16.6913 2.12788 16.557C2.12788 16.3693 2.23912 16.205 2.39852 16.1575C2.52796 16.1182 2.66162 16.1394 2.76484 16.2142C2.86806 16.2889 2.92727 16.4037 2.92727 16.5291C2.92727 16.686 2.82447 16.7379 2.78024 16.753C2.71155 16.7764 2.64623 16.7629 2.62527 16.7367C2.60741 16.7145 2.60931 16.6539 2.67316 16.5555C2.71274 16.4949 2.69467 16.4142 2.63259 16.3755C2.57036 16.3373 2.4883 16.3551 2.44865 16.4155C2.27849 16.6766 2.36927 16.8401 2.41623 16.8985C2.5127 17.0177 2.69418 17.0587 2.86771 16.9993C2.88747 16.9925 2.90751 16.9843 2.92727 16.9744V17.3042L2.92705 17.304C2.92305 17.2353 2.86497 17.1811 2.79409 17.1811C2.72048 17.1811 2.66085 17.2394 2.66085 17.3115C2.66085 17.3966 2.7216 17.5441 2.92734 17.5898V17.8331C2.92734 17.9052 2.98689 17.9635 3.06058 17.9635C3.1342 17.9635 3.19382 17.9052 3.19382 17.8331V17.5898C3.39948 17.5441 3.4603 17.3966 3.4603 17.3115C3.4603 17.2395 3.40089 17.1768 3.32734 17.1768C3.25373 17.1768 3.19438 17.2309 3.19438 17.3029C3.19431 17.3031 3.19389 17.3035 3.19382 17.3037V16.9745C3.21358 16.9843 3.23362 16.9927 3.25337 16.9994C3.42691 17.0587 3.60831 17.0177 3.70485 16.8986C3.75182 16.8403 3.84266 16.6768 3.67244 16.4157C3.63285 16.355 3.55066 16.3372 3.4885 16.3756C3.42641 16.4144 3.40834 16.4951 3.44793 16.5557C3.51177 16.654 3.51367 16.7146 3.49581 16.7368C3.47472 16.763 3.40947 16.7765 3.34084 16.7531C3.29662 16.7381 3.19382 16.6861 3.19382 16.5292C3.19382 16.4039 3.25302 16.289 3.35624 16.2144C3.45967 16.1395 3.59355 16.1181 3.72257 16.1576C3.8819 16.2052 3.9932 16.3695 3.9932 16.5572C3.9932 16.6913 3.96381 16.8272 3.90791 16.9498ZM3.90791 15.0651C3.96367 15.1878 3.99313 15.3236 3.99313 15.4578C3.99313 15.6456 3.8819 15.8098 3.7225 15.8574C3.5932 15.8969 3.45939 15.8755 3.35617 15.8006C3.25295 15.726 3.19375 15.6112 3.19375 15.4858C3.19375 15.3289 3.29655 15.277 3.34077 15.262C3.40933 15.2385 3.47472 15.252 3.49574 15.2783C3.5136 15.3004 3.5117 15.3611 3.44786 15.4594C3.40827 15.52 3.42634 15.6007 3.48843 15.6394C3.55101 15.6782 3.63313 15.6603 3.67237 15.5994C3.84259 15.3383 3.75175 15.1748 3.70478 15.1165C3.60824 14.9973 3.42684 14.9567 3.2533 15.0157C3.23355 15.0224 3.21351 15.0307 3.19375 15.0405V14.7106L3.19396 14.711C3.19797 14.7795 3.25605 14.8338 3.32692 14.8338C3.40054 14.8338 3.46016 14.7755 3.46016 14.7034C3.46016 14.6183 3.39941 14.4708 3.19368 14.4251V14.1818C3.19368 14.1098 3.13412 14.0514 3.06044 14.0514C2.98682 14.0514 2.9272 14.1097 2.9272 14.1818V14.4251C2.72153 14.4708 2.66071 14.6183 2.66071 14.7034C2.66071 14.7755 2.72012 14.8381 2.79367 14.8381C2.86729 14.8381 2.92663 14.7841 2.92663 14.712C2.9267 14.7118 2.92712 14.7115 2.92712 14.7115L2.9272 15.0404C2.90744 15.0307 2.8874 15.0223 2.86764 15.0156C2.69411 14.9567 2.51263 14.9972 2.41616 15.1164C2.3692 15.1747 2.27835 15.3382 2.44858 15.5993C2.48816 15.66 2.57036 15.6776 2.63252 15.6394C2.6946 15.6006 2.71267 15.5199 2.67309 15.4593C2.60924 15.361 2.60734 15.3004 2.6252 15.2782C2.64616 15.252 2.71148 15.2385 2.78017 15.2619C2.8244 15.2769 2.9272 15.3289 2.9272 15.4858C2.9272 15.6111 2.86799 15.726 2.76477 15.8006C2.66134 15.8754 2.52775 15.8968 2.39845 15.8573C2.23912 15.8097 2.12781 15.6454 2.12781 15.4578C2.12781 15.3235 2.1572 15.1878 2.21303 15.065L3.06044 13.1988L3.90791 15.0651ZM3.1934 12.0953C3.14298 12.1337 3.09827 12.1797 3.06058 12.2316C3.02296 12.1797 2.97817 12.1338 2.92776 12.0953C2.97817 12.0569 3.02289 12.0109 3.06058 11.959C3.0982 12.0109 3.14284 12.0568 3.1934 12.0953ZM3.90791 9.12554L3.06051 10.9917L2.2131 9.12554C2.15734 9.00276 2.12788 8.86704 2.12788 8.73277C2.12788 8.54503 2.23912 8.38082 2.39852 8.3332C2.52796 8.29397 2.66162 8.3151 2.76484 8.38998C2.86806 8.46465 2.92727 8.57944 2.92727 8.70483C2.92727 8.86174 2.82447 8.91364 2.78024 8.92871C2.71155 8.95238 2.64623 8.93869 2.62527 8.9124C2.60741 8.89024 2.60931 8.8296 2.67316 8.73126C2.71274 8.67063 2.69467 8.58997 2.63259 8.55122C2.57036 8.51275 2.4883 8.53058 2.44865 8.59114C2.27849 8.85225 2.36927 9.0157 2.41623 9.07406C2.5127 9.19325 2.69418 9.234 2.86771 9.17488C2.88747 9.16814 2.90751 9.15988 2.92727 9.15003V9.47983L2.92705 9.47941C2.92305 9.41094 2.86497 9.35664 2.79409 9.35664C2.72048 9.35664 2.66085 9.41493 2.66085 9.48705C2.66085 9.57211 2.7216 9.71967 2.92734 9.76536V10.0086C2.92734 10.0807 2.98689 10.1391 3.06058 10.1391C3.1342 10.1391 3.19382 10.0808 3.19382 10.0086V9.76536C3.39948 9.71967 3.4603 9.57211 3.4603 9.48705C3.4603 9.415 3.40089 9.3523 3.32734 9.3523C3.25373 9.3523 3.19438 9.40632 3.19438 9.47838C3.19431 9.47859 3.19389 9.47893 3.19389 9.47893L3.19382 9.14997C3.21358 9.15981 3.23362 9.16813 3.25337 9.17481C3.42691 9.23386 3.60831 9.19319 3.70485 9.07399C3.75182 9.0157 3.84266 8.85218 3.67244 8.59107C3.63285 8.53016 3.55066 8.51241 3.4885 8.55115C3.42641 8.5899 3.40834 8.67063 3.44793 8.73119C3.51177 8.82954 3.51367 8.89017 3.49581 8.91233C3.47472 8.93855 3.40947 8.95238 3.34084 8.92864C3.29662 8.91363 3.19382 8.86167 3.19382 8.70476C3.19382 8.57944 3.25302 8.46458 3.35624 8.38991C3.45967 8.31503 3.59355 8.2939 3.72257 8.33313C3.8819 8.38075 3.9932 8.54503 3.9932 8.7327C3.9932 8.86697 3.96381 9.00269 3.90791 9.12554ZM3.90791 7.24066C3.96367 7.36344 3.99313 7.49916 3.99313 7.63343C3.99313 7.82117 3.8819 7.98538 3.7225 8.033C3.5932 8.0725 3.45939 8.0511 3.35617 7.97622C3.25295 7.90155 3.19375 7.78676 3.19375 7.66137C3.19375 7.50446 3.29655 7.45257 3.34077 7.43749C3.40933 7.41403 3.47472 7.42751 3.49574 7.4538C3.5136 7.47596 3.5117 7.53659 3.44786 7.63494C3.40827 7.69557 3.42634 7.7763 3.48843 7.81498C3.55101 7.85345 3.63313 7.83583 3.67237 7.77499C3.84259 7.51388 3.75175 7.35043 3.70478 7.29207C3.60824 7.17288 3.42684 7.13213 3.2533 7.19125C3.23355 7.19793 3.21351 7.20625 3.19375 7.2161V6.88631L3.19396 6.88651C3.19797 6.95519 3.25605 7.00936 3.32692 7.00936C3.40054 7.00936 3.46016 6.95107 3.46016 6.87894C3.46016 6.79388 3.39941 6.64633 3.19368 6.60063V6.35735C3.19368 6.28529 3.13412 6.22693 3.06044 6.22693C2.98682 6.22693 2.9272 6.28522 2.9272 6.35735V6.60063C2.72153 6.64633 2.66071 6.79388 2.66071 6.87894C2.66071 6.951 2.72012 7.01369 2.79367 7.01369C2.86729 7.01369 2.92663 6.95967 2.92663 6.88761C2.9267 6.88741 2.92712 6.88706 2.9272 6.88686V7.21603C2.90744 7.20619 2.8874 7.19786 2.86764 7.19118C2.69411 7.13213 2.51263 7.17281 2.41616 7.292C2.3692 7.3503 2.27835 7.51382 2.44858 7.77492C2.48816 7.83555 2.57036 7.85317 2.63252 7.81491C2.6946 7.77616 2.71267 7.69543 2.67309 7.63487C2.60924 7.53653 2.60734 7.47589 2.6252 7.45373C2.64616 7.42751 2.71148 7.41402 2.78017 7.43742C2.8244 7.45243 2.9272 7.50439 2.9272 7.6613C2.9272 7.78662 2.86799 7.90148 2.76477 7.97616C2.66134 8.05103 2.52775 8.07244 2.39845 8.03293C2.23912 7.98531 2.12781 7.82103 2.12781 7.63336C2.12781 7.49909 2.1572 7.36337 2.21303 7.2406L3.06044 5.37444L3.90791 7.24066ZM2.92769 4.27097C2.9781 4.23257 3.02282 4.18659 3.06051 4.13463C3.09812 4.18659 3.14284 4.2325 3.19333 4.27097C3.14291 4.30937 3.0982 4.35534 3.06051 4.4073C3.02289 4.35521 2.97824 4.30923 2.92769 4.27097Z" fill="#FFE15A"/>
<path d="M19.0358 13.6953C20.8068 13.6953 22.2424 12.29 22.2424 10.5566C22.2424 8.82319 20.8068 7.41797 19.0358 7.41797C17.2648 7.41797 15.8291 8.82319 15.8291 10.5566C15.8291 12.29 17.2648 13.6953 19.0358 13.6953Z" fill="#FFE15A"/>
<path d="M19.277 6.55487C19.277 6.68488 19.1693 6.79031 19.0364 6.79031C18.9036 6.79031 18.7959 6.68488 18.7959 6.55487C18.7959 6.42487 19.0364 5.84863 19.0364 5.84863C19.0364 5.84863 19.277 6.42487 19.277 6.55487Z" fill="#FFE15A"/>
<path d="M18.7959 14.5587C18.7959 14.4287 18.9036 14.3232 19.0364 14.3232C19.1693 14.3232 19.277 14.4287 19.277 14.5587C19.277 14.6887 19.0364 15.2649 19.0364 15.2649C19.0364 15.2649 18.7959 14.6887 18.7959 14.5587Z" fill="#FFE15A"/>
<path d="M23.1243 10.7922C22.9915 10.7922 22.8838 10.6867 22.8838 10.5567C22.8838 10.4267 22.9915 10.3213 23.1243 10.3213C23.2571 10.3213 23.8459 10.5567 23.8459 10.5567C23.8459 10.5567 23.2571 10.7922 23.1243 10.7922Z" fill="#FFE15A"/>
<path d="M14.9471 10.3213C15.08 10.3213 15.1877 10.4267 15.1877 10.5567C15.1877 10.6867 15.08 10.7922 14.9471 10.7922C14.8143 10.7922 14.2256 10.5567 14.2256 10.5567C14.2256 10.5567 14.8143 10.3213 14.9471 10.3213Z" fill="#FFE15A"/>
<path d="M22.0981 7.89345C22.0042 7.9854 21.8519 7.9854 21.758 7.89345C21.664 7.80151 21.664 7.65244 21.758 7.5605C21.8519 7.46862 22.4382 7.22754 22.4382 7.22754C22.4382 7.22754 22.1921 7.80151 22.0981 7.89345Z" fill="#FFE15A"/>
<path d="M15.9758 13.2203C16.0698 13.1284 16.222 13.1284 16.316 13.2203C16.41 13.3123 16.41 13.4613 16.316 13.5533C16.2221 13.6453 15.6357 13.8862 15.6357 13.8862C15.6357 13.8862 15.8819 13.3123 15.9758 13.2203Z" fill="#FFE15A"/>
<path d="M21.758 13.5533C21.664 13.4614 21.664 13.3124 21.758 13.2204C21.8519 13.1283 22.0041 13.1284 22.0981 13.2204C22.1921 13.3123 22.4383 13.8862 22.4383 13.8862C22.4383 13.8862 21.8518 13.6453 21.758 13.5533Z" fill="#FFE15A"/>
<path d="M16.3161 7.56043C16.41 7.65237 16.41 7.80137 16.3161 7.89338C16.2221 7.9854 16.0699 7.98533 15.9759 7.89338C15.8819 7.80144 15.6357 7.22754 15.6357 7.22754C15.6357 7.22754 16.2221 7.46855 16.3161 7.56043Z" fill="#FFE15A"/>
<path d="M17.6927 6.7695C17.7435 6.88967 17.6853 7.02731 17.5625 7.07707C17.4397 7.12682 17.2991 7.06977 17.2483 6.94961C17.1974 6.82945 17.1943 6.20703 17.1943 6.20703C17.1943 6.20703 17.6419 6.64934 17.6927 6.7695Z" fill="#FFE15A"/>
<path d="M20.3787 14.3441C20.3279 14.2239 20.3862 14.0863 20.5089 14.0365C20.6317 13.9868 20.7723 14.0438 20.8232 14.164C20.874 14.2842 20.8771 14.9066 20.8771 14.9066C20.8771 14.9066 20.4295 14.4643 20.3787 14.3441Z" fill="#FFE15A"/>
<path d="M22.9058 9.24269C22.7831 9.29244 22.6424 9.23539 22.5916 9.11523C22.5408 8.99507 22.5991 8.85743 22.7218 8.80767C22.8446 8.75791 23.4804 8.75488 23.4804 8.75488C23.4804 8.75488 23.0286 9.19286 22.9058 9.24269Z" fill="#FFE15A"/>
<path d="M15.1665 11.8715C15.2892 11.8217 15.4299 11.8788 15.4807 11.999C15.5315 12.1191 15.4732 12.2568 15.3505 12.3065C15.2277 12.3563 14.5918 12.3593 14.5918 12.3593C14.5918 12.3593 15.0437 11.9213 15.1665 11.8715Z" fill="#FFE15A"/>
<path d="M20.8231 6.94954C20.7723 7.0697 20.6316 7.12669 20.5089 7.077C20.3861 7.02724 20.3279 6.88953 20.3787 6.76944C20.4295 6.64927 20.877 6.20703 20.877 6.20703C20.877 6.20703 20.874 6.82945 20.8231 6.94954Z" fill="#FFE15A"/>
<path d="M17.2482 14.164C17.299 14.0438 17.4397 13.9868 17.5624 14.0365C17.6851 14.0863 17.7434 14.224 17.6926 14.3441C17.6418 14.4642 17.1943 14.9065 17.1943 14.9065C17.1943 14.9065 17.1974 14.284 17.2482 14.164Z" fill="#FFE15A"/>
<path d="M22.7218 12.3065C22.599 12.2567 22.5408 12.119 22.5916 11.9989C22.6424 11.8788 22.7831 11.8218 22.9058 11.8715C23.0286 11.9212 23.4804 12.3592 23.4804 12.3592C23.4804 12.3592 22.8446 12.3563 22.7218 12.3065Z" fill="#FFE15A"/>
<path d="M15.3504 8.8076C15.4732 8.85736 15.5314 8.99507 15.4806 9.11516C15.4298 9.23532 15.2891 9.29231 15.1664 9.24262C15.0436 9.19286 14.5918 8.75488 14.5918 8.75488C14.5918 8.75488 15.2278 8.75777 15.3504 8.8076Z" fill="#FFE15A"/>
<path d="M18.4754 6.58526C18.5014 6.71278 18.4167 6.83673 18.2864 6.86205C18.1562 6.88745 18.0295 6.80459 18.0036 6.67706C17.9777 6.54954 18.0988 5.93848 18.0988 5.93848C18.0988 5.93848 18.4495 6.45773 18.4754 6.58526Z" fill="#FFE15A"/>
<path d="M19.5984 14.5275C19.5725 14.3999 19.6571 14.276 19.7874 14.2507C19.9177 14.2253 20.0443 14.3081 20.0702 14.4357C20.0962 14.5632 19.9751 15.1742 19.9751 15.1742C19.9751 15.1742 19.6243 14.6551 19.5984 14.5275Z" fill="#FFE15A"/>
<path d="M23.0941 10.0064C22.9638 10.0318 22.8372 9.94898 22.8113 9.82138C22.7854 9.69386 22.87 9.56991 23.0003 9.54458C23.1306 9.51919 23.7549 9.6377 23.7549 9.6377C23.7549 9.6377 23.2244 9.98098 23.0941 10.0064Z" fill="#FFE15A"/>
<path d="M14.9801 11.1061C15.1104 11.0807 15.2371 11.1635 15.2629 11.2911C15.2889 11.4187 15.2042 11.5426 15.0739 11.5679C14.9436 11.5933 14.3193 11.4748 14.3193 11.4748C14.3193 11.4748 14.8498 11.1315 14.9801 11.1061Z" fill="#FFE15A"/>
<path d="M21.5079 7.35968C21.4342 7.4678 21.2847 7.49684 21.1743 7.42458C21.0638 7.35239 21.0341 7.20614 21.108 7.09802C21.1817 6.98997 21.7088 6.6416 21.7088 6.6416C21.7088 6.6416 21.5817 7.25149 21.5079 7.35968Z" fill="#FFE15A"/>
<path d="M16.5642 13.7531C16.6379 13.645 16.7873 13.6159 16.8978 13.6882C17.0083 13.7603 17.0379 13.9066 16.9641 14.0147C16.8903 14.1228 16.3633 14.4711 16.3633 14.4711C16.3633 14.4711 16.4904 13.8613 16.5642 13.7531Z" fill="#FFE15A"/>
<path d="M22.3022 12.9761C22.1917 12.9039 22.1621 12.7577 22.2359 12.6495C22.3097 12.5415 22.4591 12.5124 22.5695 12.5846C22.68 12.6568 23.0358 13.1727 23.0358 13.1727C23.0358 13.1727 22.4127 13.0483 22.3022 12.9761Z" fill="#FFE15A"/>
<path d="M15.7708 8.13705C15.8812 8.20925 15.911 8.35549 15.8371 8.46361C15.7633 8.57173 15.6139 8.60077 15.5034 8.52851C15.393 8.45624 15.0371 7.94043 15.0371 7.94043C15.0371 7.94043 15.6604 8.06486 15.7708 8.13705Z" fill="#FFE15A"/>
<path d="M16.9641 7.09795C17.0379 7.20607 17.0082 7.35225 16.8978 7.42451C16.7873 7.4967 16.638 7.46766 16.5642 7.35961C16.4904 7.25149 16.3633 6.6416 16.3633 6.6416C16.3633 6.6416 16.8903 6.98997 16.9641 7.09795Z" fill="#FFE15A"/>
<path d="M21.1079 14.0157C21.0342 13.9075 21.0638 13.7614 21.1742 13.6891C21.2847 13.6169 21.434 13.6459 21.5079 13.754C21.5816 13.8621 21.7087 14.472 21.7087 14.472C21.7087 14.472 21.1818 14.1238 21.1079 14.0157Z" fill="#FFE15A"/>
<path d="M22.5695 8.52851C22.4591 8.6007 22.3097 8.57166 22.2359 8.46361C22.1621 8.35549 22.1918 8.20931 22.3022 8.13705C22.4126 8.06486 23.0357 7.94043 23.0357 7.94043C23.0357 7.94043 22.6799 8.45631 22.5695 8.52851Z" fill="#FFE15A"/>
<path d="M15.5024 12.5846C15.6128 12.5124 15.7622 12.5415 15.836 12.6495C15.9098 12.7576 15.8801 12.9038 15.7697 12.9761C15.6592 13.0483 15.0361 13.1727 15.0361 13.1727C15.0361 13.1727 15.3919 12.6569 15.5024 12.5846Z" fill="#FFE15A"/>
<path d="M20.0702 6.677C20.0443 6.80452 19.9177 6.88738 19.7874 6.86199C19.6571 6.83659 19.5725 6.71271 19.5984 6.58519C19.6244 6.45766 19.9751 5.93848 19.9751 5.93848C19.9751 5.93848 20.0961 6.5494 20.0702 6.677Z" fill="#FFE15A"/>
<path d="M18.0036 14.4366C18.0296 14.3091 18.1561 14.2263 18.2864 14.2516C18.4167 14.277 18.5014 14.4009 18.4754 14.5284C18.4495 14.656 18.0988 15.1752 18.0988 15.1752C18.0988 15.1752 17.9778 14.5642 18.0036 14.4366Z" fill="#FFE15A"/>
<path d="M22.9993 11.5679C22.8691 11.5425 22.7844 11.4187 22.8103 11.2911C22.8363 11.1636 22.9628 11.0807 23.0931 11.1061C23.2234 11.1315 23.7539 11.4748 23.7539 11.4748C23.7539 11.4748 23.1296 11.5933 22.9993 11.5679Z" fill="#FFE15A"/>
<path d="M15.0739 9.54554C15.2042 9.57094 15.2889 9.69482 15.2629 9.82234C15.237 9.94987 15.1104 10.0327 14.9801 10.0073C14.8498 9.98194 14.3193 9.63866 14.3193 9.63866C14.3193 9.63866 14.9436 9.52022 15.0739 9.54554Z" fill="#FFE15A"/>
<path d="M26.5799 11.3826C26.4859 11.3439 26.3785 11.3882 26.3394 11.4796C26.3394 11.48 26.3394 11.48 26.3394 11.48C26.3387 11.4817 26.335 11.4902 26.3288 11.5047C26.1898 11.8225 25.9022 12.287 25.6118 12.7239C25.8823 11.8717 26.1295 10.9615 26.1468 10.8975C26.1726 10.8019 26.1148 10.7037 26.0173 10.6778C25.9196 10.6521 25.8192 10.7077 25.7919 10.8029C25.6656 11.2456 25.4075 11.8281 25.1694 12.3213C25.213 11.7714 25.2213 11.262 25.2218 11.2251C25.2232 11.1277 25.1453 11.0472 25.0458 11.0426C24.9522 11.0454 24.8619 11.1122 24.8545 11.2096C24.619 14.38 21.5022 15.7983 21.1986 15.9288C21.0399 15.9442 20.3002 16.0258 19.629 16.2539C19.5528 16.2798 19.4881 16.3058 19.4235 16.3315C19.3995 16.3227 19.3738 16.3177 19.3467 16.3193C17.2864 16.4652 15.6437 15.638 14.463 13.8657C13.5709 12.5266 13.2911 11.121 13.2884 11.1069C13.2696 11.0092 13.1739 10.9462 13.0737 10.9635C12.9738 10.9821 12.9082 11.076 12.9271 11.1737C12.9346 11.2125 13.0574 11.8261 13.3954 12.6335C12.9431 11.9347 12.6279 11.088 12.5169 10.6471C12.5147 10.6383 12.5089 10.6316 12.5055 10.6235C12.5004 10.611 12.496 10.5985 12.4883 10.5877C12.4829 10.5801 12.4758 10.5745 12.4694 10.5678C12.4593 10.5574 12.4497 10.5472 12.4374 10.5394C12.4304 10.535 12.4225 10.5328 12.4148 10.5293C12.4013 10.5231 12.388 10.5169 12.3729 10.5143C12.3624 10.5123 12.3517 10.5136 12.3408 10.5134C12.3298 10.5132 12.3194 10.5105 12.3081 10.5124C12.3056 10.5128 12.3037 10.5145 12.3013 10.515C12.2989 10.5155 12.2966 10.5147 12.2943 10.5152C12.2844 10.5176 12.2769 10.5236 12.2679 10.5274C12.2564 10.5323 12.2447 10.5359 12.2346 10.5428C12.2247 10.5494 12.2173 10.5581 12.2091 10.5664C12.2009 10.5747 12.1923 10.582 12.1858 10.5915C12.1793 10.6012 12.1758 10.6122 12.1711 10.623C12.1667 10.6335 12.1616 10.6434 12.1593 10.6548C12.1569 10.6664 12.1579 10.6784 12.158 10.6906C12.158 10.7003 12.1552 10.7096 12.157 10.7195C12.1577 10.7237 12.1591 10.728 12.1599 10.7321V10.7328C12.1601 10.7336 12.1604 10.7346 12.1606 10.7354C12.2744 11.3915 12.5455 12.0716 12.7907 12.5902C12.4013 12.1578 12.076 11.6596 11.9607 11.3646C11.9574 11.356 11.9507 11.35 11.9462 11.3423C11.9394 11.3304 11.9334 11.3182 11.9242 11.3084C11.9177 11.3014 11.9097 11.2968 11.9023 11.291C11.8911 11.2822 11.8805 11.2733 11.8675 11.2672C11.8592 11.2634 11.8502 11.2621 11.8414 11.2595C11.8279 11.2555 11.8147 11.2511 11.8003 11.2502C11.789 11.2494 11.7777 11.2522 11.7663 11.2537C11.7557 11.255 11.7452 11.2537 11.7346 11.2569C11.7326 11.2575 11.7312 11.2591 11.7293 11.2598C11.7273 11.2604 11.7254 11.26 11.7234 11.2608C11.7134 11.2645 11.7063 11.2717 11.6974 11.2769C11.6869 11.2829 11.6757 11.2879 11.6668 11.2958C11.6576 11.3038 11.6513 11.3138 11.6441 11.3234C11.6373 11.3324 11.6297 11.3405 11.6247 11.3505C11.6194 11.361 11.6174 11.3725 11.6144 11.3838C11.6114 11.3949 11.6074 11.4052 11.6066 11.4168C11.6058 11.4285 11.6087 11.4401 11.6103 11.4519C11.6116 11.4621 11.6102 11.4722 11.6134 11.4822C11.8135 12.114 12.2947 12.8657 12.6718 13.3952C12.3576 13.1582 12.1267 12.9019 12.0597 12.8246C12.0524 12.8162 12.0453 12.8077 12.0381 12.7993C11.9733 12.723 11.8587 12.7121 11.7802 12.7743C11.7019 12.8369 11.6896 12.9495 11.7529 13.0264C11.7564 13.0306 11.7701 13.0475 11.7931 13.0739C12.069 13.3952 12.3696 13.6951 12.6419 13.9482L12.2694 13.7928C12.1845 13.757 12.0846 13.7893 12.0381 13.8684C11.9916 13.9475 12.0126 14.0477 12.0871 14.1025C12.1233 14.1289 12.7831 14.6112 13.3541 14.8963C13.3003 14.8995 13.2371 14.8956 13.1663 14.8903C13.08 14.8822 12.9951 14.9427 12.974 15.0284C12.9534 15.1145 12.9993 15.2025 13.0829 15.2362C13.0969 15.2419 13.271 15.3121 13.4858 15.387C13.4357 15.407 13.3958 15.4482 13.3793 15.5016C13.3546 15.5814 13.3894 15.6679 13.4633 15.7094C13.4826 15.7203 13.7426 15.8662 14.0642 15.9955C14.0556 16.0085 14.0486 16.0226 14.0434 16.038C14.0182 16.1136 14.047 16.1966 14.114 16.242C14.1698 16.2795 15.4189 17.1092 16.8778 17.1092C16.9735 17.1092 17.0703 17.1057 17.1676 17.098C17.2687 17.0902 17.3444 17.0035 17.3363 16.9043C17.3282 16.8051 17.2404 16.7302 17.1382 16.7394C16.2218 16.8126 15.3389 16.4757 14.8138 16.2184C14.8831 16.2018 14.923 16.1867 14.9329 16.1828C15.0139 16.1505 15.0606 16.0672 15.0447 15.9831C15.0289 15.899 14.9549 15.8376 14.8675 15.8358C14.6543 15.8315 14.359 15.7299 14.1047 15.6209C14.2008 15.5738 14.2569 15.5288 14.2618 15.5249C14.3171 15.4796 14.3405 15.4072 14.3216 15.339C14.3027 15.2712 14.2447 15.2201 14.1737 15.2089C14.0956 15.1962 13.9983 15.1716 13.8962 15.1414C13.9954 15.0855 14.0376 15.024 14.0538 14.9927C14.0793 14.9428 14.0798 14.8843 14.0554 14.8341C14.0308 14.7838 13.9839 14.7476 13.9282 14.7359C13.8801 14.7258 13.8256 14.7086 13.7667 14.6861C13.7775 14.6755 13.7874 14.6635 13.7954 14.6499C13.8422 14.5722 13.8229 14.4723 13.7502 14.4164C13.7464 14.4136 13.6037 14.3039 13.3875 14.1214C13.4219 14.1091 13.4522 14.0863 13.4741 14.0554C13.5204 13.99 13.5171 13.9025 13.4664 13.8405C13.4623 13.8356 13.3193 13.6597 13.1223 13.3925C13.1874 13.4419 13.2523 13.4924 13.3173 13.5333C13.3479 13.5523 13.3825 13.5618 13.4168 13.5618C13.4633 13.5618 13.5092 13.5446 13.5446 13.5111C13.5592 13.4974 13.5706 13.4815 13.5796 13.4647C13.6911 13.5813 13.8084 13.6873 13.9315 13.7776C13.9475 13.7894 13.967 13.7892 13.985 13.7951C14.0372 13.8807 14.0914 13.9665 14.1484 14.0522C15.2652 15.7341 16.8398 16.6349 18.7284 16.689C18.5545 16.7924 18.3657 16.8992 18.0668 17.0132C18.0016 17.0381 17.9439 17.063 17.886 17.088C17.858 17.0933 17.8318 17.1033 17.8098 17.1203C17.2881 17.3567 17.0721 17.5902 16.9844 17.7536C16.897 17.916 16.9724 18.0826 17.0792 18.1692C17.1124 18.1959 17.1547 18.2095 17.1971 18.2095C17.2262 18.2095 17.2553 18.2032 17.2817 18.1902C17.3467 18.1586 17.3901 18.0914 17.3873 18.0208C17.3948 18.0127 17.4268 17.9867 17.527 17.9835C17.6 17.9775 17.7538 17.9937 17.9332 18.0078C18.104 18.0215 18.3087 18.0372 18.5264 18.0481C18.3902 18.2035 18.2319 18.3836 18.2319 18.3836C18.1844 18.4378 18.1739 18.5144 18.2056 18.5787C18.2373 18.6434 18.3058 18.6835 18.3776 18.681C18.523 18.676 18.6217 18.6732 18.6865 18.6719C18.743 18.7444 18.8124 18.7731 18.8571 18.7843C18.9836 18.816 19.1096 18.7665 19.2046 18.7077C19.2764 18.7584 19.3483 18.7798 19.4052 18.7879C19.5336 18.8051 19.6526 18.7685 19.7385 18.727C19.8276 18.7833 19.9149 18.7977 19.9814 18.7977C19.9823 18.7977 19.9834 18.7977 19.9844 18.7977C20.1278 18.797 20.2534 18.7291 20.3423 18.6627C20.4208 18.7084 20.4959 18.7231 20.5539 18.7256C20.6856 18.7302 20.7947 18.6806 20.8672 18.6342C21.1264 18.6851 21.3498 18.5656 21.4975 18.4338C21.5648 18.4721 21.6289 18.4816 21.6799 18.4791C21.8112 18.4746 21.9112 18.3965 21.9754 18.3265C22.2692 18.3613 22.4801 18.3082 22.6019 18.1666C22.6684 18.0896 22.6954 18.0028 22.7027 17.9237C23.5179 17.9191 23.5916 17.4835 23.5976 17.4297C23.603 17.3808 23.5878 17.3319 23.5553 17.2944C23.5229 17.2568 23.476 17.2335 23.426 17.2307L21.2888 17.1049C21.1993 17.0986 21.1195 17.1573 21.0988 17.2428C21.0984 17.2442 21.062 17.377 20.948 17.4833C20.7946 17.6266 20.5475 17.7023 20.2789 17.7425C20.2799 17.7184 20.2764 17.6939 20.267 17.6699C20.2304 17.5772 20.1237 17.5321 20.0292 17.5669C19.588 17.7345 18.8736 17.7134 18.3148 17.6754C18.4005 17.6068 18.5037 17.5389 18.5862 17.4946C18.6558 17.457 18.6933 17.38 18.6785 17.3033C18.6678 17.2476 18.6267 17.2089 18.5771 17.184C18.7325 17.1072 18.8599 17.033 18.9808 16.9609C19.1906 16.8351 19.3888 16.7165 19.7498 16.5938C20.4466 16.3569 21.253 16.2848 21.2611 16.2841C21.2793 16.2827 21.2973 16.2781 21.3144 16.2714C21.3431 16.2598 23.6177 15.3271 24.6894 13.1751C24.6753 13.2401 24.6603 13.2996 24.6439 13.3515C24.6159 13.4402 24.6611 13.5347 24.7484 13.5705C24.8159 13.5983 24.8926 13.5839 24.9445 13.5368C24.8768 13.7115 24.8156 13.849 24.7656 13.9302C24.7146 14.0128 24.7392 14.1201 24.8213 14.1735C24.8405 14.1858 24.8611 14.1942 24.8823 14.1991C24.7993 14.318 24.7152 14.4304 24.6314 14.5335C24.5755 14.6021 24.5788 14.6999 24.6371 14.7646C24.493 14.9122 24.3654 15.0339 24.2684 15.1112C24.205 15.1615 24.1844 15.2456 24.2135 15.3173C24.1199 15.3697 24.043 15.4066 23.9898 15.4224C23.9003 15.4487 23.8454 15.537 23.8623 15.627C23.8711 15.6745 23.8983 15.7145 23.936 15.7409C23.8236 15.7704 23.7006 15.7989 23.567 15.8248C23.4917 15.8396 23.4337 15.8983 23.4213 15.9725C23.4091 16.0466 23.4451 16.1205 23.5116 16.1577C23.5174 16.1609 23.5802 16.1957 23.6764 16.2358C23.3207 16.376 22.6854 16.5592 21.643 16.6598C21.542 16.6696 21.4681 16.7579 21.4781 16.8567C21.488 16.9555 21.5753 17.024 21.6792 17.0184C23.6579 16.8268 24.269 16.342 24.2939 16.3212C24.351 16.2744 24.3737 16.1981 24.351 16.1285C24.336 16.0824 24.3029 16.0453 24.2605 16.0237C24.8926 15.829 25.164 15.6134 25.1782 15.6019C25.2474 15.5456 25.2649 15.4482 25.2193 15.3719C25.1733 15.2956 25.0776 15.2626 24.9941 15.2956C24.9706 15.3044 24.9331 15.3135 24.8856 15.3226C25.3099 15.0383 25.7602 14.6996 25.9583 14.5485C25.9931 14.5232 26.0248 14.4989 26.0526 14.476C26.1295 14.4128 26.1403 14.301 26.0768 14.2247C26.0138 14.1488 25.899 14.136 25.8204 14.1969C25.7917 14.219 25.7618 14.2419 25.731 14.2654C25.6396 14.3319 25.5226 14.4071 25.3951 14.4844C25.8766 13.9493 26.3612 13.3692 26.4998 13.2026C26.5124 13.1875 26.5247 13.1724 26.5373 13.1573C26.6009 13.0799 26.5885 12.9667 26.5095 12.9045C26.4302 12.8412 26.3144 12.8542 26.251 12.9312L26.2506 12.9315L26.2504 12.9319C26.247 12.9358 26.2315 12.9548 26.2052 12.9864C26.0602 13.1597 25.9075 13.3275 25.7568 13.4842C26.2473 12.6141 26.6187 11.7576 26.6731 11.6307C26.6751 11.6262 26.6769 11.6217 26.6789 11.617C26.7179 11.5261 26.6736 11.4206 26.5799 11.3826ZM17.9602 17.4504L18.0104 17.4568C17.9489 17.5132 17.8988 17.5763 17.8589 17.6416C17.7716 17.6347 17.6924 17.6288 17.6303 17.6259C17.7158 17.5712 17.8259 17.5118 17.9602 17.4504Z" fill="#FFE15A"/>
</svg>
