<svg width="18" height="18" viewBox="0 0 18 18" fill="none" xmlns="http://www.w3.org/2000/svg">
<path d="M3.88654 13.3359C4.95076 13.4734 5.87921 13.9055 6.5366 14.5009C6.67428 14.6256 6.623 15.0226 6.45817 15.1083C5.67111 15.5171 4.66333 15.6993 3.5991 15.5619C2.53488 15.4244 1.60643 14.9922 0.949042 14.3968C0.81136 14.2721 0.862642 13.8751 1.02747 13.7895C1.81452 13.3806 2.82231 13.1985 3.88654 13.3359Z" fill="url(#paint0_linear_1804_29487)"/>
<path d="M3.88654 13.3359C4.95076 13.4734 5.87921 13.9055 6.5366 14.5009C6.67428 14.6256 6.623 15.0226 6.45817 15.1083C5.67111 15.5171 4.66333 15.6993 3.5991 15.5619C2.53488 15.4244 1.60643 14.9922 0.949042 14.3968C0.81136 14.2721 0.862642 13.8751 1.02747 13.7895C1.81452 13.3806 2.82231 13.1985 3.88654 13.3359Z" fill="url(#paint1_linear_1804_29487)"/>
<path d="M4.01093 11.8457C5.14906 12.3391 6.04197 13.1165 6.58154 13.9883C6.69452 14.1709 6.51046 14.5955 6.29997 14.6378C5.29479 14.84 4.11699 14.7196 2.9789 14.2262C1.84077 13.7328 0.947861 12.9554 0.408285 12.0835C0.295308 11.9009 0.479367 11.4764 0.689861 11.434C1.69504 11.2319 2.8728 11.3522 4.01093 11.8457Z" fill="url(#paint2_linear_1804_29487)"/>
<path d="M4.01093 11.8457C5.14906 12.3391 6.04197 13.1165 6.58154 13.9883C6.69452 14.1709 6.51046 14.5955 6.29997 14.6378C5.29479 14.84 4.11699 14.7196 2.9789 14.2262C1.84077 13.7328 0.947861 12.9554 0.408285 12.0835C0.295308 11.9009 0.479367 11.4764 0.689861 11.434C1.69504 11.2319 2.8728 11.3522 4.01093 11.8457Z" fill="url(#paint3_linear_1804_29487)"/>
<path d="M6.06016 9.45332C6.51602 10.607 6.59773 11.7881 6.36274 12.7861C6.31354 12.9951 5.88316 13.1652 5.7044 13.0463C4.85067 12.4784 4.10296 11.5605 3.64711 10.4068C3.19125 9.25317 3.10954 8.07205 3.34453 7.07404C3.39373 6.86502 3.82411 6.69498 4.00287 6.81388C4.8566 7.38169 5.60431 8.29962 6.06016 9.45332Z" fill="url(#paint4_linear_1804_29487)"/>
<path d="M6.06016 9.45332C6.51602 10.607 6.59773 11.7881 6.36274 12.7861C6.31354 12.9951 5.88316 13.1652 5.7044 13.0463C4.85067 12.4784 4.10296 11.5605 3.64711 10.4068C3.19125 9.25317 3.10954 8.07205 3.34453 7.07404C3.39373 6.86502 3.82411 6.69498 4.00287 6.81388C4.8566 7.38169 5.60431 8.29962 6.06016 9.45332Z" fill="url(#paint5_linear_1804_29487)"/>
<path d="M4.39909 9.49673C5.55956 10.54 6.31411 11.8241 6.60938 13.0797C6.67122 13.3427 6.28203 13.7756 6.014 13.742C4.73417 13.5815 3.37732 12.9674 2.21685 11.924C1.05638 10.8808 0.301826 9.59665 0.00655571 8.34106C-0.0552796 8.07812 0.333909 7.6452 0.601932 7.6788C1.88173 7.83928 3.23862 8.45344 4.39909 9.49673Z" fill="url(#paint6_linear_1804_29487)"/>
<path d="M0.538086 9.76767C0.932851 10.5363 1.49657 11.2765 2.21678 11.924C3.37725 12.9673 4.7341 13.5815 6.01393 13.742C6.28196 13.7756 6.67114 13.3427 6.60931 13.0797C6.31404 11.8241 5.55949 10.54 4.39901 9.49672C3.71569 8.88236 2.9642 8.417 2.20051 8.10529L0.538086 9.76767Z" fill="url(#paint7_linear_1804_29487)"/>
<path d="M14.1134 13.3359C13.0492 13.4734 12.1208 13.9055 11.4634 14.5009C11.3257 14.6256 11.377 15.0226 11.5418 15.1083C12.3289 15.5171 13.3367 15.6993 14.4009 15.5619C15.4651 15.4244 16.3935 14.9922 17.0509 14.3968C17.1886 14.2721 17.1373 13.8751 16.9725 13.7895C16.1855 13.3806 15.1777 13.1985 14.1134 13.3359Z" fill="url(#paint8_linear_1804_29487)"/>
<path d="M14.1134 13.3359C13.0492 13.4734 12.1208 13.9055 11.4634 14.5009C11.3257 14.6256 11.377 15.0226 11.5418 15.1083C12.3289 15.5171 13.3367 15.6993 14.4009 15.5619C15.4651 15.4244 16.3935 14.9922 17.0509 14.3968C17.1886 14.2721 17.1373 13.8751 16.9725 13.7895C16.1855 13.3806 15.1777 13.1985 14.1134 13.3359Z" fill="url(#paint9_linear_1804_29487)"/>
<path d="M13.989 11.8457C12.8509 12.3391 11.958 13.1165 11.4184 13.9883C11.3054 14.1709 11.4895 14.5955 11.7 14.6378C12.7052 14.84 13.883 14.7196 15.0211 14.2262C16.1592 13.7328 17.0521 12.9554 17.5917 12.0835C17.7047 11.9009 17.5206 11.4764 17.3101 11.434C16.3049 11.2319 15.1272 11.3522 13.989 11.8457Z" fill="url(#paint10_linear_1804_29487)"/>
<path d="M13.989 11.8457C12.8509 12.3391 11.958 13.1165 11.4184 13.9883C11.3054 14.1709 11.4895 14.5955 11.7 14.6378C12.7052 14.84 13.883 14.7196 15.0211 14.2262C16.1592 13.7328 17.0521 12.9554 17.5917 12.0835C17.7047 11.9009 17.5206 11.4764 17.3101 11.434C16.3049 11.2319 15.1272 11.3522 13.989 11.8457Z" fill="url(#paint11_linear_1804_29487)"/>
<path d="M11.9398 9.45332C11.484 10.607 11.4023 11.7881 11.6373 12.7861C11.6865 12.9951 12.1168 13.1652 12.2956 13.0463C13.1493 12.4784 13.897 11.5605 14.3529 10.4068C14.8087 9.25317 14.8905 8.07205 14.6555 7.07404C14.6063 6.86502 14.1759 6.69498 13.9971 6.81388C13.1434 7.38169 12.3957 8.29962 11.9398 9.45332Z" fill="url(#paint12_linear_1804_29487)"/>
<path d="M11.9398 9.45332C11.484 10.607 11.4023 11.7881 11.6373 12.7861C11.6865 12.9951 12.1168 13.1652 12.2956 13.0463C13.1493 12.4784 13.897 11.5605 14.3529 10.4068C14.8087 9.25317 14.8905 8.07205 14.6555 7.07404C14.6063 6.86502 14.1759 6.69498 13.9971 6.81388C13.1434 7.38169 12.3957 8.29962 11.9398 9.45332Z" fill="url(#paint13_linear_1804_29487)"/>
<path d="M13.6009 9.49673C12.4405 10.54 11.6859 11.8241 11.3906 13.0797C11.3288 13.3427 11.718 13.7756 11.986 13.742C13.2659 13.5815 14.6227 12.9674 15.7832 11.924C16.9436 10.8808 17.6982 9.59665 17.9935 8.34106C18.0553 8.07812 17.6661 7.6452 17.3981 7.6788C16.1183 7.83928 14.7614 8.45344 13.6009 9.49673Z" fill="url(#paint14_linear_1804_29487)"/>
<path d="M17.4618 9.76768C17.067 10.5363 16.5033 11.2765 15.7831 11.924C14.6226 12.9673 13.2658 13.5815 11.986 13.742C11.7179 13.7756 11.3288 13.3427 11.3906 13.0797C11.6859 11.8241 12.4404 10.54 13.6009 9.49673C14.2842 8.88236 15.0357 8.41701 15.7994 8.10529L17.4618 9.76768Z" fill="url(#paint15_linear_1804_29487)"/>
<path d="M9.00001 18C12.0998 18 14.6127 15.4871 14.6127 12.3873C14.6127 9.28752 12.0998 6.77464 9.00001 6.77464C5.90021 6.77464 3.38733 9.28752 3.38733 12.3873C3.38733 15.4871 5.90021 18 9.00001 18Z" fill="url(#paint16_linear_1804_29487)"/>
<path d="M9.00007 16.861C11.4708 16.861 13.4738 14.8581 13.4738 12.3873C13.4738 9.91656 11.4708 7.91361 9.00007 7.91361C6.52931 7.91361 4.52637 9.91656 4.52637 12.3873C4.52637 14.8581 6.52931 16.861 9.00007 16.861Z" fill="url(#paint17_linear_1804_29487)"/>
<path d="M8.99989 16.228C11.121 16.228 12.8406 14.5085 12.8406 12.3873C12.8406 10.2662 11.121 8.54662 8.99989 8.54662C6.87872 8.54662 5.15918 10.2662 5.15918 12.3873C5.15918 14.5085 6.87872 16.228 8.99989 16.228Z" fill="url(#paint18_linear_1804_29487)"/>
<path d="M3.38733 12.3873C3.38733 15.4871 5.9002 18 9.00001 18C12.0998 18 14.6127 15.4871 14.6127 12.3873C14.6127 12.3655 14.6121 12.3439 14.6119 12.3222H3.38814C3.38789 12.3439 3.38733 12.3655 3.38733 12.3873Z" fill="url(#paint19_linear_1804_29487)"/>
<path d="M10.5742 17.7759C12.3428 17.2601 13.7501 15.8976 14.328 14.1564L11.5943 11.4228L10.978 11.453L9.31478 9.78975L7.28766 14.4893L10.5742 17.7759Z" fill="url(#paint20_linear_1804_29487)"/>
<path d="M11.3014 11.1677L10.2007 10.9018C10.0983 10.877 10.0089 10.815 9.94981 10.7277L9.31529 9.78977C9.23852 9.67634 9.12096 9.61546 8.99997 9.60564C8.87898 9.61546 8.76138 9.67634 8.68465 9.78977L8.05014 10.7277C7.99112 10.815 7.90165 10.877 7.79923 10.9018L6.69851 11.1677C6.39993 11.2399 6.27551 11.5962 6.46427 11.8386L7.16023 12.7319C7.22496 12.815 7.25637 12.9192 7.24825 13.0243L7.16104 14.1533C7.1374 14.4595 7.43785 14.688 7.72667 14.5834L8.79131 14.1975C8.85858 14.1731 8.93034 14.1668 8.99997 14.1776C9.06964 14.1669 9.14136 14.1732 9.20863 14.1975L10.2733 14.5834C10.5621 14.688 10.8625 14.4595 10.8389 14.1533L10.7517 13.0243C10.7436 12.9192 10.775 12.815 10.8397 12.7319L11.5357 11.8386C11.7244 11.5962 11.6 11.2399 11.3014 11.1677Z" fill="url(#paint21_linear_1804_29487)"/>
<path d="M9.20866 14.1975L10.2733 14.5834C10.5621 14.688 10.8626 14.4595 10.8389 14.1533L10.7517 13.0243C10.7436 12.9192 10.775 12.815 10.8397 12.7319L11.5357 11.8386C11.7245 11.5963 11.6 11.2399 11.3015 11.1677L10.2007 10.9018C10.0984 10.877 10.0089 10.815 9.94983 10.7277L9.31532 9.78977C9.23855 9.67634 9.12099 9.61546 9 9.60564V14.1776C9.06967 14.1668 9.14142 14.1731 9.20866 14.1975Z" fill="url(#paint22_linear_1804_29487)"/>
<path d="M11.3013 11.1677L10.2006 10.9018C10.163 10.8927 10.1273 10.8785 10.094 10.86L7.28809 14.4894C7.39817 14.5957 7.56423 14.6422 7.72658 14.5834L8.79123 14.1975C8.8585 14.1732 8.93025 14.1669 8.99989 14.1777C9.06956 14.1669 9.14127 14.1732 9.20854 14.1975L10.2732 14.5834C10.562 14.688 10.8625 14.4596 10.8388 14.1533L10.7516 13.0243C10.7435 12.9193 10.7749 12.815 10.8396 12.7319L11.5356 11.8386C11.7243 11.5962 11.5999 11.2399 11.3013 11.1677Z" fill="url(#paint23_linear_1804_29487)"/>
<path d="M6.69851 11.1677L7.79923 10.9018C7.83682 10.8927 7.87261 10.8785 7.90582 10.86L10.7118 14.4894C10.6017 14.5957 10.4356 14.6422 10.2733 14.5834L9.20863 14.1976C9.14136 14.1732 9.06961 14.1669 8.99997 14.1777C8.9303 14.1669 8.85858 14.1732 8.79131 14.1976L7.72667 14.5834C7.43789 14.688 7.1374 14.4596 7.16104 14.1533L7.24825 13.0243C7.25637 12.9193 7.22496 12.815 7.16023 12.7319L6.46427 11.8386C6.27551 11.5962 6.39993 11.2399 6.69851 11.1677Z" fill="url(#paint24_linear_1804_29487)"/>
<path d="M6.40552 11.4228C6.35318 11.5548 6.36574 11.7121 6.46425 11.8386L7.16021 12.7319C7.22494 12.815 7.25635 12.9192 7.24824 13.0243L7.16103 14.1533C7.13738 14.4595 7.43784 14.688 7.72665 14.5834L8.7913 14.1975C8.85857 14.1731 8.93032 14.1668 8.99995 14.1776C9.06963 14.1669 9.14134 14.1732 9.20861 14.1975L10.2733 14.5834C10.562 14.688 10.8625 14.4595 10.8389 14.1533L10.7517 13.0243C10.7472 12.966 10.7552 12.9081 10.774 12.8538L6.40552 11.4228Z" fill="url(#paint25_linear_1804_29487)"/>
<path d="M11.5949 11.4228C11.6472 11.5548 11.6347 11.7121 11.5362 11.8386L10.8402 12.7319C10.7755 12.815 10.7441 12.9192 10.7522 13.0243L10.8394 14.1533C10.863 14.4596 10.5625 14.688 10.2738 14.5834L9.20912 14.1975C9.14185 14.1731 9.07009 14.1669 9.00046 14.1777C8.93079 14.1669 8.85907 14.1732 8.7918 14.1975L7.72715 14.5834C7.43837 14.688 7.13788 14.4596 7.16153 14.1533L7.24874 13.0243C7.25326 12.966 7.24517 12.9081 7.2264 12.8538L11.5949 11.4228Z" fill="url(#paint26_linear_1804_29487)"/>
<path d="M8.99997 6.77464C8.97668 6.77464 8.95356 6.77524 8.93034 6.77552L8.06415 7.64171L14.3875 13.965C14.5338 13.4645 14.6127 12.9351 14.6127 12.3873C14.6127 9.28751 12.0998 6.77464 8.99997 6.77464Z" fill="url(#paint27_linear_1804_29487)"/>
<path d="M5.61163 0.117638V3.08234L8.99987 6.47058L12.3881 3.08234V0.117638H5.61163Z" fill="url(#paint28_linear_1804_29487)"/>
<path d="M5.61163 0.117638V1.0403L8.98854 4.4172C8.99479 4.42345 9.00495 4.42345 9.0112 4.4172L12.3881 1.0403V0.117638H5.61163Z" fill="url(#paint29_linear_1804_29487)"/>
<path d="M5.61163 0.117638V1.0403L8.98854 4.4172C8.99479 4.42345 9.00495 4.42345 9.0112 4.4172L12.3881 1.0403V0.117638H5.61163Z" fill="url(#paint30_linear_1804_29487)"/>
<path d="M8.99987 4.95106C8.86017 4.95106 8.72052 4.89791 8.61421 4.79157L5.61163 1.78899V3.08238L8.99987 6.47062L12.3881 3.08238V1.78899L9.38553 4.79157C9.27922 4.89788 9.13956 4.95106 8.99987 4.95106Z" fill="url(#paint31_linear_1804_29487)"/>
<path d="M8.99987 4.95106C8.86017 4.95106 8.72052 4.89791 8.61421 4.79157L5.61163 1.78899V3.08238L8.99987 6.47062L12.3881 3.08238V1.78899L9.38553 4.79157C9.27922 4.89788 9.13956 4.95106 8.99987 4.95106Z" fill="url(#paint32_linear_1804_29487)"/>
<path d="M8.99987 4.95106C9.13956 4.95106 9.27922 4.89791 9.38553 4.79157L12.3881 1.78899V3.08238L8.99987 6.47062L5.61163 3.08238V1.78899L8.61421 4.79157C8.72052 4.89788 8.86021 4.95106 8.99987 4.95106Z" fill="url(#paint33_linear_1804_29487)"/>
<path d="M8.62834 5.70096L5.74503 2.81764C5.52881 2.60143 5.17824 2.60143 4.96202 2.81764C4.74581 3.03385 4.74581 3.38443 4.96202 3.60064L8.99988 7.63857L13.0378 3.60067C13.254 3.38446 13.254 3.03389 13.0378 2.81767C12.8216 2.60146 12.471 2.60146 12.2548 2.81767L9.37146 5.70099C9.16623 5.90619 8.83354 5.90619 8.62834 5.70096Z" fill="url(#paint34_linear_1804_29487)"/>
<path d="M4.9621 2.8242L8.57484 6.43694C8.80965 6.67176 9.19037 6.67176 9.42518 6.43694L13.0379 2.8242C13.0389 2.82314 13.0398 2.82198 13.0409 2.82092C13.0398 2.81986 13.0389 2.8187 13.0379 2.81764C12.8217 2.60143 12.4711 2.60143 12.2549 2.81764L9.37157 5.70096C9.16637 5.90616 8.83365 5.90616 8.62845 5.70096L5.74513 2.81764C5.52892 2.60143 5.17834 2.60143 4.96213 2.81764C4.96107 2.8187 4.96023 2.81986 4.95917 2.82092C4.96019 2.82198 4.96104 2.82314 4.9621 2.8242Z" fill="url(#paint35_linear_1804_29487)"/>
<path d="M8.99977 7.63857L11.8501 4.78825H10.2841L9.37131 5.70099C9.16611 5.90619 8.83339 5.90619 8.62819 5.70099L7.71545 4.78825H6.14941L8.99977 7.63857Z" fill="url(#paint36_linear_1804_29487)"/>
<path d="M8.64685 7.28562L8.99979 7.63856L12.6148 4.02352H11.0488L9.37137 5.70094C9.17213 5.90018 8.85311 5.90537 8.64685 5.71778V7.28562Z" fill="url(#paint37_linear_1804_29487)"/>
<path d="M8.99985 8.02934C9.73078 8.02934 10.3233 7.43681 10.3233 6.70588C10.3233 5.97496 9.73078 5.38242 8.99985 5.38242C8.26892 5.38242 7.67639 5.97496 7.67639 6.70588C7.67639 7.43681 8.26892 8.02934 8.99985 8.02934Z" fill="url(#paint38_linear_1804_29487)"/>
<path d="M8.99984 7.46463C9.41889 7.46463 9.75859 7.12493 9.75859 6.70588C9.75859 6.28683 9.41889 5.94713 8.99984 5.94713C8.58079 5.94713 8.24109 6.28683 8.24109 6.70588C8.24109 7.12493 8.58079 7.46463 8.99984 7.46463Z" fill="url(#paint39_linear_1804_29487)"/>
<path d="M12.9 1.31764H5.09984C4.87572 1.31764 4.69403 1.13594 4.69403 0.911824V0.405812C4.69403 0.181694 4.87572 0 5.09984 0H12.9C13.1241 0 13.3058 0.181694 13.3058 0.405812V0.911859C13.3058 1.13598 13.1241 1.31764 12.9 1.31764Z" fill="url(#paint40_linear_1804_29487)"/>
<defs>
<linearGradient id="paint0_linear_1804_29487" x1="2.56661" y1="12.8272" x2="3.73131" y2="14.433" gradientUnits="userSpaceOnUse">
<stop stop-color="#FEF0AE"/>
<stop offset="1" stop-color="#FBC56D"/>
</linearGradient>
<linearGradient id="paint1_linear_1804_29487" x1="2.46055" y1="13.8571" x2="4.29584" y2="14.7041" gradientUnits="userSpaceOnUse">
<stop stop-color="#DC8758" stop-opacity="0"/>
<stop offset="0.9957" stop-color="#DC8758" stop-opacity="0.996"/>
<stop offset="1" stop-color="#DC8758"/>
</linearGradient>
<linearGradient id="paint2_linear_1804_29487" x1="1.37192" y1="11.4583" x2="3.29545" y2="12.8877" gradientUnits="userSpaceOnUse">
<stop stop-color="#FEF0AE"/>
<stop offset="1" stop-color="#FBC56D"/>
</linearGradient>
<linearGradient id="paint3_linear_1804_29487" x1="2.17832" y1="13.0572" x2="3.63713" y2="13.0337" gradientUnits="userSpaceOnUse">
<stop stop-color="#DC8758" stop-opacity="0"/>
<stop offset="0.9957" stop-color="#DC8758" stop-opacity="0.996"/>
<stop offset="1" stop-color="#DC8758"/>
</linearGradient>
<linearGradient id="paint4_linear_1804_29487" x1="5.23622" y1="8.17013" x2="4.79505" y2="10.1995" gradientUnits="userSpaceOnUse">
<stop stop-color="#FEF0AE"/>
<stop offset="1" stop-color="#FBC56D"/>
</linearGradient>
<linearGradient id="paint5_linear_1804_29487" x1="3.32985" y1="8.37452" x2="4.45926" y2="9.52744" gradientUnits="userSpaceOnUse">
<stop stop-color="#DC8758" stop-opacity="0"/>
<stop offset="0.9957" stop-color="#DC8758" stop-opacity="0.996"/>
<stop offset="1" stop-color="#DC8758"/>
</linearGradient>
<linearGradient id="paint6_linear_1804_29487" x1="2.65157" y1="8.65761" x2="3.62216" y2="11.6929" gradientUnits="userSpaceOnUse">
<stop stop-color="#FEF0AE"/>
<stop offset="1" stop-color="#FBC56D"/>
</linearGradient>
<linearGradient id="paint7_linear_1804_29487" x1="2.84703" y1="10.3104" x2="4.09407" y2="11.3928" gradientUnits="userSpaceOnUse">
<stop stop-color="#DC8758" stop-opacity="0"/>
<stop offset="0.9957" stop-color="#DC8758" stop-opacity="0.996"/>
<stop offset="1" stop-color="#DC8758"/>
</linearGradient>
<linearGradient id="paint8_linear_1804_29487" x1="15.4333" y1="12.8272" x2="14.2686" y2="14.433" gradientUnits="userSpaceOnUse">
<stop stop-color="#FEF0AE"/>
<stop offset="1" stop-color="#FBC56D"/>
</linearGradient>
<linearGradient id="paint9_linear_1804_29487" x1="15.5394" y1="13.8571" x2="13.7041" y2="14.7041" gradientUnits="userSpaceOnUse">
<stop stop-color="#DC8758" stop-opacity="0"/>
<stop offset="0.9957" stop-color="#DC8758" stop-opacity="0.996"/>
<stop offset="1" stop-color="#DC8758"/>
</linearGradient>
<linearGradient id="paint10_linear_1804_29487" x1="16.628" y1="11.4583" x2="14.7045" y2="12.8877" gradientUnits="userSpaceOnUse">
<stop stop-color="#FEF0AE"/>
<stop offset="1" stop-color="#FBC56D"/>
</linearGradient>
<linearGradient id="paint11_linear_1804_29487" x1="15.8216" y1="13.0572" x2="14.3628" y2="13.0337" gradientUnits="userSpaceOnUse">
<stop stop-color="#DC8758" stop-opacity="0"/>
<stop offset="0.9957" stop-color="#DC8758" stop-opacity="0.996"/>
<stop offset="1" stop-color="#DC8758"/>
</linearGradient>
<linearGradient id="paint12_linear_1804_29487" x1="12.7638" y1="8.17013" x2="13.2049" y2="10.1995" gradientUnits="userSpaceOnUse">
<stop stop-color="#FEF0AE"/>
<stop offset="1" stop-color="#FBC56D"/>
</linearGradient>
<linearGradient id="paint13_linear_1804_29487" x1="14.6701" y1="8.37452" x2="13.5407" y2="9.52744" gradientUnits="userSpaceOnUse">
<stop stop-color="#DC8758" stop-opacity="0"/>
<stop offset="0.9957" stop-color="#DC8758" stop-opacity="0.996"/>
<stop offset="1" stop-color="#DC8758"/>
</linearGradient>
<linearGradient id="paint14_linear_1804_29487" x1="15.3485" y1="8.65761" x2="14.3779" y2="11.6929" gradientUnits="userSpaceOnUse">
<stop stop-color="#FEF0AE"/>
<stop offset="1" stop-color="#FBC56D"/>
</linearGradient>
<linearGradient id="paint15_linear_1804_29487" x1="15.1529" y1="10.3104" x2="13.9058" y2="11.3928" gradientUnits="userSpaceOnUse">
<stop stop-color="#DC8758" stop-opacity="0"/>
<stop offset="0.9957" stop-color="#DC8758" stop-opacity="0.996"/>
<stop offset="1" stop-color="#DC8758"/>
</linearGradient>
<linearGradient id="paint16_linear_1804_29487" x1="5.53956" y1="8.92687" x2="11.459" y2="14.8463" gradientUnits="userSpaceOnUse">
<stop stop-color="#FEF0AE"/>
<stop offset="1" stop-color="#FBC56D"/>
</linearGradient>
<linearGradient id="paint17_linear_1804_29487" x1="11.9057" y1="15.2929" x2="6.00967" y2="9.39692" gradientUnits="userSpaceOnUse">
<stop stop-color="#FEF0AE"/>
<stop offset="1" stop-color="#FBC56D"/>
</linearGradient>
<linearGradient id="paint18_linear_1804_29487" x1="6.2078" y1="9.59525" x2="10.8037" y2="14.1911" gradientUnits="userSpaceOnUse">
<stop stop-color="#FEF0AE"/>
<stop offset="1" stop-color="#FBC56D"/>
</linearGradient>
<linearGradient id="paint19_linear_1804_29487" x1="9.00001" y1="14.0295" x2="9.00001" y2="17.7135" gradientUnits="userSpaceOnUse">
<stop stop-color="#DC8758" stop-opacity="0"/>
<stop offset="0.9957" stop-color="#DC8758" stop-opacity="0.996"/>
<stop offset="1" stop-color="#DC8758"/>
</linearGradient>
<linearGradient id="paint20_linear_1804_29487" x1="12.3616" y1="15.3042" x2="7.72626" y2="12.3866" gradientUnits="userSpaceOnUse">
<stop stop-color="#DC8758" stop-opacity="0"/>
<stop offset="0.9957" stop-color="#DC8758" stop-opacity="0.996"/>
<stop offset="1" stop-color="#DC8758"/>
</linearGradient>
<linearGradient id="paint21_linear_1804_29487" x1="7.83082" y1="11.3205" x2="9.93915" y2="13.4288" gradientUnits="userSpaceOnUse">
<stop stop-color="#FBC56D"/>
<stop offset="1" stop-color="#C5715A"/>
</linearGradient>
<linearGradient id="paint22_linear_1804_29487" x1="10.2633" y1="11.8953" x2="7.34929" y2="13.1" gradientUnits="userSpaceOnUse">
<stop stop-color="#8C3D27" stop-opacity="0"/>
<stop offset="1" stop-color="#8C3D27"/>
</linearGradient>
<linearGradient id="paint23_linear_1804_29487" x1="9.50233" y1="12.9294" x2="7.90697" y2="12.2457" gradientUnits="userSpaceOnUse">
<stop stop-color="#8C3D27" stop-opacity="0"/>
<stop offset="1" stop-color="#8C3D27"/>
</linearGradient>
<linearGradient id="paint24_linear_1804_29487" x1="8.49753" y1="12.9294" x2="10.0929" y2="12.2457" gradientUnits="userSpaceOnUse">
<stop stop-color="#8C3D27" stop-opacity="0"/>
<stop offset="1" stop-color="#8C3D27"/>
</linearGradient>
<linearGradient id="paint25_linear_1804_29487" x1="8.53298" y1="13.0094" x2="9.55855" y2="11.3612" gradientUnits="userSpaceOnUse">
<stop stop-color="#8C3D27" stop-opacity="0"/>
<stop offset="1" stop-color="#8C3D27"/>
</linearGradient>
<linearGradient id="paint26_linear_1804_29487" x1="9.38838" y1="12.8013" x2="9.30293" y2="11.1897" gradientUnits="userSpaceOnUse">
<stop stop-color="#8C3D27" stop-opacity="0"/>
<stop offset="1" stop-color="#8C3D27"/>
</linearGradient>
<linearGradient id="paint27_linear_1804_29487" x1="11.7658" y1="10.0162" x2="9.60106" y2="6.22796" gradientUnits="userSpaceOnUse">
<stop stop-color="#DC8758" stop-opacity="0"/>
<stop offset="0.9957" stop-color="#DC8758" stop-opacity="0.996"/>
<stop offset="1" stop-color="#DC8758"/>
</linearGradient>
<linearGradient id="paint28_linear_1804_29487" x1="9.25088" y1="2.00033" x2="10.645" y2="4.22386" gradientUnits="userSpaceOnUse">
<stop stop-color="#F9F5F3"/>
<stop offset="1" stop-color="#D8E8F0"/>
</linearGradient>
<linearGradient id="paint29_linear_1804_29487" x1="7.86033" y1="-0.727762" x2="12.1898" y2="4.23692" gradientUnits="userSpaceOnUse">
<stop stop-color="#FD4755"/>
<stop offset="1" stop-color="#A72B2B"/>
</linearGradient>
<linearGradient id="paint30_linear_1804_29487" x1="8.99987" y1="2.34706" x2="8.99987" y2="1.18116" gradientUnits="userSpaceOnUse">
<stop stop-color="#A72B2B" stop-opacity="0"/>
<stop offset="1" stop-color="#42210B"/>
</linearGradient>
<linearGradient id="paint31_linear_1804_29487" x1="6.94063" y1="0.0742644" x2="11.27" y2="5.03895" gradientUnits="userSpaceOnUse">
<stop stop-color="#FD4755"/>
<stop offset="1" stop-color="#A72B2B"/>
</linearGradient>
<linearGradient id="paint32_linear_1804_29487" x1="10.3409" y1="3.77665" x2="10.9433" y2="4.37912" gradientUnits="userSpaceOnUse">
<stop stop-color="#A72B2B" stop-opacity="0"/>
<stop offset="1" stop-color="#42210B"/>
</linearGradient>
<linearGradient id="paint33_linear_1804_29487" x1="7.65887" y1="3.77665" x2="7.0564" y2="4.37912" gradientUnits="userSpaceOnUse">
<stop stop-color="#A72B2B" stop-opacity="0"/>
<stop offset="1" stop-color="#42210B"/>
</linearGradient>
<linearGradient id="paint34_linear_1804_29487" x1="12.0594" y1="6.26866" x2="4.82198" y2="-0.96875" gradientUnits="userSpaceOnUse">
<stop stop-color="#FEF0AE"/>
<stop offset="1" stop-color="#FBC56D"/>
</linearGradient>
<linearGradient id="paint35_linear_1804_29487" x1="8.99999" y1="2.88237" x2="8.99999" y2="7.82492" gradientUnits="userSpaceOnUse">
<stop stop-color="#FEF0AE"/>
<stop offset="1" stop-color="#FBC56D"/>
</linearGradient>
<linearGradient id="paint36_linear_1804_29487" x1="8.99977" y1="5.75295" x2="8.99977" y2="7.37803" gradientUnits="userSpaceOnUse">
<stop stop-color="#DC8758" stop-opacity="0"/>
<stop offset="0.9957" stop-color="#DC8758" stop-opacity="0.996"/>
<stop offset="1" stop-color="#DC8758"/>
</linearGradient>
<linearGradient id="paint37_linear_1804_29487" x1="10.668" y1="4.83278" x2="9.6798" y2="5.83866" gradientUnits="userSpaceOnUse">
<stop stop-color="#DC8758" stop-opacity="0"/>
<stop offset="0.9957" stop-color="#DC8758" stop-opacity="0.996"/>
<stop offset="1" stop-color="#DC8758"/>
</linearGradient>
<linearGradient id="paint38_linear_1804_29487" x1="8.24103" y1="5.94706" x2="10.1127" y2="7.81871" gradientUnits="userSpaceOnUse">
<stop stop-color="#FBC56D"/>
<stop offset="1" stop-color="#C5715A"/>
</linearGradient>
<linearGradient id="paint39_linear_1804_29487" x1="9.74102" y1="7.44706" x2="7.98771" y2="5.69375" gradientUnits="userSpaceOnUse">
<stop stop-color="#FBC56D"/>
<stop offset="1" stop-color="#C5715A"/>
</linearGradient>
<linearGradient id="paint40_linear_1804_29487" x1="8.99991" y1="0.399988" x2="8.99991" y2="1.13545" gradientUnits="userSpaceOnUse">
<stop stop-color="#FEF0AE"/>
<stop offset="1" stop-color="#FBC56D"/>
</linearGradient>
</defs>
</svg>
