<svg width="20" height="20" viewBox="0 0 20 20" fill="none" xmlns="http://www.w3.org/2000/svg">
<path d="M4.31885 14.8169C5.50132 14.9696 6.53293 15.4498 7.26336 16.1114C7.41634 16.2499 7.35936 16.691 7.17622 16.7862C6.30171 17.2405 5.18195 17.4429 3.99948 17.2902C2.81701 17.1375 1.7854 16.6573 1.05497 15.9957C0.901986 15.8572 0.958966 15.4161 1.1421 15.3209C2.01661 14.8666 3.13638 14.6642 4.31885 14.8169Z" fill="url(#paint0_linear_2732_70709)"/>
<path d="M4.31885 14.8169C5.50132 14.9696 6.53293 15.4498 7.26336 16.1114C7.41634 16.2499 7.35936 16.691 7.17622 16.7862C6.30171 17.2405 5.18195 17.4429 3.99948 17.2902C2.81701 17.1375 1.7854 16.6573 1.05497 15.9957C0.901986 15.8572 0.958966 15.4161 1.1421 15.3209C2.01661 14.8666 3.13638 14.6642 4.31885 14.8169Z" fill="url(#paint1_linear_2732_70709)"/>
<path d="M4.45716 13.1611C5.72175 13.7094 6.71387 14.5732 7.3134 15.5419C7.43893 15.7447 7.23442 16.2165 7.00053 16.2635C5.88367 16.4882 4.575 16.3544 3.31045 15.8062C2.04587 15.2579 1.05375 14.3942 0.45422 13.4254C0.32869 13.2225 0.5332 12.7508 0.767082 12.7038C1.88395 12.4792 3.19257 12.6129 4.45716 13.1611Z" fill="url(#paint2_linear_2732_70709)"/>
<path d="M4.45716 13.1611C5.72175 13.7094 6.71387 14.5732 7.3134 15.5419C7.43893 15.7447 7.23442 16.2165 7.00053 16.2635C5.88367 16.4882 4.575 16.3544 3.31045 15.8062C2.04587 15.2579 1.05375 14.3942 0.45422 13.4254C0.32869 13.2225 0.5332 12.7508 0.767082 12.7038C1.88395 12.4792 3.19257 12.6129 4.45716 13.1611Z" fill="url(#paint3_linear_2732_70709)"/>
<path d="M6.73379 10.5036C7.2403 11.7855 7.33108 13.0978 7.06998 14.2067C7.01532 14.439 6.53712 14.6279 6.33849 14.4958C5.38991 13.8649 4.55912 12.8449 4.05261 11.5631C3.5461 10.2812 3.45532 8.9689 3.71641 7.85999C3.77108 7.62776 4.24928 7.43882 4.4479 7.57093C5.39649 8.20184 6.22728 9.22176 6.73379 10.5036Z" fill="url(#paint4_linear_2732_70709)"/>
<path d="M6.73379 10.5036C7.2403 11.7855 7.33108 13.0978 7.06998 14.2067C7.01532 14.439 6.53712 14.6279 6.33849 14.4958C5.38991 13.8649 4.55912 12.8449 4.05261 11.5631C3.5461 10.2812 3.45532 8.9689 3.71641 7.85999C3.77108 7.62776 4.24928 7.43882 4.4479 7.57093C5.39649 8.20184 6.22728 9.22176 6.73379 10.5036Z" fill="url(#paint5_linear_2732_70709)"/>
<path d="M4.88787 10.5522C6.17729 11.7115 7.01568 13.1382 7.34376 14.5333C7.41246 14.8255 6.98003 15.3065 6.68223 15.2692C5.26019 15.0909 3.75258 14.4085 2.46317 13.2493C1.17375 12.09 0.335363 10.6633 0.00728413 9.26817C-0.0614218 8.97601 0.37101 8.49499 0.668814 8.53232C2.09081 8.71064 3.59846 9.39303 4.88787 10.5522Z" fill="url(#paint6_linear_2732_70709)"/>
<path d="M0.597656 10.853C1.03628 11.707 1.66264 12.5295 2.46287 13.2489C3.75228 14.4081 5.25989 15.0905 6.68193 15.2688C6.97973 15.3062 7.41217 14.8252 7.34346 14.533C7.01538 13.1379 6.17699 11.7111 4.88758 10.5519C4.12832 9.86927 3.29334 9.35221 2.44479 9.00586L0.597656 10.853Z" fill="url(#paint7_linear_2732_70709)"/>
<path d="M15.6811 14.8169C14.4986 14.9696 13.467 15.4498 12.7366 16.1114C12.5836 16.2499 12.6406 16.691 12.8237 16.7862C13.6983 17.2405 14.818 17.4429 16.0005 17.2902C17.183 17.1375 18.2146 16.6573 18.945 15.9957C19.098 15.8572 19.041 15.4161 18.8579 15.3209C17.9834 14.8666 16.8636 14.6642 15.6811 14.8169Z" fill="url(#paint8_linear_2732_70709)"/>
<path d="M15.6811 14.8169C14.4986 14.9696 13.467 15.4498 12.7366 16.1114C12.5836 16.2499 12.6406 16.691 12.8237 16.7862C13.6983 17.2405 14.818 17.4429 16.0005 17.2902C17.183 17.1375 18.2146 16.6573 18.945 15.9957C19.098 15.8572 19.041 15.4161 18.8579 15.3209C17.9834 14.8666 16.8636 14.6642 15.6811 14.8169Z" fill="url(#paint9_linear_2732_70709)"/>
<path d="M15.5429 13.1611C14.2783 13.7094 13.2862 14.5732 12.6866 15.5419C12.5611 15.7447 12.7656 16.2165 12.9995 16.2635C14.1164 16.4882 15.425 16.3544 16.6896 15.8062C17.9542 15.2579 18.9463 14.3942 19.5458 13.4254C19.6713 13.2225 19.4668 12.7508 19.233 12.7038C18.1161 12.4792 16.8075 12.6129 15.5429 13.1611Z" fill="url(#paint10_linear_2732_70709)"/>
<path d="M15.5429 13.1611C14.2783 13.7094 13.2862 14.5732 12.6866 15.5419C12.5611 15.7447 12.7656 16.2165 12.9995 16.2635C14.1164 16.4882 15.425 16.3544 16.6896 15.8062C17.9542 15.2579 18.9463 14.3942 19.5458 13.4254C19.6713 13.2225 19.4668 12.7508 19.233 12.7038C18.1161 12.4792 16.8075 12.6129 15.5429 13.1611Z" fill="url(#paint11_linear_2732_70709)"/>
<path d="M13.2655 10.5036C12.759 11.7855 12.6682 13.0978 12.9293 14.2067C12.984 14.439 13.4622 14.6279 13.6608 14.4958C14.6094 13.8649 15.4402 12.8449 15.9467 11.5631C16.4532 10.2812 16.544 8.9689 16.2829 7.85999C16.2282 7.62776 15.75 7.43882 15.5514 7.57093C14.6028 8.20184 13.772 9.22176 13.2655 10.5036Z" fill="url(#paint12_linear_2732_70709)"/>
<path d="M13.2655 10.5036C12.759 11.7855 12.6682 13.0978 12.9293 14.2067C12.984 14.439 13.4622 14.6279 13.6608 14.4958C14.6094 13.8649 15.4402 12.8449 15.9467 11.5631C16.4532 10.2812 16.544 8.9689 16.2829 7.85999C16.2282 7.62776 15.75 7.43882 15.5514 7.57093C14.6028 8.20184 13.772 9.22176 13.2655 10.5036Z" fill="url(#paint13_linear_2732_70709)"/>
<path d="M15.1116 10.5522C13.8222 11.7115 12.9838 13.1382 12.6557 14.5333C12.587 14.8255 13.0194 15.3065 13.3173 15.2692C14.7393 15.0909 16.2469 14.4085 17.5363 13.2493C18.8257 12.09 19.6641 10.6633 19.9922 9.26817C20.0609 8.97601 19.6285 8.49499 19.3307 8.53232C17.9087 8.71064 16.401 9.39303 15.1116 10.5522Z" fill="url(#paint14_linear_2732_70709)"/>
<path d="M19.4015 10.8532C18.9629 11.7072 18.3365 12.5297 17.5363 13.2492C16.2469 14.4084 14.7393 15.0908 13.3173 15.2691C13.0194 15.3064 12.587 14.8254 12.6557 14.5332C12.9838 13.1381 13.8222 11.7114 15.1116 10.5521C15.8709 9.86952 16.7058 9.35246 17.5544 9.0061L19.4015 10.8532Z" fill="url(#paint15_linear_2732_70709)"/>
<path d="M9.99999 20C13.4442 20 16.2363 17.2079 16.2363 13.7637C16.2363 10.3194 13.4442 7.52734 9.99999 7.52734C6.55576 7.52734 3.76367 10.3194 3.76367 13.7637C3.76367 17.2079 6.55576 20 9.99999 20Z" fill="url(#paint16_linear_2732_70709)"/>
<path d="M10.0001 18.7343C12.7454 18.7343 14.9709 16.5088 14.9709 13.7635C14.9709 11.0182 12.7454 8.79272 10.0001 8.79272C7.25479 8.79272 5.0293 11.0182 5.0293 13.7635C5.0293 16.5088 7.25479 18.7343 10.0001 18.7343Z" fill="url(#paint17_linear_2732_70709)"/>
<path d="M9.99987 18.032C12.3567 18.032 14.2673 16.1214 14.2673 13.7645C14.2673 11.4077 12.3567 9.49707 9.99987 9.49707C7.64302 9.49707 5.73242 11.4077 5.73242 13.7645C5.73242 16.1214 7.64302 18.032 9.99987 18.032Z" fill="url(#paint18_linear_2732_70709)"/>
<path d="M3.76367 13.7638C3.76367 17.208 6.55575 20.0001 9.99999 20.0001C13.4442 20.0001 16.2363 17.208 16.2363 13.7638C16.2363 13.7396 16.2357 13.7156 16.2354 13.6914H3.76457C3.7643 13.7156 3.76367 13.7396 3.76367 13.7638Z" fill="url(#paint19_linear_2732_70709)"/>
<path d="M11.7494 19.7514C13.7144 19.1783 15.2781 17.6644 15.9202 15.7298L12.8828 12.6924L12.1981 12.726L10.35 10.8779L8.09766 16.0997L11.7494 19.7514Z" fill="url(#paint20_linear_2732_70709)"/>
<path d="M12.5572 12.4085L11.3341 12.113C11.2204 12.0855 11.121 12.0165 11.0554 11.9196L10.3503 10.8774C10.265 10.7514 10.1344 10.6838 9.99998 10.6729C9.86555 10.6838 9.73488 10.7514 9.64963 10.8774L8.94461 11.9196C8.87904 12.0165 8.77963 12.0855 8.66583 12.113L7.44281 12.4085C7.11104 12.4887 6.97281 12.8846 7.18253 13.1539L7.95583 14.1464C8.02775 14.2388 8.06265 14.3546 8.05363 14.4713L7.95673 15.7258C7.93045 16.0661 8.2643 16.32 8.5852 16.2036L9.76814 15.7749C9.84288 15.7478 9.92261 15.7409 9.99998 15.7529C10.0774 15.7409 10.1571 15.7479 10.2318 15.7749L11.4148 16.2036C11.7356 16.3199 12.0695 16.0661 12.0432 15.7258L11.9463 14.4713C11.9373 14.3546 11.9722 14.2388 12.0441 14.1464L12.8174 13.1539C13.0272 12.8846 12.8889 12.4887 12.5572 12.4085Z" fill="url(#paint21_linear_2732_70709)"/>
<path d="M10.2318 15.7749L11.4148 16.2036C11.7356 16.3199 12.0695 16.0661 12.0433 15.7258L11.9464 14.4713C11.9373 14.3546 11.9722 14.2388 12.0442 14.1464L12.8175 13.1539C13.0272 12.8847 12.8889 12.4887 12.5572 12.4085L11.3342 12.113C11.2204 12.0855 11.121 12.0165 11.0554 11.9196L10.3504 10.8774C10.2651 10.7514 10.1344 10.6838 10 10.6729V15.7529C10.0774 15.7409 10.1571 15.7478 10.2318 15.7749Z" fill="url(#paint22_linear_2732_70709)"/>
<path d="M12.5568 12.4084L11.3338 12.1129C11.292 12.1028 11.2523 12.087 11.2154 12.0664L8.09766 16.0991C8.21997 16.2173 8.40448 16.2689 8.58487 16.2035L9.76781 15.7748C9.84256 15.7477 9.92228 15.7408 9.99966 15.7528C10.0771 15.7408 10.1568 15.7478 10.2315 15.7748L11.4144 16.2035C11.7353 16.3198 12.0692 16.066 12.0429 15.7257L11.946 14.4712C11.937 14.3545 11.9719 14.2387 12.0438 14.1463L12.8171 13.1538C13.0268 12.8845 12.8886 12.4885 12.5568 12.4084Z" fill="url(#paint23_linear_2732_70709)"/>
<path d="M7.44281 12.4084L8.66583 12.1129C8.70759 12.1028 8.74735 12.087 8.78426 12.0664L11.902 16.0991C11.7797 16.2173 11.5952 16.2689 11.4148 16.2035L10.2318 15.7748C10.1571 15.7477 10.0774 15.7408 9.99998 15.7528C9.92257 15.7408 9.84288 15.7478 9.76814 15.7748L8.5852 16.2035C8.26434 16.3198 7.93045 16.066 7.95673 15.7257L8.05363 14.4712C8.06265 14.3545 8.02775 14.2387 7.95583 14.1463L7.18253 13.1538C6.97281 12.8845 7.11104 12.4885 7.44281 12.4084Z" fill="url(#paint24_linear_2732_70709)"/>
<path d="M7.11678 12.6914C7.05863 12.8381 7.07259 13.0129 7.18204 13.1534L7.95533 14.1459C8.02725 14.2383 8.06216 14.3541 8.05314 14.4708L7.95623 15.7253C7.92996 16.0656 8.2638 16.3194 8.5847 16.2031L9.76765 15.7744C9.84239 15.7473 9.92212 15.7403 9.99949 15.7523C10.0769 15.7404 10.1566 15.7474 10.2313 15.7744L11.4143 16.2031C11.7351 16.3194 12.069 16.0656 12.0427 15.7253L11.9458 14.4708C11.9408 14.4061 11.9498 14.3417 11.9707 14.2814L7.11678 12.6914Z" fill="url(#paint25_linear_2732_70709)"/>
<path d="M12.8825 12.6914C12.9407 12.8381 12.9267 13.0129 12.8172 13.1534L12.0439 14.1459C11.972 14.2383 11.9371 14.3541 11.9461 14.4708L12.043 15.7253C12.0693 16.0656 11.7354 16.3194 11.4146 16.2031L10.2316 15.7744C10.1569 15.7473 10.0772 15.7403 9.99979 15.7523C9.92238 15.7404 9.84269 15.7474 9.76795 15.7744L8.58501 16.2031C8.26414 16.3194 7.93026 16.0656 7.95653 15.7253L8.05344 14.4708C8.05846 14.4061 8.04948 14.3417 8.02861 14.2814L12.8825 12.6914Z" fill="url(#paint26_linear_2732_70709)"/>
<path d="M10.0007 7.52734C9.97486 7.52734 9.94917 7.52801 9.92337 7.52832L8.96094 8.49076L15.9869 15.5167C16.1494 14.9605 16.2371 14.3723 16.2371 13.7636C16.2371 10.3194 13.445 7.52734 10.0007 7.52734Z" fill="url(#paint27_linear_2732_70709)"/>
<path d="M6.23535 0.129883V3.424L10.0001 7.18871L13.7648 3.424V0.129883H6.23535Z" fill="url(#paint28_linear_2732_70709)"/>
<path d="M6.23535 0.129883V1.15506L9.98747 4.90718C9.99441 4.91412 10.0057 4.91412 10.0126 4.90718L13.7648 1.15506V0.129883H6.23535Z" fill="url(#paint29_linear_2732_70709)"/>
<path d="M6.23535 0.129883V1.15506L9.98747 4.90718C9.99441 4.91412 10.0057 4.91412 10.0126 4.90718L13.7648 1.15506V0.129883H6.23535Z" fill="url(#paint30_linear_2732_70709)"/>
<path d="M10.0001 5.4995C9.84484 5.4995 9.68967 5.44044 9.57155 5.32228L6.23535 1.98608V3.42318L10.0001 7.18789L13.7648 3.42318V1.98608L10.4286 5.32228C10.3104 5.4404 10.1553 5.4995 10.0001 5.4995Z" fill="url(#paint31_linear_2732_70709)"/>
<path d="M10.0001 5.4995C9.84484 5.4995 9.68967 5.44044 9.57155 5.32228L6.23535 1.98608V3.42318L10.0001 7.18789L13.7648 3.42318V1.98608L10.4286 5.32228C10.3104 5.4404 10.1553 5.4995 10.0001 5.4995Z" fill="url(#paint32_linear_2732_70709)"/>
<path d="M10.0001 5.4995C10.1553 5.4995 10.3104 5.44044 10.4286 5.32228L13.7648 1.98608V3.42318L10.0001 7.18789L6.23535 3.42318V1.98608L9.57155 5.32228C9.68967 5.4404 9.84488 5.4995 10.0001 5.4995Z" fill="url(#paint33_linear_2732_70709)"/>
<path d="M9.58687 6.33381L6.38318 3.13013C6.14295 2.88989 5.75342 2.88989 5.51318 3.13013C5.27295 3.37036 5.27295 3.75989 5.51318 4.00013L9.99969 8.48672L14.4862 4.00017C14.7265 3.75993 14.7265 3.3704 14.4862 3.13017C14.246 2.88993 13.8565 2.88993 13.6162 3.13017L10.4126 6.33385C10.1845 6.56185 9.81487 6.56185 9.58687 6.33381Z" fill="url(#paint34_linear_2732_70709)"/>
<path d="M5.51302 3.13742L9.52718 7.15158C9.78808 7.41248 10.2111 7.41248 10.472 7.15158L14.4861 3.13742C14.4873 3.13625 14.4882 3.13495 14.4894 3.13377C14.4883 3.1326 14.4873 3.1313 14.4861 3.13013C14.2459 2.88989 13.8564 2.88989 13.6161 3.13013L10.4124 6.33381C10.1844 6.56181 9.81475 6.56181 9.58675 6.33381L6.38306 3.13013C6.14282 2.88989 5.7533 2.88989 5.51306 3.13013C5.51188 3.1313 5.51094 3.1326 5.50977 3.13377C5.5109 3.13495 5.51184 3.13625 5.51302 3.13742Z" fill="url(#paint35_linear_2732_70709)"/>
<path d="M10.0001 8.48709L13.1671 5.32007H11.427L10.4129 6.33422C10.1849 6.56222 9.8152 6.56222 9.5872 6.33422L8.57305 5.32007H6.83301L10.0001 8.48709Z" fill="url(#paint36_linear_2732_70709)"/>
<path d="M9.60742 8.09501L9.99958 8.48716L14.0163 4.47046H12.2762L10.4124 6.33426C10.1911 6.55564 9.8366 6.5614 9.60742 6.35297V8.09501Z" fill="url(#paint37_linear_2732_70709)"/>
<path d="M9.99981 8.92149C10.8119 8.92149 11.4703 8.26312 11.4703 7.45098C11.4703 6.63884 10.8119 5.98047 9.99981 5.98047C9.18767 5.98047 8.5293 6.63884 8.5293 7.45098C8.5293 8.26312 9.18767 8.92149 9.99981 8.92149Z" fill="url(#paint38_linear_2732_70709)"/>
<path d="M9.99931 8.29452C10.4649 8.29452 10.8424 7.91707 10.8424 7.45146C10.8424 6.98585 10.4649 6.6084 9.99931 6.6084C9.5337 6.6084 9.15625 6.98585 9.15625 7.45146C9.15625 7.91707 9.5337 8.29452 9.99931 8.29452Z" fill="url(#paint39_linear_2732_70709)"/>
<path d="M14.3335 1.46404H5.66672C5.4177 1.46404 5.21582 1.26216 5.21582 1.01314V0.450902C5.21582 0.201882 5.4177 0 5.66672 0H14.3336C14.5826 0 14.7844 0.201882 14.7844 0.450902V1.01318C14.7844 1.2622 14.5826 1.46404 14.3335 1.46404Z" fill="url(#paint40_linear_2732_70709)"/>
<defs>
<linearGradient id="paint0_linear_2732_70709" x1="2.85226" y1="14.2516" x2="4.14638" y2="16.036" gradientUnits="userSpaceOnUse">
<stop stop-color="#FEF0AE"/>
<stop offset="1" stop-color="#FBC56D"/>
</linearGradient>
<linearGradient id="paint1_linear_2732_70709" x1="2.73442" y1="15.396" x2="4.77363" y2="16.3372" gradientUnits="userSpaceOnUse">
<stop stop-color="#DC8758" stop-opacity="0"/>
<stop offset="0.9957" stop-color="#DC8758" stop-opacity="0.996"/>
<stop offset="1" stop-color="#DC8758"/>
</linearGradient>
<linearGradient id="paint2_linear_2732_70709" x1="1.52493" y1="12.7307" x2="3.66218" y2="14.319" gradientUnits="userSpaceOnUse">
<stop stop-color="#FEF0AE"/>
<stop offset="1" stop-color="#FBC56D"/>
</linearGradient>
<linearGradient id="paint3_linear_2732_70709" x1="2.42093" y1="14.5073" x2="4.04183" y2="14.4811" gradientUnits="userSpaceOnUse">
<stop stop-color="#DC8758" stop-opacity="0"/>
<stop offset="0.9957" stop-color="#DC8758" stop-opacity="0.996"/>
<stop offset="1" stop-color="#DC8758"/>
</linearGradient>
<linearGradient id="paint4_linear_2732_70709" x1="5.8183" y1="9.07788" x2="5.3281" y2="11.3328" gradientUnits="userSpaceOnUse">
<stop stop-color="#FEF0AE"/>
<stop offset="1" stop-color="#FBC56D"/>
</linearGradient>
<linearGradient id="paint5_linear_2732_70709" x1="3.7001" y1="9.30497" x2="4.955" y2="10.586" gradientUnits="userSpaceOnUse">
<stop stop-color="#DC8758" stop-opacity="0"/>
<stop offset="0.9957" stop-color="#DC8758" stop-opacity="0.996"/>
<stop offset="1" stop-color="#DC8758"/>
</linearGradient>
<linearGradient id="paint6_linear_2732_70709" x1="2.94619" y1="9.61989" x2="4.02462" y2="12.9924" gradientUnits="userSpaceOnUse">
<stop stop-color="#FEF0AE"/>
<stop offset="1" stop-color="#FBC56D"/>
</linearGradient>
<linearGradient id="paint7_linear_2732_70709" x1="3.16315" y1="11.456" x2="4.54875" y2="12.6586" gradientUnits="userSpaceOnUse">
<stop stop-color="#DC8758" stop-opacity="0"/>
<stop offset="0.9957" stop-color="#DC8758" stop-opacity="0.996"/>
<stop offset="1" stop-color="#DC8758"/>
</linearGradient>
<linearGradient id="paint8_linear_2732_70709" x1="17.1477" y1="14.2516" x2="15.8535" y2="16.036" gradientUnits="userSpaceOnUse">
<stop stop-color="#FEF0AE"/>
<stop offset="1" stop-color="#FBC56D"/>
</linearGradient>
<linearGradient id="paint9_linear_2732_70709" x1="17.2655" y1="15.396" x2="15.2263" y2="16.3372" gradientUnits="userSpaceOnUse">
<stop stop-color="#DC8758" stop-opacity="0"/>
<stop offset="0.9957" stop-color="#DC8758" stop-opacity="0.996"/>
<stop offset="1" stop-color="#DC8758"/>
</linearGradient>
<linearGradient id="paint10_linear_2732_70709" x1="18.4751" y1="12.7307" x2="16.3379" y2="14.319" gradientUnits="userSpaceOnUse">
<stop stop-color="#FEF0AE"/>
<stop offset="1" stop-color="#FBC56D"/>
</linearGradient>
<linearGradient id="paint11_linear_2732_70709" x1="17.5791" y1="14.5073" x2="15.9582" y2="14.4811" gradientUnits="userSpaceOnUse">
<stop stop-color="#DC8758" stop-opacity="0"/>
<stop offset="0.9957" stop-color="#DC8758" stop-opacity="0.996"/>
<stop offset="1" stop-color="#DC8758"/>
</linearGradient>
<linearGradient id="paint12_linear_2732_70709" x1="14.181" y1="9.07788" x2="14.6712" y2="11.3328" gradientUnits="userSpaceOnUse">
<stop stop-color="#FEF0AE"/>
<stop offset="1" stop-color="#FBC56D"/>
</linearGradient>
<linearGradient id="paint13_linear_2732_70709" x1="16.2992" y1="9.30497" x2="15.0443" y2="10.586" gradientUnits="userSpaceOnUse">
<stop stop-color="#DC8758" stop-opacity="0"/>
<stop offset="0.9957" stop-color="#DC8758" stop-opacity="0.996"/>
<stop offset="1" stop-color="#DC8758"/>
</linearGradient>
<linearGradient id="paint14_linear_2732_70709" x1="17.0533" y1="9.61989" x2="15.9749" y2="12.9924" gradientUnits="userSpaceOnUse">
<stop stop-color="#FEF0AE"/>
<stop offset="1" stop-color="#FBC56D"/>
</linearGradient>
<linearGradient id="paint15_linear_2732_70709" x1="16.836" y1="11.4562" x2="15.4504" y2="12.6588" gradientUnits="userSpaceOnUse">
<stop stop-color="#DC8758" stop-opacity="0"/>
<stop offset="0.9957" stop-color="#DC8758" stop-opacity="0.996"/>
<stop offset="1" stop-color="#DC8758"/>
</linearGradient>
<linearGradient id="paint16_linear_2732_70709" x1="6.15504" y1="9.91872" x2="12.7321" y2="16.4958" gradientUnits="userSpaceOnUse">
<stop stop-color="#FEF0AE"/>
<stop offset="1" stop-color="#FBC56D"/>
</linearGradient>
<linearGradient id="paint17_linear_2732_70709" x1="13.2286" y1="16.992" x2="6.67742" y2="10.4408" gradientUnits="userSpaceOnUse">
<stop stop-color="#FEF0AE"/>
<stop offset="1" stop-color="#FBC56D"/>
</linearGradient>
<linearGradient id="paint18_linear_2732_70709" x1="6.89756" y1="10.6622" x2="12.0041" y2="15.7688" gradientUnits="userSpaceOnUse">
<stop stop-color="#FEF0AE"/>
<stop offset="1" stop-color="#FBC56D"/>
</linearGradient>
<linearGradient id="paint19_linear_2732_70709" x1="9.99999" y1="15.5884" x2="9.99999" y2="19.6818" gradientUnits="userSpaceOnUse">
<stop stop-color="#DC8758" stop-opacity="0"/>
<stop offset="0.9957" stop-color="#DC8758" stop-opacity="0.996"/>
<stop offset="1" stop-color="#DC8758"/>
</linearGradient>
<linearGradient id="paint20_linear_2732_70709" x1="13.7353" y1="17.0051" x2="8.58499" y2="13.7633" gradientUnits="userSpaceOnUse">
<stop stop-color="#DC8758" stop-opacity="0"/>
<stop offset="0.9957" stop-color="#DC8758" stop-opacity="0.996"/>
<stop offset="1" stop-color="#DC8758"/>
</linearGradient>
<linearGradient id="paint21_linear_2732_70709" x1="8.70092" y1="12.5782" x2="11.0435" y2="14.9208" gradientUnits="userSpaceOnUse">
<stop stop-color="#FBC56D"/>
<stop offset="1" stop-color="#C5715A"/>
</linearGradient>
<linearGradient id="paint22_linear_2732_70709" x1="11.4036" y1="13.2169" x2="8.16588" y2="14.5554" gradientUnits="userSpaceOnUse">
<stop stop-color="#8C3D27" stop-opacity="0"/>
<stop offset="1" stop-color="#8C3D27"/>
</linearGradient>
<linearGradient id="paint23_linear_2732_70709" x1="10.5579" y1="14.3658" x2="8.7853" y2="13.6061" gradientUnits="userSpaceOnUse">
<stop stop-color="#8C3D27" stop-opacity="0"/>
<stop offset="1" stop-color="#8C3D27"/>
</linearGradient>
<linearGradient id="paint24_linear_2732_70709" x1="9.44171" y1="14.3658" x2="11.2143" y2="13.6061" gradientUnits="userSpaceOnUse">
<stop stop-color="#8C3D27" stop-opacity="0"/>
<stop offset="1" stop-color="#8C3D27"/>
</linearGradient>
<linearGradient id="paint25_linear_2732_70709" x1="9.48063" y1="14.4543" x2="10.6202" y2="12.6229" gradientUnits="userSpaceOnUse">
<stop stop-color="#8C3D27" stop-opacity="0"/>
<stop offset="1" stop-color="#8C3D27"/>
</linearGradient>
<linearGradient id="paint26_linear_2732_70709" x1="10.4308" y1="14.2231" x2="10.3359" y2="12.4323" gradientUnits="userSpaceOnUse">
<stop stop-color="#8C3D27" stop-opacity="0"/>
<stop offset="1" stop-color="#8C3D27"/>
</linearGradient>
<linearGradient id="paint27_linear_2732_70709" x1="13.0738" y1="11.1291" x2="10.6686" y2="6.91993" gradientUnits="userSpaceOnUse">
<stop stop-color="#DC8758" stop-opacity="0"/>
<stop offset="0.9957" stop-color="#DC8758" stop-opacity="0.996"/>
<stop offset="1" stop-color="#DC8758"/>
</linearGradient>
<linearGradient id="paint28_linear_2732_70709" x1="10.279" y1="2.22177" x2="11.828" y2="4.69235" gradientUnits="userSpaceOnUse">
<stop stop-color="#F9F5F3"/>
<stop offset="1" stop-color="#D8E8F0"/>
</linearGradient>
<linearGradient id="paint29_linear_2732_70709" x1="8.7339" y1="-0.809451" x2="13.5444" y2="4.70686" gradientUnits="userSpaceOnUse">
<stop stop-color="#FD4755"/>
<stop offset="1" stop-color="#A72B2B"/>
</linearGradient>
<linearGradient id="paint30_linear_2732_70709" x1="10.0001" y1="2.60702" x2="10.0001" y2="1.31157" gradientUnits="userSpaceOnUse">
<stop stop-color="#A72B2B" stop-opacity="0"/>
<stop offset="1" stop-color="#42210B"/>
</linearGradient>
<linearGradient id="paint31_linear_2732_70709" x1="7.71202" y1="0.0808291" x2="12.5224" y2="5.59714" gradientUnits="userSpaceOnUse">
<stop stop-color="#FD4755"/>
<stop offset="1" stop-color="#A72B2B"/>
</linearGradient>
<linearGradient id="paint32_linear_2732_70709" x1="11.4901" y1="4.19459" x2="12.1595" y2="4.86401" gradientUnits="userSpaceOnUse">
<stop stop-color="#A72B2B" stop-opacity="0"/>
<stop offset="1" stop-color="#42210B"/>
</linearGradient>
<linearGradient id="paint33_linear_2732_70709" x1="8.51006" y1="4.19459" x2="7.84065" y2="4.86401" gradientUnits="userSpaceOnUse">
<stop stop-color="#A72B2B" stop-opacity="0"/>
<stop offset="1" stop-color="#42210B"/>
</linearGradient>
<linearGradient id="paint34_linear_2732_70709" x1="13.3991" y1="6.9646" x2="5.35758" y2="-1.07697" gradientUnits="userSpaceOnUse">
<stop stop-color="#FEF0AE"/>
<stop offset="1" stop-color="#FBC56D"/>
</linearGradient>
<linearGradient id="paint35_linear_2732_70709" x1="9.99957" y1="3.20205" x2="9.99957" y2="8.69378" gradientUnits="userSpaceOnUse">
<stop stop-color="#FEF0AE"/>
<stop offset="1" stop-color="#FBC56D"/>
</linearGradient>
<linearGradient id="paint36_linear_2732_70709" x1="10.0001" y1="6.39195" x2="10.0001" y2="8.1976" gradientUnits="userSpaceOnUse">
<stop stop-color="#DC8758" stop-opacity="0"/>
<stop offset="0.9957" stop-color="#DC8758" stop-opacity="0.996"/>
<stop offset="1" stop-color="#DC8758"/>
</linearGradient>
<linearGradient id="paint37_linear_2732_70709" x1="11.8532" y1="5.36964" x2="10.7551" y2="6.48728" gradientUnits="userSpaceOnUse">
<stop stop-color="#DC8758" stop-opacity="0"/>
<stop offset="0.9957" stop-color="#DC8758" stop-opacity="0.996"/>
<stop offset="1" stop-color="#DC8758"/>
</linearGradient>
<linearGradient id="paint38_linear_2732_70709" x1="9.15667" y1="6.60784" x2="11.2363" y2="8.68745" gradientUnits="userSpaceOnUse">
<stop stop-color="#FBC56D"/>
<stop offset="1" stop-color="#C5715A"/>
</linearGradient>
<linearGradient id="paint39_linear_2732_70709" x1="10.8228" y1="8.27499" x2="8.87472" y2="6.32687" gradientUnits="userSpaceOnUse">
<stop stop-color="#FBC56D"/>
<stop offset="1" stop-color="#C5715A"/>
</linearGradient>
<linearGradient id="paint40_linear_2732_70709" x1="10.0001" y1="0.444431" x2="10.0001" y2="1.26161" gradientUnits="userSpaceOnUse">
<stop stop-color="#FEF0AE"/>
<stop offset="1" stop-color="#FBC56D"/>
</linearGradient>
</defs>
</svg>
