<svg width="68" height="68" viewBox="0 0 68 68" fill="none" xmlns="http://www.w3.org/2000/svg">
<g filter="url(#filter0_d_1804_29307)">
<circle cx="34" cy="34" r="22" fill="#FEF0AE"/>
<circle cx="34" cy="34" r="20.5" stroke="white" stroke-width="3"/>
</g>
<g clip-path="url(#clip0_1804_29307)">
<path d="M27.182 39.7812C28.601 39.9645 29.8389 40.5407 30.7154 41.3346C30.899 41.5009 30.8306 42.0302 30.6109 42.1443C29.5614 42.6895 28.2177 42.9324 26.7988 42.7491C25.3798 42.5659 24.1419 41.9897 23.2653 41.1958C23.0818 41.0295 23.1501 40.5002 23.3699 40.386C24.4193 39.8409 25.763 39.598 27.182 39.7812Z" fill="url(#paint0_linear_1804_29307)"/>
<path d="M27.182 39.7812C28.601 39.9645 29.8389 40.5407 30.7154 41.3346C30.899 41.5009 30.8306 42.0302 30.6109 42.1443C29.5614 42.6895 28.2177 42.9324 26.7988 42.7491C25.3798 42.5659 24.1419 41.9897 23.2653 41.1958C23.0818 41.0295 23.1501 40.5002 23.3699 40.386C24.4193 39.8409 25.763 39.598 27.182 39.7812Z" fill="url(#paint1_linear_1804_29307)"/>
<path d="M27.3479 37.7942C28.8654 38.4521 30.056 39.4887 30.7754 40.6511C30.926 40.8945 30.6806 41.4606 30.4 41.5171C29.0597 41.7866 27.4893 41.6261 25.9719 40.9682C24.4544 40.3104 23.2638 39.2738 22.5444 38.1113C22.3937 37.8679 22.6392 37.3018 22.9198 37.2454C24.2601 36.9759 25.8304 37.1363 27.3479 37.7942Z" fill="url(#paint2_linear_1804_29307)"/>
<path d="M27.3479 37.7942C28.8654 38.4521 30.056 39.4887 30.7754 40.6511C30.926 40.8945 30.6806 41.4606 30.4 41.5171C29.0597 41.7866 27.4893 41.6261 25.9719 40.9682C24.4544 40.3104 23.2638 39.2738 22.5444 38.1113C22.3937 37.8679 22.6392 37.3018 22.9198 37.2454C24.2601 36.9759 25.8304 37.1363 27.3479 37.7942Z" fill="url(#paint3_linear_1804_29307)"/>
<path d="M30.0803 34.6044C30.6881 36.1426 30.7971 37.7175 30.4837 39.0481C30.4181 39.3268 29.8443 39.5536 29.6059 39.395C28.4676 38.6379 27.4707 37.414 26.8629 35.8758C26.2551 34.3376 26.1461 32.7627 26.4595 31.432C26.5251 31.1534 27.0989 30.9266 27.3372 31.0852C28.4755 31.8423 29.4725 33.0662 30.0803 34.6044Z" fill="url(#paint4_linear_1804_29307)"/>
<path d="M30.0803 34.6044C30.6881 36.1426 30.7971 37.7175 30.4837 39.0481C30.4181 39.3268 29.8443 39.5536 29.6059 39.395C28.4676 38.6379 27.4707 37.414 26.8629 35.8758C26.2551 34.3376 26.1461 32.7627 26.4595 31.432C26.5251 31.1534 27.0989 30.9266 27.3372 31.0852C28.4755 31.8423 29.4725 33.0662 30.0803 34.6044Z" fill="url(#paint5_linear_1804_29307)"/>
<path d="M27.8654 34.6623C29.4127 36.0534 30.4188 37.7655 30.8125 39.4396C30.895 39.7902 30.376 40.3674 30.0187 40.3226C28.3122 40.1087 26.5031 39.2898 24.9558 37.8987C23.4085 36.5077 22.4024 34.7955 22.0087 33.1214C21.9263 32.7708 22.4452 32.1936 22.8026 32.2384C24.509 32.4524 26.3182 33.2712 27.8654 34.6623Z" fill="url(#paint6_linear_1804_29307)"/>
<path d="M22.7175 35.0236C23.2439 36.0484 23.9955 37.0354 24.9558 37.8987C26.5031 39.2898 28.3122 40.1087 30.0187 40.3226C30.376 40.3674 30.8949 39.7903 30.8125 39.4396C30.4188 37.7655 29.4127 36.0534 27.8654 34.6623C26.9543 33.8431 25.9524 33.2227 24.9341 32.8071L22.7175 35.0236Z" fill="url(#paint7_linear_1804_29307)"/>
<path d="M40.8179 39.7812C39.399 39.9645 38.161 40.5407 37.2845 41.3346C37.1009 41.5009 37.1693 42.0302 37.3891 42.1443C38.4385 42.6895 39.7822 42.9324 41.2012 42.7491C42.6201 42.5659 43.8581 41.9897 44.7346 41.1958C44.9182 41.0295 44.8498 40.5002 44.63 40.386C43.5806 39.8409 42.2369 39.598 40.8179 39.7812Z" fill="url(#paint8_linear_1804_29307)"/>
<path d="M40.8179 39.7812C39.399 39.9645 38.161 40.5407 37.2845 41.3346C37.1009 41.5009 37.1693 42.0302 37.3891 42.1443C38.4385 42.6895 39.7822 42.9324 41.2012 42.7491C42.6201 42.5659 43.8581 41.9897 44.7346 41.1958C44.9182 41.0295 44.8498 40.5002 44.63 40.386C43.5806 39.8409 42.2369 39.598 40.8179 39.7812Z" fill="url(#paint9_linear_1804_29307)"/>
<path d="M40.652 37.7942C39.1345 38.4521 37.944 39.4887 37.2246 40.6511C37.0739 40.8945 37.3193 41.4606 37.6 41.5171C38.9402 41.7866 40.5106 41.6261 42.0281 40.9682C43.5456 40.3104 44.7361 39.2738 45.4556 38.1113C45.6062 37.8679 45.3608 37.3018 45.0801 37.2454C43.7399 36.9759 42.1695 37.1363 40.652 37.7942Z" fill="url(#paint10_linear_1804_29307)"/>
<path d="M40.652 37.7942C39.1345 38.4521 37.944 39.4887 37.2246 40.6511C37.0739 40.8945 37.3193 41.4606 37.6 41.5171C38.9402 41.7866 40.5106 41.6261 42.0281 40.9682C43.5456 40.3104 44.7361 39.2738 45.4556 38.1113C45.6062 37.8679 45.3608 37.3018 45.0801 37.2454C43.7399 36.9759 42.1695 37.1363 40.652 37.7942Z" fill="url(#paint11_linear_1804_29307)"/>
<path d="M37.9198 34.6044C37.312 36.1426 37.203 37.7175 37.5163 39.0481C37.5819 39.3268 38.1558 39.5536 38.3941 39.395C39.5324 38.6379 40.5294 37.414 41.1372 35.8758C41.745 34.3376 41.8539 32.7627 41.5406 31.432C41.475 31.1534 40.9012 30.9266 40.6628 31.0852C39.5245 31.8423 38.5276 33.0662 37.9198 34.6044Z" fill="url(#paint12_linear_1804_29307)"/>
<path d="M37.9198 34.6044C37.312 36.1426 37.203 37.7175 37.5163 39.0481C37.5819 39.3268 38.1558 39.5536 38.3941 39.395C39.5324 38.6379 40.5294 37.414 41.1372 35.8758C41.745 34.3376 41.8539 32.7627 41.5406 31.432C41.475 31.1534 40.9012 30.9266 40.6628 31.0852C39.5245 31.8423 38.5276 33.0662 37.9198 34.6044Z" fill="url(#paint13_linear_1804_29307)"/>
<path d="M40.1345 34.6623C38.5872 36.0534 37.5811 37.7655 37.1875 39.4396C37.105 39.7902 37.6239 40.3674 37.9813 40.3226C39.6877 40.1087 41.4969 39.2898 43.0442 37.8987C44.5915 36.5077 45.5975 34.7955 45.9912 33.1214C46.0737 32.7708 45.5547 32.1936 45.1974 32.2384C43.491 32.4524 41.6818 33.2712 40.1345 34.6623Z" fill="url(#paint14_linear_1804_29307)"/>
<path d="M45.2824 35.0236C44.7561 36.0484 44.0044 37.0354 43.0442 37.8987C41.4969 39.2898 39.6877 40.1087 37.9813 40.3226C37.6239 40.3674 37.105 39.7903 37.1875 39.4396C37.5811 37.7655 38.5872 36.0534 40.1345 34.6623C41.0456 33.8432 42.0476 33.2227 43.0659 32.8071L45.2824 35.0236Z" fill="url(#paint15_linear_1804_29307)"/>
<path d="M33.9999 46C38.133 46 41.4835 42.6495 41.4835 38.5164C41.4835 34.3834 38.133 31.0328 33.9999 31.0328C29.8669 31.0328 26.5164 34.3834 26.5164 38.5164C26.5164 42.6495 29.8669 46 33.9999 46Z" fill="url(#paint16_linear_1804_29307)"/>
<path d="M34.0001 44.4814C37.2944 44.4814 39.965 41.8108 39.965 38.5164C39.965 35.2221 37.2944 32.5515 34.0001 32.5515C30.7058 32.5515 28.0352 35.2221 28.0352 38.5164C28.0352 41.8108 30.7058 44.4814 34.0001 44.4814Z" fill="url(#paint17_linear_1804_29307)"/>
<path d="M33.9998 43.6374C36.8281 43.6374 39.1208 41.3447 39.1208 38.5164C39.1208 35.6882 36.8281 33.3955 33.9998 33.3955C31.1716 33.3955 28.8789 35.6882 28.8789 38.5164C28.8789 41.3447 31.1716 43.6374 33.9998 43.6374Z" fill="url(#paint18_linear_1804_29307)"/>
<path d="M26.5164 38.5164C26.5164 42.6495 29.8669 46 33.9999 46C38.133 46 41.4835 42.6495 41.4835 38.5164C41.4835 38.4874 41.4828 38.4585 41.4824 38.4296H26.5174C26.5171 38.4585 26.5164 38.4874 26.5164 38.5164Z" fill="url(#paint19_linear_1804_29307)"/>
<path d="M36.099 45.7012C38.4571 45.0135 40.3335 43.1968 41.104 40.8752L37.4591 37.2304L36.6374 37.2707L34.4197 35.053L31.7169 41.3191L36.099 45.7012Z" fill="url(#paint20_linear_1804_29307)"/>
<path d="M37.0686 36.8903L35.601 36.5357C35.4645 36.5027 35.3452 36.4199 35.2664 36.3036L34.4204 35.053C34.3181 34.9018 34.1613 34.8206 34 34.8075C33.8387 34.8206 33.6819 34.9018 33.5796 35.053L32.7336 36.3036C32.6549 36.4199 32.5356 36.5027 32.399 36.5357L30.9314 36.8903C30.5333 36.9865 30.3674 37.4616 30.6191 37.7847L31.547 38.9758C31.6333 39.0866 31.6752 39.2256 31.6644 39.3657L31.5481 40.8711C31.5166 41.2794 31.9172 41.584 32.3023 41.4445L33.7218 40.93C33.8115 40.8975 33.9072 40.8891 34 40.9035C34.0929 40.8892 34.1885 40.8975 34.2782 40.93L35.6977 41.4445C36.0828 41.584 36.4834 41.2794 36.4519 40.8711L36.3356 39.3657C36.3248 39.2256 36.3667 39.0866 36.453 38.9758L37.3809 37.7847C37.6326 37.4616 37.4667 36.9865 37.0686 36.8903Z" fill="url(#paint21_linear_1804_29307)"/>
<path d="M34.2782 40.93L35.6977 41.4445C36.0828 41.584 36.4834 41.2794 36.4519 40.8711L36.3356 39.3657C36.3248 39.2256 36.3667 39.0866 36.453 38.9758L37.3809 37.7847C37.6327 37.4617 37.4667 36.9865 37.0686 36.8903L35.601 36.5357C35.4645 36.5027 35.3452 36.4199 35.2664 36.3036L34.4204 35.053C34.3181 34.9018 34.1613 34.8206 34 34.8075V40.9035C34.0929 40.8891 34.1886 40.8975 34.2782 40.93Z" fill="url(#paint22_linear_1804_29307)"/>
<path d="M37.0685 36.8903L35.6009 36.5357C35.5508 36.5236 35.5031 36.5046 35.4588 36.4799L31.7175 41.3191C31.8643 41.461 32.0857 41.5229 32.3022 41.4445L33.7217 40.9301C33.8114 40.8975 33.9071 40.8892 33.9999 40.9036C34.0928 40.8892 34.1884 40.8976 34.2781 40.9301L35.6977 41.4445C36.0827 41.584 36.4834 41.2794 36.4518 40.8711L36.3356 39.3657C36.3247 39.2257 36.3666 39.0867 36.4529 38.9758L37.3809 37.7848C37.6325 37.4616 37.4667 36.9865 37.0685 36.8903Z" fill="url(#paint23_linear_1804_29307)"/>
<path d="M30.9314 36.8903L32.399 36.5357C32.4491 36.5236 32.4969 36.5047 32.5411 36.4799L36.2824 41.3192C36.1356 41.461 35.9142 41.523 35.6977 41.4445L34.2782 40.9301C34.1885 40.8976 34.0929 40.8892 34 40.9036C33.9071 40.8892 33.8115 40.8976 33.7218 40.9301L32.3023 41.4445C31.9172 41.584 31.5166 41.2794 31.5481 40.8711L31.6644 39.3657C31.6752 39.2257 31.6333 39.0867 31.547 38.9759L30.6191 37.7848C30.3674 37.4616 30.5333 36.9865 30.9314 36.8903Z" fill="url(#paint24_linear_1804_29307)"/>
<path d="M30.5408 37.2304C30.471 37.4064 30.4877 37.6161 30.6191 37.7847L31.547 38.9758C31.6333 39.0866 31.6752 39.2256 31.6644 39.3657L31.5481 40.8711C31.5166 41.2794 31.9172 41.584 32.3023 41.4445L33.7218 40.93C33.8115 40.8975 33.9072 40.8891 34 40.9035C34.0929 40.8892 34.1885 40.8975 34.2782 40.93L35.6978 41.4445C36.0828 41.584 36.4835 41.2794 36.4519 40.8711L36.3356 39.3657C36.3296 39.288 36.3404 39.2108 36.3654 39.1383L30.5408 37.2304Z" fill="url(#paint25_linear_1804_29307)"/>
<path d="M37.4599 37.2304C37.5297 37.4064 37.513 37.6162 37.3816 37.7848L36.4536 38.9758C36.3673 39.0867 36.3255 39.2257 36.3363 39.3657L36.4526 40.8711C36.4841 41.2794 36.0834 41.5841 35.6984 41.4445L34.2789 40.93C34.1892 40.8975 34.0935 40.8891 34.0007 40.9035C33.9078 40.8892 33.8121 40.8976 33.7224 40.93L32.3029 41.4445C31.9179 41.584 31.5172 41.2794 31.5487 40.8711L31.665 39.3657C31.6711 39.288 31.6603 39.2108 31.6352 39.1384L37.4599 37.2304Z" fill="url(#paint26_linear_1804_29307)"/>
<path d="M34 31.0328C33.9689 31.0328 33.9381 31.0336 33.9071 31.034L32.7522 32.1889L41.1833 40.62C41.3784 39.9527 41.4835 39.2468 41.4835 38.5164C41.4835 34.3833 38.133 31.0328 34 31.0328Z" fill="url(#paint27_linear_1804_29307)"/>
<path d="M29.4821 22.1568V26.1098L33.9997 30.6274L38.5174 26.1098V22.1568H29.4821Z" fill="url(#paint28_linear_1804_29307)"/>
<path d="M29.4821 22.1568V23.3871L33.9846 27.8896C33.9929 27.8979 34.0065 27.8979 34.0148 27.8896L38.5174 23.3871V22.1568H29.4821Z" fill="url(#paint29_linear_1804_29307)"/>
<path d="M29.4821 22.1568V23.3871L33.9846 27.8896C33.9929 27.8979 34.0065 27.8979 34.0148 27.8896L38.5174 23.3871V22.1568H29.4821Z" fill="url(#paint30_linear_1804_29307)"/>
<path d="M33.9997 28.6014C33.8134 28.6014 33.6272 28.5305 33.4855 28.3888L29.4821 24.3853V26.1098L33.9997 30.6275L38.5174 26.1098V24.3853L34.5139 28.3888C34.3722 28.5305 34.186 28.6014 33.9997 28.6014Z" fill="url(#paint31_linear_1804_29307)"/>
<path d="M33.9997 28.6014C33.8134 28.6014 33.6272 28.5305 33.4855 28.3888L29.4821 24.3853V26.1098L33.9997 30.6275L38.5174 26.1098V24.3853L34.5139 28.3888C34.3722 28.5305 34.186 28.6014 33.9997 28.6014Z" fill="url(#paint32_linear_1804_29307)"/>
<path d="M33.9997 28.6014C34.186 28.6014 34.3722 28.5305 34.5139 28.3888L38.5174 24.3853V26.1098L33.9997 30.6275L29.4821 26.1098V24.3853L33.4855 28.3888C33.6272 28.5305 33.8135 28.6014 33.9997 28.6014Z" fill="url(#paint33_linear_1804_29307)"/>
<path d="M33.5044 29.6013L29.66 25.7568C29.3717 25.4686 28.9043 25.4686 28.616 25.7568C28.3277 26.0451 28.3277 26.5126 28.616 26.8008L33.9998 32.1848L39.3837 26.8009C39.6719 26.5126 39.6719 26.0452 39.3837 25.7569C39.0954 25.4686 38.6279 25.4686 38.3397 25.7569L34.4952 29.6013C34.2216 29.8749 33.778 29.8749 33.5044 29.6013Z" fill="url(#paint34_linear_1804_29307)"/>
<path d="M28.6161 25.7656L33.4331 30.5826C33.7462 30.8957 34.2538 30.8957 34.5669 30.5826L39.3838 25.7656C39.3852 25.7642 39.3863 25.7626 39.3878 25.7612C39.3864 25.7598 39.3852 25.7583 39.3838 25.7568C39.0955 25.4686 38.6281 25.4686 38.3398 25.7568L34.4954 29.6013C34.2218 29.8749 33.7782 29.8749 33.5046 29.6013L29.6601 25.7568C29.3719 25.4686 28.9044 25.4686 28.6161 25.7568C28.6147 25.7583 28.6136 25.7598 28.6122 25.7612C28.6135 25.7626 28.6147 25.7642 28.6161 25.7656Z" fill="url(#paint35_linear_1804_29307)"/>
<path d="M33.9997 32.1848L37.8001 28.3843H35.7121L34.4951 29.6013C34.2215 29.8749 33.7779 29.8749 33.5043 29.6013L32.2873 28.3843H30.1992L33.9997 32.1848Z" fill="url(#paint36_linear_1804_29307)"/>
<path d="M33.5291 31.7142L33.9996 32.1847L38.8197 27.3647H36.7316L34.4951 29.6013C34.2294 29.8669 33.8041 29.8738 33.5291 29.6237V31.7142Z" fill="url(#paint37_linear_1804_29307)"/>
<path d="M33.9997 32.7058C34.9743 32.7058 35.7643 31.9157 35.7643 30.9412C35.7643 29.9666 34.9743 29.1766 33.9997 29.1766C33.0252 29.1766 32.2351 29.9666 32.2351 30.9412C32.2351 31.9157 33.0252 32.7058 33.9997 32.7058Z" fill="url(#paint38_linear_1804_29307)"/>
<path d="M33.9997 31.9528C34.5584 31.9528 35.0114 31.4999 35.0114 30.9412C35.0114 30.3824 34.5584 29.9295 33.9997 29.9295C33.441 29.9295 32.988 30.3824 32.988 30.9412C32.988 31.4999 33.441 31.9528 33.9997 31.9528Z" fill="url(#paint39_linear_1804_29307)"/>
<path d="M39.1999 23.7568H28.7997C28.5009 23.7568 28.2587 23.5146 28.2587 23.2158V22.5411C28.2587 22.2423 28.5009 22 28.7997 22H39.2C39.4988 22 39.741 22.2423 39.741 22.5411V23.2158C39.741 23.5146 39.4988 23.7568 39.1999 23.7568Z" fill="url(#paint40_linear_1804_29307)"/>
</g>
<defs>
<filter id="filter0_d_1804_29307" x="0" y="0" width="68" height="68" filterUnits="userSpaceOnUse" color-interpolation-filters="sRGB">
<feFlood flood-opacity="0" result="BackgroundImageFix"/>
<feColorMatrix in="SourceAlpha" type="matrix" values="0 0 0 0 0 0 0 0 0 0 0 0 0 0 0 0 0 0 127 0" result="hardAlpha"/>
<feOffset/>
<feGaussianBlur stdDeviation="6"/>
<feComposite in2="hardAlpha" operator="out"/>
<feColorMatrix type="matrix" values="0 0 0 0 0.211765 0 0 0 0 0.270588 0 0 0 0 0.309804 0 0 0 0.16 0"/>
<feBlend mode="normal" in2="BackgroundImageFix" result="effect1_dropShadow_1804_29307"/>
<feBlend mode="normal" in="SourceGraphic" in2="effect1_dropShadow_1804_29307" result="shape"/>
</filter>
<linearGradient id="paint0_linear_1804_29307" x1="25.4221" y1="39.1029" x2="26.975" y2="41.2441" gradientUnits="userSpaceOnUse">
<stop stop-color="#FEF0AE"/>
<stop offset="1" stop-color="#FBC56D"/>
</linearGradient>
<linearGradient id="paint1_linear_1804_29307" x1="25.2807" y1="40.4761" x2="27.7277" y2="41.6055" gradientUnits="userSpaceOnUse">
<stop stop-color="#DC8758" stop-opacity="0"/>
<stop offset="0.9957" stop-color="#DC8758" stop-opacity="0.996"/>
<stop offset="1" stop-color="#DC8758"/>
</linearGradient>
<linearGradient id="paint2_linear_1804_29307" x1="23.8292" y1="37.2777" x2="26.3939" y2="39.1836" gradientUnits="userSpaceOnUse">
<stop stop-color="#FEF0AE"/>
<stop offset="1" stop-color="#FBC56D"/>
</linearGradient>
<linearGradient id="paint3_linear_1804_29307" x1="24.9044" y1="39.4096" x2="26.8495" y2="39.3782" gradientUnits="userSpaceOnUse">
<stop stop-color="#DC8758" stop-opacity="0"/>
<stop offset="0.9957" stop-color="#DC8758" stop-opacity="0.996"/>
<stop offset="1" stop-color="#DC8758"/>
</linearGradient>
<linearGradient id="paint4_linear_1804_29307" x1="28.9817" y1="32.8935" x2="28.3935" y2="35.5994" gradientUnits="userSpaceOnUse">
<stop stop-color="#FEF0AE"/>
<stop offset="1" stop-color="#FBC56D"/>
</linearGradient>
<linearGradient id="paint5_linear_1804_29307" x1="26.4399" y1="33.166" x2="27.9458" y2="34.7032" gradientUnits="userSpaceOnUse">
<stop stop-color="#DC8758" stop-opacity="0"/>
<stop offset="0.9957" stop-color="#DC8758" stop-opacity="0.996"/>
<stop offset="1" stop-color="#DC8758"/>
</linearGradient>
<linearGradient id="paint6_linear_1804_29307" x1="25.5354" y1="33.5435" x2="26.8295" y2="37.5905" gradientUnits="userSpaceOnUse">
<stop stop-color="#FEF0AE"/>
<stop offset="1" stop-color="#FBC56D"/>
</linearGradient>
<linearGradient id="paint7_linear_1804_29307" x1="25.7961" y1="35.7472" x2="27.4588" y2="37.1903" gradientUnits="userSpaceOnUse">
<stop stop-color="#DC8758" stop-opacity="0"/>
<stop offset="0.9957" stop-color="#DC8758" stop-opacity="0.996"/>
<stop offset="1" stop-color="#DC8758"/>
</linearGradient>
<linearGradient id="paint8_linear_1804_29307" x1="42.5778" y1="39.1029" x2="41.0248" y2="41.2441" gradientUnits="userSpaceOnUse">
<stop stop-color="#FEF0AE"/>
<stop offset="1" stop-color="#FBC56D"/>
</linearGradient>
<linearGradient id="paint9_linear_1804_29307" x1="42.7192" y1="40.4761" x2="40.2722" y2="41.6055" gradientUnits="userSpaceOnUse">
<stop stop-color="#DC8758" stop-opacity="0"/>
<stop offset="0.9957" stop-color="#DC8758" stop-opacity="0.996"/>
<stop offset="1" stop-color="#DC8758"/>
</linearGradient>
<linearGradient id="paint10_linear_1804_29307" x1="44.1707" y1="37.2777" x2="41.606" y2="39.1836" gradientUnits="userSpaceOnUse">
<stop stop-color="#FEF0AE"/>
<stop offset="1" stop-color="#FBC56D"/>
</linearGradient>
<linearGradient id="paint11_linear_1804_29307" x1="43.0955" y1="39.4096" x2="41.1504" y2="39.3782" gradientUnits="userSpaceOnUse">
<stop stop-color="#DC8758" stop-opacity="0"/>
<stop offset="0.9957" stop-color="#DC8758" stop-opacity="0.996"/>
<stop offset="1" stop-color="#DC8758"/>
</linearGradient>
<linearGradient id="paint12_linear_1804_29307" x1="39.0184" y1="32.8935" x2="39.6066" y2="35.5994" gradientUnits="userSpaceOnUse">
<stop stop-color="#FEF0AE"/>
<stop offset="1" stop-color="#FBC56D"/>
</linearGradient>
<linearGradient id="paint13_linear_1804_29307" x1="41.5602" y1="33.166" x2="40.0543" y2="34.7032" gradientUnits="userSpaceOnUse">
<stop stop-color="#DC8758" stop-opacity="0"/>
<stop offset="0.9957" stop-color="#DC8758" stop-opacity="0.996"/>
<stop offset="1" stop-color="#DC8758"/>
</linearGradient>
<linearGradient id="paint14_linear_1804_29307" x1="42.4645" y1="33.5435" x2="41.1704" y2="37.5905" gradientUnits="userSpaceOnUse">
<stop stop-color="#FEF0AE"/>
<stop offset="1" stop-color="#FBC56D"/>
</linearGradient>
<linearGradient id="paint15_linear_1804_29307" x1="42.2038" y1="35.7472" x2="40.5411" y2="37.1904" gradientUnits="userSpaceOnUse">
<stop stop-color="#DC8758" stop-opacity="0"/>
<stop offset="0.9957" stop-color="#DC8758" stop-opacity="0.996"/>
<stop offset="1" stop-color="#DC8758"/>
</linearGradient>
<linearGradient id="paint16_linear_1804_29307" x1="29.386" y1="33.9025" x2="37.2785" y2="41.795" gradientUnits="userSpaceOnUse">
<stop stop-color="#FEF0AE"/>
<stop offset="1" stop-color="#FBC56D"/>
</linearGradient>
<linearGradient id="paint17_linear_1804_29307" x1="37.8743" y1="42.3906" x2="30.0129" y2="34.5292" gradientUnits="userSpaceOnUse">
<stop stop-color="#FEF0AE"/>
<stop offset="1" stop-color="#FBC56D"/>
</linearGradient>
<linearGradient id="paint18_linear_1804_29307" x1="30.2771" y1="34.7937" x2="36.4049" y2="40.9215" gradientUnits="userSpaceOnUse">
<stop stop-color="#FEF0AE"/>
<stop offset="1" stop-color="#FBC56D"/>
</linearGradient>
<linearGradient id="paint19_linear_1804_29307" x1="33.9999" y1="40.706" x2="33.9999" y2="45.618" gradientUnits="userSpaceOnUse">
<stop stop-color="#DC8758" stop-opacity="0"/>
<stop offset="0.9957" stop-color="#DC8758" stop-opacity="0.996"/>
<stop offset="1" stop-color="#DC8758"/>
</linearGradient>
<linearGradient id="paint20_linear_1804_29307" x1="38.4821" y1="42.4057" x2="32.3017" y2="38.5154" gradientUnits="userSpaceOnUse">
<stop stop-color="#DC8758" stop-opacity="0"/>
<stop offset="0.9957" stop-color="#DC8758" stop-opacity="0.996"/>
<stop offset="1" stop-color="#DC8758"/>
</linearGradient>
<linearGradient id="paint21_linear_1804_29307" x1="32.4411" y1="37.094" x2="35.2522" y2="39.905" gradientUnits="userSpaceOnUse">
<stop stop-color="#FBC56D"/>
<stop offset="1" stop-color="#C5715A"/>
</linearGradient>
<linearGradient id="paint22_linear_1804_29307" x1="35.6844" y1="37.8604" x2="31.7991" y2="39.4666" gradientUnits="userSpaceOnUse">
<stop stop-color="#8C3D27" stop-opacity="0"/>
<stop offset="1" stop-color="#8C3D27"/>
</linearGradient>
<linearGradient id="paint23_linear_1804_29307" x1="34.6699" y1="39.2392" x2="32.5427" y2="38.3276" gradientUnits="userSpaceOnUse">
<stop stop-color="#8C3D27" stop-opacity="0"/>
<stop offset="1" stop-color="#8C3D27"/>
</linearGradient>
<linearGradient id="paint24_linear_1804_29307" x1="33.3301" y1="39.2392" x2="35.4572" y2="38.3276" gradientUnits="userSpaceOnUse">
<stop stop-color="#8C3D27" stop-opacity="0"/>
<stop offset="1" stop-color="#8C3D27"/>
</linearGradient>
<linearGradient id="paint25_linear_1804_29307" x1="33.3774" y1="39.3459" x2="34.7448" y2="37.1482" gradientUnits="userSpaceOnUse">
<stop stop-color="#8C3D27" stop-opacity="0"/>
<stop offset="1" stop-color="#8C3D27"/>
</linearGradient>
<linearGradient id="paint26_linear_1804_29307" x1="34.5179" y1="39.0684" x2="34.4039" y2="36.9195" gradientUnits="userSpaceOnUse">
<stop stop-color="#8C3D27" stop-opacity="0"/>
<stop offset="1" stop-color="#8C3D27"/>
</linearGradient>
<linearGradient id="paint27_linear_1804_29307" x1="37.6877" y1="35.3549" x2="34.8014" y2="30.304" gradientUnits="userSpaceOnUse">
<stop stop-color="#DC8758" stop-opacity="0"/>
<stop offset="0.9957" stop-color="#DC8758" stop-opacity="0.996"/>
<stop offset="1" stop-color="#DC8758"/>
</linearGradient>
<linearGradient id="paint28_linear_1804_29307" x1="34.3344" y1="24.6671" x2="36.1932" y2="27.6318" gradientUnits="userSpaceOnUse">
<stop stop-color="#F9F5F3"/>
<stop offset="1" stop-color="#D8E8F0"/>
</linearGradient>
<linearGradient id="paint29_linear_1804_29307" x1="32.4803" y1="21.0296" x2="38.2529" y2="27.6492" gradientUnits="userSpaceOnUse">
<stop stop-color="#FD4755"/>
<stop offset="1" stop-color="#A72B2B"/>
</linearGradient>
<linearGradient id="paint30_linear_1804_29307" x1="33.9997" y1="25.1294" x2="33.9997" y2="23.5749" gradientUnits="userSpaceOnUse">
<stop stop-color="#A72B2B" stop-opacity="0"/>
<stop offset="1" stop-color="#42210B"/>
</linearGradient>
<linearGradient id="paint31_linear_1804_29307" x1="31.2541" y1="22.099" x2="37.0266" y2="28.7186" gradientUnits="userSpaceOnUse">
<stop stop-color="#FD4755"/>
<stop offset="1" stop-color="#A72B2B"/>
</linearGradient>
<linearGradient id="paint32_linear_1804_29307" x1="35.7877" y1="27.0355" x2="36.591" y2="27.8388" gradientUnits="userSpaceOnUse">
<stop stop-color="#A72B2B" stop-opacity="0"/>
<stop offset="1" stop-color="#42210B"/>
</linearGradient>
<linearGradient id="paint33_linear_1804_29307" x1="32.2117" y1="27.0355" x2="31.4084" y2="27.8388" gradientUnits="userSpaceOnUse">
<stop stop-color="#A72B2B" stop-opacity="0"/>
<stop offset="1" stop-color="#42210B"/>
</linearGradient>
<linearGradient id="paint34_linear_1804_29307" x1="38.0791" y1="30.3582" x2="28.4293" y2="20.7083" gradientUnits="userSpaceOnUse">
<stop stop-color="#FEF0AE"/>
<stop offset="1" stop-color="#FBC56D"/>
</linearGradient>
<linearGradient id="paint35_linear_1804_29307" x1="33.9999" y1="25.8432" x2="33.9999" y2="32.4332" gradientUnits="userSpaceOnUse">
<stop stop-color="#FEF0AE"/>
<stop offset="1" stop-color="#FBC56D"/>
</linearGradient>
<linearGradient id="paint36_linear_1804_29307" x1="33.9997" y1="29.6706" x2="33.9997" y2="31.8374" gradientUnits="userSpaceOnUse">
<stop stop-color="#DC8758" stop-opacity="0"/>
<stop offset="0.9957" stop-color="#DC8758" stop-opacity="0.996"/>
<stop offset="1" stop-color="#DC8758"/>
</linearGradient>
<linearGradient id="paint37_linear_1804_29307" x1="36.224" y1="28.4437" x2="34.9063" y2="29.7849" gradientUnits="userSpaceOnUse">
<stop stop-color="#DC8758" stop-opacity="0"/>
<stop offset="0.9957" stop-color="#DC8758" stop-opacity="0.996"/>
<stop offset="1" stop-color="#DC8758"/>
</linearGradient>
<linearGradient id="paint38_linear_1804_29307" x1="32.988" y1="29.9294" x2="35.4835" y2="32.4249" gradientUnits="userSpaceOnUse">
<stop stop-color="#FBC56D"/>
<stop offset="1" stop-color="#C5715A"/>
</linearGradient>
<linearGradient id="paint39_linear_1804_29307" x1="34.9879" y1="31.9294" x2="32.6502" y2="29.5917" gradientUnits="userSpaceOnUse">
<stop stop-color="#FBC56D"/>
<stop offset="1" stop-color="#C5715A"/>
</linearGradient>
<linearGradient id="paint40_linear_1804_29307" x1="33.9998" y1="22.5333" x2="33.9998" y2="23.5139" gradientUnits="userSpaceOnUse">
<stop stop-color="#FEF0AE"/>
<stop offset="1" stop-color="#FBC56D"/>
</linearGradient>
<clipPath id="clip0_1804_29307">
<rect width="24" height="24" fill="white" transform="translate(22 22)"/>
</clipPath>
</defs>
</svg>
