<svg width="17" height="16" viewBox="0 0 17 16" fill="none" xmlns="http://www.w3.org/2000/svg">
<path d="M3.95508 11.8542C4.90106 11.9763 5.72634 12.3605 6.31069 12.8897C6.43307 13.0006 6.38749 13.3535 6.24098 13.4296C5.54137 13.793 4.64556 13.9549 3.69958 13.8328C2.7536 13.7106 1.92832 13.3264 1.34397 12.7972C1.22159 12.6864 1.26717 12.3335 1.41368 12.2574C2.11329 11.8939 3.0091 11.732 3.95508 11.8542Z" fill="url(#paint0_linear_2648_15376)"/>
<path d="M3.95508 11.8542C4.90106 11.9763 5.72634 12.3605 6.31069 12.8897C6.43307 13.0006 6.38749 13.3535 6.24098 13.4296C5.54137 13.793 4.64556 13.9549 3.69958 13.8328C2.7536 13.7106 1.92832 13.3264 1.34397 12.7972C1.22159 12.6864 1.26717 12.3335 1.41368 12.2574C2.11329 11.8939 3.0091 11.732 3.95508 11.8542Z" fill="url(#paint1_linear_2648_15376)"/>
<path d="M4.06495 10.5295C5.07662 10.9681 5.87031 11.6591 6.34994 12.4341C6.45036 12.5964 6.28675 12.9737 6.09965 13.0114C5.20616 13.1911 4.15922 13.0841 3.14758 12.6455C2.13591 12.2069 1.34222 11.5159 0.862594 10.7409C0.762171 10.5786 0.925779 10.2012 1.11288 10.1636C2.00637 9.9839 3.05328 10.0909 4.06495 10.5295Z" fill="url(#paint2_linear_2648_15376)"/>
<path d="M4.06495 10.5295C5.07662 10.9681 5.87031 11.6591 6.34994 12.4341C6.45036 12.5964 6.28675 12.9737 6.09965 13.0114C5.20616 13.1911 4.15922 13.0841 3.14758 12.6455C2.13591 12.2069 1.34222 11.5159 0.862594 10.7409C0.762171 10.5786 0.925779 10.2012 1.11288 10.1636C2.00637 9.9839 3.05328 10.0909 4.06495 10.5295Z" fill="url(#paint3_linear_2648_15376)"/>
<path d="M5.88703 8.40295C6.29224 9.42842 6.36486 10.4783 6.15599 11.3654C6.11225 11.5512 5.7297 11.7024 5.57079 11.5967C4.81192 11.0919 4.1473 10.276 3.74209 9.25051C3.33688 8.22504 3.26425 7.17515 3.47313 6.28803C3.51687 6.10224 3.89942 5.95109 4.05832 6.05678C4.81719 6.56151 5.48182 7.37744 5.88703 8.40295Z" fill="url(#paint4_linear_2648_15376)"/>
<path d="M5.88703 8.40295C6.29224 9.42842 6.36486 10.4783 6.15599 11.3654C6.11225 11.5512 5.7297 11.7024 5.57079 11.5967C4.81192 11.0919 4.1473 10.276 3.74209 9.25051C3.33688 8.22504 3.26425 7.17515 3.47313 6.28803C3.51687 6.10224 3.89942 5.95109 4.05832 6.05678C4.81719 6.56151 5.48182 7.37744 5.88703 8.40295Z" fill="url(#paint5_linear_2648_15376)"/>
<path d="M4.4103 8.44154C5.44183 9.36891 6.11254 10.5103 6.375 11.6264C6.42997 11.8601 6.08402 12.245 5.84578 12.2151C4.70815 12.0724 3.50206 11.5266 2.47053 10.5992C1.439 9.67178 0.76829 8.53035 0.505827 7.41427C0.450863 7.18055 0.796808 6.79573 1.03505 6.8256C2.17265 6.96825 3.37877 7.51417 4.4103 8.44154Z" fill="url(#paint6_linear_2648_15376)"/>
<path d="M0.978516 8.68238C1.32942 9.36558 1.8305 10.0236 2.47069 10.5991C3.50222 11.5265 4.7083 12.0724 5.84593 12.2151C6.08418 12.2449 6.43012 11.8602 6.37516 11.6264C6.1127 10.5103 5.44198 9.3689 4.41045 8.44153C3.80305 7.89543 3.13506 7.48178 2.45623 7.2047L0.978516 8.68238Z" fill="url(#paint7_linear_2648_15376)"/>
<path d="M13.0453 11.8542C12.0993 11.9763 11.274 12.3605 10.6897 12.8897C10.5673 13.0006 10.6129 13.3534 10.7594 13.4296C11.459 13.793 12.3548 13.9549 13.3008 13.8328C14.2468 13.7106 15.072 13.3264 15.6564 12.7972C15.7788 12.6863 15.7332 12.3335 15.5867 12.2574C14.8871 11.8939 13.9913 11.732 13.0453 11.8542Z" fill="url(#paint8_linear_2648_15376)"/>
<path d="M13.0453 11.8542C12.0993 11.9763 11.274 12.3605 10.6897 12.8897C10.5673 13.0006 10.6129 13.3534 10.7594 13.4296C11.459 13.793 12.3548 13.9549 13.3008 13.8328C14.2468 13.7106 15.072 13.3264 15.6564 12.7972C15.7788 12.6863 15.7332 12.3335 15.5867 12.2574C14.8871 11.8939 13.9913 11.732 13.0453 11.8542Z" fill="url(#paint9_linear_2648_15376)"/>
<path d="M12.9347 10.5295C11.923 10.9681 11.1293 11.6591 10.6497 12.4341C10.5493 12.5964 10.7129 12.9737 10.9 13.0114C11.7935 13.1911 12.8404 13.0841 13.8521 12.6455C14.8637 12.2069 15.6574 11.5159 16.137 10.7409C16.2375 10.5786 16.0739 10.2012 15.8868 10.1636C14.9933 9.9839 13.9464 10.0909 12.9347 10.5295Z" fill="url(#paint10_linear_2648_15376)"/>
<path d="M12.9347 10.5295C11.923 10.9681 11.1293 11.6591 10.6497 12.4341C10.5493 12.5964 10.7129 12.9737 10.9 13.0114C11.7935 13.1911 12.8404 13.0841 13.8521 12.6455C14.8637 12.2069 15.6574 11.5159 16.137 10.7409C16.2375 10.5786 16.0739 10.2012 15.8868 10.1636C14.9933 9.9839 13.9464 10.0909 12.9347 10.5295Z" fill="url(#paint11_linear_2648_15376)"/>
<path d="M11.1132 8.40295C10.708 9.42842 10.6353 10.4783 10.8442 11.3654C10.888 11.5512 11.2705 11.7024 11.4294 11.5967C12.1883 11.0919 12.8529 10.276 13.2581 9.25051C13.6633 8.22504 13.736 7.17515 13.5271 6.28803C13.4833 6.10224 13.1008 5.95109 12.9419 6.05678C12.183 6.56151 11.5184 7.37744 11.1132 8.40295Z" fill="url(#paint12_linear_2648_15376)"/>
<path d="M11.1132 8.40295C10.708 9.42842 10.6353 10.4783 10.8442 11.3654C10.888 11.5512 11.2705 11.7024 11.4294 11.5967C12.1883 11.0919 12.8529 10.276 13.2581 9.25051C13.6633 8.22504 13.736 7.17515 13.5271 6.28803C13.4833 6.10224 13.1008 5.95109 12.9419 6.05678C12.183 6.56151 11.5184 7.37744 11.1132 8.40295Z" fill="url(#paint13_linear_2648_15376)"/>
<path d="M12.5897 8.44154C11.5581 9.36891 10.8874 10.5103 10.625 11.6264C10.57 11.8601 10.9159 12.245 11.1542 12.2151C12.2918 12.0724 13.4979 11.5266 14.5294 10.5992C15.561 9.67178 16.2317 8.53035 16.4941 7.41427C16.5491 7.18055 16.2032 6.79573 15.9649 6.8256C14.8273 6.96825 13.6212 7.51417 12.5897 8.44154Z" fill="url(#paint14_linear_2648_15376)"/>
<path d="M16.0216 8.68239C15.6707 9.36559 15.1696 10.0236 14.5294 10.5992C13.4979 11.5265 12.2918 12.0724 11.1542 12.2151C10.9159 12.245 10.57 11.8602 10.625 11.6264C10.8874 10.5103 11.5581 9.36892 12.5897 8.44154C13.1971 7.89544 13.8651 7.48179 14.5439 7.20471L16.0216 8.68239Z" fill="url(#paint15_linear_2648_15376)"/>
<path d="M8.49979 16C11.2552 16 13.4888 13.7663 13.4888 11.0109C13.4888 8.25557 11.2552 6.0219 8.49979 6.0219C5.74442 6.0219 3.51074 8.25557 3.51074 11.0109C3.51074 13.7663 5.74442 16 8.49979 16Z" fill="url(#paint16_linear_2648_15376)"/>
<path d="M8.50007 14.9876C10.6963 14.9876 12.4767 13.2072 12.4767 11.0109C12.4767 8.81471 10.6963 7.03432 8.50007 7.03432C6.30383 7.03432 4.52344 8.81471 4.52344 11.0109C4.52344 13.2072 6.30383 14.9876 8.50007 14.9876Z" fill="url(#paint17_linear_2648_15376)"/>
<path d="M8.4999 14.4249C10.3854 14.4249 11.9139 12.8964 11.9139 11.011C11.9139 9.12548 10.3854 7.597 8.4999 7.597C6.61442 7.597 5.08594 9.12548 5.08594 11.011C5.08594 12.8964 6.61442 14.4249 8.4999 14.4249Z" fill="url(#paint18_linear_2648_15376)"/>
<path d="M3.51074 11.0109C3.51074 13.7663 5.74441 16 8.49979 16C11.2552 16 13.4888 13.7663 13.4888 11.0109C13.4888 10.9916 13.4883 10.9724 13.4881 10.953H3.51146C3.51124 10.9724 3.51074 10.9916 3.51074 11.0109Z" fill="url(#paint19_linear_2648_15376)"/>
<path d="M9.89892 15.8008C11.471 15.3423 12.7219 14.1312 13.2356 12.5835L10.8057 10.1536L10.2579 10.1805L8.77942 8.70203L6.97754 12.8794L9.89892 15.8008Z" fill="url(#paint20_linear_2648_15376)"/>
<path d="M10.5453 9.92685L9.56692 9.69046C9.47591 9.66846 9.39638 9.61328 9.34389 9.53573L8.77988 8.702C8.71164 8.60117 8.60714 8.54705 8.4996 8.53833C8.39205 8.54705 8.28752 8.60117 8.21931 8.702L7.6553 9.53573C7.60284 9.61328 7.52331 9.66846 7.43227 9.69046L6.45385 9.92685C6.18844 9.99097 6.07785 10.3077 6.24563 10.5231L6.86427 11.3172C6.92181 11.3911 6.94973 11.4837 6.94251 11.5771L6.86499 12.5807C6.84397 12.8529 7.11105 13.056 7.36777 12.963L8.31412 12.62C8.37392 12.5983 8.4377 12.5927 8.4996 12.6023C8.56152 12.5928 8.62527 12.5983 8.68507 12.62L9.63142 12.963C9.88811 13.056 10.1552 12.8529 10.1342 12.5807L10.0567 11.5771C10.0495 11.4837 10.0774 11.3911 10.1349 11.3172L10.7536 10.5231C10.9213 10.3077 10.8107 9.99097 10.5453 9.92685Z" fill="url(#paint21_linear_2648_15376)"/>
<path d="M8.68547 12.62L9.63183 12.963C9.88852 13.056 10.1556 12.8529 10.1346 12.5807L10.0571 11.5771C10.0499 11.4837 10.0778 11.3911 10.1353 11.3172L10.754 10.5231C10.9218 10.3078 10.8112 9.99097 10.5457 9.92685L9.56733 9.69046C9.47631 9.66846 9.39678 9.61328 9.3443 9.53573L8.78028 8.702C8.71205 8.60117 8.60755 8.54705 8.5 8.53833V12.6023C8.56193 12.5927 8.62571 12.5983 8.68547 12.62Z" fill="url(#paint22_linear_2648_15376)"/>
<path d="M10.5449 9.92683L9.56646 9.69044C9.53305 9.68237 9.50124 9.66973 9.47172 9.65326L6.97754 12.8794C7.07539 12.9739 7.223 13.0153 7.36731 12.963L8.31366 12.62C8.37346 12.5983 8.43724 12.5927 8.49914 12.6023C8.56107 12.5928 8.62482 12.5984 8.68461 12.62L9.63097 12.963C9.88766 13.056 10.1548 12.8529 10.1337 12.5807L10.0562 11.5771C10.049 11.4838 10.0769 11.3911 10.1345 11.3172L10.7531 10.5232C10.9209 10.3077 10.8103 9.99095 10.5449 9.92683Z" fill="url(#paint23_linear_2648_15376)"/>
<path d="M6.45385 9.92684L7.43227 9.69045C7.46568 9.68239 7.49749 9.66975 7.52701 9.65327L10.0212 12.8794C9.92334 12.974 9.77574 13.0153 9.63142 12.963L8.68507 12.62C8.62527 12.5983 8.56149 12.5928 8.4996 12.6024C8.43767 12.5928 8.37392 12.5984 8.31412 12.62L7.36777 12.963C7.11108 13.056 6.84397 12.8529 6.86499 12.5807L6.94251 11.5771C6.94973 11.4838 6.92181 11.3911 6.86427 11.3172L6.24563 10.5232C6.07785 10.3077 6.18844 9.99097 6.45385 9.92684Z" fill="url(#paint24_linear_2648_15376)"/>
<path d="M6.19304 10.1536C6.14651 10.2709 6.15768 10.4107 6.24524 10.5231L6.86387 11.3172C6.92141 11.3911 6.94933 11.4837 6.94212 11.5771L6.8646 12.5807C6.84358 12.8529 7.11065 13.056 7.36737 12.9629L8.31373 12.62C8.37352 12.5983 8.4373 12.5927 8.4992 12.6023C8.56113 12.5927 8.62488 12.5983 8.68467 12.62L9.63103 12.9629C9.88772 13.056 10.1548 12.8529 10.1338 12.5807L10.0563 11.5771C10.0523 11.5253 10.0595 11.4738 10.0761 11.4255L6.19304 10.1536Z" fill="url(#paint25_linear_2648_15376)"/>
<path d="M10.8062 10.1536C10.8527 10.2709 10.8416 10.4108 10.754 10.5232L10.1354 11.3172C10.0778 11.3911 10.0499 11.4838 10.0571 11.5771L10.1346 12.5807C10.1557 12.8529 9.88854 13.056 9.63185 12.963L8.6855 12.62C8.62571 12.5983 8.56192 12.5927 8.50003 12.6023C8.4381 12.5928 8.37435 12.5984 8.31455 12.62L7.3682 12.963C7.11151 13.056 6.8444 12.8529 6.86542 12.5807L6.94294 11.5771C6.94696 11.5253 6.93978 11.4738 6.92309 11.4256L10.8062 10.1536Z" fill="url(#paint26_linear_2648_15376)"/>
<path d="M8.49981 6.0219C8.47911 6.0219 8.45856 6.02243 8.43791 6.02268L7.66797 6.79263L13.2887 12.4134C13.4188 11.9684 13.4889 11.4979 13.4889 11.0109C13.4889 8.25556 11.2552 6.0219 8.49981 6.0219Z" fill="url(#paint27_linear_2648_15376)"/>
<path d="M5.48828 0.104568V2.73986L8.50005 5.75163L11.5118 2.73986V0.104568H5.48828Z" fill="url(#paint28_linear_2648_15376)"/>
<path d="M5.48828 0.104568V0.92471L8.48998 3.9264C8.49553 3.93196 8.50456 3.93196 8.51012 3.9264L11.5118 0.92471V0.104568H5.48828Z" fill="url(#paint29_linear_2648_15376)"/>
<path d="M5.48828 0.104568V0.92471L8.48998 3.9264C8.49553 3.93196 8.50456 3.93196 8.51012 3.9264L11.5118 0.92471V0.104568H5.48828Z" fill="url(#paint30_linear_2648_15376)"/>
<path d="M8.50005 4.40094C8.37587 4.40094 8.25173 4.35369 8.15724 4.25917L5.48828 1.59021V2.73989L8.50005 5.75165L11.5118 2.73989V1.59021L8.84285 4.25917C8.74836 4.35366 8.62422 4.40094 8.50005 4.40094Z" fill="url(#paint31_linear_2648_15376)"/>
<path d="M8.50005 4.40094C8.37587 4.40094 8.25173 4.35369 8.15724 4.25917L5.48828 1.59021V2.73989L8.50005 5.75165L11.5118 2.73989V1.59021L8.84285 4.25917C8.74836 4.35366 8.62422 4.40094 8.50005 4.40094Z" fill="url(#paint32_linear_2648_15376)"/>
<path d="M8.50005 4.40094C8.62422 4.40094 8.74836 4.35369 8.84285 4.25917L11.5118 1.59021V2.73989L8.50005 5.75165L5.48828 2.73989V1.59021L8.15724 4.25917C8.25173 4.35366 8.37591 4.40094 8.50005 4.40094Z" fill="url(#paint33_linear_2648_15376)"/>
<path d="M8.16969 5.0675L5.60674 2.50455C5.41455 2.31237 5.10293 2.31237 4.91074 2.50455C4.71855 2.69674 4.71855 3.00837 4.91074 3.20055L8.49995 6.78982L12.0892 3.20059C12.2814 3.0084 12.2814 2.69677 12.0892 2.50459C11.897 2.3124 11.5854 2.3124 11.3932 2.50459L8.83024 5.06753C8.64781 5.24993 8.35209 5.24993 8.16969 5.0675Z" fill="url(#paint34_linear_2648_15376)"/>
<path d="M4.91081 2.51039L8.12213 5.72172C8.33085 5.93044 8.66927 5.93044 8.87799 5.72172L12.0893 2.51039C12.0902 2.50945 12.091 2.50841 12.0919 2.50747C12.091 2.50653 12.0902 2.50549 12.0893 2.50455C11.8971 2.31237 11.5855 2.31237 11.3933 2.50455L8.83034 5.0675C8.64794 5.2499 8.35219 5.2499 8.16979 5.0675L5.60684 2.50455C5.41465 2.31237 5.10303 2.31237 4.91084 2.50455C4.9099 2.50549 4.90914 2.50653 4.9082 2.50747C4.90911 2.50841 4.90987 2.50945 4.91081 2.51039Z" fill="url(#paint35_linear_2648_15376)"/>
<path d="M8.49947 6.78984L11.0331 4.25623H9.64105L8.82973 5.06755C8.64733 5.24995 8.35158 5.24995 8.16918 5.06755L7.35785 4.25623H5.96582L8.49947 6.78984Z" fill="url(#paint36_linear_2648_15376)"/>
<path d="M8.18652 6.47612L8.50025 6.78984L11.7136 3.57648H10.3216L8.83054 5.06752C8.65344 5.24462 8.36986 5.24923 8.18652 5.08248V6.47612Z" fill="url(#paint37_linear_2648_15376)"/>
<path d="M8.50063 7.13718C9.15034 7.13718 9.67703 6.61048 9.67703 5.96077C9.67703 5.31106 9.15034 4.78436 8.50063 4.78436C7.85091 4.78436 7.32422 5.31106 7.32422 5.96077C7.32422 6.61048 7.85091 7.13718 8.50063 7.13718Z" fill="url(#paint38_linear_2648_15376)"/>
<path d="M8.50062 6.63521C8.87311 6.63521 9.17507 6.33325 9.17507 5.96076C9.17507 5.58828 8.87311 5.28632 8.50062 5.28632C8.12813 5.28632 7.82617 5.58828 7.82617 5.96076C7.82617 6.33325 8.12813 6.63521 8.50062 6.63521Z" fill="url(#paint39_linear_2648_15376)"/>
<path d="M11.967 1.17123H5.03357C4.83436 1.17123 4.67285 1.00973 4.67285 0.81051V0.360722C4.67285 0.161506 4.83436 0 5.03357 0H11.9671C12.1662 0 12.3278 0.161506 12.3278 0.360722V0.810541C12.3278 1.00976 12.1662 1.17123 11.967 1.17123Z" fill="url(#paint40_linear_2648_15376)"/>
<defs>
<linearGradient id="paint0_linear_2648_15376" x1="2.78181" y1="11.4019" x2="3.8171" y2="12.8294" gradientUnits="userSpaceOnUse">
<stop stop-color="#FEF0AE"/>
<stop offset="1" stop-color="#FBC56D"/>
</linearGradient>
<linearGradient id="paint1_linear_2648_15376" x1="2.68753" y1="12.3174" x2="4.31891" y2="13.0704" gradientUnits="userSpaceOnUse">
<stop stop-color="#DC8758" stop-opacity="0"/>
<stop offset="0.9957" stop-color="#DC8758" stop-opacity="0.996"/>
<stop offset="1" stop-color="#DC8758"/>
</linearGradient>
<linearGradient id="paint2_linear_2648_15376" x1="1.71916" y1="10.1852" x2="3.42896" y2="11.4557" gradientUnits="userSpaceOnUse">
<stop stop-color="#FEF0AE"/>
<stop offset="1" stop-color="#FBC56D"/>
</linearGradient>
<linearGradient id="paint3_linear_2648_15376" x1="2.43596" y1="11.6064" x2="3.73268" y2="11.5855" gradientUnits="userSpaceOnUse">
<stop stop-color="#DC8758" stop-opacity="0"/>
<stop offset="0.9957" stop-color="#DC8758" stop-opacity="0.996"/>
<stop offset="1" stop-color="#DC8758"/>
</linearGradient>
<linearGradient id="paint4_linear_2648_15376" x1="5.15464" y1="7.26234" x2="4.76248" y2="9.06626" gradientUnits="userSpaceOnUse">
<stop stop-color="#FEF0AE"/>
<stop offset="1" stop-color="#FBC56D"/>
</linearGradient>
<linearGradient id="paint5_linear_2648_15376" x1="3.46008" y1="7.44402" x2="4.464" y2="8.46883" gradientUnits="userSpaceOnUse">
<stop stop-color="#DC8758" stop-opacity="0"/>
<stop offset="0.9957" stop-color="#DC8758" stop-opacity="0.996"/>
<stop offset="1" stop-color="#DC8758"/>
</linearGradient>
<linearGradient id="paint6_linear_2648_15376" x1="2.85695" y1="7.69566" x2="3.71969" y2="10.3937" gradientUnits="userSpaceOnUse">
<stop stop-color="#FEF0AE"/>
<stop offset="1" stop-color="#FBC56D"/>
</linearGradient>
<linearGradient id="paint7_linear_2648_15376" x1="3.03091" y1="9.16479" x2="4.13939" y2="10.1269" gradientUnits="userSpaceOnUse">
<stop stop-color="#DC8758" stop-opacity="0"/>
<stop offset="0.9957" stop-color="#DC8758" stop-opacity="0.996"/>
<stop offset="1" stop-color="#DC8758"/>
</linearGradient>
<linearGradient id="paint8_linear_2648_15376" x1="14.2185" y1="11.4019" x2="13.1832" y2="12.8294" gradientUnits="userSpaceOnUse">
<stop stop-color="#FEF0AE"/>
<stop offset="1" stop-color="#FBC56D"/>
</linearGradient>
<linearGradient id="paint9_linear_2648_15376" x1="14.3128" y1="12.3174" x2="12.6815" y2="13.0703" gradientUnits="userSpaceOnUse">
<stop stop-color="#DC8758" stop-opacity="0"/>
<stop offset="0.9957" stop-color="#DC8758" stop-opacity="0.996"/>
<stop offset="1" stop-color="#DC8758"/>
</linearGradient>
<linearGradient id="paint10_linear_2648_15376" x1="15.2805" y1="10.1852" x2="13.5707" y2="11.4557" gradientUnits="userSpaceOnUse">
<stop stop-color="#FEF0AE"/>
<stop offset="1" stop-color="#FBC56D"/>
</linearGradient>
<linearGradient id="paint11_linear_2648_15376" x1="14.5637" y1="11.6064" x2="13.267" y2="11.5855" gradientUnits="userSpaceOnUse">
<stop stop-color="#DC8758" stop-opacity="0"/>
<stop offset="0.9957" stop-color="#DC8758" stop-opacity="0.996"/>
<stop offset="1" stop-color="#DC8758"/>
</linearGradient>
<linearGradient id="paint12_linear_2648_15376" x1="11.8456" y1="7.26234" x2="12.2377" y2="9.06626" gradientUnits="userSpaceOnUse">
<stop stop-color="#FEF0AE"/>
<stop offset="1" stop-color="#FBC56D"/>
</linearGradient>
<linearGradient id="paint13_linear_2648_15376" x1="13.5401" y1="7.44402" x2="12.5362" y2="8.46883" gradientUnits="userSpaceOnUse">
<stop stop-color="#DC8758" stop-opacity="0"/>
<stop offset="0.9957" stop-color="#DC8758" stop-opacity="0.996"/>
<stop offset="1" stop-color="#DC8758"/>
</linearGradient>
<linearGradient id="paint14_linear_2648_15376" x1="14.143" y1="7.69566" x2="13.2803" y2="10.3937" gradientUnits="userSpaceOnUse">
<stop stop-color="#FEF0AE"/>
<stop offset="1" stop-color="#FBC56D"/>
</linearGradient>
<linearGradient id="paint15_linear_2648_15376" x1="13.9692" y1="9.16481" x2="12.8607" y2="10.1269" gradientUnits="userSpaceOnUse">
<stop stop-color="#DC8758" stop-opacity="0"/>
<stop offset="0.9957" stop-color="#DC8758" stop-opacity="0.996"/>
<stop offset="1" stop-color="#DC8758"/>
</linearGradient>
<linearGradient id="paint16_linear_2648_15376" x1="5.42384" y1="7.93499" x2="10.6855" y2="13.1967" gradientUnits="userSpaceOnUse">
<stop stop-color="#FEF0AE"/>
<stop offset="1" stop-color="#FBC56D"/>
</linearGradient>
<linearGradient id="paint17_linear_2648_15376" x1="11.0828" y1="13.5937" x2="5.84193" y2="8.35281" gradientUnits="userSpaceOnUse">
<stop stop-color="#FEF0AE"/>
<stop offset="1" stop-color="#FBC56D"/>
</linearGradient>
<linearGradient id="paint18_linear_2648_15376" x1="6.01805" y1="8.52911" x2="10.1033" y2="12.6143" gradientUnits="userSpaceOnUse">
<stop stop-color="#FEF0AE"/>
<stop offset="1" stop-color="#FBC56D"/>
</linearGradient>
<linearGradient id="paint19_linear_2648_15376" x1="8.49979" y1="12.4706" x2="8.49979" y2="15.7453" gradientUnits="userSpaceOnUse">
<stop stop-color="#DC8758" stop-opacity="0"/>
<stop offset="0.9957" stop-color="#DC8758" stop-opacity="0.996"/>
<stop offset="1" stop-color="#DC8758"/>
</linearGradient>
<linearGradient id="paint20_linear_2648_15376" x1="11.4877" y1="13.6038" x2="7.36741" y2="11.0103" gradientUnits="userSpaceOnUse">
<stop stop-color="#DC8758" stop-opacity="0"/>
<stop offset="0.9957" stop-color="#DC8758" stop-opacity="0.996"/>
<stop offset="1" stop-color="#DC8758"/>
</linearGradient>
<linearGradient id="paint21_linear_2648_15376" x1="7.46035" y1="10.0626" x2="9.33442" y2="11.9367" gradientUnits="userSpaceOnUse">
<stop stop-color="#FBC56D"/>
<stop offset="1" stop-color="#C5715A"/>
</linearGradient>
<linearGradient id="paint22_linear_2648_15376" x1="9.62292" y1="10.5736" x2="7.03271" y2="11.6444" gradientUnits="userSpaceOnUse">
<stop stop-color="#8C3D27" stop-opacity="0"/>
<stop offset="1" stop-color="#8C3D27"/>
</linearGradient>
<linearGradient id="paint23_linear_2648_15376" x1="8.94576" y1="11.4928" x2="7.52766" y2="10.885" gradientUnits="userSpaceOnUse">
<stop stop-color="#8C3D27" stop-opacity="0"/>
<stop offset="1" stop-color="#8C3D27"/>
</linearGradient>
<linearGradient id="paint24_linear_2648_15376" x1="8.05298" y1="11.4928" x2="9.47108" y2="10.885" gradientUnits="userSpaceOnUse">
<stop stop-color="#8C3D27" stop-opacity="0"/>
<stop offset="1" stop-color="#8C3D27"/>
</linearGradient>
<linearGradient id="paint25_linear_2648_15376" x1="8.08411" y1="11.5639" x2="8.99573" y2="10.0988" gradientUnits="userSpaceOnUse">
<stop stop-color="#8C3D27" stop-opacity="0"/>
<stop offset="1" stop-color="#8C3D27"/>
</linearGradient>
<linearGradient id="paint26_linear_2648_15376" x1="8.84484" y1="11.3789" x2="8.76889" y2="9.94635" gradientUnits="userSpaceOnUse">
<stop stop-color="#8C3D27" stop-opacity="0"/>
<stop offset="1" stop-color="#8C3D27"/>
</linearGradient>
<linearGradient id="paint27_linear_2648_15376" x1="10.9583" y1="8.90328" x2="9.03412" y2="5.53597" gradientUnits="userSpaceOnUse">
<stop stop-color="#DC8758" stop-opacity="0"/>
<stop offset="0.9957" stop-color="#DC8758" stop-opacity="0.996"/>
<stop offset="1" stop-color="#DC8758"/>
</linearGradient>
<linearGradient id="paint28_linear_2648_15376" x1="8.72317" y1="1.77807" x2="9.96238" y2="3.75455" gradientUnits="userSpaceOnUse">
<stop stop-color="#F9F5F3"/>
<stop offset="1" stop-color="#D8E8F0"/>
</linearGradient>
<linearGradient id="paint29_linear_2648_15376" x1="7.48712" y1="-0.646898" x2="11.3355" y2="3.76615" gradientUnits="userSpaceOnUse">
<stop stop-color="#FD4755"/>
<stop offset="1" stop-color="#A72B2B"/>
</linearGradient>
<linearGradient id="paint30_linear_2648_15376" x1="8.50005" y1="2.08628" x2="8.50005" y2="1.04992" gradientUnits="userSpaceOnUse">
<stop stop-color="#A72B2B" stop-opacity="0"/>
<stop offset="1" stop-color="#42210B"/>
</linearGradient>
<linearGradient id="paint31_linear_2648_15376" x1="6.66961" y1="0.0660059" x2="10.518" y2="4.47906" gradientUnits="userSpaceOnUse">
<stop stop-color="#FD4755"/>
<stop offset="1" stop-color="#A72B2B"/>
</linearGradient>
<linearGradient id="paint32_linear_2648_15376" x1="9.69205" y1="3.35702" x2="10.2276" y2="3.89255" gradientUnits="userSpaceOnUse">
<stop stop-color="#A72B2B" stop-opacity="0"/>
<stop offset="1" stop-color="#42210B"/>
</linearGradient>
<linearGradient id="paint33_linear_2648_15376" x1="7.30805" y1="3.35702" x2="6.77252" y2="3.89255" gradientUnits="userSpaceOnUse">
<stop stop-color="#A72B2B" stop-opacity="0"/>
<stop offset="1" stop-color="#42210B"/>
</linearGradient>
<linearGradient id="paint34_linear_2648_15376" x1="11.2195" y1="5.57213" x2="4.78626" y2="-0.861125" gradientUnits="userSpaceOnUse">
<stop stop-color="#FEF0AE"/>
<stop offset="1" stop-color="#FBC56D"/>
</linearGradient>
<linearGradient id="paint35_linear_2648_15376" x1="8.50005" y1="2.56209" x2="8.50005" y2="6.95547" gradientUnits="userSpaceOnUse">
<stop stop-color="#FEF0AE"/>
<stop offset="1" stop-color="#FBC56D"/>
</linearGradient>
<linearGradient id="paint36_linear_2648_15376" x1="8.49947" y1="5.11373" x2="8.49947" y2="6.55825" gradientUnits="userSpaceOnUse">
<stop stop-color="#DC8758" stop-opacity="0"/>
<stop offset="0.9957" stop-color="#DC8758" stop-opacity="0.996"/>
<stop offset="1" stop-color="#DC8758"/>
</linearGradient>
<linearGradient id="paint37_linear_2648_15376" x1="9.98314" y1="4.29582" x2="9.1047" y2="5.18994" gradientUnits="userSpaceOnUse">
<stop stop-color="#DC8758" stop-opacity="0"/>
<stop offset="0.9957" stop-color="#DC8758" stop-opacity="0.996"/>
<stop offset="1" stop-color="#DC8758"/>
</linearGradient>
<linearGradient id="paint38_linear_2648_15376" x1="7.82612" y1="5.28626" x2="9.4898" y2="6.94995" gradientUnits="userSpaceOnUse">
<stop stop-color="#FBC56D"/>
<stop offset="1" stop-color="#C5715A"/>
</linearGradient>
<linearGradient id="paint39_linear_2648_15376" x1="9.15944" y1="6.61959" x2="7.60095" y2="5.06109" gradientUnits="userSpaceOnUse">
<stop stop-color="#FBC56D"/>
<stop offset="1" stop-color="#C5715A"/>
</linearGradient>
<linearGradient id="paint40_linear_2648_15376" x1="8.5003" y1="0.355545" x2="8.5003" y2="1.00929" gradientUnits="userSpaceOnUse">
<stop stop-color="#FEF0AE"/>
<stop offset="1" stop-color="#FBC56D"/>
</linearGradient>
</defs>
</svg>
