<svg width="52" height="52" viewBox="0 0 52 52" fill="none" xmlns="http://www.w3.org/2000/svg">
<g filter="url(#filter0_d_2073_40870)">
<circle cx="26" cy="26" r="14" fill="#FFE5CF"/>
<circle cx="26" cy="26" r="13" stroke="white" stroke-width="2"/>
</g>
<g clip-path="url(#clip0_2073_40870)">
<path d="M22.466 27.9316C23.1415 28.5927 23.5652 29.3891 23.7116 30.1566C23.7423 30.3173 23.4957 30.5692 23.3343 30.542C22.564 30.4121 21.7586 30.0056 21.0831 29.3445C20.4076 28.6833 19.9839 27.8869 19.8374 27.1195C19.8068 26.9587 20.0534 26.7068 20.2147 26.734C20.9851 26.8639 21.7905 27.2704 22.466 27.9316Z" fill="url(#paint0_linear_2073_40870)"/>
<path d="M22.466 27.9316C23.1415 28.5927 23.5652 29.3891 23.7116 30.1566C23.7423 30.3173 23.4957 30.5692 23.3343 30.542C22.564 30.4121 21.7586 30.0056 21.0831 29.3445C20.4076 28.6833 19.9839 27.8869 19.8374 27.1195C19.8068 26.9587 20.0534 26.7068 20.2147 26.734C20.9851 26.8639 21.7905 27.2704 22.466 27.9316Z" fill="url(#paint1_linear_2073_40870)"/>
<path d="M23.382 26.3657C23.9236 27.4243 24.1108 28.5436 23.9789 29.5176C23.9513 29.7215 23.5564 29.9236 23.3748 29.8266C22.5078 29.3638 21.7095 28.5572 21.1679 27.4986C20.6263 26.4401 20.4391 25.3208 20.571 24.3468C20.5986 24.1429 20.9935 23.9408 21.1751 24.0378C22.0421 24.5006 22.8404 25.3072 23.382 26.3657Z" fill="url(#paint2_linear_2073_40870)"/>
<path d="M20.5607 25.5069C20.6322 26.1614 20.8317 26.8417 21.1679 27.4987C21.7095 28.5572 22.5078 29.3638 23.3748 29.8266C23.5564 29.9235 23.9513 29.7215 23.9789 29.5176C24.1108 28.5436 23.9236 27.4243 23.382 26.3657C23.0631 25.7424 22.6551 25.2066 22.1965 24.7767L20.5607 25.5069Z" fill="url(#paint3_linear_2073_40870)"/>
<path d="M29.5338 27.9316C28.8583 28.5927 28.4346 29.3891 28.2881 30.1566C28.2575 30.3173 28.5041 30.5692 28.6654 30.542C29.4358 30.4121 30.2412 30.0056 30.9167 29.3445C31.5922 28.6833 32.0158 27.8869 32.1623 27.1195C32.193 26.9587 31.9464 26.7068 31.785 26.734C31.0146 26.8639 30.2093 27.2704 29.5338 27.9316Z" fill="url(#paint4_linear_2073_40870)"/>
<path d="M29.5338 27.9316C28.8583 28.5927 28.4346 29.3891 28.2881 30.1566C28.2575 30.3173 28.5041 30.5692 28.6654 30.542C29.4358 30.4121 30.2412 30.0056 30.9167 29.3445C31.5922 28.6833 32.0158 27.8869 32.1623 27.1195C32.193 26.9587 31.9464 26.7068 31.785 26.734C31.0146 26.8639 30.2093 27.2704 29.5338 27.9316Z" fill="url(#paint5_linear_2073_40870)"/>
<path d="M28.6179 26.3657C28.0762 27.4243 27.889 28.5436 28.0209 29.5176C28.0485 29.7215 28.4434 29.9236 28.625 29.8266C29.492 29.3638 30.2903 28.5572 30.8319 27.4986C31.3736 26.4401 31.5608 25.3208 31.4289 24.3468C31.4013 24.1429 31.0064 23.9408 30.8248 24.0378C29.9578 24.5006 29.1595 25.3072 28.6179 26.3657Z" fill="url(#paint6_linear_2073_40870)"/>
<path d="M31.4392 25.5069C31.3676 26.1614 31.1681 26.8417 30.8319 27.4986C30.2903 28.5572 29.492 29.3638 28.625 29.8266C28.4434 29.9235 28.0486 29.7215 28.0209 29.5176C27.889 28.5436 28.0762 27.4243 28.6179 26.3657C28.9368 25.7424 29.3448 25.2066 29.8033 24.7767L31.4392 25.5069Z" fill="url(#paint7_linear_2073_40870)"/>
<path d="M25.9998 33.6364C28.63 33.6364 30.7621 31.5042 30.7621 28.8741C30.7621 26.244 28.63 24.1118 25.9998 24.1118C23.3697 24.1118 21.2375 26.244 21.2375 28.8741C21.2375 31.5042 23.3697 33.6364 25.9998 33.6364Z" fill="url(#paint8_linear_2073_40870)"/>
<path d="M25.9999 32.67C28.0963 32.67 29.7957 30.9705 29.7957 28.8741C29.7957 26.7777 28.0963 25.0782 25.9999 25.0782C23.9035 25.0782 22.204 26.7777 22.204 28.8741C22.204 30.9705 23.9035 32.67 25.9999 32.67Z" fill="url(#paint9_linear_2073_40870)"/>
<path d="M25.9997 32.1329C27.7995 32.1329 29.2585 30.6739 29.2585 28.8741C29.2585 27.0743 27.7995 25.6153 25.9997 25.6153C24.2 25.6153 22.741 27.0743 22.741 28.8741C22.741 30.6739 24.2 32.1329 25.9997 32.1329Z" fill="url(#paint10_linear_2073_40870)"/>
<path d="M21.2375 28.8741C21.2375 31.5042 23.3697 33.6364 25.9998 33.6364C28.63 33.6364 30.7621 31.5042 30.7621 28.8741C30.7621 28.8556 30.7616 28.8373 30.7614 28.8188H21.2382C21.238 28.8373 21.2375 28.8556 21.2375 28.8741Z" fill="url(#paint11_linear_2073_40870)"/>
<path d="M27.3356 33.4462C28.8362 33.0086 30.0303 31.8525 30.5206 30.3751L28.2011 28.0557L27.6782 28.0814L26.267 26.6701L24.547 30.6576L27.3356 33.4462Z" fill="url(#paint12_linear_2073_40870)"/>
<path d="M27.9526 27.8393L27.0187 27.6136C26.9318 27.5927 26.8559 27.54 26.8058 27.4659L26.2674 26.6701C26.2023 26.5739 26.1025 26.5222 25.9998 26.5139C25.8972 26.5222 25.7974 26.5739 25.7323 26.6701L25.1939 27.4659C25.1439 27.54 25.0679 27.5927 24.981 27.6136L24.0471 27.8393C23.7937 27.9005 23.6882 28.2029 23.8483 28.4085L24.4389 29.1664C24.4938 29.237 24.5204 29.3254 24.5135 29.4145L24.4395 30.3725C24.4195 30.6323 24.6744 30.8262 24.9195 30.7374L25.8228 30.41C25.8799 30.3893 25.9408 30.384 25.9998 30.3932C26.059 30.384 26.1198 30.3894 26.1769 30.41L27.0802 30.7374C27.3253 30.8262 27.5802 30.6323 27.5602 30.3725L27.4862 29.4145C27.4793 29.3254 27.5059 29.237 27.5608 29.1664L28.1514 28.4085C28.3115 28.2029 28.2059 27.9005 27.9526 27.8393Z" fill="url(#paint13_linear_2073_40870)"/>
<path d="M26.1769 30.41L27.0803 30.7374C27.3253 30.8262 27.5802 30.6323 27.5602 30.3725L27.4862 29.4145C27.4793 29.3254 27.5059 29.237 27.5609 29.1664L28.1514 28.4085C28.3116 28.2029 28.206 27.9005 27.9526 27.8393L27.0187 27.6136C26.9318 27.5927 26.8559 27.54 26.8058 27.4659L26.2674 26.6701C26.2023 26.5739 26.1025 26.5222 25.9999 26.5139V30.3932C26.059 30.384 26.1199 30.3893 26.1769 30.41Z" fill="url(#paint14_linear_2073_40870)"/>
<path d="M27.9526 27.8393L27.0186 27.6136C26.9867 27.6059 26.9564 27.5939 26.9282 27.5782L24.5474 30.6576C24.6408 30.7479 24.7817 30.7873 24.9194 30.7374L25.8228 30.41C25.8798 30.3894 25.9407 30.384 25.9998 30.3932C26.0589 30.3841 26.1198 30.3894 26.1768 30.41L27.0802 30.7374C27.3252 30.8262 27.5802 30.6324 27.5601 30.3725L27.4861 29.4146C27.4792 29.3254 27.5059 29.237 27.5608 29.1665L28.1513 28.4085C28.3115 28.2029 28.2059 27.9005 27.9526 27.8393Z" fill="url(#paint15_linear_2073_40870)"/>
<path d="M24.0471 27.8393L24.981 27.6136C25.0129 27.6059 25.0433 27.5939 25.0715 27.5782L27.4523 30.6577C27.3589 30.7479 27.218 30.7874 27.0802 30.7374L26.1769 30.4101C26.1198 30.3894 26.0589 30.384 25.9998 30.3932C25.9407 30.3841 25.8799 30.3894 25.8228 30.4101L24.9195 30.7374C24.6744 30.8262 24.4195 30.6324 24.4395 30.3725L24.5135 29.4146C24.5204 29.3255 24.4938 29.237 24.4389 29.1665L23.8483 28.4085C23.6882 28.2029 23.7937 27.9005 24.0471 27.8393Z" fill="url(#paint16_linear_2073_40870)"/>
<path d="M23.7985 28.0557C23.7541 28.1677 23.7647 28.3012 23.8483 28.4085L24.4388 29.1664C24.4938 29.237 24.5204 29.3254 24.5135 29.4145L24.4395 30.3725C24.4195 30.6323 24.6744 30.8262 24.9195 30.7374L25.8228 30.41C25.8799 30.3893 25.9408 30.384 25.9998 30.3932C26.059 30.384 26.1198 30.3894 26.1769 30.41L27.0802 30.7374C27.3252 30.8262 27.5802 30.6323 27.5601 30.3725L27.4861 29.4145C27.4823 29.3651 27.4892 29.316 27.5051 29.2699L23.7985 28.0557Z" fill="url(#paint17_linear_2073_40870)"/>
<path d="M28.2016 28.0557C28.246 28.1677 28.2354 28.3012 28.1518 28.4085L27.5613 29.1664C27.5063 29.237 27.4797 29.3254 27.4866 29.4146L27.5606 30.3725C27.5806 30.6324 27.3257 30.8262 27.0806 30.7374L26.1773 30.41C26.1202 30.3893 26.0593 30.384 26.0003 30.3932C25.9411 30.384 25.8803 30.3894 25.8232 30.41L24.9199 30.7374C24.6749 30.8262 24.4199 30.6324 24.44 30.3725L24.514 29.4146C24.5178 29.3651 24.5109 29.316 24.495 29.2699L28.2016 28.0557Z" fill="url(#paint18_linear_2073_40870)"/>
<path d="M26 24.1118C25.9802 24.1118 25.9606 24.1123 25.9409 24.1126L25.2059 24.8475L30.5712 30.2128C30.6953 29.7881 30.7622 29.3389 30.7622 28.8741C30.7622 26.2439 28.6301 24.1118 26 24.1118Z" fill="url(#paint19_linear_2073_40870)"/>
<path d="M23.125 18.4635V20.979L25.9999 23.8538L28.8747 20.979V18.4635H23.125Z" fill="url(#paint20_linear_2073_40870)"/>
<path d="M23.125 18.4635V19.2463L25.9903 22.1116C25.9956 22.1169 26.0042 22.1169 26.0095 22.1116L28.8747 19.2463V18.4635H23.125Z" fill="url(#paint21_linear_2073_40870)"/>
<path d="M25.9999 22.5645C25.8813 22.5645 25.7628 22.5194 25.6726 22.4292L23.125 19.8816V20.979L25.9999 23.8539L28.8747 20.979V19.8816L26.3271 22.4292C26.2369 22.5194 26.1184 22.5645 25.9999 22.5645Z" fill="url(#paint22_linear_2073_40870)"/>
<path d="M23.125 18.4635V19.2463L25.9903 22.1116C25.9956 22.1169 26.0042 22.1169 26.0095 22.1116L28.8747 19.2463V18.4635H23.125Z" fill="url(#paint23_linear_2073_40870)"/>
<path d="M25.9999 22.5645C25.8813 22.5645 25.7628 22.5194 25.6726 22.4292L23.125 19.8816V20.979L25.9999 23.8539L28.8747 20.979V19.8816L26.3271 22.4292C26.2369 22.5194 26.1184 22.5645 25.9999 22.5645Z" fill="url(#paint24_linear_2073_40870)"/>
<path d="M25.9999 22.5645C26.1184 22.5645 26.2369 22.5194 26.3271 22.4292L28.8747 19.8816V20.979L25.9999 23.8539L23.125 20.979V19.8816L25.6726 22.4292C25.7628 22.5194 25.8814 22.5645 25.9999 22.5645Z" fill="url(#paint25_linear_2073_40870)"/>
<path d="M25.6847 23.2008L23.2382 20.7544C23.0548 20.5709 22.7573 20.5709 22.5739 20.7544C22.3904 20.9378 22.3904 21.2353 22.5739 21.4187L25.9999 24.8448L29.426 21.4188C29.6095 21.2353 29.6095 20.9378 29.426 20.7544C29.2426 20.5709 28.9451 20.5709 28.7617 20.7544L26.3152 23.2008C26.1411 23.375 25.8588 23.375 25.6847 23.2008Z" fill="url(#paint26_linear_2073_40870)"/>
<path d="M22.5739 20.7599L25.6393 23.8253C25.8385 24.0245 26.1615 24.0245 26.3608 23.8253L29.4261 20.7599C29.427 20.759 29.4277 20.758 29.4286 20.7571C29.4277 20.7562 29.427 20.7553 29.4261 20.7544C29.2426 20.5709 28.9452 20.5709 28.7617 20.7544L26.3153 23.2008C26.1412 23.3749 25.8589 23.3749 25.6847 23.2008L23.2383 20.7544C23.0548 20.5709 22.7574 20.5709 22.5739 20.7544C22.573 20.7553 22.5723 20.7562 22.5714 20.7571C22.5723 20.758 22.573 20.759 22.5739 20.7599Z" fill="url(#paint27_linear_2073_40870)"/>
<path d="M25.9999 24.8449L28.4184 22.4264H27.0896L26.3152 23.2008C26.141 23.375 25.8587 23.375 25.6846 23.2008L24.9102 22.4264H23.5814L25.9999 24.8449Z" fill="url(#paint28_linear_2073_40870)"/>
<path d="M25.7004 24.5454L25.9999 24.8448L29.0672 21.7775H27.7385L26.3152 23.2008C26.1461 23.3699 25.8754 23.3743 25.7004 23.2151V24.5454Z" fill="url(#paint29_linear_2073_40870)"/>
<path d="M25.9999 25.1764C26.6201 25.1764 27.1228 24.6737 27.1228 24.0535C27.1228 23.4333 26.6201 22.9305 25.9999 22.9305C25.3797 22.9305 24.877 23.4333 24.877 24.0535C24.877 24.6737 25.3797 25.1764 25.9999 25.1764Z" fill="url(#paint30_linear_2073_40870)"/>
<path d="M25.9999 24.6973C26.3554 24.6973 26.6437 24.409 26.6437 24.0535C26.6437 23.6979 26.3554 23.4097 25.9999 23.4097C25.6443 23.4097 25.3561 23.6979 25.3561 24.0535C25.3561 24.409 25.6443 24.6973 25.9999 24.6973Z" fill="url(#paint31_linear_2073_40870)"/>
<path d="M29.3091 19.4816H22.6908C22.5006 19.4816 22.3464 19.3275 22.3464 19.1373V18.708C22.3464 18.5178 22.5006 18.3636 22.6908 18.3636H29.3091C29.4992 18.3636 29.6534 18.5178 29.6534 18.708V19.1373C29.6534 19.3275 29.4992 19.4816 29.3091 19.4816Z" fill="url(#paint32_linear_2073_40870)"/>
</g>
<defs>
<filter id="filter0_d_2073_40870" x="0" y="0" width="52" height="52" filterUnits="userSpaceOnUse" color-interpolation-filters="sRGB">
<feFlood flood-opacity="0" result="BackgroundImageFix"/>
<feColorMatrix in="SourceAlpha" type="matrix" values="0 0 0 0 0 0 0 0 0 0 0 0 0 0 0 0 0 0 127 0" result="hardAlpha"/>
<feOffset/>
<feGaussianBlur stdDeviation="6"/>
<feComposite in2="hardAlpha" operator="out"/>
<feColorMatrix type="matrix" values="0 0 0 0 0.211765 0 0 0 0 0.270588 0 0 0 0 0.309804 0 0 0 0.16 0"/>
<feBlend mode="normal" in2="BackgroundImageFix" result="effect1_dropShadow_2073_40870"/>
<feBlend mode="normal" in="SourceGraphic" in2="effect1_dropShadow_2073_40870" result="shape"/>
</filter>
<linearGradient id="paint0_linear_2073_40870" x1="20.6865" y1="26.945" x2="21.6655" y2="28.487" gradientUnits="userSpaceOnUse">
<stop stop-color="#FBC56D"/>
<stop offset="1" stop-color="#C5715A"/>
</linearGradient>
<linearGradient id="paint1_linear_2073_40870" x1="20.8242" y1="28.3028" x2="21.8689" y2="28.684" gradientUnits="userSpaceOnUse">
<stop stop-color="#8C3D27" stop-opacity="0"/>
<stop offset="1" stop-color="#8C3D27"/>
</linearGradient>
<linearGradient id="paint2_linear_2073_40870" x1="22.3611" y1="25.3008" x2="22.2239" y2="27.7258" gradientUnits="userSpaceOnUse">
<stop stop-color="#FBC56D"/>
<stop offset="1" stop-color="#C5715A"/>
</linearGradient>
<linearGradient id="paint3_linear_2073_40870" x1="22.0494" y1="26.5305" x2="22.6417" y2="27.6409" gradientUnits="userSpaceOnUse">
<stop stop-color="#8C3D27" stop-opacity="0"/>
<stop offset="1" stop-color="#8C3D27"/>
</linearGradient>
<linearGradient id="paint4_linear_2073_40870" x1="31.3109" y1="26.9492" x2="30.3319" y2="28.4912" gradientUnits="userSpaceOnUse">
<stop stop-color="#FBC56D"/>
<stop offset="1" stop-color="#C5715A"/>
</linearGradient>
<linearGradient id="paint5_linear_2073_40870" x1="31.1731" y1="28.307" x2="30.1285" y2="28.6882" gradientUnits="userSpaceOnUse">
<stop stop-color="#8C3D27" stop-opacity="0"/>
<stop offset="1" stop-color="#8C3D27"/>
</linearGradient>
<linearGradient id="paint6_linear_2073_40870" x1="29.6363" y1="25.3051" x2="29.7736" y2="27.73" gradientUnits="userSpaceOnUse">
<stop stop-color="#FBC56D"/>
<stop offset="1" stop-color="#C5715A"/>
</linearGradient>
<linearGradient id="paint7_linear_2073_40870" x1="29.948" y1="26.5347" x2="29.3557" y2="27.6451" gradientUnits="userSpaceOnUse">
<stop stop-color="#8C3D27" stop-opacity="0"/>
<stop offset="1" stop-color="#8C3D27"/>
</linearGradient>
<linearGradient id="paint8_linear_2073_40870" x1="23.0637" y1="25.938" x2="28.0862" y2="30.9605" gradientUnits="userSpaceOnUse">
<stop stop-color="#FBC56D"/>
<stop offset="1" stop-color="#C5715A"/>
</linearGradient>
<linearGradient id="paint9_linear_2073_40870" x1="28.4652" y1="31.3395" x2="23.4625" y2="26.3368" gradientUnits="userSpaceOnUse">
<stop stop-color="#FBC56D"/>
<stop offset="1" stop-color="#C5715A"/>
</linearGradient>
<linearGradient id="paint10_linear_2073_40870" x1="23.6307" y1="26.5051" x2="27.5303" y2="30.4046" gradientUnits="userSpaceOnUse">
<stop stop-color="#FBC56D"/>
<stop offset="1" stop-color="#C5715A"/>
</linearGradient>
<linearGradient id="paint11_linear_2073_40870" x1="25.9998" y1="30.2675" x2="25.9998" y2="33.3933" gradientUnits="userSpaceOnUse">
<stop stop-color="#8C3D27" stop-opacity="0"/>
<stop offset="1" stop-color="#8C3D27"/>
</linearGradient>
<linearGradient id="paint12_linear_2073_40870" x1="28.8521" y1="31.3491" x2="24.9191" y2="28.8735" gradientUnits="userSpaceOnUse">
<stop stop-color="#8C3D27" stop-opacity="0"/>
<stop offset="1" stop-color="#8C3D27"/>
</linearGradient>
<linearGradient id="paint13_linear_2073_40870" x1="25.0078" y1="27.9689" x2="26.7967" y2="29.7578" gradientUnits="userSpaceOnUse">
<stop stop-color="#FBC56D"/>
<stop offset="1" stop-color="#C5715A"/>
</linearGradient>
<linearGradient id="paint14_linear_2073_40870" x1="27.0718" y1="28.4566" x2="24.5993" y2="29.4788" gradientUnits="userSpaceOnUse">
<stop stop-color="#8C3D27" stop-opacity="0"/>
<stop offset="1" stop-color="#8C3D27"/>
</linearGradient>
<linearGradient id="paint15_linear_2073_40870" x1="26.4261" y1="29.3341" x2="25.0725" y2="28.7539" gradientUnits="userSpaceOnUse">
<stop stop-color="#8C3D27" stop-opacity="0"/>
<stop offset="1" stop-color="#8C3D27"/>
</linearGradient>
<linearGradient id="paint16_linear_2073_40870" x1="25.5735" y1="29.3341" x2="26.9272" y2="28.7539" gradientUnits="userSpaceOnUse">
<stop stop-color="#8C3D27" stop-opacity="0"/>
<stop offset="1" stop-color="#8C3D27"/>
</linearGradient>
<linearGradient id="paint17_linear_2073_40870" x1="25.6036" y1="29.402" x2="26.4738" y2="28.0034" gradientUnits="userSpaceOnUse">
<stop stop-color="#8C3D27" stop-opacity="0"/>
<stop offset="1" stop-color="#8C3D27"/>
</linearGradient>
<linearGradient id="paint18_linear_2073_40870" x1="26.3294" y1="29.2254" x2="26.2569" y2="27.8579" gradientUnits="userSpaceOnUse">
<stop stop-color="#8C3D27" stop-opacity="0"/>
<stop offset="1" stop-color="#8C3D27"/>
</linearGradient>
<linearGradient id="paint19_linear_2073_40870" x1="28.3467" y1="26.8622" x2="26.51" y2="23.648" gradientUnits="userSpaceOnUse">
<stop stop-color="#8C3D27" stop-opacity="0"/>
<stop offset="1" stop-color="#8C3D27"/>
</linearGradient>
<linearGradient id="paint20_linear_2073_40870" x1="26.2128" y1="20.0609" x2="27.3957" y2="21.9475" gradientUnits="userSpaceOnUse">
<stop stop-color="#F9F5F3"/>
<stop offset="1" stop-color="#D8E8F0"/>
</linearGradient>
<linearGradient id="paint21_linear_2073_40870" x1="25.033" y1="17.7461" x2="28.7064" y2="21.9586" gradientUnits="userSpaceOnUse">
<stop stop-color="#BBEC6C"/>
<stop offset="1" stop-color="#81B823"/>
</linearGradient>
<linearGradient id="paint22_linear_2073_40870" x1="24.2526" y1="18.4266" x2="27.9261" y2="22.6391" gradientUnits="userSpaceOnUse">
<stop stop-color="#BBEC6C"/>
<stop offset="1" stop-color="#81B823"/>
</linearGradient>
<linearGradient id="paint23_linear_2073_40870" x1="25.9999" y1="20.3551" x2="25.9999" y2="19.3658" gradientUnits="userSpaceOnUse">
<stop stop-color="#78A91F" stop-opacity="0"/>
<stop offset="1" stop-color="#78A91F"/>
</linearGradient>
<linearGradient id="paint24_linear_2073_40870" x1="27.1377" y1="21.5681" x2="27.6489" y2="22.0793" gradientUnits="userSpaceOnUse">
<stop stop-color="#78A91F" stop-opacity="0"/>
<stop offset="1" stop-color="#78A91F"/>
</linearGradient>
<linearGradient id="paint25_linear_2073_40870" x1="24.862" y1="21.5681" x2="24.3509" y2="22.0793" gradientUnits="userSpaceOnUse">
<stop stop-color="#78A91F" stop-opacity="0"/>
<stop offset="1" stop-color="#78A91F"/>
</linearGradient>
<linearGradient id="paint26_linear_2073_40870" x1="28.5959" y1="23.6825" x2="22.455" y2="17.5417" gradientUnits="userSpaceOnUse">
<stop stop-color="#FBC56D"/>
<stop offset="1" stop-color="#C5715A"/>
</linearGradient>
<linearGradient id="paint27_linear_2073_40870" x1="26" y1="20.8093" x2="26" y2="25.003" gradientUnits="userSpaceOnUse">
<stop stop-color="#FBC56D"/>
<stop offset="1" stop-color="#C5715A"/>
</linearGradient>
<linearGradient id="paint28_linear_2073_40870" x1="25.9999" y1="23.2449" x2="25.9999" y2="24.6238" gradientUnits="userSpaceOnUse">
<stop stop-color="#8C3D27" stop-opacity="0"/>
<stop offset="1" stop-color="#8C3D27"/>
</linearGradient>
<linearGradient id="paint29_linear_2073_40870" x1="27.4154" y1="22.4642" x2="26.5769" y2="23.3177" gradientUnits="userSpaceOnUse">
<stop stop-color="#8C3D27" stop-opacity="0"/>
<stop offset="1" stop-color="#8C3D27"/>
</linearGradient>
<linearGradient id="paint30_linear_2073_40870" x1="25.356" y1="23.4096" x2="26.9441" y2="24.9977" gradientUnits="userSpaceOnUse">
<stop stop-color="#FBC56D"/>
<stop offset="1" stop-color="#C5715A"/>
</linearGradient>
<linearGradient id="paint31_linear_2073_40870" x1="26.4566" y1="24.5102" x2="25.6704" y2="23.724" gradientUnits="userSpaceOnUse">
<stop stop-color="#FBC56D"/>
<stop offset="1" stop-color="#C5715A"/>
</linearGradient>
<linearGradient id="paint32_linear_2073_40870" x1="25.9999" y1="18.703" x2="25.9999" y2="19.327" gradientUnits="userSpaceOnUse">
<stop stop-color="#FBC56D"/>
<stop offset="1" stop-color="#C5715A"/>
</linearGradient>
<clipPath id="clip0_2073_40870">
<rect width="15.2727" height="15.2727" fill="white" transform="translate(18.3635 18.3636)"/>
</clipPath>
</defs>
</svg>
