<svg width="117" height="94" viewBox="0 0 117 94" fill="none" xmlns="http://www.w3.org/2000/svg">
<path d="M116.776 49.4081C116.734 49.3848 116.687 49.3726 116.639 49.3726C116.591 49.3726 116.544 49.3848 116.502 49.4081L90.7388 64.3045L55.3135 43.864L81.0943 28.9943C81.1357 28.9693 81.1831 28.9561 81.2315 28.9561C81.2799 28.9561 81.3274 28.9693 81.3688 28.9943L116.776 49.4081Z" fill="#FCD561"/>
<path d="M116.776 49.4083C116.813 49.4356 116.842 49.472 116.861 49.5139C116.879 49.5558 116.887 49.6018 116.882 49.6474C116.871 49.7781 116.831 49.9046 116.765 50.0179C116.7 50.1313 116.609 50.2286 116.501 50.3028L90.7383 65.1726V64.287L116.519 49.4349C116.557 49.4104 116.6 49.3953 116.644 49.3907C116.689 49.386 116.734 49.3921 116.776 49.4083Z" fill="#FEB30F"/>
<path d="M116.218 43.7486L90.8539 58.3881L55.4463 37.9477L80.8108 23.2993L116.218 43.7486Z" fill="#FCEAB2"/>
<path d="M89.9945 58.0339V63.888L54.5869 43.4475L55.446 37.9478L89.9945 58.0339Z" fill="#FCD561"/>
<path d="M115.359 43.4297C114.883 44.3506 114.651 45.3782 114.686 46.4143C114.686 48.5664 115.359 49.2749 115.359 49.2749L89.9941 63.8878V58.0338L115.359 43.4297Z" fill="#FEFEFE"/>
<path d="M116.891 42.6244C116.85 42.5984 116.802 42.5846 116.754 42.5846C116.705 42.5846 116.657 42.5984 116.616 42.6244L90.8355 57.5207L55.4102 37.0803L81.2087 22.1751C81.2507 22.1519 81.2979 22.1396 81.3459 22.1396C81.394 22.1396 81.4412 22.1519 81.4832 22.1751L116.891 42.6244Z" fill="#FCD561"/>
<path d="M116.891 42.6247C116.93 42.6507 116.96 42.6869 116.979 42.7291C116.997 42.7714 117.004 42.818 116.998 42.8638C116.987 42.9945 116.947 43.121 116.881 43.2343C116.815 43.3477 116.725 43.445 116.617 43.5192L90.8359 58.389V57.5034L116.599 42.6247C116.642 42.595 116.693 42.5791 116.745 42.5791C116.797 42.5791 116.848 42.595 116.891 42.6247Z" fill="#FEB30F"/>
<path d="M91.4661 57.166L90.731 57.5911L55.3057 37.1507L56.0407 36.7256L91.4661 57.166Z" fill="#FEB30F"/>
<path d="M90.7303 57.6001C88.9591 60.7441 88.9591 64.1449 90.7303 65.19L55.305 44.7495C53.4895 43.7045 53.4895 40.3214 55.305 37.1597L90.7303 57.6001Z" fill="#FBC22C"/>
<path d="M62.6561 42.5444C62.1567 43.5667 61.8819 44.684 61.8502 45.8213C61.811 46.187 61.8483 46.557 61.9596 46.9076C62.0709 47.2582 62.2538 47.5819 62.4967 47.8582L55.757 43.9703C55.4347 43.7098 55.1842 43.3713 55.0293 42.987C54.8743 42.6026 54.8199 42.1851 54.8714 41.7739C54.9087 40.6374 55.1832 39.5212 55.6773 38.4971L62.6561 42.5444Z" fill="#FEB30F"/>
<path d="M87.2149 56.8562C86.5635 58.1685 86.2069 59.6073 86.1699 61.0719C86.1699 61.2844 86.1699 61.4881 86.1699 61.6829L64.8615 49.1955C64.8171 49.1742 64.7754 49.1474 64.7375 49.1158C64.6953 49.0882 64.6566 49.0555 64.6224 49.0184C64.3821 48.7384 64.2003 48.4131 64.0878 48.0618C63.9752 47.7104 63.9342 47.3401 63.967 46.9726C64 45.8383 64.2748 44.7241 64.773 43.7046L87.2149 56.8562Z" fill="#FEB30F"/>
<path d="M91.4659 57.166C89.6946 60.31 89.6946 63.7108 91.4659 64.7559L90.7308 65.181C88.9595 64.1359 88.9595 60.7528 90.7308 57.5911L91.4659 57.166Z" fill="#FEB30F"/>
<path d="M110.32 40.2505C110.287 40.2311 110.249 40.2209 110.21 40.2209C110.171 40.2209 110.133 40.2311 110.099 40.2505L88.9678 52.4811L59.9014 35.6541L81.0946 20.5806C81.1285 20.562 81.1666 20.5522 81.2053 20.5522C81.244 20.5522 81.282 20.562 81.316 20.5806L110.32 40.2505Z" fill="#5195FB"/>
<path d="M110.32 40.2507C110.351 40.2724 110.375 40.3019 110.391 40.3361C110.407 40.3704 110.413 40.4081 110.409 40.4455C110.405 40.554 110.375 40.66 110.321 40.7542C110.267 40.8484 110.191 40.9279 110.099 40.9857L88.9678 53.1721V52.4547L110.117 40.2418C110.149 40.2269 110.184 40.2199 110.22 40.2214C110.255 40.2229 110.29 40.233 110.32 40.2507Z" fill="#1C6DF6"/>
<path d="M109.886 32.687L89.0645 44.7139L59.998 27.9312L80.8193 15.9043L109.886 32.687Z" fill="#FCEAB2"/>
<path d="M88.3565 44.4216V52.1355L59.29 35.3528L59.9985 27.9312L88.3565 44.4216Z" fill="#FCD561"/>
<path d="M109.178 32.4038C108.789 33.1615 108.6 34.0059 108.629 34.857C108.71 36.6197 108.893 38.3762 109.178 40.1177L88.3564 52.1357V44.4219L109.178 32.4038Z" fill="#FEFEFE"/>
<path d="M110.435 31.7662C110.401 31.7468 110.363 31.7366 110.324 31.7366C110.285 31.7366 110.247 31.7468 110.213 31.7662L89.0645 43.9968L59.998 27.1698L81.147 15.0012C81.1813 14.984 81.2192 14.9751 81.2577 14.9751C81.2961 14.9751 81.334 14.984 81.3684 15.0012L110.435 31.7662Z" fill="#5195FB"/>
<path d="M110.435 31.7663C110.467 31.7887 110.492 31.8197 110.508 31.8556C110.523 31.8916 110.529 31.9311 110.523 31.9699C110.518 32.077 110.488 32.1812 110.434 32.2737C110.38 32.3662 110.304 32.4443 110.213 32.5013L89.0645 44.7142V43.9968L110.213 31.784C110.245 31.7618 110.283 31.7484 110.322 31.7453C110.361 31.7422 110.4 31.7494 110.435 31.7663Z" fill="#1C6DF6"/>
<path d="M89.5701 43.7046L88.9591 44.0588L59.8926 27.2761L60.5037 26.9307L89.5701 43.7046Z" fill="#1C6DF6"/>
<path d="M88.9588 44.059C87.4709 46.6362 87.4798 52.3396 88.9588 53.1987L59.8835 36.3717C58.3956 35.486 58.3956 29.8091 59.8835 27.2319L88.9588 44.059Z" fill="#3E85F4"/>
<path d="M65.9148 31.6691C65.4897 32.5547 65.2506 36.4426 65.2506 37.2663C65.225 37.5685 65.2612 37.8729 65.3572 38.1607C65.4531 38.4485 65.6067 38.7137 65.8086 38.9401L60.2822 35.7518C59.8394 35.4596 59.2903 32.6787 59.5471 31.0314C59.6451 30.1194 59.8686 29.2253 60.2114 28.3745L65.9148 31.6691Z" fill="#88BEFF"/>
<path d="M86.0805 43.4298C85.5225 44.59 85.1948 48.7436 85.1948 49.7975C85.1948 49.9746 85.1948 50.1429 85.1948 50.3023L67.7213 40.0821L67.6239 40.0113C67.5893 39.9874 67.5567 39.9607 67.5265 39.9316C67.1396 39.4702 66.9489 38.8757 66.9951 38.2754C66.9951 37.4606 67.2253 33.5993 67.6504 32.6782L86.0805 43.4298Z" fill="#88BEFF"/>
<path d="M89.5701 43.7046C88.0822 46.2906 88.0822 51.9941 89.5701 52.8532L88.9679 53.1986C87.48 52.3129 87.4711 46.636 88.9679 44.0588L89.5701 43.7046Z" fill="#1C6DF6"/>
<path d="M102.517 29.8444C102.491 29.8279 102.46 29.8192 102.429 29.8192C102.397 29.8192 102.367 29.8279 102.34 29.8444L86.0179 39.2852L63.6025 26.3373L79.9159 14.6646C79.9415 14.6499 79.9705 14.6421 80 14.6421C80.0296 14.6421 80.0586 14.6499 80.0842 14.6646L102.517 29.8444Z" fill="#FCD561"/>
<path d="M102.517 29.8443C102.538 29.8631 102.555 29.8864 102.565 29.9125C102.576 29.9386 102.581 29.9668 102.579 29.9949C102.575 30.0783 102.552 30.1597 102.51 30.2321C102.468 30.3045 102.41 30.3659 102.34 30.4112L86.0176 39.8343V39.2852L102.349 29.8621C102.373 29.8445 102.401 29.8336 102.43 29.8305C102.46 29.8274 102.49 29.8322 102.517 29.8443Z" fill="#FEB30F"/>
<path d="M102.163 24.008L86.0981 33.2894L63.6738 20.3415L79.7392 11.0601L102.163 24.008Z" fill="#FCEAB2"/>
<path d="M85.5492 33.059V39.0105L63.125 26.0714L63.6741 20.3413L85.5492 33.059Z" fill="#FCD561"/>
<path d="M101.614 23.7866C101.315 24.3724 101.169 25.0244 101.189 25.6819C101.256 27.0408 101.397 28.395 101.614 29.7381L85.5225 39.0018V33.0592L101.614 23.7866Z" fill="#FEFEFE"/>
<path d="M102.589 23.2997C102.564 23.2829 102.534 23.274 102.504 23.274C102.474 23.274 102.445 23.2829 102.42 23.2997L86.0981 32.7405L63.6738 19.7926L79.9872 10.3694C80.0138 10.353 80.0445 10.3442 80.0758 10.3442C80.107 10.3442 80.1377 10.353 80.1643 10.3694L102.589 23.2997Z" fill="#FCD561"/>
<path d="M102.588 23.2996C102.612 23.3164 102.631 23.3391 102.643 23.3655C102.656 23.3919 102.661 23.4211 102.659 23.4501C102.652 23.5328 102.627 23.6129 102.586 23.6848C102.544 23.7568 102.488 23.8187 102.42 23.8664L86.0977 33.2895V32.7404L102.42 23.3173C102.443 23.2978 102.471 23.2857 102.501 23.2826C102.531 23.2794 102.562 23.2853 102.588 23.2996Z" fill="#FEB30F"/>
<path d="M86.4874 32.51L86.018 32.7845L63.5938 19.8366L64.0631 19.562L86.4874 32.51Z" fill="#FEB30F"/>
<path d="M86.0182 32.8024C84.8669 34.795 84.8757 39.1878 86.0182 39.8874L63.594 26.8863C62.4426 26.2221 62.4426 21.8294 63.594 19.8013L86.0182 32.8024Z" fill="#FBC22C"/>
<path d="M68.2345 23.2285C67.9059 24.643 67.7336 26.0894 67.7209 27.5415C67.7011 27.7753 67.7294 28.0106 67.804 28.2329C67.8787 28.4553 67.9981 28.6601 68.1548 28.8345L63.8861 26.3725C63.5318 26.1688 63.3281 23.4145 63.3281 22.7325C63.3485 22.0139 63.5205 21.3077 63.8329 20.6602L68.2345 23.2285Z" fill="#FCEAB2"/>
<path d="M83.7951 32.3151C83.3652 33.9185 83.142 35.5703 83.1309 37.2303C83.1309 37.3632 83.1309 37.496 83.1309 37.62L69.6338 29.7113L69.5807 29.6582L69.5098 29.5962C69.2092 29.2421 69.0597 28.7841 69.0936 28.3208C69.0986 26.8697 69.262 25.4235 69.5807 24.0078L83.7951 32.3151Z" fill="#FCEAB2"/>
<path d="M86.4878 32.5098C85.3364 34.5024 85.3364 38.904 86.4878 39.5948L86.0184 39.8605C84.8759 39.1963 84.8671 34.8036 86.0184 32.7755L86.4878 32.5098Z" fill="#FEB30F"/>
<path d="M67.5349 53.4198C67.6323 59.3535 64.3289 65.4821 63.1067 67.5013C62.4367 68.9058 61.3266 70.0532 59.945 70.7693C55.26 73.4262 47.6524 73.4262 42.9408 70.7693C41.7736 70.1426 40.7859 69.228 40.0714 68.1124L40.0094 68.0239L39.9562 67.9264C39.1592 66.6511 34.6424 59.0701 35.3067 52.1887C36.024 44.6343 43.1357 36.9824 43.1357 36.9824C43.1357 36.9824 59.5819 38.2577 59.6527 37.1064C60.1487 37.6466 66.7378 44.9797 67.4463 52.2507C67.5171 52.6581 67.5349 53.0389 67.5349 53.4198Z" fill="#FC5552"/>
<path d="M51.9484 41.6585H51.5498C49.5038 41.6519 47.4884 41.1603 45.6692 40.2238C42.7821 38.6828 43.2072 36.9292 43.2072 36.9292C42.5964 35.2064 41.8594 33.5309 41.002 31.9165L51.2576 26.833L51.9484 41.6585Z" fill="#E84343"/>
<path d="M59.6795 37.0002V37.0445C59.6352 38.2313 58.7939 39.3649 57.3149 40.2416C55.6858 41.1352 53.8591 41.607 52.0011 41.6144H51.6025V26.8774L62.115 31.4207L59.6795 37.0002Z" fill="#E84343"/>
<path d="M61.3088 32.9529C60.6964 33.7526 59.9243 34.4161 59.0416 34.9013C58.0955 35.4383 57.0832 35.8492 56.0305 36.1235C54.5852 36.5055 53.0972 36.7019 51.6023 36.708H51.5492C49.9724 36.715 48.4021 36.5064 46.8819 36.0881C45.8388 35.8142 44.8356 35.4064 43.8973 34.8747C42.9815 34.3781 42.1839 33.6892 41.5592 32.8555C39.9474 30.6148 40.6736 27.9402 43.853 26.1335C47.1265 24.455 50.8652 23.9129 54.4806 24.5925C55.26 24.7254 56.057 28.0022 56.057 28.0022C56.057 28.0022 58.2888 25.7616 58.953 26.1601C62.1768 28.0022 62.9561 30.7034 61.3088 32.9529Z" fill="#FC9F9C"/>
<path d="M57.9165 34.255C57.5681 34.455 57.2072 34.6325 56.8361 34.7864C53.3667 36.1502 49.5096 36.1502 46.0402 34.7864C45.6846 34.6366 45.3385 34.4651 45.004 34.2727C41.4615 32.2004 41.4083 28.8704 45.004 26.8157C47.5172 25.5105 50.371 25.0096 53.1784 25.381C54.064 25.4784 55.0737 29.2069 55.0737 29.2069C55.0737 29.2069 57.2346 26.4526 57.9077 26.8423C61.4502 28.8704 61.4679 32.2092 57.9165 34.255Z" fill="#FC5552"/>
<path d="M56.8369 34.7864C53.3675 36.1502 49.5104 36.1502 46.041 34.7864C46.3486 34.4687 46.7006 34.1972 47.0861 33.9805C48.4305 33.2968 49.9174 32.9404 51.4257 32.9404C52.9339 32.9404 54.4209 33.2968 55.7653 33.9805C56.1613 34.1932 56.5227 34.4649 56.8369 34.7864Z" fill="#B72727"/>
<path d="M67.5356 53.4199C67.5356 53.0391 67.5356 52.6582 67.4824 52.2686C67.5395 52.6495 67.5573 53.0353 67.5356 53.4199Z" fill="#FC9F9C"/>
<path d="M49.5918 36.575L52.7004 41.7029L53.71 44.9443C53.385 46.0677 53.1597 47.2175 53.0369 48.3805C52.9661 49.7355 56.5794 51.4891 56.7477 52.1622C56.916 52.8353 58.8467 57.0243 58.8467 57.0243L57.0754 51.2854L53.7011 48.5842L54.2414 44.7406L53.3557 41.4283L50.4509 36.7079L50.9291 35.8931L50.0435 35.7603L49.5918 36.575Z" fill="#B72727"/>
<path d="M43.1184 47.2383L38.3271 54.1196C38.3271 54.1196 38.46 57.3611 38.5308 57.7685C38.6017 58.1758 38.2563 60.1951 38.46 60.4254C38.6637 60.6556 40.0807 62.79 40.0807 62.79L39.0002 60.2571L39.1331 57.8216L38.8674 54.4473L43.1184 47.2383Z" fill="#B72727"/>
<path d="M34.634 66.4563C34.634 66.4563 50.2566 66.3057 51.7533 70.3885C53.25 74.4713 55.5881 83.6021 55.5881 83.6021C55.5881 83.6021 52.1341 74.3384 43.5789 79.3068C38.5751 82.2206 33.6775 85.8782 32.9513 85.6745C32.2251 85.4708 23.0322 69.5383 34.634 66.4563Z" fill="#3E85F4"/>
<path d="M55.5963 83.6374L54.0553 86.2943L50.3977 76.5524C50.8767 76.1215 51.2634 75.598 51.5344 75.0135C51.8053 74.4289 51.9549 73.7955 51.9741 73.1515C51.9741 72.877 52.0892 72.4962 51.9741 72.4607C51.859 72.4253 49.8574 71.3891 47.5459 73.674C45.2344 75.959 45.8544 76.4904 45.8544 76.4904L49.1046 81.0248L47.8382 84.8596L42.8344 83.4869L42.3561 77.9782C42.3561 77.9782 38.9553 76.0653 36.7412 78.0579C35.348 79.4242 34.4029 81.1816 34.0312 83.0972C34.0312 83.0972 37.68 83.354 38.6276 82.8049C39.5752 82.2558 40.3546 85.391 40.3546 85.391L42.6395 90.8642C42.6395 90.8642 39.2741 94.3447 35.9884 92.4583C35.8657 92.3971 35.7499 92.3228 35.643 92.2369C33.839 91.1993 31.976 90.2678 30.0635 89.4472L17.3281 87.3571C17.3281 87.3571 21.1983 74.8431 19.9407 70.53C18.6831 66.217 17.9481 55.6868 30.71 51.9672C41.4971 48.8143 47.4397 56.5636 49.6095 61.1423C49.9278 61.831 50.1885 62.5449 50.3888 63.2767C51.2479 66.6864 55.5963 83.6374 55.5963 83.6374Z" fill="#88BEFF"/>
<path opacity="0.4" d="M50.3981 76.5967C50.8771 76.1659 51.2638 75.6424 51.5348 75.0579C51.8057 74.4733 51.9553 73.8399 51.9745 73.1959C51.9745 72.9214 52.0897 72.5405 51.9745 72.5051C51.8594 72.4697 49.8579 71.4335 47.5464 73.7184C45.2349 76.0034 45.8548 76.5347 45.8548 76.5347L49.1051 81.0692L47.8386 84.904L42.8348 83.5312L42.3565 78.0226C42.3565 78.0226 38.9557 76.1096 36.7416 78.1023C35.3484 79.4686 34.4033 81.226 34.0316 83.1416C34.0316 83.1416 37.6804 83.3984 38.628 82.8493C39.5757 82.3002 40.355 85.3911 40.355 85.3911L42.6399 90.8643C42.6399 90.8643 39.2745 94.3448 35.9888 92.4584C35.856 92.3876 30.8965 89.8547 30.7902 89.8015C33.3054 85.8516 31.233 81.9194 30.7193 80.0596C29.4794 75.7377 28.7001 65.0038 41.524 61.5144C49.7073 59.2738 51.3369 67.0585 51.4697 67.5899C52.3553 71.0084 55.5879 83.6552 55.5879 83.6552L54.0469 86.3121L50.3981 76.5967Z" fill="#3E85F4"/>
<path d="M54.0732 86.1352L50.8318 76.6855C51.6066 75.9371 52.1271 74.9645 52.3197 73.9046C52.3728 73.6389 52.3994 73.2935 52.4348 73.0898C52.4484 72.9218 52.4484 72.753 52.4348 72.585C52.423 72.4626 52.377 72.346 52.302 72.2485C52.231 72.1605 52.1354 72.0957 52.0274 72.0625L51.8237 71.9828C51.2566 71.7802 50.6485 71.7194 50.0525 71.8057C48.8776 72.0306 47.8116 72.6415 47.0236 73.5415C46.6221 73.9336 46.2492 74.3538 45.9077 74.7991C45.721 75.0397 45.5579 75.2978 45.4206 75.5696C45.3417 75.7333 45.2822 75.9057 45.2435 76.0833C45.2435 76.3135 45.0752 76.4552 45.3763 76.9689L48.3963 81.2377L47.4399 84.0894L43.5165 83.0001L43.0648 77.5623L42.7371 77.394C41.7692 76.8814 40.7038 76.5796 39.6109 76.5084C38.4304 76.4113 37.2594 76.7836 36.3517 77.5446C34.7923 79.0171 33.7462 80.951 33.3671 83.0621L33.2077 83.8414H34.0048C35.3986 83.9494 36.8 83.9078 38.185 83.7174C38.4132 83.663 38.638 83.595 38.8581 83.5137C38.9511 83.6138 39.0288 83.7273 39.0883 83.8503C39.3828 84.4271 39.6087 85.0364 39.7614 85.6658L41.9401 90.7228C40.4611 92.0601 38.3355 93.0343 36.5377 92.1575L33.4468 90.5634C32.3841 90.0497 31.3302 89.5538 30.1434 89.0844L17.3018 87.3131L29.9397 89.7752C30.9848 90.2357 32.0298 90.7582 33.0483 91.2984L36.1126 93.0254C36.6982 93.3082 37.3343 93.4712 37.9838 93.5046C38.6332 93.5381 39.2827 93.4414 39.8943 93.2203C41.0852 92.8085 42.1728 92.1438 43.0825 91.2719L43.3659 91.015L43.2065 90.6254C43.2065 90.6254 40.957 85.1433 40.9836 85.2407C40.8192 84.5353 40.5725 83.8516 40.2485 83.2038C40.0434 82.7337 39.6663 82.3599 39.1946 82.1587C38.8138 81.9904 38.185 82.327 38.2558 82.2827C38.1444 82.325 38.0285 82.3548 37.9104 82.3713C36.9246 82.5059 35.9277 82.5415 34.9347 82.4775C35.3486 80.9926 36.1637 79.6504 37.2905 78.5985C38.371 77.6066 40.2042 77.8457 41.6744 78.5099L42.2058 84.0894L48.3255 85.7278L49.8488 80.9454L46.4302 76.2693C46.4445 76.186 46.4714 76.1053 46.5099 76.0301C46.6015 75.8195 46.7174 75.6204 46.8553 75.4368C47.1441 75.021 47.467 74.63 47.8207 74.2677C48.4369 73.5231 49.2798 73.0006 50.2207 72.7799C50.6665 72.6995 51.125 72.7268 51.558 72.8596C51.558 72.8596 51.558 72.9393 51.558 72.9747C51.558 73.3024 51.558 73.4884 51.4783 73.7541C51.3436 74.7144 50.8879 75.6008 50.1853 76.2693L49.955 76.4729L54.0644 86.5692L55.6143 83.6289L54.0732 86.1352Z" fill="#FBC22C"/>
<path d="M60.3438 74.604C60.3438 76.0476 61.3002 77.5 63.2132 78.6071C65.3615 79.6942 67.7355 80.2607 70.1433 80.2607C72.551 80.2607 74.925 79.6942 77.0734 78.6071C78.9863 77.5 79.9428 76.0476 79.9428 74.604V76.3753C79.9428 77.8277 78.9863 79.2713 77.0734 80.3783C74.925 81.4655 72.551 82.032 70.1433 82.032C67.7355 82.032 65.3615 81.4655 63.2132 80.3783C61.3002 79.2713 60.3438 77.8277 60.3438 76.3753V74.604Z" fill="#202A5F"/>
<path d="M60.3438 74.604C60.3438 73.1515 61.3002 71.708 63.2132 70.6009C65.3615 69.5137 67.7355 68.9473 70.1433 68.9473C72.551 68.9473 74.925 69.5137 77.0734 70.6009C78.9863 71.708 79.9428 73.1515 79.9428 74.604C79.9428 76.0564 78.9863 77.5 77.0734 78.607C74.925 79.6942 72.551 80.2607 70.1433 80.2607C67.7355 80.2607 65.3615 79.6942 63.2132 78.607C61.3002 77.5 60.3438 76.0476 60.3438 74.604Z" fill="#0B45B2"/>
<path d="M68.0217 60.0269C68.0217 60.0269 69.297 60.4785 69.483 61.2845C69.669 62.0904 69.7044 68.0861 69.7575 68.3695C69.8107 68.6529 64.7803 72.5674 64.7803 72.5674L71.3517 74.4273L75.8418 72.5586L70.6963 68.4138V61.0188L71.9539 60.0269H68.0217Z" fill="#FEB30F"/>
<path opacity="0.5" d="M70.1298 60.6819C69.9499 60.6929 69.7694 60.6929 69.5895 60.6819C69.3154 60.6551 69.0432 60.6108 68.7747 60.549C68.1525 60.3976 67.5557 60.1559 67.0035 59.8317C65.9429 59.1865 65.0744 58.2691 64.4883 57.1748C63.9005 56.0869 63.596 54.8687 63.6026 53.6322V50.8159C63.8791 51.0613 64.1753 51.2835 64.4883 51.4801C66.1898 52.3732 68.0792 52.8494 70.0008 52.8694C71.9223 52.8894 73.8212 52.4527 75.541 51.5953C75.9152 51.3804 76.2707 51.1345 76.6037 50.8602V53.7031C76.6037 54.075 76.6037 54.385 76.5506 54.5887C76.4975 54.7924 76.462 55.1378 76.4178 55.3327C76.2629 55.9778 76.0248 56.6 75.7093 57.1836C75.1543 58.19 74.3605 59.0446 73.3977 59.6722C72.4676 60.2734 71.3953 60.6186 70.2892 60.673L70.1298 60.6819Z" fill="#121E51"/>
<path opacity="0.5" d="M72.3178 61.0716C72.0277 61.169 71.7319 61.2489 71.4322 61.3107C72.3205 61.6874 73.1817 62.1254 74.0094 62.6214C74.3223 62.8411 74.6183 63.0838 74.895 63.3476C75.1151 63.5498 75.3221 63.7658 75.5149 63.9941C75.9087 64.452 76.2476 64.9543 76.5246 65.4909C76.7794 65.9879 76.9812 66.5103 77.1268 67.0496C77.318 67.7416 77.4105 68.4572 77.4013 69.1751V74.1258C77.4013 75.224 76.6486 76.3222 75.1873 77.1458C75.019 77.2344 74.8507 77.3229 74.6736 77.4026C73.1232 78.0632 71.4461 78.3732 69.762 78.3105C68.0779 78.2477 66.4285 77.8137 64.9316 77.0395C64.3572 76.7759 63.8638 76.3635 63.5025 75.8449C63.1412 75.3263 62.9252 74.7205 62.877 74.0904V69.1131C62.877 68.8297 62.877 68.44 62.9389 68.1566C62.9843 67.8043 63.0523 67.4552 63.1426 67.1116C63.321 66.4269 63.589 65.7688 63.9397 65.1543C64.6328 63.9551 65.6323 62.9617 66.8357 62.276C67.0749 62.1432 68.173 61.6295 68.9701 61.3018L68.6336 61.231C67.9519 61.0606 67.2985 60.7921 66.694 60.4339C65.5251 59.7274 64.5629 58.7255 63.9043 57.529C63.2613 56.3374 62.9264 55.004 62.9301 53.65V47.8579C62.988 48.4876 63.2098 49.0912 63.5734 49.6086C63.937 50.126 64.4297 50.5392 65.0025 50.8071C67.6854 52.2042 70.8126 52.4813 73.6994 51.5776C74.2528 51.4094 74.7871 51.1839 75.2935 50.9045C76.7637 50.0809 77.4899 48.9915 77.4899 47.8933V53.6854C77.4899 53.9776 77.4899 54.3673 77.419 54.6596C77.3927 54.9583 77.3423 55.2545 77.2685 55.5452C77.1086 56.2514 76.8492 56.9313 76.498 57.5644C75.881 58.6871 74.9955 59.6394 73.9208 60.3365C73.4209 60.6506 72.882 60.8977 72.3178 61.0716Z" fill="#88BEFF"/>
<path opacity="0.5" d="M70.1298 77.5709C68.4347 77.6033 66.76 77.1976 65.2677 76.393C64.8123 76.187 64.4181 75.8667 64.1232 75.4632C63.8283 75.0597 63.6429 74.5868 63.585 74.0904V69.1131C63.585 68.8917 63.585 68.5109 63.647 68.2275C63.6875 67.9084 63.7466 67.592 63.8241 67.2799C63.9887 66.6606 64.2328 66.0652 64.5503 65.5086C65.1882 64.4195 66.1055 63.5206 67.2072 62.9048C67.6057 62.7011 69.1025 62.0192 69.687 61.8066C69.9609 61.9665 70.2606 62.0774 70.5726 62.1343H70.8826L71.0951 61.9218C71.9653 62.2908 72.8086 62.7198 73.6192 63.2059C74.129 63.5575 74.5905 63.9743 74.9919 64.4458C75.3424 64.8556 75.64 65.3079 75.8775 65.792C76.1049 66.2388 76.2859 66.7076 76.4178 67.1913C76.5937 67.8224 76.6772 68.4757 76.6658 69.1308V74.0815C76.5921 74.5987 76.3852 75.0879 76.0654 75.5009C75.7455 75.9139 75.3237 76.2366 74.8414 76.4373C73.3914 77.206 71.7707 77.5959 70.1298 77.5709Z" fill="#88BEFF"/>
<path d="M75.5592 57.184C75.518 57.6533 75.3528 58.1032 75.0804 58.4876C74.8081 58.872 74.4384 59.177 74.0093 59.3715C71.9015 60.5848 69.9354 61.9133 66.384 59.3715C65.3921 58.663 64.8076 57.9634 64.8076 57.1663C64.8498 56.6926 65.0183 56.2389 65.2956 55.8526C65.5729 55.4663 65.9488 55.1614 66.384 54.9699C67.5646 54.3674 68.8712 54.0532 70.1967 54.0532C71.5222 54.0532 72.8288 54.3674 74.0093 54.9699C74.4421 55.1666 74.8142 55.4757 75.0868 55.8652C75.3594 56.2546 75.5226 56.7101 75.5592 57.184Z" fill="#FCD561"/>
<path d="M75.1161 57.184C75.1161 58.787 72.8755 60.0801 70.1123 60.0801C67.3491 60.0801 65.0996 58.787 65.0996 57.184C65.0996 55.581 67.3403 54.2969 70.1123 54.2969C72.8843 54.2969 75.1161 55.5899 75.1161 57.184Z" fill="#FEB30F"/>
<path d="M76.8693 73.7274C76.8134 74.3191 76.6011 74.8854 76.254 75.3679C75.9069 75.8504 75.4376 76.2318 74.8943 76.4729C73.4203 77.2198 71.791 77.6091 70.1385 77.6091C68.4859 77.6091 66.8567 77.2198 65.3826 76.4729C64.8074 76.2798 64.3073 75.9109 63.9531 75.4182C63.5988 74.9256 63.4082 74.3342 63.4082 73.7274C63.4082 73.1206 63.5988 72.5292 63.9531 72.0365C64.3073 71.5439 64.8074 71.175 65.3826 70.9819C66.8567 70.235 68.4859 69.8457 70.1385 69.8457C71.791 69.8457 73.4203 70.235 74.8943 70.9819C75.4381 71.2223 75.9079 71.6034 76.2551 72.0861C76.6023 72.5688 76.8144 73.1354 76.8693 73.7274Z" fill="#FCD561"/>
<path d="M64.7811 72.594C64.7811 72.594 63.7626 74.5955 65.2682 75.2509C66.7737 75.9062 67.1634 75.5343 67.9251 73.6921C68.6867 71.85 70.0063 69.7865 69.4926 69.8308C68.979 69.8751 67.5442 71.85 66.6675 72.0449C65.7907 72.2397 64.7811 72.594 64.7811 72.594Z" fill="#FCEAB2"/>
<path d="M67.7385 64.4019C67.7385 64.4019 65.6307 64.9509 65.3827 66.7754C65.2676 67.5813 64.9576 68.5466 65.6838 68.7237C66.4101 68.9009 66.1798 68.7237 66.3392 67.5104C66.4905 66.3594 66.9772 65.2783 67.7385 64.4019Z" fill="#FEFEFE"/>
<g style="mix-blend-mode:multiply" opacity="0.5">
<path d="M72.3176 61.0718C72.0275 61.1693 71.7317 61.2492 71.432 61.311C72.3203 61.6877 73.1814 62.1257 74.0092 62.6217C74.3221 62.8413 74.6181 63.0841 74.8948 63.3479C75.1149 63.5501 75.3219 63.7661 75.5147 63.9944C75.9085 64.4523 76.2473 64.9546 76.5244 65.4912C76.7792 65.9882 76.981 66.5106 77.1266 67.0499C77.3178 67.7419 77.4103 68.4575 77.4011 69.1754V74.1261C77.4011 75.2243 76.6483 76.3224 75.1871 77.1461C75.0188 77.2346 74.8505 77.3232 74.6734 77.4029C74.7624 74.5272 74.6648 71.6488 74.3811 68.7857C74.2799 67.4993 73.9127 66.2479 73.303 65.1107C72.6932 63.9734 71.854 62.9751 70.8386 62.1789C70.8386 62.1789 70.7235 61.0187 71.6445 60.8327C72.5656 60.6467 74.1951 57.9987 74.3014 55.5189C74.2922 54.1808 74.0924 52.8508 73.708 51.569C74.2615 51.4009 74.7957 51.1753 75.3022 50.8959C76.7723 50.0723 77.4986 48.983 77.4986 47.8848V53.6768C77.4986 53.9691 77.4986 54.3587 77.4277 54.651C77.4013 54.9498 77.351 55.2459 77.2771 55.5366C77.1173 56.2428 76.8578 56.9227 76.5066 57.5559C75.8896 58.6785 75.0042 59.6308 73.9295 60.3279C73.4273 60.6458 72.8853 60.8959 72.3176 61.0718Z" fill="#88BEFF"/>
</g>
<path d="M60.6621 46.9727C60.6621 48.4251 61.6186 49.8687 63.5316 50.9757C65.6783 52.0628 68.0509 52.6293 70.4572 52.6293C72.8635 52.6293 75.2361 52.0628 77.3829 50.9757C79.2958 49.8687 80.2612 48.4251 80.2612 46.9727V48.7439C80.2612 50.1875 79.2958 51.6399 77.3829 52.7381C75.2375 53.83 72.8644 54.3992 70.4572 54.3992C68.05 54.3992 65.6769 53.83 63.5316 52.7381C61.6097 51.6577 60.6621 50.2052 60.6621 48.7439V46.9727Z" fill="#202A5F"/>
<path d="M60.6621 46.9727C60.6621 45.5291 61.6186 44.0767 63.5316 42.9785C65.6769 41.8866 68.05 41.3174 70.4572 41.3174C72.8644 41.3174 75.2375 41.8866 77.3829 42.9785C79.3047 44.0767 80.2612 45.5291 80.2612 46.9727C80.2612 48.4163 79.2958 49.8687 77.3829 50.9757C75.2361 52.0628 72.8635 52.6293 70.4572 52.6293C68.0509 52.6293 65.6783 52.0628 63.5316 50.9757C61.6097 49.8953 60.6621 48.4517 60.6621 46.9727Z" fill="#0B45B2"/>
<path opacity="0.7" d="M20.9685 47.6988C20.8788 48.3618 20.6077 48.9871 20.1851 49.5058C19.7624 50.0245 19.2047 50.4163 18.5735 50.638C17.9422 50.8597 17.262 50.9027 16.6078 50.7622C15.9537 50.6218 15.3511 50.3033 14.8665 49.842C14.3639 50.7219 13.6048 51.4275 12.6905 51.8644C11.7762 52.3013 10.7503 52.4487 9.74999 52.287C8.74966 52.1252 7.82254 51.662 7.09252 50.9592C6.36251 50.2565 5.8644 49.3476 5.66476 48.3541C5.25637 48.6333 4.79303 48.822 4.30579 48.9075C3.81855 48.9931 3.31865 48.9735 2.83959 48.8501C2.09264 48.6574 1.42898 48.2263 0.949432 47.622C0.46989 47.0178 0.200675 46.2736 0.182689 45.5024C0.178908 44.9142 0.323881 44.3346 0.604136 43.8174C0.88439 43.3003 1.29083 42.8624 1.78569 42.5444C1.32458 42.0746 1.02111 41.473 0.917407 40.8229C0.813699 40.1729 0.914888 39.5067 1.20693 38.9167C1.49898 38.3268 1.9674 37.8424 2.5472 37.5307C3.127 37.2191 3.78943 37.0956 4.44259 37.1774H4.61971C6.12339 37.6262 7.71294 37.7068 9.25429 37.4124C10.7956 37.118 12.2436 36.4572 13.476 35.4859C16.5846 32.9087 19.6755 30.3846 19.3124 30.6326C19.6932 30.9603 22.2527 31.2348 24.2188 31.4563C24.9893 30.5706 16.7529 44.0942 18.0193 44.2625C19.9854 44.5371 20.9774 47.5836 20.9685 47.6988Z" fill="#D9E6F9"/>
<path d="M23.3508 35.211C21.7556 35.9324 20.0035 36.2371 18.2584 36.0966C17.6436 34.4555 17.4517 32.6859 17.7005 30.9511C18.1167 28.064 23.0143 26.5229 23.0143 26.5229C23.1914 26.6558 24.4756 27.7628 24.4756 27.7628C24.4756 27.7628 25.9014 28.6485 26.0786 28.8167C26.0874 28.8699 26.0077 33.9977 23.3508 35.211Z" fill="#FBC22C"/>
<path d="M23.5277 34.476C22.0744 35.1218 20.4788 35.3812 18.8958 35.2288C18.3095 33.7598 18.1171 32.1631 18.3378 30.5969C18.7541 28.2057 23.014 27.2227 23.014 27.2227L24.1299 28.2854C24.1299 28.2854 25.3343 28.9585 25.4672 29.0559C25.476 29.0559 25.724 33.4044 23.5277 34.476Z" fill="#FBCC4D"/>
<path d="M23.7223 33.732C22.411 34.303 20.9711 34.5139 19.551 34.3431C19.0041 33.0438 18.8116 31.6228 18.9931 30.2249C19.4093 28.3207 23.0316 27.8779 23.0316 27.8779L23.7932 28.7636C23.7932 28.7636 24.7674 29.1887 24.856 29.2507C24.9445 29.3127 25.4316 32.8021 23.7223 33.732Z" fill="#FCD66F"/>
<path d="M23.9088 32.997C22.6689 33.7763 20.198 33.4575 20.198 33.4575C20.198 33.4575 19.2415 31.27 19.6489 29.853C20.0563 28.436 23.032 28.5245 23.032 28.5245L23.4571 29.2242C23.4571 29.2242 24.201 29.4013 24.2453 29.4367C24.2896 29.4722 25.1486 32.2088 23.9088 32.997Z" fill="#FCE091"/>
<path d="M24.0945 32.2533C23.324 32.8998 20.8442 32.5633 20.8442 32.5633C20.8442 32.5633 19.8966 30.4023 20.2951 29.4813C20.6937 28.5602 23.0406 29.1802 23.0406 29.1802L23.1114 29.6938L23.6251 29.623C23.6251 29.623 24.8561 31.6157 24.0945 32.2533Z" fill="#FCEAB2"/>
<path d="M23.8115 22.6528C23.8115 22.6528 22.9259 21.3598 22.1377 21.2269C21.3138 21.0305 20.4552 21.0305 19.6313 21.2269L17.125 24.2381C18.2966 24.0203 19.4792 23.8666 20.6675 23.7776C21.0129 23.875 21.6683 25.106 21.6683 25.106L23.8115 22.6528Z" fill="#3E85F4"/>
<path d="M22.2613 22.396C22.2613 22.396 20.2775 21.1649 19.5247 21.5103C18.7719 21.8557 14.2109 26.1511 14.2109 26.1511L14.636 26.8064C14.636 26.8064 18.8428 24.3975 19.1882 24.4949C19.5336 24.5923 20.189 25.8234 20.189 25.8234L22.2613 22.396Z" fill="#0B45B2"/>
<path d="M29.9044 27.2227C29.9044 27.2227 31.3746 27.6743 31.7377 28.4271C32.1426 29.1701 32.3643 29.999 32.3842 30.8449L30.1967 34.0952C30.078 32.9047 29.8917 31.722 29.6387 30.5526C29.4527 30.2515 28.0889 29.9681 28.0889 29.9681L29.9044 27.2227Z" fill="#3E85F4"/>
<path d="M30.6126 28.6396C30.6126 28.6396 32.3838 30.1984 32.2244 31.022C32.065 31.8456 29.2576 37.4163 29.2576 37.4163L28.4871 37.2303C28.4871 37.2303 29.6118 32.5099 29.4258 32.2088C29.2399 31.9076 27.876 31.6242 27.876 31.6242L30.6126 28.6396Z" fill="#0B45B2"/>
<path d="M19.8345 27.4883C19.6768 27.1026 19.5582 26.702 19.4802 26.2927C19.4802 26.1156 19.4182 25.8676 19.4094 25.6816C19.3961 25.4249 19.3961 25.1678 19.4094 24.9111C19.4525 24.4164 19.5658 23.9303 19.7459 23.4675C19.9089 23.0666 20.1233 22.6885 20.3836 22.3428C20.0871 22.813 19.9211 23.3537 19.9024 23.9092C19.8837 24.4648 20.0131 25.0154 20.2773 25.5045C20.9506 26.9291 21.953 28.1733 23.2018 29.1341C24.4507 30.095 25.9102 30.7451 27.4598 31.0308C28.0259 31.1655 28.6179 31.1443 29.173 30.9697C29.7281 30.7951 30.2256 30.4734 30.6126 30.0389C30.4621 30.2161 30.2584 30.4552 30.0901 30.6234C29.9518 30.7547 29.807 30.8788 29.6561 30.9954C29.4613 31.1283 29.2045 31.2965 29.0008 31.4117C28.7652 31.536 28.5192 31.6397 28.2657 31.7216C28.0453 31.797 27.8205 31.8592 27.5926 31.9076C27.265 31.9668 26.9335 32.0023 26.6007 32.0139C26.0337 32.0136 25.4687 31.9452 24.918 31.8102C24.3961 31.6755 23.8911 31.4824 23.4124 31.2345C22.3379 30.6798 21.4024 29.8897 20.6758 28.923C20.3379 28.4809 20.0553 27.9991 19.8345 27.4883Z" fill="#121E51"/>
<path d="M20.145 22.6971C22.117 18.9951 24.0979 15.2961 26.0876 11.6001C25.8276 12.1949 25.7016 12.8396 25.7184 13.4885C25.7352 14.1374 25.8945 14.7747 26.185 15.3552C27.0695 17.2042 28.3785 18.8178 30.0054 20.0645C31.6322 21.3112 33.5308 22.1556 35.5462 22.5288C36.205 22.6811 36.89 22.6805 37.5486 22.5269C38.2072 22.3734 38.8219 22.0711 39.3455 21.6432L30.3121 30.4109C29.9098 30.7383 29.4391 30.9712 28.9348 31.0923C28.4305 31.2134 27.9054 31.2196 27.3983 31.1106C25.8521 30.8256 24.3953 30.1787 23.1469 29.2229C21.8986 28.267 20.8942 27.0292 20.2159 25.6108C19.9852 25.1619 19.859 24.6666 19.8467 24.1621C19.8344 23.6575 19.9364 23.1567 20.145 22.6971Z" fill="#FBC429"/>
<path d="M26.0875 11.6004C26.5214 10.8211 26.6897 10.5288 26.9731 10.1657C27.2565 9.8026 27.5931 9.28008 27.8587 8.85498C28.0093 8.64243 28.2218 8.37674 28.3813 8.17304C29.2266 7.11037 30.1662 6.12627 31.1887 5.23274C33.2047 3.45721 35.5317 2.06999 38.0524 1.14111C36.8125 1.59279 36.3431 2.8681 37.0162 4.50652C37.5912 5.71028 38.4431 6.76076 39.5022 7.57199C40.5613 8.38322 41.7974 8.93213 43.1093 9.17381C44.9249 9.42178 46.0762 8.61586 46.1736 7.26969C46.1736 7.71251 46.0674 8.30589 46.0142 8.73985C46.0142 8.98783 45.9168 9.31551 45.8814 9.56348C45.8814 9.56348 45.7397 10.3163 45.5271 11.1133C45.4651 11.3525 45.3766 11.6801 45.3057 11.9193C45.164 12.3621 44.9603 12.9466 44.8009 13.3806C44.7389 13.5577 44.4555 14.2662 44.1455 14.9393C42.9768 17.4339 41.3621 19.694 39.3808 21.6081C38.8572 22.036 38.2425 22.3383 37.5839 22.4919C36.9253 22.6454 36.2403 22.646 35.5815 22.4937C33.5632 22.1294 31.6598 21.2927 30.0267 20.0521C28.3936 18.8115 27.0771 17.2022 26.1849 15.3555C25.8944 14.775 25.7351 14.1377 25.7183 13.4888C25.7015 12.8399 25.8275 12.1952 26.0875 11.6004Z" fill="#FCD561"/>
<path d="M38.0166 1.14111C38.7605 0.875419 39.3539 0.707148 39.6373 0.627441C38.4771 0.937413 38.0166 2.0356 38.6011 3.46147C39.0835 4.45644 39.7922 5.32469 40.6703 5.99673C41.5484 6.66877 42.5716 7.12595 43.6581 7.33169C45.2345 7.53538 46.1998 6.80031 46.191 5.56042C46.191 6.12132 46.1733 6.68812 46.1379 7.26083C46.0404 8.61585 44.8891 9.41292 43.0736 9.16495C41.7616 8.92327 40.5255 8.37436 39.4664 7.56313C38.4074 6.7519 37.5554 5.70142 36.9804 4.49766C36.3073 2.86809 36.8121 1.59278 38.0166 1.14111Z" fill="#0B45B2"/>
<path d="M43.6579 7.33151C42.5682 7.12833 41.5414 6.67232 40.6601 6.00015C39.7787 5.32798 39.0674 4.45839 38.5832 3.46129C37.9987 2.02657 38.4592 0.928383 39.6282 0.627268C40.8789 0.276018 42.1654 0.0680349 43.463 0.00732422H43.3745C43.525 0.00732422 45.0926 0.00732422 45.2254 0.00732422C45.7037 1.72545 45.7037 1.62803 45.7302 1.84059C46.019 3.05957 46.1675 4.30755 46.1731 5.56025C46.2085 6.79128 45.2343 7.54406 43.6579 7.33151Z" fill="#FCD561"/>
<path d="M27.5572 18.4993C28.4428 17.3834 30.2141 17.2948 31.5603 18.331C32.9064 19.3672 33.3315 21.1119 32.5167 22.2189C31.702 23.326 29.913 23.4234 28.5491 22.4226C27.1852 21.4219 26.7158 19.624 27.5572 18.4993ZM32.1625 17.6136C30.2584 16.1701 27.7963 16.2763 26.6361 17.8173C26.3511 18.2213 26.1622 18.685 26.0839 19.1732C26.0056 19.6613 26.04 20.1609 26.1845 20.6337C26.4805 21.6448 27.1034 22.5294 27.9557 23.1489C29.8598 24.557 32.3042 24.4419 33.4467 22.9186C33.7045 22.5658 33.8852 22.1626 33.9767 21.7354C34.0683 21.3081 34.0687 20.8663 33.978 20.4388C33.7496 19.2999 33.1016 18.2884 32.1625 17.6048V17.6136Z" fill="#202A5F"/>
<path d="M27.3537 18.7828C28.2393 17.6581 30.0106 17.5695 31.3568 18.6057C32.7029 19.6419 33.128 21.3866 32.3133 22.5025C31.8059 23.0425 31.1088 23.3645 30.3688 23.4009C29.6287 23.4372 28.9034 23.185 28.3456 22.6973C26.9286 21.6523 26.5124 19.8987 27.3537 18.7828ZM31.959 17.8972C30.046 16.4536 27.584 16.5687 26.4326 18.1097C26.1437 18.5135 25.9526 18.9789 25.8742 19.4691C25.7958 19.9594 25.8324 20.4612 25.981 20.9349C26.28 21.9422 26.9025 22.8231 27.7522 23.4412C29.6564 24.8583 32.0918 24.7431 33.2432 23.211C33.4991 22.8572 33.6785 22.454 33.77 22.027C33.8615 21.6001 33.863 21.1588 33.7745 20.7312C33.5503 19.5858 32.9019 18.5674 31.959 17.8795V17.8972Z" fill="white"/>
<path d="M32.7209 21.5017C32.7708 20.9489 32.6744 20.3927 32.4412 19.889C32.208 19.3853 31.8463 18.9518 31.3925 18.6323C29.9932 17.5695 28.1953 17.6581 27.354 18.7828C27.1318 19.0983 26.9898 19.4632 26.9404 19.8459C26.891 20.2286 26.9357 20.6176 27.0706 20.9792C27.306 21.6564 27.7415 22.2463 28.3193 22.6707C29.7098 23.7069 31.481 23.6095 32.3224 22.5025C32.5359 22.207 32.6728 21.8631 32.7209 21.5017Z" fill="#3E85F4"/>
<path d="M32.7207 21.5017C32.491 20.8383 32.0647 20.2606 31.4985 19.8456C30.0992 18.7917 28.3013 18.8714 27.46 19.9961C27.25 20.2861 27.1161 20.6241 27.0703 20.9792C27.3058 21.6564 27.7412 22.2462 28.3191 22.6707C29.7095 23.7069 31.4808 23.6095 32.3221 22.5025C32.5356 22.2069 32.6726 21.8631 32.7207 21.5017Z" fill="#88BEFF"/>
<path d="M29.4708 18.7914C29.4016 18.7253 29.3096 18.6885 29.214 18.6885C29.1183 18.6885 29.0263 18.7253 28.9571 18.7914C28.8946 18.844 28.8499 18.9146 28.8288 18.9936C28.8078 19.0726 28.8116 19.1561 28.8396 19.2328C28.8676 19.3096 28.9186 19.3759 28.9856 19.4227C29.0525 19.4695 29.1322 19.4947 29.214 19.4947C29.2957 19.4947 29.3754 19.4695 29.4424 19.4227C29.5093 19.3759 29.5603 19.3096 29.5883 19.2328C29.6163 19.1561 29.6201 19.0726 29.5991 18.9936C29.5781 18.9146 29.5333 18.844 29.4708 18.7914Z" fill="#F1F0EF"/>
<path d="M12.9621 30.0034L12.3333 29.0735C12.2094 28.8875 12.3333 28.5952 12.5548 28.3384L13.1836 29.2594C12.9001 29.534 12.8382 29.8262 12.9621 30.0034Z" fill="#3E85F4"/>
<path d="M18.5331 24.7606L17.9043 23.8307L21.8631 22.4048L22.4919 23.3347L18.5331 24.7606Z" fill="#3E85F4"/>
<path d="M13.1835 29.277L12.5547 28.3383L16.1061 24.9463L16.7349 25.8851L13.1835 29.277Z" fill="#3E85F4"/>
<path d="M16.7343 25.8857L16.1055 24.947C16.6161 24.4612 17.2182 24.0819 17.8767 23.8311L18.5055 24.761C17.8468 25.0155 17.2448 25.3977 16.7343 25.8857Z" fill="#3E85F4"/>
<path d="M22.4919 23.335L19.7021 27.7631H17.0452L14.0783 29.9152C13.8467 30.095 13.5556 30.1805 13.2636 30.1543C12.8385 30.0658 12.8296 29.6318 13.2636 29.2687L16.8061 25.8767C17.8689 24.5483 22.4919 23.335 22.4919 23.335Z" fill="#0B45B2"/>
<path d="M25.8574 39.6839L26.929 40.0204C27.1416 40.0913 27.3984 39.9319 27.5667 39.6042L26.4951 39.2588C26.3268 39.5953 26.0611 39.7459 25.8574 39.6839Z" fill="#3E85F4"/>
<path d="M29.3291 32.8644L30.4007 33.2098L30.6664 29.0119L29.5948 28.6665L29.3291 32.8644Z" fill="#3E85F4"/>
<path d="M26.4951 39.2587L27.5667 39.5952L29.834 35.2379L28.7623 34.9014L26.4951 39.2587Z" fill="#3E85F4"/>
<path d="M28.7617 34.9012L29.8333 35.2466C30.1568 34.6125 30.3496 33.9198 30.4001 33.2097L29.3285 32.8643C29.2779 33.5744 29.0852 34.2671 28.7617 34.9012Z" fill="#3E85F4"/>
<path d="M29.5946 28.6665L26.1141 32.581L26.8491 35.167L25.627 38.621C25.567 38.761 25.5361 38.9116 25.5361 39.0638C25.5361 39.2161 25.567 39.3667 25.627 39.5067C25.8307 39.8875 26.2469 39.7723 26.5126 39.2941L28.7798 34.9368C29.1033 34.3026 29.296 33.6099 29.3466 32.8998L29.5946 28.6665Z" fill="#0B45B2"/>
<path opacity="0.46" d="M36.2897 4.40892C36.0063 3.39044 32.8091 5.29455 30.4976 7.79203C28.9547 9.62948 27.7548 11.7294 26.9551 13.9915C26.9551 13.9915 30.1699 9.69615 31.0998 8.81051C35.2003 4.88716 36.5642 5.40083 36.2897 4.40892Z" fill="#F2DBD1"/>
<g style="mix-blend-mode:multiply">
<path d="M78.6143 89.5715V90.1383L79.3051 90.5988L80.1198 90.6519L107.849 74.3386C107.849 74.3386 107.61 73.7895 107.902 73.5769C108.194 73.3644 108.974 73.0101 108.991 72.8507C109.009 72.6913 109.169 72.5762 108.991 72.5762C108.446 72.7671 107.911 72.9859 107.388 73.2315L105.777 73.8161L78.6143 89.5715Z" fill="#FAF7F7"/>
</g>
<path d="M108.983 72.036C108.982 72.0778 108.97 72.1187 108.948 72.1544C108.927 72.1902 108.896 72.2196 108.859 72.2397L108.292 72.5408L106.982 74.073L106.388 72.6382L106.326 72.3903C106.919 72.3866 107.511 72.3393 108.097 72.2486L108.691 71.9563C108.741 71.9338 108.798 71.9294 108.851 71.944C108.904 71.9585 108.951 71.991 108.983 72.036Z" fill="white"/>
<path d="M107.309 73.6035L106.981 74.064L78.8976 90.1028L78.2422 88.4201L106.326 72.3901L106.981 72.7621L107.309 73.6035Z" fill="url(#paint0_linear_1802_45158)"/>
<path d="M78.8981 88.8007L78.2427 88.4199L77.915 88.8804L78.2427 89.7218L78.8981 90.1026L79.2258 89.6421L78.8981 88.8007Z" fill="white"/>
<path d="M78.6768 88.9959L78.5617 88.9339C78.52 88.9092 78.4705 88.901 78.423 88.9108C78.3755 88.9206 78.3334 88.9478 78.3049 88.987C78.2894 89.0156 78.2812 89.0475 78.2812 89.08C78.2813 89.1125 78.2894 89.1445 78.3049 89.173L78.4023 89.4299C78.4184 89.4696 78.4462 89.5036 78.482 89.5273L78.5971 89.5893C78.6389 89.614 78.6883 89.6222 78.7358 89.6124C78.7833 89.6026 78.8255 89.5754 78.854 89.5361C78.8712 89.5082 78.8803 89.476 78.8803 89.4431C78.8803 89.4103 78.8712 89.3781 78.854 89.3501L78.7565 89.0933C78.7392 89.0543 78.7116 89.0207 78.6768 88.9959Z" fill="#EC6161"/>
<path d="M106.981 72.7622L78.8887 88.7922L79.2252 89.6424L107.309 73.6036L106.981 72.7622Z" fill="url(#paint1_linear_1802_45158)"/>
<path d="M108.983 72.0358C108.982 72.0776 108.97 72.1184 108.948 72.1542C108.926 72.1899 108.895 72.2193 108.859 72.2395L108.292 72.5406L108.097 72.6557L108.194 72.3546H107.929L108.124 72.2217L108.717 71.9295C108.767 71.9162 108.82 71.9193 108.867 71.9385C108.915 71.9576 108.956 71.9918 108.983 72.0358Z" fill="#F18C8C"/>
<defs>
<linearGradient id="paint0_linear_1802_45158" x1="107.309" y1="81.2465" x2="78.2422" y2="81.2465" gradientUnits="userSpaceOnUse">
<stop stop-color="#F19090"/>
<stop offset="1" stop-color="#E84343"/>
</linearGradient>
<linearGradient id="paint1_linear_1802_45158" x1="107.309" y1="81.2023" x2="78.8887" y2="81.2023" gradientUnits="userSpaceOnUse">
<stop stop-color="#E84343"/>
<stop offset="1" stop-color="#F19090"/>
</linearGradient>
</defs>
</svg>
