<svg width="28" height="28" viewBox="0 0 28 28" fill="none" xmlns="http://www.w3.org/2000/svg">
<path d="M19.2544 4.86296L19.2699 4.87219L19.2857 4.88104L22.8023 6.85523C23.919 7.48213 24.6041 8.66884 24.5887 9.94936L24.5401 13.9819L24.5399 14L24.5401 14.0181L24.5887 18.0506C24.6041 19.3312 23.919 20.5179 22.8023 21.1448L19.2857 23.119L19.2699 23.1278L19.2544 23.137L15.7864 25.1954C14.6852 25.849 13.3149 25.849 12.2136 25.1954L8.7456 23.137L8.73005 23.1278L8.71429 23.119L5.1977 21.1448C4.08101 20.5179 3.39586 19.3312 3.4113 18.0506L3.45989 14.0181L3.46011 14L3.45989 13.9819L3.4113 9.94936C3.39586 8.66884 4.08101 7.48213 5.19769 6.85523L8.71429 4.88104L8.73005 4.87219L8.7456 4.86296L12.2136 2.8046C13.3148 2.15097 14.6851 2.15097 15.7864 2.80459L19.2544 4.86296Z" fill="white" stroke="url(#paint0_linear_2732_70663)" stroke-width="3"/>
<path d="M15.6829 8.81818V19H13.8384V10.6129H13.7788L11.3974 12.1342V10.4439L13.9279 8.81818H15.6829Z" fill="url(#paint1_linear_2732_70663)"/>
<defs>
<linearGradient id="paint0_linear_2732_70663" x1="-0.277083" y1="-0.000130819" x2="28.0481" y2="0.0485627" gradientUnits="userSpaceOnUse">
<stop stop-color="#043785"/>
<stop offset="1" stop-color="#1F55A6"/>
</linearGradient>
<linearGradient id="paint1_linear_2732_70663" x1="1.7625" y1="3.99991" x2="26.0412" y2="4.04999" gradientUnits="userSpaceOnUse">
<stop stop-color="#043785"/>
<stop offset="1" stop-color="#1F55A6"/>
</linearGradient>
</defs>
</svg>
