<svg width="52" height="52" viewBox="0 0 52 52" fill="none" xmlns="http://www.w3.org/2000/svg">
<g filter="url(#filter0_d_2073_40816)">
<circle cx="26" cy="26" r="14" fill="#E6E6E6"/>
<circle cx="26" cy="26" r="13" stroke="white" stroke-width="2"/>
</g>
<g clip-path="url(#clip0_2073_40816)">
<path d="M21.9967 29.6424C22.7531 29.9529 23.3516 30.4537 23.7184 31.0213C23.7952 31.1401 23.6794 31.4223 23.5412 31.4529C22.8814 31.5991 22.1037 31.535 21.3473 31.2245C20.5909 30.914 19.9924 30.4132 19.6256 29.8456C19.5488 29.7267 19.6646 29.4445 19.8028 29.4139C20.4626 29.2678 21.2403 29.3319 21.9967 29.6424Z" fill="url(#paint0_linear_2073_40816)"/>
<path d="M21.9967 29.6424C22.7531 29.9529 23.3516 30.4537 23.7184 31.0213C23.7952 31.1401 23.6794 31.4223 23.5412 31.4529C22.8814 31.5991 22.1037 31.535 21.3473 31.2245C20.5909 30.914 19.9924 30.4132 19.6256 29.8456C19.5488 29.7267 19.6646 29.4445 19.8028 29.4139C20.4626 29.2678 21.2403 29.3319 21.9967 29.6424Z" fill="url(#paint1_linear_2073_40816)"/>
<path d="M22.3814 28.5698C23.1222 29.1569 23.6266 29.9049 23.8523 30.6528C23.8996 30.8094 23.6806 31.0858 23.5173 31.0755C22.7376 31.0266 21.8942 30.7063 21.1534 30.1192C20.4127 29.5321 19.9083 28.7842 19.6826 28.0363C19.6353 27.8796 19.8543 27.6033 20.0176 27.6136C20.7973 27.6625 21.6407 27.9827 22.3814 28.5698Z" fill="url(#paint2_linear_2073_40816)"/>
<path d="M22.3814 28.5698C23.1222 29.1569 23.6266 29.9049 23.8523 30.6528C23.8996 30.8094 23.6806 31.0858 23.5173 31.0755C22.7376 31.0266 21.8942 30.7063 21.1534 30.1192C20.4127 29.5321 19.9083 28.7842 19.6826 28.0363C19.6353 27.8796 19.8543 27.6033 20.0176 27.6136C20.7973 27.6625 21.6407 27.9827 22.3814 28.5698Z" fill="url(#paint3_linear_2073_40816)"/>
<path d="M23.1293 26.917C23.7783 27.9133 24.0812 29.007 24.0516 29.9894C24.0454 30.1951 23.6738 30.4372 23.4831 30.3598C22.5725 29.9899 21.6945 29.2709 21.0454 28.2747C20.3964 27.2784 20.0935 26.1847 20.1231 25.2023C20.1293 24.9966 20.5009 24.7544 20.6916 24.8319C21.6022 25.2017 22.4802 25.9207 23.1293 26.917Z" fill="url(#paint4_linear_2073_40816)"/>
<path d="M20.2336 26.3571C20.3731 27.0005 20.6424 27.6563 21.0453 28.2747C21.6943 29.2709 22.5723 29.9899 23.4829 30.3598C23.6736 30.4373 24.0453 30.1951 24.0515 29.9894C24.0811 29.007 23.7782 27.9133 23.1291 26.917C22.7469 26.3304 22.2853 25.84 21.7844 25.4603L20.2336 26.3571Z" fill="url(#paint5_linear_2073_40816)"/>
<path d="M30.0028 29.6424C29.2464 29.9529 28.6479 30.4537 28.2811 31.0213C28.2043 31.1401 28.3202 31.4223 28.4583 31.4529C29.1181 31.5991 29.8958 31.535 30.6522 31.2245C31.4086 30.914 32.0071 30.4132 32.3739 29.8456C32.4507 29.7267 32.3349 29.4445 32.1967 29.4139C31.5369 29.2678 30.7592 29.3319 30.0028 29.6424Z" fill="url(#paint6_linear_2073_40816)"/>
<path d="M30.0028 29.6424C29.2464 29.9529 28.6479 30.4537 28.2811 31.0213C28.2043 31.1401 28.3202 31.4223 28.4583 31.4529C29.1181 31.5991 29.8958 31.535 30.6522 31.2245C31.4086 30.914 32.0071 30.4132 32.3739 29.8456C32.4507 29.7267 32.3349 29.4445 32.1967 29.4139C31.5369 29.2678 30.7592 29.3319 30.0028 29.6424Z" fill="url(#paint7_linear_2073_40816)"/>
<path d="M29.6182 28.5698C28.8774 29.1569 28.373 29.9049 28.1473 30.6528C28.1 30.8094 28.319 31.0858 28.4823 31.0755C29.262 31.0266 30.1054 30.7063 30.8462 30.1192C31.5869 29.5321 32.0913 28.7842 32.317 28.0363C32.3643 27.8796 32.1453 27.6033 31.982 27.6136C31.2023 27.6625 30.3589 27.9827 29.6182 28.5698Z" fill="url(#paint8_linear_2073_40816)"/>
<path d="M29.6182 28.5698C28.8774 29.1569 28.373 29.9049 28.1473 30.6528C28.1 30.8094 28.319 31.0858 28.4823 31.0755C29.262 31.0266 30.1054 30.7063 30.8462 30.1192C31.5869 29.5321 32.0913 28.7842 32.317 28.0363C32.3643 27.8796 32.1453 27.6033 31.982 27.6136C31.2023 27.6625 30.3589 27.9827 29.6182 28.5698Z" fill="url(#paint9_linear_2073_40816)"/>
<path d="M28.8704 26.917C28.2213 27.9133 27.9184 29.007 27.948 29.9894C27.9542 30.1951 28.3259 30.4372 28.5166 30.3598C29.4271 29.9899 30.3052 29.2709 30.9542 28.2747C31.6033 27.2784 31.9062 26.1847 31.8766 25.2023C31.8704 24.9966 31.4987 24.7544 31.308 24.8319C30.3975 25.2017 29.5194 25.9207 28.8704 26.917Z" fill="url(#paint10_linear_2073_40816)"/>
<path d="M31.7658 26.3571C31.6264 27.0005 31.3571 27.6563 30.9542 28.2747C30.3052 29.2709 29.4271 29.9899 28.5166 30.3598C28.3259 30.4373 27.9542 30.1951 27.948 29.9894C27.9184 29.007 28.2213 27.9133 28.8704 26.917C29.2526 26.3304 29.7142 25.84 30.2151 25.4603L31.7658 26.3571Z" fill="url(#paint11_linear_2073_40816)"/>
<path d="M25.9998 33.6364C28.63 33.6364 30.7621 31.5042 30.7621 28.8741C30.7621 26.244 28.63 24.1118 25.9998 24.1118C23.3697 24.1118 21.2375 26.244 21.2375 28.8741C21.2375 31.5042 23.3697 33.6364 25.9998 33.6364Z" fill="url(#paint12_linear_2073_40816)"/>
<path d="M25.9999 32.67C28.0963 32.67 29.7957 30.9705 29.7957 28.8741C29.7957 26.7777 28.0963 25.0782 25.9999 25.0782C23.9034 25.0782 22.204 26.7777 22.204 28.8741C22.204 30.9705 23.9034 32.67 25.9999 32.67Z" fill="url(#paint13_linear_2073_40816)"/>
<path d="M25.9997 32.1329C27.7995 32.1329 29.2585 30.6739 29.2585 28.8741C29.2585 27.0743 27.7995 25.6153 25.9997 25.6153C24.2 25.6153 22.741 27.0743 22.741 28.8741C22.741 30.6739 24.2 32.1329 25.9997 32.1329Z" fill="url(#paint14_linear_2073_40816)"/>
<path d="M21.2375 28.8741C21.2375 31.5042 23.3697 33.6364 25.9998 33.6364C28.63 33.6364 30.7621 31.5042 30.7621 28.8741C30.7621 28.8556 30.7616 28.8373 30.7614 28.8188H21.2382C21.238 28.8373 21.2375 28.8556 21.2375 28.8741Z" fill="url(#paint15_linear_2073_40816)"/>
<path d="M27.3355 33.4462C28.8361 33.0086 30.0301 31.8525 30.5205 30.3751L28.201 28.0557L27.6781 28.0814L26.2669 26.6701L24.5469 30.6576L27.3355 33.4462Z" fill="url(#paint16_linear_2073_40816)"/>
<path d="M27.9526 27.8393L27.0187 27.6136C26.9318 27.5927 26.8559 27.54 26.8058 27.4659L26.2674 26.6701C26.2023 26.5739 26.1025 26.5222 25.9998 26.5139C25.8972 26.5222 25.7974 26.5739 25.7323 26.6701L25.1939 27.4659C25.1439 27.54 25.0679 27.5927 24.981 27.6136L24.0471 27.8393C23.7937 27.9005 23.6882 28.2029 23.8483 28.4085L24.4389 29.1664C24.4938 29.237 24.5204 29.3254 24.5135 29.4145L24.4395 30.3725C24.4195 30.6323 24.6744 30.8262 24.9195 30.7374L25.8228 30.41C25.8799 30.3893 25.9408 30.384 25.9998 30.3932C26.059 30.384 26.1198 30.3894 26.1769 30.41L27.0802 30.7374C27.3253 30.8262 27.5802 30.6323 27.5602 30.3725L27.4862 29.4145C27.4793 29.3254 27.5059 29.237 27.5608 29.1664L28.1514 28.4085C28.3115 28.2029 28.2059 27.9005 27.9526 27.8393Z" fill="url(#paint17_linear_2073_40816)"/>
<path d="M26.1769 30.41L27.0803 30.7374C27.3253 30.8262 27.5802 30.6323 27.5602 30.3725L27.4862 29.4145C27.4793 29.3254 27.5059 29.237 27.5609 29.1664L28.1514 28.4085C28.3116 28.2029 28.206 27.9005 27.9526 27.8393L27.0187 27.6136C26.9318 27.5927 26.8559 27.54 26.8058 27.4659L26.2674 26.6701C26.2023 26.5739 26.1025 26.5222 25.9999 26.5139V30.3932C26.059 30.384 26.1199 30.3893 26.1769 30.41Z" fill="url(#paint18_linear_2073_40816)"/>
<path d="M27.9526 27.8393L27.0186 27.6136C26.9867 27.6059 26.9564 27.5939 26.9282 27.5782L24.5474 30.6576C24.6408 30.7479 24.7817 30.7873 24.9194 30.7374L25.8228 30.41C25.8798 30.3894 25.9407 30.384 25.9998 30.3932C26.0589 30.3841 26.1198 30.3894 26.1768 30.41L27.0802 30.7374C27.3252 30.8262 27.5802 30.6324 27.5601 30.3725L27.4861 29.4146C27.4792 29.3254 27.5059 29.237 27.5608 29.1665L28.1513 28.4085C28.3115 28.2029 28.2059 27.9005 27.9526 27.8393Z" fill="url(#paint19_linear_2073_40816)"/>
<path d="M24.0471 27.8393L24.981 27.6136C25.0129 27.6059 25.0433 27.5939 25.0715 27.5782L27.4523 30.6577C27.3589 30.7479 27.218 30.7874 27.0802 30.7374L26.1769 30.4101C26.1198 30.3894 26.0589 30.384 25.9998 30.3932C25.9407 30.3841 25.8799 30.3894 25.8228 30.4101L24.9195 30.7374C24.6744 30.8262 24.4195 30.6324 24.4395 30.3725L24.5135 29.4146C24.5204 29.3255 24.4938 29.237 24.4389 29.1665L23.8483 28.4085C23.6882 28.2029 23.7937 27.9005 24.0471 27.8393Z" fill="url(#paint20_linear_2073_40816)"/>
<path d="M23.7985 28.0557C23.7541 28.1677 23.7647 28.3012 23.8483 28.4085L24.4388 29.1664C24.4938 29.237 24.5204 29.3254 24.5135 29.4145L24.4395 30.3725C24.4195 30.6323 24.6744 30.8262 24.9195 30.7374L25.8228 30.41C25.8799 30.3893 25.9408 30.384 25.9998 30.3932C26.059 30.384 26.1198 30.3894 26.1769 30.41L27.0802 30.7374C27.3252 30.8262 27.5802 30.6323 27.5601 30.3725L27.4861 29.4145C27.4823 29.3651 27.4892 29.316 27.5051 29.2699L23.7985 28.0557Z" fill="url(#paint21_linear_2073_40816)"/>
<path d="M28.2016 28.0557C28.246 28.1677 28.2354 28.3012 28.1518 28.4085L27.5613 29.1664C27.5063 29.237 27.4797 29.3254 27.4866 29.4146L27.5606 30.3725C27.5806 30.6324 27.3257 30.8262 27.0806 30.7374L26.1773 30.41C26.1202 30.3893 26.0593 30.384 26.0003 30.3932C25.9411 30.384 25.8803 30.3894 25.8232 30.41L24.9199 30.7374C24.6749 30.8262 24.4199 30.6324 24.44 30.3725L24.514 29.4146C24.5178 29.3651 24.5109 29.316 24.495 29.2699L28.2016 28.0557Z" fill="url(#paint22_linear_2073_40816)"/>
<path d="M25.9998 24.1118C25.9801 24.1118 25.9605 24.1123 25.9408 24.1126L25.2058 24.8475L30.5711 30.2128C30.6952 29.7881 30.7621 29.3389 30.7621 28.8741C30.7621 26.244 28.63 24.1118 25.9998 24.1118Z" fill="url(#paint23_linear_2073_40816)"/>
<path d="M23.1249 18.4635V20.979L25.9997 23.8538L28.8746 20.979V18.4635H23.1249Z" fill="url(#paint24_linear_2073_40816)"/>
<path d="M23.1249 18.4635V19.2463L25.9901 22.1116C25.9954 22.1169 26.0041 22.1169 26.0094 22.1116L28.8746 19.2463V18.4635H23.1249Z" fill="url(#paint25_linear_2073_40816)"/>
<path d="M23.1249 18.4635V19.2463L25.9901 22.1116C25.9954 22.1169 26.0041 22.1169 26.0094 22.1116L28.8746 19.2463V18.4635H23.1249Z" fill="url(#paint26_linear_2073_40816)"/>
<path d="M25.9997 22.5645C25.8812 22.5645 25.7627 22.5194 25.6725 22.4292L23.1249 19.8816V20.979L25.9997 23.8539L28.8746 20.979V19.8816L26.327 22.4292C26.2368 22.5194 26.1183 22.5645 25.9997 22.5645Z" fill="url(#paint27_linear_2073_40816)"/>
<path d="M25.9997 22.5645C25.8812 22.5645 25.7627 22.5194 25.6725 22.4292L23.1249 19.8816V20.979L25.9997 23.8539L28.8746 20.979V19.8816L26.327 22.4292C26.2368 22.5194 26.1183 22.5645 25.9997 22.5645Z" fill="url(#paint28_linear_2073_40816)"/>
<path d="M25.9997 22.5645C26.1183 22.5645 26.2368 22.5194 26.327 22.4292L28.8746 19.8816V20.979L25.9997 23.8539L23.1249 20.979V19.8816L25.6725 22.4292C25.7627 22.5194 25.8812 22.5645 25.9997 22.5645Z" fill="url(#paint29_linear_2073_40816)"/>
<path d="M25.6846 23.2008L23.2381 20.7544C23.0547 20.5709 22.7572 20.5709 22.5737 20.7544C22.3903 20.9378 22.3903 21.2353 22.5737 21.4187L25.9998 24.8448L29.4259 21.4188C29.6094 21.2353 29.6094 20.9378 29.4259 20.7544C29.2424 20.5709 28.945 20.5709 28.7615 20.7544L26.3151 23.2008C26.1409 23.375 25.8587 23.375 25.6846 23.2008Z" fill="url(#paint30_linear_2073_40816)"/>
<path d="M22.5738 20.7599L25.6391 23.8253C25.8384 24.0245 26.1614 24.0245 26.3606 23.8253L29.426 20.7599C29.4269 20.759 29.4276 20.758 29.4285 20.7571C29.4276 20.7562 29.4269 20.7553 29.426 20.7544C29.2425 20.5709 28.945 20.5709 28.7616 20.7544L26.3151 23.2008C26.141 23.3749 25.8587 23.3749 25.6846 23.2008L23.2382 20.7544C23.0547 20.5709 22.7573 20.5709 22.5738 20.7544C22.5729 20.7553 22.5722 20.7562 22.5713 20.7571C22.5722 20.758 22.5729 20.759 22.5738 20.7599Z" fill="url(#paint31_linear_2073_40816)"/>
<path d="M25.9998 24.8449L28.4182 22.4264H27.0895L26.315 23.2008C26.1409 23.375 25.8586 23.375 25.6845 23.2008L24.9101 22.4264H23.5813L25.9998 24.8449Z" fill="url(#paint32_linear_2073_40816)"/>
<path d="M25.7002 24.5454L25.9997 24.8448L29.067 21.7775H27.7382L26.3149 23.2008C26.1459 23.3699 25.8752 23.3743 25.7002 23.2151V24.5454Z" fill="url(#paint33_linear_2073_40816)"/>
<path d="M25.9998 25.1764C26.6199 25.1764 27.1227 24.6737 27.1227 24.0535C27.1227 23.4333 26.6199 22.9305 25.9998 22.9305C25.3796 22.9305 24.8768 23.4333 24.8768 24.0535C24.8768 24.6737 25.3796 25.1764 25.9998 25.1764Z" fill="url(#paint34_linear_2073_40816)"/>
<path d="M25.9997 24.6973C26.3553 24.6973 26.6435 24.409 26.6435 24.0535C26.6435 23.6979 26.3553 23.4097 25.9997 23.4097C25.6442 23.4097 25.356 23.6979 25.356 24.0535C25.356 24.409 25.6442 24.6973 25.9997 24.6973Z" fill="url(#paint35_linear_2073_40816)"/>
<path d="M29.3089 19.4816H22.6906C22.5005 19.4816 22.3463 19.3275 22.3463 19.1373V18.708C22.3463 18.5178 22.5005 18.3636 22.6906 18.3636H29.309C29.4991 18.3636 29.6533 18.5178 29.6533 18.708V19.1373C29.6533 19.3275 29.4991 19.4816 29.3089 19.4816Z" fill="url(#paint36_linear_2073_40816)"/>
</g>
<defs>
<filter id="filter0_d_2073_40816" x="0" y="0" width="52" height="52" filterUnits="userSpaceOnUse" color-interpolation-filters="sRGB">
<feFlood flood-opacity="0" result="BackgroundImageFix"/>
<feColorMatrix in="SourceAlpha" type="matrix" values="0 0 0 0 0 0 0 0 0 0 0 0 0 0 0 0 0 0 127 0" result="hardAlpha"/>
<feOffset/>
<feGaussianBlur stdDeviation="6"/>
<feComposite in2="hardAlpha" operator="out"/>
<feColorMatrix type="matrix" values="0 0 0 0 0.211765 0 0 0 0 0.270588 0 0 0 0 0.309804 0 0 0 0.16 0"/>
<feBlend mode="normal" in2="BackgroundImageFix" result="effect1_dropShadow_2073_40816"/>
<feBlend mode="normal" in="SourceGraphic" in2="effect1_dropShadow_2073_40816" result="shape"/>
</filter>
<linearGradient id="paint0_linear_2073_40816" x1="21.1264" y1="29.0067" x2="21.668" y2="30.4177" gradientUnits="userSpaceOnUse">
<stop stop-color="#E6E6E6"/>
<stop offset="1" stop-color="#999999"/>
</linearGradient>
<linearGradient id="paint1_linear_2073_40816" x1="20.8458" y1="29.7439" x2="22.0302" y2="30.7282" gradientUnits="userSpaceOnUse">
<stop stop-color="#766E6E" stop-opacity="0"/>
<stop offset="0.2806" stop-color="#716B6B" stop-opacity="0.281"/>
<stop offset="0.5705" stop-color="#656060" stop-opacity="0.571"/>
<stop offset="0.8636" stop-color="#514F4F" stop-opacity="0.864"/>
<stop offset="1" stop-color="#444444"/>
</linearGradient>
<linearGradient id="paint2_linear_2073_40816" x1="20.5161" y1="27.7643" x2="21.651" y2="29.1945" gradientUnits="userSpaceOnUse">
<stop stop-color="#E6E6E6"/>
<stop offset="1" stop-color="#999999"/>
</linearGradient>
<linearGradient id="paint3_linear_2073_40816" x1="20.7954" y1="29.0996" x2="21.8738" y2="29.3691" gradientUnits="userSpaceOnUse">
<stop stop-color="#766E6E" stop-opacity="0"/>
<stop offset="0.2806" stop-color="#716B6B" stop-opacity="0.281"/>
<stop offset="0.5705" stop-color="#656060" stop-opacity="0.571"/>
<stop offset="0.8636" stop-color="#514F4F" stop-opacity="0.864"/>
<stop offset="1" stop-color="#444444"/>
</linearGradient>
<linearGradient id="paint4_linear_2073_40816" x1="22.0087" y1="25.9543" x2="22.1264" y2="28.3793" gradientUnits="userSpaceOnUse">
<stop stop-color="#E6E6E6"/>
<stop offset="1" stop-color="#999999"/>
</linearGradient>
<linearGradient id="paint5_linear_2073_40816" x1="21.8276" y1="27.2093" x2="22.5327" y2="28.2512" gradientUnits="userSpaceOnUse">
<stop stop-color="#766E6E" stop-opacity="0"/>
<stop offset="0.2806" stop-color="#716B6B" stop-opacity="0.281"/>
<stop offset="0.5705" stop-color="#656060" stop-opacity="0.571"/>
<stop offset="0.8636" stop-color="#514F4F" stop-opacity="0.864"/>
<stop offset="1" stop-color="#444444"/>
</linearGradient>
<linearGradient id="paint6_linear_2073_40816" x1="30.8745" y1="29.0056" x2="30.3329" y2="30.4166" gradientUnits="userSpaceOnUse">
<stop stop-color="#E6E6E6"/>
<stop offset="1" stop-color="#999999"/>
</linearGradient>
<linearGradient id="paint7_linear_2073_40816" x1="31.1551" y1="29.7428" x2="29.9707" y2="30.7271" gradientUnits="userSpaceOnUse">
<stop stop-color="#766E6E" stop-opacity="0"/>
<stop offset="0.2806" stop-color="#716B6B" stop-opacity="0.281"/>
<stop offset="0.5705" stop-color="#656060" stop-opacity="0.571"/>
<stop offset="0.8636" stop-color="#514F4F" stop-opacity="0.864"/>
<stop offset="1" stop-color="#444444"/>
</linearGradient>
<linearGradient id="paint8_linear_2073_40816" x1="31.4848" y1="27.7632" x2="30.35" y2="29.1935" gradientUnits="userSpaceOnUse">
<stop stop-color="#E6E6E6"/>
<stop offset="1" stop-color="#999999"/>
</linearGradient>
<linearGradient id="paint9_linear_2073_40816" x1="31.2056" y1="29.0986" x2="30.1272" y2="29.368" gradientUnits="userSpaceOnUse">
<stop stop-color="#766E6E" stop-opacity="0"/>
<stop offset="0.2806" stop-color="#716B6B" stop-opacity="0.281"/>
<stop offset="0.5705" stop-color="#656060" stop-opacity="0.571"/>
<stop offset="0.8636" stop-color="#514F4F" stop-opacity="0.864"/>
<stop offset="1" stop-color="#444444"/>
</linearGradient>
<linearGradient id="paint10_linear_2073_40816" x1="29.9923" y1="25.9532" x2="29.8746" y2="28.3782" gradientUnits="userSpaceOnUse">
<stop stop-color="#E6E6E6"/>
<stop offset="1" stop-color="#999999"/>
</linearGradient>
<linearGradient id="paint11_linear_2073_40816" x1="30.1733" y1="27.2082" x2="29.4682" y2="28.2501" gradientUnits="userSpaceOnUse">
<stop stop-color="#766E6E" stop-opacity="0"/>
<stop offset="0.2806" stop-color="#716B6B" stop-opacity="0.281"/>
<stop offset="0.5705" stop-color="#656060" stop-opacity="0.571"/>
<stop offset="0.8636" stop-color="#514F4F" stop-opacity="0.864"/>
<stop offset="1" stop-color="#444444"/>
</linearGradient>
<linearGradient id="paint12_linear_2073_40816" x1="23.0637" y1="25.938" x2="28.0862" y2="30.9605" gradientUnits="userSpaceOnUse">
<stop stop-color="#E6E6E6"/>
<stop offset="1" stop-color="#999999"/>
</linearGradient>
<linearGradient id="paint13_linear_2073_40816" x1="28.4652" y1="31.3395" x2="23.4625" y2="26.3368" gradientUnits="userSpaceOnUse">
<stop stop-color="#E6E6E6"/>
<stop offset="1" stop-color="#999999"/>
</linearGradient>
<linearGradient id="paint14_linear_2073_40816" x1="23.6307" y1="26.5051" x2="27.5303" y2="30.4046" gradientUnits="userSpaceOnUse">
<stop stop-color="#E6E6E6"/>
<stop offset="1" stop-color="#999999"/>
</linearGradient>
<linearGradient id="paint15_linear_2073_40816" x1="25.9998" y1="30.2674" x2="25.9998" y2="33.3933" gradientUnits="userSpaceOnUse">
<stop stop-color="#766E6E" stop-opacity="0"/>
<stop offset="0.2806" stop-color="#716B6B" stop-opacity="0.281"/>
<stop offset="0.5705" stop-color="#656060" stop-opacity="0.571"/>
<stop offset="0.8636" stop-color="#514F4F" stop-opacity="0.864"/>
<stop offset="1" stop-color="#444444"/>
</linearGradient>
<linearGradient id="paint16_linear_2073_40816" x1="28.852" y1="31.3491" x2="24.919" y2="28.8735" gradientUnits="userSpaceOnUse">
<stop stop-color="#766E6E" stop-opacity="0"/>
<stop offset="0.2806" stop-color="#716B6B" stop-opacity="0.281"/>
<stop offset="0.5705" stop-color="#656060" stop-opacity="0.571"/>
<stop offset="0.8636" stop-color="#514F4F" stop-opacity="0.864"/>
<stop offset="1" stop-color="#444444"/>
</linearGradient>
<linearGradient id="paint17_linear_2073_40816" x1="25.0078" y1="27.9689" x2="26.7967" y2="29.7578" gradientUnits="userSpaceOnUse">
<stop stop-color="#F9F5F3"/>
<stop offset="1" stop-color="#D8E8F0"/>
</linearGradient>
<linearGradient id="paint18_linear_2073_40816" x1="27.0718" y1="28.4566" x2="24.5993" y2="29.4788" gradientUnits="userSpaceOnUse">
<stop stop-color="#678D98" stop-opacity="0"/>
<stop offset="0.9957" stop-color="#678D98" stop-opacity="0.996"/>
<stop offset="1" stop-color="#678D98"/>
</linearGradient>
<linearGradient id="paint19_linear_2073_40816" x1="26.4261" y1="29.3341" x2="25.0725" y2="28.7539" gradientUnits="userSpaceOnUse">
<stop stop-color="#678D98" stop-opacity="0"/>
<stop offset="0.9957" stop-color="#678D98" stop-opacity="0.996"/>
<stop offset="1" stop-color="#678D98"/>
</linearGradient>
<linearGradient id="paint20_linear_2073_40816" x1="25.5735" y1="29.3341" x2="26.9272" y2="28.7539" gradientUnits="userSpaceOnUse">
<stop stop-color="#678D98" stop-opacity="0"/>
<stop offset="0.9957" stop-color="#678D98" stop-opacity="0.996"/>
<stop offset="1" stop-color="#678D98"/>
</linearGradient>
<linearGradient id="paint21_linear_2073_40816" x1="25.6036" y1="29.402" x2="26.4738" y2="28.0034" gradientUnits="userSpaceOnUse">
<stop stop-color="#678D98" stop-opacity="0"/>
<stop offset="0.9957" stop-color="#678D98" stop-opacity="0.996"/>
<stop offset="1" stop-color="#678D98"/>
</linearGradient>
<linearGradient id="paint22_linear_2073_40816" x1="26.3294" y1="29.2254" x2="26.2569" y2="27.8579" gradientUnits="userSpaceOnUse">
<stop stop-color="#678D98" stop-opacity="0"/>
<stop offset="0.9957" stop-color="#678D98" stop-opacity="0.996"/>
<stop offset="1" stop-color="#678D98"/>
</linearGradient>
<linearGradient id="paint23_linear_2073_40816" x1="28.3466" y1="26.8622" x2="26.5099" y2="23.648" gradientUnits="userSpaceOnUse">
<stop stop-color="#766E6E" stop-opacity="0"/>
<stop offset="0.2806" stop-color="#716B6B" stop-opacity="0.281"/>
<stop offset="0.5705" stop-color="#656060" stop-opacity="0.571"/>
<stop offset="0.8636" stop-color="#514F4F" stop-opacity="0.864"/>
<stop offset="1" stop-color="#444444"/>
</linearGradient>
<linearGradient id="paint24_linear_2073_40816" x1="26.2127" y1="20.0609" x2="27.3956" y2="21.9475" gradientUnits="userSpaceOnUse">
<stop stop-color="#F9F5F3"/>
<stop offset="1" stop-color="#D8E8F0"/>
</linearGradient>
<linearGradient id="paint25_linear_2073_40816" x1="25.0329" y1="17.7461" x2="28.7063" y2="21.9586" gradientUnits="userSpaceOnUse">
<stop stop-color="#B3DAFE"/>
<stop offset="1" stop-color="#0182FC"/>
</linearGradient>
<linearGradient id="paint26_linear_2073_40816" x1="25.9997" y1="20.3551" x2="25.9997" y2="19.3658" gradientUnits="userSpaceOnUse">
<stop stop-color="#0182FC" stop-opacity="0"/>
<stop offset="0.1261" stop-color="#017FF3" stop-opacity="0.126"/>
<stop offset="0.3306" stop-color="#0176DB" stop-opacity="0.331"/>
<stop offset="0.5881" stop-color="#0268B4" stop-opacity="0.588"/>
<stop offset="0.8857" stop-color="#02547E" stop-opacity="0.886"/>
<stop offset="1" stop-color="#024C67"/>
</linearGradient>
<linearGradient id="paint27_linear_2073_40816" x1="24.2525" y1="18.4266" x2="27.9259" y2="22.6391" gradientUnits="userSpaceOnUse">
<stop stop-color="#B3DAFE"/>
<stop offset="1" stop-color="#0182FC"/>
</linearGradient>
<linearGradient id="paint28_linear_2073_40816" x1="27.1376" y1="21.5681" x2="27.6488" y2="22.0793" gradientUnits="userSpaceOnUse">
<stop stop-color="#0182FC" stop-opacity="0"/>
<stop offset="0.1261" stop-color="#017FF3" stop-opacity="0.126"/>
<stop offset="0.3306" stop-color="#0176DB" stop-opacity="0.331"/>
<stop offset="0.5881" stop-color="#0268B4" stop-opacity="0.588"/>
<stop offset="0.8857" stop-color="#02547E" stop-opacity="0.886"/>
<stop offset="1" stop-color="#024C67"/>
</linearGradient>
<linearGradient id="paint29_linear_2073_40816" x1="24.8619" y1="21.5681" x2="24.3507" y2="22.0793" gradientUnits="userSpaceOnUse">
<stop stop-color="#0182FC" stop-opacity="0"/>
<stop offset="0.1261" stop-color="#017FF3" stop-opacity="0.126"/>
<stop offset="0.3306" stop-color="#0176DB" stop-opacity="0.331"/>
<stop offset="0.5881" stop-color="#0268B4" stop-opacity="0.588"/>
<stop offset="0.8857" stop-color="#02547E" stop-opacity="0.886"/>
<stop offset="1" stop-color="#024C67"/>
</linearGradient>
<linearGradient id="paint30_linear_2073_40816" x1="28.5958" y1="23.6825" x2="22.4549" y2="17.5417" gradientUnits="userSpaceOnUse">
<stop stop-color="#E6E6E6"/>
<stop offset="1" stop-color="#999999"/>
</linearGradient>
<linearGradient id="paint31_linear_2073_40816" x1="25.9999" y1="20.8093" x2="25.9999" y2="25.003" gradientUnits="userSpaceOnUse">
<stop stop-color="#E6E6E6"/>
<stop offset="1" stop-color="#999999"/>
</linearGradient>
<linearGradient id="paint32_linear_2073_40816" x1="25.9998" y1="23.2449" x2="25.9998" y2="24.6238" gradientUnits="userSpaceOnUse">
<stop stop-color="#766E6E" stop-opacity="0"/>
<stop offset="0.2806" stop-color="#716B6B" stop-opacity="0.281"/>
<stop offset="0.5705" stop-color="#656060" stop-opacity="0.571"/>
<stop offset="0.8636" stop-color="#514F4F" stop-opacity="0.864"/>
<stop offset="1" stop-color="#444444"/>
</linearGradient>
<linearGradient id="paint33_linear_2073_40816" x1="27.4151" y1="22.4642" x2="26.5766" y2="23.3177" gradientUnits="userSpaceOnUse">
<stop stop-color="#766E6E" stop-opacity="0"/>
<stop offset="0.2806" stop-color="#716B6B" stop-opacity="0.281"/>
<stop offset="0.5705" stop-color="#656060" stop-opacity="0.571"/>
<stop offset="0.8636" stop-color="#514F4F" stop-opacity="0.864"/>
<stop offset="1" stop-color="#444444"/>
</linearGradient>
<linearGradient id="paint34_linear_2073_40816" x1="25.3559" y1="23.4096" x2="26.944" y2="24.9977" gradientUnits="userSpaceOnUse">
<stop stop-color="#F9F5F3"/>
<stop offset="1" stop-color="#D8E8F0"/>
</linearGradient>
<linearGradient id="paint35_linear_2073_40816" x1="26.4564" y1="24.5102" x2="25.6703" y2="23.724" gradientUnits="userSpaceOnUse">
<stop stop-color="#F9F5F3"/>
<stop offset="1" stop-color="#D8E8F0"/>
</linearGradient>
<linearGradient id="paint36_linear_2073_40816" x1="25.9998" y1="18.703" x2="25.9998" y2="19.327" gradientUnits="userSpaceOnUse">
<stop stop-color="#E6E6E6"/>
<stop offset="1" stop-color="#999999"/>
</linearGradient>
<clipPath id="clip0_2073_40816">
<rect width="15.2727" height="15.2727" fill="white" transform="translate(18.3635 18.3636)"/>
</clipPath>
</defs>
</svg>
