<svg width="29" height="28" viewBox="0 0 29 28" fill="none" xmlns="http://www.w3.org/2000/svg">
<path fill-rule="evenodd" clip-rule="evenodd" d="M3.75384 27.9993C4.54374 27.9993 5.18471 27.3517 5.18471 26.5529V21.2479C5.18471 20.4491 4.54374 19.8015 3.75384 19.8015H1.43105C0.640965 19.8015 0 20.4491 0 21.2479V26.5529C0 27.3517 0.640965 27.9993 1.43105 27.9993H3.75384Z" fill="white"/>
<path fill-rule="evenodd" clip-rule="evenodd" d="M12.8782 28.0001C13.6288 28.0001 14.2773 27.475 14.4207 26.73C14.8294 24.6117 15.5967 20.1258 15.7964 15.4409C15.8425 14.3507 14.7976 13.5808 13.7291 13.7372C12.4871 13.9193 11.4227 13.8735 10.2279 13.7849C9.12381 13.7031 8.28316 14.7514 8.51281 15.8463C9.21206 19.1875 9.64801 23.3564 9.82636 26.4313C9.87693 27.3061 10.5872 28.0001 11.4538 28.0001H12.8782Z" fill="white"/>
<path fill-rule="evenodd" clip-rule="evenodd" d="M26.5478 7.76595C27.4307 7.00052 28.8169 7.72532 28.665 9.00209C27.8036 16.263 26.0243 22.0629 23.5809 27.2886C23.0258 28.4765 21.5059 27.9507 21.4443 26.5973C21.216 21.5915 20.3073 16.7212 18.3165 12.1791C17.7846 10.9652 18.9593 9.23075 20.1041 9.46183C22.7741 10.0006 24.7641 9.3126 26.5478 7.76595Z" fill="white"/>
<path fill-rule="evenodd" clip-rule="evenodd" d="M21.87 7.45291C23.906 7.45291 25.5562 5.78469 25.5562 3.7267C25.5562 1.66797 23.906 -0.000244141 21.87 -0.000244141C19.8339 -0.000244141 18.1837 1.66797 18.1837 3.7267C18.1837 5.78469 19.8339 7.45291 21.87 7.45291Z" fill="white"/>
</svg>
