<svg width="40" height="32" viewBox="0 0 40 32" fill="none" xmlns="http://www.w3.org/2000/svg">
<path d="M15 31.667V21.667C15 21.225 14.8244 20.801 14.5118 20.4885C14.1993 20.1759 13.7754 20.0003 13.3333 20.0003H6.66667C6.22464 20.0003 5.80072 20.1759 5.48816 20.4885C5.17559 20.801 5 21.225 5 21.667V31.667C5 32.109 5.17559 32.5329 5.48816 32.8455C5.80072 33.1581 6.22464 33.3337 6.66667 33.3337M15 31.667C15 32.109 14.8244 32.5329 14.5118 32.8455C14.1993 33.1581 13.7754 33.3337 13.3333 33.3337H6.66667M15 31.667C15 32.109 15.1756 32.5329 15.4882 32.8455C15.8007 33.1581 16.2246 33.3337 16.6667 33.3337H23.3333C23.7754 33.3337 24.1993 33.1581 24.5118 32.8455C24.8244 32.5329 25 32.109 25 31.667M15 31.667V15.0003C15 14.5583 15.1756 14.1344 15.4882 13.8218C15.8007 13.5093 16.2246 13.3337 16.6667 13.3337H23.3333C23.7754 13.3337 24.1993 13.5093 24.5118 13.8218C24.8244 14.1344 25 14.5583 25 15.0003V31.667M6.66667 33.3337H30M25 31.667C25 32.109 25.1756 32.5329 25.4882 32.8455C25.8007 33.1581 26.2246 33.3337 26.6667 33.3337H33.3333C33.7754 33.3337 34.1993 33.1581 34.5118 32.8455C34.8244 32.5329 35 32.109 35 31.667V8.33366C35 7.89163 34.8244 7.46771 34.5118 7.15515C34.1993 6.84259 33.7754 6.66699 33.3333 6.66699H26.6667C26.2246 6.66699 25.8007 6.84259 25.4882 7.15515C25.1756 7.46771 25 7.89163 25 8.33366V31.667Z" stroke="url(#paint0_linear_2732_70485)" stroke-width="2" stroke-linecap="round" stroke-linejoin="round"/>
<defs>
<linearGradient id="paint0_linear_2732_70485" x1="4.70313" y1="6.66687" x2="35.0515" y2="6.72556" gradientUnits="userSpaceOnUse">
<stop stop-color="#043785"/>
<stop offset="1" stop-color="#1F55A6"/>
</linearGradient>
</defs>
</svg>
