<svg width="16" height="16" viewBox="0 0 16 16" fill="none" xmlns="http://www.w3.org/2000/svg">
<path d="M9.87504 8.96872C9.87504 8.41644 9.42732 7.96872 8.87504 7.96872H7.12502C6.57274 7.96872 6.12502 8.41644 6.12502 8.96872V14.5313C6.12502 15.0835 6.57274 15.5312 7.12502 15.5312H8.87504C9.42732 15.5312 9.87504 15.0835 9.87504 14.5313V8.96872ZM15.5001 12.7187C15.5001 12.1665 15.0523 11.7187 14.5001 11.7187H12.75C12.1978 11.7187 11.75 12.1665 11.75 12.7187V14.5312C11.75 15.0835 12.1978 15.5312 12.75 15.5312H14.5001C15.0523 15.5312 15.5001 15.0835 15.5001 14.5312V12.7187ZM0.5 10.8437C0.5 10.2914 0.947715 9.84373 1.5 9.84373H3.25001C3.8023 9.84373 4.25001 10.2914 4.25001 10.8437V14.5312C4.25001 15.0835 3.8023 15.5312 3.25001 15.5312H1.5C0.947715 15.5312 0.5 15.0835 0.5 14.5313V10.8437Z" stroke="#F4364C" stroke-miterlimit="10" stroke-linecap="round" stroke-linejoin="round"/>
<path d="M8.00001 2.96874C6.96447 2.96874 6.125 3.80821 6.125 4.84375V5.78125H9.87501V4.84375C9.87501 3.80821 9.03554 2.96874 8.00001 2.96874Z" stroke="#F4364C" stroke-miterlimit="10" stroke-linecap="round" stroke-linejoin="round"/>
<path d="M9.25001 1.71875C9.25001 1.02837 8.69038 0.46874 8 0.46874C7.30963 0.46874 6.75 1.02837 6.75 1.71875C6.75 2.40912 7.30963 2.96875 8 2.96875C8.69038 2.96875 9.25001 2.40912 9.25001 1.71875Z" stroke="#F4364C" stroke-miterlimit="10" stroke-linecap="round" stroke-linejoin="round"/>
<path d="M2.37501 4.84374C1.33947 4.84374 0.5 5.68321 0.5 6.71875V7.65625H4.25001V6.71875C4.25001 5.68321 3.41054 4.84374 2.37501 4.84374Z" stroke="#F4364C" stroke-miterlimit="10" stroke-linecap="round" stroke-linejoin="round"/>
<path d="M3.62501 3.59375C3.62501 2.90337 3.06538 2.34374 2.375 2.34374C1.68463 2.34374 1.125 2.90337 1.125 3.59375C1.125 4.28412 1.68463 4.84375 2.375 4.84375C3.06538 4.84375 3.62501 4.28412 3.62501 3.59375Z" stroke="#F4364C" stroke-miterlimit="10" stroke-linecap="round" stroke-linejoin="round"/>
<path d="M13.625 6.71874C12.5895 6.71874 11.75 7.55821 11.75 8.59375V9.53125H15.5V8.59375C15.5 7.55821 14.6605 6.71874 13.625 6.71874Z" stroke="#F4364C" stroke-miterlimit="10" stroke-linecap="round" stroke-linejoin="round"/>
<path d="M14.875 5.46875C14.875 4.77837 14.3154 4.21874 13.625 4.21874C12.9346 4.21874 12.375 4.77837 12.375 5.46875C12.375 6.15912 12.9346 6.71875 13.625 6.71875C14.3154 6.71875 14.875 6.15912 14.875 5.46875Z" stroke="#F4364C" stroke-miterlimit="10" stroke-linecap="round" stroke-linejoin="round"/>
</svg>
