<svg width="136" height="28" viewBox="0 0 136 28" fill="none" xmlns="http://www.w3.org/2000/svg">
<path fill-rule="evenodd" clip-rule="evenodd" d="M3.75384 27.9993C4.54374 27.9993 5.18471 27.3517 5.18471 26.5529V21.2479C5.18471 20.4491 4.54374 19.8015 3.75384 19.8015H1.43105C0.640965 19.8015 0 20.4491 0 21.2479V26.5529C0 27.3517 0.640965 27.9993 1.43105 27.9993H3.75384Z" fill="white"/>
<path fill-rule="evenodd" clip-rule="evenodd" d="M12.8782 28.0001C13.6288 28.0001 14.2773 27.475 14.4207 26.73C14.8294 24.6117 15.5967 20.1258 15.7964 15.4409C15.8425 14.3507 14.7976 13.5808 13.7291 13.7372C12.4871 13.9193 11.4227 13.8735 10.2279 13.7849C9.12381 13.7031 8.28316 14.7514 8.51281 15.8463C9.21206 19.1875 9.64801 23.3564 9.82636 26.4313C9.87693 27.3061 10.5872 28.0001 11.4538 28.0001H12.8782Z" fill="white"/>
<path fill-rule="evenodd" clip-rule="evenodd" d="M26.5478 7.76595C27.4307 7.00052 28.8169 7.72532 28.665 9.00209C27.8036 16.263 26.0243 22.0629 23.5809 27.2886C23.0258 28.4765 21.5059 27.9507 21.4443 26.5973C21.216 21.5915 20.3073 16.7212 18.3165 12.1791C17.7846 10.9652 18.9593 9.23075 20.1041 9.46183C22.7741 10.0006 24.7641 9.3126 26.5478 7.76595Z" fill="white"/>
<path fill-rule="evenodd" clip-rule="evenodd" d="M21.87 7.45291C23.906 7.45291 25.5562 5.78469 25.5562 3.7267C25.5562 1.66797 23.906 -0.000244141 21.87 -0.000244141C19.8339 -0.000244141 18.1837 1.66797 18.1837 3.7267C18.1837 5.78469 19.8339 7.45291 21.87 7.45291Z" fill="white"/>
<path fill-rule="evenodd" clip-rule="evenodd" d="M131.013 18.8315C131.013 17.6608 130.744 16.6856 130.207 15.9059C129.593 14.9951 128.736 14.5406 127.637 14.5406C126.512 14.5406 125.642 14.9825 125.028 15.8663C124.465 16.6473 124.184 17.6351 124.184 18.8315C124.184 19.9755 124.452 20.9507 124.99 21.7571C125.578 22.6679 126.409 23.1357 127.484 23.1614C127.867 23.1614 128.52 22.9536 129.44 22.5374C130.488 21.7836 131.013 20.5479 131.013 18.8315ZM136 18.8315C136 21.3808 135.233 23.526 133.698 25.2683C132.112 27.0888 130.092 27.9998 127.637 27.9998C125.079 27.9998 123.033 27.1278 121.498 25.3855C119.964 23.6431 119.197 21.4584 119.197 18.8315C119.197 16.2306 119.964 14.0456 121.498 12.2775C123.033 10.5093 125.079 9.62476 127.637 9.62476C130.092 9.62476 132.1 10.5284 133.66 12.3365C135.22 14.1436 136 16.3087 136 18.8315ZM118.622 24.5659C118.622 25.7367 117.855 26.6469 116.32 27.2974C115.144 27.7652 113.878 27.9998 112.522 27.9998C110.195 27.9998 108.239 27.0888 106.653 25.2683C105.067 23.4476 104.274 21.3284 104.274 18.9096C104.274 17.7656 104.479 16.5684 104.888 15.3203C105.502 13.5256 106.525 12.1277 107.957 11.1267C109.39 10.125 111.065 9.62476 112.983 9.62476C114.313 9.62476 115.502 9.8719 116.55 10.3654C117.931 11.0161 118.622 11.9264 118.622 13.0969C118.622 14.5014 117.996 15.2554 116.737 15.3594C116.634 15.3851 116.544 15.411 116.468 15.4375C116.103 15.3851 115.54 15.2229 114.774 14.95C114 14.677 113.398 14.5406 112.957 14.5406C111.781 14.5406 110.854 14.9825 110.188 15.8663C109.568 16.6473 109.261 17.6608 109.261 18.9096C109.261 20.886 109.952 22.1996 111.34 22.8501C111.806 23.0576 112.28 23.1614 112.766 23.1614C113.411 23.1614 114.204 23.0058 115.157 22.6939C115.899 22.4334 116.34 22.3036 116.468 22.3036C117.056 22.3036 117.561 22.5308 117.989 22.9866C118.412 23.4418 118.622 23.9684 118.622 24.5659ZM102.814 25.0736C102.814 25.8281 102.584 26.4514 102.123 26.9464C101.663 27.4399 101.062 27.6871 100.32 27.6871C99.6038 27.6871 99.0089 27.4399 98.536 26.9464C98.0629 26.4514 97.8265 25.8281 97.8265 25.0736V17.0368C97.8265 16.1789 97.6213 15.4766 97.2128 14.9301C96.7522 14.2802 96.1254 13.9549 95.3326 13.9549C94.5396 13.9549 93.926 14.261 93.4909 14.8717C93.0563 15.4833 92.8386 16.2047 92.8386 17.0368V25.0736C92.8386 25.8281 92.6087 26.4514 92.1481 26.9464C91.6881 27.4399 91.0875 27.6871 90.3453 27.6871C89.6288 27.6871 89.0347 27.4399 88.5615 26.9464C88.0886 26.4514 87.8515 25.8281 87.8515 25.0736V17.0368C87.8515 16.2047 87.6345 15.4833 87.1994 14.8717C86.7648 14.261 86.1512 13.9549 85.3576 13.9549C84.5646 13.9549 83.9452 14.261 83.4976 14.8717C83.0499 15.4833 82.8259 16.2047 82.8259 17.0368V25.0736C82.8259 25.8281 82.596 26.4514 82.1352 26.9464C81.6746 27.4399 81.0741 27.6871 80.3326 27.6871C79.6159 27.6871 79.0212 27.4399 78.5481 26.9464C78.0746 26.4514 77.8388 25.8281 77.8388 25.0736V12.6285C77.8388 11.9004 78.0818 11.2764 78.5677 10.7564C79.053 10.2357 79.6421 9.97593 80.3326 9.97593C81.6109 9.97593 82.4422 10.5219 82.8259 11.6142C83.6955 10.288 85.1406 9.62476 87.161 9.62476C89.2072 9.62476 90.7422 10.3397 91.7643 11.7699C92.8646 10.9902 93.6445 10.4828 94.1051 10.249C94.9489 9.83283 95.8569 9.62476 96.829 9.62476C98.6448 9.62476 100.096 10.1649 101.183 11.2434C102.27 12.3232 102.814 13.7859 102.814 15.6323V25.0736ZM71.3251 17.0368C71.3251 16.2306 70.9798 15.5156 70.2893 14.8916C69.5986 14.267 68.8566 13.9549 68.0637 13.9549C67.2709 13.9549 66.5418 14.2736 65.8766 14.9109C65.2122 15.5481 64.88 16.2571 64.88 17.0368H71.3251ZM76.3122 18.2856C76.3122 19.1436 76.12 19.7286 75.737 20.0413C75.3532 20.3532 74.739 20.5089 73.8952 20.5089H64.88C64.88 21.4715 65.3398 22.1996 66.2604 22.6939C66.9771 23.1098 67.8591 23.3179 68.9081 23.3179C69.5733 23.3179 70.1485 23.2272 70.6346 23.045C70.6854 23.0191 71.2612 22.7588 72.361 22.2645C73.1792 21.9002 73.729 21.7179 74.0105 21.7179C74.5988 21.7179 75.0842 21.9325 75.4679 22.3618C75.8517 22.7911 76.0439 23.3179 76.0439 23.9419C76.0439 25.294 75.0334 26.3607 73.0125 27.1412C71.4527 27.7135 69.8671 27.9998 68.256 27.9998C65.6467 27.9998 63.5372 27.1411 61.9261 25.4245C60.3143 23.7081 59.5091 21.5106 59.5091 18.8315C59.5091 16.3087 60.3462 14.1436 62.0212 12.3365C63.6968 10.5284 65.7751 9.62476 68.256 9.62476C70.5576 9.62476 72.4756 10.4762 74.0105 12.1801C75.5447 13.8833 76.3122 15.9185 76.3122 18.2856ZM47.2637 22.3427C47.2637 24.085 46.6114 25.4895 45.3065 26.5562C44.0791 27.5181 42.5957 27.9998 40.8568 27.9998C39.3987 27.9998 38.043 27.7652 36.7902 27.2974C35.0761 26.6728 34.2194 25.7366 34.2194 24.4886C34.2194 23.8386 34.3985 23.2662 34.7569 22.7714C35.1147 22.2777 35.6005 22.0307 36.2142 22.0307C36.8026 22.0307 37.602 22.2837 38.6124 22.7911C39.6222 23.298 40.3962 23.5524 40.933 23.5524C41.9565 23.5524 42.468 23.2138 42.468 22.5374C42.468 22.1996 42.3591 21.9393 42.1415 21.7571C41.924 21.5755 41.3552 21.3019 40.4346 20.9382C38.6443 20.2095 37.5446 19.7286 37.1356 19.4946C35.8567 18.7665 35.0761 17.9079 34.7946 16.9196C34.693 16.4777 34.6415 15.9834 34.6415 15.4375C34.6415 13.7211 35.3062 12.3032 36.6364 11.1849C37.89 10.1449 39.3858 9.62476 41.1245 9.62476C42.4041 9.62476 43.6062 9.9104 44.7312 10.4828C46.1384 11.1592 46.8415 12.0826 46.8415 13.2533C46.8415 13.8768 46.6493 14.3968 46.2662 14.8127C45.8825 15.2295 45.3833 15.4375 44.7696 15.4375C44.4882 15.4375 43.881 15.2229 42.9475 14.7936C42.0139 14.365 41.2913 14.1504 40.7794 14.1504C39.9103 14.1504 39.4756 14.514 39.4756 15.2428C39.4756 15.7106 40.1531 16.2047 41.509 16.7248C43.3761 17.4529 44.6289 18.0379 45.2681 18.4803C46.5985 19.4689 47.2637 20.756 47.2637 22.3427ZM56.4248 24.9562C56.4248 26.7774 55.5297 27.6871 53.7395 27.6871C53.0996 27.6871 52.5563 27.4208 52.1088 26.8874C51.6611 26.3547 51.4377 25.7492 51.4377 25.0736V14.5365H49.7106C48.4441 14.5365 47.4088 13.4845 47.4088 12.1966V12.196C47.4088 10.9081 48.4441 9.85537 49.7106 9.85537H58.1519C59.4184 9.85537 60.4537 10.9081 60.4537 12.196V12.1966C60.4537 13.4845 59.4184 14.5365 58.1519 14.5365H56.4248V24.9562Z" fill="white"/>
</svg>
