<svg width="50" height="50" viewBox="0 0 50 50" fill="none" xmlns="http://www.w3.org/2000/svg">
<circle opacity="0.2" cx="25" cy="25" r="25" fill="#1F55A6"/>
<g clip-path="url(#clip0_1514_13033)">
<path d="M34.4961 13.8887H27.1914C26.3622 13.8887 25.6875 14.5633 25.6875 15.3926V22.6973C25.6875 23.5265 26.3622 24.2012 27.1914 24.2012H34.4961C35.3253 24.2012 36 23.5265 36 22.6973V15.3926C36 14.5633 35.3253 13.8887 34.4961 13.8887ZM32.9922 19.6895H28.6953C28.3394 19.6895 28.0508 19.4009 28.0508 19.0449C28.0508 18.689 28.3394 18.4004 28.6953 18.4004H32.9922C33.3481 18.4004 33.6367 18.689 33.6367 19.0449C33.6367 19.4009 33.3481 19.6895 32.9922 19.6895Z" fill="#1F55A6"/>
<path d="M34.4961 25.5762H27.1914C26.3622 25.5762 25.6875 26.2508 25.6875 27.0801V34.3848C25.6875 35.214 26.3622 35.8887 27.1914 35.8887H34.4961C35.3253 35.8887 36 35.214 36 34.3848V27.0801C36 26.2508 35.3253 25.5762 34.4961 25.5762ZM32.9922 32.4512H28.6953C28.3394 32.4512 28.0508 32.1626 28.0508 31.8066C28.0508 31.4507 28.3394 31.1621 28.6953 31.1621H32.9922C33.3481 31.1621 33.6367 31.4507 33.6367 31.8066C33.6367 32.1626 33.3481 32.4512 32.9922 32.4512ZM32.9922 29.873H28.6953C28.3394 29.873 28.0508 29.5845 28.0508 29.2285C28.0508 28.8726 28.3394 28.584 28.6953 28.584H32.9922C33.3481 28.584 33.6367 28.8726 33.6367 29.2285C33.6367 29.5845 33.3481 29.873 32.9922 29.873Z" fill="#1F55A6"/>
<path d="M22.8086 13.8887H15.5039C14.6747 13.8887 14 14.5633 14 15.3926V22.6973C14 23.5265 14.6747 24.2012 15.5039 24.2012H22.8086C23.6378 24.2012 24.3125 23.5265 24.3125 22.6973V15.3926C24.3125 14.5633 23.6378 13.8887 22.8086 13.8887ZM21.3047 19.6639H19.8263V21.1934C19.8263 21.5493 19.5377 21.8379 19.1818 21.8379C18.8258 21.8379 18.5372 21.5493 18.5372 21.1934V19.6639H17.0078C16.6519 19.6639 16.3633 19.3753 16.3633 19.0194C16.3633 18.6634 16.6519 18.3748 17.0078 18.3748H18.5372V16.8965C18.5372 16.5405 18.8258 16.252 19.1818 16.252C19.5377 16.252 19.8263 16.5405 19.8263 16.8965V18.3748H21.3047C21.6606 18.3748 21.9492 18.6634 21.9492 19.0194C21.9492 19.3753 21.6606 19.6639 21.3047 19.6639Z" fill="#1F55A6"/>
<path d="M22.8086 25.5762H15.5039C14.6747 25.5762 14 26.2508 14 27.0801V34.3848C14 35.214 14.6747 35.8887 15.5039 35.8887H22.8086C23.6378 35.8887 24.3125 35.214 24.3125 34.3848V27.0801C24.3125 26.2508 23.6378 25.5762 22.8086 25.5762ZM21.7604 32.3996C22.0121 32.6512 22.0121 33.0594 21.7604 33.3111C21.6346 33.4369 21.4696 33.4999 21.3047 33.4999C21.1398 33.4999 20.9748 33.4369 20.849 33.3111L19.1818 31.6439L17.4636 33.3622C17.3377 33.488 17.1728 33.551 17.0079 33.551C16.8429 33.551 16.6779 33.488 16.5521 33.3622C16.3004 33.1105 16.3004 32.7024 16.5521 32.4507L18.2703 30.7324L16.5521 29.0142C16.3004 28.7625 16.3004 28.3544 16.5521 28.1027C16.8038 27.851 17.2119 27.851 17.4636 28.1027L19.1818 29.8209L20.849 28.1538C21.1006 27.9021 21.5087 27.9021 21.7605 28.1538C22.0122 28.4054 22.0122 28.8136 21.7605 29.0653L20.0933 30.7324L21.7604 32.3996Z" fill="#1F55A6"/>
</g>
<defs>
<clipPath id="clip0_1514_13033">
<rect width="22" height="22" fill="white" transform="translate(14 13.8887)"/>
</clipPath>
</defs>
</svg>
