<svg width="20" height="20" viewBox="0 0 20 20" fill="none" xmlns="http://www.w3.org/2000/svg">
<path d="M18.5021 3.44824H1.49785C0.670586 3.44824 0 4.11883 0 4.94609V15.0539C0 15.8811 0.670586 16.5518 1.49785 16.5518H18.5021C19.3294 16.5518 20 15.8812 20 15.0539V4.94609C20 4.11883 19.3294 3.44824 18.5021 3.44824Z" fill="#3FC0DE"/>
<path d="M2.32485 5.01746C2.29364 4.88535 2.28587 4.8366 2.34517 4.77734C2.37407 4.74844 2.37407 4.7016 2.34517 4.67269C2.31626 4.64379 2.26942 4.64379 2.24052 4.67269C2.12052 4.79273 2.14915 4.9173 2.1802 5.04918C2.0856 5.01828 1.98747 5.04121 1.93489 5.10754C1.9088 5.14062 1.85833 5.23344 1.9529 5.38164C1.97489 5.41605 2.02036 5.42617 2.05509 5.40437C2.08958 5.38238 2.09962 5.33656 2.07763 5.30219C2.04216 5.24637 2.0411 5.21195 2.05103 5.19937C2.06274 5.18449 2.09907 5.17664 2.13712 5.19012C2.16169 5.19863 2.2188 5.22812 2.2188 5.31719C2.2188 5.38832 2.18591 5.45352 2.12856 5.4959C2.0711 5.5384 1.99673 5.55039 1.92505 5.52812C1.83653 5.50109 1.7747 5.40785 1.7747 5.30133C1.7747 5.22512 1.79103 5.14809 1.82103 5.08059C1.82579 5.07062 1.93892 4.83629 1.96806 4.74894C2.02567 4.57617 1.96712 4.4893 1.92716 4.45301C1.87368 4.4043 1.79552 4.39215 1.72825 4.42164C1.71802 4.42617 1.70958 4.43273 1.70071 4.43883C1.69185 4.43269 1.68337 4.42617 1.67317 4.42164C1.60595 4.39215 1.52782 4.40426 1.47427 4.45301C1.43431 4.4893 1.37575 4.57621 1.43337 4.74894C1.46251 4.83629 1.5756 5.07062 1.57938 5.07844C1.61036 5.14812 1.62673 5.22516 1.62673 5.30137C1.62673 5.40793 1.56493 5.50113 1.47638 5.52816C1.40442 5.55039 1.33028 5.53855 1.27286 5.49594C1.21552 5.45355 1.18263 5.3884 1.18263 5.31723C1.18263 5.22816 1.23974 5.19871 1.26431 5.19016C1.30247 5.17672 1.3386 5.18449 1.3504 5.19941C1.36032 5.21199 1.35927 5.24641 1.3238 5.30223C1.30181 5.33664 1.31185 5.3825 1.34634 5.40441C1.3811 5.42641 1.42673 5.41613 1.44853 5.38168C1.5431 5.23348 1.49263 5.1407 1.46653 5.10758C1.41392 5.04125 1.31583 5.01828 1.22122 5.04922C1.25231 4.91738 1.28091 4.79273 1.16091 4.67273C1.132 4.64383 1.08517 4.64383 1.05626 4.67273C1.02735 4.70164 1.02735 4.74848 1.05626 4.77738C1.11552 4.83664 1.10782 4.88535 1.07657 5.0175C1.05778 5.09668 1.0345 5.19543 1.0345 5.31715C1.0345 5.39816 1.06294 5.47559 1.11087 5.53922H1.10849C1.06759 5.53922 1.03446 5.5723 1.03446 5.61324C1.03446 5.65418 1.06755 5.68726 1.10849 5.68726H1.11087C1.06294 5.75086 1.0345 5.82832 1.0345 5.9093C1.0345 6.03101 1.05778 6.12976 1.07649 6.20898C1.10771 6.34113 1.11548 6.38984 1.05618 6.4491C1.02728 6.47801 1.02728 6.52484 1.05618 6.55375C1.07063 6.5682 1.08958 6.57543 1.10853 6.57543C1.12743 6.57543 1.14642 6.5682 1.16087 6.55375C1.28087 6.43371 1.25224 6.3091 1.22118 6.17726C1.31579 6.20805 1.41392 6.18523 1.46649 6.11891C1.49259 6.08582 1.54306 5.99301 1.44849 5.8448C1.42657 5.81039 1.38083 5.80016 1.3463 5.82207C1.31181 5.84406 1.30177 5.88988 1.32376 5.92426C1.35923 5.98008 1.36028 6.01449 1.35036 6.02707C1.3386 6.0418 1.30243 6.04961 1.26427 6.03633C1.2397 6.02781 1.18259 5.99832 1.18259 5.90926C1.18259 5.83812 1.21548 5.77293 1.27282 5.73059C1.33028 5.68809 1.40458 5.67594 1.47634 5.69836C1.56485 5.72539 1.62669 5.81863 1.62669 5.92516C1.62669 6.00137 1.61036 6.0784 1.57935 6.14809L1.09454 7.23871C1.0547 7.32836 1.03446 7.42363 1.03446 7.52176C1.03446 7.64805 1.09188 7.76336 1.18228 7.83375C1.09192 7.90414 1.03446 8.01945 1.03446 8.14574C1.03446 8.24391 1.05474 8.33918 1.09454 8.42879L1.57927 9.51937C1.61024 9.58906 1.62661 9.66609 1.62661 9.7423C1.62661 9.84887 1.56481 9.94207 1.47626 9.9691C1.40431 9.99152 1.33017 9.97953 1.27274 9.93687C1.2154 9.89449 1.18251 9.82933 1.18251 9.7582C1.18251 9.66914 1.23962 9.63969 1.26419 9.63113C1.30235 9.61781 1.33849 9.62547 1.35028 9.64039C1.36021 9.65297 1.35915 9.68738 1.32368 9.7432C1.30169 9.77762 1.31173 9.8234 1.34622 9.84539C1.38099 9.86738 1.42661 9.85723 1.44841 9.82266C1.54298 9.67445 1.49251 9.58168 1.46642 9.54855C1.4138 9.48219 1.31571 9.45937 1.2211 9.49019C1.2522 9.35836 1.28079 9.23371 1.16079 9.11371C1.13188 9.0848 1.08505 9.0848 1.05614 9.11371C1.02724 9.14262 1.02724 9.18945 1.05614 9.21836C1.1154 9.27762 1.10771 9.32633 1.07646 9.45848C1.05774 9.53762 1.03446 9.63637 1.03446 9.75809C1.03446 9.83906 1.0629 9.91652 1.11083 9.98016H1.10845C1.06755 9.98016 1.03442 10.0132 1.03442 10.0542C1.03442 10.0951 1.06751 10.1282 1.10845 10.1282H1.11083C1.0629 10.1918 1.03446 10.2693 1.03446 10.3503C1.03446 10.472 1.05774 10.5707 1.07646 10.65C1.10767 10.7821 1.11544 10.8308 1.05614 10.8901C1.02724 10.919 1.02724 10.9658 1.05614 10.9947C1.0706 11.0092 1.08954 11.0164 1.10849 11.0164C1.12739 11.0164 1.14638 11.0092 1.16083 10.9947C1.28083 10.8747 1.2522 10.7501 1.22114 10.6182C1.31575 10.649 1.41388 10.6262 1.46646 10.5599C1.49255 10.5268 1.54302 10.434 1.44845 10.2858C1.42653 10.2514 1.38079 10.2411 1.34626 10.263C1.31177 10.285 1.30173 10.3309 1.32372 10.3652C1.35919 10.4211 1.36024 10.4555 1.35032 10.468C1.33856 10.4829 1.30239 10.4907 1.26423 10.4773C1.23966 10.4688 1.18255 10.4393 1.18255 10.3502C1.18255 10.2791 1.21544 10.2139 1.27278 10.1716C1.33024 10.1291 1.40454 10.1169 1.4763 10.1393C1.56481 10.1664 1.62665 10.2596 1.62665 10.3661C1.62665 10.4423 1.61032 10.5194 1.57931 10.5891L1.09454 11.6798C1.0547 11.7695 1.03446 11.8648 1.03446 11.9629C1.03446 12.0892 1.09188 12.2045 1.18228 12.2749C1.09192 12.3452 1.03446 12.4606 1.03446 12.5869C1.03446 12.685 1.05474 12.7803 1.09454 12.8699L1.57927 13.9605C1.61024 14.0302 1.62661 14.1072 1.62661 14.1834C1.62661 14.29 1.56481 14.3832 1.47626 14.4102C1.40431 14.4327 1.33017 14.4205 1.27274 14.378C1.2154 14.3356 1.18251 14.2705 1.18251 14.1993C1.18251 14.1103 1.23962 14.0808 1.26419 14.0723C1.30235 14.0589 1.33849 14.0666 1.35028 14.0815C1.36021 14.0941 1.35915 14.1285 1.32368 14.1843C1.30169 14.2187 1.31173 14.2646 1.34622 14.2865C1.38099 14.3085 1.42661 14.2984 1.44841 14.2638C1.54298 14.1156 1.49251 14.0228 1.46642 13.9897C1.4138 13.9232 1.31571 13.9004 1.2211 13.9313C1.2522 13.7995 1.28079 13.6748 1.16079 13.5548C1.13188 13.5259 1.08505 13.5259 1.05614 13.5548C1.02724 13.5837 1.02724 13.6306 1.05614 13.6595C1.1154 13.7187 1.10771 13.7675 1.07646 13.8996C1.05774 13.9787 1.03446 14.0775 1.03446 14.1992C1.03446 14.3152 1.09005 14.4257 1.18298 14.4953C1.09005 14.5649 1.03446 14.6753 1.03446 14.7914C1.03446 14.9131 1.05774 15.0118 1.07646 15.0911C1.10767 15.2232 1.11544 15.2719 1.05614 15.3312C1.02724 15.3601 1.02724 15.407 1.05614 15.4358C1.0706 15.4503 1.08954 15.4575 1.10849 15.4575C1.12739 15.4575 1.14638 15.4503 1.16083 15.4358C1.28083 15.3158 1.2522 15.1912 1.22114 15.0593C1.31575 15.0901 1.41388 15.0673 1.46646 15.0009C1.49255 14.9678 1.54302 14.875 1.44845 14.7268C1.42653 14.6924 1.38079 14.6823 1.34626 14.7041C1.31177 14.7261 1.30173 14.7719 1.32372 14.8063C1.35919 14.8621 1.36024 14.8965 1.35032 14.9091C1.33856 14.924 1.30239 14.9316 1.26423 14.9184C1.23966 14.9098 1.18255 14.8804 1.18255 14.7913C1.18255 14.7202 1.21544 14.655 1.27278 14.6126C1.33024 14.5701 1.40454 14.5581 1.4763 14.5803C1.56481 14.6074 1.62665 14.7006 1.62665 14.8071C1.62665 14.8834 1.61032 14.9604 1.58032 15.0279C1.57556 15.0378 1.46243 15.2722 1.43329 15.3595C1.37567 15.5323 1.43423 15.6192 1.47419 15.6555C1.50837 15.6866 1.55239 15.7029 1.59739 15.7029C1.6229 15.7029 1.64876 15.6975 1.67313 15.6869C1.68337 15.6823 1.69181 15.6758 1.70067 15.6697C1.70954 15.6758 1.71802 15.6823 1.72821 15.6869C1.75255 15.6976 1.77849 15.7029 1.80396 15.7029C1.84884 15.7029 1.89294 15.6866 1.92716 15.6555C1.96712 15.6192 2.02567 15.5323 1.96806 15.3595C1.93892 15.2722 1.82583 15.0379 1.82204 15.03C1.79106 14.9604 1.7747 14.8833 1.7747 14.8071C1.7747 14.7005 1.83649 14.6073 1.92505 14.5803C1.99704 14.558 2.07114 14.57 2.12856 14.6125C2.18591 14.6549 2.2188 14.7201 2.2188 14.7912C2.2188 14.8803 2.16169 14.9098 2.13712 14.9183C2.09911 14.9316 2.06271 14.924 2.05103 14.9091C2.0411 14.8965 2.04216 14.8621 2.07763 14.8062C2.09962 14.7718 2.08958 14.7261 2.05509 14.7041C2.02052 14.6824 1.97493 14.6925 1.9529 14.7268C1.85833 14.875 1.9088 14.9678 1.93489 15.0009C1.98751 15.0672 2.0856 15.0901 2.1802 15.0593C2.14911 15.1911 2.12052 15.3157 2.24052 15.4358C2.25497 15.4502 2.27392 15.4575 2.29286 15.4575C2.31181 15.4575 2.33075 15.4502 2.34521 15.4358C2.37411 15.4069 2.37411 15.36 2.34521 15.3311C2.28595 15.2719 2.29364 15.2232 2.32489 15.091C2.3436 15.0118 2.36688 14.913 2.36688 14.7913C2.36688 14.6753 2.3113 14.5648 2.21841 14.4952C2.3113 14.4256 2.36688 14.3152 2.36688 14.1991C2.36688 14.0774 2.3436 13.9787 2.32489 13.8995C2.29368 13.7673 2.28591 13.7186 2.34521 13.6593C2.37411 13.6304 2.37411 13.5836 2.34521 13.5547C2.3163 13.5258 2.26946 13.5258 2.24056 13.5547C2.12056 13.6747 2.14919 13.7993 2.18024 13.9312C2.08563 13.9003 1.98751 13.923 1.93493 13.9895C1.90884 14.0226 1.85837 14.1154 1.95294 14.2636C1.97493 14.298 2.0204 14.3082 2.05513 14.2864C2.08962 14.2644 2.09966 14.2186 2.07767 14.1842C2.0422 14.1284 2.04114 14.0939 2.05106 14.0814C2.06278 14.0665 2.09911 14.0588 2.13716 14.0721C2.16173 14.0806 2.21884 14.1101 2.21884 14.1992C2.21884 14.2703 2.18595 14.3355 2.1286 14.3779C2.07114 14.4204 1.99677 14.4325 1.92509 14.4101C1.83657 14.383 1.77474 14.2898 1.77474 14.1833C1.77474 14.1071 1.79106 14.03 1.82208 13.9604L2.30681 12.8698C2.34665 12.7802 2.36688 12.6848 2.36688 12.5867C2.36688 12.4604 2.30946 12.3451 2.21907 12.2747C2.30946 12.2043 2.36688 12.089 2.36688 11.9627C2.36688 11.8646 2.34661 11.7693 2.30681 11.6797L1.82208 10.5891C1.7911 10.5194 1.77474 10.4424 1.77474 10.3662C1.77474 10.2596 1.83653 10.1664 1.92509 10.1394C1.99708 10.1171 2.07118 10.1291 2.1286 10.1716C2.18595 10.214 2.21884 10.2791 2.21884 10.3503C2.21884 10.4393 2.16173 10.4688 2.13716 10.4773C2.09915 10.4908 2.06274 10.483 2.05106 10.4681C2.04114 10.4555 2.0422 10.4211 2.07767 10.3653C2.09966 10.3309 2.08962 10.285 2.05513 10.2631C2.02056 10.2414 1.97497 10.2515 1.95294 10.2858C1.85837 10.434 1.90884 10.5268 1.93493 10.5599C1.98755 10.6262 2.08563 10.6491 2.18024 10.6183C2.14915 10.7501 2.12056 10.8748 2.24056 10.9948C2.25501 11.0092 2.27396 11.0164 2.2929 11.0164C2.31185 11.0164 2.33079 11.0092 2.34524 10.9948C2.37415 10.9659 2.37415 10.919 2.34524 10.8901C2.28599 10.8309 2.29368 10.7821 2.32493 10.65C2.34364 10.5708 2.36692 10.472 2.36692 10.3503C2.36692 10.2693 2.33849 10.1919 2.29056 10.1282H2.29294C2.33384 10.1282 2.36696 10.0952 2.36696 10.0542C2.36696 10.0133 2.33388 9.98019 2.29294 9.98019H2.29056C2.33849 9.91656 2.36692 9.83918 2.36692 9.75812C2.36692 9.63641 2.34364 9.53766 2.32493 9.45844C2.29372 9.32629 2.28595 9.27758 2.34524 9.21832C2.37415 9.18941 2.37415 9.14258 2.34524 9.11367C2.31634 9.08476 2.2695 9.08476 2.2406 9.11367C2.1206 9.23371 2.14923 9.35832 2.18028 9.49016C2.08567 9.45937 1.98755 9.48219 1.93497 9.54851C1.90888 9.5816 1.85841 9.67441 1.95298 9.82262C1.97497 9.85703 2.02044 9.86703 2.05517 9.84535C2.08966 9.82336 2.0997 9.77754 2.07771 9.74316C2.04224 9.68734 2.04118 9.65293 2.0511 9.64035C2.06282 9.62547 2.09915 9.61781 2.1372 9.63109C2.16177 9.63961 2.21888 9.6691 2.21888 9.75816C2.21888 9.8293 2.18599 9.89449 2.12864 9.93683C2.07118 9.97933 1.99681 9.99133 1.92513 9.96906C1.83661 9.94203 1.77478 9.84879 1.77478 9.74226C1.77478 9.66605 1.7911 9.58902 1.82212 9.51934L2.30685 8.42875C2.34669 8.33914 2.36692 8.24383 2.36692 8.1457C2.36692 8.01941 2.3095 7.9041 2.21911 7.83371C2.3095 7.76336 2.36692 7.64801 2.36692 7.52172C2.36692 7.42355 2.34665 7.32828 2.30685 7.23867L1.82212 6.14809C1.79114 6.0784 1.77478 6.00137 1.77478 5.92516C1.77478 5.81859 1.83657 5.72539 1.92513 5.69836C1.99712 5.67613 2.07122 5.68809 2.12864 5.73059C2.18599 5.77297 2.21888 5.83812 2.21888 5.90926C2.21888 5.99832 2.16177 6.02777 2.1372 6.03633C2.09919 6.04965 2.06278 6.04184 2.0511 6.02707C2.04118 6.01449 2.04224 5.98008 2.07771 5.92426C2.0997 5.88984 2.08966 5.84402 2.05517 5.82207C2.0206 5.80039 1.97501 5.81035 1.95298 5.84477C1.85841 5.99297 1.90888 6.08574 1.93497 6.11887C1.98759 6.18519 2.08567 6.20805 2.18028 6.17723C2.14919 6.30906 2.1206 6.43371 2.2406 6.55371C2.25505 6.56816 2.27399 6.57539 2.29294 6.57539C2.31185 6.57539 2.33083 6.56816 2.34528 6.55371C2.37419 6.5248 2.37419 6.47797 2.34528 6.44906C2.28603 6.3898 2.29372 6.34109 2.32497 6.20894C2.34368 6.12973 2.36696 6.03098 2.36696 5.90926C2.36696 5.82824 2.33853 5.75082 2.2906 5.68719H2.29298C2.33388 5.68719 2.367 5.6541 2.367 5.61316C2.367 5.57223 2.33392 5.53914 2.29298 5.53914H2.2906C2.33853 5.47551 2.36696 5.39812 2.36696 5.31707C2.36681 5.19543 2.34353 5.09668 2.32485 5.01746ZM1.57368 4.70199C1.54739 4.62309 1.55657 4.57812 1.57392 4.56234C1.58524 4.55164 1.60243 4.55207 1.61333 4.55699C1.62669 4.56289 1.62669 4.5723 1.62669 4.57695C1.62669 4.61785 1.65978 4.65098 1.70071 4.65098C1.74161 4.65098 1.77474 4.61789 1.77474 4.57695C1.77474 4.57234 1.77474 4.56293 1.7881 4.55699C1.7988 4.55207 1.81587 4.55164 1.82751 4.56234C1.84489 4.57812 1.85407 4.62309 1.82774 4.70199C1.8086 4.75922 1.73935 4.9082 1.70075 4.98906C1.66294 4.91008 1.59294 4.75961 1.57368 4.70199ZM1.70067 7.75613C1.72192 7.785 1.74595 7.81187 1.77517 7.83375C1.74595 7.85566 1.72192 7.8825 1.70067 7.91137C1.67942 7.8825 1.6554 7.85562 1.62618 7.83375C1.6554 7.8118 1.67942 7.785 1.70067 7.75613ZM1.70067 12.1971C1.72192 12.226 1.74595 12.2529 1.77517 12.2748C1.74595 12.2967 1.72192 12.3235 1.70067 12.3524C1.67942 12.3235 1.6554 12.2966 1.62618 12.2748C1.6554 12.2529 1.67942 12.2261 1.70067 12.1971ZM1.82767 15.4066C1.85395 15.4855 1.84478 15.5305 1.82743 15.5462C1.81579 15.5568 1.79872 15.5564 1.78802 15.5516C1.77466 15.5457 1.77466 15.5363 1.77466 15.5316C1.77466 15.4907 1.74157 15.4576 1.70063 15.4576C1.6597 15.4576 1.62661 15.4907 1.62661 15.5316C1.62661 15.5362 1.62661 15.5457 1.61325 15.5516C1.60239 15.5564 1.58521 15.5568 1.57384 15.5462C1.55646 15.5305 1.54731 15.4855 1.5736 15.4066C1.59274 15.3494 1.662 15.2004 1.7006 15.1195C1.73837 15.1985 1.80837 15.3489 1.82767 15.4066ZM1.77446 14.4953C1.74646 14.5171 1.72161 14.5432 1.70067 14.5727C1.67978 14.5432 1.65489 14.5172 1.62688 14.4953C1.65489 14.4736 1.67974 14.4475 1.70067 14.418C1.72157 14.4475 1.74638 14.4736 1.77446 14.4953ZM2.17142 12.8097L1.70063 13.8689L1.22985 12.8097C1.19888 12.74 1.18251 12.663 1.18251 12.5868C1.18251 12.4802 1.24431 12.387 1.33286 12.36C1.40478 12.3377 1.47903 12.3497 1.53638 12.3922C1.59372 12.4346 1.62661 12.4997 1.62661 12.5709C1.62661 12.66 1.5695 12.6894 1.54493 12.698C1.50677 12.7113 1.47048 12.7036 1.45884 12.6887C1.44892 12.6761 1.44997 12.6417 1.48544 12.5859C1.50743 12.5515 1.49739 12.5057 1.4629 12.4837C1.42833 12.462 1.38274 12.4721 1.36071 12.5064C1.26618 12.6546 1.31661 12.7474 1.34271 12.7805C1.3963 12.8482 1.49712 12.8715 1.59353 12.8378C1.6045 12.8339 1.61563 12.8293 1.62661 12.8236V13.0108L1.62649 13.0107C1.62427 12.9717 1.592 12.941 1.55263 12.941C1.51173 12.941 1.4786 12.9741 1.4786 13.015C1.4786 13.0633 1.51235 13.147 1.62665 13.173V13.3111C1.62665 13.352 1.65974 13.3851 1.70067 13.3851C1.74157 13.3851 1.7747 13.352 1.7747 13.3111V13.173C1.88895 13.147 1.92274 13.0633 1.92274 13.015C1.92274 12.9741 1.88974 12.9386 1.84888 12.9386C1.80798 12.9386 1.77501 12.9692 1.77501 13.0101C1.77497 13.0102 1.77474 13.0104 1.7747 13.0105V12.8237C1.78567 12.8293 1.79681 12.834 1.80778 12.8378C1.90419 12.8715 2.00497 12.8482 2.0586 12.7806C2.0847 12.7475 2.13517 12.6547 2.0406 12.5065C2.0186 12.4721 1.97294 12.462 1.93841 12.4838C1.90392 12.5058 1.89388 12.5516 1.91587 12.586C1.95134 12.6418 1.95239 12.6762 1.94247 12.6888C1.93075 12.7037 1.8945 12.7113 1.85638 12.698C1.83181 12.6895 1.7747 12.66 1.7747 12.571C1.7747 12.4998 1.80759 12.4346 1.86493 12.3923C1.92239 12.3498 1.99677 12.3376 2.06845 12.36C2.15696 12.3871 2.2188 12.4803 2.2188 12.5868C2.2188 12.663 2.20247 12.7401 2.17142 12.8097ZM2.17142 11.7399C2.20239 11.8096 2.21876 11.8866 2.21876 11.9629C2.21876 12.0694 2.15696 12.1626 2.06841 12.1896C1.99657 12.2121 1.92224 12.1999 1.86489 12.1574C1.80755 12.115 1.77466 12.0499 1.77466 11.9787C1.77466 11.8897 1.83177 11.8602 1.85634 11.8517C1.89442 11.8384 1.93075 11.846 1.94243 11.8609C1.95235 11.8735 1.9513 11.9079 1.91583 11.9637C1.89384 11.9982 1.90388 12.0439 1.93837 12.0659C1.97313 12.0879 2.01876 12.0778 2.04056 12.0432C2.13513 11.895 2.08466 11.8022 2.05856 11.7691C2.00493 11.7014 1.90415 11.6784 1.80774 11.7119C1.79677 11.7157 1.78563 11.7204 1.77466 11.726V11.5387L1.77478 11.539C1.777 11.5779 1.80927 11.6087 1.84864 11.6087C1.88954 11.6087 1.92267 11.5756 1.92267 11.5346C1.92267 11.4864 1.88892 11.4026 1.77462 11.3767V11.2386C1.77462 11.1977 1.74153 11.1646 1.7006 11.1646C1.6597 11.1646 1.62657 11.1977 1.62657 11.2386V11.3767C1.51231 11.4026 1.47853 11.4864 1.47853 11.5346C1.47853 11.5755 1.51153 11.6111 1.55239 11.6111C1.59329 11.6111 1.62626 11.5804 1.62626 11.5395C1.6263 11.5394 1.62653 11.5392 1.62653 11.5392L1.62657 11.7259C1.6156 11.7204 1.60446 11.7156 1.59349 11.7118C1.49708 11.6784 1.39626 11.7014 1.34267 11.7691C1.31657 11.8021 1.2661 11.895 1.36067 12.0432C1.38267 12.0776 1.42833 12.0876 1.46286 12.0659C1.49735 12.0439 1.50739 11.9981 1.4854 11.9637C1.44993 11.9079 1.44888 11.8735 1.4588 11.8609C1.47044 11.846 1.50673 11.8384 1.54489 11.8516C1.56946 11.8602 1.62657 11.8896 1.62657 11.9787C1.62657 12.0498 1.59368 12.115 1.53634 12.1574C1.47888 12.1999 1.40466 12.212 1.33282 12.1896C1.24431 12.1626 1.18247 12.0693 1.18247 11.9628C1.18247 11.8866 1.1988 11.8096 1.22981 11.7399L1.7006 10.6807L2.17142 11.7399ZM1.77446 10.0543C1.74646 10.0761 1.72161 10.1022 1.70067 10.1317C1.67978 10.1022 1.65489 10.0761 1.62688 10.0543C1.65489 10.0325 1.67974 10.0064 1.70067 9.97691C1.72157 10.0064 1.74638 10.0325 1.77446 10.0543ZM2.17142 8.36867L1.70063 9.42789L1.22985 8.36867C1.19888 8.29898 1.18251 8.22195 1.18251 8.14574C1.18251 8.03918 1.24431 7.94598 1.33286 7.91894C1.40478 7.89668 1.47903 7.90867 1.53638 7.95117C1.59372 7.99355 1.62661 8.05871 1.62661 8.12988C1.62661 8.21894 1.5695 8.2484 1.54493 8.25695C1.50677 8.27039 1.47048 8.26262 1.45884 8.24769C1.44892 8.23512 1.44997 8.2007 1.48544 8.14488C1.50743 8.11047 1.49739 8.06469 1.4629 8.04269C1.42833 8.02086 1.38274 8.03098 1.36071 8.06535C1.26618 8.21355 1.31661 8.30633 1.34271 8.33945C1.3963 8.40711 1.49712 8.43023 1.59353 8.39668C1.6045 8.39285 1.61563 8.38816 1.62661 8.38258V8.56977L1.62649 8.56953C1.62427 8.53066 1.592 8.49984 1.55263 8.49984C1.51173 8.49984 1.4786 8.53293 1.4786 8.57387C1.4786 8.62215 1.51235 8.7059 1.62665 8.73184V8.86992C1.62665 8.91082 1.65974 8.94394 1.70067 8.94394C1.74157 8.94394 1.7747 8.91086 1.7747 8.86992V8.73184C1.88895 8.7059 1.92274 8.62215 1.92274 8.57387C1.92274 8.53297 1.88974 8.49738 1.84888 8.49738C1.80798 8.49738 1.77501 8.52805 1.77501 8.56894C1.77497 8.56906 1.77474 8.56926 1.77474 8.56926L1.7747 8.38254C1.78567 8.38812 1.79681 8.39285 1.80778 8.39664C1.90419 8.43016 2.00497 8.40707 2.0586 8.33941C2.0847 8.30633 2.13517 8.21351 2.0406 8.06531C2.0186 8.03074 1.97294 8.02066 1.93841 8.04266C1.90392 8.06465 1.89388 8.11047 1.91587 8.14484C1.95134 8.20066 1.95239 8.23508 1.94247 8.24766C1.93075 8.26254 1.8945 8.27039 1.85638 8.25691C1.83181 8.2484 1.7747 8.21891 1.7747 8.12984C1.7747 8.05871 1.80759 7.99351 1.86493 7.95113C1.92239 7.90863 1.99677 7.89664 2.06845 7.91891C2.15696 7.94594 2.2188 8.03918 2.2188 8.1457C2.2188 8.22191 2.20247 8.29894 2.17142 8.36867ZM2.17142 7.29883C2.20239 7.36852 2.21876 7.44555 2.21876 7.52176C2.21876 7.62832 2.15696 7.72152 2.06841 7.74855C1.99657 7.77098 1.92224 7.75883 1.86489 7.71633C1.80755 7.67394 1.77466 7.60879 1.77466 7.53762C1.77466 7.44855 1.83177 7.4191 1.85634 7.41055C1.89442 7.39723 1.93075 7.40488 1.94243 7.4198C1.95235 7.43238 1.9513 7.4668 1.91583 7.52262C1.89384 7.55703 1.90388 7.60285 1.93837 7.6248C1.97313 7.64664 2.01876 7.63664 2.04056 7.60211C2.13513 7.45391 2.08466 7.36113 2.05856 7.32801C2.00493 7.26035 1.90415 7.23723 1.80774 7.27078C1.79677 7.27457 1.78563 7.2793 1.77466 7.28488V7.09769L1.77478 7.09781C1.777 7.1368 1.80927 7.16754 1.84864 7.16754C1.88954 7.16754 1.92267 7.13445 1.92267 7.09351C1.92267 7.04523 1.88892 6.96148 1.77462 6.93555V6.79746C1.77462 6.75656 1.74153 6.72344 1.7006 6.72344C1.6597 6.72344 1.62657 6.75652 1.62657 6.79746V6.93555C1.51231 6.96148 1.47853 7.04523 1.47853 7.09351C1.47853 7.13441 1.51153 7.17 1.55239 7.17C1.59329 7.17 1.62626 7.13934 1.62626 7.09844C1.6263 7.09832 1.62653 7.09812 1.62657 7.09801V7.28484C1.6156 7.27926 1.60446 7.27453 1.59349 7.27074C1.49708 7.23723 1.39626 7.26031 1.34267 7.32797C1.31657 7.36105 1.2661 7.45387 1.36067 7.60207C1.38267 7.63648 1.42833 7.64648 1.46286 7.62476C1.49735 7.60277 1.50739 7.55695 1.4854 7.52258C1.44993 7.46676 1.44888 7.43234 1.4588 7.41976C1.47044 7.40488 1.50673 7.39723 1.54489 7.41051C1.56946 7.41902 1.62657 7.44852 1.62657 7.53758C1.62657 7.60871 1.59368 7.67391 1.53634 7.71629C1.47888 7.75879 1.40466 7.77094 1.33282 7.74851C1.24431 7.72148 1.18247 7.62824 1.18247 7.52172C1.18247 7.44551 1.1988 7.36848 1.22981 7.29879L1.7006 6.23957L2.17142 7.29883ZM1.62685 5.61324C1.65485 5.59144 1.6797 5.56535 1.70063 5.53586C1.72153 5.56535 1.74638 5.59141 1.77442 5.61324C1.74642 5.63504 1.72157 5.66113 1.70063 5.69062C1.67974 5.66105 1.65493 5.63496 1.62685 5.61324Z" fill="#FFE15A"/>
<path d="M10.5758 10.9623C11.5597 10.9623 12.3573 10.1647 12.3573 9.18082C12.3573 8.19693 11.5597 7.39934 10.5758 7.39934C9.59191 7.39934 8.79431 8.19693 8.79431 9.18082C8.79431 10.1647 9.59191 10.9623 10.5758 10.9623Z" fill="#FFE15A"/>
<path d="M10.7096 6.90945C10.7096 6.98324 10.6498 7.04308 10.576 7.04308C10.5022 7.04308 10.4424 6.98324 10.4424 6.90945C10.4424 6.83566 10.576 6.50859 10.576 6.50859C10.576 6.50859 10.7096 6.83566 10.7096 6.90945Z" fill="#FFE15A"/>
<path d="M10.4424 11.4525C10.4424 11.3787 10.5022 11.3189 10.576 11.3189C10.6498 11.3189 10.7096 11.3787 10.7096 11.4525C10.7096 11.5263 10.576 11.8534 10.576 11.8534C10.576 11.8534 10.4424 11.5264 10.4424 11.4525Z" fill="#FFE15A"/>
<path d="M12.8476 9.31461C12.7738 9.31461 12.714 9.25477 12.714 9.18098C12.714 9.10719 12.7738 9.04734 12.8476 9.04734C12.9214 9.04734 13.2485 9.18098 13.2485 9.18098C13.2485 9.18098 12.9214 9.31461 12.8476 9.31461Z" fill="#FFE15A"/>
<path d="M8.30455 9.04738C8.37834 9.04738 8.43818 9.10723 8.43818 9.18101C8.43818 9.2548 8.37834 9.31465 8.30455 9.31465C8.23076 9.31465 7.90369 9.18101 7.90369 9.18101C7.90369 9.18101 8.23076 9.04738 8.30455 9.04738Z" fill="#FFE15A"/>
<path d="M12.2772 7.6692C12.225 7.72139 12.1404 7.72139 12.0882 7.6692C12.036 7.61701 12.036 7.5324 12.0882 7.48021C12.1404 7.42807 12.4661 7.29123 12.4661 7.29123C12.4661 7.29123 12.3294 7.61701 12.2772 7.6692Z" fill="#FFE15A"/>
<path d="M8.87571 10.6927C8.9279 10.6405 9.01247 10.6405 9.0647 10.6927C9.11692 10.7449 9.11688 10.8294 9.0647 10.8817C9.01251 10.9339 8.68677 11.0706 8.68677 11.0706C8.68677 11.0706 8.82353 10.7449 8.87571 10.6927Z" fill="#FFE15A"/>
<path d="M12.0882 10.8817C12.036 10.8295 12.036 10.7449 12.0882 10.6927C12.1404 10.6405 12.225 10.6405 12.2772 10.6927C12.3294 10.7449 12.4662 11.0706 12.4662 11.0706C12.4662 11.0706 12.1404 10.9339 12.0882 10.8817Z" fill="#FFE15A"/>
<path d="M9.06474 7.4803C9.11692 7.53248 9.11692 7.61705 9.06474 7.66928C9.01255 7.72151 8.92798 7.72147 8.87575 7.66928C8.82353 7.61709 8.68677 7.29135 8.68677 7.29135C8.68677 7.29135 9.01255 7.42815 9.06474 7.4803Z" fill="#FFE15A"/>
<path d="M9.82985 7.03126C9.8581 7.09947 9.82571 7.17759 9.75751 7.20583C9.68931 7.23408 9.61118 7.20169 9.58294 7.13349C9.5547 7.06529 9.55298 6.71201 9.55298 6.71201C9.55298 6.71201 9.80161 6.96306 9.82985 7.03126Z" fill="#FFE15A"/>
<path d="M11.322 11.3308C11.2937 11.2626 11.3261 11.1845 11.3943 11.1562C11.4625 11.128 11.5406 11.1603 11.5689 11.2286C11.5971 11.2968 11.5988 11.65 11.5988 11.65C11.5988 11.65 11.3502 11.399 11.322 11.3308Z" fill="#FFE15A"/>
<path d="M12.7258 8.43519C12.6576 8.46344 12.5795 8.43105 12.5512 8.36285C12.523 8.29465 12.5554 8.21652 12.6236 8.18828C12.6918 8.16004 13.045 8.15832 13.045 8.15832C13.045 8.15832 12.794 8.40691 12.7258 8.43519Z" fill="#FFE15A"/>
<path d="M8.42595 9.9268C8.49415 9.89856 8.57228 9.93094 8.60052 9.99914C8.62876 10.0673 8.59638 10.1455 8.52817 10.1737C8.45997 10.202 8.10669 10.2037 8.10669 10.2037C8.10669 10.2037 8.35774 9.95508 8.42595 9.9268Z" fill="#FFE15A"/>
<path d="M11.5687 7.13348C11.5405 7.20168 11.4623 7.23402 11.3942 7.20582C11.326 7.17758 11.2936 7.09941 11.3218 7.03125C11.3501 6.96305 11.5987 6.71203 11.5987 6.71203C11.5987 6.71203 11.597 7.06531 11.5687 7.13348Z" fill="#FFE15A"/>
<path d="M9.5829 11.2285C9.61114 11.1603 9.68931 11.128 9.75747 11.1562C9.82563 11.1844 9.85802 11.2626 9.82981 11.3307C9.80157 11.3989 9.55298 11.6499 9.55298 11.6499C9.55298 11.6499 9.55466 11.2966 9.5829 11.2285Z" fill="#FFE15A"/>
<path d="M12.6238 10.1737C12.5556 10.1455 12.5232 10.0673 12.5514 9.99913C12.5797 9.93093 12.6579 9.89858 12.726 9.92678C12.7942 9.95503 13.0452 10.2036 13.0452 10.2036C13.0452 10.2036 12.692 10.202 12.6238 10.1737Z" fill="#FFE15A"/>
<path d="M8.52813 8.18834C8.59634 8.21658 8.62868 8.29474 8.60048 8.36291C8.57224 8.43111 8.49407 8.46346 8.42591 8.43525C8.3577 8.40701 8.10669 8.15842 8.10669 8.15842C8.10669 8.15842 8.46001 8.16006 8.52813 8.18834Z" fill="#FFE15A"/>
<path d="M10.2644 6.92702C10.2788 6.9994 10.2318 7.06975 10.1594 7.08412C10.087 7.09854 10.0166 7.05151 10.0023 6.97912C9.98785 6.90674 10.0551 6.55991 10.0551 6.55991C10.0551 6.55991 10.25 6.85463 10.2644 6.92702Z" fill="#FFE15A"/>
<path d="M10.8886 11.4349C10.8742 11.3626 10.9212 11.2922 10.9936 11.2778C11.066 11.2634 11.1363 11.3105 11.1507 11.3828C11.1651 11.4552 11.0978 11.8021 11.0978 11.8021C11.0978 11.8021 10.903 11.5074 10.8886 11.4349Z" fill="#FFE15A"/>
<path d="M12.83 8.86891C12.7576 8.88332 12.6873 8.83633 12.6729 8.76391C12.6585 8.69152 12.7055 8.62117 12.7779 8.6068C12.8503 8.59238 13.1971 8.65965 13.1971 8.65965C13.1971 8.65965 12.9024 8.85449 12.83 8.86891Z" fill="#FFE15A"/>
<path d="M8.32243 9.49317C8.39481 9.47875 8.46517 9.52575 8.47954 9.59817C8.49396 9.67055 8.44692 9.7409 8.37454 9.75528C8.30216 9.76969 7.95532 9.70243 7.95532 9.70243C7.95532 9.70243 8.25005 9.50758 8.32243 9.49317Z" fill="#FFE15A"/>
<path d="M11.9492 7.36652C11.9082 7.42789 11.8252 7.44437 11.7639 7.40336C11.7025 7.36238 11.686 7.27938 11.727 7.21801C11.768 7.15668 12.0608 6.95895 12.0608 6.95895C12.0608 6.95895 11.9902 7.30512 11.9492 7.36652Z" fill="#FFE15A"/>
<path d="M9.20267 10.9955C9.24364 10.9342 9.32665 10.9177 9.38802 10.9587C9.44938 10.9996 9.46587 11.0827 9.42485 11.144C9.38388 11.2053 9.09106 11.4031 9.09106 11.4031C9.09106 11.4031 9.16169 11.057 9.20267 10.9955Z" fill="#FFE15A"/>
<path d="M12.3906 10.5541C12.3292 10.5131 12.3127 10.4301 12.3537 10.3687C12.3947 10.3074 12.4777 10.2909 12.5391 10.3319C12.6004 10.3729 12.7981 10.6657 12.7981 10.6657C12.7981 10.6657 12.4519 10.5951 12.3906 10.5541Z" fill="#FFE15A"/>
<path d="M8.76158 7.80789C8.82295 7.84887 8.83947 7.93187 8.79842 7.99324C8.75744 8.05461 8.67443 8.07109 8.61307 8.03008C8.5517 7.98906 8.354 7.69629 8.354 7.69629C8.354 7.69629 8.70025 7.76691 8.76158 7.80789Z" fill="#FFE15A"/>
<path d="M9.42485 7.21798C9.46583 7.27934 9.44935 7.36231 9.38802 7.40333C9.32665 7.44431 9.24368 7.42782 9.20267 7.36649C9.16169 7.30513 9.09106 6.95895 9.09106 6.95895C9.09106 6.95895 9.38388 7.15669 9.42485 7.21798Z" fill="#FFE15A"/>
<path d="M11.727 11.144C11.686 11.0826 11.7025 10.9996 11.7638 10.9586C11.8252 10.9177 11.9082 10.9341 11.9492 10.9955C11.9902 11.0568 12.0608 11.403 12.0608 11.403C12.0608 11.403 11.768 11.2054 11.727 11.144Z" fill="#FFE15A"/>
<path d="M12.5391 8.03008C12.4777 8.07106 12.3947 8.05457 12.3537 7.99324C12.3127 7.93188 12.3292 7.84891 12.3905 7.80789C12.4519 7.76691 12.7981 7.69629 12.7981 7.69629C12.7981 7.69629 12.6004 7.9891 12.5391 8.03008Z" fill="#FFE15A"/>
<path d="M8.61278 10.3319C8.67411 10.291 8.75712 10.3074 8.79814 10.3688C8.83911 10.4301 8.82263 10.5131 8.7613 10.5541C8.69993 10.5951 8.35376 10.6657 8.35376 10.6657C8.35376 10.6657 8.55142 10.373 8.61278 10.3319Z" fill="#FFE15A"/>
<path d="M11.1507 6.97921C11.1363 7.05159 11.066 7.09862 10.9936 7.08421C10.9212 7.06979 10.8742 6.99948 10.8886 6.9271C10.903 6.85472 11.0978 6.56003 11.0978 6.56003C11.0978 6.56003 11.1651 6.90679 11.1507 6.97921Z" fill="#FFE15A"/>
<path d="M10.0023 11.3828C10.0167 11.3105 10.087 11.2634 10.1594 11.2778C10.2318 11.2922 10.2788 11.3626 10.2644 11.4349C10.25 11.5073 10.0551 11.802 10.0551 11.802C10.0551 11.802 9.98788 11.4553 10.0023 11.3828Z" fill="#FFE15A"/>
<path d="M12.7779 9.75523C12.7055 9.74082 12.6585 9.67051 12.6729 9.59813C12.6873 9.52574 12.7576 9.47871 12.83 9.49313C12.9024 9.50754 13.1971 9.70238 13.1971 9.70238C13.1971 9.70238 12.8503 9.76961 12.7779 9.75523Z" fill="#FFE15A"/>
<path d="M8.37454 8.60672C8.44692 8.62114 8.49396 8.69145 8.47954 8.76383C8.46513 8.83621 8.39481 8.88325 8.32243 8.86883C8.25005 8.85442 7.95532 8.65957 7.95532 8.65957C7.95532 8.65957 8.30216 8.59235 8.37454 8.60672Z" fill="#FFE15A"/>
<path d="M14.767 9.64978C14.7149 9.62783 14.6552 9.65298 14.6335 9.70486C14.6335 9.70509 14.6335 9.70509 14.6335 9.70509C14.6331 9.70607 14.631 9.71087 14.6276 9.71908C14.5503 9.89947 14.3906 10.1631 14.2292 10.4111C14.3795 9.9274 14.5169 9.41076 14.5265 9.37443C14.5408 9.32017 14.5087 9.26447 14.4545 9.24974C14.4002 9.23517 14.3445 9.26673 14.3293 9.32076C14.2592 9.57201 14.1158 9.90267 13.9835 10.1826C14.0077 9.87048 14.0123 9.58134 14.0126 9.56041C14.0134 9.50513 13.9701 9.45943 13.9148 9.45681C13.8628 9.45841 13.8126 9.49634 13.8085 9.55158C13.6777 11.3511 11.9461 12.1561 11.7775 12.2302C11.6893 12.239 11.2784 12.2852 10.9054 12.4147C10.8631 12.4294 10.8272 12.4442 10.7913 12.4588C10.778 12.4538 10.7637 12.451 10.7486 12.4519C9.60404 12.5347 8.69138 12.0651 8.03544 11.0592C7.53986 10.2991 7.38443 9.5013 7.3829 9.49333C7.37244 9.43787 7.31931 9.40212 7.26361 9.41193C7.20814 9.42248 7.17169 9.47576 7.1822 9.53123C7.18634 9.55326 7.25455 9.9015 7.44236 10.3598C7.19107 9.96314 7.01595 9.48259 6.95431 9.23232C6.95306 9.22732 6.94986 9.22353 6.94798 9.21892C6.94513 9.21185 6.94267 9.20474 6.93841 9.19861C6.9354 9.19427 6.93146 9.19111 6.9279 9.18732C6.92232 9.18142 6.91697 9.17564 6.91013 9.17123C6.90622 9.16869 6.90185 9.16744 6.89759 9.16544C6.89005 9.16193 6.88267 9.15845 6.87427 9.15693C6.86845 9.1558 6.86251 9.15654 6.85646 9.15642C6.85033 9.15634 6.84455 9.15478 6.8383 9.15587C6.83693 9.15611 6.83587 9.15705 6.83451 9.15736C6.83318 9.15763 6.83193 9.1572 6.8306 9.15748C6.82513 9.1588 6.82095 9.16224 6.81595 9.16439C6.80958 9.16716 6.80306 9.16923 6.79747 9.1731C6.79197 9.17689 6.78787 9.18181 6.7833 9.18654C6.77873 9.19123 6.77396 9.19537 6.77037 9.2008C6.76673 9.2063 6.76478 9.21251 6.7622 9.21865C6.75974 9.22462 6.75689 9.23025 6.7556 9.23669C6.75427 9.2433 6.75486 9.25009 6.7549 9.25701C6.7549 9.26251 6.75337 9.26779 6.75435 9.27341C6.75474 9.2758 6.75552 9.27826 6.75595 9.2806V9.28099C6.75607 9.28142 6.75623 9.28201 6.75634 9.28248C6.81955 9.65486 6.97017 10.0409 7.10638 10.3352C6.89009 10.0898 6.70935 9.80701 6.64529 9.63959C6.64345 9.6347 6.63974 9.6313 6.63724 9.62693C6.63345 9.62017 6.63013 9.61326 6.62501 9.60767C6.62138 9.60369 6.61697 9.60111 6.61283 9.59779C6.60662 9.59279 6.60072 9.58775 6.59353 9.58431C6.58892 9.58212 6.58392 9.58142 6.57904 9.5799C6.5715 9.57763 6.56419 9.57513 6.55619 9.57462C6.5499 9.57419 6.54365 9.5758 6.53728 9.57662C6.53138 9.57736 6.52556 9.57662 6.5197 9.57845C6.51857 9.5788 6.51779 9.5797 6.51673 9.58009C6.51564 9.58044 6.51455 9.58021 6.51345 9.58064C6.5079 9.58275 6.50396 9.58685 6.499 9.58978C6.49318 9.59322 6.48697 9.59607 6.48201 9.60052C6.47693 9.60509 6.47341 9.61076 6.46943 9.61619C6.46564 9.6213 6.46142 9.62587 6.45861 9.63158C6.45568 9.63755 6.45458 9.64404 6.4529 9.65048C6.45122 9.65677 6.449 9.66263 6.44857 9.66923C6.4481 9.67584 6.44974 9.68244 6.4506 9.68912C6.45134 9.6949 6.45056 9.70064 6.45236 9.70634C6.56353 10.0649 6.83087 10.4916 7.04033 10.7921C6.8658 10.6576 6.73751 10.5122 6.70029 10.4683C6.69626 10.4635 6.69232 10.4587 6.6883 10.4539C6.65228 10.4106 6.58861 10.4044 6.54501 10.4397C6.50154 10.4752 6.4947 10.5392 6.52986 10.5828C6.53177 10.5852 6.53943 10.5948 6.5522 10.6097C6.70548 10.7922 6.87247 10.9624 7.02376 11.106L6.81681 11.0178C6.76962 10.9975 6.71415 11.0158 6.6883 11.0607C6.66247 11.1056 6.67412 11.1625 6.71552 11.1936C6.73564 11.2086 7.10216 11.4824 7.41943 11.6442C7.38951 11.646 7.35439 11.6438 7.31509 11.6408C7.26712 11.6361 7.21994 11.6705 7.20826 11.7192C7.19677 11.768 7.22232 11.8179 7.26873 11.8371C7.27654 11.8403 7.37322 11.8802 7.49259 11.9227C7.46474 11.934 7.44259 11.9574 7.43341 11.9877C7.41966 12.033 7.439 12.0821 7.48009 12.1056C7.4908 12.1119 7.63525 12.1947 7.81392 12.2681C7.80915 12.2754 7.80525 12.2835 7.80236 12.2922C7.78837 12.3351 7.80435 12.3822 7.84158 12.4079C7.87259 12.4293 8.56654 12.9002 9.37701 12.9002C9.43021 12.9002 9.48396 12.8982 9.53802 12.8938C9.59419 12.8894 9.63622 12.8402 9.63173 12.7839C9.62724 12.7276 9.57845 12.6851 9.52169 12.6903C9.01255 12.7318 8.52205 12.5406 8.23033 12.3945C8.26884 12.3851 8.29099 12.3766 8.2965 12.3744C8.3415 12.356 8.36744 12.3087 8.35865 12.261C8.34986 12.2133 8.30876 12.1784 8.26017 12.1774C8.14173 12.175 7.97771 12.1173 7.83642 12.0554C7.88978 12.0287 7.92095 12.0031 7.92369 12.001C7.95443 11.9752 7.9674 11.9341 7.95693 11.8954C7.94638 11.8569 7.91419 11.8279 7.87474 11.8216C7.83134 11.8144 7.77728 11.8004 7.7206 11.7833C7.77568 11.7515 7.79912 11.7166 7.8081 11.6988C7.82228 11.6705 7.82259 11.6374 7.809 11.6088C7.79533 11.5803 7.76931 11.5597 7.73833 11.5531C7.71162 11.5474 7.68134 11.5376 7.64865 11.5248C7.65462 11.5188 7.66013 11.512 7.66458 11.5043C7.6906 11.4602 7.67986 11.4035 7.63947 11.3718C7.63736 11.3702 7.55806 11.3079 7.43798 11.2043C7.45705 11.1974 7.47388 11.1844 7.48607 11.1669C7.51181 11.1297 7.50998 11.0801 7.48177 11.0449C7.47951 11.0421 7.40009 10.9422 7.29064 10.7906C7.32677 10.8186 7.36287 10.8473 7.39896 10.8705C7.41595 10.8813 7.43517 10.8867 7.45423 10.8867C7.48009 10.8867 7.5056 10.8769 7.52525 10.8579C7.53333 10.8501 7.53966 10.8411 7.54466 10.8316C7.60665 10.8978 7.67177 10.9579 7.74017 11.0092C7.74908 11.0159 7.7599 11.0158 7.7699 11.0191C7.79888 11.0677 7.82904 11.1164 7.86068 11.1651C8.48111 12.1197 9.35591 12.631 10.4051 12.6617C10.3085 12.7204 10.2036 12.781 10.0376 12.8457C10.0013 12.8598 9.96931 12.874 9.93712 12.8881C9.92158 12.8912 9.90701 12.8968 9.89478 12.9065C9.60494 13.0406 9.48494 13.1732 9.43626 13.266C9.38767 13.3581 9.42958 13.4527 9.48892 13.5018C9.50736 13.517 9.53083 13.5247 9.55439 13.5247C9.57056 13.5247 9.58673 13.5211 9.60138 13.5138C9.63751 13.4958 9.66165 13.4577 9.66005 13.4176C9.66423 13.413 9.68201 13.3983 9.73767 13.3964C9.77826 13.393 9.86369 13.4022 9.96337 13.4102C10.0582 13.418 10.172 13.4269 10.2929 13.4331C10.2172 13.5213 10.1293 13.6235 10.1293 13.6235C10.1029 13.6543 10.0971 13.6977 10.1147 13.7343C10.1323 13.771 10.1704 13.7938 10.2102 13.7923C10.291 13.7895 10.3458 13.7879 10.3818 13.7872C10.4133 13.8283 10.4518 13.8446 10.4766 13.851C10.5469 13.869 10.6169 13.8408 10.6697 13.8075C10.7096 13.8363 10.7495 13.8484 10.7811 13.853C10.8525 13.8627 10.9186 13.842 10.9663 13.8185C11.0158 13.8504 11.0643 13.8586 11.1012 13.8586C11.1017 13.8586 11.1024 13.8586 11.1029 13.8586C11.1826 13.8582 11.2524 13.8197 11.3017 13.7819C11.3454 13.8079 11.387 13.8162 11.4193 13.8177C11.4924 13.8202 11.5531 13.7921 11.5934 13.7658C11.7374 13.7947 11.8615 13.7269 11.9435 13.652C11.9809 13.6738 12.0165 13.6792 12.0449 13.6777C12.1178 13.6752 12.1733 13.6308 12.209 13.5911C12.3722 13.6109 12.4894 13.5808 12.5571 13.5004C12.594 13.4567 12.609 13.4074 12.6131 13.3625C13.066 13.3599 13.1069 13.1126 13.1102 13.0821C13.1132 13.0544 13.1048 13.0266 13.0867 13.0053C13.0688 12.984 13.0427 12.9708 13.0149 12.9692L11.8276 12.8977C11.7779 12.8942 11.7335 12.9275 11.722 12.976C11.7218 12.9768 11.7016 13.0522 11.6382 13.1125C11.553 13.1939 11.4158 13.2369 11.2665 13.2596C11.267 13.246 11.2651 13.232 11.2599 13.2185C11.2395 13.1658 11.1803 13.1402 11.1278 13.16C10.8827 13.2551 10.4858 13.2431 10.1753 13.2215C10.2229 13.1826 10.2803 13.1441 10.3261 13.1189C10.3648 13.0976 10.3856 13.0539 10.3774 13.0104C10.3715 12.9788 10.3486 12.9568 10.3211 12.9426C10.4074 12.899 10.4782 12.8569 10.5453 12.816C10.6619 12.7446 10.772 12.6773 10.9726 12.6077C11.3597 12.4732 11.8077 12.4323 11.8122 12.4319C11.8223 12.4311 11.8323 12.4285 11.8418 12.4247C11.8577 12.4181 13.1214 11.8887 13.7168 10.6672C13.709 10.7041 13.7006 10.7379 13.6915 10.7674C13.676 10.8177 13.7011 10.8713 13.7495 10.8917C13.787 10.9074 13.8297 10.8992 13.8585 10.8725C13.8209 10.9717 13.7869 11.0497 13.7591 11.0958C13.7308 11.1427 13.7445 11.2036 13.7901 11.2339C13.8008 11.2409 13.8122 11.2456 13.824 11.2485C13.7779 11.3159 13.7311 11.3797 13.6845 11.4383C13.6535 11.4772 13.6553 11.5327 13.6877 11.5694C13.6077 11.6532 13.5368 11.7222 13.4829 11.7661C13.4477 11.7947 13.4362 11.8424 13.4524 11.8831C13.4004 11.9128 13.3577 11.9338 13.3281 11.9427C13.2784 11.9577 13.2479 12.0078 13.2573 12.0589C13.2622 12.0858 13.2773 12.1086 13.2983 12.1235C13.2358 12.1403 13.1674 12.1565 13.0932 12.1712C13.0514 12.1795 13.0192 12.2129 13.0123 12.255C13.0055 12.2971 13.0255 12.339 13.0625 12.3601C13.0657 12.3619 13.1006 12.3817 13.154 12.4044C12.9564 12.484 12.6035 12.588 12.0244 12.6451C11.9683 12.6507 11.9272 12.7008 11.9327 12.7569C11.9382 12.8129 11.9867 12.8519 12.0445 12.8486C13.1438 12.7399 13.4832 12.4647 13.4971 12.4529C13.5288 12.4263 13.5414 12.3831 13.5288 12.3436C13.5204 12.3174 13.5021 12.2963 13.4785 12.2841C13.8297 12.1735 13.9805 12.0512 13.9883 12.0446C14.0268 12.0127 14.0365 11.9574 14.0112 11.9141C13.9856 11.8708 13.9325 11.852 13.8861 11.8708C13.873 11.8758 13.8522 11.881 13.8258 11.8861C14.0615 11.7247 14.3117 11.5325 14.4217 11.4467C14.4411 11.4324 14.4587 11.4186 14.4741 11.4056C14.5169 11.3697 14.5228 11.3063 14.4876 11.2629C14.4526 11.2199 14.3888 11.2126 14.3451 11.2472C14.3292 11.2597 14.3126 11.2727 14.2954 11.2861C14.2447 11.3238 14.1797 11.3665 14.1088 11.4104C14.3763 11.1067 14.6456 10.7774 14.7226 10.6828C14.7295 10.6742 14.7364 10.6657 14.7434 10.6571C14.7787 10.6132 14.7719 10.5489 14.7279 10.5136C14.6839 10.4777 14.6196 10.4851 14.5844 10.5288L14.5841 10.529L14.584 10.5292C14.5821 10.5314 14.5735 10.5422 14.5589 10.5601C14.4783 10.6585 14.3935 10.7537 14.3098 10.8427C14.5823 10.3488 14.7886 9.86267 14.8188 9.79064C14.8199 9.78806 14.821 9.78548 14.822 9.78283C14.8438 9.73123 14.8192 9.67134 14.767 9.64978ZM9.97837 13.0938L10.0063 13.0975C9.97205 13.1295 9.94423 13.1653 9.92208 13.2024C9.87357 13.1985 9.82955 13.1951 9.79505 13.1935C9.84259 13.1624 9.90376 13.1287 9.97837 13.0938Z" fill="#FFE15A"/>
</svg>
