<svg width="36" height="36" viewBox="0 0 36 36" fill="none" xmlns="http://www.w3.org/2000/svg">
<rect width="36" height="36" rx="8" fill="white" fill-opacity="0.1"/>
<path d="M15.5007 22.1667V23C15.5007 23.663 15.764 24.2989 16.2329 24.7678C16.7017 25.2366 17.3376 25.5 18.0007 25.5C18.6637 25.5 19.2996 25.2366 19.7684 24.7678C20.2373 24.2989 20.5007 23.663 20.5007 23V22.1667M16.334 12.1667C16.334 11.7246 16.5096 11.3007 16.8221 10.9882C17.1347 10.6756 17.5586 10.5 18.0007 10.5C18.4427 10.5 18.8666 10.6756 19.1792 10.9882C19.4917 11.3007 19.6673 11.7246 19.6673 12.1667C20.6243 12.6192 21.4402 13.3236 22.0274 14.2044C22.6146 15.0852 22.951 16.1092 23.0006 17.1667V19.6667C23.0634 20.1848 23.2468 20.6809 23.5363 21.1151C23.8258 21.5493 24.2132 21.9095 24.6673 22.1667H11.334C11.7881 21.9095 12.1755 21.5493 12.465 21.1151C12.7545 20.6809 12.9379 20.1848 13.0007 19.6667V17.1667C13.0503 16.1092 13.3867 15.0852 13.9739 14.2044C14.5611 13.3236 15.377 12.6192 16.334 12.1667Z" stroke="white" stroke-linecap="round" stroke-linejoin="round"/>
<rect x="0.5" y="0.5" width="35" height="35" rx="7.5" stroke="white" stroke-opacity="0.2"/>
</svg>
