<svg width="117" height="107" viewBox="0 0 117 107" fill="none" xmlns="http://www.w3.org/2000/svg">
<path d="M11.4531 77.4102L14.8131 79.3502V83.0602L11.4531 81.1201V77.4102Z" fill="#3E85F4"/>
<path d="M14.8135 79.3501L25.2135 73.3501C26.515 72.6895 27.9539 72.3452 29.4135 72.3452C30.873 72.3452 32.312 72.6895 33.6135 73.3501V77.0701C32.312 76.4095 30.873 76.0652 29.4135 76.0652C27.9539 76.0652 26.515 76.4095 25.2135 77.0701L14.8135 83.0701V79.3501Z" fill="#1C6DF6"/>
<path d="M33.6133 73.3401L36.9733 71.4001V75.1201L33.6133 77.0602V73.3401Z" fill="#E7F0F4"/>
<path d="M11.4531 77.4301L21.8531 71.4301C24.196 70.2415 26.786 69.6221 29.4131 69.6221C32.0402 69.6221 34.6303 70.2415 36.9731 71.4301L33.6131 73.3701C32.3116 72.7095 30.8727 72.3652 29.4131 72.3652C27.9536 72.3652 26.5146 72.7095 25.2131 73.3701L14.8131 79.3701L11.4531 77.4301Z" fill="#5195FB"/>
<path d="M33.6133 73.3401C34.0904 73.5577 34.5021 73.8966 34.8074 74.323C35.1127 74.7493 35.301 75.2483 35.3533 75.7701V79.4801C35.3053 78.9582 35.1186 78.4587 34.8127 78.0332C34.5068 77.6078 34.0927 77.2718 33.6133 77.0601V73.3401Z" fill="#E84343"/>
<path d="M23.2129 84.2002L26.5729 86.1402V89.8502L23.2129 87.9102V84.2002Z" fill="#FC5552"/>
<path d="M26.5732 86.1403L36.9732 80.1403C39.0632 78.9403 40.1032 77.3603 40.1032 75.7803V79.4903C40.1032 81.0703 39.1032 82.6503 36.9732 83.8603L26.5732 89.8603V86.1403Z" fill="#E84343"/>
<path d="M23.2129 84.2001L33.6129 78.2001C34.12 78.0286 34.5606 77.7024 34.8727 77.2674C35.1847 76.8324 35.3525 76.3105 35.3525 75.7751C35.3525 75.2398 35.1847 74.7179 34.8727 74.2829C34.5606 73.8479 34.12 73.5217 33.6129 73.3502L36.9729 71.4102C39.0629 72.6102 40.1029 74.2002 40.1029 75.7802C40.1029 77.3602 39.1029 78.9401 36.9729 80.1401L26.5729 86.1401L23.2129 84.2001Z" fill="#FF6666"/>
<path d="M27.412 47.43C27.362 47.59 27.312 47.74 27.252 47.89C27.732 46.55 28.152 45.16 28.512 43.74C28.272 44.68 28.012 45.61 27.722 46.51C30.002 44.95 33.002 42.51 34.202 40.01C35.782 36.76 33.342 35.29 29.752 35.19C29.752 35.11 29.752 34.95 29.752 34.52C35.752 34.66 37.1019 38.35 32.6219 43.15C31.0612 44.7783 29.3123 46.2151 27.412 47.43Z" fill="#E84343"/>
<path d="M31.7526 56.5501C31.5495 56.7301 31.3118 56.8668 31.0542 56.952C30.7965 57.0372 30.5242 57.0691 30.2539 57.0457C29.9835 57.0223 29.7207 56.9442 29.4815 56.816C29.2423 56.6878 29.0317 56.5123 28.8626 56.3001C28.8238 56.2612 28.7902 56.2175 28.7626 56.1701C28.4576 55.7517 28.3269 55.2313 28.3977 54.7184C28.4686 54.2056 28.7356 53.7402 29.1426 53.4201C29.2219 53.3578 29.3054 53.301 29.3926 53.2501C29.53 53.5135 29.6535 53.7838 29.7626 54.0601C29.8126 54.1901 29.8726 54.3201 29.9126 54.4401C29.9652 54.4849 30.0286 54.5152 30.0965 54.5282C30.1643 54.5412 30.2344 54.5364 30.2999 54.5143C30.3654 54.4921 30.424 54.4533 30.47 54.4018C30.516 54.3502 30.5479 54.2877 30.5626 54.2201C30.4185 53.8016 30.2447 53.3939 30.0426 53.0001C30.5241 52.9091 31.0223 52.9981 31.4426 53.2501C31.7073 53.3946 31.9336 53.6003 32.1026 53.8501C32.3959 54.2612 32.5228 54.768 32.4579 55.2689C32.393 55.7697 32.141 56.2274 31.7526 56.5501Z" fill="#0B45B2"/>
<path d="M31.2426 56.0901C30.9205 56.3594 30.5237 56.5239 30.1055 56.5614C29.6873 56.5989 29.2676 56.5078 28.9026 56.3001C28.8639 56.2612 28.8302 56.2175 28.8026 56.1701C28.4977 55.7517 28.3669 55.2313 28.4378 54.7184C28.5086 54.2056 28.7756 53.7402 29.1826 53.4201C29.2626 53.6001 29.3426 53.8001 29.4026 53.9801C29.4599 54.0208 29.5252 54.049 29.5941 54.0628C29.663 54.0766 29.7341 54.0756 29.8026 54.0601C29.8526 54.1901 29.9126 54.3201 29.9526 54.4401C30.0053 54.4849 30.0686 54.5152 30.1365 54.5282C30.2044 54.5412 30.2745 54.5364 30.3399 54.5143C30.4054 54.4921 30.464 54.4533 30.51 54.4018C30.5561 54.3502 30.588 54.2877 30.6026 54.2201C30.4585 53.8016 30.2847 53.3939 30.0826 53.0001C30.5641 52.9091 31.0624 52.9981 31.4826 53.2501C31.5247 53.2923 31.5616 53.3393 31.5926 53.3901C31.8859 53.8012 32.0129 54.3081 31.948 54.8089C31.883 55.3097 31.6311 55.7674 31.2426 56.0901Z" fill="#3E85F4"/>
<path d="M29.9527 54.43C29.2127 52.28 27.0727 49.43 25.6527 47.68C22.738 44.1157 19.4899 40.8375 15.9527 37.89C14.4451 36.6239 12.8586 35.4549 11.2027 34.39C10.2027 33.79 7.83269 32.39 6.76269 32.75C6.39269 32.87 6.36267 33.27 6.40267 33.67C6.61267 35.56 8.95268 38.67 9.00268 38.81C9.0242 38.8602 9.02999 38.9157 9.01928 38.9693C9.00857 39.0229 8.98186 39.0719 8.94268 39.11C8.89048 39.1815 8.81433 39.232 8.72808 39.2522C8.64184 39.2724 8.55122 39.261 8.47268 39.22C7.4076 37.8036 6.54592 36.2452 5.91268 34.59C5.67906 34.0107 5.64736 33.3695 5.82269 32.77C6.65269 30.77 10.5327 33.1 12.3427 34.31C17.5915 38.0174 22.3028 42.4325 26.3427 47.43C28.0945 49.4657 29.5335 51.7507 30.6127 54.21C30.599 54.2794 30.5672 54.3439 30.5205 54.3969C30.4738 54.45 30.4138 54.4898 30.3467 54.5121C30.2797 54.5345 30.2078 54.5387 30.1386 54.5242C30.0694 54.5098 30.0053 54.4773 29.9527 54.43Z" fill="#FCD561"/>
<path d="M29.113 35.2001V34.5401C29.113 32.1001 28.7531 29.0701 27.4731 26.9901L27.2631 26.6601C27.2309 26.6287 27.2064 26.5902 27.1917 26.5477C27.1769 26.5051 27.1723 26.4598 27.1781 26.4151C27.1839 26.3705 27.2 26.3279 27.2252 26.2905C27.2503 26.2532 27.2839 26.2222 27.3231 26.2001C27.6331 26.0201 27.7531 26.2001 27.7531 26.2001C27.8321 26.3028 27.9055 26.4096 27.9731 26.5201C30.0731 29.8401 29.9731 35.2301 29.4231 39.1101C28.9793 42.2829 28.1913 45.3979 27.0731 48.4001L26.623 47.8201C28.1053 43.7689 28.9455 39.5108 29.113 35.2001Z" fill="#69A4FC"/>
<path d="M29.9124 56.9601C28.3724 57.3501 25.5624 55.5901 24.2324 54.7101C24.3624 54.4801 24.5424 54.1401 24.5624 54.1001C25.8723 55.0493 27.328 55.7788 28.8724 56.2601C29.1321 56.6021 29.4978 56.8483 29.9124 56.9601Z" fill="#FCD561"/>
<path d="M16.6634 37.6001C20.5993 35.8404 24.82 34.8038 29.1234 34.54C29.1234 34.76 29.1234 34.98 29.1234 35.2C25.0105 35.4372 20.9719 36.3986 17.1934 38.04L15.9434 36.9901L16.6634 37.6001Z" fill="#E84343"/>
<path d="M27.9825 26.5101C27.9149 26.3995 27.8415 26.2927 27.7625 26.1901C27.7625 26.1901 27.6425 26.0201 27.3325 26.1901C27.2933 26.2122 27.2598 26.2432 27.2346 26.2805C27.2095 26.3178 27.1933 26.3604 27.1875 26.4051C27.1817 26.4497 27.1863 26.4951 27.2011 26.5376C27.2158 26.5801 27.2403 26.6186 27.2725 26.6501L27.4825 26.9801C27.1533 27.2311 26.7694 27.4009 26.3622 27.4755C25.955 27.5502 25.5359 27.5277 25.139 27.4098C24.7421 27.292 24.3787 27.0821 24.0783 26.7972C23.7779 26.5124 23.5489 26.1606 23.4101 25.7706C23.2713 25.3805 23.2265 24.9632 23.2794 24.5526C23.3323 24.142 23.4813 23.7497 23.7145 23.4076C23.9476 23.0655 24.2583 22.7832 24.6211 22.5838C24.9839 22.3844 25.3887 22.2735 25.8025 22.2601C26.2151 22.2403 26.6264 22.3192 27.0025 22.4901C27.3626 22.6578 27.6805 22.9044 27.9324 23.2116C28.1844 23.5187 28.3641 23.8786 28.4582 24.2646C28.5523 24.6506 28.5584 25.0529 28.4761 25.4415C28.3937 25.8302 28.225 26.1954 27.9825 26.5101Z" fill="#E84343"/>
<path d="M27.2321 25.9701C27.0934 26.3231 26.8573 26.6294 26.5511 26.8533C26.245 27.0772 25.8816 27.2094 25.5031 27.2346C25.1247 27.2598 24.7469 27.1768 24.4139 26.9954C24.0808 26.814 23.8062 26.5416 23.622 26.2101C23.3961 25.8175 23.2754 25.3733 23.2716 24.9204C23.2678 24.4675 23.381 24.0213 23.6003 23.6249C23.8195 23.2286 24.1374 22.8957 24.5232 22.6583C24.9089 22.4209 25.3494 22.2872 25.802 22.2701C26.274 22.1547 26.7718 22.2151 27.2025 22.4399C27.6332 22.6648 27.9673 23.0387 28.1424 23.4919C28.3176 23.9451 28.3218 24.4465 28.1542 24.9026C27.9867 25.3586 27.6589 25.7381 27.2321 25.9701Z" fill="#FC5552"/>
<path d="M26.3526 48.5701C26.3526 48.5701 27.6426 50.2401 28.4626 51.5701C27.9326 50.7301 27.3426 49.9101 26.8026 49.1901C26.04 51.1812 25.1378 53.116 24.1026 54.98C22.1926 58.41 19.1026 62.6601 15.5726 64.3501C12.0426 66.0401 8.80258 64.7001 7.45258 59.8501C7.0076 58.1091 6.79575 56.3168 6.82257 54.5201H7.46256C7.46256 57.2301 7.90258 60.79 9.67258 62.86C11.0726 64.51 13.2326 65.0401 16.1326 63.3201C19.3726 61.4001 22.2926 57.1301 24.0426 53.7801C24.5326 52.8501 24.9826 51.9101 25.3426 51.0901C25.9026 49.8101 26.3226 48.6501 26.3526 48.5701Z" fill="#69A4FC"/>
<path d="M26.872 47.0898C26.872 47.0898 26.662 47.7198 26.632 47.8098L26.332 47.4398L26.872 47.0898Z" fill="#E84343"/>
<path d="M25.7525 47.8L26.1325 48.2701C19.8125 52.09 13.0825 54.1101 8.53247 54.4401C7.44621 54.5346 6.35278 54.5078 5.27246 54.36C5.23753 54.3058 5.21442 54.2448 5.20459 54.1811C5.19476 54.1173 5.19845 54.0522 5.21542 53.99C5.2324 53.9277 5.26226 53.8697 5.3031 53.8198C5.34394 53.7699 5.39485 53.729 5.45249 53.7C6.1144 53.7987 6.78337 53.8422 7.45249 53.83C9.21813 53.7795 10.9739 53.5483 12.6925 53.14C14.9727 52.5861 17.2088 51.8641 19.3825 50.98C21.5832 50.0826 23.7126 49.0196 25.7525 47.8Z" fill="#E84343"/>
<path d="M24.2326 44.9601C23.8526 44.5301 23.4626 44.1101 23.0626 43.6801C21.2027 41.6984 19.24 39.8158 17.1826 38.04L17.7926 38.5701C18.6507 38.505 19.5127 38.6252 20.3202 38.9226C21.1276 39.22 21.8617 39.6876 22.4725 40.2937C23.0834 40.8998 23.5567 41.6302 23.8604 42.4354C24.1641 43.2405 24.291 44.1015 24.2326 44.9601Z" fill="#1C6DF6"/>
<path d="M20.6228 51.1299C20.7528 51.2499 22.5228 52.6899 24.0428 53.7499C24.0428 53.7499 23.4328 54.8799 23.7228 54.3599C23.0128 53.8699 22.3129 53.3599 21.6429 52.8299L19.9229 51.4299L18.6729 51.9399C20.8537 51.0893 22.9722 50.0868 25.0128 48.9399C23.5874 49.7435 22.1222 50.4744 20.6228 51.1299Z" fill="#FCD561"/>
<path d="M24.1027 45.85C23.892 46.734 23.4832 47.5586 22.9072 48.2616C22.3312 48.9645 21.6031 49.5275 20.7777 49.9079C19.9524 50.2883 19.0514 50.4762 18.1428 50.4576C17.2342 50.4389 16.3417 50.214 15.5327 49.8C14.7697 49.4083 14.1035 48.8515 13.5827 48.17C12.98 47.3788 12.5834 46.4503 12.4286 45.4678C12.2738 44.4854 12.3656 43.4798 12.6959 42.5417C13.0261 41.6035 13.5844 40.7622 14.3205 40.0934C15.0565 39.4245 15.9473 38.9491 16.9127 38.71C19.018 40.5419 21.021 42.4882 22.9127 44.5399C23.3227 44.9699 23.7527 45.43 24.1027 45.85Z" fill="#1C6DF6"/>
<path d="M23.4228 24.02C23.3458 24.2394 23.2987 24.4681 23.2828 24.7C21.1528 24.92 19.0428 26.57 17.5428 28.12C15.6963 30.0837 14.1221 32.2868 12.8628 34.67L12.3428 34.32C14.1528 31.03 16.8228 27.27 19.9828 25.32C21.0089 24.6177 22.1886 24.1718 23.4228 24.02Z" fill="#69A4FC"/>
<path d="M20.102 50.6801L19.392 50.98L19.162 50.79L18.752 50.4301C19.0511 50.4011 19.3484 50.3544 19.642 50.29L20.102 50.6801Z" fill="#FCD561"/>
<path d="M11.3125 40.2499C12.8181 39.388 14.3668 38.6036 15.9525 37.8999L16.4825 38.3399C14.7689 39.0721 13.0994 39.9035 11.4825 40.8299C11.7525 40.7199 11.4925 40.1399 11.3125 40.2499Z" fill="#E84343"/>
<path d="M12.5229 35.2701C12.6029 35.3201 11.7929 36.4302 10.4329 39.9102C10.4329 39.9102 10.4329 39.9102 10.3529 39.9102C10.1903 39.8886 10.0338 39.8341 9.89294 39.7502C9.89294 39.7502 9.83292 39.7502 9.84292 39.6902C10.4775 38.058 11.202 36.4622 12.0129 34.9102L12.5229 35.2701Z" fill="#69A4FC"/>
<path d="M12.3422 44.06C11.5722 43.2 10.8622 42.36 10.2422 41.59C10.5322 41.41 10.8222 41.23 10.8422 41.23C10.8622 41.23 11.0022 41.49 12.4822 43.17C12.4115 43.4624 12.3646 43.76 12.3422 44.06Z" fill="#FCD561"/>
<path d="M1.88339 50.9501C1.67953 51.0625 1.48841 51.1967 1.31338 51.3502C1.07338 49.4702 2.52337 47.4101 3.80337 46.0101C5.64478 44.0739 7.73662 42.3924 10.0234 41.0101C10.2634 40.8501 11.2834 40.2401 11.3334 40.2301C11.3834 40.2201 11.6734 40.6701 11.5334 40.7901L10.1834 41.6101C10.031 41.7219 9.87061 41.8222 9.70339 41.9102C9.70339 41.9102 8.89337 42.4402 8.86337 42.4702C6.45404 44.035 4.37763 46.0605 2.75338 48.4302C2.23368 49.1724 1.9323 50.0454 1.88339 50.9501Z" fill="#E84343"/>
<path d="M10.4625 40.75L10.7825 40.56L10.0225 41.03C10.0825 40.8433 10.1525 40.6533 10.2325 40.46C10.3036 40.5609 10.3803 40.6578 10.4625 40.75Z" fill="#FCD561"/>
<path d="M9.84262 39.71C9.84262 39.71 9.84264 39.71 9.89264 39.77C10.0327 39.8558 10.1896 39.9104 10.3526 39.93C10.3526 39.93 10.4226 39.93 10.4326 39.93C10.2926 40.3 10.1526 40.68 10.0226 41.05L9.18262 41.59C9.18262 41.59 9.18263 41.65 9.32263 41.12C9.46263 40.59 9.66262 40.18 9.84262 39.71Z" fill="#69A4FC"/>
<path d="M9.00284 38.8199C9.00284 38.7399 8.88284 38.6798 9.78284 39.8698L9.49283 40.6398C9.12283 40.1398 8.76285 39.6398 8.42285 39.1798L8.47284 39.2298C8.75284 39.4298 9.13284 39.0699 9.00284 38.8199Z" fill="#FCD561"/>
<path d="M6.82227 53.8202C6.96094 49.9691 7.63405 46.156 8.82227 42.4902L9.64227 41.9502C8.35586 45.7883 7.60873 49.7865 7.42227 53.8302L6.82227 53.8202Z" fill="#69A4FC"/>
<path d="M5.65281 53.73H5.44282C5.38518 53.759 5.33431 53.7999 5.29347 53.8498C5.25262 53.8997 5.22273 53.9577 5.20576 54.02C5.18878 54.0822 5.18509 54.1473 5.19492 54.2111C5.20475 54.2748 5.22789 54.3358 5.26283 54.3901H5.46281C5.31203 54.725 5.09276 55.0247 4.8191 55.2698C4.54544 55.5148 4.22349 55.6999 3.87397 55.8129C3.52445 55.926 3.15511 55.9645 2.78977 55.9262C2.42444 55.8878 2.07121 55.7733 1.75282 55.5901C1.29332 55.3248 0.924057 54.9276 0.692818 54.45L0.63282 54.3001C0.40653 53.7366 0.382178 53.1122 0.563912 52.5328C0.745645 51.9534 1.12226 51.4548 1.62983 51.1215C2.1374 50.7882 2.74467 50.6408 3.34855 50.7044C3.95243 50.7679 4.51572 51.0385 4.94282 51.4701C5.2317 51.7636 5.44673 52.1216 5.57017 52.5145C5.69361 52.9074 5.72192 53.324 5.65281 53.73Z" fill="#FEB30F"/>
<path d="M5.12257 53.22C4.9818 53.7901 4.65006 54.2947 4.18257 54.65C3.67617 55.0487 3.04099 55.2476 2.39763 55.2089C1.75426 55.1702 1.14751 54.8966 0.69258 54.44L0.632582 54.29C0.340691 53.9521 0.140711 53.5448 0.051924 53.1073C-0.0368627 52.6697 -0.0114641 52.2166 0.125654 51.7917C0.262773 51.3668 0.506981 50.9844 0.834791 50.6813C1.1626 50.3782 1.56295 50.1646 1.99727 50.0611C2.43158 49.9576 2.88524 49.9676 3.31453 50.0904C3.74382 50.2131 4.13427 50.4442 4.44829 50.7616C4.7623 51.079 4.98931 51.4719 5.1074 51.9025C5.2255 52.3331 5.23072 52.7868 5.12257 53.22Z" fill="#FBC22C"/>
<path d="M22.912 44.54C23.322 44.97 23.7121 45.4101 24.1021 45.8501C23.8913 46.7341 23.4825 47.5587 22.9066 48.2617C22.3306 48.9646 21.6024 49.5275 20.7771 49.908C19.9517 50.2884 19.0508 50.4763 18.1422 50.4576C17.2335 50.4389 16.341 50.2141 15.532 49.8C14.769 49.4084 14.1028 48.8516 13.582 48.17C15.312 48.81 18.0621 49.49 20.1021 48.39C20.8231 47.9924 21.4483 47.4416 21.9337 46.7765C22.4192 46.1114 22.7531 45.348 22.912 44.54Z" fill="#0B45B2"/>
<path d="M24.2323 44.9602C23.8523 44.5302 23.4623 44.1102 23.0623 43.6802C23.177 42.6741 23.0955 41.6552 22.8223 40.6802C23.84 41.8641 24.3471 43.4031 24.2323 44.9602Z" fill="#0B45B2"/>
<path d="M17.4019 42.43C17.4019 42.6673 17.3316 42.8993 17.1997 43.0967C17.0678 43.294 16.8804 43.4478 16.6612 43.5386C16.4419 43.6295 16.2006 43.6532 15.9678 43.6069C15.735 43.5606 15.5212 43.4464 15.3534 43.2785C15.1856 43.1107 15.0713 42.8969 15.025 42.6641C14.9787 42.4313 15.0025 42.19 15.0933 41.9708C15.1841 41.7515 15.3379 41.5641 15.5353 41.4322C15.7326 41.3004 15.9646 41.23 16.202 41.23C16.5202 41.23 16.8254 41.3564 17.0505 41.5815C17.2755 41.8065 17.4019 42.1117 17.4019 42.43Z" fill="#69A4FC"/>
<path d="M25.0324 24.3199C25.0324 24.4419 24.984 24.5589 24.8977 24.6451C24.8114 24.7314 24.6944 24.7799 24.5724 24.7799C24.5117 24.7812 24.4512 24.7703 24.3948 24.7477C24.3384 24.725 24.2871 24.6912 24.2441 24.6482C24.2011 24.6052 24.1673 24.5539 24.1447 24.4975C24.122 24.4411 24.1111 24.3807 24.1124 24.3199C24.1124 24.1979 24.1609 24.0809 24.2472 23.9946C24.3334 23.9083 24.4504 23.8599 24.5724 23.8599C24.6936 23.8624 24.8092 23.9117 24.8949 23.9974C24.9806 24.0832 25.0299 24.1987 25.0324 24.3199Z" fill="#FC9F9C"/>
<path d="M2.37262 53.2999C2.7537 53.2999 3.06262 52.991 3.06262 52.6099C3.06262 52.2288 2.7537 51.9199 2.37262 51.9199C1.99154 51.9199 1.68262 52.2288 1.68262 52.6099C1.68262 52.991 1.99154 53.2999 2.37262 53.2999Z" fill="#FCEAB2"/>
<path d="M110.753 48.9599C110.753 49.0699 110.673 49.1799 110.643 49.2899C110.973 48.3399 111.273 47.3499 111.523 46.3499C111.363 47.0199 111.173 47.6799 110.963 48.3499C112.583 47.2499 114.703 45.5199 115.553 43.7599C116.673 41.4599 114.943 40.4199 112.403 40.3499C112.403 40.2899 112.403 40.1799 112.403 39.8799C116.673 39.9699 117.603 42.5799 114.403 45.9799C113.303 47.1089 112.079 48.1087 110.753 48.9599Z" fill="#E84343"/>
<path d="M113.752 55.4299C113.461 55.6663 113.089 55.7797 112.716 55.7461C112.342 55.7125 111.996 55.5345 111.752 55.25L111.682 55.16C111.474 54.8606 111.386 54.4935 111.436 54.1321C111.486 53.7707 111.67 53.4414 111.952 53.2099L112.132 53.09C112.132 53.14 112.282 53.4 112.392 53.66C112.392 53.76 112.462 53.8499 112.492 53.9299C112.529 53.9625 112.573 53.985 112.621 53.995C112.669 54.005 112.719 54.0023 112.765 53.9871C112.812 53.9719 112.854 53.9448 112.886 53.9085C112.919 53.8721 112.942 53.8278 112.952 53.78C112.855 53.4844 112.734 53.1968 112.592 52.9199C112.935 52.8525 113.291 52.913 113.592 53.09C113.777 53.1913 113.935 53.3352 114.052 53.5099C114.247 53.811 114.323 54.1731 114.268 54.5271C114.213 54.8812 114.029 55.2025 113.752 55.4299Z" fill="#0B45B2"/>
<path d="M113.402 55.0702C113.176 55.262 112.896 55.3794 112.601 55.4062C112.306 55.4331 112.009 55.3681 111.752 55.2202L111.682 55.1302C111.474 54.8308 111.386 54.4638 111.436 54.1023C111.486 53.7409 111.67 53.4116 111.952 53.1802C112.002 53.3102 112.062 53.4502 112.102 53.5802C112.145 53.6079 112.192 53.6266 112.242 53.6352C112.292 53.6438 112.343 53.6421 112.392 53.6302C112.392 53.7302 112.462 53.8202 112.492 53.9002C112.529 53.9327 112.573 53.9552 112.621 53.9652C112.669 53.9752 112.719 53.9725 112.765 53.9573C112.812 53.9421 112.854 53.915 112.886 53.8787C112.919 53.8423 112.942 53.798 112.952 53.7502C112.855 53.4546 112.734 53.167 112.592 52.8902C112.935 52.8227 113.291 52.8832 113.592 53.0602C113.618 53.0918 113.641 53.1252 113.662 53.1602C113.86 53.4551 113.943 53.8125 113.896 54.1646C113.848 54.5167 113.672 54.839 113.402 55.0702Z" fill="#3E85F4"/>
<path d="M112.492 53.8999C111.732 52.1711 110.721 50.5639 109.492 49.13C107.433 46.6122 105.139 44.2952 102.642 42.2099C101.575 41.3125 100.45 40.4873 99.2725 39.7399C98.5925 39.3099 96.8925 38.31 96.1325 38.57C95.8825 38.66 95.8625 38.95 95.8925 39.22C96.0325 40.56 97.6825 42.7699 97.7225 42.8599C97.7409 42.8919 97.7506 42.9281 97.7506 42.965C97.7506 43.0018 97.7409 43.038 97.7225 43.07C97.6862 43.1206 97.6329 43.1566 97.5723 43.1712C97.5117 43.1859 97.4479 43.1784 97.3925 43.1499C96.6356 42.1523 96.026 41.051 95.5825 39.88C95.4171 39.4695 95.3925 39.0159 95.5125 38.59C96.1025 37.18 98.8425 38.8299 100.122 39.6799C103.834 42.2989 107.165 45.4184 110.022 48.9499C111.253 50.3935 112.264 52.0109 113.022 53.75C113.029 53.8152 113.012 53.8805 112.975 53.9345C112.938 53.9886 112.883 54.0279 112.82 54.0458C112.757 54.0636 112.69 54.0588 112.63 54.0322C112.57 54.0055 112.521 53.9587 112.492 53.8999Z" fill="#FCD561"/>
<path d="M111.903 40.3V39.83C111.982 37.9843 111.586 36.1491 110.753 34.5L110.593 34.26C110.571 34.2368 110.554 34.2087 110.544 34.178C110.534 34.1472 110.532 34.1146 110.536 34.0827C110.541 34.0508 110.553 34.0204 110.572 33.9939C110.59 33.9674 110.615 33.9456 110.643 33.93C110.863 33.81 110.953 33.93 110.953 33.93L111.103 34.15C112.583 36.5 112.513 40.31 112.103 43.06C111.792 45.3 111.239 47.4996 110.453 49.62L110.123 49.21C111.184 46.353 111.785 43.3455 111.903 40.3Z" fill="#69A4FC"/>
<path d="M112.473 55.6902C111.383 55.9602 109.393 54.6901 108.473 54.0901C108.563 53.9301 108.693 53.6902 108.703 53.6602C109.629 54.3326 110.66 54.8494 111.753 55.1902C111.935 55.4271 112.187 55.6018 112.473 55.6902Z" fill="#FCD561"/>
<path d="M103.102 41.9901C105.883 40.7505 108.863 40.019 111.902 39.8301V40.3001C108.996 40.4651 106.142 41.1421 103.472 42.3001L102.582 41.5601L103.102 41.9901Z" fill="#E84343"/>
<path d="M111.102 34.1501L110.952 33.9301C110.952 33.9301 110.862 33.8101 110.642 33.9301C110.614 33.9456 110.589 33.9675 110.571 33.994C110.552 34.0205 110.54 34.0508 110.535 34.0828C110.53 34.1147 110.533 34.1473 110.543 34.178C110.553 34.2088 110.569 34.2369 110.592 34.2601L110.752 34.5001C110.389 34.7697 109.942 34.899 109.491 34.864C109.041 34.8291 108.618 34.6323 108.302 34.3101C108.19 34.202 108.095 34.0772 108.022 33.9401C107.864 33.6635 107.78 33.351 107.777 33.0326C107.775 32.7141 107.854 32.4003 108.008 32.1213C108.161 31.8423 108.384 31.6074 108.654 31.4391C108.925 31.2708 109.234 31.1747 109.552 31.1601C109.847 31.1435 110.142 31.1984 110.412 31.3201C110.665 31.4388 110.888 31.6127 111.065 31.829C111.242 32.0453 111.368 32.2985 111.434 32.57C111.5 32.8414 111.505 33.1243 111.447 33.3978C111.39 33.6712 111.272 33.9283 111.102 34.1501Z" fill="#E84343"/>
<path d="M110.572 33.7801C110.312 34.1154 109.944 34.3511 109.531 34.4476C109.118 34.5441 108.684 34.4956 108.302 34.3101C108.19 34.202 108.095 34.0772 108.022 33.9401C107.864 33.6635 107.78 33.351 107.777 33.0326C107.775 32.7141 107.854 32.4003 108.008 32.1213C108.161 31.8423 108.384 31.6074 108.654 31.4391C108.925 31.2708 109.234 31.1747 109.552 31.1601C109.847 31.1435 110.142 31.1984 110.412 31.3201C110.732 31.641 110.925 32.0675 110.955 32.52C110.984 32.9726 110.848 33.4204 110.572 33.7801Z" fill="#FC5552"/>
<path d="M109.953 49.75C109.953 49.75 110.863 50.93 111.443 51.85C111.063 51.26 110.653 50.68 110.263 50.17C109.724 51.58 109.086 52.9501 108.353 54.27C107.013 56.69 104.823 59.69 102.353 60.88C99.8834 62.07 97.5634 61.14 96.6134 57.71C96.2978 56.4753 96.1465 55.2043 96.1634 53.93H96.6134C96.6134 55.84 96.9234 58.36 98.1734 59.83C99.1734 60.99 100.693 61.37 102.743 60.15C105.033 58.79 107.093 55.78 108.343 53.4C108.683 52.75 109.003 52.08 109.253 51.51C109.633 50.63 109.923 49.81 109.953 49.75Z" fill="#69A4FC"/>
<path d="M110.323 48.71C110.323 48.71 110.173 49.15 110.143 49.21L109.943 48.95L110.323 48.71Z" fill="#E84343"/>
<path d="M109.523 49.21L109.783 49.5399C106.008 51.8919 101.76 53.3807 97.3427 53.9C96.5731 53.9732 95.7974 53.9531 95.0327 53.84C95.0084 53.8019 94.9924 53.7591 94.9858 53.7145C94.9793 53.6698 94.9822 53.6243 94.9945 53.5808C95.0068 53.5374 95.0281 53.497 95.0571 53.4624C95.0861 53.4278 95.122 53.3997 95.1627 53.38C95.636 53.4494 96.1143 53.4795 96.5927 53.47C97.843 53.436 99.0864 53.2717 100.303 52.9799C101.915 52.5916 103.496 52.0835 105.033 51.46C106.582 50.8209 108.083 50.0689 109.523 49.21Z" fill="#E84343"/>
<path d="M108.453 47.2L107.623 46.3C106.31 44.8956 104.924 43.5604 103.473 42.3L103.903 42.67C104.51 42.619 105.122 42.7006 105.695 42.9092C106.269 43.1179 106.79 43.4486 107.222 43.8785C107.655 44.3084 107.989 44.8272 108.202 45.399C108.414 45.9708 108.5 46.5819 108.453 47.1901V47.2Z" fill="#1C6DF6"/>
<path d="M105.903 51.56C105.993 51.65 107.243 52.67 108.323 53.41C108.323 53.41 107.883 54.22 108.083 53.85C107.593 53.5 107.083 53.14 106.623 52.77L105.403 51.77C105.113 51.89 104.823 52.01 104.513 52.12C106.06 51.5212 107.56 50.8093 109.003 49.99C107.997 50.5671 106.963 51.0912 105.903 51.56Z" fill="#FCD561"/>
<path d="M108.363 47.83C108.219 48.4584 107.933 49.0454 107.527 49.5457C107.12 50.0461 106.605 50.4465 106.019 50.7161C105.434 50.9857 104.794 51.1172 104.15 51.1005C103.505 51.0839 102.873 50.9195 102.303 50.62C101.763 50.3431 101.292 49.9504 100.923 49.47C100.49 48.9128 100.205 48.256 100.092 47.5599C99.9786 46.8638 100.042 46.1504 100.276 45.485C100.509 44.8196 100.906 44.2234 101.43 43.7509C101.953 43.2783 102.587 42.9446 103.273 42.78C104.76 44.078 106.179 45.4533 107.523 46.9L108.363 47.83Z" fill="#1C6DF6"/>
<path d="M107.883 32.4302C107.822 32.5873 107.785 32.7524 107.773 32.9202C106.213 33.268 104.809 34.1139 103.773 35.3302C102.469 36.7198 101.356 38.2768 100.463 39.9602L100.093 39.7202C101.373 37.3902 103.263 34.7202 105.493 33.3302C106.207 32.8448 107.026 32.5363 107.883 32.4302Z" fill="#69A4FC"/>
<path d="M105.533 51.25L105.033 51.46L104.873 51.32L104.603 51.09C104.814 51.068 105.024 51.0346 105.233 50.99L105.533 51.25Z" fill="#FCD561"/>
<path d="M99.3125 43.87C100.38 43.2601 101.478 42.706 102.603 42.21L102.973 42.52C101.766 43.0382 100.591 43.6258 99.4525 44.28C99.5925 44.2 99.4425 43.8 99.3125 43.87Z" fill="#E84343"/>
<path d="M100.173 40.3502C100.233 40.3502 99.6525 41.1702 98.6925 43.6302C98.6925 43.6302 98.6925 43.6302 98.6425 43.6302C98.5252 43.621 98.4119 43.5832 98.3125 43.5201C98.7584 42.3655 99.2692 41.2371 99.8425 40.1401L100.173 40.3502Z" fill="#69A4FC"/>
<path d="M100.043 46.5701C99.5025 45.9601 99.0425 45.3601 98.5625 44.8201L98.9825 44.5601C98.9825 44.5601 99.1025 44.7501 100.143 45.9401C100.098 46.1482 100.065 46.3585 100.043 46.5701Z" fill="#FCD561"/>
<path d="M92.6533 51.4299C92.5024 51.5006 92.364 51.5951 92.2433 51.7099C92.0833 50.3799 93.1033 48.9199 94.0033 47.9299C95.3105 46.57 96.7897 45.3867 98.4033 44.4099L99.3233 43.8599C99.4633 43.8599 99.5733 44.1699 99.4733 44.2599L98.4733 44.8299L98.1333 45.0499L97.5333 45.4499C95.8239 46.5371 94.3457 47.9507 93.1833 49.6099C92.8366 50.1536 92.6527 50.7851 92.6533 51.4299Z" fill="#E84343"/>
<path d="M98.7534 44.23L98.9834 44.09L98.4434 44.42L98.5934 44.02L98.7534 44.23Z" fill="#FCD561"/>
<path d="M98.2825 43.49C98.3818 43.5531 98.4951 43.5909 98.6125 43.6H98.6625C98.5625 43.86 98.4625 44.13 98.3725 44.39L97.7725 44.77C97.7725 44.77 97.7725 44.82 97.8825 44.45C97.9925 44.08 98.1525 43.82 98.2825 43.49Z" fill="#69A4FC"/>
<path d="M97.6825 42.8599C97.6825 42.7999 97.5925 42.7599 98.2325 43.5999L98.0325 44.1399C97.7625 43.7999 97.5125 43.4599 97.2725 43.1399C97.4825 43.2699 97.7525 43.0399 97.6825 42.8599Z" fill="#FCD561"/>
<path d="M96.1426 53.4301C96.2497 50.7096 96.7343 48.0171 97.5826 45.4301L98.1626 45.04C97.254 47.7541 96.7256 50.581 96.5926 53.4401C96.443 53.4255 96.2926 53.4221 96.1426 53.4301Z" fill="#69A4FC"/>
<path d="M95.3233 53.43H95.1633C95.1226 53.4497 95.0866 53.4778 95.0577 53.5124C95.0287 53.547 95.0073 53.5874 94.9951 53.6308C94.9828 53.6743 94.9799 53.7198 94.9864 53.7645C94.993 53.8091 95.009 53.8519 95.0332 53.89H95.1832C95.0365 54.2138 94.7995 54.4885 94.5007 54.6811C94.2018 54.8738 93.8538 54.9762 93.4982 54.9762C93.1427 54.9762 92.7947 54.8738 92.4959 54.6811C92.197 54.4885 91.96 54.2138 91.8132 53.89L91.7633 53.79C91.6623 53.541 91.6165 53.2732 91.6289 53.0049C91.6414 52.7366 91.7118 52.4741 91.8353 52.2356C91.9589 51.9971 92.1326 51.7882 92.3446 51.6232C92.5565 51.4583 92.8017 51.3412 93.0632 51.28C93.3609 51.2103 93.6711 51.215 93.9665 51.2937C94.2619 51.3724 94.5333 51.5228 94.7568 51.7314C94.9802 51.94 95.1488 52.2005 95.2476 52.4898C95.3464 52.7791 95.3724 53.0882 95.3233 53.39V53.43Z" fill="#FEB30F"/>
<path d="M94.9326 53.04C94.8397 53.4392 94.6097 53.7931 94.2826 54.04C93.9251 54.3244 93.4749 54.4665 93.0189 54.4388C92.5628 54.4111 92.1332 54.2156 91.8126 53.89L91.7626 53.79C91.5544 53.5515 91.4112 53.2634 91.3469 52.9534C91.2826 52.6434 91.2994 52.3221 91.3956 52.0205C91.4919 51.7189 91.6643 51.4472 91.8962 51.2317C92.1281 51.0163 92.4118 50.8643 92.7196 50.7905C93.0275 50.7167 93.3492 50.7235 93.6536 50.8104C93.958 50.8973 94.2349 51.0612 94.4574 51.2864C94.6799 51.5116 94.8406 51.7904 94.9238 52.0959C95.0071 52.4013 95.0101 52.7231 94.9326 53.03V53.04Z" fill="#FBC22C"/>
<path d="M107.523 46.8999L108.363 47.8299C108.219 48.4583 107.933 49.0452 107.527 49.5456C107.121 50.046 106.605 50.4464 106.019 50.716C105.434 50.9855 104.794 51.1171 104.15 51.1004C103.506 51.0837 102.874 50.9194 102.303 50.6199C101.764 50.343 101.292 49.9503 100.923 49.4699C102.143 49.9199 104.083 50.3999 105.533 49.6199C106.042 49.3386 106.485 48.9495 106.828 48.4797C107.172 48.0099 107.409 47.4708 107.523 46.8999Z" fill="#0B45B2"/>
<path d="M108.453 47.2001L107.623 46.3001C107.706 45.5759 107.649 44.8424 107.453 44.1401C108.179 44.9874 108.538 46.0879 108.453 47.2001Z" fill="#0B45B2"/>
<path d="M102.773 46.2898C103.242 46.2898 103.623 45.9093 103.623 45.4398C103.623 44.9704 103.242 44.5898 102.773 44.5898C102.303 44.5898 101.923 44.9704 101.923 45.4398C101.923 45.9093 102.303 46.2898 102.773 46.2898Z" fill="#69A4FC"/>
<path d="M108.693 32.94C108.876 32.94 109.023 32.7923 109.023 32.61C109.023 32.4278 108.876 32.28 108.693 32.28C108.511 32.28 108.363 32.4278 108.363 32.61C108.363 32.7923 108.511 32.94 108.693 32.94Z" fill="#FC9F9C"/>
<path d="M93.482 52.61C93.4819 52.7073 93.4529 52.8024 93.3986 52.8832C93.3443 52.964 93.2672 53.0268 93.1771 53.0635C93.087 53.1003 92.9879 53.1094 92.8926 53.0897C92.7973 53.07 92.71 53.0223 92.6419 52.9528C92.5738 52.8832 92.5279 52.795 92.5102 52.6993C92.4924 52.6036 92.5035 52.5048 92.5422 52.4154C92.5808 52.3261 92.6452 52.2503 92.727 52.1976C92.8089 52.145 92.9046 52.118 93.0019 52.12C93.1302 52.1226 93.2522 52.1754 93.342 52.267C93.4317 52.3586 93.482 52.4817 93.482 52.61Z" fill="#FCEAB2"/>
<path d="M47.0225 14.43C46.9143 14.43 46.809 14.3949 46.7225 14.33C46.6359 14.2651 46.5728 14.1739 46.5425 14.07L42.7525 1.62001C42.7328 1.55435 42.7262 1.48545 42.7331 1.41725C42.7401 1.34905 42.7604 1.28288 42.7929 1.22252C42.8254 1.16216 42.8694 1.1088 42.9226 1.06548C42.9757 1.02215 43.0368 0.989717 43.1025 0.970018C43.1682 0.95032 43.2371 0.943742 43.3053 0.95067C43.3735 0.957599 43.4396 0.977893 43.5 1.01039C43.5603 1.04289 43.6137 1.08697 43.657 1.14009C43.7004 1.19322 43.7328 1.25436 43.7525 1.32002L47.5925 13.81C47.6296 13.9373 47.6147 14.0741 47.5509 14.1904C47.4871 14.3067 47.3798 14.3929 47.2525 14.43C47.1785 14.4585 47.0965 14.4585 47.0225 14.43Z" fill="#C6DFFD"/>
<path d="M81.6325 35.4801C81.5247 35.4785 81.4202 35.4428 81.334 35.3781C81.2477 35.3135 81.1842 35.2231 81.1525 35.1201L77.0825 21.6901C77.0454 21.5628 77.0603 21.4259 77.1241 21.3097C77.1879 21.1934 77.2952 21.1072 77.4225 21.0701C77.4848 21.0486 77.5508 21.0402 77.6165 21.0454C77.6822 21.0506 77.7461 21.0693 77.8043 21.1002C77.8625 21.1312 77.9136 21.1738 77.9546 21.2254C77.9956 21.277 78.0255 21.3364 78.0425 21.4001L82.1125 34.8301C82.1504 34.9574 82.1371 35.0944 82.0755 35.2121C82.0138 35.3297 81.9087 35.4187 81.7825 35.4601L81.6325 35.4801Z" fill="#C6DFFD"/>
<path d="M49.9023 52.9199C49.9023 56.4699 54.9024 59.3499 61.0424 59.3499C67.1824 59.3499 72.1823 56.4699 72.1823 52.9199V53.9899C72.1823 57.5499 67.1824 60.4299 61.0424 60.4299C54.9024 60.4299 49.9023 57.5499 49.9023 53.9899V52.9199Z" fill="#3E85F4"/>
<path d="M49.9023 52.92C49.9023 49.37 54.9024 46.49 61.0424 46.49C67.1824 46.49 72.1823 49.37 72.1823 52.92C72.1823 56.47 67.1824 59.35 61.0424 59.35C54.9024 59.35 49.9023 56.43 49.9023 52.92Z" fill="#71AAF9"/>
<path d="M55.002 21.43C55.002 27.12 50.0019 30.04 43.9019 30.04C37.8019 30.04 32.752 27 32.752 21.43C32.752 17.89 37.7519 15.02 43.8619 15.02C49.9719 15.02 55.002 17.89 55.002 21.43Z" fill="#0B45B2"/>
<path d="M43.9027 27.84C50.0331 27.84 55.0027 24.9702 55.0027 21.43C55.0027 17.8899 50.0331 15.02 43.9027 15.02C37.7724 15.02 32.8027 17.8899 32.8027 21.43C32.8027 24.9702 37.7724 27.84 43.9027 27.84Z" fill="#71AAF9"/>
<path d="M54.012 21.4298C54.012 24.6798 49.4819 27.2998 43.9019 27.2998C39.3319 27.2998 35.4719 25.5498 34.2119 23.1498C33.917 22.6241 33.7589 22.0326 33.752 21.4298C33.752 18.1998 38.2819 15.5898 43.8719 15.5898C49.4619 15.5898 54.002 18.1898 54.012 21.4298Z" fill="#3E85F4"/>
<path d="M88.5225 40.7801C88.5225 46.4701 83.5225 49.3901 77.4125 49.3901C71.3025 49.3901 66.3125 46.3901 66.3125 40.7801C66.3125 37.2401 71.3125 34.3701 77.4125 34.3701C83.5125 34.3701 88.5225 37.2401 88.5225 40.7801Z" fill="#0B45B2"/>
<path d="M77.4125 47.1901C83.5429 47.1901 88.5125 44.3203 88.5125 40.7801C88.5125 37.24 83.5429 34.3701 77.4125 34.3701C71.2821 34.3701 66.3125 37.24 66.3125 40.7801C66.3125 44.3203 71.2821 47.1901 77.4125 47.1901Z" fill="#71AAF9"/>
<path d="M87.5327 40.7599C87.5327 43.9999 83.0028 46.6199 77.4228 46.6199C72.8528 46.6199 68.9928 44.8699 67.7328 42.4699C67.4531 41.9504 67.3054 41.37 67.3027 40.7799C67.3027 37.5499 71.8328 34.9399 77.4228 34.9399C83.0128 34.9399 87.5227 37.5399 87.5327 40.7599Z" fill="#3E85F4"/>
<path d="M70.5527 38.76L75.7727 41.78V45.81L70.5527 42.79V38.76Z" fill="#FCDC79"/>
<path d="M75.7725 41.78L81.0025 38.76V42.79L75.7725 45.81V41.78Z" fill="#FCD96E"/>
<path d="M70.5527 38.76L75.7727 35.74L81.0027 38.76L75.7727 41.78L70.5527 38.76Z" fill="#FFE856"/>
<path d="M58.8232 13.3201C58.8232 13.9901 59.7632 14.5301 60.9132 14.5301C62.0632 14.5301 63.0132 13.9901 63.0132 13.3201L62.2832 17.04L63.0132 51.8101C63.0132 52.4801 62.0732 53.0201 60.9132 53.0201C59.7532 53.0201 58.8232 52.4801 58.8232 51.8101L59.5932 17.0201L58.8232 13.3201Z" fill="#ABD0FC"/>
<path d="M77.9028 21.7601C77.9028 21.7601 75.6029 22.4201 74.4529 21.6601C73.3029 20.9001 68.6228 16.3001 65.6628 14.6601C64.8053 14.1866 63.8867 13.8332 62.9328 13.6101C62.7041 13.9179 62.3999 14.1615 62.0496 14.3174C61.6992 14.4733 61.3146 14.5362 60.9328 14.5001C59.7828 14.5001 58.8428 13.9601 58.8428 13.2901C58.0464 11.4297 56.7779 9.80958 55.1628 8.59009C52.2128 6.78009 47.5228 5.9801 46.3728 5.4101C45.2228 4.8401 42.9229 1.52008 42.9229 1.52008C42.9229 1.15008 42.9228 0.960097 42.9728 0.910097C43.3728 0.680097 45.1528 3.6601 45.9728 4.1301C46.9728 4.7001 48.3628 3.8001 51.1528 4.1301C53.9428 4.4601 58.3828 8.02008 58.3828 8.02008L60.3828 2.90009L62.4428 10.3901C65.1131 11.4018 67.5666 12.912 69.6729 14.8401C72.4629 17.6901 73.8528 20.2101 74.8428 20.7801C75.8328 21.3501 78.2328 19.9501 77.9028 21.7601Z" fill="#C6DFFD"/>
<path d="M59.0533 7.69008L58.3534 8.10008C58.3534 8.10008 53.9134 4.59006 51.1234 4.21006C48.3334 3.83006 46.9334 4.73006 45.9434 4.21006C45.1334 3.74006 43.3534 0.760063 42.9434 0.990063L43.6534 0.590069C44.0534 0.360069 45.8234 3.33006 46.6534 3.80006C47.6534 4.37006 49.0334 3.47008 51.8234 3.85008C54.6134 4.23008 59.0533 7.69008 59.0533 7.69008Z" fill="#E5EFFA"/>
<path d="M61.1135 2.58008L60.4035 2.98007L58.3535 8.1001L59.0535 7.69009L61.1135 2.58008Z" fill="#DDECFD"/>
<path d="M63.1633 10.0601L62.4533 10.4701L60.4033 2.98007L61.1133 2.58008L63.1633 10.0601Z" fill="#DDECFD"/>
<path d="M78.6029 21.3501L77.9029 21.76C78.2329 19.95 75.9029 21.42 74.9029 20.86C73.9029 20.3 72.5229 17.77 69.7329 14.92C67.6267 12.9919 65.1732 11.4818 62.5029 10.4701L63.2029 10.0601C65.876 11.0706 68.3304 12.5846 70.4329 14.5201C73.2229 17.3601 74.6229 19.88 75.6129 20.45C76.6029 21.02 78.9329 19.5501 78.6029 21.3501Z" fill="#E5EFFA"/>
<path d="M48.8928 27.32C48.7806 27.3183 48.6723 27.2788 48.5852 27.2081C48.4981 27.1374 48.4374 27.0394 48.4127 26.93L43.0027 2.92999L33.7527 21.26C33.7292 21.3267 33.6918 21.3876 33.643 21.4388C33.5942 21.4899 33.5351 21.5301 33.4696 21.5568C33.4041 21.5834 33.3337 21.5958 33.263 21.5933C33.1923 21.5907 33.123 21.5731 33.0597 21.5418C32.9963 21.5105 32.9402 21.466 32.8953 21.4115C32.8503 21.3569 32.8175 21.2934 32.7989 21.2252C32.7803 21.157 32.7763 21.0856 32.7873 21.0157C32.7984 20.9459 32.824 20.8792 32.8627 20.82L43.3427 0L49.3427 26.71C49.3575 26.7744 49.3593 26.841 49.3482 26.9061C49.337 26.9712 49.3131 27.0334 49.2778 27.0892C49.2424 27.145 49.1964 27.1932 49.1424 27.2311C49.0883 27.269 49.0272 27.2958 48.9627 27.31L48.8928 27.32Z" fill="#C6DFFD"/>
<path d="M82.2022 46.8202C82.0869 46.8202 81.9751 46.7804 81.8859 46.7075C81.7966 46.6346 81.7352 46.5331 81.7122 46.4201L77.0322 23.0901L67.2421 41.4301C67.1768 41.5451 67.0695 41.6303 66.9426 41.6676C66.8157 41.7049 66.6793 41.6915 66.5622 41.6302C66.4461 41.5685 66.3591 41.4636 66.3198 41.3382C66.2805 41.2128 66.2921 41.077 66.3522 40.9601L77.4622 20.1602L82.7522 46.2202C82.7757 46.3513 82.7471 46.4864 82.6724 46.5966C82.5976 46.7069 82.4827 46.7835 82.3522 46.8102L82.2022 46.8202Z" fill="#C6DFFD"/>
<path d="M42.3327 85.3199L42.4727 84.9399C42.6866 84.4293 42.9765 83.9539 43.3327 83.5299C43.676 83.13 44.0853 82.7918 44.5427 82.5299C44.934 82.3051 45.3597 82.1464 45.8027 82.0599C46.1876 82.008 46.5777 82.008 46.9627 82.0599C47.8764 82.1934 48.7539 82.5097 49.5427 82.9899C50.1647 83.2962 50.7459 83.6792 51.2727 84.1299C51.5454 84.3682 51.7903 84.6366 52.0027 84.9299C52.2098 85.2306 52.3969 85.5446 52.5627 85.8699C52.7194 86.1865 52.9291 86.474 53.1827 86.7199C53.5137 87.024 53.8836 87.283 54.2827 87.4899C54.4654 87.6181 54.6717 87.7089 54.8897 87.757C55.1076 87.805 55.333 87.8094 55.5527 87.7699C56.159 87.7124 56.7707 87.7563 57.3627 87.8999C58.083 88.084 58.7734 88.3702 59.4127 88.7499C59.6512 88.8901 59.8815 89.0437 60.1027 89.2099C60.6511 89.6006 61.1367 90.0727 61.5427 90.6099C61.8993 91.0716 62.1548 91.6031 62.2927 92.1699C62.3508 92.4529 62.3809 92.741 62.3827 93.0299C62.3652 93.6779 62.2119 94.315 61.9327 94.8999C61.6022 95.6197 61.1093 96.2529 60.4927 96.7499C60.324 96.891 60.1395 97.0118 59.9427 97.1099C59.1716 97.5334 58.2792 97.6816 57.4127 97.5299C56.3159 97.3454 55.272 96.9258 54.3527 96.2999C53.3636 95.685 52.5748 94.7955 52.0827 93.7399C51.9203 93.298 51.5895 92.9385 51.1627 92.7399C50.5149 92.2827 49.735 92.0509 48.9427 92.0799C48.3347 92.1249 47.7234 92.0709 47.1327 91.9199C46.5666 91.7656 46.0248 91.5334 45.5227 91.2299C45.5227 91.2299 44.9827 90.9199 44.4227 90.5399C44.165 90.3611 43.9179 90.1674 43.6827 89.9599C43.3524 89.6864 43.0598 89.3703 42.8127 89.0199C42.5667 88.6612 42.3778 88.2665 42.2527 87.8499C42.0321 87.0168 42.0599 86.1374 42.3327 85.3199ZM60.2827 96.7399L60.4427 96.6399C60.9733 96.2538 61.4117 95.755 61.7264 95.1792C62.0411 94.6034 62.2242 93.965 62.2627 93.3099C62.2679 93.2267 62.2679 93.1432 62.2627 93.0599C62.2629 92.8616 62.2114 92.6667 62.1133 92.4944C62.0152 92.3221 61.8738 92.1783 61.7032 92.0774C61.5325 91.9764 61.3385 91.9217 61.1402 91.9186C60.942 91.9155 60.7464 91.9643 60.5727 92.0599L60.2827 92.2099C59.7957 92.528 59.3764 92.9391 59.0486 93.4196C58.7209 93.9001 58.4911 94.4405 58.3727 95.0099C58.3307 95.2174 58.3073 95.4283 58.3027 95.6399C58.2827 96.8599 59.1827 97.3699 60.2827 96.7399Z" fill="#FC5552"/>
<path d="M53.8431 90.2799C53.8431 90.2799 54.9131 89.8499 57.1831 90.7499C57.432 90.8383 57.6609 90.975 57.8567 91.1523C58.0524 91.3295 58.2111 91.5438 58.3236 91.7828C58.4361 92.0217 58.5002 92.2806 58.5121 92.5444C58.524 92.8082 58.4836 93.0718 58.3931 93.3199C58.0241 93.7389 57.512 94.0049 56.957 94.066C56.4021 94.127 55.8444 93.9787 55.3931 93.6499C54.1931 92.7999 53.2731 91.0999 53.8431 90.2799Z" fill="#FF6666"/>
<path d="M44.5324 84.2898C45.1624 83.3498 46.9024 83.6599 48.6424 84.9299C51.0024 86.6399 51.1924 88.1699 50.8424 88.6799C50.4924 89.1899 47.2824 88.2399 46.2624 87.3799C44.8324 86.1799 44.0624 84.9898 44.5324 84.2898Z" fill="#FF6666"/>
<path d="M42.2527 87.7999C42.3778 88.2164 42.5667 88.6111 42.8127 88.9699C43.0599 89.3203 43.3524 89.6364 43.6827 89.9099C43.9179 90.1174 44.165 90.311 44.4227 90.4899C44.9827 90.8699 45.5227 91.1799 45.5227 91.1799C46.0248 91.4834 46.5667 91.7156 47.1327 91.8699C47.7234 92.0208 48.3347 92.0749 48.9427 92.0299C49.735 92.0008 50.5149 92.2327 51.1627 92.6899C51.5895 92.8884 51.9203 93.248 52.0827 93.6899C52.5749 94.7454 53.3636 95.6349 54.3527 96.2499C55.2721 96.8758 56.3159 97.2954 57.4127 97.4798C58.2793 97.6315 59.1716 97.4834 59.9427 97.0599C60.1395 96.9618 60.3241 96.841 60.4927 96.6998L59.2427 95.0799C59.2427 95.0799 58.5927 96.7998 58.0527 96.7298C56.5271 96.3967 55.0826 95.7645 53.8027 94.8699C52.2627 93.7799 52.2927 91.4799 52.6627 90.4699C52.9403 89.7035 53.4982 89.071 54.2238 88.6998C54.9495 88.3286 55.7889 88.2465 56.5727 88.4699C58.4531 88.9161 60.1084 90.0279 61.2327 91.5999C61.509 92.2018 61.5622 92.8823 61.3827 93.5199L62.3827 92.9498C62.381 92.6609 62.3508 92.3729 62.2927 92.0899C62.1549 91.523 61.8993 90.9915 61.5427 90.5299C61.1367 89.9927 60.6511 89.5206 60.1027 89.1299C59.8816 88.9637 59.6512 88.8101 59.4127 88.6699C58.7734 88.2901 58.0831 88.0039 57.3627 87.8199C56.7708 87.6763 56.1591 87.6323 55.5527 87.6899C55.333 87.7294 55.1077 87.725 54.8897 87.6769C54.6717 87.6288 54.4654 87.5381 54.2827 87.4099C53.8836 87.2029 53.5138 86.944 53.1827 86.6399C52.9291 86.3939 52.7194 86.1064 52.5627 85.7898C52.3969 85.4646 52.2098 85.1506 52.0027 84.8499C51.7903 84.5565 51.5454 84.2881 51.2727 84.0499C50.7459 83.5991 50.1647 83.2161 49.5427 82.9099C48.754 82.4296 47.8765 82.1133 46.9627 81.9798C46.5778 81.9279 46.1876 81.9279 45.8027 81.9798C47.2244 82.2075 48.5638 82.7963 49.6927 83.6899C52.4327 85.7499 53.4027 88.2799 52.5027 89.6899C50.8427 92.3099 46.4327 90.3399 45.6627 89.9199C41.6627 87.7299 42.3727 85.4199 42.3327 85.2499C42.056 86.0735 42.0281 86.9605 42.2527 87.7999Z" fill="#E84343"/>
<path d="M58.2832 95.5999C58.2832 96.8599 59.1832 97.3699 60.2832 96.7399C60.8626 96.3655 61.3457 95.8599 61.6931 95.2639C62.0406 94.668 62.2428 93.9986 62.2832 93.3099C62.2832 92.0499 61.3832 91.5399 60.2832 92.1699C59.7043 92.5449 59.2217 93.0507 58.8743 93.6465C58.5269 94.2423 58.3244 94.9114 58.2832 95.5999Z" fill="#E84343"/>
<path d="M59.9926 95.0002C59.9849 95.0647 59.996 95.1301 60.0243 95.1886C60.0527 95.2471 60.0972 95.2962 60.1526 95.3302L73.3026 102.94L77.1926 105.77L80.0526 106.63L81.2726 105.93L79.8626 104.43L74.7526 102.12L60.8826 94.1202C60.8288 94.0913 60.7687 94.0762 60.7076 94.0762C60.6465 94.0762 60.5864 94.0913 60.5326 94.1202C60.3775 94.2115 60.2471 94.3395 60.1529 94.4929C60.0588 94.6463 60.0037 94.8205 59.9926 95.0002Z" fill="#69A4FC"/>
<path d="M59.9926 95.0099C59.9849 95.0744 59.996 95.1398 60.0243 95.1983C60.0527 95.2568 60.0972 95.3059 60.1526 95.3399L73.3026 102.48L77.1926 105.32L80.0526 106.63L81.2726 105.93L79.8626 103.93L74.7526 101.66L60.8826 94.0999C60.8281 94.0734 60.7682 94.0596 60.7076 94.0596C60.647 94.0596 60.5871 94.0734 60.5326 94.0999C60.3746 94.1953 60.2426 94.3283 60.1484 94.4871C60.0542 94.6459 60.0006 94.8254 59.9926 95.0099Z" fill="#99C1FD"/>
<path d="M80.7525 105.92C80.7525 105.92 80.6625 106.23 80.0725 106.24C79.1739 106.017 78.307 105.681 77.4925 105.24L73.8525 102.72C73.8525 102.72 76.5025 104.3 77.3025 104.82C77.9625 105.29 79.5725 106.36 80.7525 105.92Z" fill="white"/>
<path d="M98.332 84.65L98.442 91.09C98.882 91.1111 99.3189 91.0071 99.7021 90.79L112.932 83.15C113.06 83.0761 113.166 82.9696 113.24 82.8414C113.314 82.7133 113.352 82.5679 113.352 82.42V75.98L98.332 84.65Z" fill="#FC5552"/>
<path d="M69.5225 67.8101V74.1801C69.5217 74.3267 69.5603 74.4708 69.6342 74.5974C69.708 74.724 69.8145 74.8285 69.9425 74.9001L97.4025 90.79C97.7063 90.9703 98.0496 91.0733 98.4025 91.0901V84.0901L75.0125 70.5301L69.5225 67.8101Z" fill="#E84343"/>
<path d="M99.7519 84.35L112.982 76.7C113.109 76.6273 113.214 76.5225 113.287 76.3961C113.36 76.2696 113.399 76.1261 113.399 75.98C113.399 75.8339 113.36 75.6904 113.287 75.564C113.214 75.4376 113.109 75.3327 112.982 75.26L85.5219 59.37C85.1738 59.169 84.7789 59.0632 84.3769 59.0632C83.9749 59.0632 83.5801 59.169 83.2319 59.37L69.9919 67.01C69.8654 67.0841 69.7604 67.1899 69.6875 67.3171C69.6145 67.4443 69.5762 67.5884 69.5762 67.735C69.5762 67.8816 69.6145 68.0257 69.6875 68.1529C69.7604 68.2801 69.8654 68.386 69.9919 68.46L97.4519 84.35C97.8016 84.5519 98.1982 84.6582 98.6019 84.6582C99.0057 84.6582 99.4023 84.5519 99.7519 84.35Z" fill="#FC7464"/>
<path d="M84.9031 60.45L90.6031 63.74L77.4031 71.36L71.7031 68.07L84.9031 60.45Z" fill="#E84343"/>
<path d="M77.4223 71.12L89.4823 64.16L84.8823 61.51L72.8223 68.47L77.4223 71.12Z" fill="#1C6DF6"/>
<path d="M86.7525 74.75C88.2557 75.5117 89.9173 75.9086 91.6025 75.9086C93.2877 75.9086 94.9492 75.5117 96.4525 74.75C99.1425 73.2 99.1625 70.69 96.4525 69.15C94.9482 68.3858 93.2847 67.9875 91.5975 67.9875C89.9102 67.9875 88.2468 68.3858 86.7425 69.15C84.0825 70.7 84.0625 73.2 86.7525 74.75Z" fill="#FC5552"/>
<path d="M87.6227 75.02C88.8521 75.6414 90.2103 75.9651 91.5877 75.9651C92.9652 75.9651 94.3234 75.6414 95.5527 75.02C97.7527 73.75 97.7627 71.7 95.5527 70.43C94.3223 69.8063 92.9622 69.4812 91.5827 69.4812C90.2032 69.4812 88.8431 69.8063 87.6127 70.43C85.4527 71.71 85.4427 73.76 87.6227 75.02Z" fill="#E84343"/>
<path d="M96.7519 82.08C97.0958 82.2547 97.4761 82.3458 97.8619 82.3458C98.2477 82.3458 98.628 82.2547 98.9719 82.08C99.1037 82.0326 99.2177 81.9458 99.2983 81.8312C99.3789 81.7167 99.4221 81.58 99.4221 81.44C99.4221 81.2999 99.3789 81.1633 99.2983 81.0487C99.2177 80.9342 99.1037 80.8473 98.9719 80.8C98.6298 80.6253 98.2511 80.5342 97.8669 80.5342C97.4827 80.5342 97.1041 80.6253 96.7619 80.8C96.6297 80.8462 96.515 80.9322 96.4336 81.0461C96.3521 81.1601 96.3078 81.2964 96.3067 81.4364C96.3056 81.5765 96.3478 81.7135 96.4274 81.8287C96.5071 81.9439 96.6205 82.0316 96.7519 82.08Z" fill="#202A5F"/>
<path d="M96.9927 82.14C97.2732 82.2824 97.5832 82.3565 97.8977 82.3565C98.2122 82.3565 98.5223 82.2824 98.8027 82.14C99.3027 81.86 99.3027 81.39 98.8027 81.14C98.5223 80.9977 98.2122 80.9236 97.8977 80.9236C97.5832 80.9236 97.2732 80.9977 96.9927 81.14C96.897 81.1839 96.8159 81.2544 96.759 81.343C96.7021 81.4316 96.6719 81.5347 96.6719 81.64C96.6719 81.7454 96.7021 81.8485 96.759 81.9371C96.8159 82.0257 96.897 82.0962 96.9927 82.14Z" fill="#0E173D"/>
<path d="M96.1027 74.9101C96.1027 74.9101 97.1027 74.3701 96.6627 74.1001L88.4527 70.1601C88.2148 70.0253 87.9481 69.9495 87.675 69.9391C87.4018 69.9286 87.1301 69.9838 86.8827 70.1001L86.5027 69.3101C86.0927 69.5401 86.4227 70.8001 86.8827 71.0701L94.5627 75.5001C95.0888 75.3386 95.6033 75.1415 96.1027 74.9101Z" fill="#FC5552"/>
<path d="M96.3119 74.73L96.4319 74.6601C96.8319 74.4301 96.7819 74.02 96.3119 73.75C95.1305 72.5621 93.7832 71.5516 92.3119 70.75C91.102 70.0865 89.8113 69.5824 88.4719 69.25C88.2323 69.1206 87.9661 69.0478 87.6939 69.0374C87.4217 69.027 87.1508 69.0793 86.9019 69.19L86.7919 69.26C86.3819 69.49 86.4419 69.8901 86.9019 70.1601C88.3153 70.6302 89.6979 71.188 91.0419 71.83C92.4474 72.5505 93.7084 73.5234 94.7619 74.7C95.0006 74.8238 95.2646 74.8908 95.5334 74.896C95.8022 74.9012 96.0686 74.8444 96.3119 74.73Z" fill="#FC7464"/>
<path d="M96.7028 79.4499V77.9399L94.3428 81.0199L94.5628 82.2899L96.7028 79.4499Z" fill="#5195FB"/>
<path d="M96.7028 77.9399L95.5628 77.3799L93.3828 80.4299L94.3428 81.0199L96.7028 77.9399Z" fill="#81B2FC"/>
<path d="M94.5622 82.29L93.7422 82.86V82.5L94.3422 81.02L94.5622 82.29Z" fill="#1C6DF6"/>
<path d="M93.3825 80.4302L94.3425 81.0202L93.7425 82.5002L93.0225 82.0802L93.3825 80.4302Z" fill="#5195FB"/>
<path d="M93.0225 82.5001V82.0801L93.7425 82.5001V82.8601L93.0225 82.5001Z" fill="#5195FB"/>
<path d="M94.5631 78.03V76.51L92.2031 79.59L92.4231 80.87L94.5631 78.03Z" fill="#C02106"/>
<path d="M94.5622 76.5099L93.4222 75.96L91.2422 79L92.2022 79.59L94.5622 76.5099Z" fill="#FC5552"/>
<path d="M92.4225 80.8701L91.6025 81.4301V81.0701L92.2025 79.5901L92.4225 80.8701Z" fill="#FC5552"/>
<path d="M91.2428 79L92.2028 79.59L91.6028 81.07L90.8828 80.66L91.2428 79Z" fill="#C02106"/>
<path d="M90.8828 81.0702V80.6602L91.6028 81.0702V81.4301L90.8828 81.0702Z" fill="#FC5552"/>
<path d="M38.4323 59.78L42.8224 62.3201V61.56L38.6123 59.1301C38.4623 59.0401 38.1523 59.03 38.1523 59.24C38.1523 59.3459 38.1777 59.4502 38.2264 59.5442C38.2752 59.6382 38.3458 59.7191 38.4323 59.78Z" fill="#C9DEFE"/>
<path d="M43.2324 61.4302C43.2324 61.0202 42.9624 60.8502 42.6224 61.0502C42.4376 61.1639 42.2829 61.3206 42.1715 61.5069C42.0601 61.6931 41.9952 61.9035 41.9824 62.1202C41.9824 62.5302 42.2524 62.6902 42.6024 62.5002C42.7848 62.3846 42.9371 62.2273 43.0467 62.0412C43.1562 61.8552 43.2199 61.6457 43.2324 61.4302Z" fill="#FF8980"/>
<path d="M45.2233 65.3102C45.3659 65.4221 45.542 65.4829 45.7233 65.4829C45.9046 65.4829 46.0807 65.4221 46.2233 65.3102C46.5885 65.0763 46.8937 64.7598 47.1143 64.3864C47.3349 64.013 47.4647 63.593 47.4933 63.1602L43.2333 61.4302C43.2208 61.6457 43.1571 61.8552 43.0475 62.0413C42.938 62.2273 42.7857 62.3846 42.6033 62.5002C42.5325 62.5529 42.4466 62.5814 42.3583 62.5814C42.27 62.5814 42.1841 62.5529 42.1133 62.5002L45.2233 65.3102Z" fill="#FF8980"/>
<path d="M42.9932 60.9702C43.0781 61.0071 43.1481 61.0716 43.1917 61.1534C43.2352 61.2351 43.2499 61.3291 43.2332 61.4202L47.4632 63.1602C47.4632 62.6902 47.2832 62.3802 46.9832 62.2802L42.9932 60.9702Z" fill="#FF8980"/>
<path d="M46.9828 62.2802L42.9828 60.9702C42.9196 60.9563 42.8542 60.9553 42.7906 60.9673C42.7271 60.9794 42.6666 61.0041 42.6128 61.0401C42.428 61.1539 42.2733 61.3106 42.1619 61.4968C42.0505 61.6831 41.9856 61.8935 41.9728 62.1101C41.9664 62.1791 41.9747 62.2486 41.9971 62.3141C42.0195 62.3796 42.0555 62.4396 42.1028 62.4901L45.2128 65.3102C45.1193 65.2083 45.0479 65.0882 45.0031 64.9574C44.9584 64.8266 44.9413 64.6879 44.9528 64.5501C44.9782 64.1179 45.1067 63.6981 45.3277 63.3257C45.5486 62.9534 45.8556 62.6395 46.2228 62.4102C46.3328 62.3354 46.4576 62.2851 46.5887 62.2627C46.7198 62.2402 46.8542 62.2462 46.9828 62.2802Z" fill="#FC5552"/>
<path d="M46.1932 65.4301C45.4532 65.8401 44.8632 65.4301 44.8732 64.6201C44.9028 64.1581 45.0415 63.7097 45.2779 63.3116C45.5143 62.9136 45.8417 62.5772 46.2332 62.3301C46.9632 61.9201 47.5532 62.2801 47.5432 63.1301C47.5154 63.5927 47.3786 64.0422 47.144 64.442C46.9094 64.8417 46.5836 65.1803 46.1932 65.4301ZM47.4632 63.1801C47.4632 62.3801 46.9232 62.0401 46.2332 62.4301C45.8659 62.6594 45.559 62.9734 45.338 63.3457C45.1171 63.718 44.9885 64.1379 44.9632 64.5701C44.9632 65.3801 45.5032 65.7101 46.1932 65.3301C46.561 65.0942 46.8678 64.7746 47.0886 64.3975C47.3093 64.0204 47.4377 63.5963 47.4632 63.1601V63.1801Z" fill="#FF8980"/>
<path d="M47.5632 61.8503C47.4954 61.8083 47.4211 61.7779 47.3432 61.7603H47.1033C46.9223 61.7641 46.7432 61.7979 46.5733 61.8603C46.3839 61.9403 46.2058 62.0445 46.0433 62.1703C45.8519 62.3021 45.6802 62.4603 45.5332 62.6403C45.4551 62.7297 45.3817 62.8232 45.3132 62.9203L45.2033 63.0703L45.1132 63.2203L45.0232 63.3803C45.0232 63.3803 44.9432 63.5303 44.8632 63.7103C44.7832 63.8903 44.7832 63.9303 44.7432 64.0403C44.6063 64.4629 44.5754 64.9128 44.6532 65.3503C44.7054 65.6078 44.8428 65.8403 45.0433 66.0103L45.1832 66.0903H45.2732C45.3195 66.0992 45.367 66.0992 45.4133 66.0903C45.4928 66.1027 45.5737 66.1027 45.6532 66.0903H45.8933C46.0313 66.0629 46.1655 66.0193 46.2933 65.9603C46.4414 65.8876 46.5821 65.8005 46.7132 65.7003L46.9632 65.4903L47.0832 65.3703C47.169 65.2884 47.2461 65.198 47.3132 65.1003C47.3911 65.0096 47.4613 64.9126 47.5232 64.8103C47.6074 64.6883 47.6842 64.5614 47.7533 64.4303L47.8833 64.1103L47.9433 63.9403C47.9477 63.8837 47.9477 63.8268 47.9433 63.7703C47.9433 63.6703 47.9933 63.5403 48.0033 63.4403C48.0081 63.3837 48.0081 63.3268 48.0033 63.2703C48.0079 63.217 48.0079 63.1635 48.0033 63.1103C48.001 63.0916 47.9944 63.0738 47.984 63.0581C47.9735 63.0425 47.9596 63.0295 47.9433 63.0203C47.8233 62.9603 47.5633 63.0803 47.4233 63.1503C47.3955 63.6129 47.2586 64.0624 47.024 64.4622C46.7894 64.8619 46.4636 65.2004 46.0733 65.4503C45.3333 65.8603 44.7433 65.4503 44.7533 64.6403C44.7829 64.1783 44.9216 63.7299 45.158 63.3318C45.3944 62.9338 45.7218 62.5974 46.1132 62.3503C46.8432 61.9403 47.4333 62.3003 47.4233 63.1503C47.5633 63.0803 47.8233 62.9603 47.9433 63.0203C47.9596 63.0295 47.9735 63.0425 47.984 63.0581C47.9944 63.0738 48.001 63.0916 48.0033 63.1103C48.0111 62.9971 48.0111 62.8835 48.0033 62.7703L47.9433 62.5103C47.9275 62.4619 47.9075 62.415 47.8833 62.3703C47.8334 62.1678 47.7215 61.986 47.5632 61.8503Z" fill="#FF8980"/>
<path d="M46.5027 65.5903C45.7627 66.0003 45.1727 65.5903 45.1827 64.7803C45.2124 64.3182 45.3511 63.8698 45.5875 63.4718C45.8239 63.0737 46.1513 62.7374 46.5428 62.4902C47.2828 62.0802 47.8728 62.4402 47.8528 63.2902C47.8258 63.7531 47.6893 64.2029 47.4546 64.6028C47.2199 65.0026 46.8937 65.341 46.5027 65.5903ZM47.7727 63.3403C47.7727 62.5403 47.2328 62.2003 46.5428 62.5903C46.1759 62.8224 45.8694 63.1384 45.6486 63.5122C45.4278 63.886 45.299 64.3069 45.2727 64.7402C45.2727 65.5402 45.8127 65.8702 46.5027 65.4902C46.8643 65.2541 47.1656 64.9367 47.3826 64.5634C47.5996 64.1901 47.7264 63.7713 47.7527 63.3403H47.7727Z" fill="#FF8980"/>
<path d="M48.1229 63.0703C48.1229 62.9803 48.1229 62.8603 48.1229 62.7703C48.1284 62.7204 48.1284 62.6701 48.1229 62.6203C48.1229 62.5103 48.1229 62.5103 48.0429 62.3603L47.9729 62.2303C47.9353 62.1663 47.8918 62.106 47.8429 62.0503L47.7429 61.9503L47.6029 61.8503C47.5338 61.8108 47.4598 61.7805 47.3829 61.7603H47.1629H47.0229H46.8829H46.7629H46.6129L46.3529 61.8903C46.2584 61.9432 46.1681 62.0034 46.0829 62.0703L45.9429 62.1703C45.8528 62.2429 45.7691 62.3232 45.6929 62.4103C45.5273 62.5839 45.3768 62.7712 45.2429 62.9703L45.0629 63.2803C44.9929 63.4103 44.9829 63.4403 44.9029 63.6103C44.9029 63.6103 44.8429 63.7603 44.7829 63.9403C44.7229 64.1203 44.7829 64.0703 44.6929 64.2803C44.6805 64.4467 44.6805 64.6138 44.6929 64.7803C44.683 64.8834 44.683 64.9872 44.6929 65.0903C44.7003 65.1826 44.7205 65.2735 44.7529 65.3603C44.7887 65.486 44.8462 65.6044 44.9229 65.7103C44.9679 65.7742 45.0218 65.8314 45.0829 65.8803L45.1629 65.9403L45.2929 66.0103L45.4429 66.0603H45.5429H45.6929H45.9329H46.0829C46.2264 66.0218 46.3642 65.9646 46.4929 65.8903L46.7629 65.7103L46.9029 65.6003L47.1529 65.3703C47.239 65.2887 47.3161 65.1982 47.3829 65.1003C47.4634 65.0117 47.5338 64.9144 47.5929 64.8103C47.662 64.7125 47.7223 64.6088 47.7729 64.5003C47.8376 64.3997 47.8913 64.2924 47.9329 64.1803L47.9929 64.0203C48.056 63.8578 48.1062 63.6906 48.1429 63.5203C48.1731 63.3552 48.1899 63.188 48.1929 63.0203C48.1929 63.0903 48.0529 63.1703 47.9229 63.2403C47.8959 63.7031 47.7594 64.1529 47.5247 64.5528C47.29 64.9526 46.9638 65.291 46.5729 65.5403C45.8329 65.9503 45.2429 65.5403 45.2529 64.7303C45.2825 64.2682 45.4212 63.8199 45.6576 63.4218C45.894 63.0238 46.2214 62.6874 46.6129 62.4403C47.3529 62.0303 47.9429 62.3903 47.9229 63.2403C47.9829 63.2203 48.1229 63.1403 48.1229 63.0703Z" fill="#FC7464"/>
<path d="M51.0125 68.9301C51.1706 69.0075 51.3464 69.0417 51.5219 69.0294C51.6975 69.0172 51.8668 68.9587 52.0125 68.8601C52.4213 68.5999 52.763 68.247 53.0097 67.83C53.2564 67.413 53.4013 66.9436 53.4325 66.4601L47.7525 63.3401C47.7239 63.7729 47.5941 64.1929 47.3735 64.5663C47.1529 64.9397 46.8478 65.2562 46.4825 65.4901C46.3549 65.5786 46.2058 65.6309 46.0508 65.6415C45.8959 65.652 45.741 65.6205 45.6025 65.5501L51.0125 68.9301Z" fill="#FF8980"/>
<path d="M47.3926 62.5C47.5266 62.592 47.6328 62.7189 47.6998 62.8669C47.7668 63.015 47.7919 63.1786 47.7726 63.34L53.4226 66.46C53.4433 66.279 53.4142 66.0958 53.3384 65.9301C53.2627 65.7645 53.1431 65.6226 52.9926 65.52L47.3926 62.5Z" fill="#FF8980"/>
<path d="M52.9923 65.5201L47.3923 62.5201C47.2545 62.4625 47.1043 62.4406 46.9558 62.4564C46.8073 62.4721 46.6651 62.525 46.5423 62.6101C46.1754 62.8422 45.869 63.1582 45.6482 63.532C45.4274 63.9058 45.2985 64.3267 45.2723 64.7601C45.2531 64.914 45.2755 65.0703 45.337 65.2127C45.3985 65.3552 45.497 65.4786 45.6223 65.5701L51.0123 68.9501C50.8739 68.8453 50.7652 68.7063 50.6968 68.5467C50.6284 68.3872 50.6027 68.2126 50.6223 68.0401C50.6528 67.555 50.7973 67.0839 51.044 66.6652C51.2907 66.2464 51.6328 65.8918 52.0423 65.6301C52.1789 65.5339 52.3374 65.4734 52.5033 65.4542C52.6693 65.435 52.8374 65.4576 52.9923 65.5201Z" fill="#FC5552"/>
<path d="M66.6732 76.7002C66.7337 76.7309 66.8004 76.7469 66.8682 76.7469C66.936 76.7469 67.0028 76.7309 67.0632 76.7002C67.2334 76.5918 67.3756 76.4447 67.4781 76.2709C67.5807 76.0971 67.6407 75.9016 67.6532 75.7002L53.4232 66.4302C53.392 66.9137 53.2471 67.3831 53.0004 67.8001C52.7537 68.2171 52.412 68.57 52.0032 68.8302C51.8681 68.9214 51.7128 68.9782 51.5507 68.9956C51.3886 69.013 51.2247 68.9906 51.0732 68.9302L66.6732 76.7002Z" fill="#FF8980"/>
<path d="M53.0527 65.55C53.1839 65.6601 53.2862 65.8005 53.3507 65.9591C53.4152 66.1177 53.44 66.2897 53.4228 66.4601L67.6527 75.6601C67.6579 75.5895 67.6472 75.5187 67.6212 75.4529C67.5952 75.3871 67.5547 75.328 67.5027 75.2801C62.6827 72.0467 57.8661 68.8034 53.0527 65.55Z" fill="#FF8980"/>
<path d="M67.6532 75.6602C67.6532 75.2802 67.4032 75.1302 67.0832 75.3102C66.9118 75.4173 66.7688 75.5641 66.6661 75.7382C66.5635 75.9122 66.5041 76.1084 66.4932 76.3102C66.4932 76.6802 66.7432 76.8402 67.0632 76.6602C67.2334 76.5518 67.3756 76.4047 67.4781 76.2309C67.5806 76.0571 67.6406 75.8616 67.6532 75.6602Z" fill="#FF8980"/>
<path d="M67.5031 75.2801C62.6831 72.0401 57.8664 68.7968 53.0531 65.5501C52.8958 65.4713 52.7206 65.4354 52.545 65.4459C52.3694 65.4564 52.1998 65.5131 52.0531 65.6101C51.6435 65.8719 51.3015 66.2265 51.0548 66.6453C50.808 67.064 50.6636 67.5351 50.6331 68.0201C50.6144 68.203 50.6466 68.3876 50.726 68.5534C50.8053 68.7192 50.9289 68.86 51.0831 68.9601L66.6831 76.7001C66.6191 76.659 66.5682 76.6004 66.5363 76.5313C66.5044 76.4623 66.4929 76.3855 66.5031 76.3101C66.514 76.1084 66.5733 75.9122 66.676 75.7381C66.7787 75.5641 66.9218 75.4173 67.0931 75.3101C67.1513 75.2663 67.221 75.2402 67.2937 75.2349C67.3664 75.2296 67.4391 75.2453 67.5031 75.2801Z" fill="#E84343"/>
<path d="M33.5432 64.19L37.9432 66.73V65.97L33.7532 63.54C33.5932 63.45 33.2832 63.44 33.2832 63.65C33.2831 63.7537 33.3065 63.8562 33.3515 63.9497C33.3965 64.0432 33.4621 64.1253 33.5432 64.19Z" fill="#C9DEFE"/>
<path d="M37.9426 65.5601C37.9426 65.1601 37.6626 64.9901 37.3226 65.1801C37.1398 65.2984 36.9868 65.4575 36.8758 65.6449C36.7648 65.8323 36.6986 66.0428 36.6826 66.2601C36.6826 66.6601 36.9526 66.8301 37.3026 66.6401C37.4855 66.5217 37.6384 66.3626 37.7495 66.1752C37.8605 65.9878 37.9266 65.7773 37.9426 65.5601Z" fill="#009FBD"/>
<path d="M39.9228 69.4301C40.0647 69.5437 40.241 69.6056 40.4228 69.6056C40.6046 69.6056 40.7809 69.5437 40.9228 69.4301C41.2889 69.1995 41.595 68.8853 41.8158 68.5132C42.0366 68.1411 42.1658 67.7219 42.1928 67.29L37.9728 65.54C37.9568 65.7573 37.8906 65.9678 37.7796 66.1552C37.6686 66.3426 37.5156 66.5017 37.3328 66.6201C37.2614 66.6713 37.1757 66.6989 37.0878 66.6989C36.9999 66.6989 36.9142 66.6713 36.8428 66.6201L39.9228 69.4301Z" fill="#009FBD"/>
<path d="M37.6924 65.1201C37.7762 65.1563 37.846 65.2189 37.8911 65.2982C37.9362 65.3776 37.9542 65.4696 37.9424 65.5601L42.1624 67.3101C42.1624 66.8301 41.9824 66.5201 41.6824 66.4301L37.6924 65.1201Z" fill="#009FBD"/>
<path d="M41.6828 66.43L37.6828 65.12C37.6203 65.1041 37.5552 65.1012 37.4916 65.1115C37.4279 65.1219 37.367 65.1452 37.3128 65.18C37.1299 65.2984 36.977 65.4575 36.8659 65.6449C36.7549 65.8322 36.6888 66.0428 36.6728 66.26C36.6646 66.3988 36.7113 66.5353 36.8028 66.64L39.9128 69.45C39.8174 69.3515 39.7447 69.2334 39.6997 69.1038C39.6548 68.9742 39.6388 68.8364 39.6528 68.7C39.6814 68.2672 39.8112 67.8472 40.0318 67.4738C40.2524 67.1003 40.5576 66.7839 40.9228 66.55C41.0333 66.4763 41.1585 66.4275 41.2896 66.4068C41.4208 66.386 41.5549 66.394 41.6828 66.43Z" fill="#5195FB"/>
<path d="M40.8924 69.5501C40.1524 69.9601 39.5624 69.6001 39.5724 68.7501C39.606 68.2877 39.7462 67.8394 39.9822 67.4403C40.2181 67.0413 40.5434 66.7023 40.9324 66.4501C41.6724 66.0401 42.2624 66.4501 42.2524 67.2601C42.2227 67.7221 42.084 68.1705 41.8476 68.5686C41.6112 68.9666 41.2839 69.303 40.8924 69.5501ZM42.1624 67.3101C42.1624 66.5001 41.6224 66.1701 40.9324 66.5501C40.5671 66.784 40.262 67.1004 40.0414 67.4739C39.8208 67.8473 39.691 68.2673 39.6624 68.7001C39.6624 69.5001 40.2024 69.8401 40.8924 69.4501C41.2585 69.2196 41.5646 68.9053 41.7854 68.5332C42.0062 68.1612 42.1354 67.7419 42.1624 67.3101Z" fill="#009FBD"/>
<path d="M42.2631 65.9901L42.0431 65.9001C41.9635 65.8891 41.8827 65.8891 41.8031 65.9001C41.6218 65.9 41.442 65.9339 41.2731 66.0001C41.0846 66.0775 40.9065 66.1782 40.7431 66.3001C40.5556 66.4403 40.3845 66.6014 40.2331 66.7801C40.155 66.8695 40.0816 66.963 40.0131 67.0601C39.9741 67.106 39.9406 67.1564 39.9131 67.2101L39.8131 67.3601L39.7231 67.5201C39.6661 67.6233 39.616 67.7302 39.5731 67.8401C39.5217 67.9501 39.4783 68.0638 39.4431 68.1801C39.3066 68.5994 39.2757 69.0459 39.3531 69.4801C39.3807 69.6176 39.4314 69.7495 39.5031 69.8701C39.5661 69.9739 39.6474 70.0654 39.7431 70.1401L39.8831 70.2301H39.9831H40.1131C40.1929 70.2375 40.2733 70.2375 40.3531 70.2301H40.5931C40.7326 70.2084 40.8676 70.1645 40.9931 70.1001C41.1398 70.0286 41.2803 69.945 41.4131 69.8501C41.5011 69.7821 41.5846 69.7086 41.6631 69.6301L41.7931 69.5101L42.0231 69.2501L42.2231 68.9601C42.3222 68.8088 42.4124 68.6519 42.4931 68.4901L42.6331 68.1601C42.6331 68.1601 42.6331 68.0501 42.6831 68.0001C42.7054 67.9418 42.7221 67.8815 42.7331 67.8201L42.8031 67.4901C42.8031 67.4401 42.8031 67.3701 42.8031 67.3201V67.1601C42.8022 67.1423 42.7959 67.1252 42.7853 67.111C42.7746 67.0967 42.7599 67.086 42.7431 67.0801C42.6331 67.0101 42.3631 67.1301 42.2331 67.2101C42.2035 67.6721 42.0648 68.1205 41.8284 68.5185C41.592 68.9166 41.2646 69.253 40.8731 69.5001C40.1331 69.9101 39.5431 69.5501 39.5531 68.7001C39.5867 68.2377 39.727 67.7894 39.9629 67.3903C40.1989 66.9912 40.5241 66.6523 40.9131 66.4001C41.6531 65.9901 42.2431 66.4001 42.2331 67.2101C42.3631 67.1301 42.6331 67.0101 42.7431 67.0801C42.7599 67.086 42.7746 67.0967 42.7853 67.111C42.7959 67.1252 42.8022 67.1423 42.8031 67.1601C42.8172 67.0472 42.8172 66.933 42.8031 66.8201C42.7879 66.7357 42.7678 66.6522 42.7431 66.5701C42.7431 66.5201 42.7431 66.4701 42.6931 66.4301C42.5909 66.2482 42.4426 66.0965 42.2631 65.9901Z" fill="#009FBD"/>
<path d="M41.2031 69.7301C40.4631 70.1401 39.8731 69.7801 39.8931 68.9301C39.92 68.4686 40.0565 68.0202 40.2913 67.622C40.5261 67.2237 40.8523 66.8871 41.243 66.6401C41.983 66.2201 42.5731 66.5801 42.5631 67.4401C42.5334 67.9021 42.3947 68.3505 42.1583 68.7486C41.9219 69.1466 41.5946 69.483 41.2031 69.7301ZM42.4731 67.4901C42.4731 66.6901 41.933 66.3501 41.243 66.7301C40.8778 66.964 40.5726 67.2805 40.3521 67.6539C40.1315 68.0273 40.0016 68.4474 39.9731 68.8801C39.9731 69.6801 40.5131 70.0201 41.2031 69.6301C41.5692 69.3996 41.8753 69.0853 42.0961 68.7132C42.3169 68.3412 42.4461 67.9219 42.4731 67.4901Z" fill="#5195FB"/>
<path d="M42.8228 67.2101C42.8228 67.1201 42.8228 67.0002 42.8228 66.9102V66.7601C42.8064 66.6706 42.7795 66.5834 42.7428 66.5002L42.6728 66.3701L42.5528 66.2001L42.4528 66.1002L42.3028 65.9901C42.2325 65.9531 42.1588 65.923 42.0828 65.9001H41.8628H41.7328H41.5928H41.4628L41.3128 65.9501L41.0528 66.0702L40.7828 66.2502L40.6428 66.3601L40.3928 66.6002C40.2252 66.7694 40.0775 66.9573 39.9528 67.1602C39.8528 67.3102 39.7828 67.4302 39.7628 67.4702C39.7428 67.5102 39.6828 67.6301 39.6128 67.7901C39.5628 67.9008 39.5194 68.0144 39.4828 68.1302C39.4468 68.2377 39.42 68.3481 39.4028 68.4601C39.3644 68.6275 39.3443 68.7985 39.3428 68.9702C39.3428 69.0602 39.3428 69.1801 39.3428 69.2701C39.3503 69.3657 39.3704 69.4599 39.4028 69.5501C39.4409 69.6719 39.4983 69.7866 39.5728 69.8901C39.6204 69.955 39.674 70.0153 39.7328 70.0702L39.8228 70.1302L39.9428 70.2001H40.0928H40.2028H40.3528H40.5828H40.7428C40.8853 70.1589 41.0228 70.1019 41.1528 70.0302L41.4128 69.8601L41.5528 69.7502C41.6455 69.677 41.7324 69.5967 41.8128 69.5101L42.0428 69.2502C42.0428 69.2502 42.1428 69.1201 42.2428 68.9601C42.3128 68.8611 42.3762 68.7575 42.4328 68.6501C42.4328 68.5701 42.4328 68.5601 42.5828 68.3301L42.6528 68.1602C42.7118 67.9972 42.7586 67.8301 42.7928 67.6602C42.8237 67.4952 42.8404 67.3279 42.8428 67.1602C42.8428 67.2402 42.7128 67.3201 42.5828 67.3901C42.5531 67.8521 42.4144 68.3006 42.178 68.6986C41.9416 69.0967 41.6143 69.433 41.2228 69.6801C40.4828 70.0901 39.8928 69.7302 39.9128 68.8802C39.9397 68.4187 40.0762 67.9702 40.311 67.572C40.5458 67.1738 40.872 66.8372 41.2628 66.5901C42.0028 66.1701 42.5928 66.5301 42.5828 67.3901C42.6928 67.3701 42.8228 67.2901 42.8228 67.2101Z" fill="#99C1FD"/>
<path d="M45.7531 73.08C45.912 73.1559 46.0882 73.1885 46.2638 73.1745C46.4394 73.1604 46.6082 73.1002 46.7531 73C47.1664 72.7448 47.5115 72.3931 47.7589 71.975C48.0062 71.557 48.1484 71.0851 48.1731 70.6L42.523 67.49C42.4961 67.9218 42.3669 68.341 42.1461 68.7131C41.9252 69.0852 41.6192 69.3995 41.2531 69.63C41.1273 69.7222 40.9784 69.7776 40.823 69.7899C40.6676 69.8023 40.5118 69.7711 40.373 69.7L45.7531 73.08Z" fill="#009FBD"/>
<path d="M42.0928 66.6501C42.2284 66.7405 42.336 66.8672 42.4032 67.0157C42.4704 67.1642 42.4945 67.3286 42.4728 67.4901L48.1228 70.6002C48.1435 70.4192 48.1144 70.2359 48.0387 70.0703C47.9629 69.9046 47.8433 69.7628 47.6928 69.6602L42.0928 66.6501Z" fill="#009FBD"/>
<path d="M47.6931 69.6601L42.0931 66.6601C41.9561 66.6012 41.8064 66.5776 41.6579 66.5916C41.5094 66.6055 41.3667 66.6566 41.2431 66.7401C40.8779 66.974 40.5727 67.2905 40.3521 67.6639C40.1315 68.0373 40.0017 68.4573 39.9731 68.8901C39.9562 69.0453 39.9795 69.2023 40.0408 69.3459C40.1021 69.4895 40.1993 69.615 40.3231 69.7101L45.7131 73.0901C45.5775 72.9807 45.4709 72.8394 45.4029 72.679C45.3349 72.5185 45.3075 72.3437 45.3231 72.1701C45.3536 71.6864 45.4981 71.2167 45.7449 70.7996C45.9917 70.3825 46.3338 70.0297 46.7431 69.7701C46.8797 69.6739 47.0382 69.6134 47.2041 69.5942C47.3701 69.575 47.5382 69.5977 47.6931 69.6601Z" fill="#69A4FC"/>
<path d="M61.3825 80.8501C61.4448 80.8752 61.5125 80.8838 61.579 80.875C61.6456 80.8662 61.7088 80.8404 61.7625 80.8001C61.9327 80.6917 62.0748 80.5446 62.1774 80.3708C62.2799 80.197 62.3399 80.0015 62.3525 79.8001L48.1225 70.6001C48.0978 71.0852 47.9556 71.557 47.7083 71.9751C47.4609 72.3931 47.1158 72.7449 46.7025 73.0001C46.5682 73.0929 46.4132 73.1515 46.2511 73.1707C46.089 73.1899 45.9247 73.169 45.7725 73.1101L61.3825 80.8501Z" fill="#009FBD"/>
<path d="M47.7529 69.7002C47.8861 69.8063 47.99 69.9447 48.0548 70.1022C48.1195 70.2597 48.143 70.4311 48.1229 70.6002L62.3529 79.8002C62.3647 79.7307 62.3569 79.6593 62.3304 79.5939C62.304 79.5286 62.2598 79.4719 62.2029 79.4302L47.7529 69.7002Z" fill="#009FBD"/>
<path d="M62.3524 79.8001C62.3524 79.4301 62.1024 79.2701 61.7824 79.4501C61.6122 79.5584 61.47 79.7055 61.3675 79.8793C61.2649 80.0531 61.2049 80.2487 61.1924 80.4501C61.1924 80.8201 61.4424 80.9801 61.7624 80.8001C61.9326 80.6917 62.0747 80.5446 62.1773 80.3708C62.2798 80.197 62.3398 80.0015 62.3524 79.8001Z" fill="#1C6DF6"/>
<path d="M62.2024 79.43L47.7523 69.7C47.5951 69.6212 47.4199 69.5853 47.2443 69.5958C47.0687 69.6063 46.899 69.663 46.7523 69.76C46.343 70.0196 46.0009 70.3724 45.7541 70.7895C45.5073 71.2067 45.3628 71.6763 45.3323 72.1601C45.3118 72.3446 45.343 72.5312 45.4224 72.6989C45.5019 72.8667 45.6265 73.0091 45.7823 73.11L61.3924 80.8501C61.3257 80.8086 61.2724 80.7488 61.2387 80.6779C61.205 80.607 61.1924 80.5279 61.2024 80.45C61.2149 80.2486 61.2749 80.0531 61.3774 79.8793C61.48 79.7055 61.6221 79.5584 61.7924 79.45C61.8525 79.41 61.9224 79.387 61.9946 79.3834C62.0668 79.3799 62.1386 79.396 62.2024 79.43Z" fill="#5195FB"/>
<path d="M98.4926 103.43C97.8834 103.426 97.2765 103.356 96.6826 103.22H96.6125C93.7384 102.962 90.9728 101.997 88.5626 100.41C87.4531 99.836 86.4951 99.0076 85.7669 97.9927C85.0387 96.9777 84.5609 95.8049 84.3726 94.57C84.1864 92.566 84.5313 90.5484 85.3726 88.72C81.6126 86.78 66.9326 76.31 66.8926 76.28L67.1926 75.74C67.1926 75.74 81.8926 86.22 85.6226 88.15C87.0318 85.2763 88.8732 82.6357 91.0826 80.32L91.5326 80.76C89.3779 83.038 87.5778 85.627 86.1926 88.44C88.8426 89.81 92.0526 91.44 95.4126 93.04C99.2626 94.89 101.803 97.39 102.203 99.72C102.302 100.195 102.28 100.687 102.14 101.152C102.001 101.616 101.747 102.038 101.403 102.38C101.012 102.739 100.553 103.017 100.053 103.198C99.5536 103.378 99.023 103.457 98.4926 103.43ZM88.8726 92.08C92.443 92.3097 95.8366 93.7164 98.5226 96.08C100.453 97.66 101.293 99.58 100.733 101.08C100.586 101.45 100.368 101.788 100.089 102.073C99.8113 102.358 99.4792 102.585 99.1125 102.74C99.8108 102.675 100.467 102.376 100.973 101.89C101.248 101.621 101.45 101.286 101.561 100.917C101.671 100.547 101.685 100.156 101.603 99.78C101.243 97.67 98.7726 95.29 95.1626 93.55C91.8126 91.94 88.6126 90.33 85.9626 88.96C85.1549 90.6675 84.81 92.5573 84.9626 94.44C85.1362 95.5802 85.5785 96.6628 86.2532 97.5983C86.9279 98.5338 87.8154 99.2953 88.8426 99.82C90.1494 100.622 91.5329 101.292 92.9726 101.82C91.0525 100.841 89.2896 99.5805 87.7426 98.08C86.8993 97.2941 86.2196 96.3493 85.7426 95.3C85.5315 94.9164 85.4469 94.4759 85.5007 94.0414C85.5546 93.6069 85.7442 93.2005 86.0426 92.88C86.8458 92.253 87.8579 91.9561 88.8726 92.05V92.08ZM96.6926 102.59C98.4526 102.59 99.6926 102.01 100.143 100.91C100.613 99.65 99.8426 98 98.1426 96.59C92.8626 92.26 87.7026 92.18 86.5326 93.35C86.328 93.5892 86.2027 93.8861 86.174 94.1995C86.1454 94.513 86.2147 94.8276 86.3726 95.1C86.8196 96.0665 87.4515 96.9362 88.2326 97.66C90.6 99.9731 93.5082 101.658 96.6926 102.56V102.59Z" fill="#FC9F9C"/>
<path d="M98.9624 104.76H98.7524C95.8139 104.464 92.9904 103.462 90.5224 101.84C89.4155 101.275 88.4608 100.453 87.7385 99.4414C87.0162 98.4303 86.5477 97.2603 86.3724 96.0301C86.2245 94.5822 86.3882 93.1194 86.8524 91.7401C80.1924 90.1901 61.8524 80.4501 61.7324 80.4401L61.7924 79.8201C61.8924 79.8201 80.3224 89.57 87.0524 91.14C88.502 87.6786 90.6034 84.5281 93.2424 81.86L93.6824 82.3C91.1452 84.9049 89.111 87.9561 87.6824 91.3C91.0787 92.0591 94.3891 93.1614 97.5624 94.5901C101.372 96.4101 103.872 98.8901 104.272 101.22C104.373 101.703 104.351 102.203 104.208 102.675C104.064 103.147 103.805 103.575 103.452 103.92C102.984 104.289 102.44 104.549 101.858 104.68C101.277 104.812 100.674 104.812 100.092 104.68C99.7185 104.737 99.3406 104.764 98.9624 104.76ZM91.1024 93.6801C94.6576 93.8987 98.0356 95.3077 100.692 97.6801C102.612 99.2601 103.452 101.18 102.892 102.68C102.682 103.251 102.288 103.737 101.772 104.06C102.246 104.004 102.69 103.801 103.042 103.48C103.321 103.202 103.525 102.859 103.637 102.481C103.749 102.104 103.764 101.705 103.682 101.32C103.322 99.2301 100.892 96.8601 97.3224 95.1501C94.1676 93.7344 90.8775 92.6422 87.5024 91.89C87.0507 93.1962 86.8869 94.5846 87.0224 95.9601C87.191 97.0942 87.6285 98.1715 88.2982 99.1022C88.968 100.033 89.8506 100.79 90.8724 101.31C92.8728 102.554 95.066 103.456 97.3624 103.98C93.1524 102.48 88.0724 98.9201 87.5724 96.3201C87.4964 95.9711 87.5219 95.6076 87.646 95.2727C87.77 94.9377 87.9874 94.6453 88.2724 94.4301C89.111 93.8832 90.1031 93.6203 91.1024 93.6801ZM91.1024 94.3101C90.2461 94.247 89.3918 94.4571 88.6624 94.9101C88.4637 95.0531 88.3126 95.2526 88.2287 95.4827C88.1449 95.7127 88.1323 95.9627 88.1924 96.2C88.6224 98.47 93.6924 102.2 98.2424 103.6C98.8499 103.793 99.4719 103.937 100.102 104.03C100.576 103.986 101.03 103.816 101.417 103.538C101.803 103.261 102.109 102.885 102.302 102.45C102.772 101.19 102.002 99.5301 100.302 98.1301C97.754 95.8561 94.512 94.51 91.1024 94.3101Z" fill="#81B2FC"/>
</svg>
