<svg width="48" height="48" viewBox="0 0 48 48" fill="none" xmlns="http://www.w3.org/2000/svg">
<circle opacity="0.2" cx="24" cy="24" r="24" fill="#D90F7E"/>
<g clip-path="url(#clip0_1802_30785)">
<path d="M17.7171 19.9997V19.1352H14.2788C14.267 19.1354 14.2551 19.135 14.2433 19.1339V19.9997C14.2437 20.4281 14.4141 20.8388 14.7171 21.1415C15.0201 21.4443 15.431 21.6144 15.8593 21.6144H16.1011C16.5295 21.6144 16.9403 21.4443 17.2433 21.1415C17.5463 20.8388 17.7167 20.4281 17.7171 19.9997ZM15.8593 22.1399C15.812 22.1399 15.7648 22.1386 15.7175 22.1347V27.7027C15.7556 27.7013 15.7937 27.7 15.8331 27.7C15.9702 27.6999 16.1071 27.7091 16.243 27.7276V22.1347C16.1957 22.1386 16.1484 22.1399 16.1011 22.1399H15.8593ZM29.8949 18.5506C30.15 18.4705 30.3728 18.3111 30.5309 18.0956C30.689 17.8801 30.7742 17.6197 30.7739 17.3523V14.2688H13.0215V17.3523C13.0214 17.5175 13.0538 17.6811 13.1169 17.8337C13.1801 17.9863 13.2726 18.125 13.3894 18.2418C13.4853 18.3372 13.5963 18.4162 13.7178 18.4757C13.8914 18.5646 14.0838 18.6105 14.2788 18.6097H29.5152C29.6441 18.6097 29.7722 18.5897 29.8949 18.5506ZM27.8506 21.6105C28.2614 21.5862 28.6474 21.4059 28.9297 21.1065C29.212 20.8071 29.3693 20.4112 29.3694 19.9997V19.1352H25.8957V19.9997C25.8959 20.4148 26.0561 20.8139 26.3428 21.114C26.6295 21.4142 27.0208 21.5924 27.4355 21.6118C27.4608 21.614 27.4862 21.6149 27.5117 21.6144H27.7534C27.7863 21.6144 27.8191 21.6131 27.8506 21.6105ZM31.0892 26.5531L28.1699 22.0992C28.0327 22.1262 27.8932 22.1398 27.7534 22.1399H27.5668L30.6175 26.7909C30.7677 26.6984 30.9255 26.6188 31.0892 26.5531ZM23.7633 20.0417V19.1352H20.2896V20.0417C20.2896 20.4703 20.4598 20.8814 20.7629 21.1844C21.0659 21.4875 21.477 21.6577 21.9056 21.6577H22.1473C22.5759 21.6577 22.9869 21.4875 23.29 21.1844C23.5931 20.8814 23.7633 20.4703 23.7633 20.0417ZM21.9056 22.1833C21.8583 22.1833 21.811 22.182 21.7637 22.178V27.7079C21.8333 27.7027 21.9043 27.7 21.9752 27.7C22.0801 27.7 22.1849 27.7052 22.2892 27.7158V22.178C22.2419 22.182 22.1946 22.1833 22.1473 22.1833H21.9056ZM16.243 28.2571C16.1074 28.2359 15.9703 28.2254 15.8331 28.2256C15.795 28.2256 15.7556 28.2269 15.7175 28.2282C15.0243 28.2577 14.3692 28.5528 13.8876 29.0522C13.4061 29.5516 13.1351 30.2171 13.1309 30.9108C13.1266 31.6046 13.3893 32.2733 13.8647 32.7787C14.34 33.284 14.9915 33.5871 15.6842 33.6252C16.3769 33.6633 17.0577 33.4334 17.5856 32.9833C18.1134 32.5332 18.448 31.8972 18.5198 31.2072C18.5916 30.5172 18.3953 29.826 17.9714 29.2768C17.5475 28.7276 16.9287 28.3625 16.243 28.2571ZM22.2892 28.2453C22.1851 28.232 22.0802 28.2255 21.9752 28.2256C21.9043 28.2256 21.8333 28.2282 21.7637 28.2348C21.0714 28.2884 20.4263 28.6063 19.9621 29.1226C19.4978 29.6389 19.25 30.314 19.2699 31.0081C19.2898 31.7021 19.5759 32.3619 20.069 32.8507C20.5621 33.3395 21.2244 33.6199 21.9186 33.6338C22.6128 33.6477 23.2857 33.394 23.7979 32.9253C24.3102 32.4566 24.6225 31.8088 24.6701 31.1161C24.7178 30.4234 24.4971 29.7389 24.0539 29.2045C23.6106 28.67 22.9788 28.3266 22.2892 28.2453ZM32.2992 26.8434C31.9871 26.8433 31.6773 26.8971 31.3835 27.0024C31.2167 27.062 31.0564 27.1386 30.9053 27.231C30.3459 27.5681 29.9275 28.0965 29.7277 28.7183C29.528 29.3401 29.5603 30.0133 29.8187 30.6132C30.0771 31.213 30.5441 31.6989 31.1332 31.9809C31.7223 32.2629 32.3937 32.3218 33.0229 32.1469C33.6522 31.9719 34.1968 31.5749 34.5558 31.0293C34.9148 30.4837 35.064 29.8264 34.9757 29.1793C34.8874 28.5322 34.5676 27.9389 34.0755 27.5095C33.5834 27.08 32.9524 26.8434 32.2992 26.8434Z" fill="#D90F7E"/>
</g>
<defs>
<clipPath id="clip0_1802_30785">
<rect width="22" height="22" fill="white" transform="translate(13 13)"/>
</clipPath>
</defs>
</svg>
