<svg width="40" height="40" viewBox="0 0 40 40" fill="none" xmlns="http://www.w3.org/2000/svg">
<circle cx="20" cy="20" r="20" fill="white" fill-opacity="0.2"/>
<g clip-path="url(#clip0_2732_56508)">
<path d="M15.2883 16.3632V15.5773H12.1626C12.1518 15.5775 12.141 15.5771 12.1303 15.5761V16.3632C12.1306 16.7527 12.2855 17.126 12.561 17.4013C12.8365 17.6765 13.21 17.8311 13.5994 17.8311H13.8192C14.2086 17.8311 14.5821 17.6765 14.8576 17.4013C15.133 17.126 15.288 16.7527 15.2883 16.3632ZM13.5994 18.3089C13.5564 18.3089 13.5134 18.3077 13.4704 18.3041V23.3659C13.505 23.3647 13.5397 23.3635 13.5755 23.3635C13.7002 23.3634 13.8247 23.3718 13.9482 23.3886V18.3041C13.9052 18.3077 13.8622 18.3089 13.8192 18.3089H13.5994ZM26.359 15.0458C26.5909 14.9731 26.7935 14.8282 26.9372 14.6322C27.0809 14.4363 27.1583 14.1996 27.1581 13.9565V11.1533H11.0195V13.9565C11.0194 14.1067 11.0489 14.2554 11.1063 14.3941C11.1637 14.5329 11.2478 14.6589 11.354 14.7651C11.4412 14.8519 11.5421 14.9237 11.6526 14.9777C11.8104 15.0586 11.9853 15.1004 12.1626 15.0996H26.0139C26.131 15.0996 26.2474 15.0815 26.359 15.0458ZM24.5006 17.8276C24.874 17.8055 25.2249 17.6416 25.4816 17.3695C25.7382 17.0973 25.8812 16.7373 25.8813 16.3632V15.5773H22.7233V16.3632C22.7236 16.7406 22.8692 17.1034 23.1298 17.3763C23.3905 17.6491 23.7462 17.8112 24.1231 17.8287C24.1462 17.8308 24.1693 17.8316 24.1924 17.8311H24.4122C24.442 17.8311 24.4719 17.8299 24.5006 17.8276ZM27.4447 22.3208L24.7908 18.2719C24.6661 18.2964 24.5393 18.3088 24.4122 18.3089H24.2426L27.0159 22.537C27.1525 22.4529 27.2959 22.3806 27.4447 22.3208ZM20.7848 16.4015V15.5773H17.6269V16.4015C17.6269 16.7911 17.7817 17.1648 18.0572 17.4403C18.3327 17.7158 18.7063 17.8705 19.096 17.8705H19.3157C19.7054 17.8705 20.079 17.7158 20.3545 17.4403C20.6301 17.1648 20.7848 16.7911 20.7848 16.4015ZM19.096 18.3483C19.053 18.3483 19.01 18.3471 18.967 18.3435V23.3707C19.0303 23.3659 19.0948 23.3635 19.1593 23.3635C19.2546 23.3635 19.3499 23.3683 19.4447 23.3779V18.3435C19.4017 18.3471 19.3587 18.3483 19.3157 18.3483H19.096ZM13.9482 23.87C13.8249 23.8507 13.7003 23.8411 13.5755 23.8413C13.5409 23.8413 13.505 23.8425 13.4704 23.8437C12.8403 23.8705 12.2447 24.1388 11.8069 24.5928C11.3692 25.0468 11.1228 25.6518 11.119 26.2824C11.1151 26.9131 11.3539 27.5211 11.786 27.9805C12.2182 28.4398 12.8104 28.7154 13.4402 28.75C14.0699 28.7846 14.6888 28.5757 15.1687 28.1665C15.6486 27.7573 15.9527 27.1792 16.018 26.5519C16.0833 25.9246 15.9048 25.2962 15.5195 24.797C15.1341 24.2977 14.5715 23.9658 13.9482 23.87ZM19.4447 23.8592C19.3501 23.8472 19.2547 23.8412 19.1593 23.8413C19.0948 23.8413 19.0303 23.8437 18.967 23.8496C18.3377 23.8984 17.7512 24.1874 17.3292 24.6568C16.9071 25.1262 16.6818 25.7399 16.6999 26.3708C16.718 27.0018 16.9781 27.6016 17.4264 28.046C17.8747 28.4904 18.4767 28.7453 19.1078 28.7579C19.7389 28.7705 20.3506 28.5399 20.8163 28.1138C21.282 27.6877 21.5659 27.0987 21.6092 26.469C21.6525 25.8393 21.4519 25.217 21.049 24.7312C20.646 24.2453 20.0716 23.9331 19.4447 23.8592ZM28.5448 22.5848C28.261 22.5847 27.9794 22.6336 27.7123 22.7293C27.5606 22.7835 27.4149 22.8531 27.2775 22.9371C26.769 23.2436 26.3887 23.7239 26.207 24.2892C26.0254 24.8545 26.0548 25.4665 26.2897 26.0118C26.5246 26.5571 26.9492 26.9989 27.4847 27.2552C28.0203 27.5116 28.6306 27.5652 29.2027 27.4061C29.7747 27.2471 30.2698 26.8861 30.5962 26.3901C30.9226 25.8941 31.0582 25.2966 30.9779 24.7083C30.8976 24.12 30.6069 23.5807 30.1595 23.1903C29.7122 22.7999 29.1385 22.5848 28.5448 22.5848Z" fill="white"/>
</g>
<defs>
<clipPath id="clip0_2732_56508">
<rect width="20" height="20" fill="white" transform="translate(11 10)"/>
</clipPath>
</defs>
</svg>
