<svg width="14" height="16" viewBox="0 0 14 16" fill="none" xmlns="http://www.w3.org/2000/svg">
<path d="M4.75 7.25C4.75 7.84674 4.98705 8.41903 5.40901 8.84099C5.83097 9.26295 6.40326 9.5 7 9.5C7.59674 9.5 8.16903 9.26295 8.59099 8.84099C9.01295 8.41903 9.25 7.84674 9.25 7.25C9.25 6.65326 9.01295 6.08097 8.59099 5.65901C8.16903 5.23705 7.59674 5 7 5C6.40326 5 5.83097 5.23705 5.40901 5.65901C4.98705 6.08097 4.75 6.65326 4.75 7.25Z" stroke="white" stroke-opacity="0.8" stroke-width="1.5" stroke-linecap="round" stroke-linejoin="round"/>
<path d="M11.2428 11.4929L8.0605 14.6751C7.77924 14.9561 7.39794 15.114 7.00038 15.114C6.60282 15.114 6.22151 14.9561 5.94025 14.6751L2.75725 11.4929C1.91817 10.6538 1.34675 9.58467 1.11527 8.42079C0.883782 7.25692 1.00262 6.05053 1.45676 4.95419C1.91089 3.85786 2.67993 2.9208 3.66661 2.26153C4.6533 1.60225 5.81333 1.25037 7 1.25037C8.18668 1.25037 9.3467 1.60225 10.3334 2.26153C11.3201 2.9208 12.0891 3.85786 12.5433 4.95419C12.9974 6.05053 13.1162 7.25692 12.8847 8.42079C12.6533 9.58467 12.0818 10.6538 11.2428 11.4929Z" stroke="white" stroke-opacity="0.8" stroke-width="1.5" stroke-linecap="round" stroke-linejoin="round"/>
</svg>
