<svg width="12" height="14" viewBox="0 0 12 14" fill="none" xmlns="http://www.w3.org/2000/svg">
<path d="M0.5 1.00021V13.0002C0.499962 13.1337 0.535531 13.2647 0.603036 13.3798C0.670541 13.4949 0.767538 13.5899 0.884018 13.6551C1.0005 13.7202 1.13225 13.753 1.26566 13.7503C1.39908 13.7475 1.52934 13.7091 1.643 13.6392L11.393 7.63921C11.5022 7.57211 11.5924 7.47814 11.6549 7.36628C11.7175 7.25441 11.7503 7.12838 11.7503 7.00021C11.7503 6.87204 11.7175 6.74601 11.6549 6.63415C11.5924 6.52228 11.5022 6.42831 11.393 6.36121L1.643 0.361211C1.52934 0.291285 1.39908 0.252951 1.26566 0.250164C1.13225 0.247377 1.0005 0.280238 0.884018 0.345357C0.767538 0.410476 0.670541 0.505494 0.603036 0.620609C0.535531 0.735723 0.499962 0.866764 0.5 1.00021Z" fill="white"/>
</svg>
