<svg width="16" height="16" viewBox="0 0 16 16" fill="none" xmlns="http://www.w3.org/2000/svg">
<path d="M3.45508 11.8541C4.40106 11.9763 5.22634 12.3604 5.81069 12.8897C5.93307 13.0005 5.88749 13.3534 5.74098 13.4295C5.04137 13.793 4.14556 13.9549 3.19958 13.8327C2.2536 13.7105 1.42832 13.3264 0.843973 12.7971C0.721589 12.6863 0.767173 12.3334 0.913683 12.2573C1.61329 11.8939 2.5091 11.7319 3.45508 11.8541Z" fill="url(#paint0_linear_2970_15696)"/>
<path d="M3.45508 11.8541C4.40106 11.9763 5.22634 12.3604 5.81069 12.8897C5.93307 13.0005 5.88749 13.3534 5.74098 13.4295C5.04137 13.793 4.14556 13.9549 3.19958 13.8327C2.2536 13.7105 1.42832 13.3264 0.843973 12.7971C0.721589 12.6863 0.767173 12.3334 0.913683 12.2573C1.61329 11.8939 2.5091 11.7319 3.45508 11.8541Z" fill="url(#paint1_linear_2970_15696)"/>
<path d="M3.56495 10.5293C4.57662 10.9679 5.37031 11.659 5.84994 12.4339C5.95036 12.5962 5.78675 12.9736 5.59965 13.0113C4.70616 13.191 3.65922 13.084 2.64758 12.6454C1.63591 12.2068 0.842218 11.5158 0.362594 10.7408C0.262171 10.5785 0.425779 10.2011 0.612885 10.1634C1.50637 9.98378 2.55328 10.0908 3.56495 10.5293Z" fill="url(#paint2_linear_2970_15696)"/>
<path d="M3.56495 10.5293C4.57662 10.9679 5.37031 11.659 5.84994 12.4339C5.95036 12.5962 5.78675 12.9736 5.59965 13.0113C4.70616 13.191 3.65922 13.084 2.64758 12.6454C1.63591 12.2068 0.842218 11.5158 0.362594 10.7408C0.262171 10.5785 0.425779 10.2011 0.612885 10.1634C1.50637 9.98378 2.55328 10.0908 3.56495 10.5293Z" fill="url(#paint3_linear_2970_15696)"/>
<path d="M5.38703 8.40289C5.79224 9.42836 5.86486 10.4782 5.65599 11.3654C5.61225 11.5512 5.2297 11.7023 5.07079 11.5966C4.31192 11.0919 3.6473 10.2759 3.24209 9.25045C2.83688 8.22497 2.76425 7.17509 2.97313 6.28797C3.01687 6.10218 3.39942 5.95103 3.55832 6.05672C4.31719 6.56145 4.98182 7.37738 5.38703 8.40289Z" fill="url(#paint4_linear_2970_15696)"/>
<path d="M5.38703 8.40289C5.79224 9.42836 5.86486 10.4782 5.65599 11.3654C5.61225 11.5512 5.2297 11.7023 5.07079 11.5966C4.31192 11.0919 3.6473 10.2759 3.24209 9.25045C2.83688 8.22497 2.76425 7.17509 2.97313 6.28797C3.01687 6.10218 3.39942 5.95103 3.55832 6.05672C4.31719 6.56145 4.98182 7.37738 5.38703 8.40289Z" fill="url(#paint5_linear_2970_15696)"/>
<path d="M3.9103 8.44143C4.94183 9.3688 5.61254 10.5102 5.875 11.6263C5.92997 11.86 5.58402 12.2449 5.34578 12.215C4.20815 12.0723 3.00206 11.5265 1.97053 10.599C0.939004 9.67167 0.26829 8.53025 0.0058273 7.41417C-0.0491374 7.18044 0.296808 6.79563 0.535051 6.82549C1.67265 6.96814 2.87877 7.51406 3.9103 8.44143Z" fill="url(#paint6_linear_2970_15696)"/>
<path d="M0.478516 8.68227C0.829418 9.36547 1.3305 10.0235 1.97069 10.599C3.00222 11.5264 4.2083 12.0723 5.34593 12.215C5.58418 12.2448 5.93012 11.8601 5.87516 11.6263C5.6127 10.5102 4.94198 9.36879 3.91045 8.44142C3.30305 7.89532 2.63506 7.48167 1.95623 7.20459L0.478516 8.68227Z" fill="url(#paint7_linear_2970_15696)"/>
<path d="M12.5453 11.8542C11.5993 11.9764 10.774 12.3605 10.1897 12.8898C10.0673 13.0006 10.1129 13.3535 10.2594 13.4296C10.959 13.7931 11.8548 13.955 12.8008 13.8328C13.7468 13.7107 14.572 13.3265 15.1564 12.7973C15.2788 12.6864 15.2332 12.3335 15.0867 12.2574C14.3871 11.894 13.4913 11.7321 12.5453 11.8542Z" fill="url(#paint8_linear_2970_15696)"/>
<path d="M12.5453 11.8542C11.5993 11.9764 10.774 12.3605 10.1897 12.8898C10.0673 13.0006 10.1129 13.3535 10.2594 13.4296C10.959 13.7931 11.8548 13.955 12.8008 13.8328C13.7468 13.7107 14.572 13.3265 15.1564 12.7973C15.2788 12.6864 15.2332 12.3335 15.0867 12.2574C14.3871 11.894 13.4913 11.7321 12.5453 11.8542Z" fill="url(#paint9_linear_2970_15696)"/>
<path d="M12.4347 10.5296C11.423 10.9682 10.6293 11.6592 10.1497 12.4342C10.0493 12.5965 10.2129 12.9739 10.4 13.0115C11.2935 13.1912 12.3404 13.0842 13.3521 12.6456C14.3637 12.207 15.1574 11.516 15.637 10.741C15.7375 10.5787 15.5739 10.2013 15.3868 10.1637C14.4933 9.98402 13.4464 10.091 12.4347 10.5296Z" fill="url(#paint10_linear_2970_15696)"/>
<path d="M12.4347 10.5296C11.423 10.9682 10.6293 11.6592 10.1497 12.4342C10.0493 12.5965 10.2129 12.9739 10.4 13.0115C11.2935 13.1912 12.3404 13.0842 13.3521 12.6456C14.3637 12.207 15.1574 11.516 15.637 10.741C15.7375 10.5787 15.5739 10.2013 15.3868 10.1637C14.4933 9.98402 13.4464 10.091 12.4347 10.5296Z" fill="url(#paint11_linear_2970_15696)"/>
<path d="M10.6132 8.40301C10.208 9.42849 10.1353 10.4784 10.3442 11.3655C10.388 11.5513 10.7705 11.7024 10.9294 11.5967C11.6883 11.092 12.3529 10.276 12.7581 9.25057C13.1633 8.2251 13.236 7.17521 13.0271 6.28809C12.9833 6.1023 12.6008 5.95115 12.4419 6.05685C11.683 6.56157 11.0184 7.3775 10.6132 8.40301Z" fill="url(#paint12_linear_2970_15696)"/>
<path d="M10.6132 8.40301C10.208 9.42849 10.1353 10.4784 10.3442 11.3655C10.388 11.5513 10.7705 11.7024 10.9294 11.5967C11.6883 11.092 12.3529 10.276 12.7581 9.25057C13.1633 8.2251 13.236 7.17521 13.0271 6.28809C12.9833 6.1023 12.6008 5.95115 12.4419 6.05685C11.683 6.56157 11.0184 7.3775 10.6132 8.40301Z" fill="url(#paint13_linear_2970_15696)"/>
<path d="M12.0897 8.44155C11.0581 9.36893 10.3874 10.5104 10.125 11.6264C10.07 11.8602 10.4159 12.245 10.6542 12.2151C11.7918 12.0725 12.9979 11.5266 14.0294 10.5992C15.061 9.6718 15.7317 8.53037 15.9941 7.41429C16.0491 7.18056 15.7032 6.79575 15.4649 6.82562C14.3273 6.96827 13.1212 7.51418 12.0897 8.44155Z" fill="url(#paint14_linear_2970_15696)"/>
<path d="M15.5216 8.68239C15.1707 9.36559 14.6696 10.0236 14.0294 10.5992C12.9979 11.5265 11.7918 12.0724 10.6542 12.2151C10.4159 12.245 10.07 11.8602 10.125 11.6264C10.3874 10.5103 11.0581 9.36892 12.0897 8.44154C12.6971 7.89544 13.3651 7.48179 14.0439 7.20471L15.5216 8.68239Z" fill="url(#paint15_linear_2970_15696)"/>
<path d="M7.99979 16C10.7552 16 12.9888 13.7663 12.9888 11.0109C12.9888 8.25552 10.7552 6.02185 7.99979 6.02185C5.24442 6.02185 3.01074 8.25552 3.01074 11.0109C3.01074 13.7663 5.24442 16 7.99979 16Z" fill="url(#paint16_linear_2970_15696)"/>
<path d="M8.00007 14.9876C10.1963 14.9876 11.9767 13.2072 11.9767 11.0109C11.9767 8.8147 10.1963 7.0343 8.00007 7.0343C5.80383 7.0343 4.02344 8.8147 4.02344 11.0109C4.02344 13.2072 5.80383 14.9876 8.00007 14.9876Z" fill="url(#paint17_linear_2970_15696)"/>
<path d="M7.9999 14.4248C9.88538 14.4248 11.4139 12.8964 11.4139 11.0109C11.4139 9.12541 9.88538 7.59692 7.9999 7.59692C6.11442 7.59692 4.58594 9.12541 4.58594 11.0109C4.58594 12.8964 6.11442 14.4248 7.9999 14.4248Z" fill="url(#paint18_linear_2970_15696)"/>
<path d="M3.01074 11.0109C3.01074 13.7663 5.24441 16 7.99979 16C10.7552 16 12.9888 13.7663 12.9888 11.0109C12.9888 10.9916 12.9883 10.9723 12.9881 10.953H3.01146C3.01124 10.9723 3.01074 10.9916 3.01074 11.0109Z" fill="url(#paint19_linear_2970_15696)"/>
<path d="M9.39892 15.8008C10.971 15.3423 12.2219 14.1312 12.7356 12.5835L10.3057 10.1536L9.75788 10.1805L8.27942 8.70203L6.47754 12.8794L9.39892 15.8008Z" fill="url(#paint20_linear_2970_15696)"/>
<path d="M10.0453 9.92685L9.06692 9.69046C8.97591 9.66846 8.89638 9.61328 8.84389 9.53573L8.27988 8.702C8.21164 8.60117 8.10714 8.54705 7.9996 8.53833C7.89205 8.54705 7.78752 8.60117 7.71931 8.702L7.1553 9.53573C7.10284 9.61328 7.02331 9.66846 6.93227 9.69046L5.95385 9.92685C5.68844 9.99097 5.57785 10.3077 5.74563 10.5231L6.36427 11.3172C6.42181 11.3911 6.44973 11.4837 6.44251 11.5771L6.36499 12.5807C6.34397 12.8529 6.61105 13.056 6.86777 12.963L7.81412 12.62C7.87392 12.5983 7.9377 12.5927 7.9996 12.6023C8.06152 12.5928 8.12527 12.5983 8.18507 12.62L9.13142 12.963C9.38811 13.056 9.65522 12.8529 9.6342 12.5807L9.55668 11.5771C9.54946 11.4837 9.57738 11.3911 9.63492 11.3172L10.2536 10.5231C10.4213 10.3077 10.3107 9.99097 10.0453 9.92685Z" fill="url(#paint21_linear_2970_15696)"/>
<path d="M8.18547 12.62L9.13183 12.963C9.38852 13.056 9.65562 12.8529 9.6346 12.5807L9.55708 11.5771C9.54987 11.4837 9.57779 11.3911 9.63533 11.3172L10.254 10.5231C10.4218 10.3078 10.3112 9.99097 10.0457 9.92685L9.06733 9.69046C8.97631 9.66846 8.89678 9.61328 8.8443 9.53573L8.28028 8.702C8.21205 8.60117 8.10755 8.54705 8 8.53833V12.6023C8.06193 12.5927 8.12571 12.5983 8.18547 12.62Z" fill="url(#paint22_linear_2970_15696)"/>
<path d="M10.0449 9.92689L9.06646 9.6905C9.03305 9.68243 9.00124 9.66979 8.97172 9.65332L6.47754 12.8795C6.57539 12.974 6.723 13.0153 6.86731 12.963L7.81366 12.6201C7.87346 12.5984 7.93724 12.5928 7.99914 12.6024C8.06107 12.5928 8.12482 12.5984 8.18461 12.6201L9.13097 12.963C9.38766 13.056 9.65476 12.853 9.63374 12.5808L9.55622 11.5772C9.54901 11.4838 9.57693 11.3911 9.63446 11.3173L10.2531 10.5232C10.4209 10.3078 10.3103 9.99101 10.0449 9.92689Z" fill="url(#paint23_linear_2970_15696)"/>
<path d="M5.95385 9.92689L6.93227 9.6905C6.96568 9.68243 6.99749 9.66979 7.02701 9.65332L9.5212 12.8795C9.42334 12.974 9.27574 13.0153 9.13142 12.963L8.18507 12.6201C8.12527 12.5984 8.06149 12.5928 7.9996 12.6024C7.93767 12.5928 7.87392 12.5984 7.81412 12.6201L6.86777 12.963C6.61108 13.056 6.34397 12.853 6.36499 12.5808L6.44251 11.5772C6.44973 11.4838 6.42181 11.3911 6.36427 11.3173L5.74563 10.5232C5.57785 10.3078 5.68844 9.99101 5.95385 9.92689Z" fill="url(#paint24_linear_2970_15696)"/>
<path d="M5.69304 10.1536C5.64651 10.2709 5.65768 10.4107 5.74524 10.5231L6.36387 11.3172C6.42141 11.3911 6.44933 11.4837 6.44212 11.5771L6.3646 12.5807C6.34358 12.8529 6.61065 13.056 6.86737 12.9629L7.81373 12.62C7.87352 12.5983 7.9373 12.5927 7.9992 12.6023C8.06113 12.5927 8.12488 12.5983 8.18467 12.62L9.13103 12.9629C9.38772 13.056 9.65482 12.8529 9.6338 12.5807L9.55628 11.5771C9.55227 11.5253 9.55945 11.4738 9.57614 11.4255L5.69304 10.1536Z" fill="url(#paint25_linear_2970_15696)"/>
<path d="M10.3062 10.1536C10.3527 10.2709 10.3416 10.4107 10.254 10.5231L9.63535 11.3172C9.57782 11.3911 9.54989 11.4837 9.55711 11.5771L9.63463 12.5807C9.65565 12.8529 9.38854 13.056 9.13185 12.9629L8.1855 12.62C8.12571 12.5983 8.06192 12.5927 8.00003 12.6023C7.9381 12.5927 7.87435 12.5983 7.81455 12.62L6.8682 12.9629C6.61151 13.056 6.3444 12.8529 6.36542 12.5807L6.44294 11.5771C6.44696 11.5253 6.43978 11.4738 6.42309 11.4255L10.3062 10.1536Z" fill="url(#paint26_linear_2970_15696)"/>
<path d="M7.99981 6.02185C7.97911 6.02185 7.95856 6.02238 7.93791 6.02264L7.16797 6.79258L12.7887 12.4133C12.9188 11.9684 12.9889 11.4978 12.9889 11.0109C12.9889 8.25551 10.7552 6.02185 7.99981 6.02185Z" fill="url(#paint27_linear_2970_15696)"/>
<path d="M4.98828 0.104614V2.73991L8.00005 5.75167L11.0118 2.73991V0.104614H4.98828Z" fill="url(#paint28_linear_2970_15696)"/>
<path d="M4.98828 0.104614V0.924756L7.98998 3.92645C7.99553 3.932 8.00456 3.932 8.01012 3.92645L11.0118 0.924756V0.104614H4.98828Z" fill="url(#paint29_linear_2970_15696)"/>
<path d="M4.98828 0.104614V0.924756L7.98998 3.92645C7.99553 3.932 8.00456 3.932 8.01012 3.92645L11.0118 0.924756V0.104614H4.98828Z" fill="url(#paint30_linear_2970_15696)"/>
<path d="M8.00005 4.40094C7.87587 4.40094 7.75173 4.35369 7.65724 4.25917L4.98828 1.59021V2.73989L8.00005 5.75165L11.0118 2.73989V1.59021L8.34285 4.25917C8.24836 4.35366 8.12422 4.40094 8.00005 4.40094Z" fill="url(#paint31_linear_2970_15696)"/>
<path d="M8.00005 4.40094C7.87587 4.40094 7.75173 4.35369 7.65724 4.25917L4.98828 1.59021V2.73989L8.00005 5.75165L11.0118 2.73989V1.59021L8.34285 4.25917C8.24836 4.35366 8.12422 4.40094 8.00005 4.40094Z" fill="url(#paint32_linear_2970_15696)"/>
<path d="M8.00005 4.40094C8.12422 4.40094 8.24836 4.35369 8.34285 4.25917L11.0118 1.59021V2.73989L8.00005 5.75165L4.98828 2.73989V1.59021L7.65724 4.25917C7.75173 4.35366 7.87591 4.40094 8.00005 4.40094Z" fill="url(#paint33_linear_2970_15696)"/>
<path d="M7.66969 5.06744L5.10674 2.50449C4.91455 2.3123 4.60293 2.3123 4.41074 2.50449C4.21855 2.69668 4.21855 3.0083 4.41074 3.20049L7.99995 6.78976L11.5892 3.20052C11.7814 3.00834 11.7814 2.69671 11.5892 2.50452C11.397 2.31234 11.0854 2.31234 10.8932 2.50452L8.33024 5.06747C8.14781 5.24987 7.85209 5.24987 7.66969 5.06744Z" fill="url(#paint34_linear_2970_15696)"/>
<path d="M4.41081 2.51033L7.62213 5.72165C7.83085 5.93038 8.16927 5.93038 8.37799 5.72165L11.5893 2.51033C11.5902 2.50939 11.591 2.50835 11.5919 2.50741C11.591 2.50647 11.5902 2.50543 11.5893 2.50449C11.3971 2.3123 11.0855 2.3123 10.8933 2.50449L8.33034 5.06744C8.14794 5.24984 7.85219 5.24984 7.66979 5.06744L5.10684 2.50449C4.91465 2.3123 4.60303 2.3123 4.41084 2.50449C4.4099 2.50543 4.40914 2.50647 4.4082 2.50741C4.40911 2.50835 4.40987 2.50939 4.41081 2.51033Z" fill="url(#paint35_linear_2970_15696)"/>
<path d="M7.99947 6.78972L10.5331 4.2561H9.14105L8.32973 5.06743C8.14733 5.24983 7.85158 5.24983 7.66918 5.06743L6.85785 4.2561H5.46582L7.99947 6.78972Z" fill="url(#paint36_linear_2970_15696)"/>
<path d="M7.68652 6.47606L8.00025 6.78978L11.2136 3.57642H9.82158L8.33054 5.06746C8.15344 5.24456 7.86986 5.24917 7.68652 5.08242V6.47606Z" fill="url(#paint37_linear_2970_15696)"/>
<path d="M8.00063 7.13724C8.65034 7.13724 9.17703 6.61054 9.17703 5.96083C9.17703 5.31112 8.65034 4.78442 8.00063 4.78442C7.35091 4.78442 6.82422 5.31112 6.82422 5.96083C6.82422 6.61054 7.35091 7.13724 8.00063 7.13724Z" fill="url(#paint38_linear_2970_15696)"/>
<path d="M8.00062 6.63527C8.37311 6.63527 8.67507 6.33331 8.67507 5.96082C8.67507 5.58834 8.37311 5.28638 8.00062 5.28638C7.62813 5.28638 7.32617 5.58834 7.32617 5.96082C7.32617 6.33331 7.62813 6.63527 8.00062 6.63527Z" fill="url(#paint39_linear_2970_15696)"/>
<path d="M11.467 1.17123H4.53357C4.33436 1.17123 4.17285 1.00973 4.17285 0.81051V0.360722C4.17285 0.161506 4.33436 0 4.53357 0H11.4671C11.6662 0 11.8278 0.161506 11.8278 0.360722V0.810541C11.8278 1.00976 11.6662 1.17123 11.467 1.17123Z" fill="url(#paint40_linear_2970_15696)"/>
<defs>
<linearGradient id="paint0_linear_2970_15696" x1="2.28181" y1="11.4019" x2="3.3171" y2="12.8293" gradientUnits="userSpaceOnUse">
<stop stop-color="#FEF0AE"/>
<stop offset="1" stop-color="#FBC56D"/>
</linearGradient>
<linearGradient id="paint1_linear_2970_15696" x1="2.18753" y1="12.3174" x2="3.81891" y2="13.0703" gradientUnits="userSpaceOnUse">
<stop stop-color="#DC8758" stop-opacity="0"/>
<stop offset="0.9957" stop-color="#DC8758" stop-opacity="0.996"/>
<stop offset="1" stop-color="#DC8758"/>
</linearGradient>
<linearGradient id="paint2_linear_2970_15696" x1="1.21916" y1="10.185" x2="2.92896" y2="11.4556" gradientUnits="userSpaceOnUse">
<stop stop-color="#FEF0AE"/>
<stop offset="1" stop-color="#FBC56D"/>
</linearGradient>
<linearGradient id="paint3_linear_2970_15696" x1="1.93596" y1="11.6062" x2="3.23268" y2="11.5853" gradientUnits="userSpaceOnUse">
<stop stop-color="#DC8758" stop-opacity="0"/>
<stop offset="0.9957" stop-color="#DC8758" stop-opacity="0.996"/>
<stop offset="1" stop-color="#DC8758"/>
</linearGradient>
<linearGradient id="paint4_linear_2970_15696" x1="4.65464" y1="7.26228" x2="4.26248" y2="9.0662" gradientUnits="userSpaceOnUse">
<stop stop-color="#FEF0AE"/>
<stop offset="1" stop-color="#FBC56D"/>
</linearGradient>
<linearGradient id="paint5_linear_2970_15696" x1="2.96008" y1="7.44396" x2="3.964" y2="8.46877" gradientUnits="userSpaceOnUse">
<stop stop-color="#DC8758" stop-opacity="0"/>
<stop offset="0.9957" stop-color="#DC8758" stop-opacity="0.996"/>
<stop offset="1" stop-color="#DC8758"/>
</linearGradient>
<linearGradient id="paint6_linear_2970_15696" x1="2.35695" y1="7.69555" x2="3.21969" y2="10.3936" gradientUnits="userSpaceOnUse">
<stop stop-color="#FEF0AE"/>
<stop offset="1" stop-color="#FBC56D"/>
</linearGradient>
<linearGradient id="paint7_linear_2970_15696" x1="2.53091" y1="9.16468" x2="3.63939" y2="10.1268" gradientUnits="userSpaceOnUse">
<stop stop-color="#DC8758" stop-opacity="0"/>
<stop offset="0.9957" stop-color="#DC8758" stop-opacity="0.996"/>
<stop offset="1" stop-color="#DC8758"/>
</linearGradient>
<linearGradient id="paint8_linear_2970_15696" x1="13.7185" y1="11.402" x2="12.6832" y2="12.8294" gradientUnits="userSpaceOnUse">
<stop stop-color="#FEF0AE"/>
<stop offset="1" stop-color="#FBC56D"/>
</linearGradient>
<linearGradient id="paint9_linear_2970_15696" x1="13.8128" y1="12.3175" x2="12.1815" y2="13.0704" gradientUnits="userSpaceOnUse">
<stop stop-color="#DC8758" stop-opacity="0"/>
<stop offset="0.9957" stop-color="#DC8758" stop-opacity="0.996"/>
<stop offset="1" stop-color="#DC8758"/>
</linearGradient>
<linearGradient id="paint10_linear_2970_15696" x1="14.7805" y1="10.1853" x2="13.0707" y2="11.4559" gradientUnits="userSpaceOnUse">
<stop stop-color="#FEF0AE"/>
<stop offset="1" stop-color="#FBC56D"/>
</linearGradient>
<linearGradient id="paint11_linear_2970_15696" x1="14.0637" y1="11.6065" x2="12.767" y2="11.5856" gradientUnits="userSpaceOnUse">
<stop stop-color="#DC8758" stop-opacity="0"/>
<stop offset="0.9957" stop-color="#DC8758" stop-opacity="0.996"/>
<stop offset="1" stop-color="#DC8758"/>
</linearGradient>
<linearGradient id="paint12_linear_2970_15696" x1="11.3456" y1="7.2624" x2="11.7377" y2="9.06632" gradientUnits="userSpaceOnUse">
<stop stop-color="#FEF0AE"/>
<stop offset="1" stop-color="#FBC56D"/>
</linearGradient>
<linearGradient id="paint13_linear_2970_15696" x1="13.0401" y1="7.44408" x2="12.0362" y2="8.46889" gradientUnits="userSpaceOnUse">
<stop stop-color="#DC8758" stop-opacity="0"/>
<stop offset="0.9957" stop-color="#DC8758" stop-opacity="0.996"/>
<stop offset="1" stop-color="#DC8758"/>
</linearGradient>
<linearGradient id="paint14_linear_2970_15696" x1="13.643" y1="7.69567" x2="12.7803" y2="10.3937" gradientUnits="userSpaceOnUse">
<stop stop-color="#FEF0AE"/>
<stop offset="1" stop-color="#FBC56D"/>
</linearGradient>
<linearGradient id="paint15_linear_2970_15696" x1="13.4692" y1="9.16481" x2="12.3607" y2="10.1269" gradientUnits="userSpaceOnUse">
<stop stop-color="#DC8758" stop-opacity="0"/>
<stop offset="0.9957" stop-color="#DC8758" stop-opacity="0.996"/>
<stop offset="1" stop-color="#DC8758"/>
</linearGradient>
<linearGradient id="paint16_linear_2970_15696" x1="4.92384" y1="7.93495" x2="10.1855" y2="13.1966" gradientUnits="userSpaceOnUse">
<stop stop-color="#FEF0AE"/>
<stop offset="1" stop-color="#FBC56D"/>
</linearGradient>
<linearGradient id="paint17_linear_2970_15696" x1="10.5828" y1="13.5937" x2="5.34193" y2="8.3528" gradientUnits="userSpaceOnUse">
<stop stop-color="#FEF0AE"/>
<stop offset="1" stop-color="#FBC56D"/>
</linearGradient>
<linearGradient id="paint18_linear_2970_15696" x1="5.51805" y1="8.52903" x2="9.60329" y2="12.6143" gradientUnits="userSpaceOnUse">
<stop stop-color="#FEF0AE"/>
<stop offset="1" stop-color="#FBC56D"/>
</linearGradient>
<linearGradient id="paint19_linear_2970_15696" x1="7.99979" y1="12.4706" x2="7.99979" y2="15.7453" gradientUnits="userSpaceOnUse">
<stop stop-color="#DC8758" stop-opacity="0"/>
<stop offset="0.9957" stop-color="#DC8758" stop-opacity="0.996"/>
<stop offset="1" stop-color="#DC8758"/>
</linearGradient>
<linearGradient id="paint20_linear_2970_15696" x1="10.9877" y1="13.6038" x2="6.86741" y2="11.0103" gradientUnits="userSpaceOnUse">
<stop stop-color="#DC8758" stop-opacity="0"/>
<stop offset="0.9957" stop-color="#DC8758" stop-opacity="0.996"/>
<stop offset="1" stop-color="#DC8758"/>
</linearGradient>
<linearGradient id="paint21_linear_2970_15696" x1="6.96035" y1="10.0626" x2="8.83442" y2="11.9367" gradientUnits="userSpaceOnUse">
<stop stop-color="#FBC56D"/>
<stop offset="1" stop-color="#C5715A"/>
</linearGradient>
<linearGradient id="paint22_linear_2970_15696" x1="9.12292" y1="10.5736" x2="6.53271" y2="11.6444" gradientUnits="userSpaceOnUse">
<stop stop-color="#8C3D27" stop-opacity="0"/>
<stop offset="1" stop-color="#8C3D27"/>
</linearGradient>
<linearGradient id="paint23_linear_2970_15696" x1="8.44576" y1="11.4928" x2="7.02766" y2="10.8851" gradientUnits="userSpaceOnUse">
<stop stop-color="#8C3D27" stop-opacity="0"/>
<stop offset="1" stop-color="#8C3D27"/>
</linearGradient>
<linearGradient id="paint24_linear_2970_15696" x1="7.55298" y1="11.4928" x2="8.97108" y2="10.8851" gradientUnits="userSpaceOnUse">
<stop stop-color="#8C3D27" stop-opacity="0"/>
<stop offset="1" stop-color="#8C3D27"/>
</linearGradient>
<linearGradient id="paint25_linear_2970_15696" x1="7.58411" y1="11.5639" x2="8.49573" y2="10.0988" gradientUnits="userSpaceOnUse">
<stop stop-color="#8C3D27" stop-opacity="0"/>
<stop offset="1" stop-color="#8C3D27"/>
</linearGradient>
<linearGradient id="paint26_linear_2970_15696" x1="8.34484" y1="11.3789" x2="8.26889" y2="9.94632" gradientUnits="userSpaceOnUse">
<stop stop-color="#8C3D27" stop-opacity="0"/>
<stop offset="1" stop-color="#8C3D27"/>
</linearGradient>
<linearGradient id="paint27_linear_2970_15696" x1="10.4583" y1="8.90323" x2="8.53412" y2="5.53592" gradientUnits="userSpaceOnUse">
<stop stop-color="#DC8758" stop-opacity="0"/>
<stop offset="0.9957" stop-color="#DC8758" stop-opacity="0.996"/>
<stop offset="1" stop-color="#DC8758"/>
</linearGradient>
<linearGradient id="paint28_linear_2970_15696" x1="8.22317" y1="1.77812" x2="9.46238" y2="3.75459" gradientUnits="userSpaceOnUse">
<stop stop-color="#F9F5F3"/>
<stop offset="1" stop-color="#D8E8F0"/>
</linearGradient>
<linearGradient id="paint29_linear_2970_15696" x1="6.98712" y1="-0.646852" x2="10.8355" y2="3.7662" gradientUnits="userSpaceOnUse">
<stop stop-color="#FD4755"/>
<stop offset="1" stop-color="#A72B2B"/>
</linearGradient>
<linearGradient id="paint30_linear_2970_15696" x1="8.00005" y1="2.08632" x2="8.00005" y2="1.04996" gradientUnits="userSpaceOnUse">
<stop stop-color="#A72B2B" stop-opacity="0"/>
<stop offset="1" stop-color="#42210B"/>
</linearGradient>
<linearGradient id="paint31_linear_2970_15696" x1="6.16961" y1="0.0660059" x2="10.018" y2="4.47906" gradientUnits="userSpaceOnUse">
<stop stop-color="#FD4755"/>
<stop offset="1" stop-color="#A72B2B"/>
</linearGradient>
<linearGradient id="paint32_linear_2970_15696" x1="9.19205" y1="3.35702" x2="9.72758" y2="3.89255" gradientUnits="userSpaceOnUse">
<stop stop-color="#A72B2B" stop-opacity="0"/>
<stop offset="1" stop-color="#42210B"/>
</linearGradient>
<linearGradient id="paint33_linear_2970_15696" x1="6.80805" y1="3.35702" x2="6.27252" y2="3.89255" gradientUnits="userSpaceOnUse">
<stop stop-color="#A72B2B" stop-opacity="0"/>
<stop offset="1" stop-color="#42210B"/>
</linearGradient>
<linearGradient id="paint34_linear_2970_15696" x1="10.7195" y1="5.57207" x2="4.28626" y2="-0.861186" gradientUnits="userSpaceOnUse">
<stop stop-color="#FEF0AE"/>
<stop offset="1" stop-color="#FBC56D"/>
</linearGradient>
<linearGradient id="paint35_linear_2970_15696" x1="8.00005" y1="2.56203" x2="8.00005" y2="6.95541" gradientUnits="userSpaceOnUse">
<stop stop-color="#FEF0AE"/>
<stop offset="1" stop-color="#FBC56D"/>
</linearGradient>
<linearGradient id="paint36_linear_2970_15696" x1="7.99947" y1="5.11361" x2="7.99947" y2="6.55813" gradientUnits="userSpaceOnUse">
<stop stop-color="#DC8758" stop-opacity="0"/>
<stop offset="0.9957" stop-color="#DC8758" stop-opacity="0.996"/>
<stop offset="1" stop-color="#DC8758"/>
</linearGradient>
<linearGradient id="paint37_linear_2970_15696" x1="9.48314" y1="4.29576" x2="8.6047" y2="5.18987" gradientUnits="userSpaceOnUse">
<stop stop-color="#DC8758" stop-opacity="0"/>
<stop offset="0.9957" stop-color="#DC8758" stop-opacity="0.996"/>
<stop offset="1" stop-color="#DC8758"/>
</linearGradient>
<linearGradient id="paint38_linear_2970_15696" x1="7.32612" y1="5.28632" x2="8.9898" y2="6.95001" gradientUnits="userSpaceOnUse">
<stop stop-color="#FBC56D"/>
<stop offset="1" stop-color="#C5715A"/>
</linearGradient>
<linearGradient id="paint39_linear_2970_15696" x1="8.65944" y1="6.61965" x2="7.10095" y2="5.06115" gradientUnits="userSpaceOnUse">
<stop stop-color="#FBC56D"/>
<stop offset="1" stop-color="#C5715A"/>
</linearGradient>
<linearGradient id="paint40_linear_2970_15696" x1="8.0003" y1="0.355545" x2="8.0003" y2="1.00929" gradientUnits="userSpaceOnUse">
<stop stop-color="#FEF0AE"/>
<stop offset="1" stop-color="#FBC56D"/>
</linearGradient>
</defs>
</svg>
