<svg width="18" height="18" viewBox="0 0 18 18" fill="none" xmlns="http://www.w3.org/2000/svg">
<path d="M11.1625 14.054C10.7643 14.2173 10.4688 14.5596 10.3669 14.9757C10.033 16.3414 8.07513 16.3414 7.74124 14.9757C7.69114 14.7705 7.59293 14.5799 7.4546 14.4196C7.31627 14.2592 7.14173 14.1334 6.94518 14.0526C6.74864 13.9718 6.53564 13.9382 6.32354 13.9545C6.11143 13.9709 5.9062 14.0367 5.72455 14.1466C4.51517 14.8777 3.13022 13.5041 3.86698 12.3032C3.97757 12.123 4.04376 11.9195 4.06017 11.7092C4.07658 11.4988 4.04274 11.2876 3.9614 11.0927C3.88007 10.8978 3.75354 10.7247 3.59208 10.5874C3.43063 10.4501 3.23883 10.3526 3.03225 10.3028C1.65592 9.97144 1.65592 8.02856 3.03225 7.69722C3.23901 7.64751 3.43102 7.55005 3.59265 7.41278C3.75429 7.27551 3.88097 7.10231 3.9624 6.90727C4.04383 6.71223 4.0777 6.50087 4.06126 6.29039C4.04481 6.07991 3.97852 5.87625 3.86776 5.696C3.131 4.49589 4.51517 3.12156 5.72534 3.85267C6.50913 4.32556 7.52491 3.90711 7.74124 3.02433C8.07513 1.65856 10.033 1.65856 10.3669 3.02433C10.417 3.22951 10.5152 3.42005 10.6536 3.58044C10.7919 3.74084 10.9664 3.86655 11.163 3.94736C11.3595 4.02816 11.5725 4.06177 11.7846 4.04545C11.9967 4.02913 12.202 3.96335 12.3836 3.85344C13.593 3.12233 14.9779 4.49589 14.2412 5.69678C14.1306 5.87695 14.0644 6.08048 14.048 6.29082C14.0316 6.50116 14.0654 6.71238 14.1468 6.9073C14.2281 7.10221 14.3546 7.27534 14.5161 7.4126C14.6775 7.54985 14.8693 7.64737 15.0759 7.69722C15.2803 7.74196 15.4708 7.83467 15.6316 7.96756C15.7924 8.10045 15.9187 8.26966 16 8.461" stroke="#36454F" stroke-linecap="round" stroke-linejoin="round"/>
<path d="M10.9656 9.3691C11.0513 8.91283 10.9756 8.44096 10.7515 8.0344C10.5273 7.62784 10.1687 7.31193 9.73717 7.14081C9.30561 6.9697 8.82796 6.95405 8.38612 7.09654C7.94428 7.23904 7.56578 7.53081 7.31551 7.92182C7.06524 8.31283 6.95879 8.77873 7.01441 9.23963C7.07004 9.70053 7.28427 10.1277 7.62038 10.448C7.95649 10.7682 8.39353 10.9616 8.85659 10.9948C9.31964 11.0281 9.77985 10.8993 10.1583 10.6304" stroke="#36454F" stroke-linecap="round" stroke-linejoin="round"/>
<path d="M14.25 16.5V16.5071" stroke="#36454F" stroke-linecap="round" stroke-linejoin="round"/>
<path d="M14.25 14.2499C14.5862 14.2489 14.9124 14.135 15.1762 13.9267C15.4401 13.7183 15.6264 13.4274 15.7054 13.1006C15.7844 12.7738 15.7515 12.4299 15.6119 12.124C15.4723 11.8182 15.2341 11.5679 14.9355 11.4134C14.6371 11.2606 14.2958 11.2132 13.9671 11.279C13.6384 11.3448 13.3416 11.5198 13.125 11.7757" stroke="#36454F" stroke-linecap="round" stroke-linejoin="round"/>
</svg>
