<svg width="40" height="40" viewBox="0 0 40 40" fill="none" xmlns="http://www.w3.org/2000/svg">
<circle cx="20" cy="20" r="20" fill="white" fill-opacity="0.2"/>
<g clip-path="url(#clip0_2732_56721)">
<path d="M26.7386 21.9616L23.6449 20.7716C23.8553 19.7765 23.6571 18.6985 23.0161 17.8158L26.2491 14.5828C27.8824 15.5766 30 14.3978 30 12.4706C30 11.1083 28.8917 10 27.5294 10C25.6005 10 24.4244 12.1193 25.4172 13.7509L22.1842 16.9839C20.7962 15.976 18.8932 16.0449 17.5795 17.1704L15.9341 15.7718C16.755 14.1381 15.5613 12.1961 13.7255 12.1961C12.3632 12.1961 11.2549 13.3044 11.2549 14.6667C11.2549 16.6886 13.5554 17.8393 15.1718 16.6678L16.8168 18.0662C16.0387 19.3424 16.1002 20.9673 16.984 22.1842L14.8322 24.336C12.7969 22.9562 10 24.4109 10 26.902C10 28.6102 11.3898 30 13.098 30C15.5871 30 17.0453 27.2052 15.664 25.1679L17.8158 23.0161C18.7176 23.671 19.8435 23.8759 20.8918 23.6174L22.2292 26.7785C20.9642 27.9011 21.76 30 23.451 30C24.4673 30 25.2941 29.1732 25.2941 28.1569C25.2941 27.1007 24.3965 26.2385 23.3124 26.3195L21.9748 23.1576C22.4883 22.8352 22.9161 22.3931 23.2216 21.8693L26.3157 23.0595C26.2716 24.1135 27.1171 24.9804 28.1569 24.9804C29.1732 24.9804 30 24.1536 30 23.1373C30 21.4277 27.8437 20.6307 26.7386 21.9616Z" fill="white"/>
</g>
<defs>
<clipPath id="clip0_2732_56721">
<rect width="20" height="20" fill="white" transform="translate(10 10)"/>
</clipPath>
</defs>
</svg>
