<svg width="48" height="48" viewBox="0 0 48 48" fill="none" xmlns="http://www.w3.org/2000/svg">
<circle opacity="0.2" cx="24" cy="24" r="24" fill="#FDB71C"/>
<g clip-path="url(#clip0_1802_30831)">
<path d="M31.4124 26.1577L28.0094 24.8487C28.2409 23.7542 28.0228 22.5683 27.3177 21.5974L30.874 18.0411C32.6706 19.1342 35 17.8376 35 15.7176C35 14.2191 33.7809 13 32.2824 13C30.1606 13 28.8668 15.3312 29.9589 17.126L26.4026 20.6823C24.8758 19.5736 22.7825 19.6494 21.3374 20.8875L19.5275 19.349C20.4305 17.5519 19.1174 15.4157 17.098 15.4157C15.5995 15.4157 14.3804 16.6348 14.3804 18.1333C14.3804 20.3574 16.911 21.6232 18.6889 20.3346L20.4985 21.8728C19.6425 23.2766 19.7103 25.064 20.6824 26.4026L18.3154 28.7696C16.0766 27.2518 13 28.8519 13 31.5922C13 33.4713 14.5287 35 16.4078 35C19.1458 35 20.7498 31.9257 19.2304 29.6847L21.5974 27.3177C22.5893 28.0381 23.8279 28.2635 24.981 27.9791L26.4521 31.4564C25.0606 32.6912 25.936 35 27.7961 35C28.914 35 29.8235 34.0905 29.8235 32.9725C29.8235 31.8108 28.8361 30.8623 27.6437 30.9514L26.1723 27.4734C26.7372 27.1187 27.2078 26.6324 27.5437 26.0562L30.9473 27.3654C30.8988 28.5249 31.8288 29.4784 32.9725 29.4784C34.0905 29.4784 35 28.5689 35 27.451C35 25.5705 32.6281 24.6937 31.4124 26.1577Z" fill="#FDB71C"/>
</g>
<defs>
<clipPath id="clip0_1802_30831">
<rect width="22" height="22" fill="white" transform="translate(13 13)"/>
</clipPath>
</defs>
</svg>
