<svg width="28" height="28" viewBox="0 0 28 28" fill="none" xmlns="http://www.w3.org/2000/svg">
<g clip-path="url(#clip0_1839_7432)">
<path d="M12.7838 1.90967L11.2475 0.281784L10.4599 2.38327C11.2173 2.15037 11.9956 1.99176 12.7838 1.90967Z" fill="#FAA644"/>
<path d="M14.0042 1.84856C14.4235 1.84856 14.8377 1.87063 15.2451 1.91137L14.0721 0L12.8839 1.90288C13.2472 1.86893 13.624 1.84856 14.0042 1.84856Z" fill="#FAA644"/>
<path d="M17.6569 2.40873L16.8913 0.303848L15.3398 1.92325C16.1262 2.00931 16.9022 2.17191 17.6569 2.40873Z" fill="#FAA644"/>
<path d="M10.372 2.40194L8.53188 1.10846L8.19238 3.33726C8.88643 2.95466 9.61647 2.64138 10.372 2.40194Z" fill="#FAA644"/>
<path d="M8.11056 3.37415L6.05151 2.47279L6.15676 4.72535C6.76267 4.21266 7.41702 3.76013 8.11056 3.37415Z" fill="#FAA644"/>
<path d="M21.9417 4.80511L22.0673 2.55934L20.0032 3.43524C20.6923 3.82789 21.3415 4.28667 21.9417 4.80511Z" fill="#FAA644"/>
<path d="M25.7814 11.0066L27.1733 9.22932L24.9666 8.76761C25.3118 9.48507 25.5847 10.2351 25.7814 11.0066Z" fill="#FAA644"/>
<path d="M6.09442 4.77933L3.8877 4.31083L4.44447 6.50058C4.93715 5.87452 5.48975 5.29804 6.09442 4.77933Z" fill="#FAA644"/>
<path d="M27.9996 14.8183L26.1324 13.5112C26.1324 13.681 26.1442 13.8337 26.1442 13.9967C26.144 14.6385 26.0934 15.2793 25.9932 15.9132L27.9996 14.8183Z" fill="#FAA644"/>
<path d="M26.14 13.4522L27.8715 11.9822L25.7988 11.0809C25.9906 11.8581 26.1049 12.6525 26.14 13.4522Z" fill="#FAA644"/>
<path d="M23.6392 6.59562L24.2146 4.41945L22.0079 4.86249C22.6068 5.38565 23.1532 5.96612 23.6392 6.59562Z" fill="#FAA644"/>
<path d="M24.9344 8.6899L25.9359 6.67329H23.6884C24.1687 7.3031 24.5861 7.97854 24.9344 8.6899Z" fill="#FAA644"/>
<path d="M19.9204 3.38818L19.5944 1.16787L17.751 2.44098C18.5035 2.6845 19.2302 3.00178 19.9204 3.38818Z" fill="#FAA644"/>
<path d="M3.68665 20.4136L2.87695 22.5626L5.17535 22.3454C4.61611 21.7526 4.1174 21.1054 3.68665 20.4136Z" fill="#FAA644"/>
<path d="M22.7432 22.4319L25.0484 22.6848L24.2556 20.5172C23.8165 21.2041 23.3098 21.8456 22.7432 22.4319Z" fill="#FAA644"/>
<path d="M5.18383 22.345L4.82227 24.6281L7.029 23.9491C6.36187 23.4775 5.74372 22.9401 5.18383 22.345Z" fill="#FAA644"/>
<path d="M14.0046 26.145C11.5136 26.1469 9.0829 25.3792 7.04492 23.9471L7.14847 26.2655L9.18545 25.1487L9.75411 27.3992L11.5195 25.8938L12.5295 27.9864L13.9571 26.1552L15.366 28L16.3947 25.921L18.1465 27.4484L18.7372 25.2048L20.7538 26.3385L20.8811 24.0201L23.0878 24.7295L22.7484 22.4333C21.6162 23.609 20.2581 24.5438 18.7555 25.1817C17.253 25.8195 15.637 26.1472 14.0046 26.145Z" fill="#FAA644"/>
<path d="M24.2656 20.4989L26.5606 20.2799L25.3553 18.3278C25.0653 19.086 24.7002 19.8133 24.2656 20.4989Z" fill="#FAA644"/>
<path d="M4.39781 6.56128L2.14355 6.5477L3.1281 8.58468C3.48416 7.87032 3.90943 7.1926 4.39781 6.56128Z" fill="#FAA644"/>
<path d="M25.3689 18.296L27.557 17.617L25.9936 15.9568C25.8635 16.7554 25.6543 17.5389 25.3689 18.296Z" fill="#FAA644"/>
<path d="M2.23762 10.957L0.158203 11.8346L1.87266 13.3216C1.91652 12.5233 2.03876 11.7313 2.23762 10.957Z" fill="#FAA644"/>
<path d="M3.09931 8.6488L0.892578 9.09015L2.25057 10.8844C2.45867 10.1129 2.74298 9.36402 3.09931 8.6488Z" fill="#FAA644"/>
<path d="M1.99286 15.838L0.415894 17.4778L2.59037 18.1704C2.31346 17.4149 2.11329 16.6336 1.99286 15.838Z" fill="#FAA644"/>
<path d="M1.85391 13.9967C1.85391 13.7913 1.85391 13.5876 1.86919 13.3839L0.00195312 14.6689L1.98801 15.7842C1.89944 15.1925 1.85462 14.595 1.85391 13.9967Z" fill="#FAA644"/>
<path d="M2.60734 18.2141L1.38855 20.139L3.67166 20.3818C3.24527 19.6966 2.88871 18.9704 2.60734 18.2141Z" fill="#FAA644"/>
<path d="M19.9981 5.35494L19.9047 3.40793L18.2072 4.35513C18.8354 4.6291 19.4352 4.96397 19.9981 5.35494Z" fill="#FAA644"/>
<path d="M18.1271 4.31965L17.6416 2.43714L16.1699 3.70516C16.8409 3.84544 17.4964 4.05126 18.1271 4.31965Z" fill="#FAA644"/>
<path d="M16.0887 3.68828L15.24 1.94157L14.0518 3.48288C14.7358 3.48499 15.418 3.55378 16.0887 3.68828Z" fill="#FAA644"/>
<path d="M9.80979 4.35512L8.11231 3.40962L8.02234 5.35324C8.58396 4.96269 9.18267 4.62837 9.80979 4.35512Z" fill="#FAA644"/>
<path d="M11.8433 3.70347L10.3699 2.43545L9.88953 4.31796C10.5194 4.05052 11.1738 3.84473 11.8433 3.70347Z" fill="#FAA644"/>
<path d="M13.9635 3.48288L12.7753 1.94157L11.9265 3.68828C12.5972 3.55378 13.2794 3.48499 13.9635 3.48288Z" fill="#FAA644"/>
<path d="M21.6196 6.74492L21.9183 4.81319L20.0596 5.39882C20.6227 5.79498 21.1452 6.24588 21.6196 6.74492Z" fill="#FAA644"/>
<path d="M24.4115 12.4152L25.7695 10.991L23.9023 10.4071C24.1382 11.0579 24.3088 11.7306 24.4115 12.4152Z" fill="#FAA644"/>
<path d="M7.95274 5.39712L6.09399 4.81149L6.39275 6.74153C6.86754 6.24348 7.39004 5.79319 7.95274 5.39712Z" fill="#FAA644"/>
<path d="M22.9309 8.42851L23.6099 6.59522L21.668 6.79383C22.1413 7.29619 22.5643 7.84369 22.9309 8.42851Z" fill="#FAA644"/>
<path d="M23.8751 10.3446L24.9106 8.68449L22.9686 8.48758C23.3314 9.07512 23.635 9.69718 23.8751 10.3446Z" fill="#FAA644"/>
<path d="M26.1375 13.4231L24.418 12.4708C24.4929 12.9795 24.5309 13.4929 24.5317 14.0071C24.5317 14.1887 24.5317 14.3703 24.5164 14.5503L26.1375 13.4231Z" fill="#FAA644"/>
<path d="M22.3069 20.4781C21.4325 21.5985 20.3402 22.5302 19.0959 23.2169C17.8515 23.9037 16.4809 24.3314 15.0668 24.4741C13.6526 24.6169 12.2242 24.4717 10.8676 24.0475C9.5111 23.6232 8.25458 22.9286 7.17386 22.0056L7.07031 24.0099L8.91717 23.214L9.21932 25.2031L10.8676 24.0524L11.5652 25.9396L12.947 24.4818L14.0096 26.1891L15.0706 24.4818L16.454 25.9413L17.15 24.0541L18.7982 25.2048L19.1021 23.2157L20.9472 24.0116L20.8437 22.0056L22.8111 22.4112L22.3069 20.4781Z" fill="#FAA644"/>
<path d="M4.5744 18.6876L3.7002 20.4683H5.69474C5.26282 19.9136 4.8875 19.317 4.5744 18.6876Z" fill="#FAA644"/>
<path d="M5.70693 20.4781L5.20618 22.4099L7.17356 22.0059C6.6346 21.5472 6.14324 21.0353 5.70693 20.4781Z" fill="#FAA644"/>
<path d="M22.3117 20.4683H24.3181L23.4388 18.6791C23.1239 19.3117 22.7463 19.9111 22.3117 20.4683Z" fill="#FAA644"/>
<path d="M24.1942 16.6598L26.0156 15.8807L24.5167 14.594C24.4775 15.2916 24.3695 15.9835 24.1942 16.6598Z" fill="#FAA644"/>
<path d="M23.4473 18.6608L25.3977 18.2619L24.184 16.6951C24.0045 17.3732 23.7577 18.0317 23.4473 18.6608Z" fill="#FAA644"/>
<path d="M3.49307 14.5974L2.00098 15.8773L3.81219 16.6548C3.63821 15.9812 3.53132 15.292 3.49307 14.5974Z" fill="#FAA644"/>
<path d="M4.11809 10.4071L2.25085 10.9893L3.59866 12.4067C3.70546 11.7247 3.87945 11.0549 4.11809 10.4071Z" fill="#FAA644"/>
<path d="M5.04153 8.48588L3.09961 8.68109L4.13168 10.3378C4.37357 9.6922 4.67832 9.0719 5.04153 8.48588Z" fill="#FAA644"/>
<path d="M3.47599 14.0071C3.47624 13.493 3.51368 12.9796 3.58802 12.4708L1.87695 13.4197L3.48956 14.5435C3.48108 14.3686 3.47599 14.187 3.47599 14.0071Z" fill="#FAA644"/>
<path d="M3.8258 16.7002L2.61719 18.2602L4.55911 18.6574C4.25016 18.031 4.0045 17.3754 3.8258 16.7002Z" fill="#FAA644"/>
<path d="M6.34177 6.79383L4.40155 6.59353L5.08054 8.42342C5.44648 7.84017 5.86893 7.29434 6.34177 6.79383Z" fill="#FAA644"/>
<path d="M13.0286 4.90676L11.8828 3.69645L11.3057 5.25814C11.8674 5.08628 12.4444 4.96862 13.0286 4.90676Z" fill="#FAA644"/>
<path d="M11.2119 5.28857L9.8539 4.33628L9.60437 5.98454C10.1166 5.70139 10.6549 5.46832 11.2119 5.28857Z" fill="#FAA644"/>
<path d="M14.0042 4.85418C14.3013 4.85418 14.595 4.86945 14.8835 4.89661L14.0042 3.48091L13.1232 4.89661C13.4135 4.86436 13.7072 4.85418 14.0042 4.85418Z" fill="#FAA644"/>
<path d="M8.00063 7.10104L6.36426 6.76154L6.78523 8.38094C7.1481 7.91608 7.55514 7.48745 8.00063 7.10104Z" fill="#FAA644"/>
<path d="M9.51309 6.03188L7.98535 5.37156L8.07192 7.04188C8.51899 6.66001 9.00158 6.3218 9.51309 6.03188Z" fill="#FAA644"/>
<path d="M6.72886 8.45363H5.05853L5.79694 9.9559C6.05862 9.42638 6.3707 8.9233 6.72886 8.45363Z" fill="#FAA644"/>
<path d="M16.702 5.25814L16.1265 3.69645L14.9824 4.90676C15.5655 4.9685 16.1414 5.08617 16.702 5.25814Z" fill="#FAA644"/>
<path d="M19.9399 7.04188L20.0248 5.37156L18.4971 6.03188C19.0092 6.32171 19.4923 6.65992 19.9399 7.04188Z" fill="#FAA644"/>
<path d="M23.1469 13.5319L24.4234 12.4353L22.8838 11.7767C23.028 12.3519 23.1161 12.9397 23.1469 13.5319Z" fill="#FAA644"/>
<path d="M18.4129 5.98454L18.1617 4.33628L16.8037 5.28857C17.3611 5.46861 17.9 5.70167 18.4129 5.98454Z" fill="#FAA644"/>
<path d="M24.5325 14.5687L23.149 13.6063C23.149 13.7387 23.1592 13.8728 23.1592 14.0069C23.1592 14.4688 23.1246 14.9301 23.0557 15.3869L24.5325 14.5687Z" fill="#FAA644"/>
<path d="M22.8634 11.6938L23.8819 10.3681L22.2472 10.0286C22.5056 10.5626 22.712 11.1203 22.8634 11.6938Z" fill="#FAA644"/>
<path d="M22.2112 9.9559L22.9496 8.45363H21.2793C21.6375 8.9233 21.9495 9.42638 22.2112 9.9559Z" fill="#FAA644"/>
<path d="M5.7548 10.0337L4.12012 10.3732L5.13861 11.6989C5.29003 11.1253 5.49638 10.5677 5.7548 10.0337Z" fill="#FAA644"/>
<path d="M21.2232 8.38264L21.6442 6.76324L20.0078 7.10274C20.4529 7.4896 20.8599 7.91819 21.2232 8.38264Z" fill="#FAA644"/>
<path d="M21.7715 18.8525L23.469 18.6828L22.5693 17.2416C22.3576 17.8038 22.0904 18.3434 21.7715 18.8525Z" fill="#FAA644"/>
<path d="M12.1777 22.9764L12.9382 24.533L13.9974 23.1597C13.3863 23.1585 12.7768 23.0971 12.1777 22.9764Z" fill="#FAA644"/>
<path d="M17.6114 22.4198L19.1205 23.2686L19.2053 21.5439C18.7048 21.8887 18.1708 22.1822 17.6114 22.4198Z" fill="#FAA644"/>
<path d="M14.0107 23.1597L15.07 24.533L15.8304 22.9764C15.2314 23.0971 14.6219 23.1585 14.0107 23.1597Z" fill="#FAA644"/>
<path d="M15.8477 22.9731L17.1599 24.1019L17.591 22.4299C17.0296 22.6688 16.4455 22.8508 15.8477 22.9731Z" fill="#FAA644"/>
<path d="M19.2257 21.5221L20.8706 22.0415L20.6092 20.344C20.188 20.7814 19.7246 21.176 19.2257 21.5221Z" fill="#FAA644"/>
<path d="M22.5898 17.1859L24.2092 16.6767L23.0431 15.4528C22.9493 16.044 22.7975 16.6245 22.5898 17.1859Z" fill="#FAA644"/>
<path d="M20.6309 20.3171L22.3385 20.4869L21.7444 18.8828C21.4215 19.3965 21.0485 19.877 20.6309 20.3171Z" fill="#FAA644"/>
<path d="M8.80273 21.5372L8.88761 23.2618L10.3967 22.4131C9.83728 22.1754 9.30327 21.8819 8.80273 21.5372Z" fill="#FAA644"/>
<path d="M4.96683 15.4545L3.80066 16.6784L5.42006 17.1876C5.2122 16.6263 5.06039 16.0457 4.96683 15.4545Z" fill="#FAA644"/>
<path d="M10.417 22.4299L10.8482 24.1019L12.1586 22.9731C11.5614 22.8505 10.978 22.6685 10.417 22.4299Z" fill="#FAA644"/>
<path d="M5.43899 17.2399L4.54102 18.6811L6.2385 18.8508C5.91909 18.3418 5.65126 17.8021 5.43899 17.2399Z" fill="#FAA644"/>
<path d="M4.8497 14.0069C4.8497 13.8728 4.8497 13.7387 4.85989 13.6063L3.47644 14.5687L4.95325 15.3869C4.88427 14.9301 4.84965 14.4688 4.8497 14.0069Z" fill="#FAA644"/>
<path d="M5.1247 11.775L3.58508 12.4353L4.86159 13.5319C4.89252 12.9392 4.98063 12.3508 5.1247 11.775Z" fill="#FAA644"/>
<path d="M6.26373 18.8896L5.66791 20.4937L7.37728 20.3239C6.95963 19.8838 6.58662 19.4033 6.26373 18.8896Z" fill="#FAA644"/>
<path d="M7.39935 20.3407L7.13794 22.0381L8.7828 21.5187C8.28351 21.1732 7.82005 20.7785 7.39935 20.3407Z" fill="#FAA644"/>
<path d="M21.7274 14.0068C21.727 15.534 21.2738 17.0268 20.4249 18.2965C19.576 19.5662 18.3697 20.5557 16.9583 21.1399C15.547 21.7241 13.9941 21.8768 12.496 21.5787C10.9979 21.2805 9.62184 20.5449 8.54186 19.4649C7.46187 18.3848 6.72644 17.0089 6.42856 15.511C6.13068 14.0131 6.28373 12.4605 6.86836 11.0496C7.45299 9.63862 8.44294 8.43269 9.71303 7.58424C10.9831 6.7358 12.4763 6.28294 14.0038 6.28294C15.0182 6.28294 16.0227 6.48274 16.9599 6.87092C17.8971 7.2591 18.7486 7.82806 19.4658 8.54531C20.183 9.26256 20.7519 10.114 21.14 11.0511C21.528 11.9882 21.7276 12.9926 21.7274 14.0068Z" fill="#FAA644"/>
</g>
<defs>
<clipPath id="clip0_1839_7432">
<rect width="28" height="28" fill="white"/>
</clipPath>
</defs>
</svg>
