<svg width="16" height="18" viewBox="0 0 16 18" fill="none" xmlns="http://www.w3.org/2000/svg">
<path d="M3.28145 13.2929C4.17291 13.6588 4.87826 14.249 5.31054 14.918C5.40107 15.0581 5.26455 15.3906 5.10171 15.4267C4.32407 15.599 3.40748 15.5234 2.51602 15.1575C1.62456 14.7915 0.91921 14.2013 0.486928 13.5324C0.396398 13.3923 0.532916 13.0597 0.695763 13.0236C1.47336 12.8514 2.38999 12.927 3.28145 13.2929Z" fill="url(#paint0_linear_2732_70546)"/>
<path d="M3.28145 13.2929C4.17291 13.6588 4.87826 14.249 5.31054 14.918C5.40107 15.0581 5.26455 15.3906 5.10171 15.4267C4.32407 15.599 3.40748 15.5234 2.51602 15.1575C1.62456 14.7915 0.91921 14.2013 0.486928 13.5324C0.396398 13.3923 0.532916 13.0597 0.695763 13.0236C1.47336 12.8514 2.38999 12.927 3.28145 13.2929Z" fill="url(#paint1_linear_2732_70546)"/>
<path d="M3.73539 12.0278C4.60843 12.7197 5.20292 13.6012 5.46893 14.4827C5.52462 14.6673 5.26652 14.993 5.07406 14.9809C4.15511 14.9233 3.16115 14.5458 2.28812 13.8538C1.41508 13.1619 0.820589 12.2804 0.554578 11.3989C0.498884 11.2143 0.756989 10.8886 0.949448 10.9007C1.8684 10.9584 2.86235 11.3358 3.73539 12.0278Z" fill="url(#paint2_linear_2732_70546)"/>
<path d="M3.73539 12.0278C4.60843 12.7197 5.20292 13.6012 5.46893 14.4827C5.52462 14.6673 5.26652 14.993 5.07406 14.9809C4.15511 14.9233 3.16115 14.5458 2.28812 13.8538C1.41508 13.1619 0.820589 12.2804 0.554578 11.3989C0.498884 11.2143 0.756989 10.8886 0.949448 10.9007C1.8684 10.9584 2.86235 11.3358 3.73539 12.0278Z" fill="url(#paint3_linear_2732_70546)"/>
<path d="M4.61567 10.0804C5.38064 11.2546 5.7376 12.5436 5.70273 13.7014C5.69543 13.9439 5.25739 14.2292 5.03267 14.1379C3.95952 13.702 2.92466 12.8546 2.1597 11.6804C1.39473 10.5062 1.03777 9.21723 1.07264 8.05944C1.07994 7.81697 1.51798 7.53162 1.7427 7.62289C2.81585 8.05881 3.85071 8.90619 4.61567 10.0804Z" fill="url(#paint4_linear_2732_70546)"/>
<path d="M1.20312 9.41995C1.36745 10.1783 1.68489 10.9512 2.15967 11.68C2.92463 12.8542 3.95946 13.7016 5.03264 14.1375C5.2574 14.2288 5.6954 13.9434 5.7027 13.7009C5.73761 12.5431 5.38064 11.2541 4.61564 10.0799C4.16519 9.38851 3.62113 8.81053 3.0308 8.36304L1.20312 9.41995Z" fill="url(#paint5_linear_2732_70546)"/>
<path d="M12.7162 13.2929C11.8248 13.6588 11.1194 14.249 10.6871 14.918C10.5966 15.0581 10.7331 15.3906 10.896 15.4267C11.6736 15.599 12.5902 15.5234 13.4816 15.1575C14.3731 14.7915 15.0785 14.2013 15.5107 13.5324C15.6013 13.3923 15.4647 13.0597 15.3019 13.0236C14.5243 12.8514 13.6077 12.927 12.7162 13.2929Z" fill="url(#paint6_linear_2732_70546)"/>
<path d="M12.7162 13.2929C11.8248 13.6588 11.1194 14.249 10.6871 14.918C10.5966 15.0581 10.7331 15.3906 10.896 15.4267C11.6736 15.599 12.5902 15.5234 13.4816 15.1575C14.3731 14.7915 15.0785 14.2013 15.5107 13.5324C15.6013 13.3923 15.4647 13.0597 15.3019 13.0236C14.5243 12.8514 13.6077 12.927 12.7162 13.2929Z" fill="url(#paint7_linear_2732_70546)"/>
<path d="M12.2637 12.0278C11.3907 12.7197 10.7962 13.6012 10.5302 14.4827C10.4745 14.6673 10.7326 14.993 10.925 14.9809C11.844 14.9233 12.8379 14.5458 13.711 13.8538C14.584 13.1619 15.1785 12.2804 15.4445 11.3989C15.5002 11.2143 15.2421 10.8886 15.0496 10.9007C14.1307 10.9584 13.1367 11.3358 12.2637 12.0278Z" fill="url(#paint8_linear_2732_70546)"/>
<path d="M12.2637 12.0278C11.3907 12.7197 10.7962 13.6012 10.5302 14.4827C10.4745 14.6673 10.7326 14.993 10.925 14.9809C11.844 14.9233 12.8379 14.5458 13.711 13.8538C14.584 13.1619 15.1785 12.2804 15.4445 11.3989C15.5002 11.2143 15.2421 10.8886 15.0496 10.9007C14.1307 10.9584 13.1367 11.3358 12.2637 12.0278Z" fill="url(#paint9_linear_2732_70546)"/>
<path d="M11.3824 10.0804C10.6174 11.2546 10.2604 12.5436 10.2953 13.7014C10.3026 13.9439 10.7406 14.2292 10.9654 14.1379C12.0385 13.702 13.0734 12.8546 13.8383 11.6804C14.6033 10.5062 14.9603 9.21723 14.9254 8.05944C14.9181 7.81697 14.48 7.53162 14.2553 7.62289C13.1822 8.05881 12.1473 8.90619 11.3824 10.0804Z" fill="url(#paint10_linear_2732_70546)"/>
<path d="M14.7949 9.41995C14.6305 10.1783 14.3131 10.9512 13.8383 11.68C13.0734 12.8542 12.0385 13.7016 10.9654 14.1375C10.7406 14.2288 10.3026 13.9434 10.2953 13.7009C10.2604 12.5431 10.6174 11.2541 11.3824 10.0799C11.8328 9.38851 12.3769 8.81053 12.9672 8.36304L14.7949 9.41995Z" fill="url(#paint11_linear_2732_70546)"/>
<path d="M7.9994 17.9998C11.0992 17.9998 13.6121 15.4869 13.6121 12.3871C13.6121 9.2873 11.0992 6.77441 7.9994 6.77441C4.8996 6.77441 2.38672 9.2873 2.38672 12.3871C2.38672 15.4869 4.8996 17.9998 7.9994 17.9998Z" fill="url(#paint12_linear_2732_70546)"/>
<path d="M7.9991 16.8605C10.4699 16.8605 12.4728 14.8576 12.4728 12.3868C12.4728 9.91603 10.4699 7.91309 7.9991 7.91309C5.52834 7.91309 3.52539 9.91603 3.52539 12.3868C3.52539 14.8576 5.52834 16.8605 7.9991 16.8605Z" fill="url(#paint13_linear_2732_70546)"/>
<path d="M7.99793 16.2273C10.1191 16.2273 11.8386 14.5078 11.8386 12.3866C11.8386 10.2654 10.1191 8.5459 7.99793 8.5459C5.87677 8.5459 4.15723 10.2654 4.15723 12.3866C4.15723 14.5078 5.87677 16.2273 7.99793 16.2273Z" fill="url(#paint14_linear_2732_70546)"/>
<path d="M2.38672 12.3874C2.38672 15.4872 4.89959 18.0001 7.9994 18.0001C11.0992 18.0001 13.6121 15.4872 13.6121 12.3874C13.6121 12.3656 13.6115 12.344 13.6113 12.3223H2.38753C2.38728 12.344 2.38672 12.3656 2.38672 12.3874Z" fill="url(#paint15_linear_2732_70546)"/>
<path d="M9.57269 17.7754C11.3412 17.2597 12.7486 15.8971 13.3264 14.156L10.5928 11.4223L9.97652 11.4526L8.31325 9.78931L6.28613 14.4889L9.57269 17.7754Z" fill="url(#paint16_linear_2732_70546)"/>
<path d="M10.3008 11.1676L9.20004 10.9016C9.09765 10.8769 9.00818 10.8148 8.94913 10.7275L8.31462 9.7896C8.23785 9.67616 8.12029 9.61528 7.9993 9.60547C7.87831 9.61528 7.76071 9.67616 7.68398 9.7896L7.04946 10.7275C6.99045 10.8148 6.90098 10.8769 6.79856 10.9016L5.69784 11.1676C5.39925 11.2397 5.27484 11.5961 5.46359 11.8384L6.15956 12.7317C6.22429 12.8148 6.2557 12.9191 6.24758 13.0241L6.16037 14.1531C6.13672 14.4594 6.43718 14.6879 6.72599 14.5832L7.79064 14.1973C7.85791 14.173 7.92966 14.1667 7.9993 14.1775C8.06897 14.1667 8.14069 14.173 8.20796 14.1973L9.27261 14.5832C9.56138 14.6878 9.86188 14.4594 9.83823 14.1531L9.75102 13.0241C9.7429 12.9191 9.77431 12.8148 9.83904 12.7317L10.535 11.8384C10.7238 11.5961 10.5993 11.2397 10.3008 11.1676Z" fill="url(#paint17_linear_2732_70546)"/>
<path d="M8.20768 14.1973L9.27233 14.5832C9.56111 14.6878 9.8616 14.4594 9.83795 14.1531L9.75074 13.0241C9.74262 12.9191 9.77404 12.8148 9.83876 12.7317L10.5347 11.8384C10.7235 11.5961 10.5991 11.2397 10.3005 11.1676L9.19976 10.9016C9.09738 10.8769 9.00791 10.8148 8.94886 10.7275L8.31434 9.7896C8.23758 9.67616 8.12001 9.61528 7.99902 9.60547V14.1775C8.06869 14.1667 8.14045 14.173 8.20768 14.1973Z" fill="url(#paint18_linear_2732_70546)"/>
<path d="M10.3013 11.1671L9.20063 10.9012C9.16304 10.8921 9.12725 10.8779 9.09404 10.8594L6.28809 14.4888C6.39817 14.5952 6.56423 14.6416 6.72658 14.5828L7.79123 14.197C7.8585 14.1726 7.93025 14.1663 7.99989 14.1771C8.06956 14.1663 8.14127 14.1726 8.20855 14.197L9.27319 14.5828C9.56197 14.6874 9.86246 14.459 9.83882 14.1527L9.75161 13.0237C9.74349 12.9187 9.7749 12.8144 9.83963 12.7313L10.5356 11.838C10.7243 11.5956 10.5999 11.2393 10.3013 11.1671Z" fill="url(#paint19_linear_2732_70546)"/>
<path d="M5.69784 11.1671L6.79856 10.9012C6.83615 10.8921 6.87194 10.8779 6.90515 10.8594L9.7111 14.4888C9.60102 14.5952 9.43496 14.6416 9.27261 14.5828L8.20796 14.197C8.14069 14.1726 8.06894 14.1663 7.9993 14.1771C7.92963 14.1663 7.85791 14.1726 7.79064 14.197L6.726 14.5828C6.43722 14.6874 6.13672 14.459 6.16037 14.1527L6.24758 13.0237C6.2557 12.9187 6.22429 12.8144 6.15956 12.7313L5.46359 11.838C5.27484 11.5956 5.39925 11.2393 5.69784 11.1671Z" fill="url(#paint20_linear_2732_70546)"/>
<path d="M5.40442 11.4231C5.35208 11.5551 5.36464 11.7124 5.46315 11.8389L6.15912 12.7322C6.22384 12.8153 6.25526 12.9195 6.24714 13.0246L6.15993 14.1536C6.13628 14.4598 6.43674 14.6883 6.72555 14.5836L7.7902 14.1978C7.85747 14.1734 7.92922 14.1671 7.99886 14.1779C8.06853 14.1672 8.14024 14.1735 8.20752 14.1978L9.27216 14.5836C9.56094 14.6883 9.86143 14.4598 9.83779 14.1536L9.75057 13.0246C9.74606 12.9663 9.75414 12.9084 9.77292 12.8541L5.40442 11.4231Z" fill="url(#paint21_linear_2732_70546)"/>
<path d="M10.5939 11.4229C10.6462 11.5549 10.6337 11.7122 10.5351 11.8386L9.83916 12.7319C9.77443 12.815 9.74302 12.9193 9.75114 13.0243L9.83835 14.1533C9.862 14.4596 9.5615 14.6881 9.27272 14.5834L8.20808 14.1976C8.14081 14.1732 8.06905 14.1669 7.99942 14.1777C7.92975 14.1669 7.85803 14.1732 7.79076 14.1976L6.72611 14.5834C6.43734 14.6881 6.13684 14.4596 6.16049 14.1533L6.2477 13.0243C6.25222 12.9661 6.24414 12.9081 6.22536 12.8538L10.5939 11.4229Z" fill="url(#paint22_linear_2732_70546)"/>
<path d="M7.99832 6.77441C7.97503 6.77441 7.95191 6.77501 7.92869 6.7753L7.0625 7.64148L13.3858 13.9648C13.5322 13.4643 13.611 12.9349 13.611 12.3871C13.611 9.28728 11.0981 6.77441 7.99832 6.77441Z" fill="url(#paint23_linear_2732_70546)"/>
<path d="M4.61133 0.117188V3.08189L7.99957 6.47013L11.3878 3.08189V0.117188H4.61133Z" fill="url(#paint24_linear_2732_70546)"/>
<path d="M4.61133 0.117188V1.03985L7.98824 4.41675C7.99448 4.423 8.00465 4.423 8.01089 4.41675L11.3878 1.03985V0.117188H4.61133Z" fill="url(#paint25_linear_2732_70546)"/>
<path d="M4.61133 0.117188V1.03985L7.98824 4.41675C7.99448 4.423 8.00465 4.423 8.01089 4.41675L11.3878 1.03985V0.117188H4.61133Z" fill="url(#paint26_linear_2732_70546)"/>
<path d="M7.99957 4.95089C7.85987 4.95089 7.72021 4.89774 7.61391 4.79139L4.61133 1.78882V3.08221L7.99957 6.47044L11.3878 3.08221V1.78882L8.38522 4.79139C8.27892 4.8977 8.13926 4.95089 7.99957 4.95089Z" fill="url(#paint27_linear_2732_70546)"/>
<path d="M7.99957 4.95089C7.85987 4.95089 7.72021 4.89774 7.61391 4.79139L4.61133 1.78882V3.08221L7.99957 6.47044L11.3878 3.08221V1.78882L8.38522 4.79139C8.27892 4.8977 8.13926 4.95089 7.99957 4.95089Z" fill="url(#paint28_linear_2732_70546)"/>
<path d="M7.99957 4.95089C8.13926 4.95089 8.27892 4.89774 8.38522 4.79139L11.3878 1.78882V3.08221L7.99957 6.47044L4.61133 3.08221V1.78882L7.61391 4.79139C7.72021 4.8977 7.85991 4.95089 7.99957 4.95089Z" fill="url(#paint29_linear_2732_70546)"/>
<path d="M7.6273 5.70148L4.74399 2.81816C4.52778 2.60195 4.1772 2.60195 3.96099 2.81816C3.74478 3.03438 3.74478 3.38495 3.96099 3.60116L7.99884 7.6391L12.0367 3.6012C12.2529 3.38499 12.2529 3.03441 12.0367 2.8182C11.8205 2.60199 11.4699 2.60199 11.2537 2.8182L8.37042 5.70152C8.16519 5.90672 7.8325 5.90672 7.6273 5.70148Z" fill="url(#paint30_linear_2732_70546)"/>
<path d="M3.96094 2.82473L7.57368 6.43747C7.80849 6.67228 8.18921 6.67228 8.42402 6.43747L12.0367 2.82473C12.0378 2.82367 12.0386 2.82251 12.0397 2.82145C12.0387 2.82039 12.0378 2.81922 12.0367 2.81816C11.8205 2.60195 11.4699 2.60195 11.2537 2.81816L8.37041 5.70148C8.16521 5.90668 7.83249 5.90668 7.62729 5.70148L4.74397 2.81816C4.52776 2.60195 4.17718 2.60195 3.96097 2.81816C3.95991 2.81922 3.95907 2.82039 3.95801 2.82145C3.95903 2.82251 3.95988 2.82367 3.96094 2.82473Z" fill="url(#paint31_linear_2732_70546)"/>
<path d="M7.99879 7.63914L10.8491 4.78882H9.28307L8.37033 5.70156C8.16513 5.90676 7.83241 5.90676 7.62721 5.70156L6.71447 4.78882H5.14844L7.99879 7.63914Z" fill="url(#paint32_linear_2732_70546)"/>
<path d="M7.64453 7.28529L7.99747 7.63823L11.6125 4.02319H10.0465L8.36905 5.70062C8.16981 5.89985 7.85079 5.90504 7.64453 5.71745V7.28529Z" fill="url(#paint33_linear_2732_70546)"/>
<path d="M7.99924 8.02973C8.73017 8.02973 9.3227 7.4372 9.3227 6.70627C9.3227 5.97535 8.73017 5.38281 7.99924 5.38281C7.26831 5.38281 6.67578 5.97535 6.67578 6.70627C6.67578 7.4372 7.26831 8.02973 7.99924 8.02973Z" fill="url(#paint34_linear_2732_70546)"/>
<path d="M7.99996 7.46477C8.41901 7.46477 8.75872 7.12507 8.75872 6.70602C8.75872 6.28697 8.41901 5.94727 7.99996 5.94727C7.58092 5.94727 7.24121 6.28697 7.24121 6.70602C7.24121 7.12507 7.58092 7.46477 7.99996 7.46477Z" fill="url(#paint35_linear_2732_70546)"/>
<path d="M11.8993 1.31764H4.09917C3.87505 1.31764 3.69336 1.13594 3.69336 0.911823V0.405812C3.69336 0.181694 3.87505 0 4.09917 0H11.8993C12.1234 0 12.3051 0.181694 12.3051 0.405812V0.911859C12.3051 1.13598 12.1234 1.31764 11.8993 1.31764Z" fill="url(#paint36_linear_2732_70546)"/>
<defs>
<linearGradient id="paint0_linear_2732_70546" x1="2.25566" y1="12.5437" x2="2.89398" y2="14.2066" gradientUnits="userSpaceOnUse">
<stop stop-color="#E6E6E6"/>
<stop offset="1" stop-color="#999999"/>
</linearGradient>
<linearGradient id="paint1_linear_2732_70546" x1="1.92502" y1="13.4125" x2="3.32089" y2="14.5726" gradientUnits="userSpaceOnUse">
<stop stop-color="#766E6E" stop-opacity="0"/>
<stop offset="0.2806" stop-color="#716B6B" stop-opacity="0.281"/>
<stop offset="0.5705" stop-color="#656060" stop-opacity="0.571"/>
<stop offset="0.8636" stop-color="#514F4F" stop-opacity="0.864"/>
<stop offset="1" stop-color="#444444"/>
</linearGradient>
<linearGradient id="paint2_linear_2732_70546" x1="1.53698" y1="11.0783" x2="2.87447" y2="12.764" gradientUnits="userSpaceOnUse">
<stop stop-color="#E6E6E6"/>
<stop offset="1" stop-color="#999999"/>
</linearGradient>
<linearGradient id="paint3_linear_2732_70546" x1="1.86608" y1="12.6522" x2="3.13708" y2="12.9698" gradientUnits="userSpaceOnUse">
<stop stop-color="#766E6E" stop-opacity="0"/>
<stop offset="0.2806" stop-color="#716B6B" stop-opacity="0.281"/>
<stop offset="0.5705" stop-color="#656060" stop-opacity="0.571"/>
<stop offset="0.8636" stop-color="#514F4F" stop-opacity="0.864"/>
<stop offset="1" stop-color="#444444"/>
</linearGradient>
<linearGradient id="paint4_linear_2732_70546" x1="3.29495" y1="8.94577" x2="3.43368" y2="11.8038" gradientUnits="userSpaceOnUse">
<stop stop-color="#E6E6E6"/>
<stop offset="1" stop-color="#999999"/>
</linearGradient>
<linearGradient id="paint5_linear_2732_70546" x1="3.08167" y1="10.4244" x2="3.91273" y2="11.6523" gradientUnits="userSpaceOnUse">
<stop stop-color="#766E6E" stop-opacity="0"/>
<stop offset="0.2806" stop-color="#716B6B" stop-opacity="0.281"/>
<stop offset="0.5705" stop-color="#656060" stop-opacity="0.571"/>
<stop offset="0.8636" stop-color="#514F4F" stop-opacity="0.864"/>
<stop offset="1" stop-color="#444444"/>
</linearGradient>
<linearGradient id="paint6_linear_2732_70546" x1="13.7436" y1="12.5424" x2="13.1053" y2="14.2054" gradientUnits="userSpaceOnUse">
<stop stop-color="#E6E6E6"/>
<stop offset="1" stop-color="#999999"/>
</linearGradient>
<linearGradient id="paint7_linear_2732_70546" x1="14.0743" y1="13.4112" x2="12.6784" y2="14.5713" gradientUnits="userSpaceOnUse">
<stop stop-color="#766E6E" stop-opacity="0"/>
<stop offset="0.2806" stop-color="#716B6B" stop-opacity="0.281"/>
<stop offset="0.5705" stop-color="#656060" stop-opacity="0.571"/>
<stop offset="0.8636" stop-color="#514F4F" stop-opacity="0.864"/>
<stop offset="1" stop-color="#444444"/>
</linearGradient>
<linearGradient id="paint8_linear_2732_70546" x1="14.4637" y1="11.077" x2="13.1262" y2="12.7628" gradientUnits="userSpaceOnUse">
<stop stop-color="#E6E6E6"/>
<stop offset="1" stop-color="#999999"/>
</linearGradient>
<linearGradient id="paint9_linear_2732_70546" x1="14.1346" y1="12.6509" x2="12.8636" y2="12.9685" gradientUnits="userSpaceOnUse">
<stop stop-color="#766E6E" stop-opacity="0"/>
<stop offset="0.2806" stop-color="#716B6B" stop-opacity="0.281"/>
<stop offset="0.5705" stop-color="#656060" stop-opacity="0.571"/>
<stop offset="0.8636" stop-color="#514F4F" stop-opacity="0.864"/>
<stop offset="1" stop-color="#444444"/>
</linearGradient>
<linearGradient id="paint10_linear_2732_70546" x1="12.7047" y1="8.94448" x2="12.5659" y2="11.8025" gradientUnits="userSpaceOnUse">
<stop stop-color="#E6E6E6"/>
<stop offset="1" stop-color="#999999"/>
</linearGradient>
<linearGradient id="paint11_linear_2732_70546" x1="12.9179" y1="10.4231" x2="12.0869" y2="11.651" gradientUnits="userSpaceOnUse">
<stop stop-color="#766E6E" stop-opacity="0"/>
<stop offset="0.2806" stop-color="#716B6B" stop-opacity="0.281"/>
<stop offset="0.5705" stop-color="#656060" stop-opacity="0.571"/>
<stop offset="0.8636" stop-color="#514F4F" stop-opacity="0.864"/>
<stop offset="1" stop-color="#444444"/>
</linearGradient>
<linearGradient id="paint12_linear_2732_70546" x1="4.53895" y1="8.92665" x2="10.4583" y2="14.846" gradientUnits="userSpaceOnUse">
<stop stop-color="#E6E6E6"/>
<stop offset="1" stop-color="#999999"/>
</linearGradient>
<linearGradient id="paint13_linear_2732_70546" x1="10.9047" y1="15.2924" x2="5.0087" y2="9.39639" gradientUnits="userSpaceOnUse">
<stop stop-color="#E6E6E6"/>
<stop offset="1" stop-color="#999999"/>
</linearGradient>
<linearGradient id="paint14_linear_2732_70546" x1="5.20585" y1="9.59452" x2="9.80175" y2="14.1904" gradientUnits="userSpaceOnUse">
<stop stop-color="#E6E6E6"/>
<stop offset="1" stop-color="#999999"/>
</linearGradient>
<linearGradient id="paint15_linear_2732_70546" x1="7.9994" y1="14.0296" x2="7.9994" y2="17.7136" gradientUnits="userSpaceOnUse">
<stop stop-color="#766E6E" stop-opacity="0"/>
<stop offset="0.2806" stop-color="#716B6B" stop-opacity="0.281"/>
<stop offset="0.5705" stop-color="#656060" stop-opacity="0.571"/>
<stop offset="0.8636" stop-color="#514F4F" stop-opacity="0.864"/>
<stop offset="1" stop-color="#444444"/>
</linearGradient>
<linearGradient id="paint16_linear_2732_70546" x1="11.3601" y1="15.3038" x2="6.72473" y2="12.3861" gradientUnits="userSpaceOnUse">
<stop stop-color="#766E6E" stop-opacity="0"/>
<stop offset="0.2806" stop-color="#716B6B" stop-opacity="0.281"/>
<stop offset="0.5705" stop-color="#656060" stop-opacity="0.571"/>
<stop offset="0.8636" stop-color="#514F4F" stop-opacity="0.864"/>
<stop offset="1" stop-color="#444444"/>
</linearGradient>
<linearGradient id="paint17_linear_2732_70546" x1="6.83015" y1="11.3203" x2="8.93848" y2="13.4286" gradientUnits="userSpaceOnUse">
<stop stop-color="#F9F5F3"/>
<stop offset="1" stop-color="#D8E8F0"/>
</linearGradient>
<linearGradient id="paint18_linear_2732_70546" x1="9.26231" y1="11.8951" x2="6.34832" y2="13.0998" gradientUnits="userSpaceOnUse">
<stop stop-color="#678D98" stop-opacity="0"/>
<stop offset="0.9957" stop-color="#678D98" stop-opacity="0.996"/>
<stop offset="1" stop-color="#678D98"/>
</linearGradient>
<linearGradient id="paint19_linear_2732_70546" x1="8.50233" y1="12.9288" x2="6.90697" y2="12.2451" gradientUnits="userSpaceOnUse">
<stop stop-color="#678D98" stop-opacity="0"/>
<stop offset="0.9957" stop-color="#678D98" stop-opacity="0.996"/>
<stop offset="1" stop-color="#678D98"/>
</linearGradient>
<linearGradient id="paint20_linear_2732_70546" x1="7.49685" y1="12.9288" x2="9.09222" y2="12.2451" gradientUnits="userSpaceOnUse">
<stop stop-color="#678D98" stop-opacity="0"/>
<stop offset="0.9957" stop-color="#678D98" stop-opacity="0.996"/>
<stop offset="1" stop-color="#678D98"/>
</linearGradient>
<linearGradient id="paint21_linear_2732_70546" x1="7.53188" y1="13.0097" x2="8.55746" y2="11.3615" gradientUnits="userSpaceOnUse">
<stop stop-color="#678D98" stop-opacity="0"/>
<stop offset="0.9957" stop-color="#678D98" stop-opacity="0.996"/>
<stop offset="1" stop-color="#678D98"/>
</linearGradient>
<linearGradient id="paint22_linear_2732_70546" x1="8.38734" y1="12.8013" x2="8.30189" y2="11.1897" gradientUnits="userSpaceOnUse">
<stop stop-color="#678D98" stop-opacity="0"/>
<stop offset="0.9957" stop-color="#678D98" stop-opacity="0.996"/>
<stop offset="1" stop-color="#678D98"/>
</linearGradient>
<linearGradient id="paint23_linear_2732_70546" x1="10.7641" y1="10.016" x2="8.59942" y2="6.22774" gradientUnits="userSpaceOnUse">
<stop stop-color="#766E6E" stop-opacity="0"/>
<stop offset="0.2806" stop-color="#716B6B" stop-opacity="0.281"/>
<stop offset="0.5705" stop-color="#656060" stop-opacity="0.571"/>
<stop offset="0.8636" stop-color="#514F4F" stop-opacity="0.864"/>
<stop offset="1" stop-color="#444444"/>
</linearGradient>
<linearGradient id="paint24_linear_2732_70546" x1="8.25058" y1="1.99988" x2="9.64469" y2="4.22341" gradientUnits="userSpaceOnUse">
<stop stop-color="#F9F5F3"/>
<stop offset="1" stop-color="#D8E8F0"/>
</linearGradient>
<linearGradient id="paint25_linear_2732_70546" x1="6.86002" y1="-0.728212" x2="11.1894" y2="4.23647" gradientUnits="userSpaceOnUse">
<stop stop-color="#B3DAFE"/>
<stop offset="1" stop-color="#0182FC"/>
</linearGradient>
<linearGradient id="paint26_linear_2732_70546" x1="7.99956" y1="2.34661" x2="7.99956" y2="1.18071" gradientUnits="userSpaceOnUse">
<stop stop-color="#0182FC" stop-opacity="0"/>
<stop offset="0.1261" stop-color="#017FF3" stop-opacity="0.126"/>
<stop offset="0.3306" stop-color="#0176DB" stop-opacity="0.331"/>
<stop offset="0.5881" stop-color="#0268B4" stop-opacity="0.588"/>
<stop offset="0.8857" stop-color="#02547E" stop-opacity="0.886"/>
<stop offset="1" stop-color="#024C67"/>
</linearGradient>
<linearGradient id="paint27_linear_2732_70546" x1="5.94033" y1="0.0740891" x2="10.2697" y2="5.03877" gradientUnits="userSpaceOnUse">
<stop stop-color="#B3DAFE"/>
<stop offset="1" stop-color="#0182FC"/>
</linearGradient>
<linearGradient id="paint28_linear_2732_70546" x1="9.34057" y1="3.77648" x2="9.94304" y2="4.37895" gradientUnits="userSpaceOnUse">
<stop stop-color="#0182FC" stop-opacity="0"/>
<stop offset="0.1261" stop-color="#017FF3" stop-opacity="0.126"/>
<stop offset="0.3306" stop-color="#0176DB" stop-opacity="0.331"/>
<stop offset="0.5881" stop-color="#0268B4" stop-opacity="0.588"/>
<stop offset="0.8857" stop-color="#02547E" stop-opacity="0.886"/>
<stop offset="1" stop-color="#024C67"/>
</linearGradient>
<linearGradient id="paint29_linear_2732_70546" x1="6.65856" y1="3.77648" x2="6.05609" y2="4.37895" gradientUnits="userSpaceOnUse">
<stop stop-color="#0182FC" stop-opacity="0"/>
<stop offset="0.1261" stop-color="#017FF3" stop-opacity="0.126"/>
<stop offset="0.3306" stop-color="#0176DB" stop-opacity="0.331"/>
<stop offset="0.5881" stop-color="#0268B4" stop-opacity="0.588"/>
<stop offset="0.8857" stop-color="#02547E" stop-opacity="0.886"/>
<stop offset="1" stop-color="#024C67"/>
</linearGradient>
<linearGradient id="paint30_linear_2732_70546" x1="11.0584" y1="6.26919" x2="3.82094" y2="-0.968221" gradientUnits="userSpaceOnUse">
<stop stop-color="#E6E6E6"/>
<stop offset="1" stop-color="#999999"/>
</linearGradient>
<linearGradient id="paint31_linear_2732_70546" x1="7.99883" y1="2.88289" x2="7.99883" y2="7.82545" gradientUnits="userSpaceOnUse">
<stop stop-color="#E6E6E6"/>
<stop offset="1" stop-color="#999999"/>
</linearGradient>
<linearGradient id="paint32_linear_2732_70546" x1="7.99879" y1="5.75351" x2="7.99879" y2="7.3786" gradientUnits="userSpaceOnUse">
<stop stop-color="#766E6E" stop-opacity="0"/>
<stop offset="0.2806" stop-color="#716B6B" stop-opacity="0.281"/>
<stop offset="0.5705" stop-color="#656060" stop-opacity="0.571"/>
<stop offset="0.8636" stop-color="#514F4F" stop-opacity="0.864"/>
<stop offset="1" stop-color="#444444"/>
</linearGradient>
<linearGradient id="paint33_linear_2732_70546" x1="9.66572" y1="4.83245" x2="8.67748" y2="5.83833" gradientUnits="userSpaceOnUse">
<stop stop-color="#766E6E" stop-opacity="0"/>
<stop offset="0.2806" stop-color="#716B6B" stop-opacity="0.281"/>
<stop offset="0.5705" stop-color="#656060" stop-opacity="0.571"/>
<stop offset="0.8636" stop-color="#514F4F" stop-opacity="0.864"/>
<stop offset="1" stop-color="#444444"/>
</linearGradient>
<linearGradient id="paint34_linear_2732_70546" x1="7.24042" y1="5.94745" x2="9.11206" y2="7.81909" gradientUnits="userSpaceOnUse">
<stop stop-color="#F9F5F3"/>
<stop offset="1" stop-color="#D8E8F0"/>
</linearGradient>
<linearGradient id="paint35_linear_2732_70546" x1="8.5382" y1="7.24425" x2="7.61169" y2="6.31775" gradientUnits="userSpaceOnUse">
<stop stop-color="#F9F5F3"/>
<stop offset="1" stop-color="#D8E8F0"/>
</linearGradient>
<linearGradient id="paint36_linear_2732_70546" x1="7.99924" y1="0.399988" x2="7.99924" y2="1.13545" gradientUnits="userSpaceOnUse">
<stop stop-color="#E6E6E6"/>
<stop offset="1" stop-color="#999999"/>
</linearGradient>
</defs>
</svg>
