<svg width="68" height="68" viewBox="0 0 68 68" fill="none" xmlns="http://www.w3.org/2000/svg">
<g filter="url(#filter0_d_1804_29364)">
<circle cx="34" cy="34" r="22" fill="#E6E6E6"/>
<circle cx="34" cy="34" r="20.5" stroke="white" stroke-width="3"/>
</g>
<g clip-path="url(#clip0_1804_29364)">
<path d="M27.7093 39.7238C28.8979 40.2117 29.8384 40.9986 30.4147 41.8906C30.5354 42.0774 30.3534 42.5208 30.1363 42.5689C29.0995 42.7986 27.8773 42.6978 26.6887 42.2099C25.5001 41.7219 24.5596 40.935 23.9833 40.0431C23.8626 39.8563 24.0446 39.4128 24.2617 39.3648C25.2985 39.1351 26.5207 39.2359 27.7093 39.7238Z" fill="url(#paint0_linear_1804_29364)"/>
<path d="M27.7093 39.7238C28.8979 40.2117 29.8384 40.9986 30.4147 41.8906C30.5354 42.0774 30.3534 42.5208 30.1363 42.5689C29.0995 42.7986 27.8773 42.6978 26.6887 42.2099C25.5001 41.7219 24.5596 40.935 23.9833 40.0431C23.8626 39.8563 24.0446 39.4128 24.2617 39.3648C25.2985 39.1351 26.5207 39.2359 27.7093 39.7238Z" fill="url(#paint1_linear_1804_29364)"/>
<path d="M28.3139 38.0383C29.4779 38.9609 30.2706 40.1362 30.6252 41.3115C30.6995 41.5577 30.3554 41.9919 30.0987 41.9758C28.8735 41.899 27.5482 41.3957 26.3842 40.4731C25.2201 39.5505 24.4275 38.3752 24.0728 37.1999C23.9985 36.9537 24.3427 36.5195 24.5993 36.5356C25.8245 36.6125 27.1498 37.1157 28.3139 38.0383Z" fill="url(#paint2_linear_1804_29364)"/>
<path d="M28.3139 38.0383C29.4779 38.9609 30.2706 40.1362 30.6252 41.3115C30.6995 41.5577 30.3554 41.9919 30.0987 41.9758C28.8735 41.899 27.5482 41.3957 26.3842 40.4731C25.2201 39.5505 24.4275 38.3752 24.0728 37.1999C23.9985 36.9537 24.3427 36.5195 24.5993 36.5356C25.8245 36.6125 27.1498 37.1157 28.3139 38.0383Z" fill="url(#paint3_linear_1804_29364)"/>
<path d="M29.489 35.441C30.5089 37.0066 30.9849 38.7253 30.9384 40.269C30.9287 40.5923 30.3446 40.9728 30.045 40.8511C28.6141 40.2699 27.2343 39.14 26.2144 37.5744C25.1944 36.0088 24.7184 34.2902 24.7649 32.7464C24.7747 32.4232 25.3587 32.0427 25.6584 32.1644C27.0892 32.7456 28.469 33.8754 29.489 35.441Z" fill="url(#paint4_linear_1804_29364)"/>
<path d="M24.9388 34.5611C25.1579 35.5722 25.5812 36.6028 26.2142 37.5744C27.2342 39.14 28.6139 40.2699 30.0449 40.8511C30.3445 40.9728 30.9285 40.5923 30.9383 40.269C30.9848 38.7253 30.5089 37.0066 29.4889 35.441C28.8883 34.5191 28.1628 33.7485 27.3757 33.1519L24.9388 34.5611Z" fill="url(#paint5_linear_1804_29364)"/>
<path d="M40.2903 39.7238C39.1017 40.2117 38.1612 40.9986 37.5848 41.8906C37.4641 42.0774 37.6461 42.5208 37.8633 42.5689C38.9001 42.7986 40.1222 42.6978 41.3108 42.2099C42.4995 41.7219 43.4399 40.935 44.0163 40.0431C44.137 39.8563 43.955 39.4128 43.7379 39.3648C42.7011 39.1351 41.4789 39.2359 40.2903 39.7238Z" fill="url(#paint6_linear_1804_29364)"/>
<path d="M40.2903 39.7238C39.1017 40.2117 38.1612 40.9986 37.5848 41.8906C37.4641 42.0774 37.6461 42.5208 37.8633 42.5689C38.9001 42.7986 40.1222 42.6978 41.3108 42.2099C42.4995 41.7219 43.4399 40.935 44.0163 40.0431C44.137 39.8563 43.955 39.4128 43.7379 39.3648C42.7011 39.1351 41.4789 39.2359 40.2903 39.7238Z" fill="url(#paint7_linear_1804_29364)"/>
<path d="M39.6858 38.0383C38.5217 38.9609 37.7291 40.1362 37.3744 41.3115C37.3001 41.5577 37.6443 41.9919 37.9009 41.9758C39.1262 41.899 40.4514 41.3957 41.6155 40.4731C42.7795 39.5505 43.5722 38.3752 43.9269 37.1999C44.0011 36.9537 43.657 36.5195 43.4004 36.5356C42.1751 36.6125 40.8498 37.1157 39.6858 38.0383Z" fill="url(#paint8_linear_1804_29364)"/>
<path d="M39.6858 38.0383C38.5217 38.9609 37.7291 40.1362 37.3744 41.3115C37.3001 41.5577 37.6443 41.9919 37.9009 41.9758C39.1262 41.899 40.4514 41.3957 41.6155 40.4731C42.7795 39.5505 43.5722 38.3752 43.9269 37.1999C44.0011 36.9537 43.657 36.5195 43.4004 36.5356C42.1751 36.6125 40.8498 37.1157 39.6858 38.0383Z" fill="url(#paint9_linear_1804_29364)"/>
<path d="M38.5107 35.441C37.4908 37.0066 37.0148 38.7253 37.0613 40.269C37.0711 40.5923 37.6551 40.9728 37.9547 40.8511C39.3856 40.2699 40.7654 39.14 41.7854 37.5744C42.8053 36.0088 43.2813 34.2902 43.2348 32.7464C43.225 32.4232 42.641 32.0427 42.3414 32.1644C40.9105 32.7456 39.5307 33.8754 38.5107 35.441Z" fill="url(#paint10_linear_1804_29364)"/>
<path d="M43.0608 34.5611C42.8417 35.5722 42.4184 36.6028 41.7854 37.5744C40.7654 39.14 39.3857 40.2699 37.9547 40.8511C37.6551 40.9728 37.0711 40.5923 37.0613 40.269C37.0148 38.7253 37.4907 37.0066 38.5107 35.441C39.1114 34.5191 39.8368 33.7485 40.6239 33.1519L43.0608 34.5611Z" fill="url(#paint11_linear_1804_29364)"/>
<path d="M33.9999 46C38.133 46 41.4835 42.6495 41.4835 38.5164C41.4835 34.3834 38.133 31.0329 33.9999 31.0329C29.8669 31.0329 26.5164 34.3834 26.5164 38.5164C26.5164 42.6495 29.8669 46 33.9999 46Z" fill="url(#paint12_linear_1804_29364)"/>
<path d="M34.0001 44.4814C37.2944 44.4814 39.965 41.8108 39.965 38.5164C39.965 35.2221 37.2944 32.5515 34.0001 32.5515C30.7058 32.5515 28.0352 35.2221 28.0352 38.5164C28.0352 41.8108 30.7058 44.4814 34.0001 44.4814Z" fill="url(#paint13_linear_1804_29364)"/>
<path d="M33.9998 43.6374C36.8281 43.6374 39.1208 41.3447 39.1208 38.5164C39.1208 35.6882 36.8281 33.3955 33.9998 33.3955C31.1716 33.3955 28.8789 35.6882 28.8789 38.5164C28.8789 41.3447 31.1716 43.6374 33.9998 43.6374Z" fill="url(#paint14_linear_1804_29364)"/>
<path d="M26.5164 38.5164C26.5164 42.6495 29.8669 46 33.9999 46C38.133 46 41.4835 42.6495 41.4835 38.5164C41.4835 38.4874 41.4828 38.4585 41.4824 38.4296H26.5174C26.5171 38.4585 26.5164 38.4874 26.5164 38.5164Z" fill="url(#paint15_linear_1804_29364)"/>
<path d="M36.0986 45.7012C38.4567 45.0135 40.3331 43.1968 41.1036 40.8752L37.4588 37.2304L36.6371 37.2707L34.4194 35.053L31.7166 41.3191L36.0986 45.7012Z" fill="url(#paint16_linear_1804_29364)"/>
<path d="M37.0686 36.8903L35.601 36.5357C35.4645 36.5027 35.3452 36.42 35.2664 36.3036L34.4204 35.053C34.3181 34.9018 34.1613 34.8206 34 34.8075C33.8387 34.8206 33.6819 34.9018 33.5796 35.053L32.7336 36.3036C32.6549 36.42 32.5356 36.5027 32.399 36.5357L30.9314 36.8903C30.5333 36.9865 30.3674 37.4617 30.6191 37.7848L31.547 38.9758C31.6333 39.0866 31.6752 39.2257 31.6644 39.3657L31.5481 40.8711C31.5166 41.2794 31.9172 41.5841 32.3023 41.4445L33.7218 40.93C33.8115 40.8975 33.9072 40.8891 34 40.9035C34.0929 40.8892 34.1885 40.8976 34.2782 40.93L35.6977 41.4445C36.0828 41.584 36.4834 41.2794 36.4519 40.8711L36.3356 39.3657C36.3248 39.2257 36.3667 39.0866 36.453 38.9758L37.3809 37.7848C37.6326 37.4617 37.4667 36.9865 37.0686 36.8903Z" fill="url(#paint17_linear_1804_29364)"/>
<path d="M34.2782 40.93L35.6977 41.4445C36.0828 41.584 36.4834 41.2794 36.4519 40.8711L36.3356 39.3657C36.3248 39.2257 36.3667 39.0866 36.453 38.9758L37.3809 37.7848C37.6327 37.4617 37.4667 36.9865 37.0686 36.8903L35.601 36.5357C35.4645 36.5027 35.3452 36.42 35.2664 36.3036L34.4204 35.053C34.3181 34.9018 34.1613 34.8206 34 34.8075V40.9035C34.0929 40.8891 34.1886 40.8975 34.2782 40.93Z" fill="url(#paint18_linear_1804_29364)"/>
<path d="M37.0685 36.8903L35.6009 36.5357C35.5508 36.5236 35.5031 36.5046 35.4588 36.4799L31.7175 41.3191C31.8643 41.461 32.0857 41.523 32.3022 41.4445L33.7217 40.9301C33.8114 40.8975 33.9071 40.8892 33.9999 40.9036C34.0928 40.8892 34.1884 40.8976 34.2781 40.9301L35.6977 41.4445C36.0827 41.584 36.4834 41.2794 36.4518 40.8711L36.3356 39.3657C36.3247 39.2257 36.3666 39.0867 36.4529 38.9758L37.3809 37.7848C37.6325 37.4616 37.4667 36.9865 37.0685 36.8903Z" fill="url(#paint19_linear_1804_29364)"/>
<path d="M30.9314 36.8903L32.399 36.5357C32.4491 36.5236 32.4969 36.5047 32.5411 36.48L36.2824 41.3192C36.1356 41.461 35.9142 41.523 35.6977 41.4445L34.2782 40.9301C34.1885 40.8976 34.0929 40.8892 34 40.9036C33.9071 40.8892 33.8115 40.8976 33.7218 40.9301L32.3023 41.4445C31.9172 41.5841 31.5166 41.2794 31.5481 40.8711L31.6644 39.3657C31.6752 39.2257 31.6333 39.0867 31.547 38.9759L30.6191 37.7848C30.3674 37.4617 30.5333 36.9865 30.9314 36.8903Z" fill="url(#paint20_linear_1804_29364)"/>
<path d="M30.5408 37.2304C30.471 37.4064 30.4877 37.6161 30.6191 37.7848L31.547 38.9758C31.6333 39.0866 31.6752 39.2257 31.6644 39.3657L31.5481 40.8711C31.5166 41.2794 31.9172 41.5841 32.3023 41.4445L33.7218 40.93C33.8115 40.8975 33.9072 40.8891 34 40.9035C34.0929 40.8892 34.1885 40.8976 34.2782 40.93L35.6978 41.4445C36.0828 41.584 36.4835 41.2794 36.4519 40.8711L36.3356 39.3657C36.3296 39.288 36.3404 39.2108 36.3654 39.1384L30.5408 37.2304Z" fill="url(#paint21_linear_1804_29364)"/>
<path d="M37.4599 37.2304C37.5297 37.4064 37.513 37.6162 37.3816 37.7848L36.4536 38.9758C36.3673 39.0867 36.3255 39.2257 36.3363 39.3657L36.4526 40.8711C36.4841 41.2794 36.0834 41.5841 35.6984 41.4445L34.2789 40.93C34.1892 40.8975 34.0935 40.8892 34.0007 40.9036C33.9078 40.8892 33.8121 40.8976 33.7224 40.93L32.3029 41.4445C31.9179 41.584 31.5172 41.2794 31.5487 40.8711L31.665 39.3657C31.6711 39.288 31.6603 39.2108 31.6352 39.1384L37.4599 37.2304Z" fill="url(#paint22_linear_1804_29364)"/>
<path d="M34 31.0329C33.9689 31.0329 33.9381 31.0337 33.9071 31.034L32.7522 32.1889L41.1833 40.6201C41.3784 39.9527 41.4835 39.2468 41.4835 38.5164C41.4835 34.3833 38.133 31.0329 34 31.0329Z" fill="url(#paint23_linear_1804_29364)"/>
<path d="M29.4821 22.1568V26.1098L33.9997 30.6274L38.5174 26.1098V22.1568H29.4821Z" fill="url(#paint24_linear_1804_29364)"/>
<path d="M29.4821 22.1568V23.3871L33.9846 27.8896C33.9929 27.8979 34.0065 27.8979 34.0148 27.8896L38.5174 23.3871V22.1568H29.4821Z" fill="url(#paint25_linear_1804_29364)"/>
<path d="M29.4821 22.1568V23.3871L33.9846 27.8896C33.9929 27.8979 34.0065 27.8979 34.0148 27.8896L38.5174 23.3871V22.1568H29.4821Z" fill="url(#paint26_linear_1804_29364)"/>
<path d="M33.9997 28.6014C33.8134 28.6014 33.6272 28.5305 33.4855 28.3888L29.4821 24.3853V26.1098L33.9997 30.6275L38.5174 26.1098V24.3853L34.5139 28.3888C34.3722 28.5305 34.186 28.6014 33.9997 28.6014Z" fill="url(#paint27_linear_1804_29364)"/>
<path d="M33.9997 28.6014C33.8134 28.6014 33.6272 28.5305 33.4855 28.3888L29.4821 24.3853V26.1098L33.9997 30.6275L38.5174 26.1098V24.3853L34.5139 28.3888C34.3722 28.5305 34.186 28.6014 33.9997 28.6014Z" fill="url(#paint28_linear_1804_29364)"/>
<path d="M33.9997 28.6014C34.186 28.6014 34.3722 28.5305 34.5139 28.3888L38.5174 24.3853V26.1098L33.9997 30.6275L29.4821 26.1098V24.3853L33.4855 28.3888C33.6272 28.5305 33.8135 28.6014 33.9997 28.6014Z" fill="url(#paint29_linear_1804_29364)"/>
<path d="M33.5044 29.6013L29.66 25.7568C29.3717 25.4686 28.9043 25.4686 28.616 25.7568C28.3277 26.0451 28.3277 26.5126 28.616 26.8008L33.9998 32.1848L39.3837 26.8009C39.6719 26.5126 39.6719 26.0452 39.3837 25.7569C39.0954 25.4686 38.6279 25.4686 38.3397 25.7569L34.4952 29.6013C34.2216 29.8749 33.778 29.8749 33.5044 29.6013Z" fill="url(#paint30_linear_1804_29364)"/>
<path d="M28.6161 25.7656L33.4331 30.5826C33.7462 30.8957 34.2538 30.8957 34.5669 30.5826L39.3838 25.7656C39.3852 25.7642 39.3863 25.7626 39.3878 25.7612C39.3864 25.7598 39.3852 25.7583 39.3838 25.7568C39.0955 25.4686 38.6281 25.4686 38.3398 25.7568L34.4954 29.6013C34.2218 29.8749 33.7782 29.8749 33.5046 29.6013L29.6601 25.7568C29.3719 25.4686 28.9044 25.4686 28.6161 25.7568C28.6147 25.7583 28.6136 25.7598 28.6122 25.7612C28.6135 25.7626 28.6147 25.7642 28.6161 25.7656Z" fill="url(#paint31_linear_1804_29364)"/>
<path d="M33.9997 32.1848L37.8001 28.3843H35.7121L34.4951 29.6013C34.2215 29.8749 33.7779 29.8749 33.5043 29.6013L32.2873 28.3843H30.1992L33.9997 32.1848Z" fill="url(#paint32_linear_1804_29364)"/>
<path d="M33.5291 31.7142L33.9996 32.1847L38.8197 27.3647H36.7316L34.4951 29.6013C34.2294 29.8669 33.8041 29.8738 33.5291 29.6237V31.7142Z" fill="url(#paint33_linear_1804_29364)"/>
<path d="M33.9997 32.7058C34.9743 32.7058 35.7643 31.9157 35.7643 30.9412C35.7643 29.9666 34.9743 29.1766 33.9997 29.1766C33.0252 29.1766 32.2351 29.9666 32.2351 30.9412C32.2351 31.9157 33.0252 32.7058 33.9997 32.7058Z" fill="url(#paint34_linear_1804_29364)"/>
<path d="M33.9997 31.9528C34.5584 31.9528 35.0114 31.4999 35.0114 30.9412C35.0114 30.3824 34.5584 29.9295 33.9997 29.9295C33.441 29.9295 32.988 30.3824 32.988 30.9412C32.988 31.4999 33.441 31.9528 33.9997 31.9528Z" fill="url(#paint35_linear_1804_29364)"/>
<path d="M39.1999 23.7568H28.7997C28.5009 23.7568 28.2587 23.5146 28.2587 23.2158V22.5411C28.2587 22.2423 28.5009 22 28.7997 22H39.2C39.4988 22 39.741 22.2423 39.741 22.5411V23.2158C39.741 23.5146 39.4988 23.7568 39.1999 23.7568Z" fill="url(#paint36_linear_1804_29364)"/>
</g>
<defs>
<filter id="filter0_d_1804_29364" x="0" y="0" width="68" height="68" filterUnits="userSpaceOnUse" color-interpolation-filters="sRGB">
<feFlood flood-opacity="0" result="BackgroundImageFix"/>
<feColorMatrix in="SourceAlpha" type="matrix" values="0 0 0 0 0 0 0 0 0 0 0 0 0 0 0 0 0 0 127 0" result="hardAlpha"/>
<feOffset/>
<feGaussianBlur stdDeviation="6"/>
<feComposite in2="hardAlpha" operator="out"/>
<feColorMatrix type="matrix" values="0 0 0 0 0.211765 0 0 0 0 0.270588 0 0 0 0 0.309804 0 0 0 0.16 0"/>
<feBlend mode="normal" in2="BackgroundImageFix" result="effect1_dropShadow_1804_29364"/>
<feBlend mode="normal" in="SourceGraphic" in2="effect1_dropShadow_1804_29364" result="shape"/>
</filter>
<linearGradient id="paint0_linear_1804_29364" x1="26.3416" y1="38.7248" x2="27.1927" y2="40.942" gradientUnits="userSpaceOnUse">
<stop stop-color="#E6E6E6"/>
<stop offset="1" stop-color="#999999"/>
</linearGradient>
<linearGradient id="paint1_linear_1804_29364" x1="25.9007" y1="39.8833" x2="27.7619" y2="41.43" gradientUnits="userSpaceOnUse">
<stop stop-color="#766E6E" stop-opacity="0"/>
<stop offset="0.2806" stop-color="#716B6B" stop-opacity="0.281"/>
<stop offset="0.5705" stop-color="#656060" stop-opacity="0.571"/>
<stop offset="0.8636" stop-color="#514F4F" stop-opacity="0.864"/>
<stop offset="1" stop-color="#444444"/>
</linearGradient>
<linearGradient id="paint2_linear_1804_29364" x1="25.3826" y1="36.7724" x2="27.166" y2="39.02" gradientUnits="userSpaceOnUse">
<stop stop-color="#E6E6E6"/>
<stop offset="1" stop-color="#999999"/>
</linearGradient>
<linearGradient id="paint3_linear_1804_29364" x1="25.8214" y1="38.8709" x2="27.5161" y2="39.2943" gradientUnits="userSpaceOnUse">
<stop stop-color="#766E6E" stop-opacity="0"/>
<stop offset="0.2806" stop-color="#716B6B" stop-opacity="0.281"/>
<stop offset="0.5705" stop-color="#656060" stop-opacity="0.571"/>
<stop offset="0.8636" stop-color="#514F4F" stop-opacity="0.864"/>
<stop offset="1" stop-color="#444444"/>
</linearGradient>
<linearGradient id="paint4_linear_1804_29364" x1="27.728" y1="33.9282" x2="27.913" y2="37.7389" gradientUnits="userSpaceOnUse">
<stop stop-color="#E6E6E6"/>
<stop offset="1" stop-color="#999999"/>
</linearGradient>
<linearGradient id="paint5_linear_1804_29364" x1="27.4436" y1="35.9004" x2="28.5516" y2="37.5375" gradientUnits="userSpaceOnUse">
<stop stop-color="#766E6E" stop-opacity="0"/>
<stop offset="0.2806" stop-color="#716B6B" stop-opacity="0.281"/>
<stop offset="0.5705" stop-color="#656060" stop-opacity="0.571"/>
<stop offset="0.8636" stop-color="#514F4F" stop-opacity="0.864"/>
<stop offset="1" stop-color="#444444"/>
</linearGradient>
<linearGradient id="paint6_linear_1804_29364" x1="41.6601" y1="38.7231" x2="40.809" y2="40.9404" gradientUnits="userSpaceOnUse">
<stop stop-color="#E6E6E6"/>
<stop offset="1" stop-color="#999999"/>
</linearGradient>
<linearGradient id="paint7_linear_1804_29364" x1="42.101" y1="39.8815" x2="40.2398" y2="41.4283" gradientUnits="userSpaceOnUse">
<stop stop-color="#766E6E" stop-opacity="0"/>
<stop offset="0.2806" stop-color="#716B6B" stop-opacity="0.281"/>
<stop offset="0.5705" stop-color="#656060" stop-opacity="0.571"/>
<stop offset="0.8636" stop-color="#514F4F" stop-opacity="0.864"/>
<stop offset="1" stop-color="#444444"/>
</linearGradient>
<linearGradient id="paint8_linear_1804_29364" x1="42.6191" y1="36.7707" x2="40.8358" y2="39.0183" gradientUnits="userSpaceOnUse">
<stop stop-color="#E6E6E6"/>
<stop offset="1" stop-color="#999999"/>
</linearGradient>
<linearGradient id="paint9_linear_1804_29364" x1="42.1803" y1="38.8691" x2="40.4857" y2="39.2926" gradientUnits="userSpaceOnUse">
<stop stop-color="#766E6E" stop-opacity="0"/>
<stop offset="0.2806" stop-color="#716B6B" stop-opacity="0.281"/>
<stop offset="0.5705" stop-color="#656060" stop-opacity="0.571"/>
<stop offset="0.8636" stop-color="#514F4F" stop-opacity="0.864"/>
<stop offset="1" stop-color="#444444"/>
</linearGradient>
<linearGradient id="paint10_linear_1804_29364" x1="40.2738" y1="33.9265" x2="40.0888" y2="37.7372" gradientUnits="userSpaceOnUse">
<stop stop-color="#E6E6E6"/>
<stop offset="1" stop-color="#999999"/>
</linearGradient>
<linearGradient id="paint11_linear_1804_29364" x1="40.5582" y1="35.8986" x2="39.4501" y2="37.5358" gradientUnits="userSpaceOnUse">
<stop stop-color="#766E6E" stop-opacity="0"/>
<stop offset="0.2806" stop-color="#716B6B" stop-opacity="0.281"/>
<stop offset="0.5705" stop-color="#656060" stop-opacity="0.571"/>
<stop offset="0.8636" stop-color="#514F4F" stop-opacity="0.864"/>
<stop offset="1" stop-color="#444444"/>
</linearGradient>
<linearGradient id="paint12_linear_1804_29364" x1="29.386" y1="33.9025" x2="37.2785" y2="41.795" gradientUnits="userSpaceOnUse">
<stop stop-color="#E6E6E6"/>
<stop offset="1" stop-color="#999999"/>
</linearGradient>
<linearGradient id="paint13_linear_1804_29364" x1="37.8743" y1="42.3906" x2="30.0129" y2="34.5292" gradientUnits="userSpaceOnUse">
<stop stop-color="#E6E6E6"/>
<stop offset="1" stop-color="#999999"/>
</linearGradient>
<linearGradient id="paint14_linear_1804_29364" x1="30.2771" y1="34.7937" x2="36.4049" y2="40.9215" gradientUnits="userSpaceOnUse">
<stop stop-color="#E6E6E6"/>
<stop offset="1" stop-color="#999999"/>
</linearGradient>
<linearGradient id="paint15_linear_1804_29364" x1="33.9999" y1="40.706" x2="33.9999" y2="45.618" gradientUnits="userSpaceOnUse">
<stop stop-color="#766E6E" stop-opacity="0"/>
<stop offset="0.2806" stop-color="#716B6B" stop-opacity="0.281"/>
<stop offset="0.5705" stop-color="#656060" stop-opacity="0.571"/>
<stop offset="0.8636" stop-color="#514F4F" stop-opacity="0.864"/>
<stop offset="1" stop-color="#444444"/>
</linearGradient>
<linearGradient id="paint16_linear_1804_29364" x1="38.4818" y1="42.4057" x2="32.3014" y2="38.5154" gradientUnits="userSpaceOnUse">
<stop stop-color="#766E6E" stop-opacity="0"/>
<stop offset="0.2806" stop-color="#716B6B" stop-opacity="0.281"/>
<stop offset="0.5705" stop-color="#656060" stop-opacity="0.571"/>
<stop offset="0.8636" stop-color="#514F4F" stop-opacity="0.864"/>
<stop offset="1" stop-color="#444444"/>
</linearGradient>
<linearGradient id="paint17_linear_1804_29364" x1="32.4411" y1="37.094" x2="35.2522" y2="39.905" gradientUnits="userSpaceOnUse">
<stop stop-color="#F9F5F3"/>
<stop offset="1" stop-color="#D8E8F0"/>
</linearGradient>
<linearGradient id="paint18_linear_1804_29364" x1="35.6844" y1="37.8604" x2="31.7991" y2="39.4666" gradientUnits="userSpaceOnUse">
<stop stop-color="#678D98" stop-opacity="0"/>
<stop offset="0.9957" stop-color="#678D98" stop-opacity="0.996"/>
<stop offset="1" stop-color="#678D98"/>
</linearGradient>
<linearGradient id="paint19_linear_1804_29364" x1="34.6699" y1="39.2392" x2="32.5427" y2="38.3276" gradientUnits="userSpaceOnUse">
<stop stop-color="#678D98" stop-opacity="0"/>
<stop offset="0.9957" stop-color="#678D98" stop-opacity="0.996"/>
<stop offset="1" stop-color="#678D98"/>
</linearGradient>
<linearGradient id="paint20_linear_1804_29364" x1="33.3301" y1="39.2393" x2="35.4572" y2="38.3276" gradientUnits="userSpaceOnUse">
<stop stop-color="#678D98" stop-opacity="0"/>
<stop offset="0.9957" stop-color="#678D98" stop-opacity="0.996"/>
<stop offset="1" stop-color="#678D98"/>
</linearGradient>
<linearGradient id="paint21_linear_1804_29364" x1="33.3774" y1="39.3459" x2="34.7448" y2="37.1482" gradientUnits="userSpaceOnUse">
<stop stop-color="#678D98" stop-opacity="0"/>
<stop offset="0.9957" stop-color="#678D98" stop-opacity="0.996"/>
<stop offset="1" stop-color="#678D98"/>
</linearGradient>
<linearGradient id="paint22_linear_1804_29364" x1="34.5179" y1="39.0684" x2="34.4039" y2="36.9196" gradientUnits="userSpaceOnUse">
<stop stop-color="#678D98" stop-opacity="0"/>
<stop offset="0.9957" stop-color="#678D98" stop-opacity="0.996"/>
<stop offset="1" stop-color="#678D98"/>
</linearGradient>
<linearGradient id="paint23_linear_1804_29364" x1="37.6877" y1="35.3549" x2="34.8014" y2="30.304" gradientUnits="userSpaceOnUse">
<stop stop-color="#766E6E" stop-opacity="0"/>
<stop offset="0.2806" stop-color="#716B6B" stop-opacity="0.281"/>
<stop offset="0.5705" stop-color="#656060" stop-opacity="0.571"/>
<stop offset="0.8636" stop-color="#514F4F" stop-opacity="0.864"/>
<stop offset="1" stop-color="#444444"/>
</linearGradient>
<linearGradient id="paint24_linear_1804_29364" x1="34.3344" y1="24.6671" x2="36.1932" y2="27.6318" gradientUnits="userSpaceOnUse">
<stop stop-color="#F9F5F3"/>
<stop offset="1" stop-color="#D8E8F0"/>
</linearGradient>
<linearGradient id="paint25_linear_1804_29364" x1="32.4803" y1="21.0296" x2="38.2529" y2="27.6492" gradientUnits="userSpaceOnUse">
<stop stop-color="#B3DAFE"/>
<stop offset="1" stop-color="#0182FC"/>
</linearGradient>
<linearGradient id="paint26_linear_1804_29364" x1="33.9997" y1="25.1294" x2="33.9997" y2="23.5749" gradientUnits="userSpaceOnUse">
<stop stop-color="#0182FC" stop-opacity="0"/>
<stop offset="0.1261" stop-color="#017FF3" stop-opacity="0.126"/>
<stop offset="0.3306" stop-color="#0176DB" stop-opacity="0.331"/>
<stop offset="0.5881" stop-color="#0268B4" stop-opacity="0.588"/>
<stop offset="0.8857" stop-color="#02547E" stop-opacity="0.886"/>
<stop offset="1" stop-color="#024C67"/>
</linearGradient>
<linearGradient id="paint27_linear_1804_29364" x1="31.2541" y1="22.099" x2="37.0266" y2="28.7186" gradientUnits="userSpaceOnUse">
<stop stop-color="#B3DAFE"/>
<stop offset="1" stop-color="#0182FC"/>
</linearGradient>
<linearGradient id="paint28_linear_1804_29364" x1="35.7877" y1="27.0355" x2="36.591" y2="27.8388" gradientUnits="userSpaceOnUse">
<stop stop-color="#0182FC" stop-opacity="0"/>
<stop offset="0.1261" stop-color="#017FF3" stop-opacity="0.126"/>
<stop offset="0.3306" stop-color="#0176DB" stop-opacity="0.331"/>
<stop offset="0.5881" stop-color="#0268B4" stop-opacity="0.588"/>
<stop offset="0.8857" stop-color="#02547E" stop-opacity="0.886"/>
<stop offset="1" stop-color="#024C67"/>
</linearGradient>
<linearGradient id="paint29_linear_1804_29364" x1="32.2117" y1="27.0355" x2="31.4084" y2="27.8388" gradientUnits="userSpaceOnUse">
<stop stop-color="#0182FC" stop-opacity="0"/>
<stop offset="0.1261" stop-color="#017FF3" stop-opacity="0.126"/>
<stop offset="0.3306" stop-color="#0176DB" stop-opacity="0.331"/>
<stop offset="0.5881" stop-color="#0268B4" stop-opacity="0.588"/>
<stop offset="0.8857" stop-color="#02547E" stop-opacity="0.886"/>
<stop offset="1" stop-color="#024C67"/>
</linearGradient>
<linearGradient id="paint30_linear_1804_29364" x1="38.0791" y1="30.3582" x2="28.4293" y2="20.7083" gradientUnits="userSpaceOnUse">
<stop stop-color="#E6E6E6"/>
<stop offset="1" stop-color="#999999"/>
</linearGradient>
<linearGradient id="paint31_linear_1804_29364" x1="33.9999" y1="25.8432" x2="33.9999" y2="32.4332" gradientUnits="userSpaceOnUse">
<stop stop-color="#E6E6E6"/>
<stop offset="1" stop-color="#999999"/>
</linearGradient>
<linearGradient id="paint32_linear_1804_29364" x1="33.9997" y1="29.6706" x2="33.9997" y2="31.8374" gradientUnits="userSpaceOnUse">
<stop stop-color="#766E6E" stop-opacity="0"/>
<stop offset="0.2806" stop-color="#716B6B" stop-opacity="0.281"/>
<stop offset="0.5705" stop-color="#656060" stop-opacity="0.571"/>
<stop offset="0.8636" stop-color="#514F4F" stop-opacity="0.864"/>
<stop offset="1" stop-color="#444444"/>
</linearGradient>
<linearGradient id="paint33_linear_1804_29364" x1="36.224" y1="28.4437" x2="34.9063" y2="29.7849" gradientUnits="userSpaceOnUse">
<stop stop-color="#766E6E" stop-opacity="0"/>
<stop offset="0.2806" stop-color="#716B6B" stop-opacity="0.281"/>
<stop offset="0.5705" stop-color="#656060" stop-opacity="0.571"/>
<stop offset="0.8636" stop-color="#514F4F" stop-opacity="0.864"/>
<stop offset="1" stop-color="#444444"/>
</linearGradient>
<linearGradient id="paint34_linear_1804_29364" x1="32.988" y1="29.9294" x2="35.4835" y2="32.4249" gradientUnits="userSpaceOnUse">
<stop stop-color="#F9F5F3"/>
<stop offset="1" stop-color="#D8E8F0"/>
</linearGradient>
<linearGradient id="paint35_linear_1804_29364" x1="34.7174" y1="31.6588" x2="33.482" y2="30.4235" gradientUnits="userSpaceOnUse">
<stop stop-color="#F9F5F3"/>
<stop offset="1" stop-color="#D8E8F0"/>
</linearGradient>
<linearGradient id="paint36_linear_1804_29364" x1="33.9998" y1="22.5333" x2="33.9998" y2="23.5139" gradientUnits="userSpaceOnUse">
<stop stop-color="#E6E6E6"/>
<stop offset="1" stop-color="#999999"/>
</linearGradient>
<clipPath id="clip0_1804_29364">
<rect width="24" height="24" fill="white" transform="translate(22 22)"/>
</clipPath>
</defs>
</svg>
