<svg width="14" height="16" viewBox="0 0 14 16" fill="none" xmlns="http://www.w3.org/2000/svg">
<path d="M2.80611 11.8158C3.59852 12.1411 4.2255 12.6658 4.60975 13.2604C4.69022 13.3849 4.56887 13.6805 4.42412 13.7126C3.73289 13.8657 2.91814 13.7986 2.12573 13.4733C1.33332 13.148 0.706344 12.6233 0.322093 12.0287C0.241623 11.9042 0.362972 11.6086 0.507725 11.5765C1.19892 11.4234 2.0137 11.4906 2.80611 11.8158Z" fill="url(#paint0_linear_1708_24725)"/>
<path d="M2.80611 11.8158C3.59852 12.1411 4.2255 12.6658 4.60975 13.2604C4.69022 13.3849 4.56887 13.6805 4.42412 13.7126C3.73289 13.8657 2.91814 13.7986 2.12573 13.4733C1.33332 13.148 0.706344 12.6233 0.322093 12.0287C0.241623 11.9042 0.362972 11.6086 0.507725 11.5765C1.19892 11.4234 2.0137 11.4906 2.80611 11.8158Z" fill="url(#paint1_linear_1708_24725)"/>
<path d="M3.20924 10.6922C3.98527 11.3073 4.51371 12.0908 4.75016 12.8744C4.79967 13.0385 4.57024 13.3279 4.39916 13.3172C3.58232 13.266 2.6988 12.9304 1.92277 12.3154C1.14674 11.7003 0.618302 10.9168 0.381847 10.1332C0.332341 9.96913 0.561768 9.67965 0.732843 9.69038C1.54969 9.74165 2.4332 10.0771 3.20924 10.6922Z" fill="url(#paint2_linear_1708_24725)"/>
<path d="M3.20924 10.6922C3.98527 11.3073 4.51371 12.0908 4.75016 12.8744C4.79967 13.0385 4.57024 13.3279 4.39916 13.3172C3.58232 13.266 2.6988 12.9304 1.92277 12.3154C1.14674 11.7003 0.618302 10.9168 0.381847 10.1332C0.332341 9.96913 0.561768 9.67965 0.732843 9.69038C1.54969 9.74165 2.4332 10.0771 3.20924 10.6922Z" fill="url(#paint3_linear_1708_24725)"/>
<path d="M3.99274 8.9607C4.67271 10.0044 4.99001 11.1502 4.95902 12.1794C4.95252 12.3949 4.56316 12.6485 4.36341 12.5674C3.40949 12.1799 2.48962 11.4267 1.80965 10.383C1.12968 9.33924 0.81238 8.19345 0.843376 7.16431C0.84987 6.94878 1.23923 6.69513 1.43898 6.77626C2.3929 7.16374 3.31277 7.91697 3.99274 8.9607Z" fill="url(#paint4_linear_1708_24725)"/>
<path d="M0.958984 8.37405C1.10505 9.04815 1.38722 9.73518 1.80924 10.383C2.48921 11.4267 3.40906 12.1799 4.363 12.5674C4.56278 12.6486 4.95211 12.3949 4.95861 12.1794C4.98964 11.1502 4.67233 10.0044 3.99233 8.96069C3.59193 8.3461 3.10832 7.83234 2.58358 7.43457L0.958984 8.37405Z" fill="url(#paint5_linear_1708_24725)"/>
<path d="M11.1931 11.8158C10.4007 12.1411 9.77373 12.6658 9.38948 13.2604C9.30901 13.3849 9.43036 13.6805 9.57511 13.7126C10.2663 13.8657 11.0811 13.7986 11.8735 13.4733C12.6659 13.148 13.2929 12.6233 13.6771 12.0287C13.7576 11.9042 13.6363 11.6086 13.4915 11.5765C12.8003 11.4234 11.9855 11.4906 11.1931 11.8158Z" fill="url(#paint6_linear_1708_24725)"/>
<path d="M11.1931 11.8158C10.4007 12.1411 9.77373 12.6658 9.38948 13.2604C9.30901 13.3849 9.43036 13.6805 9.57511 13.7126C10.2663 13.8657 11.0811 13.7986 11.8735 13.4733C12.6659 13.148 13.2929 12.6233 13.6771 12.0287C13.7576 11.9042 13.6363 11.6086 13.4915 11.5765C12.8003 11.4234 11.9855 11.4906 11.1931 11.8158Z" fill="url(#paint7_linear_1708_24725)"/>
<path d="M10.7904 10.6922C10.0144 11.3073 9.48598 12.0908 9.24952 12.8744C9.20002 13.0385 9.42944 13.3279 9.60052 13.3172C10.4174 13.266 11.3009 12.9304 12.0769 12.3154C12.8529 11.7003 13.3814 10.9168 13.6178 10.1332C13.6673 9.96913 13.4379 9.67965 13.2668 9.69038C12.45 9.74165 11.5665 10.0771 10.7904 10.6922Z" fill="url(#paint8_linear_1708_24725)"/>
<path d="M10.7904 10.6922C10.0144 11.3073 9.48598 12.0908 9.24952 12.8744C9.20002 13.0385 9.42944 13.3279 9.60052 13.3172C10.4174 13.266 11.3009 12.9304 12.0769 12.3154C12.8529 11.7003 13.3814 10.9168 13.6178 10.1332C13.6673 9.96913 13.4379 9.67965 13.2668 9.69038C12.45 9.74165 11.5665 10.0771 10.7904 10.6922Z" fill="url(#paint9_linear_1708_24725)"/>
<path d="M10.0069 8.9607C9.32695 10.0044 9.00965 11.1502 9.04064 12.1794C9.04714 12.3949 9.4365 12.6485 9.63625 12.5674C10.5902 12.1799 11.51 11.4267 12.19 10.383C12.87 9.33924 13.1873 8.19345 13.1563 7.16431C13.1498 6.94878 12.7604 6.69513 12.5607 6.77626C11.6068 7.16374 10.6869 7.91697 10.0069 8.9607Z" fill="url(#paint10_linear_1708_24725)"/>
<path d="M13.0403 8.37405C12.8942 9.04815 12.612 9.73518 12.19 10.383C11.51 11.4267 10.5902 12.1799 9.63625 12.5674C9.43647 12.6486 9.04714 12.3949 9.04065 12.1794C9.00962 11.1502 9.32692 10.0044 10.0069 8.96069C10.4073 8.3461 10.8909 7.83234 11.4157 7.43457L13.0403 8.37405Z" fill="url(#paint11_linear_1708_24725)"/>
<path d="M6.99979 16C9.75517 16 11.9888 13.7663 11.9888 11.011C11.9888 8.25559 9.75517 6.02191 6.99979 6.02191C4.24442 6.02191 2.01074 8.25559 2.01074 11.011C2.01074 13.7663 4.24442 16 6.99979 16Z" fill="url(#paint12_linear_1708_24725)"/>
<path d="M7.00006 14.9876C9.1963 14.9876 10.9767 13.2072 10.9767 11.011C10.9767 8.81473 9.1963 7.03433 7.00006 7.03433C4.80383 7.03433 3.02344 8.81473 3.02344 11.011C3.02344 13.2072 4.80383 14.9876 7.00006 14.9876Z" fill="url(#paint13_linear_1708_24725)"/>
<path d="M6.9999 14.4249C8.88538 14.4249 10.4139 12.8965 10.4139 11.011C10.4139 9.1255 8.88538 7.59702 6.9999 7.59702C5.11442 7.59702 3.58594 9.1255 3.58594 11.011C3.58594 12.8965 5.11442 14.4249 6.9999 14.4249Z" fill="url(#paint14_linear_1708_24725)"/>
<path d="M2.01074 11.011C2.01074 13.7664 4.24441 16 6.99979 16C9.75518 16 11.9888 13.7664 11.9888 11.011C11.9888 10.9916 11.9883 10.9724 11.9881 10.9531H2.01146C2.01124 10.9724 2.01074 10.9916 2.01074 11.011Z" fill="url(#paint15_linear_1708_24725)"/>
<path d="M8.39892 15.8008C9.97097 15.3423 11.2219 14.1312 11.7356 12.5835L9.30568 10.1536L8.75788 10.1805L7.27942 8.702L5.47754 12.8794L8.39892 15.8008Z" fill="url(#paint16_linear_1708_24725)"/>
<path d="M9.04583 9.92688L8.06741 9.69049C7.9764 9.66849 7.89687 9.61331 7.84438 9.53576L7.28037 8.70203C7.21213 8.6012 7.10763 8.54708 7.00008 8.53836C6.89254 8.54708 6.78801 8.6012 6.7198 8.70203L6.15579 9.53576C6.10333 9.61331 6.0238 9.66849 5.93276 9.69049L4.95434 9.92688C4.68893 9.991 4.57834 10.3078 4.74612 10.5232L5.36476 11.3172C5.4223 11.3911 5.45022 11.4838 5.443 11.5771L5.36548 12.5807C5.34446 12.8529 5.61153 13.056 5.86826 12.963L6.81461 12.62C6.87441 12.5983 6.93819 12.5928 7.00008 12.6024C7.06201 12.5928 7.12576 12.5984 7.18556 12.62L8.13191 12.963C8.3886 13.056 8.65571 12.8529 8.63469 12.5807L8.55717 11.5771C8.54995 11.4838 8.57787 11.3911 8.63541 11.3172L9.25405 10.5232C9.42183 10.3078 9.31124 9.991 9.04583 9.92688Z" fill="url(#paint17_linear_1708_24725)"/>
<path d="M7.18547 12.62L8.13183 12.963C8.38852 13.056 8.65562 12.8529 8.6346 12.5807L8.55708 11.5771C8.54987 11.4838 8.57779 11.3911 8.63533 11.3172L9.25396 10.5232C9.42177 10.3078 9.31115 9.991 9.04574 9.92688L8.06733 9.69049C7.97631 9.66849 7.89678 9.61331 7.8443 9.53576L7.28028 8.70203C7.21205 8.6012 7.10755 8.54708 7 8.53836V12.6024C7.06193 12.5928 7.12571 12.5983 7.18547 12.62Z" fill="url(#paint18_linear_1708_24725)"/>
<path d="M9.04586 9.92686L8.06744 9.69047C8.03403 9.6824 8.00222 9.66976 7.9727 9.65329L5.47852 12.8794C5.57637 12.974 5.72397 13.0153 5.86829 12.963L6.81464 12.62C6.87444 12.5984 6.93822 12.5928 7.00012 12.6024C7.06205 12.5928 7.12579 12.5984 7.18559 12.62L8.13194 12.963C8.38863 13.056 8.65574 12.8529 8.63472 12.5807L8.5572 11.5771C8.54998 11.4838 8.5779 11.3911 8.63544 11.3172L9.25408 10.5232C9.42186 10.3078 9.31127 9.99098 9.04586 9.92686Z" fill="url(#paint19_linear_1708_24725)"/>
<path d="M4.95434 9.92689L5.93276 9.6905C5.96617 9.68243 5.99798 9.66979 6.0275 9.65332L8.52168 12.8795C8.42383 12.974 8.27622 13.0153 8.13191 12.963L7.18556 12.6201C7.12576 12.5984 7.06198 12.5928 7.00008 12.6024C6.93815 12.5928 6.87441 12.5984 6.81461 12.6201L5.86826 12.963C5.61157 13.0561 5.34446 12.853 5.36548 12.5808L5.443 11.5772C5.45022 11.4838 5.4223 11.3911 5.36476 11.3173L4.74612 10.5232C4.57834 10.3078 4.68893 9.99101 4.95434 9.92689Z" fill="url(#paint20_linear_1708_24725)"/>
<path d="M4.69401 10.1536C4.64749 10.2709 4.65866 10.4108 4.74622 10.5232L5.36485 11.3172C5.42239 11.3911 5.45031 11.4838 5.44309 11.5771L5.36557 12.5807C5.34455 12.8529 5.61163 13.056 5.86835 12.963L6.8147 12.62C6.8745 12.5983 6.93828 12.5927 7.00018 12.6023C7.06211 12.5928 7.12585 12.5984 7.18565 12.62L8.132 12.963C8.38869 13.056 8.6558 12.8529 8.63478 12.5807L8.55726 11.5771C8.55324 11.5253 8.56043 11.4738 8.57712 11.4256L4.69401 10.1536Z" fill="url(#paint21_linear_1708_24725)"/>
<path d="M9.30668 10.1536C9.3532 10.271 9.34207 10.4108 9.25448 10.5232L8.63584 11.3172C8.5783 11.3911 8.55038 11.4838 8.5576 11.5772L8.63512 12.5807C8.65614 12.853 8.38903 13.0561 8.13234 12.963L7.18599 12.62C7.12619 12.5984 7.06241 12.5928 7.00051 12.6024C6.93859 12.5928 6.87484 12.5984 6.81504 12.62L5.86869 12.963C5.612 13.056 5.34489 12.853 5.36591 12.5807L5.44343 11.5772C5.44745 11.5254 5.44026 11.4739 5.42357 11.4256L9.30668 10.1536Z" fill="url(#paint22_linear_1708_24725)"/>
<path d="M6.99981 6.02191C6.97911 6.02191 6.95856 6.02245 6.93791 6.0227L6.16797 6.79264L11.7887 12.4134C11.9188 11.9685 11.9889 11.4979 11.9889 11.0109C11.9889 8.25557 9.7552 6.02191 6.99981 6.02191Z" fill="url(#paint23_linear_1708_24725)"/>
<path d="M3.98779 0.104553V2.73985L6.99956 5.75161L10.0113 2.73985V0.104553H3.98779Z" fill="url(#paint24_linear_1708_24725)"/>
<path d="M3.98779 0.104553V0.924694L6.98949 3.92639C6.99504 3.93194 7.00408 3.93194 7.00963 3.92639L10.0113 0.924694V0.104553H3.98779Z" fill="url(#paint25_linear_1708_24725)"/>
<path d="M3.98779 0.104553V0.924694L6.98949 3.92639C6.99504 3.93194 7.00408 3.93194 7.00963 3.92639L10.0113 0.924694V0.104553H3.98779Z" fill="url(#paint26_linear_1708_24725)"/>
<path d="M6.99956 4.40094C6.87539 4.40094 6.75124 4.35369 6.65675 4.25917L3.98779 1.59021V2.73989L6.99956 5.75165L10.0113 2.73989V1.59021L7.34237 4.25917C7.24787 4.35366 7.12373 4.40094 6.99956 4.40094Z" fill="url(#paint27_linear_1708_24725)"/>
<path d="M6.99956 4.40094C6.87539 4.40094 6.75124 4.35369 6.65675 4.25917L3.98779 1.59021V2.73989L6.99956 5.75165L10.0113 2.73989V1.59021L7.34237 4.25917C7.24787 4.35366 7.12373 4.40094 6.99956 4.40094Z" fill="url(#paint28_linear_1708_24725)"/>
<path d="M6.99956 4.40094C7.12373 4.40094 7.24787 4.35369 7.34237 4.25917L10.0113 1.59021V2.73989L6.99956 5.75165L3.98779 2.73989V1.59021L6.65675 4.25917C6.75124 4.35366 6.87542 4.40094 6.99956 4.40094Z" fill="url(#paint29_linear_1708_24725)"/>
<path d="M6.66969 5.0675L4.10674 2.50455C3.91455 2.31237 3.60293 2.31237 3.41074 2.50455C3.21855 2.69674 3.21855 3.00837 3.41074 3.20055L6.99995 6.78982L10.5892 3.20059C10.7814 3.0084 10.7814 2.69677 10.5892 2.50459C10.397 2.3124 10.0854 2.3124 9.89319 2.50459L7.33024 5.06753C7.14781 5.24993 6.85209 5.24993 6.66969 5.0675Z" fill="url(#paint30_linear_1708_24725)"/>
<path d="M3.41081 2.51039L6.62213 5.72171C6.83085 5.93044 7.16927 5.93044 7.37799 5.72171L10.5893 2.51039C10.5902 2.50945 10.591 2.50841 10.5919 2.50747C10.591 2.50653 10.5902 2.50549 10.5893 2.50455C10.3971 2.31237 10.0855 2.31237 9.89329 2.50455L7.33034 5.0675C7.14794 5.2499 6.85219 5.2499 6.66979 5.0675L4.10684 2.50455C3.91465 2.31237 3.60303 2.31237 3.41084 2.50455C3.4099 2.50549 3.40914 2.50653 3.4082 2.50747C3.40911 2.50841 3.40987 2.50945 3.41081 2.51039Z" fill="url(#paint31_linear_1708_24725)"/>
<path d="M6.99996 6.78984L9.53357 4.25623H8.14154L7.33021 5.06755C7.14781 5.24995 6.85207 5.24995 6.66967 5.06755L5.85834 4.25623H4.46631L6.99996 6.78984Z" fill="url(#paint32_linear_1708_24725)"/>
<path d="M6.68604 6.47609L6.99976 6.78981L10.2131 3.57645H8.82109L7.33005 5.06749C7.15295 5.24459 6.86938 5.2492 6.68604 5.08245V6.47609Z" fill="url(#paint33_linear_1708_24725)"/>
<path d="M6.99965 7.13718C7.64936 7.13718 8.17606 6.61048 8.17606 5.96077C8.17606 5.31106 7.64936 4.78436 6.99965 4.78436C6.34994 4.78436 5.82324 5.31106 5.82324 5.96077C5.82324 6.61048 6.34994 7.13718 6.99965 7.13718Z" fill="url(#paint34_linear_1708_24725)"/>
<path d="M6.99964 6.63521C7.37213 6.63521 7.67409 6.33325 7.67409 5.96076C7.67409 5.58828 7.37213 5.28632 6.99964 5.28632C6.62716 5.28632 6.3252 5.58828 6.3252 5.96076C6.3252 6.33325 6.62716 6.63521 6.99964 6.63521Z" fill="url(#paint35_linear_1708_24725)"/>
<path d="M10.4665 1.17123H3.53308C3.33387 1.17123 3.17236 1.00973 3.17236 0.81051V0.360722C3.17236 0.161506 3.33387 0 3.53308 0H10.4666C10.6658 0 10.8273 0.161506 10.8273 0.360722V0.810541C10.8273 1.00976 10.6658 1.17123 10.4665 1.17123Z" fill="url(#paint36_linear_1708_24725)"/>
<defs>
<linearGradient id="paint0_linear_1708_24725" x1="1.8943" y1="11.1499" x2="2.46169" y2="12.628" gradientUnits="userSpaceOnUse">
<stop stop-color="#E6E6E6"/>
<stop offset="1" stop-color="#999999"/>
</linearGradient>
<linearGradient id="paint1_linear_1708_24725" x1="1.6004" y1="11.9222" x2="2.84117" y2="12.9533" gradientUnits="userSpaceOnUse">
<stop stop-color="#766E6E" stop-opacity="0"/>
<stop offset="0.2806" stop-color="#716B6B" stop-opacity="0.281"/>
<stop offset="0.5705" stop-color="#656060" stop-opacity="0.571"/>
<stop offset="0.8636" stop-color="#514F4F" stop-opacity="0.864"/>
<stop offset="1" stop-color="#444444"/>
</linearGradient>
<linearGradient id="paint2_linear_1708_24725" x1="1.2551" y1="9.84827" x2="2.44397" y2="11.3466" gradientUnits="userSpaceOnUse">
<stop stop-color="#E6E6E6"/>
<stop offset="1" stop-color="#999999"/>
</linearGradient>
<linearGradient id="paint3_linear_1708_24725" x1="1.54763" y1="11.2472" x2="2.6774" y2="11.5295" gradientUnits="userSpaceOnUse">
<stop stop-color="#766E6E" stop-opacity="0"/>
<stop offset="0.2806" stop-color="#716B6B" stop-opacity="0.281"/>
<stop offset="0.5705" stop-color="#656060" stop-opacity="0.571"/>
<stop offset="0.8636" stop-color="#514F4F" stop-opacity="0.864"/>
<stop offset="1" stop-color="#444444"/>
</linearGradient>
<linearGradient id="paint4_linear_1708_24725" x1="2.81876" y1="7.95215" x2="2.94208" y2="10.4926" gradientUnits="userSpaceOnUse">
<stop stop-color="#E6E6E6"/>
<stop offset="1" stop-color="#999999"/>
</linearGradient>
<linearGradient id="paint5_linear_1708_24725" x1="2.6288" y1="9.2669" x2="3.36752" y2="10.3584" gradientUnits="userSpaceOnUse">
<stop stop-color="#766E6E" stop-opacity="0"/>
<stop offset="0.2806" stop-color="#716B6B" stop-opacity="0.281"/>
<stop offset="0.5705" stop-color="#656060" stop-opacity="0.571"/>
<stop offset="0.8636" stop-color="#514F4F" stop-opacity="0.864"/>
<stop offset="1" stop-color="#444444"/>
</linearGradient>
<linearGradient id="paint6_linear_1708_24725" x1="12.1063" y1="11.1487" x2="11.5389" y2="12.6269" gradientUnits="userSpaceOnUse">
<stop stop-color="#E6E6E6"/>
<stop offset="1" stop-color="#999999"/>
</linearGradient>
<linearGradient id="paint7_linear_1708_24725" x1="12.4003" y1="11.921" x2="11.1595" y2="12.9522" gradientUnits="userSpaceOnUse">
<stop stop-color="#766E6E" stop-opacity="0"/>
<stop offset="0.2806" stop-color="#716B6B" stop-opacity="0.281"/>
<stop offset="0.5705" stop-color="#656060" stop-opacity="0.571"/>
<stop offset="0.8636" stop-color="#514F4F" stop-opacity="0.864"/>
<stop offset="1" stop-color="#444444"/>
</linearGradient>
<linearGradient id="paint8_linear_1708_24725" x1="12.746" y1="9.84711" x2="11.5571" y2="11.3455" gradientUnits="userSpaceOnUse">
<stop stop-color="#E6E6E6"/>
<stop offset="1" stop-color="#999999"/>
</linearGradient>
<linearGradient id="paint9_linear_1708_24725" x1="12.4535" y1="11.2461" x2="11.3237" y2="11.5284" gradientUnits="userSpaceOnUse">
<stop stop-color="#766E6E" stop-opacity="0"/>
<stop offset="0.2806" stop-color="#716B6B" stop-opacity="0.281"/>
<stop offset="0.5705" stop-color="#656060" stop-opacity="0.571"/>
<stop offset="0.8636" stop-color="#514F4F" stop-opacity="0.864"/>
<stop offset="1" stop-color="#444444"/>
</linearGradient>
<linearGradient id="paint10_linear_1708_24725" x1="11.1823" y1="7.95101" x2="11.059" y2="10.4915" gradientUnits="userSpaceOnUse">
<stop stop-color="#E6E6E6"/>
<stop offset="1" stop-color="#999999"/>
</linearGradient>
<linearGradient id="paint11_linear_1708_24725" x1="11.3719" y1="9.26576" x2="10.6332" y2="10.3572" gradientUnits="userSpaceOnUse">
<stop stop-color="#766E6E" stop-opacity="0"/>
<stop offset="0.2806" stop-color="#716B6B" stop-opacity="0.281"/>
<stop offset="0.5705" stop-color="#656060" stop-opacity="0.571"/>
<stop offset="0.8636" stop-color="#514F4F" stop-opacity="0.864"/>
<stop offset="1" stop-color="#444444"/>
</linearGradient>
<linearGradient id="paint12_linear_1708_24725" x1="3.92384" y1="7.93501" x2="9.18552" y2="13.1967" gradientUnits="userSpaceOnUse">
<stop stop-color="#E6E6E6"/>
<stop offset="1" stop-color="#999999"/>
</linearGradient>
<linearGradient id="paint13_linear_1708_24725" x1="9.58284" y1="13.5937" x2="4.34193" y2="8.35283" gradientUnits="userSpaceOnUse">
<stop stop-color="#E6E6E6"/>
<stop offset="1" stop-color="#999999"/>
</linearGradient>
<linearGradient id="paint14_linear_1708_24725" x1="4.51805" y1="8.52913" x2="8.60329" y2="12.6144" gradientUnits="userSpaceOnUse">
<stop stop-color="#E6E6E6"/>
<stop offset="1" stop-color="#999999"/>
</linearGradient>
<linearGradient id="paint15_linear_1708_24725" x1="6.99979" y1="12.4707" x2="6.99979" y2="15.7453" gradientUnits="userSpaceOnUse">
<stop stop-color="#766E6E" stop-opacity="0"/>
<stop offset="0.2806" stop-color="#716B6B" stop-opacity="0.281"/>
<stop offset="0.5705" stop-color="#656060" stop-opacity="0.571"/>
<stop offset="0.8636" stop-color="#514F4F" stop-opacity="0.864"/>
<stop offset="1" stop-color="#444444"/>
</linearGradient>
<linearGradient id="paint16_linear_1708_24725" x1="9.98769" y1="13.6038" x2="5.86741" y2="11.0103" gradientUnits="userSpaceOnUse">
<stop stop-color="#766E6E" stop-opacity="0"/>
<stop offset="0.2806" stop-color="#716B6B" stop-opacity="0.281"/>
<stop offset="0.5705" stop-color="#656060" stop-opacity="0.571"/>
<stop offset="0.8636" stop-color="#514F4F" stop-opacity="0.864"/>
<stop offset="1" stop-color="#444444"/>
</linearGradient>
<linearGradient id="paint17_linear_1708_24725" x1="5.96084" y1="10.0627" x2="7.83491" y2="11.9367" gradientUnits="userSpaceOnUse">
<stop stop-color="#F9F5F3"/>
<stop offset="1" stop-color="#D8E8F0"/>
</linearGradient>
<linearGradient id="paint18_linear_1708_24725" x1="8.12292" y1="10.5736" x2="5.53271" y2="11.6444" gradientUnits="userSpaceOnUse">
<stop stop-color="#678D98" stop-opacity="0"/>
<stop offset="0.9957" stop-color="#678D98" stop-opacity="0.996"/>
<stop offset="1" stop-color="#678D98"/>
</linearGradient>
<linearGradient id="paint19_linear_1708_24725" x1="7.44674" y1="11.4928" x2="6.02863" y2="10.885" gradientUnits="userSpaceOnUse">
<stop stop-color="#678D98" stop-opacity="0"/>
<stop offset="0.9957" stop-color="#678D98" stop-opacity="0.996"/>
<stop offset="1" stop-color="#678D98"/>
</linearGradient>
<linearGradient id="paint20_linear_1708_24725" x1="6.55346" y1="11.4928" x2="7.97157" y2="10.8851" gradientUnits="userSpaceOnUse">
<stop stop-color="#678D98" stop-opacity="0"/>
<stop offset="0.9957" stop-color="#678D98" stop-opacity="0.996"/>
<stop offset="1" stop-color="#678D98"/>
</linearGradient>
<linearGradient id="paint21_linear_1708_24725" x1="6.58509" y1="11.5639" x2="7.49671" y2="10.0988" gradientUnits="userSpaceOnUse">
<stop stop-color="#678D98" stop-opacity="0"/>
<stop offset="0.9957" stop-color="#678D98" stop-opacity="0.996"/>
<stop offset="1" stop-color="#678D98"/>
</linearGradient>
<linearGradient id="paint22_linear_1708_24725" x1="7.34533" y1="11.3789" x2="7.26938" y2="9.94638" gradientUnits="userSpaceOnUse">
<stop stop-color="#678D98" stop-opacity="0"/>
<stop offset="0.9957" stop-color="#678D98" stop-opacity="0.996"/>
<stop offset="1" stop-color="#678D98"/>
</linearGradient>
<linearGradient id="paint23_linear_1708_24725" x1="9.45829" y1="8.90329" x2="7.53412" y2="5.53598" gradientUnits="userSpaceOnUse">
<stop stop-color="#766E6E" stop-opacity="0"/>
<stop offset="0.2806" stop-color="#716B6B" stop-opacity="0.281"/>
<stop offset="0.5705" stop-color="#656060" stop-opacity="0.571"/>
<stop offset="0.8636" stop-color="#514F4F" stop-opacity="0.864"/>
<stop offset="1" stop-color="#444444"/>
</linearGradient>
<linearGradient id="paint24_linear_1708_24725" x1="7.22268" y1="1.77806" x2="8.4619" y2="3.75453" gradientUnits="userSpaceOnUse">
<stop stop-color="#F9F5F3"/>
<stop offset="1" stop-color="#D8E8F0"/>
</linearGradient>
<linearGradient id="paint25_linear_1708_24725" x1="5.98663" y1="-0.646913" x2="9.83501" y2="3.76614" gradientUnits="userSpaceOnUse">
<stop stop-color="#B3DAFE"/>
<stop offset="1" stop-color="#0182FC"/>
</linearGradient>
<linearGradient id="paint26_linear_1708_24725" x1="6.99956" y1="2.08626" x2="6.99956" y2="1.0499" gradientUnits="userSpaceOnUse">
<stop stop-color="#0182FC" stop-opacity="0"/>
<stop offset="0.1261" stop-color="#017FF3" stop-opacity="0.126"/>
<stop offset="0.3306" stop-color="#0176DB" stop-opacity="0.331"/>
<stop offset="0.5881" stop-color="#0268B4" stop-opacity="0.588"/>
<stop offset="0.8857" stop-color="#02547E" stop-opacity="0.886"/>
<stop offset="1" stop-color="#024C67"/>
</linearGradient>
<linearGradient id="paint27_linear_1708_24725" x1="5.16913" y1="0.0660059" x2="9.01747" y2="4.47906" gradientUnits="userSpaceOnUse">
<stop stop-color="#B3DAFE"/>
<stop offset="1" stop-color="#0182FC"/>
</linearGradient>
<linearGradient id="paint28_linear_1708_24725" x1="8.19156" y1="3.35702" x2="8.72709" y2="3.89255" gradientUnits="userSpaceOnUse">
<stop stop-color="#0182FC" stop-opacity="0"/>
<stop offset="0.1261" stop-color="#017FF3" stop-opacity="0.126"/>
<stop offset="0.3306" stop-color="#0176DB" stop-opacity="0.331"/>
<stop offset="0.5881" stop-color="#0268B4" stop-opacity="0.588"/>
<stop offset="0.8857" stop-color="#02547E" stop-opacity="0.886"/>
<stop offset="1" stop-color="#024C67"/>
</linearGradient>
<linearGradient id="paint29_linear_1708_24725" x1="5.80756" y1="3.35702" x2="5.27203" y2="3.89255" gradientUnits="userSpaceOnUse">
<stop stop-color="#0182FC" stop-opacity="0"/>
<stop offset="0.1261" stop-color="#017FF3" stop-opacity="0.126"/>
<stop offset="0.3306" stop-color="#0176DB" stop-opacity="0.331"/>
<stop offset="0.5881" stop-color="#0268B4" stop-opacity="0.588"/>
<stop offset="0.8857" stop-color="#02547E" stop-opacity="0.886"/>
<stop offset="1" stop-color="#024C67"/>
</linearGradient>
<linearGradient id="paint30_linear_1708_24725" x1="9.71951" y1="5.57213" x2="3.28626" y2="-0.861124" gradientUnits="userSpaceOnUse">
<stop stop-color="#E6E6E6"/>
<stop offset="1" stop-color="#999999"/>
</linearGradient>
<linearGradient id="paint31_linear_1708_24725" x1="7.00005" y1="2.56209" x2="7.00005" y2="6.95547" gradientUnits="userSpaceOnUse">
<stop stop-color="#E6E6E6"/>
<stop offset="1" stop-color="#999999"/>
</linearGradient>
<linearGradient id="paint32_linear_1708_24725" x1="6.99996" y1="5.11373" x2="6.99996" y2="6.55825" gradientUnits="userSpaceOnUse">
<stop stop-color="#766E6E" stop-opacity="0"/>
<stop offset="0.2806" stop-color="#716B6B" stop-opacity="0.281"/>
<stop offset="0.5705" stop-color="#656060" stop-opacity="0.571"/>
<stop offset="0.8636" stop-color="#514F4F" stop-opacity="0.864"/>
<stop offset="1" stop-color="#444444"/>
</linearGradient>
<linearGradient id="paint33_linear_1708_24725" x1="8.48265" y1="4.29579" x2="7.60422" y2="5.18991" gradientUnits="userSpaceOnUse">
<stop stop-color="#766E6E" stop-opacity="0"/>
<stop offset="0.2806" stop-color="#716B6B" stop-opacity="0.281"/>
<stop offset="0.5705" stop-color="#656060" stop-opacity="0.571"/>
<stop offset="0.8636" stop-color="#514F4F" stop-opacity="0.864"/>
<stop offset="1" stop-color="#444444"/>
</linearGradient>
<linearGradient id="paint34_linear_1708_24725" x1="6.32514" y1="5.28626" x2="7.98883" y2="6.94995" gradientUnits="userSpaceOnUse">
<stop stop-color="#F9F5F3"/>
<stop offset="1" stop-color="#D8E8F0"/>
</linearGradient>
<linearGradient id="paint35_linear_1708_24725" x1="7.47807" y1="6.43919" x2="6.65451" y2="5.61563" gradientUnits="userSpaceOnUse">
<stop stop-color="#F9F5F3"/>
<stop offset="1" stop-color="#D8E8F0"/>
</linearGradient>
<linearGradient id="paint36_linear_1708_24725" x1="6.99981" y1="0.355545" x2="6.99981" y2="1.00929" gradientUnits="userSpaceOnUse">
<stop stop-color="#E6E6E6"/>
<stop offset="1" stop-color="#999999"/>
</linearGradient>
</defs>
</svg>
