<svg width="136" height="28" viewBox="0 0 136 28" fill="none" xmlns="http://www.w3.org/2000/svg">
<path fill-rule="evenodd" clip-rule="evenodd" d="M3.75384 27.9993C4.54374 27.9993 5.18471 27.3517 5.18471 26.5529V21.2479C5.18471 20.4491 4.54374 19.8015 3.75384 19.8015H1.43105C0.640965 19.8015 0 20.4491 0 21.2479V26.5529C0 27.3517 0.640965 27.9993 1.43105 27.9993H3.75384Z" fill="white"/>
<path fill-rule="evenodd" clip-rule="evenodd" d="M12.878 28.0001C13.6286 28.0001 14.2771 27.475 14.4205 26.73C14.8292 24.6117 15.5965 20.1258 15.7962 15.4409C15.8423 14.3507 14.7974 13.5808 13.729 13.7372C12.4869 13.9193 11.4225 13.8735 10.2278 13.7849C9.12363 13.7031 8.28298 14.7514 8.51263 15.8463C9.21188 19.1875 9.64783 23.3564 9.82618 26.4313C9.87674 27.3061 10.587 28.0001 11.4536 28.0001H12.878Z" fill="white"/>
<path fill-rule="evenodd" clip-rule="evenodd" d="M26.5476 7.76595C27.4306 7.00052 28.8168 7.72532 28.6649 9.00209C27.8035 16.263 26.0242 22.0629 23.5807 27.2886C23.0256 28.4765 21.5058 27.9507 21.4442 26.5973C21.2158 21.5915 20.3072 16.7212 18.3164 12.1791C17.7845 10.9652 18.9592 9.23075 20.104 9.46183C22.7739 10.0006 24.7639 9.3126 26.5476 7.76595Z" fill="white"/>
<path fill-rule="evenodd" clip-rule="evenodd" d="M21.87 7.45291C23.9059 7.45291 25.5561 5.78469 25.5561 3.7267C25.5561 1.66797 23.9059 -0.000244141 21.87 -0.000244141C19.8338 -0.000244141 18.1836 1.66797 18.1836 3.7267C18.1836 5.78469 19.8338 7.45291 21.87 7.45291Z" fill="white"/>
<path fill-rule="evenodd" clip-rule="evenodd" d="M131.013 18.8315C131.013 17.6608 130.744 16.6856 130.207 15.9059C129.593 14.9951 128.736 14.5406 127.637 14.5406C126.511 14.5406 125.642 14.9825 125.028 15.8663C124.465 16.6473 124.184 17.6351 124.184 18.8315C124.184 19.9755 124.452 20.9507 124.99 21.7571C125.578 22.6679 126.409 23.1357 127.483 23.1614C127.867 23.1614 128.519 22.9536 129.44 22.5374C130.488 21.7836 131.013 20.5479 131.013 18.8315ZM136 18.8315C136 21.3808 135.232 23.526 133.698 25.2683C132.112 27.0888 130.092 27.9998 127.637 27.9998C125.079 27.9998 123.033 27.1278 121.498 25.3855C119.964 23.6431 119.197 21.4584 119.197 18.8315C119.197 16.2306 119.964 14.0456 121.498 12.2775C123.033 10.5093 125.079 9.62476 127.637 9.62476C130.092 9.62476 132.099 10.5284 133.66 12.3365C135.22 14.1436 136 16.3087 136 18.8315ZM118.622 24.5659C118.622 25.7367 117.855 26.6469 116.32 27.2974C115.144 27.7652 113.878 27.9998 112.522 27.9998C110.195 27.9998 108.238 27.0888 106.653 25.2683C105.067 23.4476 104.274 21.3284 104.274 18.9096C104.274 17.7656 104.479 16.5684 104.888 15.3203C105.502 13.5256 106.525 12.1277 107.957 11.1267C109.39 10.125 111.065 9.62476 112.983 9.62476C114.313 9.62476 115.502 9.8719 116.55 10.3654C117.931 11.0161 118.622 11.9264 118.622 13.0969C118.622 14.5014 117.996 15.2554 116.736 15.3594C116.634 15.3851 116.544 15.411 116.467 15.4375C116.103 15.3851 115.54 15.2229 114.774 14.95C114 14.677 113.398 14.5406 112.957 14.5406C111.781 14.5406 110.853 14.9825 110.188 15.8663C109.568 16.6473 109.261 17.6608 109.261 18.9096C109.261 20.886 109.952 22.1996 111.34 22.8501C111.806 23.0576 112.28 23.1614 112.766 23.1614C113.411 23.1614 114.204 23.0058 115.157 22.6939C115.899 22.4334 116.34 22.3036 116.467 22.3036C117.056 22.3036 117.561 22.5308 117.989 22.9866C118.411 23.4418 118.622 23.9684 118.622 24.5659ZM102.813 25.0736C102.813 25.8281 102.584 26.4514 102.123 26.9464C101.663 27.4399 101.062 27.6871 100.32 27.6871C99.6037 27.6871 99.0088 27.4399 98.5359 26.9464C98.0627 26.4514 97.8264 25.8281 97.8264 25.0736V17.0368C97.8264 16.1789 97.6212 15.4766 97.2127 14.9301C96.7521 14.2802 96.1253 13.9549 95.3325 13.9549C94.5395 13.9549 93.9258 14.261 93.4907 14.8717C93.0562 15.4833 92.8385 16.2047 92.8385 17.0368V25.0736C92.8385 25.8281 92.6086 26.4514 92.148 26.9464C91.688 27.4399 91.0874 27.6871 90.3452 27.6871C89.6286 27.6871 89.0345 27.4399 88.5614 26.9464C88.0885 26.4514 87.8513 25.8281 87.8513 25.0736V17.0368C87.8513 16.2047 87.6343 15.4833 87.1993 14.8717C86.7647 14.261 86.151 13.9549 85.3575 13.9549C84.5645 13.9549 83.9451 14.261 83.4974 14.8717C83.0498 15.4833 82.8258 16.2047 82.8258 17.0368V25.0736C82.8258 25.8281 82.5959 26.4514 82.1351 26.9464C81.6745 27.4399 81.074 27.6871 80.3325 27.6871C79.6158 27.6871 79.0211 27.4399 78.548 26.9464C78.0745 26.4514 77.8386 25.8281 77.8386 25.0736V12.6285C77.8386 11.9004 78.0817 11.2764 78.5676 10.7564C79.0529 10.2357 79.642 9.97593 80.3325 9.97593C81.6108 9.97593 82.442 10.5219 82.8258 11.6142C83.6954 10.288 85.1405 9.62476 87.1608 9.62476C89.207 9.62476 90.742 10.3397 91.7642 11.7699C92.8645 10.9902 93.6444 10.4828 94.105 10.249C94.9487 9.83283 95.8568 9.62476 96.8289 9.62476C98.6446 9.62476 100.096 10.1649 101.183 11.2434C102.27 12.3232 102.813 13.7859 102.813 15.6323V25.0736ZM71.325 17.0368C71.325 16.2306 70.9797 15.5156 70.2892 14.8916C69.5985 14.267 68.8564 13.9549 68.0636 13.9549C67.2708 13.9549 66.5417 14.2736 65.8765 14.9109C65.2121 15.5481 64.8798 16.2571 64.8798 17.0368H71.325ZM76.3121 18.2856C76.3121 19.1436 76.1199 19.7286 75.7369 20.0413C75.3531 20.3532 74.7389 20.5089 73.8951 20.5089H64.8798C64.8798 21.4715 65.3397 22.1996 66.2603 22.6939C66.977 23.1098 67.859 23.3179 68.908 23.3179C69.5732 23.3179 70.1484 23.2272 70.6345 23.045C70.6853 23.0191 71.2611 22.7588 72.3608 22.2645C73.1791 21.9002 73.7289 21.7179 74.0103 21.7179C74.5987 21.7179 75.084 21.9325 75.4678 22.3618C75.8516 22.7911 76.0438 23.3179 76.0438 23.9419C76.0438 25.294 75.0333 26.3607 73.0124 27.1412C71.4526 27.7135 69.867 27.9998 68.2559 27.9998C65.6466 27.9998 63.5371 27.1411 61.926 25.4245C60.3141 23.7081 59.509 21.5106 59.509 18.8315C59.509 16.3087 60.3461 14.1436 62.0211 12.3365C63.6966 10.5284 65.775 9.62476 68.2559 9.62476C70.5575 9.62476 72.4755 10.4762 74.0103 12.1801C75.5446 13.8833 76.3121 15.9185 76.3121 18.2856ZM47.2635 22.3427C47.2635 24.085 46.6113 25.4895 45.3064 26.5562C44.079 27.5181 42.5955 27.9998 40.8566 27.9998C39.3986 27.9998 38.0429 27.7652 36.7901 27.2974C35.0759 26.6728 34.2192 25.7366 34.2192 24.4886C34.2192 23.8386 34.3984 23.2662 34.7568 22.7714C35.1145 22.2777 35.6004 22.0307 36.2141 22.0307C36.8025 22.0307 37.6019 22.2837 38.6123 22.7911C39.6221 23.298 40.3961 23.5524 40.9329 23.5524C41.9564 23.5524 42.4679 23.2138 42.4679 22.5374C42.4679 22.1996 42.3589 21.9393 42.1414 21.7571C41.9239 21.5755 41.3551 21.3019 40.4345 20.9382C38.6442 20.2095 37.5445 19.7286 37.1354 19.4946C35.8566 18.7665 35.0759 17.9079 34.7945 16.9196C34.6929 16.4777 34.6414 15.9834 34.6414 15.4375C34.6414 13.7211 35.306 12.3032 36.6363 11.1849C37.8898 10.1449 39.3857 9.62476 41.1244 9.62476C42.404 9.62476 43.6061 9.9104 44.7311 10.4828C46.1383 11.1592 46.8414 12.0826 46.8414 13.2533C46.8414 13.8768 46.6491 14.3968 46.2661 14.8127C45.8824 15.2295 45.3832 15.4375 44.7695 15.4375C44.4881 15.4375 43.8809 15.2229 42.9473 14.7936C42.0138 14.365 41.2912 14.1504 40.7792 14.1504C39.9102 14.1504 39.4755 14.514 39.4755 15.2428C39.4755 15.7106 40.153 16.2047 41.5089 16.7248C43.376 17.4529 44.6288 18.0379 45.268 18.4803C46.5984 19.4689 47.2635 20.756 47.2635 22.3427ZM56.4247 24.9562C56.4247 26.7774 55.5296 27.6871 53.7393 27.6871C53.0994 27.6871 52.5561 27.4208 52.1087 26.8874C51.661 26.3547 51.4376 25.7492 51.4376 25.0736V14.5365H49.7105C48.444 14.5365 47.4087 13.4845 47.4087 12.1966V12.196C47.4087 10.9081 48.444 9.85537 49.7105 9.85537H58.1518C59.4183 9.85537 60.4536 10.9081 60.4536 12.196V12.1966C60.4536 13.4845 59.4183 14.5365 58.1518 14.5365H56.4247V24.9562Z" fill="white"/>
</svg>
