<svg width="16" height="16" viewBox="0 0 16 16" fill="none" xmlns="http://www.w3.org/2000/svg">
<path d="M8.0075 0.50825C8.59084 0.508286 9.1542 0.720778 9.59225 1.106L9.70775 1.21475L10.2313 1.73825C10.3749 1.88098 10.5625 1.97109 10.7638 1.994L10.865 2H11.615C12.2279 1.99997 12.8176 2.23443 13.2632 2.65531C13.7087 3.07618 13.9764 3.65158 14.0113 4.2635L14.015 4.4V5.15C14.015 5.3525 14.084 5.54975 14.2085 5.70725L14.276 5.78225L14.7988 6.30575C15.232 6.73659 15.4847 7.31646 15.5052 7.92715C15.5257 8.53784 15.3124 9.13335 14.909 9.59225L14.8003 9.70775L14.2768 10.2313C14.134 10.3749 14.0439 10.5625 14.021 10.7638L14.015 10.865V11.615C14.015 12.2279 13.7806 12.8176 13.3597 13.2632C12.9388 13.7087 12.3634 13.9764 11.7515 14.0113L11.615 14.015H10.865C10.6628 14.0151 10.4665 14.0832 10.3078 14.2085L10.2328 14.276L9.70925 14.7988C9.27842 15.232 8.69854 15.4847 8.08785 15.5052C7.47717 15.5257 6.88166 15.3124 6.42275 14.909L6.30725 14.8003L5.78375 14.2767C5.64008 14.134 5.45247 14.0439 5.25125 14.021L5.15 14.015H4.4C3.78709 14.015 3.19739 13.7806 2.75183 13.3597C2.30627 12.9388 2.03861 12.3634 2.00375 11.7515L2 11.615V10.865C1.99994 10.6628 1.93177 10.4665 1.8065 10.3077L1.739 10.2328L1.21625 9.70925C0.782965 9.27841 0.530321 8.69854 0.509834 8.08785C0.489348 7.47716 0.702562 6.88166 1.106 6.42275L1.21475 6.30725L1.73825 5.78375C1.88099 5.64008 1.97109 5.45247 1.994 5.25125L2 5.15V4.4L2.00375 4.2635C2.03724 3.67508 2.28607 3.11956 2.70282 2.70282C3.11957 2.28607 3.67509 2.03724 4.2635 2.00375L4.4 2H5.15C5.35222 1.99993 5.54852 1.93177 5.70725 1.8065L5.78225 1.739L6.30575 1.21625C6.52876 0.991917 6.79391 0.813879 7.08595 0.692375C7.378 0.57087 7.69119 0.508296 8.0075 0.50825ZM10.7803 5.96975C10.6396 5.82915 10.4489 5.75016 10.25 5.75016C10.0511 5.75016 9.8604 5.82915 9.71975 5.96975L7.25 8.43875L6.28025 7.46975L6.20975 7.4075C6.05901 7.29094 5.86955 7.23613 5.67986 7.2542C5.49017 7.27227 5.31447 7.36187 5.18844 7.50479C5.06241 7.64772 4.99552 7.83325 5.00133 8.02371C5.00715 8.21417 5.08524 8.39528 5.21975 8.53025L6.71975 10.0303L6.79025 10.0925C6.93456 10.2044 7.11475 10.2599 7.29701 10.2484C7.47928 10.237 7.65111 10.1594 7.78025 10.0303L10.7803 7.03025L10.8425 6.95975C10.9544 6.81545 11.0099 6.63526 10.9984 6.45299C10.987 6.27072 10.9094 6.0989 10.7803 5.96975Z" fill="#36454F"/>
</svg>
