<svg width="20" height="20" viewBox="0 0 20 20" fill="none" xmlns="http://www.w3.org/2000/svg">
<path d="M6.66666 16.6667L15.4167 7.91666C15.6355 7.69779 15.8091 7.43796 15.9276 7.15199C16.0461 6.86602 16.107 6.55953 16.107 6.25C16.107 5.94047 16.0461 5.63397 15.9276 5.348C15.8091 5.06204 15.6355 4.8022 15.4167 4.58333C15.1978 4.36446 14.938 4.19084 14.652 4.07239C14.366 3.95394 14.0595 3.89297 13.75 3.89297C13.4405 3.89297 13.134 3.95394 12.848 4.07239C12.562 4.19084 12.3022 4.36446 12.0833 4.58333L3.33333 13.3333V16.6667H6.66666Z" stroke="#36454F" stroke-width="1.5" stroke-linecap="round" stroke-linejoin="round"/>
<path d="M11.25 5.41666L14.5833 8.75" stroke="#36454F" stroke-width="1.5" stroke-linecap="round" stroke-linejoin="round"/>
<path d="M13.3333 15H16.6667" stroke="#36454F" stroke-width="1.5" stroke-linecap="round" stroke-linejoin="round"/>
</svg>
