<svg width="18" height="18" viewBox="0 0 18 18" fill="none" xmlns="http://www.w3.org/2000/svg">
<path d="M6.75 8.25C6.75 8.84674 6.98705 9.41903 7.40901 9.84099C7.83097 10.2629 8.40326 10.5 9 10.5C9.59674 10.5 10.169 10.2629 10.591 9.84099C11.0129 9.41903 11.25 8.84674 11.25 8.25C11.25 7.65326 11.0129 7.08097 10.591 6.65901C10.169 6.23705 9.59674 6 9 6C8.40326 6 7.83097 6.23705 7.40901 6.65901C6.98705 7.08097 6.75 7.65326 6.75 8.25Z" stroke="#4B6A7E" stroke-width="1.5" stroke-linecap="round" stroke-linejoin="round"/>
<path d="M13.2428 12.4929L10.0605 15.6751C9.77924 15.9561 9.39794 16.114 9.00038 16.114C8.60282 16.114 8.22151 15.9561 7.94025 15.6751L4.75725 12.4929C3.91817 11.6538 3.34675 10.5847 3.11527 9.42079C2.88378 8.25692 3.00262 7.05053 3.45676 5.95419C3.91089 4.85786 4.67993 3.9208 5.66661 3.26153C6.6533 2.60225 7.81333 2.25037 9 2.25037C10.1867 2.25037 11.3467 2.60225 12.3334 3.26153C13.3201 3.9208 14.0891 4.85786 14.5433 5.95419C14.9974 7.05053 15.1162 8.25692 14.8847 9.42079C14.6533 10.5847 14.0818 11.6538 13.2428 12.4929Z" stroke="#4B6A7E" stroke-width="1.5" stroke-linecap="round" stroke-linejoin="round"/>
</svg>
