<svg width="20" height="20" viewBox="0 0 20 20" fill="none" xmlns="http://www.w3.org/2000/svg">
<path d="M7.16675 12.5L12.1667 7.5" stroke="#36454F" stroke-width="1.5" stroke-linecap="round" stroke-linejoin="round"/>
<path d="M8.8335 5L9.21933 4.55333C10.0008 3.77194 11.0607 3.333 12.1659 3.33308C13.271 3.33315 14.3309 3.77224 15.1122 4.55375C15.8936 5.33525 16.3326 6.39516 16.3325 7.50029C16.3324 8.60543 15.8933 9.66527 15.1118 10.4467L14.6668 10.8333" stroke="#36454F" stroke-width="1.5" stroke-linecap="round" stroke-linejoin="round"/>
<path d="M10.5001 15L10.1693 15.445C9.37866 16.2268 8.31161 16.6653 7.1997 16.6653C6.08779 16.6653 5.02074 16.2268 4.23012 15.445C3.84042 15.0597 3.53103 14.6009 3.31988 14.0951C3.10872 13.5894 3 13.0468 3 12.4988C3 11.9507 3.10872 11.4081 3.31988 10.9024C3.53103 10.3967 3.84042 9.93784 4.23012 9.55251L4.66679 9.16667" stroke="#36454F" stroke-width="1.5" stroke-linecap="round" stroke-linejoin="round"/>
</svg>
