<svg width="20" height="20" viewBox="0 0 20 20" fill="none" xmlns="http://www.w3.org/2000/svg">
<path d="M7.5 12.5L12.5 7.5" stroke="white" stroke-width="1.5" stroke-linecap="round" stroke-linejoin="round"/>
<path d="M9.1665 5.00005L9.55234 4.55338C10.3338 3.77199 11.3937 3.33305 12.4989 3.33313C13.604 3.33321 14.6639 3.7723 15.4453 4.5538C16.2266 5.33531 16.6656 6.39521 16.6655 7.50035C16.6654 8.60548 16.2263 9.66532 15.4448 10.4467L14.9998 10.8334" stroke="white" stroke-width="1.5" stroke-linecap="round" stroke-linejoin="round"/>
<path d="M10.8331 15L10.5023 15.445C9.71167 16.2268 8.64462 16.6653 7.53271 16.6653C6.4208 16.6653 5.35375 16.2268 4.56313 15.445C4.17342 15.0596 3.86404 14.6008 3.65289 14.0951C3.44173 13.5893 3.33301 13.0468 3.33301 12.4987C3.33301 11.9507 3.44173 11.4081 3.65289 10.9023C3.86404 10.3966 4.17342 9.93779 4.56313 9.55246L4.99979 9.16663" stroke="white" stroke-width="1.5" stroke-linecap="round" stroke-linejoin="round"/>
</svg>
