<svg width="14" height="14" viewBox="0 0 14 14" fill="none" xmlns="http://www.w3.org/2000/svg">
<path d="M7.00662 0.340666C7.52514 0.340697 8.0259 0.52958 8.41528 0.871999L8.51795 0.968666L8.98328 1.434C9.11099 1.56087 9.27775 1.64097 9.45662 1.66133L9.54662 1.66667H10.2133C10.7581 1.66664 11.2823 1.87505 11.6783 2.24916C12.0744 2.62327 12.3123 3.13474 12.3433 3.67867L12.3466 3.8V4.46667C12.3466 4.64667 12.4079 4.822 12.5186 4.962L12.5786 5.02867L13.0433 5.494C13.4284 5.87696 13.653 6.39241 13.6712 6.93524C13.6894 7.47808 13.4999 8.00742 13.1413 8.41533L13.0446 8.518L12.5793 8.98333C12.4524 9.11104 12.3723 9.2778 12.3519 9.45667L12.3466 9.54667V10.2133C12.3466 10.7581 12.1382 11.2823 11.7641 11.6784C11.39 12.0744 10.8785 12.3123 10.3346 12.3433L10.2133 12.3467H9.54662C9.36687 12.3467 9.19238 12.4073 9.05128 12.5187L8.98462 12.5787L8.51928 13.0433C8.13632 13.4285 7.62087 13.6531 7.07804 13.6713C6.5352 13.6895 6.00586 13.4999 5.59795 13.1413L5.49528 13.0447L5.02995 12.5793C4.90224 12.4525 4.73548 12.3724 4.55662 12.352L4.46662 12.3467H3.79995C3.25514 12.3467 2.73096 12.1383 2.3349 11.7642C1.93885 11.3901 1.70094 10.8786 1.66995 10.3347L1.66662 10.2133V9.54667C1.66656 9.36692 1.60597 9.19243 1.49462 9.05133L1.43462 8.98467L0.969949 8.51933C0.584803 8.13637 0.360231 7.62092 0.342021 7.07809C0.323811 6.53525 0.513335 6.00591 0.871949 5.598L0.968616 5.49533L1.43395 5.03C1.56082 4.90229 1.64092 4.73553 1.66128 4.55667L1.66662 4.46667V3.8L1.66995 3.67867C1.69972 3.15563 1.9209 2.66183 2.29134 2.29139C2.66178 1.92095 3.15558 1.69977 3.67862 1.67L3.79995 1.66667H4.46662C4.64636 1.66661 4.82085 1.60602 4.96195 1.49467L5.02862 1.43467L5.49395 0.969999C5.69217 0.770592 5.92786 0.612336 6.18746 0.504332C6.44706 0.396328 6.72545 0.340707 7.00662 0.340666ZM9.47128 5.19533C9.34626 5.07035 9.17673 5.00014 8.99995 5.00014C8.82317 5.00014 8.65364 5.07035 8.52862 5.19533L6.33328 7.39L5.47128 6.52867L5.40862 6.47333C5.27462 6.36972 5.10621 6.321 4.9376 6.33707C4.76898 6.35313 4.6128 6.43277 4.50078 6.55981C4.38876 6.68686 4.32929 6.85178 4.33446 7.02108C4.33963 7.19038 4.40905 7.35136 4.52862 7.47133L5.86195 8.80467L5.92462 8.86C6.05289 8.9595 6.21305 9.00878 6.37507 8.99859C6.53709 8.9884 6.68982 8.91945 6.80462 8.80467L9.47128 6.138L9.52662 6.07533C9.62612 5.94706 9.6754 5.7869 9.66521 5.62488C9.65502 5.46286 9.58607 5.31013 9.47128 5.19533Z" fill="#4D956A"/>
</svg>
