<svg width="18" height="14" viewBox="0 0 18 14" fill="none" xmlns="http://www.w3.org/2000/svg">
<path d="M9.0609 4.32916C9.0609 5.97438 7.75552 7.30811 6.14518 7.30811C4.53491 7.30811 3.22949 5.97438 3.22949 4.32916C3.22949 2.6839 4.53491 1.35017 6.14518 1.35017C7.75552 1.35017 9.0609 2.6839 9.0609 4.32916Z" stroke="#36454F" stroke-miterlimit="10"/>
<path d="M1.80564 12.6349C1.30888 12.6349 0.926094 12.1773 1.01478 11.6779C1.45601 9.1927 3.58489 7.30804 6.14461 7.30804C8.70433 7.30804 10.8332 9.1927 11.2744 11.6779C11.3631 12.1773 10.9803 12.6349 10.4835 12.6349H1.80564Z" stroke="#36454F" stroke-miterlimit="10"/>
<path d="M15.2758 3.9149C15.2758 5.18849 14.2653 6.22095 13.0188 6.22095C11.7722 6.22095 10.7617 5.18849 10.7617 3.9149C10.7617 2.64135 11.7722 1.60889 13.0188 1.60889C14.2653 1.60889 15.2758 2.64135 15.2758 3.9149Z" stroke="#36454F" stroke-miterlimit="10"/>
<path d="M9.41406 8.48593C10.0792 7.14212 11.4433 6.22075 13.0179 6.22075C14.9994 6.22075 16.6473 7.67964 16.9889 9.60346C17.0575 9.99003 16.7612 10.3442 16.3767 10.3442H10.8521" stroke="#36454F" stroke-miterlimit="10"/>
</svg>
